%TF.GenerationSoftware,KiCad,Pcbnew,8.0.0*%
%TF.CreationDate,2024-03-03T15:30:26-08:00*%
%TF.ProjectId,BLDC_Motor Controller,424c4443-5f4d-46f7-946f-7220436f6e74,rev01_1*%
%TF.SameCoordinates,Original*%
%TF.FileFunction,Drillmap*%
%TF.FilePolarity,Positive*%
%FSLAX45Y45*%
G04 Gerber Fmt 4.5, Leading zero omitted, Abs format (unit mm)*
G04 Created by KiCad (PCBNEW 8.0.0) date 2024-03-03 15:30:26*
%MOMM*%
%LPD*%
G01*
G04 APERTURE LIST*
%ADD10C,0.050000*%
%ADD11C,0.200000*%
%ADD12C,0.100000*%
G04 APERTURE END LIST*
D10*
X25536000Y-17420000D02*
X16536000Y-17420000D01*
X25536000Y-9920000D02*
G75*
G02*
X26036000Y-10420000I0J-500000D01*
G01*
X16036000Y-16920000D02*
X16036000Y-10420000D01*
X16036000Y-10420000D02*
G75*
G02*
X16536000Y-9920000I500000J0D01*
G01*
X26036000Y-16920000D02*
G75*
G02*
X25536000Y-17420000I-500000J0D01*
G01*
X26036000Y-10420000D02*
X26036000Y-16920000D01*
X16536000Y-17420000D02*
G75*
G02*
X16036000Y-16920000I0J500000D01*
G01*
X16536000Y-9920000D02*
X25536000Y-9920000D01*
D11*
D12*
X21347409Y-10522062D02*
X21422410Y-10597063D01*
X21422410Y-10522062D02*
X21347409Y-10597063D01*
X21927393Y-10522062D02*
X22002395Y-10597063D01*
X22002395Y-10522062D02*
X21927393Y-10597063D01*
D11*
X16294277Y-17733984D02*
X16294277Y-17533984D01*
X16294277Y-17533984D02*
X16341896Y-17533984D01*
X16341896Y-17533984D02*
X16370467Y-17543508D01*
X16370467Y-17543508D02*
X16389515Y-17562555D01*
X16389515Y-17562555D02*
X16399039Y-17581603D01*
X16399039Y-17581603D02*
X16408562Y-17619698D01*
X16408562Y-17619698D02*
X16408562Y-17648270D01*
X16408562Y-17648270D02*
X16399039Y-17686365D01*
X16399039Y-17686365D02*
X16389515Y-17705412D01*
X16389515Y-17705412D02*
X16370467Y-17724460D01*
X16370467Y-17724460D02*
X16341896Y-17733984D01*
X16341896Y-17733984D02*
X16294277Y-17733984D01*
X16494277Y-17733984D02*
X16494277Y-17600650D01*
X16494277Y-17638746D02*
X16503801Y-17619698D01*
X16503801Y-17619698D02*
X16513324Y-17610174D01*
X16513324Y-17610174D02*
X16532372Y-17600650D01*
X16532372Y-17600650D02*
X16551420Y-17600650D01*
X16618086Y-17733984D02*
X16618086Y-17600650D01*
X16618086Y-17533984D02*
X16608562Y-17543508D01*
X16608562Y-17543508D02*
X16618086Y-17553031D01*
X16618086Y-17553031D02*
X16627610Y-17543508D01*
X16627610Y-17543508D02*
X16618086Y-17533984D01*
X16618086Y-17533984D02*
X16618086Y-17553031D01*
X16741896Y-17733984D02*
X16722848Y-17724460D01*
X16722848Y-17724460D02*
X16713324Y-17705412D01*
X16713324Y-17705412D02*
X16713324Y-17533984D01*
X16846658Y-17733984D02*
X16827610Y-17724460D01*
X16827610Y-17724460D02*
X16818086Y-17705412D01*
X16818086Y-17705412D02*
X16818086Y-17533984D01*
X17075229Y-17733984D02*
X17075229Y-17533984D01*
X17075229Y-17533984D02*
X17141896Y-17676841D01*
X17141896Y-17676841D02*
X17208563Y-17533984D01*
X17208563Y-17533984D02*
X17208563Y-17733984D01*
X17389515Y-17733984D02*
X17389515Y-17629222D01*
X17389515Y-17629222D02*
X17379991Y-17610174D01*
X17379991Y-17610174D02*
X17360944Y-17600650D01*
X17360944Y-17600650D02*
X17322848Y-17600650D01*
X17322848Y-17600650D02*
X17303801Y-17610174D01*
X17389515Y-17724460D02*
X17370467Y-17733984D01*
X17370467Y-17733984D02*
X17322848Y-17733984D01*
X17322848Y-17733984D02*
X17303801Y-17724460D01*
X17303801Y-17724460D02*
X17294277Y-17705412D01*
X17294277Y-17705412D02*
X17294277Y-17686365D01*
X17294277Y-17686365D02*
X17303801Y-17667317D01*
X17303801Y-17667317D02*
X17322848Y-17657793D01*
X17322848Y-17657793D02*
X17370467Y-17657793D01*
X17370467Y-17657793D02*
X17389515Y-17648270D01*
X17484753Y-17600650D02*
X17484753Y-17800650D01*
X17484753Y-17610174D02*
X17503801Y-17600650D01*
X17503801Y-17600650D02*
X17541896Y-17600650D01*
X17541896Y-17600650D02*
X17560944Y-17610174D01*
X17560944Y-17610174D02*
X17570467Y-17619698D01*
X17570467Y-17619698D02*
X17579991Y-17638746D01*
X17579991Y-17638746D02*
X17579991Y-17695889D01*
X17579991Y-17695889D02*
X17570467Y-17714936D01*
X17570467Y-17714936D02*
X17560944Y-17724460D01*
X17560944Y-17724460D02*
X17541896Y-17733984D01*
X17541896Y-17733984D02*
X17503801Y-17733984D01*
X17503801Y-17733984D02*
X17484753Y-17724460D01*
X17665705Y-17714936D02*
X17675229Y-17724460D01*
X17675229Y-17724460D02*
X17665705Y-17733984D01*
X17665705Y-17733984D02*
X17656182Y-17724460D01*
X17656182Y-17724460D02*
X17665705Y-17714936D01*
X17665705Y-17714936D02*
X17665705Y-17733984D01*
X17665705Y-17610174D02*
X17675229Y-17619698D01*
X17675229Y-17619698D02*
X17665705Y-17629222D01*
X17665705Y-17629222D02*
X17656182Y-17619698D01*
X17656182Y-17619698D02*
X17665705Y-17610174D01*
X17665705Y-17610174D02*
X17665705Y-17629222D01*
D12*
X15958499Y-18024999D02*
X16033500Y-18100001D01*
X16033500Y-18024999D02*
X15958499Y-18100001D01*
D11*
X16332372Y-17953984D02*
X16351420Y-17953984D01*
X16351420Y-17953984D02*
X16370467Y-17963508D01*
X16370467Y-17963508D02*
X16379991Y-17973031D01*
X16379991Y-17973031D02*
X16389515Y-17992079D01*
X16389515Y-17992079D02*
X16399039Y-18030174D01*
X16399039Y-18030174D02*
X16399039Y-18077793D01*
X16399039Y-18077793D02*
X16389515Y-18115889D01*
X16389515Y-18115889D02*
X16379991Y-18134936D01*
X16379991Y-18134936D02*
X16370467Y-18144460D01*
X16370467Y-18144460D02*
X16351420Y-18153984D01*
X16351420Y-18153984D02*
X16332372Y-18153984D01*
X16332372Y-18153984D02*
X16313324Y-18144460D01*
X16313324Y-18144460D02*
X16303801Y-18134936D01*
X16303801Y-18134936D02*
X16294277Y-18115889D01*
X16294277Y-18115889D02*
X16284753Y-18077793D01*
X16284753Y-18077793D02*
X16284753Y-18030174D01*
X16284753Y-18030174D02*
X16294277Y-17992079D01*
X16294277Y-17992079D02*
X16303801Y-17973031D01*
X16303801Y-17973031D02*
X16313324Y-17963508D01*
X16313324Y-17963508D02*
X16332372Y-17953984D01*
X16484753Y-18134936D02*
X16494277Y-18144460D01*
X16494277Y-18144460D02*
X16484753Y-18153984D01*
X16484753Y-18153984D02*
X16475229Y-18144460D01*
X16475229Y-18144460D02*
X16484753Y-18134936D01*
X16484753Y-18134936D02*
X16484753Y-18153984D01*
X16560943Y-17953984D02*
X16694277Y-17953984D01*
X16694277Y-17953984D02*
X16608562Y-18153984D01*
X16865705Y-17953984D02*
X16770467Y-17953984D01*
X16770467Y-17953984D02*
X16760943Y-18049222D01*
X16760943Y-18049222D02*
X16770467Y-18039698D01*
X16770467Y-18039698D02*
X16789515Y-18030174D01*
X16789515Y-18030174D02*
X16837134Y-18030174D01*
X16837134Y-18030174D02*
X16856182Y-18039698D01*
X16856182Y-18039698D02*
X16865705Y-18049222D01*
X16865705Y-18049222D02*
X16875229Y-18068270D01*
X16875229Y-18068270D02*
X16875229Y-18115889D01*
X16875229Y-18115889D02*
X16865705Y-18134936D01*
X16865705Y-18134936D02*
X16856182Y-18144460D01*
X16856182Y-18144460D02*
X16837134Y-18153984D01*
X16837134Y-18153984D02*
X16789515Y-18153984D01*
X16789515Y-18153984D02*
X16770467Y-18144460D01*
X16770467Y-18144460D02*
X16760943Y-18134936D01*
X16999039Y-17953984D02*
X17018086Y-17953984D01*
X17018086Y-17953984D02*
X17037134Y-17963508D01*
X17037134Y-17963508D02*
X17046658Y-17973031D01*
X17046658Y-17973031D02*
X17056182Y-17992079D01*
X17056182Y-17992079D02*
X17065705Y-18030174D01*
X17065705Y-18030174D02*
X17065705Y-18077793D01*
X17065705Y-18077793D02*
X17056182Y-18115889D01*
X17056182Y-18115889D02*
X17046658Y-18134936D01*
X17046658Y-18134936D02*
X17037134Y-18144460D01*
X17037134Y-18144460D02*
X17018086Y-18153984D01*
X17018086Y-18153984D02*
X16999039Y-18153984D01*
X16999039Y-18153984D02*
X16979991Y-18144460D01*
X16979991Y-18144460D02*
X16970467Y-18134936D01*
X16970467Y-18134936D02*
X16960944Y-18115889D01*
X16960944Y-18115889D02*
X16951420Y-18077793D01*
X16951420Y-18077793D02*
X16951420Y-18030174D01*
X16951420Y-18030174D02*
X16960944Y-17992079D01*
X16960944Y-17992079D02*
X16970467Y-17973031D01*
X16970467Y-17973031D02*
X16979991Y-17963508D01*
X16979991Y-17963508D02*
X16999039Y-17953984D01*
X17151420Y-18153984D02*
X17151420Y-18020650D01*
X17151420Y-18039698D02*
X17160944Y-18030174D01*
X17160944Y-18030174D02*
X17179991Y-18020650D01*
X17179991Y-18020650D02*
X17208563Y-18020650D01*
X17208563Y-18020650D02*
X17227610Y-18030174D01*
X17227610Y-18030174D02*
X17237134Y-18049222D01*
X17237134Y-18049222D02*
X17237134Y-18153984D01*
X17237134Y-18049222D02*
X17246658Y-18030174D01*
X17246658Y-18030174D02*
X17265705Y-18020650D01*
X17265705Y-18020650D02*
X17294277Y-18020650D01*
X17294277Y-18020650D02*
X17313325Y-18030174D01*
X17313325Y-18030174D02*
X17322848Y-18049222D01*
X17322848Y-18049222D02*
X17322848Y-18153984D01*
X17418086Y-18153984D02*
X17418086Y-18020650D01*
X17418086Y-18039698D02*
X17427610Y-18030174D01*
X17427610Y-18030174D02*
X17446658Y-18020650D01*
X17446658Y-18020650D02*
X17475229Y-18020650D01*
X17475229Y-18020650D02*
X17494277Y-18030174D01*
X17494277Y-18030174D02*
X17503801Y-18049222D01*
X17503801Y-18049222D02*
X17503801Y-18153984D01*
X17503801Y-18049222D02*
X17513325Y-18030174D01*
X17513325Y-18030174D02*
X17532372Y-18020650D01*
X17532372Y-18020650D02*
X17560944Y-18020650D01*
X17560944Y-18020650D02*
X17579991Y-18030174D01*
X17579991Y-18030174D02*
X17589515Y-18049222D01*
X17589515Y-18049222D02*
X17589515Y-18153984D01*
X17979991Y-17944460D02*
X17808563Y-18201603D01*
X18237134Y-17953984D02*
X18256182Y-17953984D01*
X18256182Y-17953984D02*
X18275229Y-17963508D01*
X18275229Y-17963508D02*
X18284753Y-17973031D01*
X18284753Y-17973031D02*
X18294277Y-17992079D01*
X18294277Y-17992079D02*
X18303801Y-18030174D01*
X18303801Y-18030174D02*
X18303801Y-18077793D01*
X18303801Y-18077793D02*
X18294277Y-18115889D01*
X18294277Y-18115889D02*
X18284753Y-18134936D01*
X18284753Y-18134936D02*
X18275229Y-18144460D01*
X18275229Y-18144460D02*
X18256182Y-18153984D01*
X18256182Y-18153984D02*
X18237134Y-18153984D01*
X18237134Y-18153984D02*
X18218087Y-18144460D01*
X18218087Y-18144460D02*
X18208563Y-18134936D01*
X18208563Y-18134936D02*
X18199039Y-18115889D01*
X18199039Y-18115889D02*
X18189515Y-18077793D01*
X18189515Y-18077793D02*
X18189515Y-18030174D01*
X18189515Y-18030174D02*
X18199039Y-17992079D01*
X18199039Y-17992079D02*
X18208563Y-17973031D01*
X18208563Y-17973031D02*
X18218087Y-17963508D01*
X18218087Y-17963508D02*
X18237134Y-17953984D01*
X18389515Y-18134936D02*
X18399039Y-18144460D01*
X18399039Y-18144460D02*
X18389515Y-18153984D01*
X18389515Y-18153984D02*
X18379991Y-18144460D01*
X18379991Y-18144460D02*
X18389515Y-18134936D01*
X18389515Y-18134936D02*
X18389515Y-18153984D01*
X18522848Y-17953984D02*
X18541896Y-17953984D01*
X18541896Y-17953984D02*
X18560944Y-17963508D01*
X18560944Y-17963508D02*
X18570468Y-17973031D01*
X18570468Y-17973031D02*
X18579991Y-17992079D01*
X18579991Y-17992079D02*
X18589515Y-18030174D01*
X18589515Y-18030174D02*
X18589515Y-18077793D01*
X18589515Y-18077793D02*
X18579991Y-18115889D01*
X18579991Y-18115889D02*
X18570468Y-18134936D01*
X18570468Y-18134936D02*
X18560944Y-18144460D01*
X18560944Y-18144460D02*
X18541896Y-18153984D01*
X18541896Y-18153984D02*
X18522848Y-18153984D01*
X18522848Y-18153984D02*
X18503801Y-18144460D01*
X18503801Y-18144460D02*
X18494277Y-18134936D01*
X18494277Y-18134936D02*
X18484753Y-18115889D01*
X18484753Y-18115889D02*
X18475229Y-18077793D01*
X18475229Y-18077793D02*
X18475229Y-18030174D01*
X18475229Y-18030174D02*
X18484753Y-17992079D01*
X18484753Y-17992079D02*
X18494277Y-17973031D01*
X18494277Y-17973031D02*
X18503801Y-17963508D01*
X18503801Y-17963508D02*
X18522848Y-17953984D01*
X18665706Y-17973031D02*
X18675229Y-17963508D01*
X18675229Y-17963508D02*
X18694277Y-17953984D01*
X18694277Y-17953984D02*
X18741896Y-17953984D01*
X18741896Y-17953984D02*
X18760944Y-17963508D01*
X18760944Y-17963508D02*
X18770468Y-17973031D01*
X18770468Y-17973031D02*
X18779991Y-17992079D01*
X18779991Y-17992079D02*
X18779991Y-18011127D01*
X18779991Y-18011127D02*
X18770468Y-18039698D01*
X18770468Y-18039698D02*
X18656182Y-18153984D01*
X18656182Y-18153984D02*
X18779991Y-18153984D01*
X18875229Y-18153984D02*
X18913325Y-18153984D01*
X18913325Y-18153984D02*
X18932372Y-18144460D01*
X18932372Y-18144460D02*
X18941896Y-18134936D01*
X18941896Y-18134936D02*
X18960944Y-18106365D01*
X18960944Y-18106365D02*
X18970468Y-18068270D01*
X18970468Y-18068270D02*
X18970468Y-17992079D01*
X18970468Y-17992079D02*
X18960944Y-17973031D01*
X18960944Y-17973031D02*
X18951420Y-17963508D01*
X18951420Y-17963508D02*
X18932372Y-17953984D01*
X18932372Y-17953984D02*
X18894277Y-17953984D01*
X18894277Y-17953984D02*
X18875229Y-17963508D01*
X18875229Y-17963508D02*
X18865706Y-17973031D01*
X18865706Y-17973031D02*
X18856182Y-17992079D01*
X18856182Y-17992079D02*
X18856182Y-18039698D01*
X18856182Y-18039698D02*
X18865706Y-18058746D01*
X18865706Y-18058746D02*
X18875229Y-18068270D01*
X18875229Y-18068270D02*
X18894277Y-18077793D01*
X18894277Y-18077793D02*
X18932372Y-18077793D01*
X18932372Y-18077793D02*
X18951420Y-18068270D01*
X18951420Y-18068270D02*
X18960944Y-18058746D01*
X18960944Y-18058746D02*
X18970468Y-18039698D01*
X19151420Y-17953984D02*
X19056182Y-17953984D01*
X19056182Y-17953984D02*
X19046658Y-18049222D01*
X19046658Y-18049222D02*
X19056182Y-18039698D01*
X19056182Y-18039698D02*
X19075229Y-18030174D01*
X19075229Y-18030174D02*
X19122849Y-18030174D01*
X19122849Y-18030174D02*
X19141896Y-18039698D01*
X19141896Y-18039698D02*
X19151420Y-18049222D01*
X19151420Y-18049222D02*
X19160944Y-18068270D01*
X19160944Y-18068270D02*
X19160944Y-18115889D01*
X19160944Y-18115889D02*
X19151420Y-18134936D01*
X19151420Y-18134936D02*
X19141896Y-18144460D01*
X19141896Y-18144460D02*
X19122849Y-18153984D01*
X19122849Y-18153984D02*
X19075229Y-18153984D01*
X19075229Y-18153984D02*
X19056182Y-18144460D01*
X19056182Y-18144460D02*
X19046658Y-18134936D01*
X19237134Y-17953984D02*
X19237134Y-17992079D01*
X19313325Y-17953984D02*
X19313325Y-17992079D01*
X19608563Y-18230174D02*
X19599039Y-18220650D01*
X19599039Y-18220650D02*
X19579991Y-18192079D01*
X19579991Y-18192079D02*
X19570468Y-18173031D01*
X19570468Y-18173031D02*
X19560944Y-18144460D01*
X19560944Y-18144460D02*
X19551420Y-18096841D01*
X19551420Y-18096841D02*
X19551420Y-18058746D01*
X19551420Y-18058746D02*
X19560944Y-18011127D01*
X19560944Y-18011127D02*
X19570468Y-17982555D01*
X19570468Y-17982555D02*
X19579991Y-17963508D01*
X19579991Y-17963508D02*
X19599039Y-17934936D01*
X19599039Y-17934936D02*
X19608563Y-17925412D01*
X19675230Y-17973031D02*
X19684753Y-17963508D01*
X19684753Y-17963508D02*
X19703801Y-17953984D01*
X19703801Y-17953984D02*
X19751420Y-17953984D01*
X19751420Y-17953984D02*
X19770468Y-17963508D01*
X19770468Y-17963508D02*
X19779991Y-17973031D01*
X19779991Y-17973031D02*
X19789515Y-17992079D01*
X19789515Y-17992079D02*
X19789515Y-18011127D01*
X19789515Y-18011127D02*
X19779991Y-18039698D01*
X19779991Y-18039698D02*
X19665706Y-18153984D01*
X19665706Y-18153984D02*
X19789515Y-18153984D01*
X20027611Y-18153984D02*
X20027611Y-17953984D01*
X20113325Y-18153984D02*
X20113325Y-18049222D01*
X20113325Y-18049222D02*
X20103801Y-18030174D01*
X20103801Y-18030174D02*
X20084753Y-18020650D01*
X20084753Y-18020650D02*
X20056182Y-18020650D01*
X20056182Y-18020650D02*
X20037134Y-18030174D01*
X20037134Y-18030174D02*
X20027611Y-18039698D01*
X20237134Y-18153984D02*
X20218087Y-18144460D01*
X20218087Y-18144460D02*
X20208563Y-18134936D01*
X20208563Y-18134936D02*
X20199039Y-18115889D01*
X20199039Y-18115889D02*
X20199039Y-18058746D01*
X20199039Y-18058746D02*
X20208563Y-18039698D01*
X20208563Y-18039698D02*
X20218087Y-18030174D01*
X20218087Y-18030174D02*
X20237134Y-18020650D01*
X20237134Y-18020650D02*
X20265706Y-18020650D01*
X20265706Y-18020650D02*
X20284753Y-18030174D01*
X20284753Y-18030174D02*
X20294277Y-18039698D01*
X20294277Y-18039698D02*
X20303801Y-18058746D01*
X20303801Y-18058746D02*
X20303801Y-18115889D01*
X20303801Y-18115889D02*
X20294277Y-18134936D01*
X20294277Y-18134936D02*
X20284753Y-18144460D01*
X20284753Y-18144460D02*
X20265706Y-18153984D01*
X20265706Y-18153984D02*
X20237134Y-18153984D01*
X20418087Y-18153984D02*
X20399039Y-18144460D01*
X20399039Y-18144460D02*
X20389515Y-18125412D01*
X20389515Y-18125412D02*
X20389515Y-17953984D01*
X20570468Y-18144460D02*
X20551420Y-18153984D01*
X20551420Y-18153984D02*
X20513325Y-18153984D01*
X20513325Y-18153984D02*
X20494277Y-18144460D01*
X20494277Y-18144460D02*
X20484753Y-18125412D01*
X20484753Y-18125412D02*
X20484753Y-18049222D01*
X20484753Y-18049222D02*
X20494277Y-18030174D01*
X20494277Y-18030174D02*
X20513325Y-18020650D01*
X20513325Y-18020650D02*
X20551420Y-18020650D01*
X20551420Y-18020650D02*
X20570468Y-18030174D01*
X20570468Y-18030174D02*
X20579992Y-18049222D01*
X20579992Y-18049222D02*
X20579992Y-18068270D01*
X20579992Y-18068270D02*
X20484753Y-18087317D01*
X20656182Y-18144460D02*
X20675230Y-18153984D01*
X20675230Y-18153984D02*
X20713325Y-18153984D01*
X20713325Y-18153984D02*
X20732373Y-18144460D01*
X20732373Y-18144460D02*
X20741896Y-18125412D01*
X20741896Y-18125412D02*
X20741896Y-18115889D01*
X20741896Y-18115889D02*
X20732373Y-18096841D01*
X20732373Y-18096841D02*
X20713325Y-18087317D01*
X20713325Y-18087317D02*
X20684753Y-18087317D01*
X20684753Y-18087317D02*
X20665706Y-18077793D01*
X20665706Y-18077793D02*
X20656182Y-18058746D01*
X20656182Y-18058746D02*
X20656182Y-18049222D01*
X20656182Y-18049222D02*
X20665706Y-18030174D01*
X20665706Y-18030174D02*
X20684753Y-18020650D01*
X20684753Y-18020650D02*
X20713325Y-18020650D01*
X20713325Y-18020650D02*
X20732373Y-18030174D01*
X20808563Y-18230174D02*
X20818087Y-18220650D01*
X20818087Y-18220650D02*
X20837134Y-18192079D01*
X20837134Y-18192079D02*
X20846658Y-18173031D01*
X20846658Y-18173031D02*
X20856182Y-18144460D01*
X20856182Y-18144460D02*
X20865706Y-18096841D01*
X20865706Y-18096841D02*
X20865706Y-18058746D01*
X20865706Y-18058746D02*
X20856182Y-18011127D01*
X20856182Y-18011127D02*
X20846658Y-17982555D01*
X20846658Y-17982555D02*
X20837134Y-17963508D01*
X20837134Y-17963508D02*
X20818087Y-17934936D01*
X20818087Y-17934936D02*
X20808563Y-17925412D01*
X21170468Y-18230174D02*
X21160944Y-18220650D01*
X21160944Y-18220650D02*
X21141896Y-18192079D01*
X21141896Y-18192079D02*
X21132373Y-18173031D01*
X21132373Y-18173031D02*
X21122849Y-18144460D01*
X21122849Y-18144460D02*
X21113325Y-18096841D01*
X21113325Y-18096841D02*
X21113325Y-18058746D01*
X21113325Y-18058746D02*
X21122849Y-18011127D01*
X21122849Y-18011127D02*
X21132373Y-17982555D01*
X21132373Y-17982555D02*
X21141896Y-17963508D01*
X21141896Y-17963508D02*
X21160944Y-17934936D01*
X21160944Y-17934936D02*
X21170468Y-17925412D01*
X21246658Y-18020650D02*
X21246658Y-18153984D01*
X21246658Y-18039698D02*
X21256182Y-18030174D01*
X21256182Y-18030174D02*
X21275230Y-18020650D01*
X21275230Y-18020650D02*
X21303801Y-18020650D01*
X21303801Y-18020650D02*
X21322849Y-18030174D01*
X21322849Y-18030174D02*
X21332373Y-18049222D01*
X21332373Y-18049222D02*
X21332373Y-18153984D01*
X21456182Y-18153984D02*
X21437134Y-18144460D01*
X21437134Y-18144460D02*
X21427611Y-18134936D01*
X21427611Y-18134936D02*
X21418087Y-18115889D01*
X21418087Y-18115889D02*
X21418087Y-18058746D01*
X21418087Y-18058746D02*
X21427611Y-18039698D01*
X21427611Y-18039698D02*
X21437134Y-18030174D01*
X21437134Y-18030174D02*
X21456182Y-18020650D01*
X21456182Y-18020650D02*
X21484754Y-18020650D01*
X21484754Y-18020650D02*
X21503801Y-18030174D01*
X21503801Y-18030174D02*
X21513325Y-18039698D01*
X21513325Y-18039698D02*
X21522849Y-18058746D01*
X21522849Y-18058746D02*
X21522849Y-18115889D01*
X21522849Y-18115889D02*
X21513325Y-18134936D01*
X21513325Y-18134936D02*
X21503801Y-18144460D01*
X21503801Y-18144460D02*
X21484754Y-18153984D01*
X21484754Y-18153984D02*
X21456182Y-18153984D01*
X21579992Y-18020650D02*
X21656182Y-18020650D01*
X21608563Y-17953984D02*
X21608563Y-18125412D01*
X21608563Y-18125412D02*
X21618087Y-18144460D01*
X21618087Y-18144460D02*
X21637134Y-18153984D01*
X21637134Y-18153984D02*
X21656182Y-18153984D01*
X21875230Y-18020650D02*
X21875230Y-18220650D01*
X21875230Y-18030174D02*
X21894277Y-18020650D01*
X21894277Y-18020650D02*
X21932373Y-18020650D01*
X21932373Y-18020650D02*
X21951420Y-18030174D01*
X21951420Y-18030174D02*
X21960944Y-18039698D01*
X21960944Y-18039698D02*
X21970468Y-18058746D01*
X21970468Y-18058746D02*
X21970468Y-18115889D01*
X21970468Y-18115889D02*
X21960944Y-18134936D01*
X21960944Y-18134936D02*
X21951420Y-18144460D01*
X21951420Y-18144460D02*
X21932373Y-18153984D01*
X21932373Y-18153984D02*
X21894277Y-18153984D01*
X21894277Y-18153984D02*
X21875230Y-18144460D01*
X22084754Y-18153984D02*
X22065706Y-18144460D01*
X22065706Y-18144460D02*
X22056182Y-18125412D01*
X22056182Y-18125412D02*
X22056182Y-17953984D01*
X22246658Y-18153984D02*
X22246658Y-18049222D01*
X22246658Y-18049222D02*
X22237135Y-18030174D01*
X22237135Y-18030174D02*
X22218087Y-18020650D01*
X22218087Y-18020650D02*
X22179992Y-18020650D01*
X22179992Y-18020650D02*
X22160944Y-18030174D01*
X22246658Y-18144460D02*
X22227611Y-18153984D01*
X22227611Y-18153984D02*
X22179992Y-18153984D01*
X22179992Y-18153984D02*
X22160944Y-18144460D01*
X22160944Y-18144460D02*
X22151420Y-18125412D01*
X22151420Y-18125412D02*
X22151420Y-18106365D01*
X22151420Y-18106365D02*
X22160944Y-18087317D01*
X22160944Y-18087317D02*
X22179992Y-18077793D01*
X22179992Y-18077793D02*
X22227611Y-18077793D01*
X22227611Y-18077793D02*
X22246658Y-18068270D01*
X22313325Y-18020650D02*
X22389515Y-18020650D01*
X22341896Y-17953984D02*
X22341896Y-18125412D01*
X22341896Y-18125412D02*
X22351420Y-18144460D01*
X22351420Y-18144460D02*
X22370468Y-18153984D01*
X22370468Y-18153984D02*
X22389515Y-18153984D01*
X22532373Y-18144460D02*
X22513325Y-18153984D01*
X22513325Y-18153984D02*
X22475230Y-18153984D01*
X22475230Y-18153984D02*
X22456182Y-18144460D01*
X22456182Y-18144460D02*
X22446658Y-18125412D01*
X22446658Y-18125412D02*
X22446658Y-18049222D01*
X22446658Y-18049222D02*
X22456182Y-18030174D01*
X22456182Y-18030174D02*
X22475230Y-18020650D01*
X22475230Y-18020650D02*
X22513325Y-18020650D01*
X22513325Y-18020650D02*
X22532373Y-18030174D01*
X22532373Y-18030174D02*
X22541896Y-18049222D01*
X22541896Y-18049222D02*
X22541896Y-18068270D01*
X22541896Y-18068270D02*
X22446658Y-18087317D01*
X22713325Y-18153984D02*
X22713325Y-17953984D01*
X22713325Y-18144460D02*
X22694277Y-18153984D01*
X22694277Y-18153984D02*
X22656182Y-18153984D01*
X22656182Y-18153984D02*
X22637134Y-18144460D01*
X22637134Y-18144460D02*
X22627611Y-18134936D01*
X22627611Y-18134936D02*
X22618087Y-18115889D01*
X22618087Y-18115889D02*
X22618087Y-18058746D01*
X22618087Y-18058746D02*
X22627611Y-18039698D01*
X22627611Y-18039698D02*
X22637134Y-18030174D01*
X22637134Y-18030174D02*
X22656182Y-18020650D01*
X22656182Y-18020650D02*
X22694277Y-18020650D01*
X22694277Y-18020650D02*
X22713325Y-18030174D01*
X22789515Y-18230174D02*
X22799039Y-18220650D01*
X22799039Y-18220650D02*
X22818087Y-18192079D01*
X22818087Y-18192079D02*
X22827611Y-18173031D01*
X22827611Y-18173031D02*
X22837134Y-18144460D01*
X22837134Y-18144460D02*
X22846658Y-18096841D01*
X22846658Y-18096841D02*
X22846658Y-18058746D01*
X22846658Y-18058746D02*
X22837134Y-18011127D01*
X22837134Y-18011127D02*
X22827611Y-17982555D01*
X22827611Y-17982555D02*
X22818087Y-17963508D01*
X22818087Y-17963508D02*
X22799039Y-17934936D01*
X22799039Y-17934936D02*
X22789515Y-17925412D01*
M02*
