G04 #@! TF.GenerationSoftware,KiCad,Pcbnew,8.0.0*
G04 #@! TF.CreationDate,2024-03-03T14:20:45-08:00*
G04 #@! TF.ProjectId,BLDC_Motor Controller,424c4443-5f4d-46f7-946f-7220436f6e74,rev01_1*
G04 #@! TF.SameCoordinates,Original*
G04 #@! TF.FileFunction,Copper,L4,Bot*
G04 #@! TF.FilePolarity,Positive*
%FSLAX46Y46*%
G04 Gerber Fmt 4.6, Leading zero omitted, Abs format (unit mm)*
G04 Created by KiCad (PCBNEW 8.0.0) date 2024-03-03 14:20:45*
%MOMM*%
%LPD*%
G01*
G04 APERTURE LIST*
G04 Aperture macros list*
%AMRoundRect*
0 Rectangle with rounded corners*
0 $1 Rounding radius*
0 $2 $3 $4 $5 $6 $7 $8 $9 X,Y pos of 4 corners*
0 Add a 4 corners polygon primitive as box body*
4,1,4,$2,$3,$4,$5,$6,$7,$8,$9,$2,$3,0*
0 Add four circle primitives for the rounded corners*
1,1,$1+$1,$2,$3*
1,1,$1+$1,$4,$5*
1,1,$1+$1,$6,$7*
1,1,$1+$1,$8,$9*
0 Add four rect primitives between the rounded corners*
20,1,$1+$1,$2,$3,$4,$5,0*
20,1,$1+$1,$4,$5,$6,$7,0*
20,1,$1+$1,$6,$7,$8,$9,0*
20,1,$1+$1,$8,$9,$2,$3,0*%
G04 Aperture macros list end*
G04 #@! TA.AperFunction,ComponentPad*
%ADD10C,2.200000*%
G04 #@! TD*
G04 #@! TA.AperFunction,ComponentPad*
%ADD11O,1.200000X2.000000*%
G04 #@! TD*
G04 #@! TA.AperFunction,ComponentPad*
%ADD12O,1.200000X1.800000*%
G04 #@! TD*
G04 #@! TA.AperFunction,ComponentPad*
%ADD13C,0.800000*%
G04 #@! TD*
G04 #@! TA.AperFunction,ComponentPad*
%ADD14C,6.400000*%
G04 #@! TD*
G04 #@! TA.AperFunction,ComponentPad*
%ADD15C,1.800000*%
G04 #@! TD*
G04 #@! TA.AperFunction,ComponentPad*
%ADD16C,3.800000*%
G04 #@! TD*
G04 #@! TA.AperFunction,ComponentPad*
%ADD17O,1.200000X2.200000*%
G04 #@! TD*
G04 #@! TA.AperFunction,SMDPad,CuDef*
%ADD18RoundRect,0.225000X0.250000X-0.225000X0.250000X0.225000X-0.250000X0.225000X-0.250000X-0.225000X0*%
G04 #@! TD*
G04 #@! TA.AperFunction,SMDPad,CuDef*
%ADD19RoundRect,0.225000X0.225000X0.250000X-0.225000X0.250000X-0.225000X-0.250000X0.225000X-0.250000X0*%
G04 #@! TD*
G04 #@! TA.AperFunction,SMDPad,CuDef*
%ADD20RoundRect,0.237500X-0.237500X0.250000X-0.237500X-0.250000X0.237500X-0.250000X0.237500X0.250000X0*%
G04 #@! TD*
G04 #@! TA.AperFunction,SMDPad,CuDef*
%ADD21RoundRect,0.237500X-0.250000X-0.237500X0.250000X-0.237500X0.250000X0.237500X-0.250000X0.237500X0*%
G04 #@! TD*
G04 #@! TA.AperFunction,SMDPad,CuDef*
%ADD22RoundRect,0.237500X-0.344715X0.008839X0.008839X-0.344715X0.344715X-0.008839X-0.008839X0.344715X0*%
G04 #@! TD*
G04 #@! TA.AperFunction,SMDPad,CuDef*
%ADD23RoundRect,0.237500X0.250000X0.237500X-0.250000X0.237500X-0.250000X-0.237500X0.250000X-0.237500X0*%
G04 #@! TD*
G04 #@! TA.AperFunction,SMDPad,CuDef*
%ADD24RoundRect,0.225000X-0.250000X0.225000X-0.250000X-0.225000X0.250000X-0.225000X0.250000X0.225000X0*%
G04 #@! TD*
G04 #@! TA.AperFunction,ViaPad*
%ADD25C,0.508000*%
G04 #@! TD*
G04 #@! TA.AperFunction,Conductor*
%ADD26C,0.381000*%
G04 #@! TD*
G04 #@! TA.AperFunction,Conductor*
%ADD27C,0.203200*%
G04 #@! TD*
G04 #@! TA.AperFunction,Conductor*
%ADD28C,1.270000*%
G04 #@! TD*
G04 #@! TA.AperFunction,Conductor*
%ADD29C,0.762000*%
G04 #@! TD*
G04 #@! TA.AperFunction,Conductor*
%ADD30C,0.304800*%
G04 #@! TD*
G04 APERTURE END LIST*
D10*
X236552172Y-140221411D03*
X229052299Y-140221411D03*
D11*
X221074137Y-106095748D03*
D12*
X221074137Y-101895850D03*
D11*
X212423895Y-106095748D03*
D12*
X212423895Y-101895850D03*
D13*
X162960000Y-104200000D03*
X163662944Y-102502944D03*
X163662944Y-105897056D03*
X165360000Y-101800000D03*
D14*
X165360000Y-104200000D03*
D13*
X165360000Y-106600000D03*
X167057056Y-102502944D03*
X167057056Y-105897056D03*
X167760000Y-104200000D03*
X162960000Y-169200000D03*
X163662944Y-167502944D03*
X163662944Y-170897056D03*
X165360000Y-166800000D03*
D14*
X165360000Y-169200000D03*
D13*
X165360000Y-171600000D03*
X167057056Y-167502944D03*
X167057056Y-170897056D03*
X167760000Y-169200000D03*
X252960000Y-169200000D03*
X253662944Y-167502944D03*
X253662944Y-170897056D03*
X255360000Y-166800000D03*
D14*
X255360000Y-169200000D03*
D13*
X255360000Y-171600000D03*
X257057056Y-167502944D03*
X257057056Y-170897056D03*
X257760000Y-169200000D03*
D15*
X250530000Y-155150000D03*
X250530000Y-162770000D03*
X253070000Y-155150000D03*
X253070000Y-162770000D03*
X255610000Y-155150000D03*
X255610000Y-162770000D03*
X258150000Y-155150000D03*
X258150000Y-162770000D03*
D13*
X252960000Y-104200000D03*
X253662944Y-102502944D03*
X253662944Y-105897056D03*
X255360000Y-101800000D03*
D14*
X255360000Y-104200000D03*
D13*
X255360000Y-106600000D03*
X257057056Y-102502944D03*
X257057056Y-105897056D03*
X257760000Y-104200000D03*
D15*
X258150000Y-132290000D03*
X258150000Y-124670000D03*
X255610000Y-132290000D03*
X255610000Y-124670000D03*
X253070000Y-132290000D03*
X253070000Y-124670000D03*
X250530000Y-132290000D03*
X250530000Y-124670000D03*
D16*
X235500152Y-115260292D03*
X242700051Y-115260292D03*
D17*
X245850165Y-109260292D03*
X232350038Y-109260292D03*
D15*
X250530000Y-139910000D03*
X250530000Y-147530000D03*
X253070000Y-139910000D03*
X253070000Y-147530000D03*
X255610000Y-139910000D03*
X255610000Y-147530000D03*
X258150000Y-139910000D03*
X258150000Y-147530000D03*
D18*
X210566000Y-142507000D03*
X210566000Y-140957000D03*
D19*
X184036000Y-139700000D03*
X182486000Y-139700000D03*
D20*
X191262000Y-143867500D03*
X191262000Y-145692500D03*
D21*
X210923500Y-148717000D03*
X212748500Y-148717000D03*
D10*
X235663172Y-155561589D03*
X228163299Y-155561589D03*
D21*
X221083500Y-149733000D03*
X222908500Y-149733000D03*
D19*
X210325000Y-135509000D03*
X208775000Y-135509000D03*
D21*
X210923500Y-150368000D03*
X212748500Y-150368000D03*
D20*
X194310000Y-139676500D03*
X194310000Y-141501500D03*
D21*
X221083500Y-148336000D03*
X222908500Y-148336000D03*
D22*
X193410765Y-142737765D03*
X194701235Y-144028235D03*
D21*
X221210500Y-145415000D03*
X223035500Y-145415000D03*
D23*
X210462500Y-136906000D03*
X208637500Y-136906000D03*
D24*
X211963000Y-135488355D03*
X211963000Y-137038355D03*
D10*
X240870172Y-119239589D03*
X233370299Y-119239589D03*
D21*
X210796500Y-147193000D03*
X212621500Y-147193000D03*
D24*
X219710000Y-148069000D03*
X219710000Y-149619000D03*
X219837000Y-145275000D03*
X219837000Y-146825000D03*
D23*
X184173500Y-141097000D03*
X182348500Y-141097000D03*
D21*
X221210500Y-146812000D03*
X223035500Y-146812000D03*
D25*
X206883000Y-154559000D03*
X218948000Y-113411000D03*
X186563000Y-146431000D03*
X203708000Y-148463000D03*
X196977000Y-143383000D03*
X181737000Y-154051000D03*
X207318593Y-146758325D03*
X203962000Y-111506000D03*
X206756000Y-151765000D03*
X186563000Y-144272000D03*
X201041003Y-122936003D03*
X201041000Y-117221000D03*
X210312000Y-138176000D03*
X218313000Y-113411000D03*
X219710000Y-113411000D03*
X181737000Y-145796000D03*
X196469000Y-138176000D03*
X214122000Y-131445000D03*
X176657000Y-102616000D03*
X179324000Y-162560000D03*
X212598000Y-131445000D03*
X203200000Y-169418000D03*
X229108000Y-143764000D03*
X252095000Y-121920000D03*
X234188000Y-169418000D03*
X210312000Y-131445000D03*
X195453000Y-102489000D03*
X172212000Y-156591000D03*
X249555000Y-105410000D03*
X209914064Y-139852725D03*
X214249000Y-156972000D03*
X163449000Y-140208000D03*
X200152000Y-103886000D03*
X185784875Y-140253281D03*
X234188000Y-109728000D03*
X188171999Y-140081000D03*
X211709000Y-147955000D03*
X212979000Y-107696000D03*
X189611000Y-167132000D03*
X244696402Y-135393216D03*
X193167000Y-102489000D03*
X207772000Y-166370000D03*
X227330000Y-103632000D03*
X175767996Y-120650000D03*
X208153000Y-123698000D03*
X209168999Y-149606000D03*
X233045000Y-170815000D03*
X231140000Y-124841000D03*
X178308000Y-106680000D03*
X190246000Y-169418000D03*
X222885000Y-169291000D03*
X207137000Y-163830000D03*
X209169000Y-161163000D03*
X180340000Y-169418000D03*
X207137000Y-159893000D03*
X169770650Y-151489481D03*
X199057043Y-112051571D03*
X241681000Y-102997000D03*
X257683000Y-118872000D03*
X229108000Y-146939000D03*
X167640000Y-152451446D03*
X213868000Y-163830000D03*
X236601000Y-160274000D03*
X199517000Y-129921000D03*
X232664000Y-105791000D03*
X220980000Y-113538000D03*
X204026407Y-141124505D03*
X170307000Y-123444000D03*
X178308000Y-110998000D03*
X237109000Y-105791000D03*
X213868000Y-137922000D03*
X172085000Y-139954000D03*
X214643003Y-114794997D03*
X229743000Y-103632000D03*
X239522000Y-170815000D03*
X239395000Y-105791000D03*
X197621550Y-106129182D03*
X256159000Y-115443000D03*
X191897000Y-127762000D03*
X252222000Y-118872000D03*
X215773000Y-152908000D03*
X229108000Y-146304000D03*
X225044000Y-103632000D03*
X195199000Y-138303000D03*
X194573702Y-135323572D03*
X196363003Y-142679413D03*
X210820000Y-144145000D03*
X237490000Y-164084000D03*
X192659000Y-111252000D03*
X243078000Y-108712000D03*
X181428163Y-140900248D03*
X213360000Y-131445000D03*
X226240700Y-118366644D03*
X248158000Y-106680000D03*
X231973751Y-162123751D03*
X189369053Y-143256000D03*
X224536000Y-110109000D03*
X220599000Y-107442000D03*
X237490000Y-160274000D03*
X213868000Y-152908000D03*
X248350686Y-120123624D03*
X165354000Y-118110000D03*
X188722000Y-122809000D03*
X250825000Y-118872000D03*
X169737462Y-140893624D03*
X182463525Y-145008721D03*
X237236000Y-102235000D03*
X255905000Y-121920000D03*
X170012000Y-106934000D03*
X222813249Y-159821249D03*
X168653356Y-160835700D03*
X195580000Y-130175000D03*
X199009000Y-102489000D03*
X196596000Y-148717000D03*
X222849421Y-107198554D03*
X214503000Y-152908000D03*
X254254000Y-134747000D03*
X174879000Y-133731000D03*
X168473751Y-162631751D03*
X199771000Y-170815000D03*
X181482998Y-142112996D03*
X248158000Y-104394000D03*
X178308000Y-144780000D03*
X229108000Y-145034000D03*
X181610000Y-139954000D03*
X177368376Y-108650461D03*
X177800000Y-104013000D03*
X185293000Y-125730000D03*
X227670000Y-131274000D03*
X249555000Y-107823000D03*
X175641000Y-144399000D03*
X254127000Y-118872000D03*
X213296500Y-139065000D03*
X170180000Y-164338000D03*
X218440000Y-156464000D03*
X212725000Y-162560000D03*
X176911000Y-125857000D03*
X220091000Y-101981000D03*
X233769803Y-161944146D03*
X189362711Y-134207093D03*
X208280000Y-122301000D03*
X181483000Y-122555000D03*
X207352184Y-114477969D03*
X188585299Y-131300237D03*
X189103000Y-170815000D03*
X221107000Y-158115000D03*
X233680000Y-107188000D03*
X220555637Y-137838830D03*
X217170000Y-131445000D03*
X236601000Y-162814000D03*
X246244371Y-164424330D03*
X215900000Y-158369000D03*
X185685395Y-133186484D03*
X229108000Y-145669000D03*
X211074000Y-131445000D03*
X191262000Y-137287000D03*
X188722000Y-124460000D03*
X197729479Y-132847052D03*
X254000000Y-121920000D03*
X249555000Y-110109000D03*
X213868000Y-130429000D03*
X205740000Y-131445000D03*
X188459844Y-137631585D03*
X214884000Y-131445000D03*
X238506000Y-103632000D03*
X212090000Y-138049000D03*
X203581000Y-102489000D03*
X228036751Y-118546249D03*
X227670000Y-130004000D03*
X198247000Y-124206000D03*
X229108000Y-148844000D03*
X203897500Y-134581683D03*
X178943000Y-102616000D03*
X198628000Y-169418000D03*
X237490000Y-162179000D03*
X228219000Y-147574000D03*
X241808000Y-170815000D03*
X203835000Y-159512000D03*
X227330000Y-165608000D03*
X172466000Y-114554000D03*
X214249000Y-148336000D03*
X192278000Y-160147000D03*
X243078000Y-104140000D03*
X237490000Y-159004000D03*
X229108000Y-147574000D03*
X193040000Y-137287000D03*
X208153000Y-165227000D03*
X214630000Y-111252000D03*
X173609000Y-160020000D03*
X197485000Y-170815000D03*
X229108000Y-148209000D03*
X249555000Y-120071035D03*
X174625000Y-168021000D03*
X216027000Y-169504000D03*
X227330000Y-170307000D03*
X214122000Y-139065000D03*
X193103061Y-134711282D03*
X165354000Y-115697000D03*
X228473000Y-102235000D03*
X172974000Y-146304000D03*
X183017563Y-138937239D03*
X218059000Y-131699000D03*
X232791000Y-102235000D03*
X228559000Y-132544000D03*
X179070000Y-168021000D03*
X229235000Y-124841000D03*
X220265235Y-169249892D03*
X213407235Y-169462892D03*
X227670000Y-133814000D03*
X224714057Y-119893287D03*
X204978000Y-119507000D03*
X178518536Y-164794163D03*
X212852000Y-165227000D03*
X193929000Y-125476000D03*
X254635000Y-138049000D03*
X196596000Y-118618000D03*
X203142826Y-137882483D03*
X244221000Y-170815000D03*
X179070000Y-124079000D03*
X219400751Y-158384408D03*
X175133000Y-105664000D03*
X237490000Y-160909000D03*
X208788000Y-131445000D03*
X173101000Y-136652000D03*
X203327001Y-142748000D03*
X192913000Y-150114000D03*
X200914000Y-169418000D03*
X237490000Y-161544000D03*
X231140000Y-123317000D03*
X165354000Y-120396000D03*
X173609000Y-155321000D03*
X229108000Y-144399000D03*
X228559000Y-134449000D03*
X210693000Y-107188000D03*
X228219000Y-146304000D03*
X231902000Y-169418000D03*
X209677000Y-151003000D03*
X228219000Y-144399000D03*
X196221714Y-159106205D03*
X185776028Y-112727348D03*
X185801000Y-162433000D03*
X224028000Y-102235000D03*
X195580000Y-139446000D03*
X212979000Y-137033000D03*
X208337998Y-115512002D03*
X227965000Y-108712000D03*
X248350686Y-117618079D03*
X245237000Y-169418000D03*
X217297000Y-159893000D03*
X197672996Y-111252000D03*
X172212000Y-161036000D03*
X221017197Y-160000854D03*
X228559000Y-133814000D03*
X211074000Y-120523000D03*
X175641000Y-169418000D03*
X188722000Y-111633000D03*
X198987931Y-145279572D03*
X211836000Y-131445000D03*
X193802000Y-127381000D03*
X226420305Y-120162695D03*
X238379000Y-107188000D03*
X189738000Y-103886000D03*
X210963689Y-144843565D03*
X169770650Y-139043481D03*
X173482000Y-143002000D03*
X224160287Y-163143943D03*
X193802000Y-170815000D03*
X217012994Y-114109500D03*
X196342000Y-160782000D03*
X167343182Y-114605446D03*
X223266000Y-113535000D03*
X192024000Y-103886000D03*
X249174000Y-138049000D03*
X173609000Y-157734000D03*
X187706000Y-145669000D03*
X185039000Y-128397000D03*
X180797815Y-160793921D03*
X238506000Y-169418000D03*
X209200894Y-113625463D03*
X233045000Y-124841000D03*
X225933000Y-164592000D03*
X236601000Y-159004000D03*
X205710033Y-115487892D03*
X202184000Y-170815000D03*
X190627000Y-159131000D03*
X210947000Y-115443000D03*
X227330000Y-168021000D03*
X194818000Y-169418000D03*
X179705000Y-152019000D03*
X227670000Y-133179000D03*
X209296000Y-163830000D03*
X234696000Y-124841000D03*
X205359000Y-155321000D03*
X244076500Y-150114000D03*
X248793000Y-134747000D03*
X188700481Y-164620350D03*
X214630000Y-130429000D03*
X237490000Y-159639000D03*
X211600594Y-145017745D03*
X238633000Y-109728000D03*
X177927000Y-169418000D03*
X191389000Y-170815000D03*
X214376000Y-103378000D03*
X164846000Y-141224000D03*
X212471000Y-139065000D03*
X167640000Y-140005446D03*
X211645500Y-139065000D03*
X174625000Y-146558000D03*
X231775000Y-140208000D03*
X195707000Y-135382000D03*
X163957000Y-116967000D03*
X196596000Y-125476000D03*
X189103000Y-145542000D03*
X230759000Y-102235000D03*
X192532000Y-169418000D03*
X228219000Y-145669000D03*
X203360238Y-139125133D03*
X207264000Y-131445000D03*
X176846632Y-118363999D03*
X165354000Y-161798000D03*
X196850000Y-102489000D03*
X241681000Y-107696000D03*
X237490000Y-162814000D03*
X208026000Y-131445000D03*
X202057000Y-120904000D03*
X167126713Y-159309057D03*
X228559000Y-130639000D03*
X215519000Y-101981000D03*
X175133000Y-118380676D03*
X192786000Y-142113000D03*
X182996098Y-130893020D03*
X203962000Y-164211000D03*
X203322036Y-144610272D03*
X171886249Y-164068592D03*
X182626000Y-134747000D03*
X243078000Y-101981000D03*
X228219000Y-143764000D03*
X191262000Y-122174000D03*
X176784000Y-168021000D03*
X186875854Y-151633274D03*
X229235000Y-110109000D03*
X198987931Y-143628572D03*
X243078000Y-106426000D03*
X191719376Y-108650461D03*
X213360000Y-144145000D03*
X236601000Y-164084000D03*
X207391014Y-138938000D03*
X224429695Y-161437695D03*
X163957000Y-121412000D03*
X234696000Y-123317000D03*
X172212000Y-154305000D03*
X207391000Y-139700000D03*
X213741000Y-161163000D03*
X209169000Y-167386000D03*
X175514000Y-104013000D03*
X194437000Y-137287000D03*
X196596000Y-127000000D03*
X172212000Y-158877000D03*
X180213000Y-104013000D03*
X236601000Y-163449000D03*
X207010000Y-161163000D03*
X229473592Y-115133751D03*
X212090000Y-109093000D03*
X181229000Y-102616000D03*
X257556000Y-121920000D03*
X217170000Y-132968999D03*
X236093000Y-103632000D03*
X180721000Y-147574000D03*
X210820000Y-139954000D03*
X226822000Y-110109000D03*
X225933000Y-166878000D03*
X225933000Y-169164000D03*
X170269803Y-162452146D03*
X189103000Y-131699000D03*
X230759000Y-170815000D03*
X183896000Y-153035000D03*
X164846000Y-143637000D03*
X228219000Y-148209000D03*
X187198000Y-149098000D03*
X237490000Y-111125000D03*
X198583515Y-108683650D03*
X217170000Y-132207000D03*
X236474000Y-169418000D03*
X179324000Y-166624000D03*
X211836000Y-149479000D03*
X181483000Y-156591000D03*
X190881000Y-102489000D03*
X216662000Y-103378000D03*
X172212000Y-129667000D03*
X213106000Y-130429000D03*
X230626713Y-158801057D03*
X233807000Y-103632000D03*
X230357305Y-160507305D03*
X188722000Y-102489000D03*
X196469000Y-169418000D03*
X189611000Y-162052000D03*
X184242318Y-107592017D03*
X180530355Y-158890844D03*
X217043000Y-152908000D03*
X209804000Y-149225000D03*
X247359500Y-118872000D03*
X181356000Y-168021000D03*
X239903000Y-111125000D03*
X228219000Y-145034000D03*
X227670000Y-129369000D03*
X225933000Y-171323000D03*
X204470000Y-126365000D03*
X191262000Y-138430000D03*
X235458000Y-170815000D03*
X236347000Y-109728000D03*
X217932000Y-169164000D03*
X248158000Y-108966000D03*
X228559000Y-129369000D03*
X175133000Y-148717000D03*
X194310000Y-138811000D03*
X180263624Y-164780539D03*
X235204000Y-111125000D03*
X252603000Y-134747000D03*
X202565000Y-103886000D03*
X242951000Y-169418000D03*
X193675000Y-155321000D03*
X172085000Y-152400000D03*
X216408000Y-152908000D03*
X193040000Y-138430000D03*
X215138000Y-152908000D03*
X207772000Y-170942000D03*
X227670000Y-132544000D03*
X194437000Y-103886000D03*
X181186499Y-136779000D03*
X195984500Y-120396000D03*
X163957000Y-119253000D03*
X196733372Y-108650461D03*
X191262000Y-142875000D03*
X166857305Y-161015305D03*
X234823000Y-105791000D03*
X188468000Y-136144000D03*
X232153356Y-160327700D03*
X191389000Y-140081000D03*
X226187000Y-102235000D03*
X240665000Y-169418000D03*
X248158000Y-111125000D03*
X185674000Y-159512000D03*
X163449000Y-142494000D03*
X219075000Y-103378000D03*
X176784000Y-155956000D03*
X178435000Y-154305000D03*
X223520000Y-108712000D03*
X236601000Y-162179000D03*
X200110900Y-132859295D03*
X229743000Y-116840000D03*
X210820000Y-143319500D03*
X222633644Y-161617300D03*
X221402000Y-108458000D03*
X240919000Y-109728000D03*
X210439000Y-165227000D03*
X235386249Y-163560592D03*
X188087000Y-169418000D03*
X169897650Y-113643481D03*
X228559000Y-131274000D03*
X213360000Y-101981000D03*
X213233000Y-145796000D03*
X229743000Y-169418000D03*
X247728292Y-169519405D03*
X216408000Y-131445000D03*
X182245000Y-162433000D03*
X181172359Y-137599183D03*
X211455000Y-161163000D03*
X207772000Y-168656000D03*
X163449000Y-144780000D03*
X195849053Y-112271228D03*
X169737462Y-153339624D03*
X206502000Y-131445000D03*
X233680000Y-140208000D03*
X164846000Y-145923000D03*
X205740000Y-132334000D03*
X228559000Y-130004000D03*
X163957000Y-114681000D03*
X179714701Y-136796763D03*
X256286000Y-110417337D03*
X190550624Y-164653539D03*
X233680000Y-163830000D03*
X228559000Y-133179000D03*
X211582000Y-146177000D03*
X229235000Y-123317000D03*
X241681000Y-105283000D03*
X236601000Y-159639000D03*
X236601000Y-160909000D03*
X192607554Y-106129182D03*
X197866000Y-103886000D03*
X209550000Y-131445000D03*
X225679000Y-108712000D03*
X163449000Y-146939000D03*
X184435360Y-113848491D03*
X217805000Y-101981000D03*
X215646000Y-131445000D03*
X228219000Y-146939000D03*
X205105000Y-120904000D03*
X208026000Y-162560000D03*
X228559000Y-131909000D03*
X199229505Y-118701736D03*
X236601000Y-161544000D03*
X189484000Y-137541000D03*
X216408000Y-110490000D03*
X234950000Y-102235000D03*
X237490000Y-163449000D03*
X204978000Y-117729000D03*
X209169000Y-169799000D03*
X210312000Y-162560000D03*
X199771000Y-155321000D03*
X235966000Y-107188000D03*
X251079000Y-138049000D03*
X169864462Y-115493624D03*
X217932000Y-162052000D03*
X192151000Y-126492000D03*
X209169000Y-111125000D03*
X227857146Y-116750197D03*
X208026000Y-132334000D03*
X207616280Y-148959699D03*
X196596000Y-128524000D03*
X227670000Y-134449000D03*
X178943000Y-147574000D03*
X174498000Y-102616000D03*
X179740572Y-137915069D03*
X228219000Y-148844000D03*
X230251000Y-108712000D03*
X211582000Y-163830000D03*
X179218519Y-108683650D03*
X199644000Y-128904001D03*
X239522000Y-102235000D03*
X193569519Y-108683650D03*
X256032000Y-118872000D03*
X233045000Y-123317000D03*
X249555000Y-117565490D03*
X227670000Y-131909000D03*
X252984000Y-138049000D03*
X188341000Y-155321000D03*
X185293000Y-123317000D03*
X211074000Y-111379000D03*
X227670000Y-130639000D03*
X202184000Y-159131000D03*
X201295000Y-102489000D03*
X250698000Y-134747000D03*
X190428266Y-134293091D03*
X183261000Y-134366000D03*
X186690000Y-112649000D03*
X185293000Y-138557000D03*
X183007000Y-131699000D03*
X187833000Y-111887000D03*
X193059164Y-131464164D03*
X207391000Y-135763000D03*
X209865864Y-142379131D03*
X209931000Y-141605000D03*
X240878000Y-127337000D03*
X239171554Y-153577806D03*
X239989000Y-138640000D03*
X246339000Y-126067000D03*
X213868000Y-135509000D03*
X238211000Y-139910000D03*
X243418000Y-127464000D03*
X239171554Y-154847806D03*
X239100000Y-139275000D03*
X240878000Y-138640000D03*
X243418000Y-138640000D03*
X244942000Y-157563000D03*
X240878000Y-124162000D03*
X246339000Y-157563000D03*
X239989000Y-127337000D03*
X238211000Y-123527000D03*
X238282554Y-153577806D03*
X239100000Y-127337000D03*
X240949554Y-156117806D03*
X240878000Y-139910000D03*
X238211000Y-141815000D03*
X217551000Y-150876000D03*
X240878000Y-140545000D03*
X240878000Y-141815000D03*
X240060554Y-155482806D03*
X239989000Y-124162000D03*
X246339000Y-123400000D03*
X239989000Y-141180000D03*
X238211000Y-126067000D03*
X239100000Y-124797000D03*
X240949554Y-157387806D03*
X239100000Y-138640000D03*
X244815000Y-156166000D03*
X239989000Y-125432000D03*
X240949554Y-156752806D03*
X240949554Y-154212806D03*
X240878000Y-125432000D03*
X243418000Y-139910000D03*
X244815000Y-154769000D03*
X239989000Y-139910000D03*
X239989000Y-126702000D03*
X244815000Y-139910000D03*
X240060554Y-154847806D03*
X240878000Y-126067000D03*
X239100000Y-123527000D03*
X244815000Y-123400000D03*
X238282554Y-154847806D03*
X240060554Y-154212806D03*
X240949554Y-154847806D03*
X239989000Y-140545000D03*
X239171554Y-156117806D03*
X240878000Y-124797000D03*
X246339000Y-139910000D03*
X246339000Y-138640000D03*
X243418000Y-142704000D03*
X244942000Y-142704000D03*
X239100000Y-141815000D03*
X238211000Y-124162000D03*
X239100000Y-139910000D03*
X238282554Y-156117806D03*
X239100000Y-126067000D03*
X239989000Y-123527000D03*
X238211000Y-139275000D03*
X238282554Y-154212806D03*
X239171554Y-157387806D03*
X238211000Y-127337000D03*
X240878000Y-141180000D03*
X240878000Y-123527000D03*
X243418000Y-156166000D03*
X243418000Y-153499000D03*
X239171554Y-154212806D03*
X213360000Y-135001000D03*
X214376000Y-136017000D03*
X243418000Y-123400000D03*
X239989000Y-142450000D03*
X244815000Y-153499000D03*
X240060554Y-156117806D03*
X246339000Y-154769000D03*
X238282554Y-156752806D03*
X239100000Y-125432000D03*
X240949554Y-155482806D03*
X244815000Y-138640000D03*
X246339000Y-153499000D03*
X239171554Y-156752806D03*
X238211000Y-142450000D03*
X239171554Y-155482806D03*
X240060554Y-153577806D03*
X238282554Y-155482806D03*
X244942000Y-127464000D03*
X243418000Y-157563000D03*
X244815000Y-126067000D03*
X243418000Y-141307000D03*
X240949554Y-153577806D03*
X246339000Y-142704000D03*
X217297000Y-149987000D03*
X238282554Y-157387806D03*
X238211000Y-126702000D03*
X239100000Y-126702000D03*
X243418000Y-126067000D03*
X244815000Y-124670000D03*
X239100000Y-141180000D03*
X218186000Y-150114000D03*
X239100000Y-142450000D03*
X244815000Y-141307000D03*
X239989000Y-124797000D03*
X238211000Y-125432000D03*
X239989000Y-126067000D03*
X239989000Y-139275000D03*
X246339000Y-124670000D03*
X214884000Y-136525000D03*
X238211000Y-124797000D03*
X240060554Y-157387806D03*
X238211000Y-138640000D03*
X240878000Y-142450000D03*
X239100000Y-124162000D03*
X239100000Y-140545000D03*
X243418000Y-154769000D03*
X240878000Y-126702000D03*
X243418000Y-124670000D03*
X246339000Y-156166000D03*
X246339000Y-141307000D03*
X246339000Y-127464000D03*
X240060554Y-156752806D03*
X240878000Y-139275000D03*
X238211000Y-141180000D03*
X239989000Y-141815000D03*
X238211000Y-140545000D03*
X214889522Y-140366577D03*
X214877665Y-142891473D03*
X214925031Y-145372974D03*
X204851000Y-127000000D03*
X202946000Y-135636000D03*
X217791804Y-148134250D03*
X217649975Y-148865105D03*
X217932000Y-146939000D03*
X218440000Y-147574012D03*
X173101000Y-129286000D03*
X205854000Y-121252000D03*
X173101000Y-130048000D03*
X212344000Y-109855000D03*
X210185000Y-111125000D03*
X171196000Y-123317000D03*
X175768000Y-106426000D03*
X210185000Y-115443000D03*
X203454000Y-163703000D03*
X185293000Y-113538000D03*
X185293000Y-139700000D03*
X195135192Y-112265958D03*
X196368000Y-129947000D03*
X200025000Y-128269992D03*
X199808408Y-112010875D03*
X195630275Y-142168893D03*
X195634911Y-140188151D03*
X186408175Y-151040942D03*
X186410063Y-149015678D03*
X251565833Y-130429000D03*
X256561165Y-130429000D03*
X251565833Y-127762000D03*
X245831000Y-128988000D03*
X256561165Y-126365000D03*
X250317000Y-126365000D03*
X257810000Y-129159000D03*
X245958000Y-133052000D03*
X244434000Y-130258000D03*
X245831000Y-131655000D03*
X244434000Y-131655000D03*
X244434000Y-133052000D03*
X257810000Y-127762000D03*
X251565833Y-129159000D03*
X252814666Y-130429000D03*
X256561165Y-129159000D03*
X247355000Y-131655000D03*
X251565833Y-126365000D03*
X254063499Y-127762000D03*
X257810000Y-130429000D03*
X250317000Y-127762000D03*
X252814666Y-127762000D03*
X250317000Y-129159000D03*
X254063499Y-130429000D03*
X257810000Y-126365000D03*
X255312332Y-129159000D03*
X254063499Y-126365000D03*
X245831000Y-130258000D03*
X255312332Y-130429000D03*
X254063499Y-129159000D03*
X255312332Y-127762000D03*
X252814666Y-126365000D03*
X255312332Y-126365000D03*
X256561165Y-127762000D03*
X247355000Y-130258000D03*
X244434000Y-128988000D03*
X252814666Y-129159000D03*
X250317000Y-130429000D03*
X247355000Y-128988000D03*
X247355000Y-133052000D03*
X250317000Y-145796000D03*
X256561165Y-145796000D03*
X255312332Y-145796000D03*
X250317000Y-141732000D03*
X256561165Y-143129000D03*
X245958000Y-145117000D03*
X256561165Y-144526000D03*
X247482000Y-143847000D03*
X257810000Y-144526000D03*
X251565833Y-145796000D03*
X244561000Y-145117000D03*
X252814666Y-145796000D03*
X252814666Y-141732000D03*
X244561000Y-143847000D03*
X254063499Y-141732000D03*
X247482000Y-145117000D03*
X246085000Y-147911000D03*
X255312332Y-143129000D03*
X244561000Y-146514000D03*
X245958000Y-143847000D03*
X255312332Y-144526000D03*
X256561165Y-141732000D03*
X251565833Y-143129000D03*
X257810000Y-141732000D03*
X257810000Y-145796000D03*
X252814666Y-144526000D03*
X257810000Y-143129000D03*
X252814666Y-143129000D03*
X250317000Y-144526000D03*
X244561000Y-147911000D03*
X251565833Y-144526000D03*
X247482000Y-146514000D03*
X247482000Y-147911000D03*
X255312332Y-141732000D03*
X250317000Y-143129000D03*
X254063499Y-144526000D03*
X251565833Y-141732000D03*
X254063499Y-143129000D03*
X245958000Y-146514000D03*
X254063499Y-145796000D03*
X247482000Y-158833000D03*
X254190499Y-156845000D03*
X252941666Y-158242000D03*
X251692833Y-159639000D03*
X256688165Y-158242000D03*
X244561000Y-160103000D03*
X255439332Y-159639000D03*
X247482000Y-160103000D03*
X247482000Y-161500000D03*
X245958000Y-161500000D03*
X254190499Y-160909000D03*
X246085000Y-162897000D03*
X255439332Y-158242000D03*
X256688165Y-160909000D03*
X257937000Y-158242000D03*
X250444000Y-160909000D03*
X251692833Y-160909000D03*
X250444000Y-158242000D03*
X256688165Y-156845000D03*
X251692833Y-158242000D03*
X254190499Y-159639000D03*
X254190499Y-158242000D03*
X252941666Y-156845000D03*
X244561000Y-161500000D03*
X257937000Y-160909000D03*
X245958000Y-160103000D03*
X256688165Y-159639000D03*
X257937000Y-156845000D03*
X257937000Y-159639000D03*
X247482000Y-162897000D03*
X251692833Y-156845000D03*
X255439332Y-156845000D03*
X250444000Y-156845000D03*
X244561000Y-162897000D03*
X244561000Y-158833000D03*
X245958000Y-158833000D03*
X252941666Y-160909000D03*
X255439332Y-160909000D03*
X252941666Y-159639000D03*
X250444000Y-159639000D03*
X219075000Y-108077000D03*
X217763456Y-108997438D03*
X209169000Y-111912400D03*
X215900000Y-108077000D03*
X216789000Y-108204000D03*
X209185361Y-112868344D03*
X177292000Y-146812000D03*
X177292000Y-151638000D03*
X206665853Y-139326764D03*
X209947674Y-145629755D03*
X186943000Y-143256000D03*
X188738749Y-141959877D03*
X188770921Y-141145921D03*
X235970387Y-150169320D03*
X235263707Y-135382000D03*
X196840775Y-155829000D03*
X192348358Y-134749872D03*
X190878965Y-134876741D03*
X191066716Y-156079914D03*
X194563195Y-134561642D03*
X185271809Y-155702000D03*
X202819000Y-155702000D03*
X188447939Y-138383481D03*
X195453000Y-131318000D03*
X207010000Y-137541000D03*
X195707000Y-134619997D03*
X207165615Y-142205282D03*
X200059378Y-137503600D03*
X207051239Y-142958652D03*
X206616081Y-143538407D03*
X200152000Y-140462000D03*
X202437527Y-141482471D03*
X206791642Y-144279910D03*
X200787000Y-145287990D03*
X200660000Y-141351000D03*
X201422000Y-145923000D03*
X201436796Y-141455560D03*
X235165133Y-136144000D03*
X235768774Y-151104967D03*
D26*
X197104000Y-143256000D02*
X196977000Y-143383000D01*
D27*
X209296000Y-139192000D02*
X209296000Y-144018000D01*
X209935111Y-146758325D02*
X207318593Y-146758325D01*
D26*
X203962000Y-111506000D02*
X201041000Y-114427000D01*
X201041000Y-114427000D02*
X201041000Y-117221000D01*
D27*
X206756000Y-154432000D02*
X206883000Y-154559000D01*
D26*
X196469000Y-138684000D02*
X197104000Y-139319000D01*
D27*
X210532937Y-145254937D02*
X210532937Y-146160499D01*
X206756000Y-151765000D02*
X206756000Y-154432000D01*
D26*
X181737000Y-145796000D02*
X181737000Y-154051000D01*
X205867000Y-111506000D02*
X203962000Y-111506000D01*
D27*
X210312000Y-138176000D02*
X209296000Y-139192000D01*
D26*
X201041000Y-122936000D02*
X201041003Y-122936003D01*
D27*
X210532937Y-146160499D02*
X209935111Y-146758325D01*
X205412675Y-146758325D02*
X207318593Y-146758325D01*
D26*
X219710000Y-113411000D02*
X210566000Y-113411000D01*
X196469000Y-138176000D02*
X196469000Y-138684000D01*
X208788000Y-114427000D02*
X205867000Y-111506000D01*
X209550000Y-114427000D02*
X208788000Y-114427000D01*
X197104000Y-139319000D02*
X197104000Y-143256000D01*
X201041000Y-117221000D02*
X201041000Y-122936000D01*
X186563000Y-146431000D02*
X186563000Y-144272000D01*
X210566000Y-113411000D02*
X209550000Y-114427000D01*
D27*
X203708000Y-148463000D02*
X205412675Y-146758325D01*
X209296000Y-144018000D02*
X210532937Y-145254937D01*
X194310000Y-139676500D02*
X194310000Y-138811000D01*
X193410765Y-142737765D02*
X192786000Y-142113000D01*
X182348500Y-140914573D02*
X182348500Y-141097000D01*
X191262000Y-143867500D02*
X191262000Y-142875000D01*
X182348500Y-141097000D02*
X182107880Y-140856380D01*
X181864000Y-139700000D02*
X181610000Y-139954000D01*
X182246537Y-140812610D02*
X182348500Y-140914573D01*
X181472031Y-140856380D02*
X181428163Y-140900248D01*
X182486000Y-139700000D02*
X181864000Y-139700000D01*
X182107880Y-140856380D02*
X181472031Y-140856380D01*
D26*
X186690000Y-129159000D02*
X185293000Y-130556000D01*
D27*
X184277000Y-134366000D02*
X185293000Y-135382000D01*
D26*
X185293000Y-130556000D02*
X184150000Y-131699000D01*
D27*
X185293000Y-135382000D02*
X185293000Y-138557000D01*
D26*
X186690000Y-112649000D02*
X186690000Y-129159000D01*
X184150000Y-131699000D02*
X183007000Y-131699000D01*
D27*
X183261000Y-134366000D02*
X184277000Y-134366000D01*
X193059164Y-131464164D02*
X187833000Y-126238000D01*
X187833000Y-126238000D02*
X187833000Y-111887000D01*
X210325000Y-135509000D02*
X211942355Y-135509000D01*
X211942355Y-135509000D02*
X211963000Y-135488355D01*
X210462500Y-136906000D02*
X211830645Y-136906000D01*
X211830645Y-136906000D02*
X211963000Y-137038355D01*
X208637500Y-135646500D02*
X208775000Y-135509000D01*
X207391000Y-135763000D02*
X208521000Y-135763000D01*
X208637500Y-136906000D02*
X208637500Y-135646500D01*
X208521000Y-135763000D02*
X208775000Y-135509000D01*
X209993733Y-142507000D02*
X210566000Y-142507000D01*
X209865864Y-142379131D02*
X209993733Y-142507000D01*
X209931000Y-141592000D02*
X210566000Y-140957000D01*
X209931000Y-141605000D02*
X209931000Y-141592000D01*
D28*
X220091000Y-152781000D02*
X217297000Y-149987000D01*
D29*
X216281000Y-148971000D02*
X216281000Y-147955000D01*
X214376000Y-136017000D02*
X213868000Y-135509000D01*
X216281000Y-147955000D02*
X216281000Y-137922000D01*
D28*
X235663172Y-155561589D02*
X232882583Y-152781000D01*
D29*
X214884000Y-136525000D02*
X214376000Y-136017000D01*
X213868000Y-135509000D02*
X213360000Y-135001000D01*
X216281000Y-137922000D02*
X214884000Y-136525000D01*
D28*
X232882583Y-152781000D02*
X220091000Y-152781000D01*
D29*
X217297000Y-149987000D02*
X216281000Y-148971000D01*
D27*
X214889522Y-140366577D02*
X214889522Y-141345478D01*
X212598000Y-143637000D02*
X212598000Y-145415000D01*
X212598000Y-145415000D02*
X212598000Y-147169500D01*
X214889522Y-141345478D02*
X212598000Y-143637000D01*
X212598000Y-147169500D02*
X212621500Y-147193000D01*
X212852000Y-148717000D02*
X212748500Y-148717000D01*
X213995000Y-147574000D02*
X212852000Y-148717000D01*
X214877665Y-142891473D02*
X214877665Y-143516335D01*
X213995000Y-144399000D02*
X213995000Y-147574000D01*
X214877665Y-143516335D02*
X213995000Y-144399000D01*
X214925031Y-148929969D02*
X213487000Y-150368000D01*
X214925031Y-145372974D02*
X214925031Y-148929969D01*
X213487000Y-150368000D02*
X212748500Y-150368000D01*
X202946000Y-128905000D02*
X204851000Y-127000000D01*
X202946000Y-135636000D02*
X202946000Y-128905000D01*
X219099608Y-148565392D02*
X218222946Y-148565392D01*
X219329000Y-148336000D02*
X219099608Y-148565392D01*
X221083500Y-148336000D02*
X219977000Y-148336000D01*
X218222946Y-148565392D02*
X217791804Y-148134250D01*
X219977000Y-148336000D02*
X219710000Y-148069000D01*
X219837000Y-148336000D02*
X219329000Y-148336000D01*
X219710000Y-149619000D02*
X219069213Y-148978213D01*
X217763083Y-148978213D02*
X217649975Y-148865105D01*
X221083500Y-149733000D02*
X219824000Y-149733000D01*
X219824000Y-149733000D02*
X219710000Y-149619000D01*
X219069213Y-148978213D02*
X217763083Y-148978213D01*
X219456000Y-145415000D02*
X217932000Y-146939000D01*
X221210500Y-145415000D02*
X219456000Y-145415000D01*
X219202012Y-146812000D02*
X218440000Y-147574012D01*
X221210500Y-146812000D02*
X219202012Y-146812000D01*
D26*
X210185000Y-115443000D02*
X210185000Y-116921000D01*
X170942000Y-133096000D02*
X173101000Y-130937000D01*
X187071000Y-107823000D02*
X186944000Y-107696000D01*
X176403000Y-105791000D02*
X175768000Y-106426000D01*
X175768000Y-106426000D02*
X171196000Y-110998000D01*
X211455000Y-109855000D02*
X210185000Y-111125000D01*
X173482000Y-163703000D02*
X170942000Y-161163000D01*
X206883000Y-107823000D02*
X204978000Y-107823000D01*
X204978000Y-107823000D02*
X187071000Y-107823000D01*
X171196000Y-110998000D02*
X171196000Y-114554000D01*
X185039000Y-105791000D02*
X176403000Y-105791000D01*
X171196000Y-114554000D02*
X171196000Y-123317000D01*
X173101000Y-130937000D02*
X173101000Y-129286000D01*
X170942000Y-161163000D02*
X170942000Y-133096000D01*
X210185000Y-111125000D02*
X206883000Y-107823000D01*
X210185000Y-116921000D02*
X205854000Y-121252000D01*
X212344000Y-109855000D02*
X211455000Y-109855000D01*
X203454000Y-163703000D02*
X173482000Y-163703000D01*
X186944000Y-107696000D02*
X185039000Y-105791000D01*
X185293000Y-113538000D02*
X185293000Y-121158000D01*
X185293000Y-121158000D02*
X180848000Y-125603000D01*
X180848000Y-134239000D02*
X184071537Y-137462537D01*
X184071537Y-137462537D02*
X184071537Y-140812610D01*
D27*
X185293000Y-139700000D02*
X184036000Y-139700000D01*
D26*
X180848000Y-125603000D02*
X180848000Y-134239000D01*
D27*
X195135192Y-128714192D02*
X195135192Y-112265958D01*
X196368000Y-129947000D02*
X195135192Y-128714192D01*
X199808408Y-128053400D02*
X200025000Y-128269992D01*
X199808408Y-112010875D02*
X199808408Y-128053400D01*
X195630275Y-140192787D02*
X195634911Y-140188151D01*
X195630275Y-142168893D02*
X195630275Y-140192787D01*
X186408175Y-151040942D02*
X186408175Y-149017566D01*
X186408175Y-149017566D02*
X186410063Y-149015678D01*
X217763456Y-108997438D02*
X218154562Y-108997438D01*
X218154562Y-108997438D02*
X219075000Y-108077000D01*
X215773000Y-111125000D02*
X215773000Y-108204000D01*
D30*
X209363053Y-112106453D02*
X209169000Y-111912400D01*
X210596438Y-112102900D02*
X210592885Y-112106453D01*
D27*
X215773000Y-108204000D02*
X215900000Y-108077000D01*
D30*
X210592885Y-112106453D02*
X209363053Y-112106453D01*
X215773000Y-111346908D02*
X215017008Y-112102900D01*
X215017008Y-112102900D02*
X210596438Y-112102900D01*
X215773000Y-111125000D02*
X215773000Y-111346908D01*
X210820000Y-112687100D02*
X210816447Y-112690653D01*
D27*
X217043000Y-108458000D02*
X216789000Y-108204000D01*
D30*
X209363053Y-112690653D02*
X209185361Y-112868344D01*
D27*
X217043000Y-111067290D02*
X217043000Y-108458000D01*
D30*
X216878802Y-111067290D02*
X215258992Y-112687100D01*
X210816447Y-112690653D02*
X209363053Y-112690653D01*
X217043000Y-111067290D02*
X216878802Y-111067290D01*
X215258992Y-112687100D02*
X210820000Y-112687100D01*
D27*
X177292000Y-146812000D02*
X177292000Y-151638000D01*
X208661000Y-142113000D02*
X206665853Y-140117853D01*
X208661000Y-144343081D02*
X208661000Y-142113000D01*
X209947674Y-145629755D02*
X208661000Y-144343081D01*
X206665853Y-140117853D02*
X206665853Y-139326764D01*
X210923500Y-150368000D02*
X195072000Y-150368000D01*
X195072000Y-150368000D02*
X187960000Y-143256000D01*
X187960000Y-143256000D02*
X186943000Y-143256000D01*
X204597000Y-149733000D02*
X199390000Y-149733000D01*
X206031833Y-148298167D02*
X204597000Y-149733000D01*
X199390000Y-149733000D02*
X194701235Y-145044235D01*
X194701235Y-145044235D02*
X194701235Y-144028235D01*
X191362877Y-141959877D02*
X188738749Y-141959877D01*
X193431235Y-144028235D02*
X191362877Y-141959877D01*
X194701235Y-144028235D02*
X193431235Y-144028235D01*
X210017167Y-148298167D02*
X206031833Y-148298167D01*
X210436000Y-148717000D02*
X210017167Y-148298167D01*
X210923500Y-148717000D02*
X210436000Y-148717000D01*
X199800329Y-147603329D02*
X194310000Y-142113000D01*
X194310000Y-142113000D02*
X194310000Y-141501500D01*
X188819842Y-141097000D02*
X188770921Y-141145921D01*
X205710671Y-147603329D02*
X204114400Y-149199600D01*
X205867000Y-147603329D02*
X205710671Y-147603329D01*
X192786000Y-141351000D02*
X192532000Y-141097000D01*
X201396600Y-149199600D02*
X199800329Y-147603329D01*
X210796500Y-147193000D02*
X210386171Y-147603329D01*
X194310000Y-141501500D02*
X194159500Y-141351000D01*
X210386171Y-147603329D02*
X205867000Y-147603329D01*
X204114400Y-149199600D02*
X201396600Y-149199600D01*
X194159500Y-141351000D02*
X192786000Y-141351000D01*
X192532000Y-141097000D02*
X188819842Y-141097000D01*
X235970387Y-150169320D02*
X235820421Y-150319286D01*
X223564227Y-149000000D02*
X223564227Y-148991727D01*
X223564227Y-148991727D02*
X222908500Y-148336000D01*
X225948486Y-150319286D02*
X224629200Y-149000000D01*
X224629200Y-149000000D02*
X223564227Y-149000000D01*
X235820421Y-150319286D02*
X225948486Y-150319286D01*
X226642721Y-138288543D02*
X226642721Y-142630043D01*
X235263707Y-135382000D02*
X234950000Y-135382000D01*
X223523000Y-145415000D02*
X223035500Y-145415000D01*
X234950000Y-135382000D02*
X234950000Y-135569264D01*
X226642721Y-142630043D02*
X223857764Y-145415000D01*
X234035301Y-136483963D02*
X228447301Y-136483963D01*
X228447301Y-136483963D02*
X226642721Y-138288543D01*
X234950000Y-135569264D02*
X234035301Y-136483963D01*
X223857764Y-145415000D02*
X223035500Y-145415000D01*
X187579000Y-140843000D02*
X185293000Y-143129000D01*
X187579000Y-136779000D02*
X187579000Y-140843000D01*
X192348358Y-134749872D02*
X190319230Y-136779000D01*
X194935775Y-153924000D02*
X196840775Y-155829000D01*
X190319230Y-136779000D02*
X187579000Y-136779000D01*
X187198000Y-153924000D02*
X194935775Y-153924000D01*
X185293000Y-143129000D02*
X185293000Y-152019000D01*
X185293000Y-152019000D02*
X187198000Y-153924000D01*
X186944000Y-140716000D02*
X184277000Y-143383000D01*
X187071000Y-154686000D02*
X189672802Y-154686000D01*
X190280825Y-135474881D02*
X187867119Y-135474881D01*
X184277000Y-151892000D02*
X187071000Y-154686000D01*
X189672802Y-154686000D02*
X191066716Y-156079914D01*
X190878965Y-134876741D02*
X190280825Y-135474881D01*
X184277000Y-143383000D02*
X184277000Y-151892000D01*
X186944000Y-136398000D02*
X186944000Y-140716000D01*
X187867119Y-135474881D02*
X186944000Y-136398000D01*
X194563195Y-134365195D02*
X194563195Y-134561642D01*
X183515000Y-145161000D02*
X183515000Y-143383000D01*
X186436000Y-140462000D02*
X186436000Y-139954000D01*
X183451500Y-145224500D02*
X183515000Y-145161000D01*
X186436000Y-140497069D02*
X186436000Y-139954000D01*
X186436000Y-139954000D02*
X186436000Y-135255000D01*
X188595000Y-133096000D02*
X193294000Y-133096000D01*
X184277000Y-155702000D02*
X185271809Y-155702000D01*
X193294000Y-133096000D02*
X194563195Y-134365195D01*
X182880000Y-154305000D02*
X184277000Y-155702000D01*
X186436000Y-135255000D02*
X188595000Y-133096000D01*
X183515000Y-143383000D02*
X186436000Y-140462000D01*
X182880000Y-145796000D02*
X182880000Y-154305000D01*
X183451500Y-145224500D02*
X182880000Y-145796000D01*
X201041000Y-152527000D02*
X202692000Y-154178000D01*
X187452000Y-148336000D02*
X189103000Y-148336000D01*
X188447939Y-138383481D02*
X188802481Y-138383481D01*
X185928000Y-147701000D02*
X186436000Y-148209000D01*
X202692000Y-154178000D02*
X202819000Y-154305000D01*
X188802481Y-138383481D02*
X188976000Y-138557000D01*
X186563000Y-148336000D02*
X187452000Y-148336000D01*
X194310000Y-152527000D02*
X201041000Y-152527000D01*
X188595000Y-140462000D02*
X185928000Y-143129000D01*
X188976000Y-138557000D02*
X188976000Y-140081000D01*
X193294000Y-152527000D02*
X194310000Y-152527000D01*
X202819000Y-154305000D02*
X202819000Y-155702000D01*
X186436000Y-148209000D02*
X186563000Y-148336000D01*
X185928000Y-143764000D02*
X185928000Y-147701000D01*
X191262000Y-150495000D02*
X193294000Y-152527000D01*
X188976000Y-140081000D02*
X188595000Y-140462000D01*
X185928000Y-143129000D02*
X185928000Y-143764000D01*
X189103000Y-148336000D02*
X191262000Y-150495000D01*
X195453000Y-131318000D02*
X197485000Y-131318000D01*
X203708000Y-137541000D02*
X207010000Y-137541000D01*
X197485000Y-131318000D02*
X203708000Y-137541000D01*
X205740000Y-141189282D02*
X205740000Y-139446000D01*
X205740000Y-139446000D02*
X204851000Y-138557000D01*
X204851000Y-138557000D02*
X202946000Y-138557000D01*
X206756000Y-142205282D02*
X205740000Y-141189282D01*
X207165615Y-142205282D02*
X206756000Y-142205282D01*
X202946000Y-138557000D02*
X199008997Y-134619997D01*
X199008997Y-134619997D02*
X195707000Y-134619997D01*
X204597000Y-139827000D02*
X203200000Y-139827000D01*
X207051239Y-142958652D02*
X206331652Y-142958652D01*
X204851000Y-140081000D02*
X204597000Y-139827000D01*
X200876600Y-137503600D02*
X200059378Y-137503600D01*
X206331652Y-142958652D02*
X204851000Y-141478000D01*
X204851000Y-141478000D02*
X204851000Y-140081000D01*
X203200000Y-139827000D02*
X200876600Y-137503600D01*
X202946000Y-140462000D02*
X203200000Y-140716000D01*
X203200000Y-140716000D02*
X203200000Y-141605000D01*
X200152000Y-140462000D02*
X202946000Y-140462000D01*
X205133407Y-143538407D02*
X206616081Y-143538407D01*
X203200000Y-141605000D02*
X205133407Y-143538407D01*
X203969910Y-144279910D02*
X206791642Y-144279910D01*
X202437527Y-142747527D02*
X203969910Y-144279910D01*
X202437527Y-141482471D02*
X202437527Y-142747527D01*
X200660000Y-141351000D02*
X200660000Y-145160990D01*
X200660000Y-145160990D02*
X200787000Y-145287990D01*
X201422000Y-141470356D02*
X201436796Y-141455560D01*
X201422000Y-145923000D02*
X201422000Y-141470356D01*
X234950000Y-136144000D02*
X235165133Y-136144000D01*
X227049121Y-138456879D02*
X227049121Y-142798379D01*
X234203637Y-136890363D02*
X234950000Y-136144000D01*
X228615637Y-136890363D02*
X227049121Y-138456879D01*
X227049121Y-142798379D02*
X223035500Y-146812000D01*
X234203637Y-136890363D02*
X228615637Y-136890363D01*
X223191500Y-149450000D02*
X222908500Y-149733000D01*
X225762088Y-150769288D02*
X224442800Y-149450000D01*
X235768774Y-151104967D02*
X235433095Y-150769288D01*
X235433095Y-150769288D02*
X225762088Y-150769288D01*
X224442800Y-149450000D02*
X223191500Y-149450000D01*
G04 #@! TA.AperFunction,Conductor*
G36*
X258269621Y-123420002D02*
G01*
X258316114Y-123473658D01*
X258327500Y-123526000D01*
X258327500Y-133561000D01*
X258307498Y-133629121D01*
X258253842Y-133675614D01*
X258201500Y-133687000D01*
X244367559Y-133687000D01*
X244299438Y-133666998D01*
X244269170Y-133639712D01*
X243826611Y-133086513D01*
X243799675Y-133020824D01*
X243799000Y-133007801D01*
X243799000Y-129047015D01*
X243819002Y-128978894D01*
X243844337Y-128950219D01*
X244525955Y-128382204D01*
X244591092Y-128353960D01*
X244606618Y-128353000D01*
X246720000Y-128353000D01*
X247482000Y-127591000D01*
X247482000Y-124415000D01*
X247502002Y-124346879D01*
X247555658Y-124300386D01*
X247608000Y-124289000D01*
X249132999Y-124289000D01*
X249133000Y-124289000D01*
X250113371Y-123431174D01*
X250177809Y-123401371D01*
X250196343Y-123400000D01*
X258201500Y-123400000D01*
X258269621Y-123420002D01*
G37*
G04 #@! TD.AperFunction*
G04 #@! TA.AperFunction,Conductor*
G36*
X250480592Y-138533002D02*
G01*
X250501566Y-138549905D01*
X250600580Y-138648919D01*
X250600582Y-138648920D01*
X250746066Y-138740334D01*
X250746067Y-138740334D01*
X250746070Y-138740336D01*
X250908254Y-138797087D01*
X250908253Y-138797087D01*
X250925543Y-138799034D01*
X251079000Y-138816325D01*
X251249746Y-138797087D01*
X251411930Y-138740336D01*
X251557419Y-138648919D01*
X251567338Y-138639000D01*
X251656434Y-138549905D01*
X251718746Y-138515879D01*
X251745529Y-138513000D01*
X252317471Y-138513000D01*
X252385592Y-138533002D01*
X252406566Y-138549905D01*
X252505580Y-138648919D01*
X252505582Y-138648920D01*
X252651066Y-138740334D01*
X252651067Y-138740334D01*
X252651070Y-138740336D01*
X252813254Y-138797087D01*
X252813253Y-138797087D01*
X252830543Y-138799034D01*
X252984000Y-138816325D01*
X253154746Y-138797087D01*
X253316930Y-138740336D01*
X253462419Y-138648919D01*
X253472338Y-138639000D01*
X253561434Y-138549905D01*
X253623746Y-138515879D01*
X253650529Y-138513000D01*
X253968471Y-138513000D01*
X254036592Y-138533002D01*
X254057566Y-138549905D01*
X254156580Y-138648919D01*
X254156582Y-138648920D01*
X254302066Y-138740334D01*
X254302067Y-138740334D01*
X254302070Y-138740336D01*
X254464254Y-138797087D01*
X254464253Y-138797087D01*
X254481543Y-138799034D01*
X254635000Y-138816325D01*
X254805746Y-138797087D01*
X254967930Y-138740336D01*
X255113419Y-138648919D01*
X255123338Y-138639000D01*
X255212434Y-138549905D01*
X255274746Y-138515879D01*
X255301529Y-138513000D01*
X258201500Y-138513000D01*
X258269621Y-138533002D01*
X258316114Y-138586658D01*
X258327500Y-138639000D01*
X258327500Y-148674000D01*
X258307498Y-148742121D01*
X258253842Y-148788614D01*
X258201500Y-148800000D01*
X244240559Y-148800000D01*
X244172438Y-148779998D01*
X244142170Y-148752712D01*
X243699611Y-148199513D01*
X243672675Y-148133824D01*
X243672000Y-148120801D01*
X243672000Y-144160015D01*
X243692002Y-144091894D01*
X243717337Y-144063219D01*
X244398955Y-143495204D01*
X244464092Y-143466960D01*
X244479618Y-143466000D01*
X244887661Y-143466000D01*
X244901767Y-143466791D01*
X244942000Y-143471325D01*
X244982232Y-143466791D01*
X244996339Y-143466000D01*
X246284661Y-143466000D01*
X246298767Y-143466791D01*
X246339000Y-143471325D01*
X246379232Y-143466791D01*
X246393339Y-143466000D01*
X246592998Y-143466000D01*
X246593000Y-143466000D01*
X246640850Y-143418149D01*
X246666481Y-143399965D01*
X246665938Y-143399100D01*
X246671926Y-143395337D01*
X246671930Y-143395336D01*
X246817419Y-143303919D01*
X246938919Y-143182419D01*
X247030336Y-143036930D01*
X247030337Y-143036926D01*
X247034100Y-143030938D01*
X247034965Y-143031481D01*
X247053148Y-143005851D01*
X247355000Y-142704000D01*
X247355000Y-139528000D01*
X247375002Y-139459879D01*
X247428658Y-139413386D01*
X247481000Y-139402000D01*
X249005999Y-139402000D01*
X249006000Y-139402000D01*
X249986371Y-138544174D01*
X250050809Y-138514371D01*
X250069343Y-138513000D01*
X250412471Y-138513000D01*
X250480592Y-138533002D01*
G37*
G04 #@! TD.AperFunction*
G04 #@! TA.AperFunction,Conductor*
G36*
X237998000Y-142494000D02*
G01*
X237744000Y-142748000D01*
X236347000Y-142748000D01*
X236052000Y-142453000D01*
X236051999Y-142452998D01*
X235113905Y-141514904D01*
X235079879Y-141452592D01*
X235077000Y-141425809D01*
X235077000Y-139244190D01*
X235097002Y-139176069D01*
X235113900Y-139155099D01*
X236093000Y-138176000D01*
X237998000Y-138176000D01*
X237998000Y-142494000D01*
G37*
G04 #@! TD.AperFunction*
G04 #@! TA.AperFunction,Conductor*
G36*
X244556000Y-112117002D02*
G01*
X244597277Y-112160485D01*
X246085000Y-114764000D01*
X246085004Y-114764006D01*
X246700739Y-115749182D01*
X246719890Y-115816343D01*
X246712043Y-118413752D01*
X246682411Y-128221883D01*
X246662205Y-128289941D01*
X246608409Y-128336271D01*
X246556413Y-128347500D01*
X244606618Y-128347500D01*
X244606363Y-128347507D01*
X244606277Y-128347510D01*
X244590753Y-128348469D01*
X244588906Y-128348913D01*
X244588898Y-128348915D01*
X244523764Y-128377158D01*
X244522437Y-128377976D01*
X243840814Y-128945995D01*
X243840812Y-128945996D01*
X243840228Y-128946563D01*
X243840218Y-128946574D01*
X243814878Y-128975254D01*
X243813724Y-128977344D01*
X243793723Y-129045463D01*
X243793500Y-129047015D01*
X243793500Y-133007807D01*
X243793506Y-133008090D01*
X243794181Y-133021108D01*
X243794181Y-133021109D01*
X243794584Y-133022907D01*
X243794585Y-133022910D01*
X243819405Y-133083437D01*
X243821522Y-133088600D01*
X243822316Y-133089949D01*
X243822320Y-133089955D01*
X244199157Y-133561000D01*
X244264875Y-133643148D01*
X244265487Y-133643797D01*
X244295755Y-133671083D01*
X244297888Y-133672275D01*
X244366009Y-133692277D01*
X244367559Y-133692500D01*
X244367560Y-133692500D01*
X246539503Y-133692500D01*
X246607624Y-133712502D01*
X246654117Y-133766158D01*
X246665501Y-133818880D01*
X246661106Y-135273853D01*
X246636752Y-143334881D01*
X246616545Y-143402941D01*
X246562749Y-143449271D01*
X246510753Y-143460500D01*
X246393327Y-143460500D01*
X246393026Y-143460508D01*
X246378943Y-143461298D01*
X246378613Y-143461326D01*
X246353104Y-143464200D01*
X246324894Y-143464200D01*
X246299385Y-143461326D01*
X246299055Y-143461298D01*
X246284972Y-143460508D01*
X246284673Y-143460500D01*
X246284661Y-143460500D01*
X244996339Y-143460500D01*
X244996327Y-143460500D01*
X244996026Y-143460508D01*
X244981943Y-143461298D01*
X244981613Y-143461326D01*
X244956104Y-143464200D01*
X244927894Y-143464200D01*
X244902385Y-143461326D01*
X244902055Y-143461298D01*
X244887972Y-143460508D01*
X244887673Y-143460500D01*
X244887661Y-143460500D01*
X244479618Y-143460500D01*
X244479363Y-143460507D01*
X244479277Y-143460510D01*
X244463753Y-143461469D01*
X244461906Y-143461913D01*
X244461898Y-143461915D01*
X244396766Y-143490157D01*
X244395440Y-143490974D01*
X244395429Y-143490982D01*
X244368575Y-143513361D01*
X244345119Y-143528829D01*
X244333964Y-143534512D01*
X244333963Y-143534513D01*
X244291869Y-143576608D01*
X244283437Y-143584309D01*
X243713814Y-144058995D01*
X243713812Y-144058996D01*
X243713228Y-144059563D01*
X243713218Y-144059574D01*
X243687878Y-144088254D01*
X243686724Y-144090344D01*
X243666723Y-144158463D01*
X243666500Y-144160015D01*
X243666500Y-148120807D01*
X243666506Y-148121090D01*
X243667181Y-148134108D01*
X243667181Y-148134109D01*
X243667584Y-148135907D01*
X243667585Y-148135910D01*
X243692405Y-148196437D01*
X243694522Y-148201600D01*
X243695316Y-148202949D01*
X243695320Y-148202955D01*
X244072157Y-148674000D01*
X244137875Y-148756148D01*
X244138487Y-148756797D01*
X244168755Y-148784083D01*
X244170888Y-148785275D01*
X244239009Y-148805277D01*
X244240559Y-148805500D01*
X244240560Y-148805500D01*
X246493844Y-148805500D01*
X246561965Y-148825502D01*
X246608458Y-148879158D01*
X246619843Y-148931881D01*
X246593374Y-157693113D01*
X246573167Y-157761173D01*
X246519371Y-157807503D01*
X246469125Y-157818720D01*
X237449003Y-157943999D01*
X235328720Y-158442889D01*
X235257829Y-158439021D01*
X235253066Y-158437226D01*
X234099205Y-157975682D01*
X234043385Y-157931811D01*
X234020144Y-157864726D01*
X234020000Y-157858694D01*
X234020000Y-156298244D01*
X234020435Y-156287780D01*
X234141948Y-154829623D01*
X234167537Y-154763402D01*
X234197615Y-154735256D01*
X236052000Y-153499000D01*
X236052000Y-151413216D01*
X236072002Y-151345095D01*
X236076064Y-151339155D01*
X236081258Y-151332004D01*
X236081261Y-151332002D01*
X236136124Y-151224326D01*
X236155029Y-151104967D01*
X236136124Y-150985608D01*
X236081261Y-150877932D01*
X236081260Y-150877930D01*
X236076062Y-150870775D01*
X236052205Y-150803906D01*
X236052000Y-150796717D01*
X236052000Y-150633115D01*
X236072002Y-150564994D01*
X236120796Y-150520848D01*
X236197422Y-150481807D01*
X236282874Y-150396355D01*
X236337737Y-150288679D01*
X236356642Y-150169320D01*
X236347880Y-150114000D01*
X243690245Y-150114000D01*
X243709150Y-150233359D01*
X243709150Y-150233360D01*
X243709151Y-150233362D01*
X243764013Y-150341036D01*
X243849463Y-150426486D01*
X243849462Y-150426486D01*
X243957137Y-150481348D01*
X243957141Y-150481350D01*
X244076500Y-150500255D01*
X244195859Y-150481350D01*
X244303535Y-150426487D01*
X244388987Y-150341035D01*
X244443850Y-150233359D01*
X244462755Y-150114000D01*
X244443850Y-149994641D01*
X244388987Y-149886965D01*
X244388986Y-149886963D01*
X244303536Y-149801513D01*
X244303537Y-149801513D01*
X244195862Y-149746651D01*
X244195860Y-149746650D01*
X244195859Y-149746650D01*
X244076500Y-149727745D01*
X243957141Y-149746650D01*
X243957139Y-149746650D01*
X243957137Y-149746651D01*
X243849463Y-149801513D01*
X243764013Y-149886963D01*
X243709151Y-149994637D01*
X243709150Y-149994639D01*
X243709150Y-149994641D01*
X243690245Y-150114000D01*
X236347880Y-150114000D01*
X236337737Y-150049961D01*
X236282874Y-149942285D01*
X236282873Y-149942283D01*
X236197424Y-149856834D01*
X236120797Y-149817791D01*
X236069182Y-149769043D01*
X236052000Y-149705524D01*
X236052000Y-142453000D01*
X236347000Y-142748000D01*
X237744000Y-142748000D01*
X237998000Y-142494000D01*
X237998000Y-138176000D01*
X236093000Y-138176000D01*
X236052000Y-138217000D01*
X236052000Y-135393216D01*
X244310147Y-135393216D01*
X244329052Y-135512575D01*
X244329052Y-135512576D01*
X244329053Y-135512578D01*
X244383915Y-135620252D01*
X244469365Y-135705702D01*
X244469364Y-135705702D01*
X244555030Y-135749350D01*
X244577043Y-135760566D01*
X244696402Y-135779471D01*
X244815761Y-135760566D01*
X244923437Y-135705703D01*
X245008889Y-135620251D01*
X245063752Y-135512575D01*
X245082657Y-135393216D01*
X245063752Y-135273857D01*
X245008889Y-135166181D01*
X245008888Y-135166179D01*
X244923438Y-135080729D01*
X244923439Y-135080729D01*
X244815764Y-135025867D01*
X244815762Y-135025866D01*
X244815761Y-135025866D01*
X244696402Y-135006961D01*
X244577043Y-135025866D01*
X244577041Y-135025866D01*
X244577039Y-135025867D01*
X244469365Y-135080729D01*
X244383915Y-135166179D01*
X244329053Y-135273853D01*
X244329052Y-135273855D01*
X244329052Y-135273857D01*
X244310147Y-135393216D01*
X236052000Y-135393216D01*
X236052000Y-120277190D01*
X236072002Y-120209069D01*
X236088905Y-120188095D01*
X239481000Y-116796000D01*
X239481000Y-114308190D01*
X239501002Y-114240069D01*
X239517905Y-114219095D01*
X241349095Y-112387905D01*
X241411407Y-112353879D01*
X241438190Y-112351000D01*
X242274999Y-112351000D01*
X242275000Y-112351000D01*
X242492096Y-112133903D01*
X242554407Y-112099880D01*
X242581190Y-112097000D01*
X244487879Y-112097000D01*
X244556000Y-112117002D01*
G37*
G04 #@! TD.AperFunction*
G04 #@! TA.AperFunction,Conductor*
G36*
X258269621Y-153392002D02*
G01*
X258316114Y-153445658D01*
X258327500Y-153498000D01*
X258327500Y-163787000D01*
X258307498Y-163855121D01*
X258253842Y-163901614D01*
X258201500Y-163913000D01*
X246863569Y-163913000D01*
X246795448Y-163892998D01*
X246774478Y-163876099D01*
X246722790Y-163824411D01*
X246722789Y-163824410D01*
X246722787Y-163824408D01*
X246577304Y-163732995D01*
X246577301Y-163732994D01*
X246415117Y-163676243D01*
X246415115Y-163676242D01*
X246415117Y-163676242D01*
X246244371Y-163657005D01*
X246073626Y-163676242D01*
X245911440Y-163732994D01*
X245911437Y-163732995D01*
X245765954Y-163824408D01*
X245740111Y-163850251D01*
X245714266Y-163876096D01*
X245651957Y-163910120D01*
X245625173Y-163913000D01*
X244374433Y-163913000D01*
X244306312Y-163892998D01*
X244269595Y-163856892D01*
X244074162Y-163563743D01*
X244053018Y-163495968D01*
X244053000Y-163493851D01*
X244053000Y-158744149D01*
X244073002Y-158676028D01*
X244074162Y-158674257D01*
X244269595Y-158381108D01*
X244324024Y-158335523D01*
X244374433Y-158325000D01*
X244887661Y-158325000D01*
X244901767Y-158325791D01*
X244942000Y-158330325D01*
X244982232Y-158325791D01*
X244996339Y-158325000D01*
X246284661Y-158325000D01*
X246298767Y-158325791D01*
X246339000Y-158330325D01*
X246379232Y-158325791D01*
X246393339Y-158325000D01*
X246720000Y-158325000D01*
X247482000Y-157563000D01*
X247482000Y-154641000D01*
X247502002Y-154572879D01*
X247555658Y-154526386D01*
X247608000Y-154515000D01*
X249132999Y-154515000D01*
X249133000Y-154515000D01*
X250111409Y-153414290D01*
X250171616Y-153376665D01*
X250205583Y-153372000D01*
X258201500Y-153372000D01*
X258269621Y-153392002D01*
G37*
G04 #@! TD.AperFunction*
M02*
