M48
; DRILL file {KiCad 8.0.0} date 2024-03-03T15:30:03-0800
; FORMAT={-:-/ absolute / metric / decimal}
; #@! TF.CreationDate,2024-03-03T15:30:03-08:00
; #@! TF.GenerationSoftware,Kicad,Pcbnew,8.0.0
; #@! TF.FileFunction,Plated,1,4,PTH
FMAT,2
METRIC
; #@! TA.AperFunction,Plated,PTH,ViaDrill
T1C0.254
; #@! TA.AperFunction,Plated,PTH,ComponentDrill
T2C0.500
; #@! TA.AperFunction,Plated,PTH,ComponentDrill
T3C0.600
; #@! TA.AperFunction,Plated,PTH,ComponentDrill
T4C0.800
; #@! TA.AperFunction,Plated,PTH,ComponentDrill
T5C1.200
; #@! TA.AperFunction,Plated,PTH,ComponentDrill
T6C1.525
; #@! TA.AperFunction,Plated,PTH,ComponentDrill
T7C2.600
; #@! TA.AperFunction,Plated,PTH,ComponentDrill
T8C3.200
%
G90
G05
T1
X163.449Y-140.208
X163.449Y-142.494
X163.449Y-144.78
X163.449Y-146.939
X163.957Y-114.681
X163.957Y-116.967
X163.957Y-119.253
X163.957Y-121.412
X164.846Y-141.224
X164.846Y-143.637
X164.846Y-145.923
X165.354Y-115.697
X165.354Y-118.11
X165.354Y-120.396
X165.354Y-161.798
X166.857Y-161.015
X167.127Y-159.309
X167.343Y-114.605
X167.64Y-140.005
X167.64Y-152.451
X168.474Y-162.632
X168.653Y-160.836
X169.737Y-140.894
X169.737Y-153.34
X169.771Y-139.043
X169.771Y-151.489
X169.864Y-115.494
X169.898Y-113.643
X170.012Y-106.934
X170.18Y-164.338
X170.27Y-162.452
X170.307Y-123.444
X171.196Y-123.317
X171.886Y-164.069
X172.085Y-139.954
X172.085Y-152.4
X172.212Y-129.667
X172.212Y-154.305
X172.212Y-156.591
X172.212Y-158.877
X172.212Y-161.036
X172.466Y-114.554
X172.974Y-146.304
X173.101Y-129.286
X173.101Y-130.048
X173.101Y-136.652
X173.482Y-143.002
X173.609Y-155.321
X173.609Y-157.734
X173.609Y-160.02
X174.498Y-102.616
X174.625Y-146.558
X174.625Y-168.021
X174.879Y-133.731
X175.133Y-105.664
X175.133Y-118.381
X175.133Y-148.717
X175.514Y-104.013
X175.641Y-144.399
X175.641Y-169.418
X175.768Y-120.65
X175.768Y-106.426
X176.657Y-102.616
X176.784Y-155.956
X176.784Y-168.021
X176.847Y-118.364
X176.911Y-125.857
X177.292Y-146.812
X177.292Y-151.638
X177.368Y-108.65
X177.8Y-104.013
X177.927Y-169.418
X178.308Y-106.68
X178.308Y-110.998
X178.308Y-144.78
X178.435Y-154.305
X178.519Y-164.794
X178.943Y-102.616
X178.943Y-147.574
X179.07Y-124.079
X179.07Y-168.021
X179.219Y-108.684
X179.324Y-162.56
X179.324Y-166.624
X179.705Y-152.019
X179.715Y-136.797
X179.741Y-137.915
X180.213Y-104.013
X180.264Y-164.781
X180.34Y-169.418
X180.53Y-158.891
X180.721Y-147.574
X180.798Y-160.794
X181.172Y-137.599
X181.186Y-136.779
X181.229Y-102.616
X181.356Y-168.021
X181.428Y-140.9
X181.483Y-142.113
X181.483Y-122.555
X181.483Y-156.591
X181.61Y-139.954
X181.737Y-145.796
X181.737Y-154.051
X182.245Y-162.433
X182.464Y-145.009
X182.626Y-134.747
X182.996Y-130.893
X183.007Y-131.699
X183.018Y-138.937
X183.261Y-134.366
X183.896Y-153.035
X184.242Y-107.592
X184.435Y-113.848
X185.039Y-128.397
X185.272Y-155.702
X185.293Y-113.538
X185.293Y-123.317
X185.293Y-125.73
X185.293Y-138.557
X185.293Y-139.7
X185.674Y-159.512
X185.685Y-133.186
X185.776Y-112.727
X185.785Y-140.253
X185.801Y-162.433
X186.408Y-151.041
X186.41Y-149.016
X186.563Y-144.272
X186.563Y-146.431
X186.69Y-112.649
X186.876Y-151.633
X186.943Y-143.256
X187.198Y-149.098
X187.706Y-145.669
X187.833Y-111.887
X188.087Y-169.418
X188.172Y-140.081
X188.341Y-155.321
X188.448Y-138.383
X188.46Y-137.632
X188.468Y-136.144
X188.585Y-131.3
X188.7Y-164.62
X188.722Y-102.489
X188.722Y-111.633
X188.722Y-122.809
X188.722Y-124.46
X188.739Y-141.96
X188.771Y-141.146
X189.103Y-131.699
X189.103Y-145.542
X189.103Y-170.815
X189.363Y-134.207
X189.369Y-143.256
X189.484Y-137.541
X189.611Y-162.052
X189.611Y-167.132
X189.738Y-103.886
X190.246Y-169.418
X190.428Y-134.293
X190.551Y-164.654
X190.627Y-159.131
X190.879Y-134.877
X190.881Y-102.489
X191.067Y-156.08
X191.262Y-122.174
X191.262Y-137.287
X191.262Y-138.43
X191.262Y-142.875
X191.389Y-140.081
X191.389Y-170.815
X191.719Y-108.65
X191.897Y-127.762
X192.024Y-103.886
X192.151Y-126.492
X192.278Y-160.147
X192.348Y-134.75
X192.532Y-169.418
X192.608Y-106.129
X192.659Y-111.252
X192.786Y-142.113
X192.913Y-150.114
X193.04Y-137.287
X193.04Y-138.43
X193.059Y-131.464
X193.103Y-134.711
X193.167Y-102.489
X193.57Y-108.684
X193.675Y-155.321
X193.802Y-127.381
X193.802Y-170.815
X193.929Y-125.476
X194.31Y-138.811
X194.437Y-103.886
X194.437Y-137.287
X194.563Y-134.562
X194.574Y-135.324
X194.818Y-169.418
X195.135Y-112.266
X195.199Y-138.303
X195.453Y-102.489
X195.453Y-131.318
X195.58Y-130.175
X195.58Y-139.446
X195.63Y-142.169
X195.635Y-140.188
X195.707Y-134.62
X195.707Y-135.382
X195.849Y-112.271
X195.984Y-120.396
X196.222Y-159.106
X196.342Y-160.782
X196.363Y-142.679
X196.368Y-129.947
X196.469Y-138.176
X196.469Y-169.418
X196.596Y-118.618
X196.596Y-125.476
X196.596Y-127.0
X196.596Y-128.524
X196.596Y-148.717
X196.733Y-108.65
X196.841Y-155.829
X196.85Y-102.489
X196.977Y-143.383
X197.485Y-170.815
X197.622Y-106.129
X197.673Y-111.252
X197.729Y-132.847
X197.866Y-103.886
X198.247Y-124.206
X198.584Y-108.684
X198.628Y-169.418
X198.988Y-143.629
X198.988Y-145.28
X199.009Y-102.489
X199.057Y-112.052
X199.23Y-118.702
X199.517Y-129.921
X199.644Y-128.904
X199.771Y-155.321
X199.771Y-170.815
X199.808Y-112.011
X200.025Y-128.27
X200.059Y-137.504
X200.111Y-132.859
X200.152Y-103.886
X200.152Y-140.462
X200.66Y-141.351
X200.787Y-145.288
X200.914Y-169.418
X201.041Y-117.221
X201.041Y-122.936
X201.295Y-102.489
X201.422Y-145.923
X201.437Y-141.456
X202.057Y-120.904
X202.184Y-159.131
X202.184Y-170.815
X202.438Y-141.482
X202.565Y-103.886
X202.819Y-155.702
X202.946Y-135.636
X203.143Y-137.882
X203.2Y-169.418
X203.322Y-144.61
X203.327Y-142.748
X203.36Y-139.125
X203.454Y-163.703
X203.581Y-102.489
X203.708Y-148.463
X203.835Y-159.512
X203.897Y-134.582
X203.962Y-111.506
X203.962Y-164.211
X204.026Y-141.125
X204.47Y-126.365
X204.851Y-127.0
X204.978Y-117.729
X204.978Y-119.507
X205.105Y-120.904
X205.359Y-155.321
X205.71Y-115.488
X205.74Y-131.445
X205.74Y-132.334
X205.854Y-121.252
X206.502Y-131.445
X206.616Y-143.538
X206.666Y-139.327
X206.756Y-151.765
X206.792Y-144.28
X206.883Y-154.559
X207.01Y-137.541
X207.01Y-161.163
X207.051Y-142.959
X207.137Y-159.893
X207.137Y-163.83
X207.166Y-142.205
X207.264Y-131.445
X207.319Y-146.758
X207.352Y-114.478
X207.391Y-135.763
X207.391Y-139.7
X207.391Y-138.938
X207.616Y-148.96
X207.772Y-166.37
X207.772Y-168.656
X207.772Y-170.942
X208.026Y-131.445
X208.026Y-132.334
X208.026Y-162.56
X208.153Y-123.698
X208.153Y-165.227
X208.28Y-122.301
X208.338Y-115.512
X208.788Y-131.445
X209.169Y-149.606
X209.169Y-111.125
X209.169Y-111.912
X209.169Y-161.163
X209.169Y-167.386
X209.169Y-169.799
X209.185Y-112.868
X209.201Y-113.625
X209.296Y-163.83
X209.55Y-131.445
X209.677Y-151.003
X209.804Y-149.225
X209.866Y-142.379
X209.914Y-139.853
X209.931Y-141.605
X209.948Y-145.63
X210.185Y-111.125
X210.185Y-115.443
X210.312Y-131.445
X210.312Y-138.176
X210.312Y-162.56
X210.439Y-165.227
X210.693Y-107.188
X210.82Y-139.954
X210.82Y-143.32
X210.82Y-144.145
X210.947Y-115.443
X210.964Y-144.844
X211.074Y-111.379
X211.074Y-120.523
X211.074Y-131.445
X211.455Y-161.163
X211.582Y-146.177
X211.582Y-163.83
X211.601Y-145.018
X211.645Y-139.065
X211.709Y-147.955
X211.836Y-131.445
X211.836Y-149.479
X212.09Y-109.093
X212.09Y-138.049
X212.344Y-109.855
X212.471Y-139.065
X212.598Y-131.445
X212.725Y-162.56
X212.852Y-165.227
X212.979Y-107.696
X212.979Y-137.033
X213.106Y-130.429
X213.233Y-145.796
X213.296Y-139.065
X213.36Y-101.981
X213.36Y-131.445
X213.36Y-135.001
X213.36Y-144.145
X213.407Y-169.463
X213.741Y-161.163
X213.868Y-130.429
X213.868Y-135.509
X213.868Y-137.922
X213.868Y-152.908
X213.868Y-163.83
X214.122Y-131.445
X214.122Y-139.065
X214.249Y-148.336
X214.249Y-156.972
X214.376Y-103.378
X214.376Y-136.017
X214.503Y-152.908
X214.63Y-111.252
X214.63Y-130.429
X214.643Y-114.795
X214.878Y-142.891
X214.884Y-131.445
X214.884Y-136.525
X214.89Y-140.367
X214.925Y-145.373
X215.138Y-152.908
X215.519Y-101.981
X215.646Y-131.445
X215.773Y-152.908
X215.9Y-108.077
X215.9Y-158.369
X216.027Y-169.504
X216.408Y-110.49
X216.408Y-131.445
X216.408Y-152.908
X216.662Y-103.378
X216.789Y-108.204
X217.013Y-114.109
X217.043Y-152.908
X217.17Y-131.445
X217.17Y-132.207
X217.17Y-132.969
X217.297Y-149.987
X217.297Y-159.893
X217.551Y-150.876
X217.65Y-148.865
X217.763Y-108.997
X217.792Y-148.134
X217.805Y-101.981
X217.932Y-146.939
X217.932Y-162.052
X217.932Y-169.164
X218.059Y-131.699
X218.186Y-150.114
X218.313Y-113.411
X218.44Y-147.574
X218.44Y-156.464
X218.948Y-113.411
X219.075Y-103.378
X219.075Y-108.077
X219.401Y-158.384
X219.71Y-113.411
X220.091Y-101.981
X220.265Y-169.25
X220.556Y-137.839
X220.599Y-107.442
X220.98Y-113.538
X221.017Y-160.001
X221.107Y-158.115
X221.402Y-108.458
X222.634Y-161.617
X222.813Y-159.821
X222.849Y-107.199
X222.885Y-169.291
X223.266Y-113.535
X223.52Y-108.712
X224.028Y-102.235
X224.16Y-163.144
X224.43Y-161.438
X224.536Y-110.109
X224.714Y-119.893
X225.044Y-103.632
X225.679Y-108.712
X225.933Y-164.592
X225.933Y-166.878
X225.933Y-169.164
X225.933Y-171.323
X226.187Y-102.235
X226.241Y-118.367
X226.42Y-120.163
X226.822Y-110.109
X227.33Y-103.632
X227.33Y-165.608
X227.33Y-168.021
X227.33Y-170.307
X227.67Y-129.369
X227.67Y-130.004
X227.67Y-130.639
X227.67Y-131.274
X227.67Y-131.909
X227.67Y-132.544
X227.67Y-133.179
X227.67Y-133.814
X227.67Y-134.449
X227.857Y-116.75
X227.965Y-108.712
X228.037Y-118.546
X228.219Y-143.764
X228.219Y-144.399
X228.219Y-145.034
X228.219Y-145.669
X228.219Y-146.304
X228.219Y-146.939
X228.219Y-147.574
X228.219Y-148.209
X228.219Y-148.844
X228.473Y-102.235
X228.559Y-129.369
X228.559Y-130.004
X228.559Y-130.639
X228.559Y-131.274
X228.559Y-131.909
X228.559Y-132.544
X228.559Y-133.179
X228.559Y-133.814
X228.559Y-134.449
X229.108Y-143.764
X229.108Y-144.399
X229.108Y-145.034
X229.108Y-145.669
X229.108Y-146.304
X229.108Y-146.939
X229.108Y-147.574
X229.108Y-148.209
X229.108Y-148.844
X229.235Y-110.109
X229.235Y-123.317
X229.235Y-124.841
X229.474Y-115.134
X229.743Y-103.632
X229.743Y-116.84
X229.743Y-169.418
X230.251Y-108.712
X230.357Y-160.507
X230.627Y-158.801
X230.759Y-102.235
X230.759Y-170.815
X231.14Y-123.317
X231.14Y-124.841
X231.775Y-140.208
X231.902Y-169.418
X231.974Y-162.124
X232.153Y-160.328
X232.664Y-105.791
X232.791Y-102.235
X233.045Y-123.317
X233.045Y-124.841
X233.045Y-170.815
X233.68Y-107.188
X233.68Y-140.208
X233.68Y-163.83
X233.77Y-161.944
X233.807Y-103.632
X234.188Y-109.728
X234.188Y-169.418
X234.696Y-123.317
X234.696Y-124.841
X234.823Y-105.791
X234.95Y-102.235
X235.165Y-136.144
X235.204Y-111.125
X235.264Y-135.382
X235.386Y-163.561
X235.458Y-170.815
X235.769Y-151.105
X235.966Y-107.188
X235.97Y-150.169
X236.093Y-103.632
X236.347Y-109.728
X236.474Y-169.418
X236.601Y-159.004
X236.601Y-159.639
X236.601Y-160.274
X236.601Y-160.909
X236.601Y-161.544
X236.601Y-162.179
X236.601Y-162.814
X236.601Y-163.449
X236.601Y-164.084
X237.109Y-105.791
X237.236Y-102.235
X237.49Y-111.125
X237.49Y-159.004
X237.49Y-159.639
X237.49Y-160.274
X237.49Y-160.909
X237.49Y-161.544
X237.49Y-162.179
X237.49Y-162.814
X237.49Y-163.449
X237.49Y-164.084
X238.211Y-123.527
X238.211Y-124.162
X238.211Y-124.797
X238.211Y-125.432
X238.211Y-126.067
X238.211Y-126.702
X238.211Y-127.337
X238.211Y-138.64
X238.211Y-139.275
X238.211Y-139.91
X238.211Y-140.545
X238.211Y-141.18
X238.211Y-141.815
X238.211Y-142.45
X238.283Y-153.578
X238.283Y-154.213
X238.283Y-154.848
X238.283Y-155.483
X238.283Y-156.118
X238.283Y-156.753
X238.283Y-157.388
X238.379Y-107.188
X238.506Y-103.632
X238.506Y-169.418
X238.633Y-109.728
X239.1Y-123.527
X239.1Y-124.162
X239.1Y-124.797
X239.1Y-125.432
X239.1Y-126.067
X239.1Y-126.702
X239.1Y-127.337
X239.1Y-138.64
X239.1Y-139.275
X239.1Y-139.91
X239.1Y-140.545
X239.1Y-141.18
X239.1Y-141.815
X239.1Y-142.45
X239.172Y-153.578
X239.172Y-154.213
X239.172Y-154.848
X239.172Y-155.483
X239.172Y-156.118
X239.172Y-156.753
X239.172Y-157.388
X239.395Y-105.791
X239.522Y-102.235
X239.522Y-170.815
X239.903Y-111.125
X239.989Y-123.527
X239.989Y-124.162
X239.989Y-124.797
X239.989Y-125.432
X239.989Y-126.067
X239.989Y-126.702
X239.989Y-127.337
X239.989Y-138.64
X239.989Y-139.275
X239.989Y-139.91
X239.989Y-140.545
X239.989Y-141.18
X239.989Y-141.815
X239.989Y-142.45
X240.061Y-153.578
X240.061Y-154.213
X240.061Y-154.848
X240.061Y-155.483
X240.061Y-156.118
X240.061Y-156.753
X240.061Y-157.388
X240.665Y-169.418
X240.878Y-123.527
X240.878Y-124.162
X240.878Y-124.797
X240.878Y-125.432
X240.878Y-126.067
X240.878Y-126.702
X240.878Y-127.337
X240.878Y-138.64
X240.878Y-139.275
X240.878Y-139.91
X240.878Y-140.545
X240.878Y-141.18
X240.878Y-141.815
X240.878Y-142.45
X240.919Y-109.728
X240.95Y-153.578
X240.95Y-154.213
X240.95Y-154.848
X240.95Y-155.483
X240.95Y-156.118
X240.95Y-156.753
X240.95Y-157.388
X241.681Y-102.997
X241.681Y-105.283
X241.681Y-107.696
X241.808Y-170.815
X242.951Y-169.418
X243.078Y-101.981
X243.078Y-104.14
X243.078Y-106.426
X243.078Y-108.712
X243.418Y-123.4
X243.418Y-124.67
X243.418Y-126.067
X243.418Y-127.464
X243.418Y-138.64
X243.418Y-139.91
X243.418Y-141.307
X243.418Y-142.704
X243.418Y-153.499
X243.418Y-154.769
X243.418Y-156.166
X243.418Y-157.563
X244.076Y-150.114
X244.221Y-170.815
X244.434Y-128.988
X244.434Y-130.258
X244.434Y-131.655
X244.434Y-133.052
X244.561Y-143.847
X244.561Y-145.117
X244.561Y-146.514
X244.561Y-147.911
X244.561Y-158.833
X244.561Y-160.103
X244.561Y-161.5
X244.561Y-162.897
X244.696Y-135.393
X244.815Y-123.4
X244.815Y-124.67
X244.815Y-126.067
X244.815Y-138.64
X244.815Y-139.91
X244.815Y-141.307
X244.815Y-153.499
X244.815Y-154.769
X244.815Y-156.166
X244.942Y-127.464
X244.942Y-142.704
X244.942Y-157.563
X245.237Y-169.418
X245.831Y-128.988
X245.831Y-130.258
X245.831Y-131.655
X245.958Y-133.052
X245.958Y-143.847
X245.958Y-145.117
X245.958Y-146.514
X245.958Y-158.833
X245.958Y-160.103
X245.958Y-161.5
X246.085Y-147.911
X246.085Y-162.897
X246.244Y-164.424
X246.339Y-123.4
X246.339Y-124.67
X246.339Y-126.067
X246.339Y-127.464
X246.339Y-138.64
X246.339Y-139.91
X246.339Y-141.307
X246.339Y-142.704
X246.339Y-153.499
X246.339Y-154.769
X246.339Y-156.166
X246.339Y-157.563
X247.355Y-128.988
X247.355Y-130.258
X247.355Y-131.655
X247.355Y-133.052
X247.359Y-118.872
X247.482Y-143.847
X247.482Y-145.117
X247.482Y-146.514
X247.482Y-147.911
X247.482Y-158.833
X247.482Y-160.103
X247.482Y-161.5
X247.482Y-162.897
X247.728Y-169.519
X248.158Y-104.394
X248.158Y-106.68
X248.158Y-108.966
X248.158Y-111.125
X248.351Y-117.618
X248.351Y-120.124
X248.793Y-134.747
X249.174Y-138.049
X249.555Y-105.41
X249.555Y-107.823
X249.555Y-110.109
X249.555Y-117.565
X249.555Y-120.071
X250.317Y-126.365
X250.317Y-127.762
X250.317Y-129.159
X250.317Y-130.429
X250.317Y-141.732
X250.317Y-143.129
X250.317Y-144.526
X250.317Y-145.796
X250.444Y-156.845
X250.444Y-158.242
X250.444Y-159.639
X250.444Y-160.909
X250.698Y-134.747
X250.825Y-118.872
X251.079Y-138.049
X251.566Y-126.365
X251.566Y-127.762
X251.566Y-129.159
X251.566Y-130.429
X251.566Y-141.732
X251.566Y-143.129
X251.566Y-144.526
X251.566Y-145.796
X251.693Y-156.845
X251.693Y-158.242
X251.693Y-159.639
X251.693Y-160.909
X252.095Y-121.92
X252.222Y-118.872
X252.603Y-134.747
X252.815Y-126.365
X252.815Y-127.762
X252.815Y-129.159
X252.815Y-130.429
X252.815Y-141.732
X252.815Y-143.129
X252.815Y-144.526
X252.815Y-145.796
X252.942Y-156.845
X252.942Y-158.242
X252.942Y-159.639
X252.942Y-160.909
X252.984Y-138.049
X254.0Y-121.92
X254.063Y-126.365
X254.063Y-127.762
X254.063Y-129.159
X254.063Y-130.429
X254.063Y-141.732
X254.063Y-143.129
X254.063Y-144.526
X254.063Y-145.796
X254.127Y-118.872
X254.19Y-156.845
X254.19Y-158.242
X254.19Y-159.639
X254.19Y-160.909
X254.254Y-134.747
X254.635Y-138.049
X255.312Y-126.365
X255.312Y-127.762
X255.312Y-129.159
X255.312Y-130.429
X255.312Y-141.732
X255.312Y-143.129
X255.312Y-144.526
X255.312Y-145.796
X255.439Y-156.845
X255.439Y-158.242
X255.439Y-159.639
X255.439Y-160.909
X255.905Y-121.92
X256.032Y-118.872
X256.159Y-115.443
X256.286Y-110.417
X256.561Y-126.365
X256.561Y-127.762
X256.561Y-129.159
X256.561Y-130.429
X256.561Y-141.732
X256.561Y-143.129
X256.561Y-144.526
X256.561Y-145.796
X256.688Y-156.845
X256.688Y-158.242
X256.688Y-159.639
X256.688Y-160.909
X257.556Y-121.92
X257.683Y-118.872
X257.81Y-126.365
X257.81Y-127.762
X257.81Y-129.159
X257.81Y-130.429
X257.81Y-141.732
X257.81Y-143.129
X257.81Y-144.526
X257.81Y-145.796
X257.937Y-156.845
X257.937Y-158.242
X257.937Y-159.639
X257.937Y-160.909
T2
X162.96Y-104.2
X162.96Y-169.2
X163.663Y-102.503
X163.663Y-105.897
X163.663Y-167.503
X163.663Y-170.897
X165.36Y-101.8
X165.36Y-106.6
X165.36Y-166.8
X165.36Y-171.6
X167.057Y-102.503
X167.057Y-105.897
X167.057Y-167.503
X167.057Y-170.897
X167.76Y-104.2
X167.76Y-169.2
X252.96Y-104.2
X252.96Y-169.2
X253.663Y-102.503
X253.663Y-105.897
X253.663Y-167.503
X253.663Y-170.897
X255.36Y-101.8
X255.36Y-106.6
X255.36Y-166.8
X255.36Y-171.6
X257.057Y-102.503
X257.057Y-105.897
X257.057Y-167.503
X257.057Y-170.897
X257.76Y-104.2
X257.76Y-169.2
T5
X228.163Y-155.562
X229.052Y-140.221
X233.37Y-119.24
X235.663Y-155.562
X236.552Y-140.221
X240.87Y-119.24
T6
X250.53Y-124.67
X250.53Y-132.29
X250.53Y-139.91
X250.53Y-147.53
X250.53Y-155.15
X250.53Y-162.77
X253.07Y-124.67
X253.07Y-132.29
X253.07Y-139.91
X253.07Y-147.53
X253.07Y-155.15
X253.07Y-162.77
X255.61Y-124.67
X255.61Y-132.29
X255.61Y-139.91
X255.61Y-147.53
X255.61Y-155.15
X255.61Y-162.77
X258.15Y-124.67
X258.15Y-132.29
X258.15Y-139.91
X258.15Y-147.53
X258.15Y-155.15
X258.15Y-162.77
T7
X235.5Y-115.26
X242.7Y-115.26
T8
X165.36Y-104.2
X165.36Y-169.2
X255.36Y-104.2
X255.36Y-169.2
T3
G00X232.35Y-108.76
M15
G01X232.35Y-109.76
M16
G05
G00X245.85Y-108.76
M15
G01X245.85Y-109.76
M16
G05
T4
G00X212.424Y-102.196
M15
G01X212.424Y-101.596
M16
G05
G00X212.424Y-106.496
M15
G01X212.424Y-105.696
M16
G05
G00X221.074Y-102.196
M15
G01X221.074Y-101.596
M16
G05
G00X221.074Y-106.496
M15
G01X221.074Y-105.696
M16
G05
M30
