M48
; DRILL file {KiCad 8.0.0} date 2024-02-25T15:33:20-0800
; FORMAT={-:-/ absolute / inch / decimal}
; #@! TF.CreationDate,2024-02-25T15:33:20-08:00
; #@! TF.GenerationSoftware,Kicad,Pcbnew,8.0.0
; #@! TF.FileFunction,Plated,1,4,PTH
FMAT,2
INCH
; #@! TA.AperFunction,Plated,PTH,ViaDrill
T1C0.0100
; #@! TA.AperFunction,Plated,PTH,ComponentDrill
T2C0.0197
; #@! TA.AperFunction,Plated,PTH,ComponentDrill
T3C0.0236
; #@! TA.AperFunction,Plated,PTH,ComponentDrill
T4C0.0315
; #@! TA.AperFunction,Plated,PTH,ComponentDrill
T5C0.0472
; #@! TA.AperFunction,Plated,PTH,ComponentDrill
T6C0.0600
; #@! TA.AperFunction,Plated,PTH,ComponentDrill
T7C0.1024
; #@! TA.AperFunction,Plated,PTH,ComponentDrill
T8C0.1260
%
G90
G05
T1
X6.51Y-6.37
X6.5883Y-4.512
X6.6Y-5.512
X6.6Y-6.002
X6.6826Y-5.547
X6.6826Y-6.037
X6.6839Y-5.4742
X6.6839Y-5.9642
X6.6876Y-4.547
X6.6889Y-4.4742
X6.6934Y-4.21
X6.705Y-4.86
X6.74Y-4.855
X6.775Y-5.51
X6.775Y-6.0
X6.78Y-5.105
X6.79Y-4.51
X6.815Y-5.09
X6.815Y-5.12
X6.815Y-5.38
X6.885Y-5.265
X6.895Y-4.16
X6.895Y-4.6607
X6.92Y-4.75
X6.92Y-4.19
X6.9625Y-4.66
X6.98Y-5.78
X6.98Y-5.97
X6.983Y-4.2776
X7.02Y-4.2
X7.02Y-4.37
X7.0283Y-6.488
X7.0558Y-4.2789
X7.06Y-6.4
X7.06Y-6.56
X7.0754Y-5.3857
X7.0764Y-5.4297
X7.097Y-6.4874
X7.1075Y-6.2555
X7.118Y-6.3305
X7.1328Y-5.4173
X7.1333Y-5.385
X7.1428Y-5.5473
X7.145Y-5.595
X7.15Y-5.51
X7.155Y-5.74
X7.155Y-6.065
X7.1836Y-5.709
X7.19Y-5.305
X7.2046Y-5.1533
X7.205Y-5.185
X7.2054Y-5.47
X7.215Y-5.29
X7.2536Y-4.2359
X7.2612Y-4.4822
X7.2942Y-6.13
X7.295Y-4.47
X7.295Y-5.455
X7.295Y-5.5
X7.3104Y-5.2436
X7.314Y-4.4381
X7.3144Y-5.5218
X7.3389Y-5.9465
X7.339Y-5.8668
X7.345Y-5.68
X7.345Y-5.765
X7.35Y-4.435
X7.3573Y-5.9698
X7.36Y-5.64
X7.37Y-5.87
X7.39Y-5.735
X7.395Y-4.405
X7.4083Y-5.515
X7.415Y-6.115
X7.4192Y-5.4482
X7.4197Y-5.4186
X7.4246Y-5.1693
X7.4292Y-6.4811
X7.43Y-4.395
X7.4307Y-5.589
X7.4319Y-5.5569
X7.445Y-5.185
X7.445Y-5.73
X7.4552Y-5.2837
X7.4555Y-5.64
X7.465Y-6.38
X7.465Y-6.58
X7.4972Y-5.2871
X7.502Y-6.4824
X7.505Y-6.265
X7.5149Y-5.3101
X7.5223Y-6.1449
X7.53Y-5.625
X7.548Y-4.2776
X7.555Y-5.03
X7.5728Y-5.3051
X7.583Y-4.1783
X7.585Y-4.38
X7.59Y-5.595
X7.6008Y-5.1758
X7.6025Y-5.3036
X7.6208Y-4.2789
X7.625Y-6.115
X7.65Y-5.465
X7.66Y-5.2977
X7.6604Y-5.3277
X7.6825Y-4.4199
X7.695Y-5.17
X7.7Y-5.125
X7.7Y-5.49
X7.702Y-5.5972
X7.7022Y-5.5192
X7.705Y-5.3
X7.705Y-5.33
X7.7106Y-4.4201
X7.7159Y-4.74
X7.7253Y-6.264
X7.7308Y-5.6173
X7.731Y-5.116
X7.735Y-5.44
X7.74Y-4.67
X7.7454Y-4.2776
X7.7496Y-6.135
X7.755Y-5.645
X7.7804Y-4.1783
X7.7824Y-4.38
X7.7846Y-5.2302
X7.8182Y-4.2789
X7.8342Y-5.6547
X7.8342Y-5.7197
X7.8369Y-4.4115
X7.8437Y-4.6733
X7.855Y-5.115
X7.86Y-5.075
X7.865Y-6.115
X7.8665Y-4.4099
X7.875Y-5.05
X7.8764Y-5.4135
X7.8784Y-5.2307
X7.88Y-5.53
X7.9Y-5.565
X7.905Y-5.72
X7.915Y-4.615
X7.915Y-4.84
X7.93Y-5.745
X7.9306Y-5.5691
X7.96Y-6.265
X7.97Y-5.5702
X7.985Y-6.13
X7.99Y-5.34
X7.9977Y-5.4284
X8.0048Y-5.6933
X8.005Y-5.62
X8.0063Y-5.4774
X8.01Y-6.445
X8.02Y-5.845
X8.0275Y-5.2985
X8.03Y-4.39
X8.03Y-6.465
X8.0325Y-5.5561
X8.05Y-4.975
X8.065Y-5.0
X8.075Y-4.76
X8.085Y-6.115
X8.0988Y-4.5468
X8.1Y-5.175
X8.1Y-5.21
X8.1045Y-4.7737
X8.13Y-5.175
X8.1345Y-5.6511
X8.1365Y-5.4853
X8.14Y-5.975
X8.1414Y-5.6803
X8.145Y-6.085
X8.15Y-5.415
X8.1516Y-5.6283
X8.155Y-6.295
X8.1561Y-5.5986
X8.16Y-5.175
X8.1621Y-5.7779
X8.1635Y-4.507
X8.165Y-5.345
X8.165Y-5.5
X8.165Y-5.47
X8.1739Y-5.8646
X8.19Y-5.175
X8.19Y-5.21
X8.195Y-4.87
X8.2Y-4.815
X8.2023Y-4.5477
X8.22Y-5.175
X8.235Y-5.89
X8.235Y-4.375
X8.235Y-4.406
X8.2356Y-4.4436
X8.2363Y-4.4734
X8.25Y-5.175
X8.255Y-5.945
X8.26Y-5.875
X8.2624Y-5.6055
X8.2643Y-5.506
X8.265Y-5.575
X8.2657Y-5.7335
X8.275Y-4.375
X8.275Y-4.545
X8.28Y-5.175
X8.28Y-5.44
X8.295Y-4.22
X8.3Y-5.51
X8.3Y-5.6425
X8.3Y-5.675
X8.305Y-4.545
X8.3057Y-5.7025
X8.31Y-4.385
X8.31Y-4.745
X8.31Y-5.175
X8.33Y-5.755
X8.3307Y-5.7094
X8.3325Y-5.475
X8.335Y-5.825
X8.34Y-5.175
X8.34Y-5.885
X8.35Y-4.295
X8.35Y-5.435
X8.36Y-4.325
X8.365Y-5.475
X8.37Y-5.175
X8.385Y-4.24
X8.385Y-5.395
X8.39Y-5.135
X8.395Y-5.74
X8.3975Y-5.475
X8.4Y-5.175
X8.4Y-5.315
X8.4Y-5.675
X8.4019Y-6.6718
X8.42Y-5.135
X8.42Y-5.335
X8.42Y-5.43
X8.42Y-6.02
X8.43Y-5.175
X8.43Y-5.475
X8.435Y-5.84
X8.44Y-5.355
X8.445Y-6.02
X8.45Y-4.38
X8.45Y-5.135
X8.4505Y-4.5195
X8.4598Y-5.6256
X8.46Y-5.175
X8.46Y-5.375
X8.4602Y-5.5262
X8.4616Y-5.7233
X8.47Y-6.02
X8.49Y-5.175
X8.495Y-6.02
X8.5Y-4.255
X8.505Y-6.6734
X8.52Y-4.35
X8.52Y-5.175
X8.52Y-6.02
X8.535Y-4.26
X8.5438Y-4.4925
X8.545Y-6.02
X8.55Y-5.175
X8.55Y-5.205
X8.55Y-5.235
X8.555Y-5.905
X8.565Y-5.94
X8.5689Y-5.8608
X8.5734Y-4.2912
X8.5745Y-5.8321
X8.58Y-5.785
X8.585Y-5.185
X8.59Y-5.91
X8.595Y-4.465
X8.6Y-5.81
X8.62Y-4.465
X8.625Y-4.255
X8.65Y-4.465
X8.6719Y-6.6634
X8.6833Y-5.4267
X8.685Y-4.23
X8.7Y-4.47
X8.7166Y-4.27
X8.7736Y-4.2204
X8.775Y-6.665
X8.79Y-4.4699
X8.9634Y-5.0933
X8.9634Y-5.1183
X8.9634Y-5.1433
X8.9634Y-5.1683
X8.9634Y-5.1933
X8.9634Y-5.2183
X8.9634Y-5.2433
X8.9634Y-5.2683
X8.9634Y-5.2933
X8.985Y-5.66
X8.985Y-5.685
X8.985Y-5.71
X8.985Y-5.735
X8.985Y-5.76
X8.985Y-5.785
X8.985Y-5.81
X8.985Y-5.835
X8.985Y-5.86
X8.9984Y-5.0933
X8.9984Y-5.1183
X8.9984Y-5.1433
X8.9984Y-5.1683
X8.9984Y-5.1933
X8.9984Y-5.2183
X8.9984Y-5.2433
X8.9984Y-5.2683
X8.9984Y-5.2933
X9.02Y-5.66
X9.02Y-5.685
X9.02Y-5.71
X9.02Y-5.735
X9.02Y-5.76
X9.02Y-5.785
X9.02Y-5.81
X9.02Y-5.835
X9.02Y-5.86
X9.2585Y-5.36
X9.2624Y-5.33
X9.2822Y-5.949
X9.2902Y-5.9122
X9.315Y-6.26
X9.315Y-6.285
X9.315Y-6.31
X9.315Y-6.335
X9.315Y-6.36
X9.315Y-6.385
X9.315Y-6.41
X9.315Y-6.435
X9.315Y-6.46
X9.35Y-6.26
X9.35Y-6.285
X9.35Y-6.31
X9.35Y-6.335
X9.35Y-6.36
X9.35Y-6.385
X9.35Y-6.41
X9.35Y-6.435
X9.35Y-6.46
X9.3784Y-4.8633
X9.3784Y-4.8883
X9.3784Y-4.9133
X9.3784Y-4.9383
X9.3784Y-4.9633
X9.3784Y-4.9883
X9.3784Y-5.0133
X9.3784Y-5.4583
X9.3784Y-5.4833
X9.3784Y-5.5083
X9.3784Y-5.5333
X9.3784Y-5.5583
X9.3784Y-5.5833
X9.3784Y-5.6083
X9.3812Y-6.0464
X9.3812Y-6.0714
X9.3812Y-6.0964
X9.3812Y-6.1214
X9.3812Y-6.1464
X9.3812Y-6.1714
X9.3812Y-6.1964
X9.4134Y-4.8633
X9.4134Y-4.8883
X9.4134Y-4.9133
X9.4134Y-4.9383
X9.4134Y-4.9633
X9.4134Y-4.9883
X9.4134Y-5.0133
X9.4134Y-5.4583
X9.4134Y-5.4833
X9.4134Y-5.5083
X9.4134Y-5.5333
X9.4134Y-5.5583
X9.4134Y-5.5833
X9.4134Y-5.6083
X9.4162Y-6.0464
X9.4162Y-6.0714
X9.4162Y-6.0964
X9.4162Y-6.1214
X9.4162Y-6.1464
X9.4162Y-6.1714
X9.4162Y-6.1964
X9.4484Y-4.8633
X9.4484Y-4.8883
X9.4484Y-4.9133
X9.4484Y-4.9383
X9.4484Y-4.9633
X9.4484Y-4.9883
X9.4484Y-5.0133
X9.4484Y-5.4583
X9.4484Y-5.4833
X9.4484Y-5.5083
X9.4484Y-5.5333
X9.4484Y-5.5583
X9.4484Y-5.5833
X9.4484Y-5.6083
X9.4512Y-6.0464
X9.4512Y-6.0714
X9.4512Y-6.0964
X9.4512Y-6.1214
X9.4512Y-6.1464
X9.4512Y-6.1714
X9.4512Y-6.1964
X9.4834Y-4.8633
X9.4834Y-4.8883
X9.4834Y-4.9133
X9.4834Y-4.9383
X9.4834Y-4.9633
X9.4834Y-4.9883
X9.4834Y-5.0133
X9.4834Y-5.4583
X9.4834Y-5.4833
X9.4834Y-5.5083
X9.4834Y-5.5333
X9.4834Y-5.5583
X9.4834Y-5.5833
X9.4834Y-5.6083
X9.4862Y-6.0464
X9.4862Y-6.0714
X9.4862Y-6.0964
X9.4862Y-6.1214
X9.4862Y-6.1464
X9.4862Y-6.1714
X9.4862Y-6.1964
X9.5834Y-4.8583
X9.5834Y-4.9083
X9.5834Y-4.9633
X9.5834Y-5.0183
X9.5834Y-5.4583
X9.5834Y-5.5083
X9.5834Y-5.5633
X9.5834Y-5.6183
X9.5834Y-6.0433
X9.5834Y-6.0933
X9.5834Y-6.1483
X9.5834Y-6.2033
X9.6093Y-5.91
X9.6234Y-5.0783
X9.6234Y-5.1283
X9.6234Y-5.1833
X9.6234Y-5.2383
X9.6284Y-5.6633
X9.6284Y-5.7133
X9.6284Y-5.7683
X9.6284Y-5.8233
X9.6284Y-6.2533
X9.6284Y-6.3033
X9.6284Y-6.3583
X9.6284Y-6.4133
X9.6337Y-5.3304
X9.6384Y-4.8583
X9.6384Y-4.9083
X9.6384Y-4.9633
X9.6384Y-5.4583
X9.6384Y-5.5083
X9.6384Y-5.5633
X9.6384Y-6.0433
X9.6384Y-6.0933
X9.6384Y-6.1483
X9.6434Y-5.0183
X9.6434Y-5.6183
X9.6434Y-6.2033
X9.6784Y-5.0783
X9.6784Y-5.1283
X9.6784Y-5.1833
X9.6834Y-5.2383
X9.6834Y-5.6633
X9.6834Y-5.7133
X9.6834Y-5.7683
X9.6834Y-6.2533
X9.6834Y-6.3033
X9.6834Y-6.3583
X9.6884Y-5.8233
X9.6884Y-6.4133
X9.6947Y-6.4734
X9.6984Y-4.8583
X9.6984Y-4.9083
X9.6984Y-4.9633
X9.6984Y-5.0183
X9.6984Y-5.4583
X9.6984Y-5.5083
X9.6984Y-5.5633
X9.6984Y-5.6183
X9.6984Y-6.0433
X9.6984Y-6.0933
X9.6984Y-6.1483
X9.6984Y-6.2033
X9.7384Y-5.0783
X9.7384Y-5.1283
X9.7384Y-5.1833
X9.7384Y-5.2383
X9.7386Y-4.68
X9.7434Y-5.6633
X9.7434Y-5.7133
X9.7434Y-5.7683
X9.7434Y-5.8233
X9.7434Y-6.2533
X9.7434Y-6.3033
X9.7434Y-6.3583
X9.7434Y-6.4133
X9.7531Y-6.674
X9.7776Y-4.6306
X9.7776Y-4.7293
X9.825Y-4.6286
X9.825Y-4.7272
X9.855Y-4.975
X9.855Y-5.03
X9.855Y-5.085
X9.855Y-5.135
X9.855Y-5.58
X9.855Y-5.635
X9.855Y-5.69
X9.855Y-5.74
X9.86Y-6.175
X9.86Y-6.23
X9.86Y-6.285
X9.86Y-6.335
X9.875Y-4.68
X9.9042Y-4.975
X9.9042Y-5.03
X9.9042Y-5.085
X9.9042Y-5.135
X9.9042Y-5.58
X9.9042Y-5.635
X9.9042Y-5.69
X9.9042Y-5.74
X9.9092Y-6.175
X9.9092Y-6.23
X9.9092Y-6.285
X9.9092Y-6.335
X9.9533Y-4.975
X9.9533Y-5.03
X9.9533Y-5.085
X9.9533Y-5.135
X9.9533Y-5.58
X9.9533Y-5.635
X9.9533Y-5.69
X9.9533Y-5.74
X9.9583Y-6.175
X9.9583Y-6.23
X9.9583Y-6.285
X9.9583Y-6.335
X10.0025Y-4.975
X10.0025Y-5.03
X10.0025Y-5.085
X10.0025Y-5.135
X10.0025Y-5.58
X10.0025Y-5.635
X10.0025Y-5.69
X10.0025Y-5.74
X10.0075Y-6.175
X10.0075Y-6.23
X10.0075Y-6.285
X10.0075Y-6.335
X10.0517Y-4.975
X10.0517Y-5.03
X10.0517Y-5.085
X10.0517Y-5.135
X10.0517Y-5.58
X10.0517Y-5.635
X10.0517Y-5.69
X10.0517Y-5.74
X10.0567Y-6.175
X10.0567Y-6.23
X10.0567Y-6.285
X10.0567Y-6.335
X10.085Y-4.545
X10.09Y-4.3471
X10.1008Y-4.975
X10.1008Y-5.03
X10.1008Y-5.085
X10.1008Y-5.135
X10.1008Y-5.58
X10.1008Y-5.635
X10.1008Y-5.69
X10.1008Y-5.74
X10.1058Y-6.175
X10.1058Y-6.23
X10.1058Y-6.285
X10.1058Y-6.335
X10.15Y-4.975
X10.15Y-5.03
X10.15Y-5.085
X10.15Y-5.135
X10.15Y-5.58
X10.15Y-5.635
X10.15Y-5.69
X10.15Y-5.74
X10.155Y-6.175
X10.155Y-6.23
X10.155Y-6.285
X10.155Y-6.335
T2
X6.4157Y-4.1024
X6.4157Y-6.6614
X6.4434Y-4.0355
X6.4434Y-4.1692
X6.4434Y-6.5946
X6.4434Y-6.7282
X6.5102Y-4.0079
X6.5102Y-4.1969
X6.5102Y-6.5669
X6.5102Y-6.7559
X6.577Y-4.0355
X6.577Y-4.1692
X6.577Y-6.5946
X6.577Y-6.7282
X6.6047Y-4.1024
X6.6047Y-6.6614
X9.9591Y-4.1024
X9.9591Y-6.6614
X9.9867Y-4.0355
X9.9867Y-4.1692
X9.9867Y-6.5946
X9.9867Y-6.7282
X10.0535Y-4.0079
X10.0535Y-4.1969
X10.0535Y-6.5669
X10.0535Y-6.7559
X10.1204Y-4.0355
X10.1204Y-4.1692
X10.1204Y-6.5946
X10.1204Y-6.7282
X10.148Y-4.1024
X10.148Y-6.6614
T5
X8.9828Y-6.1245
X9.0178Y-5.5205
X9.1878Y-4.6945
X9.2781Y-6.1245
X9.3131Y-5.5205
X9.4831Y-4.6945
T6
X9.8634Y-4.9083
X9.8634Y-5.2083
X9.8634Y-5.5083
X9.8634Y-5.8083
X9.8634Y-6.1083
X9.8634Y-6.4083
X9.9634Y-4.9083
X9.9634Y-5.2083
X9.9634Y-5.5083
X9.9634Y-5.8083
X9.9634Y-6.1083
X9.9634Y-6.4083
X10.0634Y-4.9083
X10.0634Y-5.2083
X10.0634Y-5.5083
X10.0634Y-5.8083
X10.0634Y-6.1083
X10.0634Y-6.4083
X10.1634Y-4.9083
X10.1634Y-5.2083
X10.1634Y-5.5083
X10.1634Y-5.8083
X10.1634Y-6.1083
X10.1634Y-6.4083
T7
X9.2717Y-4.5378
X9.5551Y-4.5378
T8
X6.5102Y-4.1024
X6.5102Y-6.6614
X10.0535Y-4.1024
X10.0535Y-6.6614
T3
G00X9.1476Y-4.2819
M15
G01X9.1476Y-4.3213
M16
G05
G00X9.6791Y-4.2819
M15
G01X9.6791Y-4.3213
M16
G05
T4
G00X8.3631Y-4.0235
M15
G01X8.3631Y-3.9998
M16
G05
G00X8.3631Y-4.1927
M15
G01X8.3631Y-4.1613
M16
G05
G00X8.7037Y-4.0235
M15
G01X8.7037Y-3.9998
M16
G05
G00X8.7037Y-4.1927
M15
G01X8.7037Y-4.1612
M16
G05
M30
