%TF.GenerationSoftware,KiCad,Pcbnew,8.0.0*%
%TF.CreationDate,2024-02-25T15:33:39-08:00*%
%TF.ProjectId,BLDC_Motor Controller,424c4443-5f4d-46f7-946f-7220436f6e74,rev01_1*%
%TF.SameCoordinates,Original*%
%TF.FileFunction,Drillmap*%
%TF.FilePolarity,Positive*%
%FSLAX45Y45*%
G04 Gerber Fmt 4.5, Leading zero omitted, Abs format (unit mm)*
G04 Created by KiCad (PCBNEW 8.0.0) date 2024-02-25 15:33:39*
%MOMM*%
%LPD*%
G01*
G04 APERTURE LIST*
%ADD10C,0.050000*%
%ADD11C,0.200000*%
%ADD12C,0.100000*%
%ADD13C,0.120000*%
%ADD14C,0.152500*%
%ADD15C,0.260000*%
%ADD16C,0.320000*%
G04 APERTURE END LIST*
D10*
X25536000Y-17420000D02*
X16536000Y-17420000D01*
X25536000Y-9920000D02*
G75*
G02*
X26036000Y-10420000I0J-500000D01*
G01*
X16036000Y-16920000D02*
X16036000Y-10420000D01*
X16036000Y-10420000D02*
G75*
G02*
X16536000Y-9920000I500000J0D01*
G01*
X26036000Y-16920000D02*
G75*
G02*
X25536000Y-17420000I-500000J0D01*
G01*
X26036000Y-10420000D02*
X26036000Y-16920000D01*
X16536000Y-17420000D02*
G75*
G02*
X16036000Y-16920000I0J500000D01*
G01*
X16536000Y-9920000D02*
X25536000Y-9920000D01*
D11*
D12*
X16522700Y-16167100D02*
X16548100Y-16192500D01*
X16548100Y-16167100D02*
X16522700Y-16192500D01*
X16721618Y-11447845D02*
X16747018Y-11473245D01*
X16747018Y-11447845D02*
X16721618Y-11473245D01*
X16751300Y-13987845D02*
X16776700Y-14013245D01*
X16776700Y-13987845D02*
X16751300Y-14013245D01*
X16751300Y-15232445D02*
X16776700Y-15257845D01*
X16776700Y-15232445D02*
X16751300Y-15257845D01*
X16961046Y-14076662D02*
X16986446Y-14102062D01*
X16986446Y-14076662D02*
X16961046Y-14102062D01*
X16961046Y-15321262D02*
X16986446Y-15346662D01*
X16986446Y-15321262D02*
X16961046Y-15346662D01*
X16964365Y-13891648D02*
X16989765Y-13917048D01*
X16989765Y-13891648D02*
X16964365Y-13917048D01*
X16964365Y-15136248D02*
X16989765Y-15161648D01*
X16989765Y-15136248D02*
X16964365Y-15161648D01*
X16973746Y-11536662D02*
X16999146Y-11562062D01*
X16999146Y-11536662D02*
X16973746Y-11562062D01*
X16977065Y-11351648D02*
X17002465Y-11377048D01*
X17002465Y-11351648D02*
X16977065Y-11377048D01*
X16988500Y-10680700D02*
X17013900Y-10706100D01*
X17013900Y-10680700D02*
X16988500Y-10706100D01*
X17018000Y-12331700D02*
X17043400Y-12357100D01*
X17043400Y-12331700D02*
X17018000Y-12357100D01*
X17106900Y-12319000D02*
X17132300Y-12344400D01*
X17132300Y-12319000D02*
X17106900Y-12344400D01*
X17195800Y-13982700D02*
X17221200Y-14008100D01*
X17221200Y-13982700D02*
X17195800Y-14008100D01*
X17195800Y-15227300D02*
X17221200Y-15252700D01*
X17221200Y-15227300D02*
X17195800Y-15252700D01*
X17208500Y-12954000D02*
X17233900Y-12979400D01*
X17233900Y-12954000D02*
X17208500Y-12979400D01*
X17233900Y-11442700D02*
X17259300Y-11468100D01*
X17259300Y-11442700D02*
X17233900Y-11468100D01*
X17297400Y-12915900D02*
X17322800Y-12941300D01*
X17322800Y-12915900D02*
X17297400Y-12941300D01*
X17297400Y-12992100D02*
X17322800Y-13017500D01*
X17322800Y-12992100D02*
X17297400Y-13017500D01*
X17297400Y-13652500D02*
X17322800Y-13677900D01*
X17322800Y-13652500D02*
X17297400Y-13677900D01*
X17475200Y-13360400D02*
X17500600Y-13385800D01*
X17500600Y-13360400D02*
X17475200Y-13385800D01*
X17500600Y-10553700D02*
X17526000Y-10579100D01*
X17526000Y-10553700D02*
X17500600Y-10579100D01*
X17500600Y-11825368D02*
X17526000Y-11850768D01*
X17526000Y-11825368D02*
X17500600Y-11850768D01*
X17564100Y-12052300D02*
X17589500Y-12077700D01*
X17589500Y-12052300D02*
X17564100Y-12077700D01*
X17564100Y-10629900D02*
X17589500Y-10655300D01*
X17589500Y-10629900D02*
X17564100Y-10655300D01*
X17671963Y-11823700D02*
X17697363Y-11849100D01*
X17697363Y-11823700D02*
X17671963Y-11849100D01*
X17716500Y-14668500D02*
X17741900Y-14693900D01*
X17741900Y-14668500D02*
X17716500Y-14693900D01*
X17716500Y-15151100D02*
X17741900Y-15176500D01*
X17741900Y-15151100D02*
X17716500Y-15176500D01*
X17724138Y-10852346D02*
X17749538Y-10877746D01*
X17749538Y-10852346D02*
X17724138Y-10877746D01*
X17818100Y-10655300D02*
X17843500Y-10680700D01*
X17843500Y-10655300D02*
X17818100Y-10680700D01*
X17818100Y-11087100D02*
X17843500Y-11112500D01*
X17843500Y-11087100D02*
X17818100Y-11112500D01*
X17839154Y-16466716D02*
X17864554Y-16492116D01*
X17864554Y-16466716D02*
X17839154Y-16492116D01*
X17909152Y-10855665D02*
X17934552Y-10881065D01*
X17934552Y-10855665D02*
X17909152Y-10881065D01*
X17919700Y-16243300D02*
X17945100Y-16268700D01*
X17945100Y-16243300D02*
X17919700Y-16268700D01*
X17919700Y-16649700D02*
X17945100Y-16675100D01*
X17945100Y-16649700D02*
X17919700Y-16675100D01*
X17958770Y-13666976D02*
X17984170Y-13692376D01*
X17984170Y-13666976D02*
X17958770Y-13692376D01*
X17961357Y-13778807D02*
X17986757Y-13804207D01*
X17986757Y-13778807D02*
X17961357Y-13804207D01*
X18013662Y-16465354D02*
X18039062Y-16490754D01*
X18039062Y-16465354D02*
X18013662Y-16490754D01*
X18040336Y-15876384D02*
X18065736Y-15901784D01*
X18065736Y-15876384D02*
X18040336Y-15901784D01*
X18067082Y-16066692D02*
X18092482Y-16092092D01*
X18092482Y-16066692D02*
X18067082Y-16092092D01*
X18104536Y-13747218D02*
X18129936Y-13772618D01*
X18129936Y-13747218D02*
X18104536Y-13772618D01*
X18105950Y-13665200D02*
X18131350Y-13690600D01*
X18131350Y-13665200D02*
X18105950Y-13690600D01*
X18130116Y-14077325D02*
X18155516Y-14102725D01*
X18155516Y-14077325D02*
X18130116Y-14102725D01*
X18135600Y-14198600D02*
X18161000Y-14224000D01*
X18161000Y-14198600D02*
X18135600Y-14224000D01*
X18148300Y-13982700D02*
X18173700Y-14008100D01*
X18173700Y-13982700D02*
X18148300Y-14008100D01*
X18161000Y-14566900D02*
X18186400Y-14592300D01*
X18186400Y-14566900D02*
X18161000Y-14592300D01*
X18161000Y-15392400D02*
X18186400Y-15417800D01*
X18186400Y-15392400D02*
X18161000Y-15417800D01*
X18233653Y-14488172D02*
X18259053Y-14513572D01*
X18259053Y-14488172D02*
X18233653Y-14513572D01*
X18249900Y-13462000D02*
X18275300Y-13487400D01*
X18275300Y-13462000D02*
X18249900Y-13487400D01*
X18286910Y-13076602D02*
X18312310Y-13102002D01*
X18312310Y-13076602D02*
X18286910Y-13102002D01*
X18288000Y-13157200D02*
X18313400Y-13182600D01*
X18313400Y-13157200D02*
X18288000Y-13182600D01*
X18289056Y-13881024D02*
X18314456Y-13906424D01*
X18314456Y-13881024D02*
X18289056Y-13906424D01*
X18313400Y-13423900D02*
X18338800Y-13449300D01*
X18338800Y-13423900D02*
X18313400Y-13449300D01*
X18411532Y-10746502D02*
X18436932Y-10771902D01*
X18436932Y-10746502D02*
X18411532Y-10771902D01*
X18430836Y-11372149D02*
X18456236Y-11397549D01*
X18456236Y-11372149D02*
X18430836Y-11397549D01*
X18514481Y-15557500D02*
X18539881Y-15582900D01*
X18539881Y-15557500D02*
X18514481Y-15582900D01*
X18516600Y-11341100D02*
X18542000Y-11366500D01*
X18542000Y-11341100D02*
X18516600Y-11366500D01*
X18516600Y-13843000D02*
X18542000Y-13868400D01*
X18542000Y-13843000D02*
X18516600Y-13868400D01*
X18516600Y-13957300D02*
X18542000Y-13982700D01*
X18542000Y-13957300D02*
X18516600Y-13982700D01*
X18555840Y-13305948D02*
X18581240Y-13331348D01*
X18581240Y-13305948D02*
X18555840Y-13331348D01*
X18564903Y-11260035D02*
X18590303Y-11285435D01*
X18590303Y-11260035D02*
X18564903Y-11285435D01*
X18565788Y-14012628D02*
X18591188Y-14038028D01*
X18591188Y-14012628D02*
X18565788Y-14038028D01*
X18628118Y-15091394D02*
X18653518Y-15116794D01*
X18653518Y-15091394D02*
X18628118Y-15116794D01*
X18628306Y-14888868D02*
X18653706Y-14914268D01*
X18653706Y-14888868D02*
X18628306Y-14914268D01*
X18643600Y-14414500D02*
X18669000Y-14439900D01*
X18669000Y-14414500D02*
X18643600Y-14439900D01*
X18643600Y-14630400D02*
X18669000Y-14655800D01*
X18669000Y-14630400D02*
X18643600Y-14655800D01*
X18656300Y-11252200D02*
X18681700Y-11277600D01*
X18681700Y-11252200D02*
X18656300Y-11277600D01*
X18674885Y-15150627D02*
X18700285Y-15176027D01*
X18700285Y-15150627D02*
X18674885Y-15176027D01*
X18681600Y-14312900D02*
X18707000Y-14338300D01*
X18707000Y-14312900D02*
X18681600Y-14338300D01*
X18707100Y-14897100D02*
X18732500Y-14922500D01*
X18732500Y-14897100D02*
X18707100Y-14922500D01*
X18757900Y-14554200D02*
X18783300Y-14579600D01*
X18783300Y-14554200D02*
X18757900Y-14579600D01*
X18770600Y-11176000D02*
X18796000Y-11201400D01*
X18796000Y-11176000D02*
X18770600Y-11201400D01*
X18804500Y-13995400D02*
X18829900Y-14020800D01*
X18829900Y-13995400D02*
X18804500Y-14020800D01*
X18821400Y-15519400D02*
X18846800Y-15544800D01*
X18846800Y-15519400D02*
X18821400Y-15544800D01*
X18832094Y-13825648D02*
X18857494Y-13851048D01*
X18857494Y-13825648D02*
X18832094Y-13851048D01*
X18833284Y-13750458D02*
X18858684Y-13775858D01*
X18858684Y-13750458D02*
X18833284Y-13775858D01*
X18845830Y-13117324D02*
X18871230Y-13142724D01*
X18871230Y-13117324D02*
X18845830Y-13142724D01*
X18857348Y-16449335D02*
X18882748Y-16474735D01*
X18882748Y-16449335D02*
X18857348Y-16474735D01*
X18859500Y-11150600D02*
X18884900Y-11176000D01*
X18884900Y-11150600D02*
X18859500Y-11176000D01*
X18861175Y-14183288D02*
X18886575Y-14208688D01*
X18886575Y-14183288D02*
X18861175Y-14208688D01*
X18864392Y-14101892D02*
X18889792Y-14127292D01*
X18889792Y-14101892D02*
X18864392Y-14127292D01*
X18897600Y-13157200D02*
X18923000Y-13182600D01*
X18923000Y-13157200D02*
X18897600Y-13182600D01*
X18897600Y-14541500D02*
X18923000Y-14566900D01*
X18923000Y-14541500D02*
X18897600Y-14566900D01*
X18923571Y-13408009D02*
X18948971Y-13433409D01*
X18948971Y-13408009D02*
X18923571Y-13433409D01*
X18924205Y-14312900D02*
X18949605Y-14338300D01*
X18949605Y-14312900D02*
X18924205Y-14338300D01*
X18948400Y-16192500D02*
X18973800Y-16217900D01*
X18973800Y-16192500D02*
X18948400Y-16217900D01*
X18948400Y-16700500D02*
X18973800Y-16725900D01*
X18973800Y-16700500D02*
X18948400Y-16725900D01*
X19030127Y-13416609D02*
X19055527Y-13442009D01*
X19055527Y-13416609D02*
X19030127Y-13442009D01*
X19042362Y-16452654D02*
X19067762Y-16478054D01*
X19067762Y-16452654D02*
X19042362Y-16478054D01*
X19050000Y-15900400D02*
X19075400Y-15925800D01*
X19075400Y-15900400D02*
X19050000Y-15925800D01*
X19075197Y-13474974D02*
X19100597Y-13500374D01*
X19100597Y-13474974D02*
X19075197Y-13500374D01*
X19093972Y-15595291D02*
X19119372Y-15620691D01*
X19119372Y-15595291D02*
X19093972Y-15620691D01*
X19113500Y-14274800D02*
X19138900Y-14300200D01*
X19138900Y-14274800D02*
X19113500Y-14300200D01*
X19159238Y-10852346D02*
X19184638Y-10877746D01*
X19184638Y-10852346D02*
X19159238Y-10877746D01*
X19177000Y-12763500D02*
X19202400Y-12788900D01*
X19202400Y-12763500D02*
X19177000Y-12788900D01*
X19222136Y-13462287D02*
X19247536Y-13487687D01*
X19247536Y-13462287D02*
X19222136Y-13487687D01*
X19248055Y-10600218D02*
X19273455Y-10625618D01*
X19273455Y-10600218D02*
X19248055Y-10625618D01*
X19253200Y-11112500D02*
X19278600Y-11137900D01*
X19278600Y-11112500D02*
X19253200Y-11137900D01*
X19265900Y-14198600D02*
X19291300Y-14224000D01*
X19291300Y-14198600D02*
X19265900Y-14224000D01*
X19293216Y-13133716D02*
X19318616Y-13159116D01*
X19318616Y-13133716D02*
X19293216Y-13159116D01*
X19297606Y-13458428D02*
X19323006Y-13483828D01*
X19323006Y-13458428D02*
X19297606Y-13483828D01*
X19344252Y-10855665D02*
X19369652Y-10881065D01*
X19369652Y-10855665D02*
X19344252Y-10881065D01*
X19354800Y-15519400D02*
X19380200Y-15544800D01*
X19380200Y-15519400D02*
X19354800Y-15544800D01*
X19418300Y-13868400D02*
X19443700Y-13893800D01*
X19443700Y-13868400D02*
X19418300Y-13893800D01*
X19443620Y-13443464D02*
X19469020Y-13468864D01*
X19469020Y-13443464D02*
X19443620Y-13468864D01*
X19444670Y-13519657D02*
X19470070Y-13545057D01*
X19470070Y-13519657D02*
X19444670Y-13545057D01*
X19500819Y-11213896D02*
X19526219Y-11239296D01*
X19526219Y-11213896D02*
X19500819Y-11239296D01*
X19532600Y-13119100D02*
X19558000Y-13144500D01*
X19558000Y-13119100D02*
X19532600Y-13144500D01*
X19545300Y-13004800D02*
X19570700Y-13030200D01*
X19570700Y-13004800D02*
X19545300Y-13030200D01*
X19545300Y-13931900D02*
X19570700Y-13957300D01*
X19570700Y-13931900D02*
X19545300Y-13957300D01*
X19550328Y-14204189D02*
X19575728Y-14229589D01*
X19575728Y-14204189D02*
X19550328Y-14229589D01*
X19550791Y-14006115D02*
X19576191Y-14031515D01*
X19576191Y-14006115D02*
X19550791Y-14031515D01*
X19558000Y-13449300D02*
X19583400Y-13474700D01*
X19583400Y-13449300D02*
X19558000Y-13474700D01*
X19558000Y-13525500D02*
X19583400Y-13550900D01*
X19583400Y-13525500D02*
X19558000Y-13550900D01*
X19572205Y-11214423D02*
X19597605Y-11239823D01*
X19597605Y-11214423D02*
X19572205Y-11239823D01*
X19585750Y-12026900D02*
X19611150Y-12052300D01*
X19611150Y-12026900D02*
X19585750Y-12052300D01*
X19609471Y-15897920D02*
X19634871Y-15923320D01*
X19634871Y-15897920D02*
X19609471Y-15923320D01*
X19623600Y-14255241D02*
X19649000Y-14280641D01*
X19649000Y-14255241D02*
X19623600Y-14280641D01*
X19624100Y-12982000D02*
X19649500Y-13007400D01*
X19649500Y-12982000D02*
X19624100Y-13007400D01*
X19634200Y-13804900D02*
X19659600Y-13830300D01*
X19659600Y-13804900D02*
X19634200Y-13830300D01*
X19646900Y-11849100D02*
X19672300Y-11874500D01*
X19672300Y-11849100D02*
X19646900Y-11874500D01*
X19660637Y-10852346D02*
X19686037Y-10877746D01*
X19686037Y-10852346D02*
X19660637Y-10877746D01*
X19671378Y-15570200D02*
X19696778Y-15595600D01*
X19696778Y-15570200D02*
X19671378Y-15595600D01*
X19685000Y-14325600D02*
X19710400Y-14351000D01*
X19710400Y-14325600D02*
X19685000Y-14351000D01*
X19749455Y-10600218D02*
X19774855Y-10625618D01*
X19774855Y-10600218D02*
X19749455Y-10625618D01*
X19754600Y-11112500D02*
X19780000Y-11137900D01*
X19780000Y-11112500D02*
X19754600Y-11137900D01*
X19760248Y-13272005D02*
X19785648Y-13297405D01*
X19785648Y-13272005D02*
X19760248Y-13297405D01*
X19845652Y-10855665D02*
X19871052Y-10881065D01*
X19871052Y-10855665D02*
X19845652Y-10881065D01*
X19886093Y-14350157D02*
X19911493Y-14375557D01*
X19911493Y-14350157D02*
X19886093Y-14375557D01*
X19886093Y-14515257D02*
X19911493Y-14540657D01*
X19911493Y-14515257D02*
X19886093Y-14540657D01*
X19893004Y-11192457D02*
X19918404Y-11217857D01*
X19918404Y-11192457D02*
X19893004Y-11217857D01*
X19910251Y-11857474D02*
X19935651Y-11882874D01*
X19935651Y-11857474D02*
X19910251Y-11882874D01*
X19939000Y-12979400D02*
X19964400Y-13004800D01*
X19964400Y-12979400D02*
X19939000Y-13004800D01*
X19951700Y-12877700D02*
X19977100Y-12903100D01*
X19977100Y-12877700D02*
X19951700Y-12903100D01*
X19964400Y-15519400D02*
X19989800Y-15544800D01*
X19989800Y-15519400D02*
X19964400Y-15544800D01*
X19968141Y-11188387D02*
X19993541Y-11213787D01*
X19993541Y-11188387D02*
X19968141Y-11213787D01*
X19989800Y-12814299D02*
X20015200Y-12839699D01*
X20015200Y-12814299D02*
X19989800Y-12839699D01*
X19993238Y-13737660D02*
X20018638Y-13763060D01*
X20018638Y-13737660D02*
X19993238Y-13763060D01*
X19998390Y-13273229D02*
X20023790Y-13298629D01*
X20023790Y-13273229D02*
X19998390Y-13298629D01*
X20002500Y-14033500D02*
X20027900Y-14058900D01*
X20027900Y-14033500D02*
X20002500Y-14058900D01*
X20053300Y-14122400D02*
X20078700Y-14147800D01*
X20078700Y-14122400D02*
X20053300Y-14147800D01*
X20066000Y-14516099D02*
X20091400Y-14541499D01*
X20091400Y-14516099D02*
X20066000Y-14541499D01*
X20091400Y-11709400D02*
X20116800Y-11734800D01*
X20116800Y-11709400D02*
X20091400Y-11734800D01*
X20091400Y-12280900D02*
X20116800Y-12306300D01*
X20116800Y-12280900D02*
X20091400Y-12306300D01*
X20129500Y-14579600D02*
X20154900Y-14605000D01*
X20154900Y-14579600D02*
X20129500Y-14605000D01*
X20130980Y-14132856D02*
X20156380Y-14158256D01*
X20156380Y-14132856D02*
X20130980Y-14158256D01*
X20205700Y-15900400D02*
X20231100Y-15925800D01*
X20231100Y-15900400D02*
X20205700Y-15925800D01*
X20231053Y-14135547D02*
X20256453Y-14160947D01*
X20256453Y-14135547D02*
X20231053Y-14160947D01*
X20269200Y-15557500D02*
X20294600Y-15582900D01*
X20294600Y-15557500D02*
X20269200Y-15582900D01*
X20281900Y-13550900D02*
X20307300Y-13576300D01*
X20307300Y-13550900D02*
X20281900Y-13576300D01*
X20301583Y-13775548D02*
X20326983Y-13800948D01*
X20326983Y-13775548D02*
X20301583Y-13800948D01*
X20319504Y-14448327D02*
X20344904Y-14473727D01*
X20344904Y-14448327D02*
X20319504Y-14473727D01*
X20320000Y-14262100D02*
X20345400Y-14287500D01*
X20345400Y-14262100D02*
X20320000Y-14287500D01*
X20323324Y-13899813D02*
X20348724Y-13925213D01*
X20348724Y-13899813D02*
X20323324Y-13925213D01*
X20332700Y-16357600D02*
X20358100Y-16383000D01*
X20358100Y-16357600D02*
X20332700Y-16383000D01*
X20358100Y-14833600D02*
X20383500Y-14859000D01*
X20383500Y-14833600D02*
X20358100Y-14859000D01*
X20377050Y-13445468D02*
X20402450Y-13470868D01*
X20402450Y-13445468D02*
X20377050Y-13470868D01*
X20383500Y-11137900D02*
X20408900Y-11163300D01*
X20408900Y-11137900D02*
X20383500Y-11163300D01*
X20383500Y-16408400D02*
X20408900Y-16433800D01*
X20408900Y-16408400D02*
X20383500Y-16433800D01*
X20389941Y-14099750D02*
X20415341Y-14125150D01*
X20415341Y-14099750D02*
X20389941Y-14125150D01*
X20434300Y-12623800D02*
X20459700Y-12649200D01*
X20459700Y-12623800D02*
X20434300Y-12649200D01*
X20472400Y-12687300D02*
X20497800Y-12712700D01*
X20497800Y-12687300D02*
X20472400Y-12712700D01*
X20497800Y-12077700D02*
X20523200Y-12103100D01*
X20523200Y-12077700D02*
X20497800Y-12103100D01*
X20523200Y-15519400D02*
X20548600Y-15544800D01*
X20548600Y-15519400D02*
X20523200Y-15544800D01*
X20558303Y-11536089D02*
X20583703Y-11561489D01*
X20583703Y-11536089D02*
X20558303Y-11561489D01*
X20561300Y-13131800D02*
X20586700Y-13157200D01*
X20586700Y-13131800D02*
X20561300Y-13157200D01*
X20561300Y-13220700D02*
X20586700Y-13246100D01*
X20586700Y-13220700D02*
X20561300Y-13246100D01*
X20572700Y-12112500D02*
X20598100Y-12137900D01*
X20598100Y-12112500D02*
X20572700Y-12137900D01*
X20637500Y-13131800D02*
X20662900Y-13157200D01*
X20662900Y-13131800D02*
X20637500Y-13157200D01*
X20648908Y-14341141D02*
X20674308Y-14366541D01*
X20674308Y-14341141D02*
X20648908Y-14366541D01*
X20653885Y-13919976D02*
X20679285Y-13945376D01*
X20679285Y-13919976D02*
X20653885Y-13945376D01*
X20662900Y-15163800D02*
X20688300Y-15189200D01*
X20688300Y-15163800D02*
X20662900Y-15189200D01*
X20666464Y-14415291D02*
X20691864Y-14440691D01*
X20691864Y-14415291D02*
X20666464Y-14440691D01*
X20675600Y-15443200D02*
X20701000Y-15468600D01*
X20701000Y-15443200D02*
X20675600Y-15468600D01*
X20688300Y-13741400D02*
X20713700Y-13766800D01*
X20713700Y-13741400D02*
X20688300Y-13766800D01*
X20692424Y-14283165D02*
X20717824Y-14308565D01*
X20717824Y-14283165D02*
X20692424Y-14308565D01*
X20701000Y-15976600D02*
X20726400Y-16002000D01*
X20726400Y-15976600D02*
X20701000Y-16002000D01*
X20703862Y-14207828D02*
X20729262Y-14233228D01*
X20729262Y-14207828D02*
X20703862Y-14233228D01*
X20713700Y-13131800D02*
X20739100Y-13157200D01*
X20739100Y-13131800D02*
X20713700Y-13157200D01*
X20719159Y-14663132D02*
X20744559Y-14688532D01*
X20744559Y-14663132D02*
X20719159Y-14688532D01*
X20722518Y-11435097D02*
X20747918Y-11460497D01*
X20747918Y-11435097D02*
X20722518Y-11460497D01*
X20726400Y-13563600D02*
X20751800Y-13589000D01*
X20751800Y-13563600D02*
X20726400Y-13589000D01*
X20726400Y-13957300D02*
X20751800Y-13982700D01*
X20751800Y-13957300D02*
X20726400Y-13982700D01*
X20726401Y-13881100D02*
X20751801Y-13906500D01*
X20751801Y-13881100D02*
X20726401Y-13906500D01*
X20748928Y-14883270D02*
X20774328Y-14908670D01*
X20774328Y-14883270D02*
X20748928Y-14908670D01*
X20789900Y-13131800D02*
X20815300Y-13157200D01*
X20815300Y-13131800D02*
X20789900Y-13157200D01*
X20789900Y-13220700D02*
X20815300Y-13246100D01*
X20815300Y-13220700D02*
X20789900Y-13246100D01*
X20802600Y-12357100D02*
X20828000Y-12382500D01*
X20828000Y-12357100D02*
X20802600Y-12382500D01*
X20815300Y-12217400D02*
X20840700Y-12242800D01*
X20840700Y-12217400D02*
X20815300Y-12242800D01*
X20821100Y-11538500D02*
X20846500Y-11563900D01*
X20846500Y-11538500D02*
X20821100Y-11563900D01*
X20866100Y-13131800D02*
X20891500Y-13157200D01*
X20891500Y-13131800D02*
X20866100Y-13157200D01*
X20904200Y-14947900D02*
X20929600Y-14973300D01*
X20929600Y-14947900D02*
X20904200Y-14973300D01*
X20904200Y-11099800D02*
X20929600Y-11125200D01*
X20929600Y-11099800D02*
X20904200Y-11125200D01*
X20904200Y-11178540D02*
X20929600Y-11203940D01*
X20929600Y-11178540D02*
X20904200Y-11203940D01*
X20905836Y-11274134D02*
X20931236Y-11299534D01*
X20931236Y-11274134D02*
X20905836Y-11299534D01*
X20907389Y-11349846D02*
X20932789Y-11375246D01*
X20932789Y-11349846D02*
X20907389Y-11375246D01*
X20942300Y-13131800D02*
X20967700Y-13157200D01*
X20967700Y-13131800D02*
X20942300Y-13157200D01*
X20955000Y-15087600D02*
X20980400Y-15113000D01*
X20980400Y-15087600D02*
X20955000Y-15113000D01*
X20967700Y-14909800D02*
X20993100Y-14935200D01*
X20993100Y-14909800D02*
X20967700Y-14935200D01*
X20973886Y-14225213D02*
X20999286Y-14250613D01*
X20999286Y-14225213D02*
X20973886Y-14250613D01*
X20978706Y-13972572D02*
X21004106Y-13997972D01*
X21004106Y-13972572D02*
X20978706Y-13997972D01*
X20980400Y-14147800D02*
X21005800Y-14173200D01*
X21005800Y-14147800D02*
X20980400Y-14173200D01*
X20982067Y-14550275D02*
X21007467Y-14575675D01*
X21007467Y-14550275D02*
X20982067Y-14575675D01*
X21005800Y-11099800D02*
X21031200Y-11125200D01*
X21031200Y-11099800D02*
X21005800Y-11125200D01*
X21005800Y-11531600D02*
X21031200Y-11557000D01*
X21031200Y-11531600D02*
X21005800Y-11557000D01*
X21018500Y-13131800D02*
X21043900Y-13157200D01*
X21043900Y-13131800D02*
X21018500Y-13157200D01*
X21018500Y-13804900D02*
X21043900Y-13830300D01*
X21043900Y-13804900D02*
X21018500Y-13830300D01*
X21056600Y-10706100D02*
X21082000Y-10731500D01*
X21082000Y-10706100D02*
X21056600Y-10731500D01*
X21069300Y-13982700D02*
X21094700Y-14008100D01*
X21094700Y-13982700D02*
X21069300Y-14008100D01*
X21069300Y-14319250D02*
X21094700Y-14344650D01*
X21094700Y-14319250D02*
X21069300Y-14344650D01*
X21069300Y-14401800D02*
X21094700Y-14427200D01*
X21094700Y-14401800D02*
X21069300Y-14427200D01*
X21082000Y-11531600D02*
X21107400Y-11557000D01*
X21107400Y-11531600D02*
X21082000Y-11557000D01*
X21083669Y-14471656D02*
X21109069Y-14497056D01*
X21109069Y-14471656D02*
X21083669Y-14497056D01*
X21094700Y-11125200D02*
X21120100Y-11150600D01*
X21120100Y-11125200D02*
X21094700Y-11150600D01*
X21094700Y-12039600D02*
X21120100Y-12065000D01*
X21120100Y-12039600D02*
X21094700Y-12065000D01*
X21094700Y-13131800D02*
X21120100Y-13157200D01*
X21120100Y-13131800D02*
X21094700Y-13157200D01*
X21145500Y-14605000D02*
X21170900Y-14630400D01*
X21170900Y-14605000D02*
X21145500Y-14630400D01*
X21147359Y-14489074D02*
X21172759Y-14514474D01*
X21172759Y-14489074D02*
X21147359Y-14514474D01*
X21151850Y-13893800D02*
X21177250Y-13919200D01*
X21177250Y-13893800D02*
X21151850Y-13919200D01*
X21158200Y-14782800D02*
X21183600Y-14808200D01*
X21183600Y-14782800D02*
X21158200Y-14808200D01*
X21170900Y-13131800D02*
X21196300Y-13157200D01*
X21196300Y-13131800D02*
X21170900Y-13157200D01*
X21170900Y-14935200D02*
X21196300Y-14960600D01*
X21196300Y-14935200D02*
X21170900Y-14960600D01*
X21196300Y-10896600D02*
X21221700Y-10922000D01*
X21221700Y-10896600D02*
X21196300Y-10922000D01*
X21196300Y-13792200D02*
X21221700Y-13817600D01*
X21221700Y-13792200D02*
X21196300Y-13817600D01*
X21221700Y-10972800D02*
X21247100Y-10998200D01*
X21247100Y-10972800D02*
X21221700Y-10998200D01*
X21234400Y-13893800D02*
X21259800Y-13919200D01*
X21259800Y-13893800D02*
X21234400Y-13919200D01*
X21247100Y-13131800D02*
X21272500Y-13157200D01*
X21272500Y-13131800D02*
X21247100Y-13157200D01*
X21285200Y-10756900D02*
X21310600Y-10782300D01*
X21310600Y-10756900D02*
X21285200Y-10782300D01*
X21285200Y-13690600D02*
X21310600Y-13716000D01*
X21310600Y-13690600D02*
X21285200Y-13716000D01*
X21297900Y-13030200D02*
X21323300Y-13055600D01*
X21323300Y-13030200D02*
X21297900Y-13055600D01*
X21310600Y-14566900D02*
X21336000Y-14592300D01*
X21336000Y-14566900D02*
X21310600Y-14592300D01*
X21316950Y-13893800D02*
X21342350Y-13919200D01*
X21342350Y-13893800D02*
X21316950Y-13919200D01*
X21323300Y-13131800D02*
X21348700Y-13157200D01*
X21348700Y-13131800D02*
X21323300Y-13157200D01*
X21323300Y-13487400D02*
X21348700Y-13512800D01*
X21348700Y-13487400D02*
X21323300Y-13512800D01*
X21323300Y-14401800D02*
X21348700Y-14427200D01*
X21348700Y-14401800D02*
X21323300Y-14427200D01*
X21328024Y-16933589D02*
X21353424Y-16958989D01*
X21353424Y-16933589D02*
X21328024Y-16958989D01*
X21374100Y-13030200D02*
X21399500Y-13055600D01*
X21399500Y-13030200D02*
X21374100Y-13055600D01*
X21374100Y-13538200D02*
X21399500Y-13563600D01*
X21399500Y-13538200D02*
X21374100Y-13563600D01*
X21374100Y-13779500D02*
X21399500Y-13804900D01*
X21399500Y-13779500D02*
X21374100Y-13804900D01*
X21374100Y-15278100D02*
X21399500Y-15303500D01*
X21399500Y-15278100D02*
X21374100Y-15303500D01*
X21399500Y-13131800D02*
X21424900Y-13157200D01*
X21424900Y-13131800D02*
X21399500Y-13157200D01*
X21399500Y-13893800D02*
X21424900Y-13919200D01*
X21424900Y-13893800D02*
X21399500Y-13919200D01*
X21412200Y-14820900D02*
X21437600Y-14846300D01*
X21437600Y-14820900D02*
X21412200Y-14846300D01*
X21424900Y-13589000D02*
X21450300Y-13614400D01*
X21450300Y-13589000D02*
X21424900Y-13614400D01*
X21437600Y-15278100D02*
X21463000Y-15303500D01*
X21463000Y-15278100D02*
X21437600Y-15303500D01*
X21450300Y-11112500D02*
X21475700Y-11137900D01*
X21475700Y-11112500D02*
X21450300Y-11137900D01*
X21450300Y-13030200D02*
X21475700Y-13055600D01*
X21475700Y-13030200D02*
X21450300Y-13055600D01*
X21451600Y-11466800D02*
X21477000Y-11492200D01*
X21477000Y-11466800D02*
X21451600Y-11492200D01*
X21475067Y-14276447D02*
X21500467Y-14301847D01*
X21500467Y-14276447D02*
X21475067Y-14301847D01*
X21475700Y-13131800D02*
X21501100Y-13157200D01*
X21501100Y-13131800D02*
X21475700Y-13157200D01*
X21475700Y-13639800D02*
X21501100Y-13665200D01*
X21501100Y-13639800D02*
X21475700Y-13665200D01*
X21476252Y-14023958D02*
X21501652Y-14049358D01*
X21501652Y-14023958D02*
X21476252Y-14049358D01*
X21479803Y-14524597D02*
X21505203Y-14549997D01*
X21505203Y-14524597D02*
X21479803Y-14549997D01*
X21501100Y-15278100D02*
X21526500Y-15303500D01*
X21526500Y-15278100D02*
X21501100Y-15303500D01*
X21551900Y-13131800D02*
X21577300Y-13157200D01*
X21577300Y-13131800D02*
X21551900Y-13157200D01*
X21564600Y-15278100D02*
X21590000Y-15303500D01*
X21590000Y-15278100D02*
X21564600Y-15303500D01*
X21577300Y-10795000D02*
X21602700Y-10820400D01*
X21602700Y-10795000D02*
X21577300Y-10820400D01*
X21590000Y-16937700D02*
X21615400Y-16963100D01*
X21615400Y-16937700D02*
X21590000Y-16963100D01*
X21628100Y-11036300D02*
X21653500Y-11061700D01*
X21653500Y-11036300D02*
X21628100Y-11061700D01*
X21628100Y-13131800D02*
X21653500Y-13157200D01*
X21653500Y-13131800D02*
X21628100Y-13157200D01*
X21628100Y-15278100D02*
X21653500Y-15303500D01*
X21653500Y-15278100D02*
X21628100Y-15303500D01*
X21666200Y-10807700D02*
X21691600Y-10833100D01*
X21691600Y-10807700D02*
X21666200Y-10833100D01*
X21688599Y-11398250D02*
X21713999Y-11423650D01*
X21713999Y-11398250D02*
X21688599Y-11423650D01*
X21691600Y-15278100D02*
X21717000Y-15303500D01*
X21717000Y-15278100D02*
X21691600Y-15303500D01*
X21704300Y-13131800D02*
X21729700Y-13157200D01*
X21729700Y-13131800D02*
X21704300Y-13157200D01*
X21704300Y-13208000D02*
X21729700Y-13233400D01*
X21729700Y-13208000D02*
X21704300Y-13233400D01*
X21704300Y-13284200D02*
X21729700Y-13309600D01*
X21729700Y-13284200D02*
X21704300Y-13309600D01*
X21717000Y-14986000D02*
X21742400Y-15011400D01*
X21742400Y-14986000D02*
X21717000Y-15011400D01*
X21742400Y-15074900D02*
X21767800Y-15100300D01*
X21767800Y-15074900D02*
X21742400Y-15100300D01*
X21752298Y-14873810D02*
X21777698Y-14899210D01*
X21777698Y-14873810D02*
X21752298Y-14899210D01*
X21763646Y-10887044D02*
X21789046Y-10912444D01*
X21789046Y-10887044D02*
X21763646Y-10912444D01*
X21766480Y-14800725D02*
X21791880Y-14826125D01*
X21791880Y-14800725D02*
X21766480Y-14826125D01*
X21780500Y-14681200D02*
X21805900Y-14706600D01*
X21805900Y-14681200D02*
X21780500Y-14706600D01*
X21793200Y-13157200D02*
X21818600Y-13182600D01*
X21818600Y-13157200D02*
X21793200Y-13182600D01*
X21805900Y-14998700D02*
X21831300Y-15024100D01*
X21831300Y-14998700D02*
X21805900Y-15024100D01*
X21818600Y-11328400D02*
X21844000Y-11353800D01*
X21844000Y-11328400D02*
X21818600Y-11353800D01*
X21831300Y-14744701D02*
X21856700Y-14770101D01*
X21856700Y-14744701D02*
X21831300Y-14770101D01*
X21882100Y-11328400D02*
X21907500Y-11353800D01*
X21907500Y-11328400D02*
X21882100Y-11353800D01*
X21894800Y-10795000D02*
X21920200Y-10820400D01*
X21920200Y-10795000D02*
X21894800Y-10820400D01*
X21958300Y-11328400D02*
X21983700Y-11353800D01*
X21983700Y-11328400D02*
X21958300Y-11353800D01*
X22013824Y-16912289D02*
X22039224Y-16937689D01*
X22039224Y-16912289D02*
X22013824Y-16937689D01*
X22042864Y-13771183D02*
X22068264Y-13796583D01*
X22068264Y-13771183D02*
X22042864Y-13796583D01*
X22047200Y-10731500D02*
X22072600Y-10756900D01*
X22072600Y-10731500D02*
X22047200Y-10756900D01*
X22085300Y-11341100D02*
X22110700Y-11366500D01*
X22110700Y-11341100D02*
X22085300Y-11366500D01*
X22127500Y-10833100D02*
X22152900Y-10858500D01*
X22152900Y-10833100D02*
X22127500Y-10858500D01*
X22272242Y-10707155D02*
X22297642Y-10732555D01*
X22297642Y-10707155D02*
X22272242Y-10732555D01*
X22275800Y-16916400D02*
X22301200Y-16941800D01*
X22301200Y-16916400D02*
X22275800Y-16941800D01*
X22313900Y-11340800D02*
X22339300Y-11366200D01*
X22339300Y-11340800D02*
X22313900Y-11366200D01*
X22754300Y-12924200D02*
X22779700Y-12949600D01*
X22779700Y-12924200D02*
X22754300Y-12949600D01*
X22754300Y-12987700D02*
X22779700Y-13013100D01*
X22779700Y-12987700D02*
X22754300Y-13013100D01*
X22754300Y-13051200D02*
X22779700Y-13076600D01*
X22779700Y-13051200D02*
X22754300Y-13076600D01*
X22754300Y-13114700D02*
X22779700Y-13140100D01*
X22779700Y-13114700D02*
X22754300Y-13140100D01*
X22754300Y-13178200D02*
X22779700Y-13203600D01*
X22779700Y-13178200D02*
X22754300Y-13203600D01*
X22754300Y-13241700D02*
X22779700Y-13267100D01*
X22779700Y-13241700D02*
X22754300Y-13267100D01*
X22754300Y-13305200D02*
X22779700Y-13330600D01*
X22779700Y-13305200D02*
X22754300Y-13330600D01*
X22754300Y-13368700D02*
X22779700Y-13394100D01*
X22779700Y-13368700D02*
X22754300Y-13394100D01*
X22754300Y-13432200D02*
X22779700Y-13457600D01*
X22779700Y-13432200D02*
X22754300Y-13457600D01*
X22809200Y-14363700D02*
X22834600Y-14389100D01*
X22834600Y-14363700D02*
X22809200Y-14389100D01*
X22809200Y-14427200D02*
X22834600Y-14452600D01*
X22834600Y-14427200D02*
X22809200Y-14452600D01*
X22809200Y-14490700D02*
X22834600Y-14516100D01*
X22834600Y-14490700D02*
X22809200Y-14516100D01*
X22809200Y-14554200D02*
X22834600Y-14579600D01*
X22834600Y-14554200D02*
X22809200Y-14579600D01*
X22809200Y-14617700D02*
X22834600Y-14643100D01*
X22834600Y-14617700D02*
X22809200Y-14643100D01*
X22809200Y-14681200D02*
X22834600Y-14706600D01*
X22834600Y-14681200D02*
X22809200Y-14706600D01*
X22809200Y-14744700D02*
X22834600Y-14770100D01*
X22834600Y-14744700D02*
X22809200Y-14770100D01*
X22809200Y-14808200D02*
X22834600Y-14833600D01*
X22834600Y-14808200D02*
X22809200Y-14833600D01*
X22809200Y-14871700D02*
X22834600Y-14897100D01*
X22834600Y-14871700D02*
X22809200Y-14897100D01*
X22843200Y-12924200D02*
X22868600Y-12949600D01*
X22868600Y-12924200D02*
X22843200Y-12949600D01*
X22843200Y-12987700D02*
X22868600Y-13013100D01*
X22868600Y-12987700D02*
X22843200Y-13013100D01*
X22843200Y-13051200D02*
X22868600Y-13076600D01*
X22868600Y-13051200D02*
X22843200Y-13076600D01*
X22843200Y-13114700D02*
X22868600Y-13140100D01*
X22868600Y-13114700D02*
X22843200Y-13140100D01*
X22843200Y-13178200D02*
X22868600Y-13203600D01*
X22868600Y-13178200D02*
X22843200Y-13203600D01*
X22843200Y-13241700D02*
X22868600Y-13267100D01*
X22868600Y-13241700D02*
X22843200Y-13267100D01*
X22843200Y-13305200D02*
X22868600Y-13330600D01*
X22868600Y-13305200D02*
X22843200Y-13330600D01*
X22843200Y-13368700D02*
X22868600Y-13394100D01*
X22868600Y-13368700D02*
X22843200Y-13394100D01*
X22843200Y-13432200D02*
X22868600Y-13457600D01*
X22868600Y-13432200D02*
X22843200Y-13457600D01*
X22898100Y-14363700D02*
X22923500Y-14389100D01*
X22923500Y-14363700D02*
X22898100Y-14389100D01*
X22898100Y-14427200D02*
X22923500Y-14452600D01*
X22923500Y-14427200D02*
X22898100Y-14452600D01*
X22898100Y-14490700D02*
X22923500Y-14516100D01*
X22923500Y-14490700D02*
X22898100Y-14516100D01*
X22898100Y-14554200D02*
X22923500Y-14579600D01*
X22923500Y-14554200D02*
X22898100Y-14579600D01*
X22898100Y-14617700D02*
X22923500Y-14643100D01*
X22923500Y-14617700D02*
X22898100Y-14643100D01*
X22898100Y-14681200D02*
X22923500Y-14706600D01*
X22923500Y-14681200D02*
X22898100Y-14706600D01*
X22898100Y-14744700D02*
X22923500Y-14770100D01*
X22923500Y-14744700D02*
X22898100Y-14770100D01*
X22898100Y-14808200D02*
X22923500Y-14833600D01*
X22923500Y-14808200D02*
X22898100Y-14833600D01*
X22898100Y-14871700D02*
X22923500Y-14897100D01*
X22923500Y-14871700D02*
X22898100Y-14897100D01*
X23503813Y-13601700D02*
X23529213Y-13627100D01*
X23529213Y-13601700D02*
X23503813Y-13627100D01*
X23513671Y-13525500D02*
X23539071Y-13550900D01*
X23539071Y-13525500D02*
X23513671Y-13550900D01*
X23564177Y-15097797D02*
X23589577Y-15123197D01*
X23589577Y-15097797D02*
X23564177Y-15123197D01*
X23584339Y-15004232D02*
X23609739Y-15029632D01*
X23609739Y-15004232D02*
X23584339Y-15029632D01*
X23647400Y-15887700D02*
X23672800Y-15913100D01*
X23672800Y-15887700D02*
X23647400Y-15913100D01*
X23647400Y-15951200D02*
X23672800Y-15976600D01*
X23672800Y-15951200D02*
X23647400Y-15976600D01*
X23647400Y-16014700D02*
X23672800Y-16040100D01*
X23672800Y-16014700D02*
X23647400Y-16040100D01*
X23647400Y-16078200D02*
X23672800Y-16103600D01*
X23672800Y-16078200D02*
X23647400Y-16103600D01*
X23647400Y-16141700D02*
X23672800Y-16167100D01*
X23672800Y-16141700D02*
X23647400Y-16167100D01*
X23647400Y-16205200D02*
X23672800Y-16230600D01*
X23672800Y-16205200D02*
X23647400Y-16230600D01*
X23647400Y-16268700D02*
X23672800Y-16294100D01*
X23672800Y-16268700D02*
X23647400Y-16294100D01*
X23647400Y-16332200D02*
X23672800Y-16357600D01*
X23672800Y-16332200D02*
X23647400Y-16357600D01*
X23647400Y-16395700D02*
X23672800Y-16421100D01*
X23672800Y-16395700D02*
X23647400Y-16421100D01*
X23736300Y-15887700D02*
X23761700Y-15913100D01*
X23761700Y-15887700D02*
X23736300Y-15913100D01*
X23736300Y-15951200D02*
X23761700Y-15976600D01*
X23761700Y-15951200D02*
X23736300Y-15976600D01*
X23736300Y-16014700D02*
X23761700Y-16040100D01*
X23761700Y-16014700D02*
X23736300Y-16040100D01*
X23736300Y-16078200D02*
X23761700Y-16103600D01*
X23761700Y-16078200D02*
X23736300Y-16103600D01*
X23736300Y-16141700D02*
X23761700Y-16167100D01*
X23761700Y-16141700D02*
X23736300Y-16167100D01*
X23736300Y-16205200D02*
X23761700Y-16230600D01*
X23761700Y-16205200D02*
X23736300Y-16230600D01*
X23736300Y-16268700D02*
X23761700Y-16294100D01*
X23761700Y-16268700D02*
X23736300Y-16294100D01*
X23736300Y-16332200D02*
X23761700Y-16357600D01*
X23761700Y-16332200D02*
X23736300Y-16357600D01*
X23736300Y-16395700D02*
X23761700Y-16421100D01*
X23761700Y-16395700D02*
X23736300Y-16421100D01*
X23808400Y-12340000D02*
X23833800Y-12365400D01*
X23833800Y-12340000D02*
X23808400Y-12365400D01*
X23808400Y-12403500D02*
X23833800Y-12428900D01*
X23833800Y-12403500D02*
X23808400Y-12428900D01*
X23808400Y-12467000D02*
X23833800Y-12492400D01*
X23833800Y-12467000D02*
X23808400Y-12492400D01*
X23808400Y-12530500D02*
X23833800Y-12555900D01*
X23833800Y-12530500D02*
X23808400Y-12555900D01*
X23808400Y-12594000D02*
X23833800Y-12619400D01*
X23833800Y-12594000D02*
X23808400Y-12619400D01*
X23808400Y-12657500D02*
X23833800Y-12682900D01*
X23833800Y-12657500D02*
X23808400Y-12682900D01*
X23808400Y-12721000D02*
X23833800Y-12746400D01*
X23833800Y-12721000D02*
X23808400Y-12746400D01*
X23808400Y-13851300D02*
X23833800Y-13876700D01*
X23833800Y-13851300D02*
X23808400Y-13876700D01*
X23808400Y-13914800D02*
X23833800Y-13940200D01*
X23833800Y-13914800D02*
X23808400Y-13940200D01*
X23808400Y-13978300D02*
X23833800Y-14003700D01*
X23833800Y-13978300D02*
X23808400Y-14003700D01*
X23808400Y-14041800D02*
X23833800Y-14067200D01*
X23833800Y-14041800D02*
X23808400Y-14067200D01*
X23808400Y-14105300D02*
X23833800Y-14130700D01*
X23833800Y-14105300D02*
X23808400Y-14130700D01*
X23808400Y-14168800D02*
X23833800Y-14194200D01*
X23833800Y-14168800D02*
X23808400Y-14194200D01*
X23808400Y-14232300D02*
X23833800Y-14257700D01*
X23833800Y-14232300D02*
X23808400Y-14257700D01*
X23815555Y-15345081D02*
X23840955Y-15370481D01*
X23840955Y-15345081D02*
X23815555Y-15370481D01*
X23815555Y-15408581D02*
X23840955Y-15433981D01*
X23840955Y-15408581D02*
X23815555Y-15433981D01*
X23815555Y-15472081D02*
X23840955Y-15497481D01*
X23840955Y-15472081D02*
X23815555Y-15497481D01*
X23815555Y-15535581D02*
X23840955Y-15560981D01*
X23840955Y-15535581D02*
X23815555Y-15560981D01*
X23815555Y-15599081D02*
X23840955Y-15624481D01*
X23840955Y-15599081D02*
X23815555Y-15624481D01*
X23815555Y-15662581D02*
X23840955Y-15687981D01*
X23840955Y-15662581D02*
X23815555Y-15687981D01*
X23815555Y-15726081D02*
X23840955Y-15751481D01*
X23840955Y-15726081D02*
X23815555Y-15751481D01*
X23897300Y-12340000D02*
X23922700Y-12365400D01*
X23922700Y-12340000D02*
X23897300Y-12365400D01*
X23897300Y-12403500D02*
X23922700Y-12428900D01*
X23922700Y-12403500D02*
X23897300Y-12428900D01*
X23897300Y-12467000D02*
X23922700Y-12492400D01*
X23922700Y-12467000D02*
X23897300Y-12492400D01*
X23897300Y-12530500D02*
X23922700Y-12555900D01*
X23922700Y-12530500D02*
X23897300Y-12555900D01*
X23897300Y-12594000D02*
X23922700Y-12619400D01*
X23922700Y-12594000D02*
X23897300Y-12619400D01*
X23897300Y-12657500D02*
X23922700Y-12682900D01*
X23922700Y-12657500D02*
X23897300Y-12682900D01*
X23897300Y-12721000D02*
X23922700Y-12746400D01*
X23922700Y-12721000D02*
X23897300Y-12746400D01*
X23897300Y-13851300D02*
X23922700Y-13876700D01*
X23922700Y-13851300D02*
X23897300Y-13876700D01*
X23897300Y-13914800D02*
X23922700Y-13940200D01*
X23922700Y-13914800D02*
X23897300Y-13940200D01*
X23897300Y-13978300D02*
X23922700Y-14003700D01*
X23922700Y-13978300D02*
X23897300Y-14003700D01*
X23897300Y-14041800D02*
X23922700Y-14067200D01*
X23922700Y-14041800D02*
X23897300Y-14067200D01*
X23897300Y-14105300D02*
X23922700Y-14130700D01*
X23922700Y-14105300D02*
X23897300Y-14130700D01*
X23897300Y-14168800D02*
X23922700Y-14194200D01*
X23922700Y-14168800D02*
X23897300Y-14194200D01*
X23897300Y-14232300D02*
X23922700Y-14257700D01*
X23922700Y-14232300D02*
X23897300Y-14257700D01*
X23904455Y-15345081D02*
X23929855Y-15370481D01*
X23929855Y-15345081D02*
X23904455Y-15370481D01*
X23904455Y-15408581D02*
X23929855Y-15433981D01*
X23929855Y-15408581D02*
X23904455Y-15433981D01*
X23904455Y-15472081D02*
X23929855Y-15497481D01*
X23929855Y-15472081D02*
X23904455Y-15497481D01*
X23904455Y-15535581D02*
X23929855Y-15560981D01*
X23929855Y-15535581D02*
X23904455Y-15560981D01*
X23904455Y-15599081D02*
X23929855Y-15624481D01*
X23929855Y-15599081D02*
X23904455Y-15624481D01*
X23904455Y-15662581D02*
X23929855Y-15687981D01*
X23929855Y-15662581D02*
X23904455Y-15687981D01*
X23904455Y-15726081D02*
X23929855Y-15751481D01*
X23929855Y-15726081D02*
X23904455Y-15751481D01*
X23986200Y-12340000D02*
X24011600Y-12365400D01*
X24011600Y-12340000D02*
X23986200Y-12365400D01*
X23986200Y-12403500D02*
X24011600Y-12428900D01*
X24011600Y-12403500D02*
X23986200Y-12428900D01*
X23986200Y-12467000D02*
X24011600Y-12492400D01*
X24011600Y-12467000D02*
X23986200Y-12492400D01*
X23986200Y-12530500D02*
X24011600Y-12555900D01*
X24011600Y-12530500D02*
X23986200Y-12555900D01*
X23986200Y-12594000D02*
X24011600Y-12619400D01*
X24011600Y-12594000D02*
X23986200Y-12619400D01*
X23986200Y-12657500D02*
X24011600Y-12682900D01*
X24011600Y-12657500D02*
X23986200Y-12682900D01*
X23986200Y-12721000D02*
X24011600Y-12746400D01*
X24011600Y-12721000D02*
X23986200Y-12746400D01*
X23986200Y-13851300D02*
X24011600Y-13876700D01*
X24011600Y-13851300D02*
X23986200Y-13876700D01*
X23986200Y-13914800D02*
X24011600Y-13940200D01*
X24011600Y-13914800D02*
X23986200Y-13940200D01*
X23986200Y-13978300D02*
X24011600Y-14003700D01*
X24011600Y-13978300D02*
X23986200Y-14003700D01*
X23986200Y-14041800D02*
X24011600Y-14067200D01*
X24011600Y-14041800D02*
X23986200Y-14067200D01*
X23986200Y-14105300D02*
X24011600Y-14130700D01*
X24011600Y-14105300D02*
X23986200Y-14130700D01*
X23986200Y-14168800D02*
X24011600Y-14194200D01*
X24011600Y-14168800D02*
X23986200Y-14194200D01*
X23986200Y-14232300D02*
X24011600Y-14257700D01*
X24011600Y-14232300D02*
X23986200Y-14257700D01*
X23993355Y-15345081D02*
X24018755Y-15370481D01*
X24018755Y-15345081D02*
X23993355Y-15370481D01*
X23993355Y-15408581D02*
X24018755Y-15433981D01*
X24018755Y-15408581D02*
X23993355Y-15433981D01*
X23993355Y-15472081D02*
X24018755Y-15497481D01*
X24018755Y-15472081D02*
X23993355Y-15497481D01*
X23993355Y-15535581D02*
X24018755Y-15560981D01*
X24018755Y-15535581D02*
X23993355Y-15560981D01*
X23993355Y-15599081D02*
X24018755Y-15624481D01*
X24018755Y-15599081D02*
X23993355Y-15624481D01*
X23993355Y-15662581D02*
X24018755Y-15687981D01*
X24018755Y-15662581D02*
X23993355Y-15687981D01*
X23993355Y-15726081D02*
X24018755Y-15751481D01*
X24018755Y-15726081D02*
X23993355Y-15751481D01*
X24075100Y-12340000D02*
X24100500Y-12365400D01*
X24100500Y-12340000D02*
X24075100Y-12365400D01*
X24075100Y-12403500D02*
X24100500Y-12428900D01*
X24100500Y-12403500D02*
X24075100Y-12428900D01*
X24075100Y-12467000D02*
X24100500Y-12492400D01*
X24100500Y-12467000D02*
X24075100Y-12492400D01*
X24075100Y-12530500D02*
X24100500Y-12555900D01*
X24100500Y-12530500D02*
X24075100Y-12555900D01*
X24075100Y-12594000D02*
X24100500Y-12619400D01*
X24100500Y-12594000D02*
X24075100Y-12619400D01*
X24075100Y-12657500D02*
X24100500Y-12682900D01*
X24100500Y-12657500D02*
X24075100Y-12682900D01*
X24075100Y-12721000D02*
X24100500Y-12746400D01*
X24100500Y-12721000D02*
X24075100Y-12746400D01*
X24075100Y-13851300D02*
X24100500Y-13876700D01*
X24100500Y-13851300D02*
X24075100Y-13876700D01*
X24075100Y-13914800D02*
X24100500Y-13940200D01*
X24100500Y-13914800D02*
X24075100Y-13940200D01*
X24075100Y-13978300D02*
X24100500Y-14003700D01*
X24100500Y-13978300D02*
X24075100Y-14003700D01*
X24075100Y-14041800D02*
X24100500Y-14067200D01*
X24100500Y-14041800D02*
X24075100Y-14067200D01*
X24075100Y-14105300D02*
X24100500Y-14130700D01*
X24100500Y-14105300D02*
X24075100Y-14130700D01*
X24075100Y-14168800D02*
X24100500Y-14194200D01*
X24100500Y-14168800D02*
X24075100Y-14194200D01*
X24075100Y-14232300D02*
X24100500Y-14257700D01*
X24100500Y-14232300D02*
X24075100Y-14257700D01*
X24082255Y-15345081D02*
X24107655Y-15370481D01*
X24107655Y-15345081D02*
X24082255Y-15370481D01*
X24082255Y-15408581D02*
X24107655Y-15433981D01*
X24107655Y-15408581D02*
X24082255Y-15433981D01*
X24082255Y-15472081D02*
X24107655Y-15497481D01*
X24107655Y-15472081D02*
X24082255Y-15497481D01*
X24082255Y-15535581D02*
X24107655Y-15560981D01*
X24107655Y-15535581D02*
X24082255Y-15560981D01*
X24082255Y-15599081D02*
X24107655Y-15624481D01*
X24107655Y-15599081D02*
X24082255Y-15624481D01*
X24082255Y-15662581D02*
X24107655Y-15687981D01*
X24107655Y-15662581D02*
X24082255Y-15687981D01*
X24082255Y-15726081D02*
X24107655Y-15751481D01*
X24107655Y-15726081D02*
X24082255Y-15751481D01*
X24329100Y-12327300D02*
X24354500Y-12352700D01*
X24354500Y-12327300D02*
X24329100Y-12352700D01*
X24329100Y-12454300D02*
X24354500Y-12479700D01*
X24354500Y-12454300D02*
X24329100Y-12479700D01*
X24329100Y-12594000D02*
X24354500Y-12619400D01*
X24354500Y-12594000D02*
X24329100Y-12619400D01*
X24329100Y-12733700D02*
X24354500Y-12759100D01*
X24354500Y-12733700D02*
X24329100Y-12759100D01*
X24329100Y-13851300D02*
X24354500Y-13876700D01*
X24354500Y-13851300D02*
X24329100Y-13876700D01*
X24329100Y-13978300D02*
X24354500Y-14003700D01*
X24354500Y-13978300D02*
X24329100Y-14003700D01*
X24329100Y-14118000D02*
X24354500Y-14143400D01*
X24354500Y-14118000D02*
X24329100Y-14143400D01*
X24329100Y-14257700D02*
X24354500Y-14283100D01*
X24354500Y-14257700D02*
X24329100Y-14283100D01*
X24329100Y-15337200D02*
X24354500Y-15362600D01*
X24354500Y-15337200D02*
X24329100Y-15362600D01*
X24329100Y-15464200D02*
X24354500Y-15489600D01*
X24354500Y-15464200D02*
X24329100Y-15489600D01*
X24329100Y-15603900D02*
X24354500Y-15629300D01*
X24354500Y-15603900D02*
X24329100Y-15629300D01*
X24329100Y-15743600D02*
X24354500Y-15769000D01*
X24354500Y-15743600D02*
X24329100Y-15769000D01*
X24394950Y-14998700D02*
X24420350Y-15024100D01*
X24420350Y-14998700D02*
X24394950Y-15024100D01*
X24430700Y-12886100D02*
X24456100Y-12911500D01*
X24456100Y-12886100D02*
X24430700Y-12911500D01*
X24430700Y-13013100D02*
X24456100Y-13038500D01*
X24456100Y-13013100D02*
X24430700Y-13038500D01*
X24430700Y-13152800D02*
X24456100Y-13178200D01*
X24456100Y-13152800D02*
X24430700Y-13178200D01*
X24430700Y-13292500D02*
X24456100Y-13317900D01*
X24456100Y-13292500D02*
X24430700Y-13317900D01*
X24443400Y-14372000D02*
X24468800Y-14397400D01*
X24468800Y-14372000D02*
X24443400Y-14397400D01*
X24443400Y-14499000D02*
X24468800Y-14524400D01*
X24468800Y-14499000D02*
X24443400Y-14524400D01*
X24443400Y-14638700D02*
X24468800Y-14664100D01*
X24468800Y-14638700D02*
X24443400Y-14664100D01*
X24443400Y-14778400D02*
X24468800Y-14803800D01*
X24468800Y-14778400D02*
X24443400Y-14803800D01*
X24443400Y-15870600D02*
X24468800Y-15896000D01*
X24468800Y-15870600D02*
X24443400Y-15896000D01*
X24443400Y-15997600D02*
X24468800Y-16023000D01*
X24468800Y-15997600D02*
X24443400Y-16023000D01*
X24443400Y-16137300D02*
X24468800Y-16162700D01*
X24468800Y-16137300D02*
X24443400Y-16162700D01*
X24443400Y-16277000D02*
X24468800Y-16302400D01*
X24468800Y-16277000D02*
X24443400Y-16302400D01*
X24456940Y-13526622D02*
X24482340Y-13552022D01*
X24482340Y-13526622D02*
X24456940Y-13552022D01*
X24468800Y-12327300D02*
X24494200Y-12352700D01*
X24494200Y-12327300D02*
X24468800Y-12352700D01*
X24468800Y-12454300D02*
X24494200Y-12479700D01*
X24494200Y-12454300D02*
X24468800Y-12479700D01*
X24468800Y-12594000D02*
X24494200Y-12619400D01*
X24494200Y-12594000D02*
X24468800Y-12619400D01*
X24468800Y-13851300D02*
X24494200Y-13876700D01*
X24494200Y-13851300D02*
X24468800Y-13876700D01*
X24468800Y-13978300D02*
X24494200Y-14003700D01*
X24494200Y-13978300D02*
X24468800Y-14003700D01*
X24468800Y-14118000D02*
X24494200Y-14143400D01*
X24494200Y-14118000D02*
X24468800Y-14143400D01*
X24468800Y-15337200D02*
X24494200Y-15362600D01*
X24494200Y-15337200D02*
X24468800Y-15362600D01*
X24468800Y-15464200D02*
X24494200Y-15489600D01*
X24494200Y-15464200D02*
X24468800Y-15489600D01*
X24468800Y-15603900D02*
X24494200Y-15629300D01*
X24494200Y-15603900D02*
X24468800Y-15629300D01*
X24481500Y-12733700D02*
X24506900Y-12759100D01*
X24506900Y-12733700D02*
X24481500Y-12759100D01*
X24481500Y-14257700D02*
X24506900Y-14283100D01*
X24506900Y-14257700D02*
X24481500Y-14283100D01*
X24481500Y-15743600D02*
X24506900Y-15769000D01*
X24506900Y-15743600D02*
X24481500Y-15769000D01*
X24570400Y-12886100D02*
X24595800Y-12911500D01*
X24595800Y-12886100D02*
X24570400Y-12911500D01*
X24570400Y-13013100D02*
X24595800Y-13038500D01*
X24595800Y-13013100D02*
X24570400Y-13038500D01*
X24570400Y-13152800D02*
X24595800Y-13178200D01*
X24595800Y-13152800D02*
X24570400Y-13178200D01*
X24583100Y-13292500D02*
X24608500Y-13317900D01*
X24608500Y-13292500D02*
X24583100Y-13317900D01*
X24583100Y-14372000D02*
X24608500Y-14397400D01*
X24608500Y-14372000D02*
X24583100Y-14397400D01*
X24583100Y-14499000D02*
X24608500Y-14524400D01*
X24608500Y-14499000D02*
X24583100Y-14524400D01*
X24583100Y-14638700D02*
X24608500Y-14664100D01*
X24608500Y-14638700D02*
X24583100Y-14664100D01*
X24583100Y-15870600D02*
X24608500Y-15896000D01*
X24608500Y-15870600D02*
X24583100Y-15896000D01*
X24583100Y-15997600D02*
X24608500Y-16023000D01*
X24608500Y-15997600D02*
X24583100Y-16023000D01*
X24583100Y-16137300D02*
X24608500Y-16162700D01*
X24608500Y-16137300D02*
X24583100Y-16162700D01*
X24595800Y-14778400D02*
X24621200Y-14803800D01*
X24621200Y-14778400D02*
X24595800Y-14803800D01*
X24595800Y-16277000D02*
X24621200Y-16302400D01*
X24621200Y-16277000D02*
X24595800Y-16302400D01*
X24611737Y-16429733D02*
X24637137Y-16455133D01*
X24637137Y-16429733D02*
X24611737Y-16455133D01*
X24621200Y-12327300D02*
X24646600Y-12352700D01*
X24646600Y-12327300D02*
X24621200Y-12352700D01*
X24621200Y-12454300D02*
X24646600Y-12479700D01*
X24646600Y-12454300D02*
X24621200Y-12479700D01*
X24621200Y-12594000D02*
X24646600Y-12619400D01*
X24646600Y-12594000D02*
X24621200Y-12619400D01*
X24621200Y-12733700D02*
X24646600Y-12759100D01*
X24646600Y-12733700D02*
X24621200Y-12759100D01*
X24621200Y-13851300D02*
X24646600Y-13876700D01*
X24646600Y-13851300D02*
X24621200Y-13876700D01*
X24621200Y-13978300D02*
X24646600Y-14003700D01*
X24646600Y-13978300D02*
X24621200Y-14003700D01*
X24621200Y-14118000D02*
X24646600Y-14143400D01*
X24646600Y-14118000D02*
X24621200Y-14143400D01*
X24621200Y-14257700D02*
X24646600Y-14283100D01*
X24646600Y-14257700D02*
X24621200Y-14283100D01*
X24621200Y-15337200D02*
X24646600Y-15362600D01*
X24646600Y-15337200D02*
X24621200Y-15362600D01*
X24621200Y-15464200D02*
X24646600Y-15489600D01*
X24646600Y-15464200D02*
X24621200Y-15489600D01*
X24621200Y-15603900D02*
X24646600Y-15629300D01*
X24646600Y-15603900D02*
X24621200Y-15629300D01*
X24621200Y-15743600D02*
X24646600Y-15769000D01*
X24646600Y-15743600D02*
X24621200Y-15769000D01*
X24722800Y-12886100D02*
X24748200Y-12911500D01*
X24748200Y-12886100D02*
X24722800Y-12911500D01*
X24722800Y-13013100D02*
X24748200Y-13038500D01*
X24748200Y-13013100D02*
X24722800Y-13038500D01*
X24722800Y-13152800D02*
X24748200Y-13178200D01*
X24748200Y-13152800D02*
X24722800Y-13178200D01*
X24722800Y-13292500D02*
X24748200Y-13317900D01*
X24748200Y-13292500D02*
X24722800Y-13317900D01*
X24723250Y-11874500D02*
X24748650Y-11899900D01*
X24748650Y-11874500D02*
X24723250Y-11899900D01*
X24735500Y-14372000D02*
X24760900Y-14397400D01*
X24760900Y-14372000D02*
X24735500Y-14397400D01*
X24735500Y-14499000D02*
X24760900Y-14524400D01*
X24760900Y-14499000D02*
X24735500Y-14524400D01*
X24735500Y-14638700D02*
X24760900Y-14664100D01*
X24760900Y-14638700D02*
X24735500Y-14664100D01*
X24735500Y-14778400D02*
X24760900Y-14803800D01*
X24760900Y-14778400D02*
X24735500Y-14803800D01*
X24735500Y-15870600D02*
X24760900Y-15896000D01*
X24760900Y-15870600D02*
X24735500Y-15896000D01*
X24735500Y-15997600D02*
X24760900Y-16023000D01*
X24760900Y-15997600D02*
X24735500Y-16023000D01*
X24735500Y-16137300D02*
X24760900Y-16162700D01*
X24760900Y-16137300D02*
X24735500Y-16162700D01*
X24735500Y-16277000D02*
X24760900Y-16302400D01*
X24760900Y-16277000D02*
X24735500Y-16302400D01*
X24760129Y-16939241D02*
X24785529Y-16964641D01*
X24785529Y-16939241D02*
X24760129Y-16964641D01*
X24822369Y-11749108D02*
X24847769Y-11774508D01*
X24847769Y-11749108D02*
X24822369Y-11774508D01*
X24822369Y-11999662D02*
X24847769Y-12025062D01*
X24847769Y-11999662D02*
X24822369Y-12025062D01*
X24942800Y-11743849D02*
X24968200Y-11769249D01*
X24968200Y-11743849D02*
X24942800Y-11769249D01*
X24942800Y-11994403D02*
X24968200Y-12019803D01*
X24968200Y-11994403D02*
X24942800Y-12019803D01*
X25019000Y-12623800D02*
X25044400Y-12649200D01*
X25044400Y-12623800D02*
X25019000Y-12649200D01*
X25019000Y-12763500D02*
X25044400Y-12788900D01*
X25044400Y-12763500D02*
X25019000Y-12788900D01*
X25019000Y-12903200D02*
X25044400Y-12928600D01*
X25044400Y-12903200D02*
X25019000Y-12928600D01*
X25019000Y-13030200D02*
X25044400Y-13055600D01*
X25044400Y-13030200D02*
X25019000Y-13055600D01*
X25019000Y-14160500D02*
X25044400Y-14185900D01*
X25044400Y-14160500D02*
X25019000Y-14185900D01*
X25019000Y-14300200D02*
X25044400Y-14325600D01*
X25044400Y-14300200D02*
X25019000Y-14325600D01*
X25019000Y-14439900D02*
X25044400Y-14465300D01*
X25044400Y-14439900D02*
X25019000Y-14465300D01*
X25019000Y-14566900D02*
X25044400Y-14592300D01*
X25044400Y-14566900D02*
X25019000Y-14592300D01*
X25031700Y-15671800D02*
X25057100Y-15697200D01*
X25057100Y-15671800D02*
X25031700Y-15697200D01*
X25031700Y-15811500D02*
X25057100Y-15836900D01*
X25057100Y-15811500D02*
X25031700Y-15836900D01*
X25031700Y-15951200D02*
X25057100Y-15976600D01*
X25057100Y-15951200D02*
X25031700Y-15976600D01*
X25031700Y-16078200D02*
X25057100Y-16103600D01*
X25057100Y-16078200D02*
X25031700Y-16103600D01*
X25069800Y-11874500D02*
X25095200Y-11899900D01*
X25095200Y-11874500D02*
X25069800Y-11899900D01*
X25143883Y-12623800D02*
X25169283Y-12649200D01*
X25169283Y-12623800D02*
X25143883Y-12649200D01*
X25143883Y-12763500D02*
X25169283Y-12788900D01*
X25169283Y-12763500D02*
X25143883Y-12788900D01*
X25143883Y-12903200D02*
X25169283Y-12928600D01*
X25169283Y-12903200D02*
X25143883Y-12928600D01*
X25143883Y-13030200D02*
X25169283Y-13055600D01*
X25169283Y-13030200D02*
X25143883Y-13055600D01*
X25143883Y-14160500D02*
X25169283Y-14185900D01*
X25169283Y-14160500D02*
X25143883Y-14185900D01*
X25143883Y-14300200D02*
X25169283Y-14325600D01*
X25169283Y-14300200D02*
X25143883Y-14325600D01*
X25143883Y-14439900D02*
X25169283Y-14465300D01*
X25169283Y-14439900D02*
X25143883Y-14465300D01*
X25143883Y-14566900D02*
X25169283Y-14592300D01*
X25169283Y-14566900D02*
X25143883Y-14592300D01*
X25156583Y-15671800D02*
X25181983Y-15697200D01*
X25181983Y-15671800D02*
X25156583Y-15697200D01*
X25156583Y-15811500D02*
X25181983Y-15836900D01*
X25181983Y-15811500D02*
X25156583Y-15836900D01*
X25156583Y-15951200D02*
X25181983Y-15976600D01*
X25181983Y-15951200D02*
X25156583Y-15976600D01*
X25156583Y-16078200D02*
X25181983Y-16103600D01*
X25181983Y-16078200D02*
X25156583Y-16103600D01*
X25268767Y-12623800D02*
X25294167Y-12649200D01*
X25294167Y-12623800D02*
X25268767Y-12649200D01*
X25268767Y-12763500D02*
X25294167Y-12788900D01*
X25294167Y-12763500D02*
X25268767Y-12788900D01*
X25268767Y-12903200D02*
X25294167Y-12928600D01*
X25294167Y-12903200D02*
X25268767Y-12928600D01*
X25268767Y-13030200D02*
X25294167Y-13055600D01*
X25294167Y-13030200D02*
X25268767Y-13055600D01*
X25268767Y-14160500D02*
X25294167Y-14185900D01*
X25294167Y-14160500D02*
X25268767Y-14185900D01*
X25268767Y-14300200D02*
X25294167Y-14325600D01*
X25294167Y-14300200D02*
X25268767Y-14325600D01*
X25268767Y-14439900D02*
X25294167Y-14465300D01*
X25294167Y-14439900D02*
X25268767Y-14465300D01*
X25268767Y-14566900D02*
X25294167Y-14592300D01*
X25294167Y-14566900D02*
X25268767Y-14592300D01*
X25281467Y-15671800D02*
X25306867Y-15697200D01*
X25306867Y-15671800D02*
X25281467Y-15697200D01*
X25281467Y-15811500D02*
X25306867Y-15836900D01*
X25306867Y-15811500D02*
X25281467Y-15836900D01*
X25281467Y-15951200D02*
X25306867Y-15976600D01*
X25306867Y-15951200D02*
X25281467Y-15976600D01*
X25281467Y-16078200D02*
X25306867Y-16103600D01*
X25306867Y-16078200D02*
X25281467Y-16103600D01*
X25393650Y-12623800D02*
X25419050Y-12649200D01*
X25419050Y-12623800D02*
X25393650Y-12649200D01*
X25393650Y-12763500D02*
X25419050Y-12788900D01*
X25419050Y-12763500D02*
X25393650Y-12788900D01*
X25393650Y-12903200D02*
X25419050Y-12928600D01*
X25419050Y-12903200D02*
X25393650Y-12928600D01*
X25393650Y-13030200D02*
X25419050Y-13055600D01*
X25419050Y-13030200D02*
X25393650Y-13055600D01*
X25393650Y-14160500D02*
X25419050Y-14185900D01*
X25419050Y-14160500D02*
X25393650Y-14185900D01*
X25393650Y-14300200D02*
X25419050Y-14325600D01*
X25419050Y-14300200D02*
X25393650Y-14325600D01*
X25393650Y-14439900D02*
X25419050Y-14465300D01*
X25419050Y-14439900D02*
X25393650Y-14465300D01*
X25393650Y-14566900D02*
X25419050Y-14592300D01*
X25419050Y-14566900D02*
X25393650Y-14592300D01*
X25406350Y-15671800D02*
X25431750Y-15697200D01*
X25431750Y-15671800D02*
X25406350Y-15697200D01*
X25406350Y-15811500D02*
X25431750Y-15836900D01*
X25431750Y-15811500D02*
X25406350Y-15836900D01*
X25406350Y-15951200D02*
X25431750Y-15976600D01*
X25431750Y-15951200D02*
X25406350Y-15976600D01*
X25406350Y-16078200D02*
X25431750Y-16103600D01*
X25431750Y-16078200D02*
X25406350Y-16103600D01*
X25518533Y-12623800D02*
X25543933Y-12649200D01*
X25543933Y-12623800D02*
X25518533Y-12649200D01*
X25518533Y-12763500D02*
X25543933Y-12788900D01*
X25543933Y-12763500D02*
X25518533Y-12788900D01*
X25518533Y-12903200D02*
X25543933Y-12928600D01*
X25543933Y-12903200D02*
X25518533Y-12928600D01*
X25518533Y-13030200D02*
X25543933Y-13055600D01*
X25543933Y-13030200D02*
X25518533Y-13055600D01*
X25518533Y-14160500D02*
X25543933Y-14185900D01*
X25543933Y-14160500D02*
X25518533Y-14185900D01*
X25518533Y-14300200D02*
X25543933Y-14325600D01*
X25543933Y-14300200D02*
X25518533Y-14325600D01*
X25518533Y-14439900D02*
X25543933Y-14465300D01*
X25543933Y-14439900D02*
X25518533Y-14465300D01*
X25518533Y-14566900D02*
X25543933Y-14592300D01*
X25543933Y-14566900D02*
X25518533Y-14592300D01*
X25531233Y-15671800D02*
X25556633Y-15697200D01*
X25556633Y-15671800D02*
X25531233Y-15697200D01*
X25531233Y-15811500D02*
X25556633Y-15836900D01*
X25556633Y-15811500D02*
X25531233Y-15836900D01*
X25531233Y-15951200D02*
X25556633Y-15976600D01*
X25556633Y-15951200D02*
X25531233Y-15976600D01*
X25531233Y-16078200D02*
X25556633Y-16103600D01*
X25556633Y-16078200D02*
X25531233Y-16103600D01*
X25603200Y-11531600D02*
X25628600Y-11557000D01*
X25628600Y-11531600D02*
X25603200Y-11557000D01*
X25615900Y-11029034D02*
X25641300Y-11054434D01*
X25641300Y-11029034D02*
X25615900Y-11054434D01*
X25643416Y-12623800D02*
X25668816Y-12649200D01*
X25668816Y-12623800D02*
X25643416Y-12649200D01*
X25643416Y-12763500D02*
X25668816Y-12788900D01*
X25668816Y-12763500D02*
X25643416Y-12788900D01*
X25643416Y-12903200D02*
X25668816Y-12928600D01*
X25668816Y-12903200D02*
X25643416Y-12928600D01*
X25643416Y-13030200D02*
X25668816Y-13055600D01*
X25668816Y-13030200D02*
X25643416Y-13055600D01*
X25643416Y-14160500D02*
X25668816Y-14185900D01*
X25668816Y-14160500D02*
X25643416Y-14185900D01*
X25643416Y-14300200D02*
X25668816Y-14325600D01*
X25668816Y-14300200D02*
X25643416Y-14325600D01*
X25643416Y-14439900D02*
X25668816Y-14465300D01*
X25668816Y-14439900D02*
X25643416Y-14465300D01*
X25643416Y-14566900D02*
X25668816Y-14592300D01*
X25668816Y-14566900D02*
X25643416Y-14592300D01*
X25656116Y-15671800D02*
X25681516Y-15697200D01*
X25681516Y-15671800D02*
X25656116Y-15697200D01*
X25656116Y-15811500D02*
X25681516Y-15836900D01*
X25681516Y-15811500D02*
X25656116Y-15836900D01*
X25656116Y-15951200D02*
X25681516Y-15976600D01*
X25681516Y-15951200D02*
X25656116Y-15976600D01*
X25656116Y-16078200D02*
X25681516Y-16103600D01*
X25681516Y-16078200D02*
X25656116Y-16103600D01*
X25768300Y-12623800D02*
X25793700Y-12649200D01*
X25793700Y-12623800D02*
X25768300Y-12649200D01*
X25768300Y-12763500D02*
X25793700Y-12788900D01*
X25793700Y-12763500D02*
X25768300Y-12788900D01*
X25768300Y-12903200D02*
X25793700Y-12928600D01*
X25793700Y-12903200D02*
X25768300Y-12928600D01*
X25768300Y-13030200D02*
X25793700Y-13055600D01*
X25793700Y-13030200D02*
X25768300Y-13055600D01*
X25768300Y-14160500D02*
X25793700Y-14185900D01*
X25793700Y-14160500D02*
X25768300Y-14185900D01*
X25768300Y-14300200D02*
X25793700Y-14325600D01*
X25793700Y-14300200D02*
X25768300Y-14325600D01*
X25768300Y-14439900D02*
X25793700Y-14465300D01*
X25793700Y-14439900D02*
X25768300Y-14465300D01*
X25768300Y-14566900D02*
X25793700Y-14592300D01*
X25793700Y-14566900D02*
X25768300Y-14592300D01*
X25781000Y-15671800D02*
X25806400Y-15697200D01*
X25806400Y-15671800D02*
X25781000Y-15697200D01*
X25781000Y-15811500D02*
X25806400Y-15836900D01*
X25806400Y-15811500D02*
X25781000Y-15836900D01*
X25781000Y-15951200D02*
X25806400Y-15976600D01*
X25806400Y-15951200D02*
X25781000Y-15976600D01*
X25781000Y-16078200D02*
X25806400Y-16103600D01*
X25806400Y-16078200D02*
X25781000Y-16103600D01*
X16321000Y-10420000D02*
G75*
G02*
X16271000Y-10420000I-25000J0D01*
G01*
X16271000Y-10420000D02*
G75*
G02*
X16321000Y-10420000I25000J0D01*
G01*
X16321000Y-16920000D02*
G75*
G02*
X16271000Y-16920000I-25000J0D01*
G01*
X16271000Y-16920000D02*
G75*
G02*
X16321000Y-16920000I25000J0D01*
G01*
X16391294Y-10250294D02*
G75*
G02*
X16341294Y-10250294I-25000J0D01*
G01*
X16341294Y-10250294D02*
G75*
G02*
X16391294Y-10250294I25000J0D01*
G01*
X16391294Y-10589706D02*
G75*
G02*
X16341294Y-10589706I-25000J0D01*
G01*
X16341294Y-10589706D02*
G75*
G02*
X16391294Y-10589706I25000J0D01*
G01*
X16391294Y-16750294D02*
G75*
G02*
X16341294Y-16750294I-25000J0D01*
G01*
X16341294Y-16750294D02*
G75*
G02*
X16391294Y-16750294I25000J0D01*
G01*
X16391294Y-17089706D02*
G75*
G02*
X16341294Y-17089706I-25000J0D01*
G01*
X16341294Y-17089706D02*
G75*
G02*
X16391294Y-17089706I25000J0D01*
G01*
X16561000Y-10180000D02*
G75*
G02*
X16511000Y-10180000I-25000J0D01*
G01*
X16511000Y-10180000D02*
G75*
G02*
X16561000Y-10180000I25000J0D01*
G01*
X16561000Y-10660000D02*
G75*
G02*
X16511000Y-10660000I-25000J0D01*
G01*
X16511000Y-10660000D02*
G75*
G02*
X16561000Y-10660000I25000J0D01*
G01*
X16561000Y-16680000D02*
G75*
G02*
X16511000Y-16680000I-25000J0D01*
G01*
X16511000Y-16680000D02*
G75*
G02*
X16561000Y-16680000I25000J0D01*
G01*
X16561000Y-17160000D02*
G75*
G02*
X16511000Y-17160000I-25000J0D01*
G01*
X16511000Y-17160000D02*
G75*
G02*
X16561000Y-17160000I25000J0D01*
G01*
X16730706Y-10250294D02*
G75*
G02*
X16680706Y-10250294I-25000J0D01*
G01*
X16680706Y-10250294D02*
G75*
G02*
X16730706Y-10250294I25000J0D01*
G01*
X16730706Y-10589706D02*
G75*
G02*
X16680706Y-10589706I-25000J0D01*
G01*
X16680706Y-10589706D02*
G75*
G02*
X16730706Y-10589706I25000J0D01*
G01*
X16730706Y-16750294D02*
G75*
G02*
X16680706Y-16750294I-25000J0D01*
G01*
X16680706Y-16750294D02*
G75*
G02*
X16730706Y-16750294I25000J0D01*
G01*
X16730706Y-17089706D02*
G75*
G02*
X16680706Y-17089706I-25000J0D01*
G01*
X16680706Y-17089706D02*
G75*
G02*
X16730706Y-17089706I25000J0D01*
G01*
X16801000Y-10420000D02*
G75*
G02*
X16751000Y-10420000I-25000J0D01*
G01*
X16751000Y-10420000D02*
G75*
G02*
X16801000Y-10420000I25000J0D01*
G01*
X16801000Y-16920000D02*
G75*
G02*
X16751000Y-16920000I-25000J0D01*
G01*
X16751000Y-16920000D02*
G75*
G02*
X16801000Y-16920000I25000J0D01*
G01*
X25321000Y-10420000D02*
G75*
G02*
X25271000Y-10420000I-25000J0D01*
G01*
X25271000Y-10420000D02*
G75*
G02*
X25321000Y-10420000I25000J0D01*
G01*
X25321000Y-16920000D02*
G75*
G02*
X25271000Y-16920000I-25000J0D01*
G01*
X25271000Y-16920000D02*
G75*
G02*
X25321000Y-16920000I25000J0D01*
G01*
X25391294Y-10250294D02*
G75*
G02*
X25341294Y-10250294I-25000J0D01*
G01*
X25341294Y-10250294D02*
G75*
G02*
X25391294Y-10250294I25000J0D01*
G01*
X25391294Y-10589706D02*
G75*
G02*
X25341294Y-10589706I-25000J0D01*
G01*
X25341294Y-10589706D02*
G75*
G02*
X25391294Y-10589706I25000J0D01*
G01*
X25391294Y-16750294D02*
G75*
G02*
X25341294Y-16750294I-25000J0D01*
G01*
X25341294Y-16750294D02*
G75*
G02*
X25391294Y-16750294I25000J0D01*
G01*
X25391294Y-17089706D02*
G75*
G02*
X25341294Y-17089706I-25000J0D01*
G01*
X25341294Y-17089706D02*
G75*
G02*
X25391294Y-17089706I25000J0D01*
G01*
X25561000Y-10180000D02*
G75*
G02*
X25511000Y-10180000I-25000J0D01*
G01*
X25511000Y-10180000D02*
G75*
G02*
X25561000Y-10180000I25000J0D01*
G01*
X25561000Y-10660000D02*
G75*
G02*
X25511000Y-10660000I-25000J0D01*
G01*
X25511000Y-10660000D02*
G75*
G02*
X25561000Y-10660000I25000J0D01*
G01*
X25561000Y-16680000D02*
G75*
G02*
X25511000Y-16680000I-25000J0D01*
G01*
X25511000Y-16680000D02*
G75*
G02*
X25561000Y-16680000I25000J0D01*
G01*
X25561000Y-17160000D02*
G75*
G02*
X25511000Y-17160000I-25000J0D01*
G01*
X25511000Y-17160000D02*
G75*
G02*
X25561000Y-17160000I25000J0D01*
G01*
X25730706Y-10250294D02*
G75*
G02*
X25680706Y-10250294I-25000J0D01*
G01*
X25680706Y-10250294D02*
G75*
G02*
X25730706Y-10250294I25000J0D01*
G01*
X25730706Y-10589706D02*
G75*
G02*
X25680706Y-10589706I-25000J0D01*
G01*
X25680706Y-10589706D02*
G75*
G02*
X25730706Y-10589706I25000J0D01*
G01*
X25730706Y-16750294D02*
G75*
G02*
X25680706Y-16750294I-25000J0D01*
G01*
X25680706Y-16750294D02*
G75*
G02*
X25730706Y-16750294I25000J0D01*
G01*
X25730706Y-17089706D02*
G75*
G02*
X25680706Y-17089706I-25000J0D01*
G01*
X25680706Y-17089706D02*
G75*
G02*
X25730706Y-17089706I25000J0D01*
G01*
X25801000Y-10420000D02*
G75*
G02*
X25751000Y-10420000I-25000J0D01*
G01*
X25751000Y-10420000D02*
G75*
G02*
X25801000Y-10420000I25000J0D01*
G01*
X25801000Y-16920000D02*
G75*
G02*
X25751000Y-16920000I-25000J0D01*
G01*
X25751000Y-16920000D02*
G75*
G02*
X25801000Y-16920000I25000J0D01*
G01*
X23235004Y-10896029D02*
X23235004Y-10956029D01*
X23205004Y-10926029D02*
X23265004Y-10926029D01*
X23205004Y-10876029D02*
X23205004Y-10976029D01*
X23265004Y-10976029D02*
G75*
G02*
X23205004Y-10976029I-30000J0D01*
G01*
X23265004Y-10976029D02*
X23265004Y-10876029D01*
X23265004Y-10876029D02*
G75*
G03*
X23205004Y-10876029I-30000J0D01*
G01*
X24585016Y-10896029D02*
X24585016Y-10956029D01*
X24555016Y-10926029D02*
X24615016Y-10926029D01*
X24555016Y-10876029D02*
X24555016Y-10976029D01*
X24615016Y-10976029D02*
G75*
G02*
X24555016Y-10976029I-30000J0D01*
G01*
X24615016Y-10976029D02*
X24615016Y-10876029D01*
X24615016Y-10876029D02*
G75*
G03*
X24555016Y-10876029I-30000J0D01*
G01*
X21270674Y-10217870D02*
X21270674Y-10161301D01*
X21214105Y-10161301D01*
X21214105Y-10217870D01*
X21270674Y-10217870D01*
X21282390Y-10219585D02*
X21282390Y-10159585D01*
X21202390Y-10159585D02*
G75*
G02*
X21282390Y-10159585I40000J0D01*
G01*
X21202390Y-10159585D02*
X21202390Y-10219585D01*
X21202390Y-10219585D02*
G75*
G03*
X21282390Y-10219585I40000J0D01*
G01*
X21270674Y-10637859D02*
X21270674Y-10581290D01*
X21214105Y-10581290D01*
X21214105Y-10637859D01*
X21270674Y-10637859D01*
X21282390Y-10649574D02*
X21282390Y-10569576D01*
X21202390Y-10569576D02*
G75*
G02*
X21282390Y-10569576I40000J0D01*
G01*
X21202390Y-10569576D02*
X21202390Y-10649574D01*
X21202390Y-10649574D02*
G75*
G03*
X21282390Y-10649574I40000J0D01*
G01*
X22135698Y-10217870D02*
X22135698Y-10161301D01*
X22079129Y-10161301D01*
X22079129Y-10217870D01*
X22135698Y-10217870D01*
X22147414Y-10219585D02*
X22147414Y-10159585D01*
X22067414Y-10159585D02*
G75*
G02*
X22147414Y-10159585I40000J0D01*
G01*
X22067414Y-10159585D02*
X22067414Y-10219585D01*
X22067414Y-10219585D02*
G75*
G03*
X22147414Y-10219585I40000J0D01*
G01*
X22135698Y-10637859D02*
X22135698Y-10581290D01*
X22079129Y-10581290D01*
X22079129Y-10637859D01*
X22135698Y-10637859D01*
X22147414Y-10649576D02*
X22147414Y-10569574D01*
X22067414Y-10569574D02*
G75*
G02*
X22147414Y-10569574I40000J0D01*
G01*
X22067414Y-10569574D02*
X22067414Y-10649576D01*
X22067414Y-10649576D02*
G75*
G03*
X22147414Y-10649576I40000J0D01*
G01*
D13*
X22816330Y-15616159D02*
X22876330Y-15556159D01*
X22816330Y-15496159D01*
X22756330Y-15556159D01*
X22816330Y-15616159D01*
X22905230Y-14082141D02*
X22965230Y-14022141D01*
X22905230Y-13962141D01*
X22845230Y-14022141D01*
X22905230Y-14082141D01*
X23337030Y-11983959D02*
X23397030Y-11923959D01*
X23337030Y-11863959D01*
X23277030Y-11923959D01*
X23337030Y-11983959D01*
X23566317Y-15616159D02*
X23626317Y-15556159D01*
X23566317Y-15496159D01*
X23506317Y-15556159D01*
X23566317Y-15616159D01*
X23655217Y-14082141D02*
X23715217Y-14022141D01*
X23655217Y-13962141D01*
X23595217Y-14022141D01*
X23655217Y-14082141D01*
X24087017Y-11983959D02*
X24147017Y-11923959D01*
X24087017Y-11863959D01*
X24027017Y-11923959D01*
X24087017Y-11983959D01*
D14*
X24976750Y-12390750D02*
X25129250Y-12543250D01*
X25129250Y-12390750D02*
X24976750Y-12543250D01*
X25129250Y-12467000D02*
G75*
G02*
X24976750Y-12467000I-76250J0D01*
G01*
X24976750Y-12467000D02*
G75*
G02*
X25129250Y-12467000I76250J0D01*
G01*
X24976750Y-13152750D02*
X25129250Y-13305250D01*
X25129250Y-13152750D02*
X24976750Y-13305250D01*
X25129250Y-13229000D02*
G75*
G02*
X24976750Y-13229000I-76250J0D01*
G01*
X24976750Y-13229000D02*
G75*
G02*
X25129250Y-13229000I76250J0D01*
G01*
X24976750Y-13914750D02*
X25129250Y-14067250D01*
X25129250Y-13914750D02*
X24976750Y-14067250D01*
X25129250Y-13991000D02*
G75*
G02*
X24976750Y-13991000I-76250J0D01*
G01*
X24976750Y-13991000D02*
G75*
G02*
X25129250Y-13991000I76250J0D01*
G01*
X24976750Y-14676750D02*
X25129250Y-14829250D01*
X25129250Y-14676750D02*
X24976750Y-14829250D01*
X25129250Y-14753000D02*
G75*
G02*
X24976750Y-14753000I-76250J0D01*
G01*
X24976750Y-14753000D02*
G75*
G02*
X25129250Y-14753000I76250J0D01*
G01*
X24976750Y-15438750D02*
X25129250Y-15591250D01*
X25129250Y-15438750D02*
X24976750Y-15591250D01*
X25129250Y-15515000D02*
G75*
G02*
X24976750Y-15515000I-76250J0D01*
G01*
X24976750Y-15515000D02*
G75*
G02*
X25129250Y-15515000I76250J0D01*
G01*
X24976750Y-16200750D02*
X25129250Y-16353250D01*
X25129250Y-16200750D02*
X24976750Y-16353250D01*
X25129250Y-16277000D02*
G75*
G02*
X24976750Y-16277000I-76250J0D01*
G01*
X24976750Y-16277000D02*
G75*
G02*
X25129250Y-16277000I76250J0D01*
G01*
X25230750Y-12390750D02*
X25383250Y-12543250D01*
X25383250Y-12390750D02*
X25230750Y-12543250D01*
X25383250Y-12467000D02*
G75*
G02*
X25230750Y-12467000I-76250J0D01*
G01*
X25230750Y-12467000D02*
G75*
G02*
X25383250Y-12467000I76250J0D01*
G01*
X25230750Y-13152750D02*
X25383250Y-13305250D01*
X25383250Y-13152750D02*
X25230750Y-13305250D01*
X25383250Y-13229000D02*
G75*
G02*
X25230750Y-13229000I-76250J0D01*
G01*
X25230750Y-13229000D02*
G75*
G02*
X25383250Y-13229000I76250J0D01*
G01*
X25230750Y-13914750D02*
X25383250Y-14067250D01*
X25383250Y-13914750D02*
X25230750Y-14067250D01*
X25383250Y-13991000D02*
G75*
G02*
X25230750Y-13991000I-76250J0D01*
G01*
X25230750Y-13991000D02*
G75*
G02*
X25383250Y-13991000I76250J0D01*
G01*
X25230750Y-14676750D02*
X25383250Y-14829250D01*
X25383250Y-14676750D02*
X25230750Y-14829250D01*
X25383250Y-14753000D02*
G75*
G02*
X25230750Y-14753000I-76250J0D01*
G01*
X25230750Y-14753000D02*
G75*
G02*
X25383250Y-14753000I76250J0D01*
G01*
X25230750Y-15438750D02*
X25383250Y-15591250D01*
X25383250Y-15438750D02*
X25230750Y-15591250D01*
X25383250Y-15515000D02*
G75*
G02*
X25230750Y-15515000I-76250J0D01*
G01*
X25230750Y-15515000D02*
G75*
G02*
X25383250Y-15515000I76250J0D01*
G01*
X25230750Y-16200750D02*
X25383250Y-16353250D01*
X25383250Y-16200750D02*
X25230750Y-16353250D01*
X25383250Y-16277000D02*
G75*
G02*
X25230750Y-16277000I-76250J0D01*
G01*
X25230750Y-16277000D02*
G75*
G02*
X25383250Y-16277000I76250J0D01*
G01*
X25484750Y-12390750D02*
X25637250Y-12543250D01*
X25637250Y-12390750D02*
X25484750Y-12543250D01*
X25637250Y-12467000D02*
G75*
G02*
X25484750Y-12467000I-76250J0D01*
G01*
X25484750Y-12467000D02*
G75*
G02*
X25637250Y-12467000I76250J0D01*
G01*
X25484750Y-13152750D02*
X25637250Y-13305250D01*
X25637250Y-13152750D02*
X25484750Y-13305250D01*
X25637250Y-13229000D02*
G75*
G02*
X25484750Y-13229000I-76250J0D01*
G01*
X25484750Y-13229000D02*
G75*
G02*
X25637250Y-13229000I76250J0D01*
G01*
X25484750Y-13914750D02*
X25637250Y-14067250D01*
X25637250Y-13914750D02*
X25484750Y-14067250D01*
X25637250Y-13991000D02*
G75*
G02*
X25484750Y-13991000I-76250J0D01*
G01*
X25484750Y-13991000D02*
G75*
G02*
X25637250Y-13991000I76250J0D01*
G01*
X25484750Y-14676750D02*
X25637250Y-14829250D01*
X25637250Y-14676750D02*
X25484750Y-14829250D01*
X25637250Y-14753000D02*
G75*
G02*
X25484750Y-14753000I-76250J0D01*
G01*
X25484750Y-14753000D02*
G75*
G02*
X25637250Y-14753000I76250J0D01*
G01*
X25484750Y-15438750D02*
X25637250Y-15591250D01*
X25637250Y-15438750D02*
X25484750Y-15591250D01*
X25637250Y-15515000D02*
G75*
G02*
X25484750Y-15515000I-76250J0D01*
G01*
X25484750Y-15515000D02*
G75*
G02*
X25637250Y-15515000I76250J0D01*
G01*
X25484750Y-16200750D02*
X25637250Y-16353250D01*
X25637250Y-16200750D02*
X25484750Y-16353250D01*
X25637250Y-16277000D02*
G75*
G02*
X25484750Y-16277000I-76250J0D01*
G01*
X25484750Y-16277000D02*
G75*
G02*
X25637250Y-16277000I76250J0D01*
G01*
X25738750Y-12390750D02*
X25891250Y-12543250D01*
X25891250Y-12390750D02*
X25738750Y-12543250D01*
X25891250Y-12467000D02*
G75*
G02*
X25738750Y-12467000I-76250J0D01*
G01*
X25738750Y-12467000D02*
G75*
G02*
X25891250Y-12467000I76250J0D01*
G01*
X25738750Y-13152750D02*
X25891250Y-13305250D01*
X25891250Y-13152750D02*
X25738750Y-13305250D01*
X25891250Y-13229000D02*
G75*
G02*
X25738750Y-13229000I-76250J0D01*
G01*
X25738750Y-13229000D02*
G75*
G02*
X25891250Y-13229000I76250J0D01*
G01*
X25738750Y-13914750D02*
X25891250Y-14067250D01*
X25891250Y-13914750D02*
X25738750Y-14067250D01*
X25891250Y-13991000D02*
G75*
G02*
X25738750Y-13991000I-76250J0D01*
G01*
X25738750Y-13991000D02*
G75*
G02*
X25891250Y-13991000I76250J0D01*
G01*
X25738750Y-14676750D02*
X25891250Y-14829250D01*
X25891250Y-14676750D02*
X25738750Y-14829250D01*
X25891250Y-14753000D02*
G75*
G02*
X25738750Y-14753000I-76250J0D01*
G01*
X25738750Y-14753000D02*
G75*
G02*
X25891250Y-14753000I76250J0D01*
G01*
X25738750Y-15438750D02*
X25891250Y-15591250D01*
X25891250Y-15438750D02*
X25738750Y-15591250D01*
X25891250Y-15515000D02*
G75*
G02*
X25738750Y-15515000I-76250J0D01*
G01*
X25738750Y-15515000D02*
G75*
G02*
X25891250Y-15515000I76250J0D01*
G01*
X25738750Y-16200750D02*
X25891250Y-16353250D01*
X25891250Y-16200750D02*
X25738750Y-16353250D01*
X25891250Y-16277000D02*
G75*
G02*
X25738750Y-16277000I-76250J0D01*
G01*
X25738750Y-16277000D02*
G75*
G02*
X25891250Y-16277000I76250J0D01*
G01*
D15*
X23420015Y-11396029D02*
X23680015Y-11656029D01*
X23680015Y-11396029D02*
X23420015Y-11656029D01*
X23550015Y-11396029D02*
X23550015Y-11656029D01*
X23420015Y-11526029D02*
X23680015Y-11526029D01*
X24140005Y-11396029D02*
X24400005Y-11656029D01*
X24400005Y-11396029D02*
X24140005Y-11656029D01*
X24270005Y-11396029D02*
X24270005Y-11656029D01*
X24140005Y-11526029D02*
X24400005Y-11526029D01*
D16*
X16376000Y-10260000D02*
X16696000Y-10580000D01*
X16696000Y-10260000D02*
X16376000Y-10580000D01*
X16649138Y-10533138D02*
X16649138Y-10306862D01*
X16422862Y-10306862D01*
X16422862Y-10533138D01*
X16649138Y-10533138D01*
X16376000Y-16760000D02*
X16696000Y-17080000D01*
X16696000Y-16760000D02*
X16376000Y-17080000D01*
X16649138Y-17033138D02*
X16649138Y-16806862D01*
X16422862Y-16806862D01*
X16422862Y-17033138D01*
X16649138Y-17033138D01*
X25376000Y-10260000D02*
X25696000Y-10580000D01*
X25696000Y-10260000D02*
X25376000Y-10580000D01*
X25649138Y-10533138D02*
X25649138Y-10306862D01*
X25422862Y-10306862D01*
X25422862Y-10533138D01*
X25649138Y-10533138D01*
X25376000Y-16760000D02*
X25696000Y-17080000D01*
X25696000Y-16760000D02*
X25376000Y-17080000D01*
X25649138Y-17033138D02*
X25649138Y-16806862D01*
X25422862Y-16806862D01*
X25422862Y-17033138D01*
X25649138Y-17033138D01*
D11*
X16294277Y-17733984D02*
X16294277Y-17533984D01*
X16294277Y-17533984D02*
X16341896Y-17533984D01*
X16341896Y-17533984D02*
X16370467Y-17543508D01*
X16370467Y-17543508D02*
X16389515Y-17562555D01*
X16389515Y-17562555D02*
X16399039Y-17581603D01*
X16399039Y-17581603D02*
X16408562Y-17619698D01*
X16408562Y-17619698D02*
X16408562Y-17648270D01*
X16408562Y-17648270D02*
X16399039Y-17686365D01*
X16399039Y-17686365D02*
X16389515Y-17705412D01*
X16389515Y-17705412D02*
X16370467Y-17724460D01*
X16370467Y-17724460D02*
X16341896Y-17733984D01*
X16341896Y-17733984D02*
X16294277Y-17733984D01*
X16494277Y-17733984D02*
X16494277Y-17600650D01*
X16494277Y-17638746D02*
X16503801Y-17619698D01*
X16503801Y-17619698D02*
X16513324Y-17610174D01*
X16513324Y-17610174D02*
X16532372Y-17600650D01*
X16532372Y-17600650D02*
X16551420Y-17600650D01*
X16618086Y-17733984D02*
X16618086Y-17600650D01*
X16618086Y-17533984D02*
X16608562Y-17543508D01*
X16608562Y-17543508D02*
X16618086Y-17553031D01*
X16618086Y-17553031D02*
X16627610Y-17543508D01*
X16627610Y-17543508D02*
X16618086Y-17533984D01*
X16618086Y-17533984D02*
X16618086Y-17553031D01*
X16741896Y-17733984D02*
X16722848Y-17724460D01*
X16722848Y-17724460D02*
X16713324Y-17705412D01*
X16713324Y-17705412D02*
X16713324Y-17533984D01*
X16846658Y-17733984D02*
X16827610Y-17724460D01*
X16827610Y-17724460D02*
X16818086Y-17705412D01*
X16818086Y-17705412D02*
X16818086Y-17533984D01*
X17075229Y-17733984D02*
X17075229Y-17533984D01*
X17075229Y-17533984D02*
X17141896Y-17676841D01*
X17141896Y-17676841D02*
X17208563Y-17533984D01*
X17208563Y-17533984D02*
X17208563Y-17733984D01*
X17389515Y-17733984D02*
X17389515Y-17629222D01*
X17389515Y-17629222D02*
X17379991Y-17610174D01*
X17379991Y-17610174D02*
X17360944Y-17600650D01*
X17360944Y-17600650D02*
X17322848Y-17600650D01*
X17322848Y-17600650D02*
X17303801Y-17610174D01*
X17389515Y-17724460D02*
X17370467Y-17733984D01*
X17370467Y-17733984D02*
X17322848Y-17733984D01*
X17322848Y-17733984D02*
X17303801Y-17724460D01*
X17303801Y-17724460D02*
X17294277Y-17705412D01*
X17294277Y-17705412D02*
X17294277Y-17686365D01*
X17294277Y-17686365D02*
X17303801Y-17667317D01*
X17303801Y-17667317D02*
X17322848Y-17657793D01*
X17322848Y-17657793D02*
X17370467Y-17657793D01*
X17370467Y-17657793D02*
X17389515Y-17648270D01*
X17484753Y-17600650D02*
X17484753Y-17800650D01*
X17484753Y-17610174D02*
X17503801Y-17600650D01*
X17503801Y-17600650D02*
X17541896Y-17600650D01*
X17541896Y-17600650D02*
X17560944Y-17610174D01*
X17560944Y-17610174D02*
X17570467Y-17619698D01*
X17570467Y-17619698D02*
X17579991Y-17638746D01*
X17579991Y-17638746D02*
X17579991Y-17695889D01*
X17579991Y-17695889D02*
X17570467Y-17714936D01*
X17570467Y-17714936D02*
X17560944Y-17724460D01*
X17560944Y-17724460D02*
X17541896Y-17733984D01*
X17541896Y-17733984D02*
X17503801Y-17733984D01*
X17503801Y-17733984D02*
X17484753Y-17724460D01*
X17665705Y-17714936D02*
X17675229Y-17724460D01*
X17675229Y-17724460D02*
X17665705Y-17733984D01*
X17665705Y-17733984D02*
X17656182Y-17724460D01*
X17656182Y-17724460D02*
X17665705Y-17714936D01*
X17665705Y-17714936D02*
X17665705Y-17733984D01*
X17665705Y-17610174D02*
X17675229Y-17619698D01*
X17675229Y-17619698D02*
X17665705Y-17629222D01*
X17665705Y-17629222D02*
X17656182Y-17619698D01*
X17656182Y-17619698D02*
X17665705Y-17610174D01*
X17665705Y-17610174D02*
X17665705Y-17629222D01*
D12*
X16008100Y-18049800D02*
X16033500Y-18075200D01*
X16033500Y-18049800D02*
X16008100Y-18075200D01*
D11*
X16332372Y-17953984D02*
X16351420Y-17953984D01*
X16351420Y-17953984D02*
X16370467Y-17963508D01*
X16370467Y-17963508D02*
X16379991Y-17973031D01*
X16379991Y-17973031D02*
X16389515Y-17992079D01*
X16389515Y-17992079D02*
X16399039Y-18030174D01*
X16399039Y-18030174D02*
X16399039Y-18077793D01*
X16399039Y-18077793D02*
X16389515Y-18115889D01*
X16389515Y-18115889D02*
X16379991Y-18134936D01*
X16379991Y-18134936D02*
X16370467Y-18144460D01*
X16370467Y-18144460D02*
X16351420Y-18153984D01*
X16351420Y-18153984D02*
X16332372Y-18153984D01*
X16332372Y-18153984D02*
X16313324Y-18144460D01*
X16313324Y-18144460D02*
X16303801Y-18134936D01*
X16303801Y-18134936D02*
X16294277Y-18115889D01*
X16294277Y-18115889D02*
X16284753Y-18077793D01*
X16284753Y-18077793D02*
X16284753Y-18030174D01*
X16284753Y-18030174D02*
X16294277Y-17992079D01*
X16294277Y-17992079D02*
X16303801Y-17973031D01*
X16303801Y-17973031D02*
X16313324Y-17963508D01*
X16313324Y-17963508D02*
X16332372Y-17953984D01*
X16484753Y-18134936D02*
X16494277Y-18144460D01*
X16494277Y-18144460D02*
X16484753Y-18153984D01*
X16484753Y-18153984D02*
X16475229Y-18144460D01*
X16475229Y-18144460D02*
X16484753Y-18134936D01*
X16484753Y-18134936D02*
X16484753Y-18153984D01*
X16570467Y-17973031D02*
X16579991Y-17963508D01*
X16579991Y-17963508D02*
X16599039Y-17953984D01*
X16599039Y-17953984D02*
X16646658Y-17953984D01*
X16646658Y-17953984D02*
X16665705Y-17963508D01*
X16665705Y-17963508D02*
X16675229Y-17973031D01*
X16675229Y-17973031D02*
X16684753Y-17992079D01*
X16684753Y-17992079D02*
X16684753Y-18011127D01*
X16684753Y-18011127D02*
X16675229Y-18039698D01*
X16675229Y-18039698D02*
X16560943Y-18153984D01*
X16560943Y-18153984D02*
X16684753Y-18153984D01*
X16865705Y-17953984D02*
X16770467Y-17953984D01*
X16770467Y-17953984D02*
X16760943Y-18049222D01*
X16760943Y-18049222D02*
X16770467Y-18039698D01*
X16770467Y-18039698D02*
X16789515Y-18030174D01*
X16789515Y-18030174D02*
X16837134Y-18030174D01*
X16837134Y-18030174D02*
X16856182Y-18039698D01*
X16856182Y-18039698D02*
X16865705Y-18049222D01*
X16865705Y-18049222D02*
X16875229Y-18068270D01*
X16875229Y-18068270D02*
X16875229Y-18115889D01*
X16875229Y-18115889D02*
X16865705Y-18134936D01*
X16865705Y-18134936D02*
X16856182Y-18144460D01*
X16856182Y-18144460D02*
X16837134Y-18153984D01*
X16837134Y-18153984D02*
X16789515Y-18153984D01*
X16789515Y-18153984D02*
X16770467Y-18144460D01*
X16770467Y-18144460D02*
X16760943Y-18134936D01*
X17046658Y-18020650D02*
X17046658Y-18153984D01*
X16999039Y-17944460D02*
X16951420Y-18087317D01*
X16951420Y-18087317D02*
X17075229Y-18087317D01*
X17151420Y-18153984D02*
X17151420Y-18020650D01*
X17151420Y-18039698D02*
X17160944Y-18030174D01*
X17160944Y-18030174D02*
X17179991Y-18020650D01*
X17179991Y-18020650D02*
X17208563Y-18020650D01*
X17208563Y-18020650D02*
X17227610Y-18030174D01*
X17227610Y-18030174D02*
X17237134Y-18049222D01*
X17237134Y-18049222D02*
X17237134Y-18153984D01*
X17237134Y-18049222D02*
X17246658Y-18030174D01*
X17246658Y-18030174D02*
X17265705Y-18020650D01*
X17265705Y-18020650D02*
X17294277Y-18020650D01*
X17294277Y-18020650D02*
X17313325Y-18030174D01*
X17313325Y-18030174D02*
X17322848Y-18049222D01*
X17322848Y-18049222D02*
X17322848Y-18153984D01*
X17418086Y-18153984D02*
X17418086Y-18020650D01*
X17418086Y-18039698D02*
X17427610Y-18030174D01*
X17427610Y-18030174D02*
X17446658Y-18020650D01*
X17446658Y-18020650D02*
X17475229Y-18020650D01*
X17475229Y-18020650D02*
X17494277Y-18030174D01*
X17494277Y-18030174D02*
X17503801Y-18049222D01*
X17503801Y-18049222D02*
X17503801Y-18153984D01*
X17503801Y-18049222D02*
X17513325Y-18030174D01*
X17513325Y-18030174D02*
X17532372Y-18020650D01*
X17532372Y-18020650D02*
X17560944Y-18020650D01*
X17560944Y-18020650D02*
X17579991Y-18030174D01*
X17579991Y-18030174D02*
X17589515Y-18049222D01*
X17589515Y-18049222D02*
X17589515Y-18153984D01*
X17979991Y-17944460D02*
X17808563Y-18201603D01*
X18237134Y-17953984D02*
X18256182Y-17953984D01*
X18256182Y-17953984D02*
X18275229Y-17963508D01*
X18275229Y-17963508D02*
X18284753Y-17973031D01*
X18284753Y-17973031D02*
X18294277Y-17992079D01*
X18294277Y-17992079D02*
X18303801Y-18030174D01*
X18303801Y-18030174D02*
X18303801Y-18077793D01*
X18303801Y-18077793D02*
X18294277Y-18115889D01*
X18294277Y-18115889D02*
X18284753Y-18134936D01*
X18284753Y-18134936D02*
X18275229Y-18144460D01*
X18275229Y-18144460D02*
X18256182Y-18153984D01*
X18256182Y-18153984D02*
X18237134Y-18153984D01*
X18237134Y-18153984D02*
X18218087Y-18144460D01*
X18218087Y-18144460D02*
X18208563Y-18134936D01*
X18208563Y-18134936D02*
X18199039Y-18115889D01*
X18199039Y-18115889D02*
X18189515Y-18077793D01*
X18189515Y-18077793D02*
X18189515Y-18030174D01*
X18189515Y-18030174D02*
X18199039Y-17992079D01*
X18199039Y-17992079D02*
X18208563Y-17973031D01*
X18208563Y-17973031D02*
X18218087Y-17963508D01*
X18218087Y-17963508D02*
X18237134Y-17953984D01*
X18389515Y-18134936D02*
X18399039Y-18144460D01*
X18399039Y-18144460D02*
X18389515Y-18153984D01*
X18389515Y-18153984D02*
X18379991Y-18144460D01*
X18379991Y-18144460D02*
X18389515Y-18134936D01*
X18389515Y-18134936D02*
X18389515Y-18153984D01*
X18522848Y-17953984D02*
X18541896Y-17953984D01*
X18541896Y-17953984D02*
X18560944Y-17963508D01*
X18560944Y-17963508D02*
X18570468Y-17973031D01*
X18570468Y-17973031D02*
X18579991Y-17992079D01*
X18579991Y-17992079D02*
X18589515Y-18030174D01*
X18589515Y-18030174D02*
X18589515Y-18077793D01*
X18589515Y-18077793D02*
X18579991Y-18115889D01*
X18579991Y-18115889D02*
X18570468Y-18134936D01*
X18570468Y-18134936D02*
X18560944Y-18144460D01*
X18560944Y-18144460D02*
X18541896Y-18153984D01*
X18541896Y-18153984D02*
X18522848Y-18153984D01*
X18522848Y-18153984D02*
X18503801Y-18144460D01*
X18503801Y-18144460D02*
X18494277Y-18134936D01*
X18494277Y-18134936D02*
X18484753Y-18115889D01*
X18484753Y-18115889D02*
X18475229Y-18077793D01*
X18475229Y-18077793D02*
X18475229Y-18030174D01*
X18475229Y-18030174D02*
X18484753Y-17992079D01*
X18484753Y-17992079D02*
X18494277Y-17973031D01*
X18494277Y-17973031D02*
X18503801Y-17963508D01*
X18503801Y-17963508D02*
X18522848Y-17953984D01*
X18779991Y-18153984D02*
X18665706Y-18153984D01*
X18722848Y-18153984D02*
X18722848Y-17953984D01*
X18722848Y-17953984D02*
X18703801Y-17982555D01*
X18703801Y-17982555D02*
X18684753Y-18001603D01*
X18684753Y-18001603D02*
X18665706Y-18011127D01*
X18903801Y-17953984D02*
X18922849Y-17953984D01*
X18922849Y-17953984D02*
X18941896Y-17963508D01*
X18941896Y-17963508D02*
X18951420Y-17973031D01*
X18951420Y-17973031D02*
X18960944Y-17992079D01*
X18960944Y-17992079D02*
X18970468Y-18030174D01*
X18970468Y-18030174D02*
X18970468Y-18077793D01*
X18970468Y-18077793D02*
X18960944Y-18115889D01*
X18960944Y-18115889D02*
X18951420Y-18134936D01*
X18951420Y-18134936D02*
X18941896Y-18144460D01*
X18941896Y-18144460D02*
X18922849Y-18153984D01*
X18922849Y-18153984D02*
X18903801Y-18153984D01*
X18903801Y-18153984D02*
X18884753Y-18144460D01*
X18884753Y-18144460D02*
X18875229Y-18134936D01*
X18875229Y-18134936D02*
X18865706Y-18115889D01*
X18865706Y-18115889D02*
X18856182Y-18077793D01*
X18856182Y-18077793D02*
X18856182Y-18030174D01*
X18856182Y-18030174D02*
X18865706Y-17992079D01*
X18865706Y-17992079D02*
X18875229Y-17973031D01*
X18875229Y-17973031D02*
X18884753Y-17963508D01*
X18884753Y-17963508D02*
X18903801Y-17953984D01*
X19094277Y-17953984D02*
X19113325Y-17953984D01*
X19113325Y-17953984D02*
X19132372Y-17963508D01*
X19132372Y-17963508D02*
X19141896Y-17973031D01*
X19141896Y-17973031D02*
X19151420Y-17992079D01*
X19151420Y-17992079D02*
X19160944Y-18030174D01*
X19160944Y-18030174D02*
X19160944Y-18077793D01*
X19160944Y-18077793D02*
X19151420Y-18115889D01*
X19151420Y-18115889D02*
X19141896Y-18134936D01*
X19141896Y-18134936D02*
X19132372Y-18144460D01*
X19132372Y-18144460D02*
X19113325Y-18153984D01*
X19113325Y-18153984D02*
X19094277Y-18153984D01*
X19094277Y-18153984D02*
X19075229Y-18144460D01*
X19075229Y-18144460D02*
X19065706Y-18134936D01*
X19065706Y-18134936D02*
X19056182Y-18115889D01*
X19056182Y-18115889D02*
X19046658Y-18077793D01*
X19046658Y-18077793D02*
X19046658Y-18030174D01*
X19046658Y-18030174D02*
X19056182Y-17992079D01*
X19056182Y-17992079D02*
X19065706Y-17973031D01*
X19065706Y-17973031D02*
X19075229Y-17963508D01*
X19075229Y-17963508D02*
X19094277Y-17953984D01*
X19237134Y-17953984D02*
X19237134Y-17992079D01*
X19313325Y-17953984D02*
X19313325Y-17992079D01*
X19608563Y-18230174D02*
X19599039Y-18220650D01*
X19599039Y-18220650D02*
X19579991Y-18192079D01*
X19579991Y-18192079D02*
X19570468Y-18173031D01*
X19570468Y-18173031D02*
X19560944Y-18144460D01*
X19560944Y-18144460D02*
X19551420Y-18096841D01*
X19551420Y-18096841D02*
X19551420Y-18058746D01*
X19551420Y-18058746D02*
X19560944Y-18011127D01*
X19560944Y-18011127D02*
X19570468Y-17982555D01*
X19570468Y-17982555D02*
X19579991Y-17963508D01*
X19579991Y-17963508D02*
X19599039Y-17934936D01*
X19599039Y-17934936D02*
X19608563Y-17925412D01*
X19779991Y-17953984D02*
X19684753Y-17953984D01*
X19684753Y-17953984D02*
X19675230Y-18049222D01*
X19675230Y-18049222D02*
X19684753Y-18039698D01*
X19684753Y-18039698D02*
X19703801Y-18030174D01*
X19703801Y-18030174D02*
X19751420Y-18030174D01*
X19751420Y-18030174D02*
X19770468Y-18039698D01*
X19770468Y-18039698D02*
X19779991Y-18049222D01*
X19779991Y-18049222D02*
X19789515Y-18068270D01*
X19789515Y-18068270D02*
X19789515Y-18115889D01*
X19789515Y-18115889D02*
X19779991Y-18134936D01*
X19779991Y-18134936D02*
X19770468Y-18144460D01*
X19770468Y-18144460D02*
X19751420Y-18153984D01*
X19751420Y-18153984D02*
X19703801Y-18153984D01*
X19703801Y-18153984D02*
X19684753Y-18144460D01*
X19684753Y-18144460D02*
X19675230Y-18134936D01*
X19884753Y-18153984D02*
X19922849Y-18153984D01*
X19922849Y-18153984D02*
X19941896Y-18144460D01*
X19941896Y-18144460D02*
X19951420Y-18134936D01*
X19951420Y-18134936D02*
X19970468Y-18106365D01*
X19970468Y-18106365D02*
X19979991Y-18068270D01*
X19979991Y-18068270D02*
X19979991Y-17992079D01*
X19979991Y-17992079D02*
X19970468Y-17973031D01*
X19970468Y-17973031D02*
X19960944Y-17963508D01*
X19960944Y-17963508D02*
X19941896Y-17953984D01*
X19941896Y-17953984D02*
X19903801Y-17953984D01*
X19903801Y-17953984D02*
X19884753Y-17963508D01*
X19884753Y-17963508D02*
X19875230Y-17973031D01*
X19875230Y-17973031D02*
X19865706Y-17992079D01*
X19865706Y-17992079D02*
X19865706Y-18039698D01*
X19865706Y-18039698D02*
X19875230Y-18058746D01*
X19875230Y-18058746D02*
X19884753Y-18068270D01*
X19884753Y-18068270D02*
X19903801Y-18077793D01*
X19903801Y-18077793D02*
X19941896Y-18077793D01*
X19941896Y-18077793D02*
X19960944Y-18068270D01*
X19960944Y-18068270D02*
X19970468Y-18058746D01*
X19970468Y-18058746D02*
X19979991Y-18039698D01*
X20094277Y-18039698D02*
X20075230Y-18030174D01*
X20075230Y-18030174D02*
X20065706Y-18020650D01*
X20065706Y-18020650D02*
X20056182Y-18001603D01*
X20056182Y-18001603D02*
X20056182Y-17992079D01*
X20056182Y-17992079D02*
X20065706Y-17973031D01*
X20065706Y-17973031D02*
X20075230Y-17963508D01*
X20075230Y-17963508D02*
X20094277Y-17953984D01*
X20094277Y-17953984D02*
X20132372Y-17953984D01*
X20132372Y-17953984D02*
X20151420Y-17963508D01*
X20151420Y-17963508D02*
X20160944Y-17973031D01*
X20160944Y-17973031D02*
X20170468Y-17992079D01*
X20170468Y-17992079D02*
X20170468Y-18001603D01*
X20170468Y-18001603D02*
X20160944Y-18020650D01*
X20160944Y-18020650D02*
X20151420Y-18030174D01*
X20151420Y-18030174D02*
X20132372Y-18039698D01*
X20132372Y-18039698D02*
X20094277Y-18039698D01*
X20094277Y-18039698D02*
X20075230Y-18049222D01*
X20075230Y-18049222D02*
X20065706Y-18058746D01*
X20065706Y-18058746D02*
X20056182Y-18077793D01*
X20056182Y-18077793D02*
X20056182Y-18115889D01*
X20056182Y-18115889D02*
X20065706Y-18134936D01*
X20065706Y-18134936D02*
X20075230Y-18144460D01*
X20075230Y-18144460D02*
X20094277Y-18153984D01*
X20094277Y-18153984D02*
X20132372Y-18153984D01*
X20132372Y-18153984D02*
X20151420Y-18144460D01*
X20151420Y-18144460D02*
X20160944Y-18134936D01*
X20160944Y-18134936D02*
X20170468Y-18115889D01*
X20170468Y-18115889D02*
X20170468Y-18077793D01*
X20170468Y-18077793D02*
X20160944Y-18058746D01*
X20160944Y-18058746D02*
X20151420Y-18049222D01*
X20151420Y-18049222D02*
X20132372Y-18039698D01*
X20408563Y-18153984D02*
X20408563Y-17953984D01*
X20494277Y-18153984D02*
X20494277Y-18049222D01*
X20494277Y-18049222D02*
X20484753Y-18030174D01*
X20484753Y-18030174D02*
X20465706Y-18020650D01*
X20465706Y-18020650D02*
X20437134Y-18020650D01*
X20437134Y-18020650D02*
X20418087Y-18030174D01*
X20418087Y-18030174D02*
X20408563Y-18039698D01*
X20618087Y-18153984D02*
X20599039Y-18144460D01*
X20599039Y-18144460D02*
X20589515Y-18134936D01*
X20589515Y-18134936D02*
X20579992Y-18115889D01*
X20579992Y-18115889D02*
X20579992Y-18058746D01*
X20579992Y-18058746D02*
X20589515Y-18039698D01*
X20589515Y-18039698D02*
X20599039Y-18030174D01*
X20599039Y-18030174D02*
X20618087Y-18020650D01*
X20618087Y-18020650D02*
X20646658Y-18020650D01*
X20646658Y-18020650D02*
X20665706Y-18030174D01*
X20665706Y-18030174D02*
X20675230Y-18039698D01*
X20675230Y-18039698D02*
X20684753Y-18058746D01*
X20684753Y-18058746D02*
X20684753Y-18115889D01*
X20684753Y-18115889D02*
X20675230Y-18134936D01*
X20675230Y-18134936D02*
X20665706Y-18144460D01*
X20665706Y-18144460D02*
X20646658Y-18153984D01*
X20646658Y-18153984D02*
X20618087Y-18153984D01*
X20799039Y-18153984D02*
X20779992Y-18144460D01*
X20779992Y-18144460D02*
X20770468Y-18125412D01*
X20770468Y-18125412D02*
X20770468Y-17953984D01*
X20951420Y-18144460D02*
X20932373Y-18153984D01*
X20932373Y-18153984D02*
X20894277Y-18153984D01*
X20894277Y-18153984D02*
X20875230Y-18144460D01*
X20875230Y-18144460D02*
X20865706Y-18125412D01*
X20865706Y-18125412D02*
X20865706Y-18049222D01*
X20865706Y-18049222D02*
X20875230Y-18030174D01*
X20875230Y-18030174D02*
X20894277Y-18020650D01*
X20894277Y-18020650D02*
X20932373Y-18020650D01*
X20932373Y-18020650D02*
X20951420Y-18030174D01*
X20951420Y-18030174D02*
X20960944Y-18049222D01*
X20960944Y-18049222D02*
X20960944Y-18068270D01*
X20960944Y-18068270D02*
X20865706Y-18087317D01*
X21037134Y-18144460D02*
X21056182Y-18153984D01*
X21056182Y-18153984D02*
X21094277Y-18153984D01*
X21094277Y-18153984D02*
X21113325Y-18144460D01*
X21113325Y-18144460D02*
X21122849Y-18125412D01*
X21122849Y-18125412D02*
X21122849Y-18115889D01*
X21122849Y-18115889D02*
X21113325Y-18096841D01*
X21113325Y-18096841D02*
X21094277Y-18087317D01*
X21094277Y-18087317D02*
X21065706Y-18087317D01*
X21065706Y-18087317D02*
X21046658Y-18077793D01*
X21046658Y-18077793D02*
X21037134Y-18058746D01*
X21037134Y-18058746D02*
X21037134Y-18049222D01*
X21037134Y-18049222D02*
X21046658Y-18030174D01*
X21046658Y-18030174D02*
X21065706Y-18020650D01*
X21065706Y-18020650D02*
X21094277Y-18020650D01*
X21094277Y-18020650D02*
X21113325Y-18030174D01*
X21189515Y-18230174D02*
X21199039Y-18220650D01*
X21199039Y-18220650D02*
X21218087Y-18192079D01*
X21218087Y-18192079D02*
X21227611Y-18173031D01*
X21227611Y-18173031D02*
X21237134Y-18144460D01*
X21237134Y-18144460D02*
X21246658Y-18096841D01*
X21246658Y-18096841D02*
X21246658Y-18058746D01*
X21246658Y-18058746D02*
X21237134Y-18011127D01*
X21237134Y-18011127D02*
X21227611Y-17982555D01*
X21227611Y-17982555D02*
X21218087Y-17963508D01*
X21218087Y-17963508D02*
X21199039Y-17934936D01*
X21199039Y-17934936D02*
X21189515Y-17925412D01*
D12*
X16033500Y-18326500D02*
G75*
G02*
X15983500Y-18326500I-25000J0D01*
G01*
X15983500Y-18326500D02*
G75*
G02*
X16033500Y-18326500I25000J0D01*
G01*
D11*
X16332372Y-18217984D02*
X16351420Y-18217984D01*
X16351420Y-18217984D02*
X16370467Y-18227508D01*
X16370467Y-18227508D02*
X16379991Y-18237031D01*
X16379991Y-18237031D02*
X16389515Y-18256079D01*
X16389515Y-18256079D02*
X16399039Y-18294174D01*
X16399039Y-18294174D02*
X16399039Y-18341793D01*
X16399039Y-18341793D02*
X16389515Y-18379889D01*
X16389515Y-18379889D02*
X16379991Y-18398936D01*
X16379991Y-18398936D02*
X16370467Y-18408460D01*
X16370467Y-18408460D02*
X16351420Y-18417984D01*
X16351420Y-18417984D02*
X16332372Y-18417984D01*
X16332372Y-18417984D02*
X16313324Y-18408460D01*
X16313324Y-18408460D02*
X16303801Y-18398936D01*
X16303801Y-18398936D02*
X16294277Y-18379889D01*
X16294277Y-18379889D02*
X16284753Y-18341793D01*
X16284753Y-18341793D02*
X16284753Y-18294174D01*
X16284753Y-18294174D02*
X16294277Y-18256079D01*
X16294277Y-18256079D02*
X16303801Y-18237031D01*
X16303801Y-18237031D02*
X16313324Y-18227508D01*
X16313324Y-18227508D02*
X16332372Y-18217984D01*
X16484753Y-18398936D02*
X16494277Y-18408460D01*
X16494277Y-18408460D02*
X16484753Y-18417984D01*
X16484753Y-18417984D02*
X16475229Y-18408460D01*
X16475229Y-18408460D02*
X16484753Y-18398936D01*
X16484753Y-18398936D02*
X16484753Y-18417984D01*
X16675229Y-18217984D02*
X16579991Y-18217984D01*
X16579991Y-18217984D02*
X16570467Y-18313222D01*
X16570467Y-18313222D02*
X16579991Y-18303698D01*
X16579991Y-18303698D02*
X16599039Y-18294174D01*
X16599039Y-18294174D02*
X16646658Y-18294174D01*
X16646658Y-18294174D02*
X16665705Y-18303698D01*
X16665705Y-18303698D02*
X16675229Y-18313222D01*
X16675229Y-18313222D02*
X16684753Y-18332270D01*
X16684753Y-18332270D02*
X16684753Y-18379889D01*
X16684753Y-18379889D02*
X16675229Y-18398936D01*
X16675229Y-18398936D02*
X16665705Y-18408460D01*
X16665705Y-18408460D02*
X16646658Y-18417984D01*
X16646658Y-18417984D02*
X16599039Y-18417984D01*
X16599039Y-18417984D02*
X16579991Y-18408460D01*
X16579991Y-18408460D02*
X16570467Y-18398936D01*
X16808563Y-18217984D02*
X16827610Y-18217984D01*
X16827610Y-18217984D02*
X16846658Y-18227508D01*
X16846658Y-18227508D02*
X16856182Y-18237031D01*
X16856182Y-18237031D02*
X16865705Y-18256079D01*
X16865705Y-18256079D02*
X16875229Y-18294174D01*
X16875229Y-18294174D02*
X16875229Y-18341793D01*
X16875229Y-18341793D02*
X16865705Y-18379889D01*
X16865705Y-18379889D02*
X16856182Y-18398936D01*
X16856182Y-18398936D02*
X16846658Y-18408460D01*
X16846658Y-18408460D02*
X16827610Y-18417984D01*
X16827610Y-18417984D02*
X16808563Y-18417984D01*
X16808563Y-18417984D02*
X16789515Y-18408460D01*
X16789515Y-18408460D02*
X16779991Y-18398936D01*
X16779991Y-18398936D02*
X16770467Y-18379889D01*
X16770467Y-18379889D02*
X16760943Y-18341793D01*
X16760943Y-18341793D02*
X16760943Y-18294174D01*
X16760943Y-18294174D02*
X16770467Y-18256079D01*
X16770467Y-18256079D02*
X16779991Y-18237031D01*
X16779991Y-18237031D02*
X16789515Y-18227508D01*
X16789515Y-18227508D02*
X16808563Y-18217984D01*
X16999039Y-18217984D02*
X17018086Y-18217984D01*
X17018086Y-18217984D02*
X17037134Y-18227508D01*
X17037134Y-18227508D02*
X17046658Y-18237031D01*
X17046658Y-18237031D02*
X17056182Y-18256079D01*
X17056182Y-18256079D02*
X17065705Y-18294174D01*
X17065705Y-18294174D02*
X17065705Y-18341793D01*
X17065705Y-18341793D02*
X17056182Y-18379889D01*
X17056182Y-18379889D02*
X17046658Y-18398936D01*
X17046658Y-18398936D02*
X17037134Y-18408460D01*
X17037134Y-18408460D02*
X17018086Y-18417984D01*
X17018086Y-18417984D02*
X16999039Y-18417984D01*
X16999039Y-18417984D02*
X16979991Y-18408460D01*
X16979991Y-18408460D02*
X16970467Y-18398936D01*
X16970467Y-18398936D02*
X16960944Y-18379889D01*
X16960944Y-18379889D02*
X16951420Y-18341793D01*
X16951420Y-18341793D02*
X16951420Y-18294174D01*
X16951420Y-18294174D02*
X16960944Y-18256079D01*
X16960944Y-18256079D02*
X16970467Y-18237031D01*
X16970467Y-18237031D02*
X16979991Y-18227508D01*
X16979991Y-18227508D02*
X16999039Y-18217984D01*
X17151420Y-18417984D02*
X17151420Y-18284650D01*
X17151420Y-18303698D02*
X17160944Y-18294174D01*
X17160944Y-18294174D02*
X17179991Y-18284650D01*
X17179991Y-18284650D02*
X17208563Y-18284650D01*
X17208563Y-18284650D02*
X17227610Y-18294174D01*
X17227610Y-18294174D02*
X17237134Y-18313222D01*
X17237134Y-18313222D02*
X17237134Y-18417984D01*
X17237134Y-18313222D02*
X17246658Y-18294174D01*
X17246658Y-18294174D02*
X17265705Y-18284650D01*
X17265705Y-18284650D02*
X17294277Y-18284650D01*
X17294277Y-18284650D02*
X17313325Y-18294174D01*
X17313325Y-18294174D02*
X17322848Y-18313222D01*
X17322848Y-18313222D02*
X17322848Y-18417984D01*
X17418086Y-18417984D02*
X17418086Y-18284650D01*
X17418086Y-18303698D02*
X17427610Y-18294174D01*
X17427610Y-18294174D02*
X17446658Y-18284650D01*
X17446658Y-18284650D02*
X17475229Y-18284650D01*
X17475229Y-18284650D02*
X17494277Y-18294174D01*
X17494277Y-18294174D02*
X17503801Y-18313222D01*
X17503801Y-18313222D02*
X17503801Y-18417984D01*
X17503801Y-18313222D02*
X17513325Y-18294174D01*
X17513325Y-18294174D02*
X17532372Y-18284650D01*
X17532372Y-18284650D02*
X17560944Y-18284650D01*
X17560944Y-18284650D02*
X17579991Y-18294174D01*
X17579991Y-18294174D02*
X17589515Y-18313222D01*
X17589515Y-18313222D02*
X17589515Y-18417984D01*
X17979991Y-18208460D02*
X17808563Y-18465603D01*
X18237134Y-18217984D02*
X18256182Y-18217984D01*
X18256182Y-18217984D02*
X18275229Y-18227508D01*
X18275229Y-18227508D02*
X18284753Y-18237031D01*
X18284753Y-18237031D02*
X18294277Y-18256079D01*
X18294277Y-18256079D02*
X18303801Y-18294174D01*
X18303801Y-18294174D02*
X18303801Y-18341793D01*
X18303801Y-18341793D02*
X18294277Y-18379889D01*
X18294277Y-18379889D02*
X18284753Y-18398936D01*
X18284753Y-18398936D02*
X18275229Y-18408460D01*
X18275229Y-18408460D02*
X18256182Y-18417984D01*
X18256182Y-18417984D02*
X18237134Y-18417984D01*
X18237134Y-18417984D02*
X18218087Y-18408460D01*
X18218087Y-18408460D02*
X18208563Y-18398936D01*
X18208563Y-18398936D02*
X18199039Y-18379889D01*
X18199039Y-18379889D02*
X18189515Y-18341793D01*
X18189515Y-18341793D02*
X18189515Y-18294174D01*
X18189515Y-18294174D02*
X18199039Y-18256079D01*
X18199039Y-18256079D02*
X18208563Y-18237031D01*
X18208563Y-18237031D02*
X18218087Y-18227508D01*
X18218087Y-18227508D02*
X18237134Y-18217984D01*
X18389515Y-18398936D02*
X18399039Y-18408460D01*
X18399039Y-18408460D02*
X18389515Y-18417984D01*
X18389515Y-18417984D02*
X18379991Y-18408460D01*
X18379991Y-18408460D02*
X18389515Y-18398936D01*
X18389515Y-18398936D02*
X18389515Y-18417984D01*
X18522848Y-18217984D02*
X18541896Y-18217984D01*
X18541896Y-18217984D02*
X18560944Y-18227508D01*
X18560944Y-18227508D02*
X18570468Y-18237031D01*
X18570468Y-18237031D02*
X18579991Y-18256079D01*
X18579991Y-18256079D02*
X18589515Y-18294174D01*
X18589515Y-18294174D02*
X18589515Y-18341793D01*
X18589515Y-18341793D02*
X18579991Y-18379889D01*
X18579991Y-18379889D02*
X18570468Y-18398936D01*
X18570468Y-18398936D02*
X18560944Y-18408460D01*
X18560944Y-18408460D02*
X18541896Y-18417984D01*
X18541896Y-18417984D02*
X18522848Y-18417984D01*
X18522848Y-18417984D02*
X18503801Y-18408460D01*
X18503801Y-18408460D02*
X18494277Y-18398936D01*
X18494277Y-18398936D02*
X18484753Y-18379889D01*
X18484753Y-18379889D02*
X18475229Y-18341793D01*
X18475229Y-18341793D02*
X18475229Y-18294174D01*
X18475229Y-18294174D02*
X18484753Y-18256079D01*
X18484753Y-18256079D02*
X18494277Y-18237031D01*
X18494277Y-18237031D02*
X18503801Y-18227508D01*
X18503801Y-18227508D02*
X18522848Y-18217984D01*
X18779991Y-18417984D02*
X18665706Y-18417984D01*
X18722848Y-18417984D02*
X18722848Y-18217984D01*
X18722848Y-18217984D02*
X18703801Y-18246555D01*
X18703801Y-18246555D02*
X18684753Y-18265603D01*
X18684753Y-18265603D02*
X18665706Y-18275127D01*
X18875229Y-18417984D02*
X18913325Y-18417984D01*
X18913325Y-18417984D02*
X18932372Y-18408460D01*
X18932372Y-18408460D02*
X18941896Y-18398936D01*
X18941896Y-18398936D02*
X18960944Y-18370365D01*
X18960944Y-18370365D02*
X18970468Y-18332270D01*
X18970468Y-18332270D02*
X18970468Y-18256079D01*
X18970468Y-18256079D02*
X18960944Y-18237031D01*
X18960944Y-18237031D02*
X18951420Y-18227508D01*
X18951420Y-18227508D02*
X18932372Y-18217984D01*
X18932372Y-18217984D02*
X18894277Y-18217984D01*
X18894277Y-18217984D02*
X18875229Y-18227508D01*
X18875229Y-18227508D02*
X18865706Y-18237031D01*
X18865706Y-18237031D02*
X18856182Y-18256079D01*
X18856182Y-18256079D02*
X18856182Y-18303698D01*
X18856182Y-18303698D02*
X18865706Y-18322746D01*
X18865706Y-18322746D02*
X18875229Y-18332270D01*
X18875229Y-18332270D02*
X18894277Y-18341793D01*
X18894277Y-18341793D02*
X18932372Y-18341793D01*
X18932372Y-18341793D02*
X18951420Y-18332270D01*
X18951420Y-18332270D02*
X18960944Y-18322746D01*
X18960944Y-18322746D02*
X18970468Y-18303698D01*
X19037134Y-18217984D02*
X19170468Y-18217984D01*
X19170468Y-18217984D02*
X19084753Y-18417984D01*
X19237134Y-18217984D02*
X19237134Y-18256079D01*
X19313325Y-18217984D02*
X19313325Y-18256079D01*
X19608563Y-18494174D02*
X19599039Y-18484650D01*
X19599039Y-18484650D02*
X19579991Y-18456079D01*
X19579991Y-18456079D02*
X19570468Y-18437031D01*
X19570468Y-18437031D02*
X19560944Y-18408460D01*
X19560944Y-18408460D02*
X19551420Y-18360841D01*
X19551420Y-18360841D02*
X19551420Y-18322746D01*
X19551420Y-18322746D02*
X19560944Y-18275127D01*
X19560944Y-18275127D02*
X19570468Y-18246555D01*
X19570468Y-18246555D02*
X19579991Y-18227508D01*
X19579991Y-18227508D02*
X19599039Y-18198936D01*
X19599039Y-18198936D02*
X19608563Y-18189412D01*
X19665706Y-18217984D02*
X19789515Y-18217984D01*
X19789515Y-18217984D02*
X19722849Y-18294174D01*
X19722849Y-18294174D02*
X19751420Y-18294174D01*
X19751420Y-18294174D02*
X19770468Y-18303698D01*
X19770468Y-18303698D02*
X19779991Y-18313222D01*
X19779991Y-18313222D02*
X19789515Y-18332270D01*
X19789515Y-18332270D02*
X19789515Y-18379889D01*
X19789515Y-18379889D02*
X19779991Y-18398936D01*
X19779991Y-18398936D02*
X19770468Y-18408460D01*
X19770468Y-18408460D02*
X19751420Y-18417984D01*
X19751420Y-18417984D02*
X19694277Y-18417984D01*
X19694277Y-18417984D02*
X19675230Y-18408460D01*
X19675230Y-18408460D02*
X19665706Y-18398936D01*
X19865706Y-18237031D02*
X19875230Y-18227508D01*
X19875230Y-18227508D02*
X19894277Y-18217984D01*
X19894277Y-18217984D02*
X19941896Y-18217984D01*
X19941896Y-18217984D02*
X19960944Y-18227508D01*
X19960944Y-18227508D02*
X19970468Y-18237031D01*
X19970468Y-18237031D02*
X19979991Y-18256079D01*
X19979991Y-18256079D02*
X19979991Y-18275127D01*
X19979991Y-18275127D02*
X19970468Y-18303698D01*
X19970468Y-18303698D02*
X19856182Y-18417984D01*
X19856182Y-18417984D02*
X19979991Y-18417984D01*
X20218087Y-18417984D02*
X20218087Y-18217984D01*
X20303801Y-18417984D02*
X20303801Y-18313222D01*
X20303801Y-18313222D02*
X20294277Y-18294174D01*
X20294277Y-18294174D02*
X20275230Y-18284650D01*
X20275230Y-18284650D02*
X20246658Y-18284650D01*
X20246658Y-18284650D02*
X20227611Y-18294174D01*
X20227611Y-18294174D02*
X20218087Y-18303698D01*
X20427611Y-18417984D02*
X20408563Y-18408460D01*
X20408563Y-18408460D02*
X20399039Y-18398936D01*
X20399039Y-18398936D02*
X20389515Y-18379889D01*
X20389515Y-18379889D02*
X20389515Y-18322746D01*
X20389515Y-18322746D02*
X20399039Y-18303698D01*
X20399039Y-18303698D02*
X20408563Y-18294174D01*
X20408563Y-18294174D02*
X20427611Y-18284650D01*
X20427611Y-18284650D02*
X20456182Y-18284650D01*
X20456182Y-18284650D02*
X20475230Y-18294174D01*
X20475230Y-18294174D02*
X20484753Y-18303698D01*
X20484753Y-18303698D02*
X20494277Y-18322746D01*
X20494277Y-18322746D02*
X20494277Y-18379889D01*
X20494277Y-18379889D02*
X20484753Y-18398936D01*
X20484753Y-18398936D02*
X20475230Y-18408460D01*
X20475230Y-18408460D02*
X20456182Y-18417984D01*
X20456182Y-18417984D02*
X20427611Y-18417984D01*
X20608563Y-18417984D02*
X20589515Y-18408460D01*
X20589515Y-18408460D02*
X20579992Y-18389412D01*
X20579992Y-18389412D02*
X20579992Y-18217984D01*
X20760944Y-18408460D02*
X20741896Y-18417984D01*
X20741896Y-18417984D02*
X20703801Y-18417984D01*
X20703801Y-18417984D02*
X20684753Y-18408460D01*
X20684753Y-18408460D02*
X20675230Y-18389412D01*
X20675230Y-18389412D02*
X20675230Y-18313222D01*
X20675230Y-18313222D02*
X20684753Y-18294174D01*
X20684753Y-18294174D02*
X20703801Y-18284650D01*
X20703801Y-18284650D02*
X20741896Y-18284650D01*
X20741896Y-18284650D02*
X20760944Y-18294174D01*
X20760944Y-18294174D02*
X20770468Y-18313222D01*
X20770468Y-18313222D02*
X20770468Y-18332270D01*
X20770468Y-18332270D02*
X20675230Y-18351317D01*
X20846658Y-18408460D02*
X20865706Y-18417984D01*
X20865706Y-18417984D02*
X20903801Y-18417984D01*
X20903801Y-18417984D02*
X20922849Y-18408460D01*
X20922849Y-18408460D02*
X20932373Y-18389412D01*
X20932373Y-18389412D02*
X20932373Y-18379889D01*
X20932373Y-18379889D02*
X20922849Y-18360841D01*
X20922849Y-18360841D02*
X20903801Y-18351317D01*
X20903801Y-18351317D02*
X20875230Y-18351317D01*
X20875230Y-18351317D02*
X20856182Y-18341793D01*
X20856182Y-18341793D02*
X20846658Y-18322746D01*
X20846658Y-18322746D02*
X20846658Y-18313222D01*
X20846658Y-18313222D02*
X20856182Y-18294174D01*
X20856182Y-18294174D02*
X20875230Y-18284650D01*
X20875230Y-18284650D02*
X20903801Y-18284650D01*
X20903801Y-18284650D02*
X20922849Y-18294174D01*
X20999039Y-18494174D02*
X21008563Y-18484650D01*
X21008563Y-18484650D02*
X21027611Y-18456079D01*
X21027611Y-18456079D02*
X21037134Y-18437031D01*
X21037134Y-18437031D02*
X21046658Y-18408460D01*
X21046658Y-18408460D02*
X21056182Y-18360841D01*
X21056182Y-18360841D02*
X21056182Y-18322746D01*
X21056182Y-18322746D02*
X21046658Y-18275127D01*
X21046658Y-18275127D02*
X21037134Y-18246555D01*
X21037134Y-18246555D02*
X21027611Y-18227508D01*
X21027611Y-18227508D02*
X21008563Y-18198936D01*
X21008563Y-18198936D02*
X20999039Y-18189412D01*
D12*
X16003500Y-18560500D02*
X16003500Y-18620500D01*
X15973500Y-18590500D02*
X16033500Y-18590500D01*
D11*
X16332372Y-18481984D02*
X16351420Y-18481984D01*
X16351420Y-18481984D02*
X16370467Y-18491508D01*
X16370467Y-18491508D02*
X16379991Y-18501031D01*
X16379991Y-18501031D02*
X16389515Y-18520079D01*
X16389515Y-18520079D02*
X16399039Y-18558174D01*
X16399039Y-18558174D02*
X16399039Y-18605793D01*
X16399039Y-18605793D02*
X16389515Y-18643889D01*
X16389515Y-18643889D02*
X16379991Y-18662936D01*
X16379991Y-18662936D02*
X16370467Y-18672460D01*
X16370467Y-18672460D02*
X16351420Y-18681984D01*
X16351420Y-18681984D02*
X16332372Y-18681984D01*
X16332372Y-18681984D02*
X16313324Y-18672460D01*
X16313324Y-18672460D02*
X16303801Y-18662936D01*
X16303801Y-18662936D02*
X16294277Y-18643889D01*
X16294277Y-18643889D02*
X16284753Y-18605793D01*
X16284753Y-18605793D02*
X16284753Y-18558174D01*
X16284753Y-18558174D02*
X16294277Y-18520079D01*
X16294277Y-18520079D02*
X16303801Y-18501031D01*
X16303801Y-18501031D02*
X16313324Y-18491508D01*
X16313324Y-18491508D02*
X16332372Y-18481984D01*
X16484753Y-18662936D02*
X16494277Y-18672460D01*
X16494277Y-18672460D02*
X16484753Y-18681984D01*
X16484753Y-18681984D02*
X16475229Y-18672460D01*
X16475229Y-18672460D02*
X16484753Y-18662936D01*
X16484753Y-18662936D02*
X16484753Y-18681984D01*
X16665705Y-18481984D02*
X16627610Y-18481984D01*
X16627610Y-18481984D02*
X16608562Y-18491508D01*
X16608562Y-18491508D02*
X16599039Y-18501031D01*
X16599039Y-18501031D02*
X16579991Y-18529603D01*
X16579991Y-18529603D02*
X16570467Y-18567698D01*
X16570467Y-18567698D02*
X16570467Y-18643889D01*
X16570467Y-18643889D02*
X16579991Y-18662936D01*
X16579991Y-18662936D02*
X16589515Y-18672460D01*
X16589515Y-18672460D02*
X16608562Y-18681984D01*
X16608562Y-18681984D02*
X16646658Y-18681984D01*
X16646658Y-18681984D02*
X16665705Y-18672460D01*
X16665705Y-18672460D02*
X16675229Y-18662936D01*
X16675229Y-18662936D02*
X16684753Y-18643889D01*
X16684753Y-18643889D02*
X16684753Y-18596270D01*
X16684753Y-18596270D02*
X16675229Y-18577222D01*
X16675229Y-18577222D02*
X16665705Y-18567698D01*
X16665705Y-18567698D02*
X16646658Y-18558174D01*
X16646658Y-18558174D02*
X16608562Y-18558174D01*
X16608562Y-18558174D02*
X16589515Y-18567698D01*
X16589515Y-18567698D02*
X16579991Y-18577222D01*
X16579991Y-18577222D02*
X16570467Y-18596270D01*
X16808563Y-18481984D02*
X16827610Y-18481984D01*
X16827610Y-18481984D02*
X16846658Y-18491508D01*
X16846658Y-18491508D02*
X16856182Y-18501031D01*
X16856182Y-18501031D02*
X16865705Y-18520079D01*
X16865705Y-18520079D02*
X16875229Y-18558174D01*
X16875229Y-18558174D02*
X16875229Y-18605793D01*
X16875229Y-18605793D02*
X16865705Y-18643889D01*
X16865705Y-18643889D02*
X16856182Y-18662936D01*
X16856182Y-18662936D02*
X16846658Y-18672460D01*
X16846658Y-18672460D02*
X16827610Y-18681984D01*
X16827610Y-18681984D02*
X16808563Y-18681984D01*
X16808563Y-18681984D02*
X16789515Y-18672460D01*
X16789515Y-18672460D02*
X16779991Y-18662936D01*
X16779991Y-18662936D02*
X16770467Y-18643889D01*
X16770467Y-18643889D02*
X16760943Y-18605793D01*
X16760943Y-18605793D02*
X16760943Y-18558174D01*
X16760943Y-18558174D02*
X16770467Y-18520079D01*
X16770467Y-18520079D02*
X16779991Y-18501031D01*
X16779991Y-18501031D02*
X16789515Y-18491508D01*
X16789515Y-18491508D02*
X16808563Y-18481984D01*
X16999039Y-18481984D02*
X17018086Y-18481984D01*
X17018086Y-18481984D02*
X17037134Y-18491508D01*
X17037134Y-18491508D02*
X17046658Y-18501031D01*
X17046658Y-18501031D02*
X17056182Y-18520079D01*
X17056182Y-18520079D02*
X17065705Y-18558174D01*
X17065705Y-18558174D02*
X17065705Y-18605793D01*
X17065705Y-18605793D02*
X17056182Y-18643889D01*
X17056182Y-18643889D02*
X17046658Y-18662936D01*
X17046658Y-18662936D02*
X17037134Y-18672460D01*
X17037134Y-18672460D02*
X17018086Y-18681984D01*
X17018086Y-18681984D02*
X16999039Y-18681984D01*
X16999039Y-18681984D02*
X16979991Y-18672460D01*
X16979991Y-18672460D02*
X16970467Y-18662936D01*
X16970467Y-18662936D02*
X16960944Y-18643889D01*
X16960944Y-18643889D02*
X16951420Y-18605793D01*
X16951420Y-18605793D02*
X16951420Y-18558174D01*
X16951420Y-18558174D02*
X16960944Y-18520079D01*
X16960944Y-18520079D02*
X16970467Y-18501031D01*
X16970467Y-18501031D02*
X16979991Y-18491508D01*
X16979991Y-18491508D02*
X16999039Y-18481984D01*
X17151420Y-18681984D02*
X17151420Y-18548650D01*
X17151420Y-18567698D02*
X17160944Y-18558174D01*
X17160944Y-18558174D02*
X17179991Y-18548650D01*
X17179991Y-18548650D02*
X17208563Y-18548650D01*
X17208563Y-18548650D02*
X17227610Y-18558174D01*
X17227610Y-18558174D02*
X17237134Y-18577222D01*
X17237134Y-18577222D02*
X17237134Y-18681984D01*
X17237134Y-18577222D02*
X17246658Y-18558174D01*
X17246658Y-18558174D02*
X17265705Y-18548650D01*
X17265705Y-18548650D02*
X17294277Y-18548650D01*
X17294277Y-18548650D02*
X17313325Y-18558174D01*
X17313325Y-18558174D02*
X17322848Y-18577222D01*
X17322848Y-18577222D02*
X17322848Y-18681984D01*
X17418086Y-18681984D02*
X17418086Y-18548650D01*
X17418086Y-18567698D02*
X17427610Y-18558174D01*
X17427610Y-18558174D02*
X17446658Y-18548650D01*
X17446658Y-18548650D02*
X17475229Y-18548650D01*
X17475229Y-18548650D02*
X17494277Y-18558174D01*
X17494277Y-18558174D02*
X17503801Y-18577222D01*
X17503801Y-18577222D02*
X17503801Y-18681984D01*
X17503801Y-18577222D02*
X17513325Y-18558174D01*
X17513325Y-18558174D02*
X17532372Y-18548650D01*
X17532372Y-18548650D02*
X17560944Y-18548650D01*
X17560944Y-18548650D02*
X17579991Y-18558174D01*
X17579991Y-18558174D02*
X17589515Y-18577222D01*
X17589515Y-18577222D02*
X17589515Y-18681984D01*
X17979991Y-18472460D02*
X17808563Y-18729603D01*
X18237134Y-18481984D02*
X18256182Y-18481984D01*
X18256182Y-18481984D02*
X18275229Y-18491508D01*
X18275229Y-18491508D02*
X18284753Y-18501031D01*
X18284753Y-18501031D02*
X18294277Y-18520079D01*
X18294277Y-18520079D02*
X18303801Y-18558174D01*
X18303801Y-18558174D02*
X18303801Y-18605793D01*
X18303801Y-18605793D02*
X18294277Y-18643889D01*
X18294277Y-18643889D02*
X18284753Y-18662936D01*
X18284753Y-18662936D02*
X18275229Y-18672460D01*
X18275229Y-18672460D02*
X18256182Y-18681984D01*
X18256182Y-18681984D02*
X18237134Y-18681984D01*
X18237134Y-18681984D02*
X18218087Y-18672460D01*
X18218087Y-18672460D02*
X18208563Y-18662936D01*
X18208563Y-18662936D02*
X18199039Y-18643889D01*
X18199039Y-18643889D02*
X18189515Y-18605793D01*
X18189515Y-18605793D02*
X18189515Y-18558174D01*
X18189515Y-18558174D02*
X18199039Y-18520079D01*
X18199039Y-18520079D02*
X18208563Y-18501031D01*
X18208563Y-18501031D02*
X18218087Y-18491508D01*
X18218087Y-18491508D02*
X18237134Y-18481984D01*
X18389515Y-18662936D02*
X18399039Y-18672460D01*
X18399039Y-18672460D02*
X18389515Y-18681984D01*
X18389515Y-18681984D02*
X18379991Y-18672460D01*
X18379991Y-18672460D02*
X18389515Y-18662936D01*
X18389515Y-18662936D02*
X18389515Y-18681984D01*
X18522848Y-18481984D02*
X18541896Y-18481984D01*
X18541896Y-18481984D02*
X18560944Y-18491508D01*
X18560944Y-18491508D02*
X18570468Y-18501031D01*
X18570468Y-18501031D02*
X18579991Y-18520079D01*
X18579991Y-18520079D02*
X18589515Y-18558174D01*
X18589515Y-18558174D02*
X18589515Y-18605793D01*
X18589515Y-18605793D02*
X18579991Y-18643889D01*
X18579991Y-18643889D02*
X18570468Y-18662936D01*
X18570468Y-18662936D02*
X18560944Y-18672460D01*
X18560944Y-18672460D02*
X18541896Y-18681984D01*
X18541896Y-18681984D02*
X18522848Y-18681984D01*
X18522848Y-18681984D02*
X18503801Y-18672460D01*
X18503801Y-18672460D02*
X18494277Y-18662936D01*
X18494277Y-18662936D02*
X18484753Y-18643889D01*
X18484753Y-18643889D02*
X18475229Y-18605793D01*
X18475229Y-18605793D02*
X18475229Y-18558174D01*
X18475229Y-18558174D02*
X18484753Y-18520079D01*
X18484753Y-18520079D02*
X18494277Y-18501031D01*
X18494277Y-18501031D02*
X18503801Y-18491508D01*
X18503801Y-18491508D02*
X18522848Y-18481984D01*
X18665706Y-18501031D02*
X18675229Y-18491508D01*
X18675229Y-18491508D02*
X18694277Y-18481984D01*
X18694277Y-18481984D02*
X18741896Y-18481984D01*
X18741896Y-18481984D02*
X18760944Y-18491508D01*
X18760944Y-18491508D02*
X18770468Y-18501031D01*
X18770468Y-18501031D02*
X18779991Y-18520079D01*
X18779991Y-18520079D02*
X18779991Y-18539127D01*
X18779991Y-18539127D02*
X18770468Y-18567698D01*
X18770468Y-18567698D02*
X18656182Y-18681984D01*
X18656182Y-18681984D02*
X18779991Y-18681984D01*
X18846658Y-18481984D02*
X18970468Y-18481984D01*
X18970468Y-18481984D02*
X18903801Y-18558174D01*
X18903801Y-18558174D02*
X18932372Y-18558174D01*
X18932372Y-18558174D02*
X18951420Y-18567698D01*
X18951420Y-18567698D02*
X18960944Y-18577222D01*
X18960944Y-18577222D02*
X18970468Y-18596270D01*
X18970468Y-18596270D02*
X18970468Y-18643889D01*
X18970468Y-18643889D02*
X18960944Y-18662936D01*
X18960944Y-18662936D02*
X18951420Y-18672460D01*
X18951420Y-18672460D02*
X18932372Y-18681984D01*
X18932372Y-18681984D02*
X18875229Y-18681984D01*
X18875229Y-18681984D02*
X18856182Y-18672460D01*
X18856182Y-18672460D02*
X18846658Y-18662936D01*
X19141896Y-18481984D02*
X19103801Y-18481984D01*
X19103801Y-18481984D02*
X19084753Y-18491508D01*
X19084753Y-18491508D02*
X19075229Y-18501031D01*
X19075229Y-18501031D02*
X19056182Y-18529603D01*
X19056182Y-18529603D02*
X19046658Y-18567698D01*
X19046658Y-18567698D02*
X19046658Y-18643889D01*
X19046658Y-18643889D02*
X19056182Y-18662936D01*
X19056182Y-18662936D02*
X19065706Y-18672460D01*
X19065706Y-18672460D02*
X19084753Y-18681984D01*
X19084753Y-18681984D02*
X19122849Y-18681984D01*
X19122849Y-18681984D02*
X19141896Y-18672460D01*
X19141896Y-18672460D02*
X19151420Y-18662936D01*
X19151420Y-18662936D02*
X19160944Y-18643889D01*
X19160944Y-18643889D02*
X19160944Y-18596270D01*
X19160944Y-18596270D02*
X19151420Y-18577222D01*
X19151420Y-18577222D02*
X19141896Y-18567698D01*
X19141896Y-18567698D02*
X19122849Y-18558174D01*
X19122849Y-18558174D02*
X19084753Y-18558174D01*
X19084753Y-18558174D02*
X19065706Y-18567698D01*
X19065706Y-18567698D02*
X19056182Y-18577222D01*
X19056182Y-18577222D02*
X19046658Y-18596270D01*
X19237134Y-18481984D02*
X19237134Y-18520079D01*
X19313325Y-18481984D02*
X19313325Y-18520079D01*
X19608563Y-18758174D02*
X19599039Y-18748650D01*
X19599039Y-18748650D02*
X19579991Y-18720079D01*
X19579991Y-18720079D02*
X19570468Y-18701031D01*
X19570468Y-18701031D02*
X19560944Y-18672460D01*
X19560944Y-18672460D02*
X19551420Y-18624841D01*
X19551420Y-18624841D02*
X19551420Y-18586746D01*
X19551420Y-18586746D02*
X19560944Y-18539127D01*
X19560944Y-18539127D02*
X19570468Y-18510555D01*
X19570468Y-18510555D02*
X19579991Y-18491508D01*
X19579991Y-18491508D02*
X19599039Y-18462936D01*
X19599039Y-18462936D02*
X19608563Y-18453412D01*
X19722849Y-18481984D02*
X19741896Y-18481984D01*
X19741896Y-18481984D02*
X19760944Y-18491508D01*
X19760944Y-18491508D02*
X19770468Y-18501031D01*
X19770468Y-18501031D02*
X19779991Y-18520079D01*
X19779991Y-18520079D02*
X19789515Y-18558174D01*
X19789515Y-18558174D02*
X19789515Y-18605793D01*
X19789515Y-18605793D02*
X19779991Y-18643889D01*
X19779991Y-18643889D02*
X19770468Y-18662936D01*
X19770468Y-18662936D02*
X19760944Y-18672460D01*
X19760944Y-18672460D02*
X19741896Y-18681984D01*
X19741896Y-18681984D02*
X19722849Y-18681984D01*
X19722849Y-18681984D02*
X19703801Y-18672460D01*
X19703801Y-18672460D02*
X19694277Y-18662936D01*
X19694277Y-18662936D02*
X19684753Y-18643889D01*
X19684753Y-18643889D02*
X19675230Y-18605793D01*
X19675230Y-18605793D02*
X19675230Y-18558174D01*
X19675230Y-18558174D02*
X19684753Y-18520079D01*
X19684753Y-18520079D02*
X19694277Y-18501031D01*
X19694277Y-18501031D02*
X19703801Y-18491508D01*
X19703801Y-18491508D02*
X19722849Y-18481984D01*
X20027611Y-18681984D02*
X20027611Y-18481984D01*
X20113325Y-18681984D02*
X20113325Y-18577222D01*
X20113325Y-18577222D02*
X20103801Y-18558174D01*
X20103801Y-18558174D02*
X20084753Y-18548650D01*
X20084753Y-18548650D02*
X20056182Y-18548650D01*
X20056182Y-18548650D02*
X20037134Y-18558174D01*
X20037134Y-18558174D02*
X20027611Y-18567698D01*
X20237134Y-18681984D02*
X20218087Y-18672460D01*
X20218087Y-18672460D02*
X20208563Y-18662936D01*
X20208563Y-18662936D02*
X20199039Y-18643889D01*
X20199039Y-18643889D02*
X20199039Y-18586746D01*
X20199039Y-18586746D02*
X20208563Y-18567698D01*
X20208563Y-18567698D02*
X20218087Y-18558174D01*
X20218087Y-18558174D02*
X20237134Y-18548650D01*
X20237134Y-18548650D02*
X20265706Y-18548650D01*
X20265706Y-18548650D02*
X20284753Y-18558174D01*
X20284753Y-18558174D02*
X20294277Y-18567698D01*
X20294277Y-18567698D02*
X20303801Y-18586746D01*
X20303801Y-18586746D02*
X20303801Y-18643889D01*
X20303801Y-18643889D02*
X20294277Y-18662936D01*
X20294277Y-18662936D02*
X20284753Y-18672460D01*
X20284753Y-18672460D02*
X20265706Y-18681984D01*
X20265706Y-18681984D02*
X20237134Y-18681984D01*
X20418087Y-18681984D02*
X20399039Y-18672460D01*
X20399039Y-18672460D02*
X20389515Y-18653412D01*
X20389515Y-18653412D02*
X20389515Y-18481984D01*
X20570468Y-18672460D02*
X20551420Y-18681984D01*
X20551420Y-18681984D02*
X20513325Y-18681984D01*
X20513325Y-18681984D02*
X20494277Y-18672460D01*
X20494277Y-18672460D02*
X20484753Y-18653412D01*
X20484753Y-18653412D02*
X20484753Y-18577222D01*
X20484753Y-18577222D02*
X20494277Y-18558174D01*
X20494277Y-18558174D02*
X20513325Y-18548650D01*
X20513325Y-18548650D02*
X20551420Y-18548650D01*
X20551420Y-18548650D02*
X20570468Y-18558174D01*
X20570468Y-18558174D02*
X20579992Y-18577222D01*
X20579992Y-18577222D02*
X20579992Y-18596270D01*
X20579992Y-18596270D02*
X20484753Y-18615317D01*
X20656182Y-18672460D02*
X20675230Y-18681984D01*
X20675230Y-18681984D02*
X20713325Y-18681984D01*
X20713325Y-18681984D02*
X20732373Y-18672460D01*
X20732373Y-18672460D02*
X20741896Y-18653412D01*
X20741896Y-18653412D02*
X20741896Y-18643889D01*
X20741896Y-18643889D02*
X20732373Y-18624841D01*
X20732373Y-18624841D02*
X20713325Y-18615317D01*
X20713325Y-18615317D02*
X20684753Y-18615317D01*
X20684753Y-18615317D02*
X20665706Y-18605793D01*
X20665706Y-18605793D02*
X20656182Y-18586746D01*
X20656182Y-18586746D02*
X20656182Y-18577222D01*
X20656182Y-18577222D02*
X20665706Y-18558174D01*
X20665706Y-18558174D02*
X20684753Y-18548650D01*
X20684753Y-18548650D02*
X20713325Y-18548650D01*
X20713325Y-18548650D02*
X20732373Y-18558174D01*
X20979992Y-18605793D02*
X21132373Y-18605793D01*
X21056182Y-18681984D02*
X21056182Y-18529603D01*
X21370468Y-18501031D02*
X21379992Y-18491508D01*
X21379992Y-18491508D02*
X21399039Y-18481984D01*
X21399039Y-18481984D02*
X21446658Y-18481984D01*
X21446658Y-18481984D02*
X21465706Y-18491508D01*
X21465706Y-18491508D02*
X21475230Y-18501031D01*
X21475230Y-18501031D02*
X21484754Y-18520079D01*
X21484754Y-18520079D02*
X21484754Y-18539127D01*
X21484754Y-18539127D02*
X21475230Y-18567698D01*
X21475230Y-18567698D02*
X21360944Y-18681984D01*
X21360944Y-18681984D02*
X21484754Y-18681984D01*
X21713325Y-18672460D02*
X21732373Y-18681984D01*
X21732373Y-18681984D02*
X21770468Y-18681984D01*
X21770468Y-18681984D02*
X21789516Y-18672460D01*
X21789516Y-18672460D02*
X21799039Y-18653412D01*
X21799039Y-18653412D02*
X21799039Y-18643889D01*
X21799039Y-18643889D02*
X21789516Y-18624841D01*
X21789516Y-18624841D02*
X21770468Y-18615317D01*
X21770468Y-18615317D02*
X21741896Y-18615317D01*
X21741896Y-18615317D02*
X21722849Y-18605793D01*
X21722849Y-18605793D02*
X21713325Y-18586746D01*
X21713325Y-18586746D02*
X21713325Y-18577222D01*
X21713325Y-18577222D02*
X21722849Y-18558174D01*
X21722849Y-18558174D02*
X21741896Y-18548650D01*
X21741896Y-18548650D02*
X21770468Y-18548650D01*
X21770468Y-18548650D02*
X21789516Y-18558174D01*
X21913325Y-18681984D02*
X21894277Y-18672460D01*
X21894277Y-18672460D02*
X21884754Y-18653412D01*
X21884754Y-18653412D02*
X21884754Y-18481984D01*
X22018087Y-18681984D02*
X21999039Y-18672460D01*
X21999039Y-18672460D02*
X21989516Y-18662936D01*
X21989516Y-18662936D02*
X21979992Y-18643889D01*
X21979992Y-18643889D02*
X21979992Y-18586746D01*
X21979992Y-18586746D02*
X21989516Y-18567698D01*
X21989516Y-18567698D02*
X21999039Y-18558174D01*
X21999039Y-18558174D02*
X22018087Y-18548650D01*
X22018087Y-18548650D02*
X22046658Y-18548650D01*
X22046658Y-18548650D02*
X22065706Y-18558174D01*
X22065706Y-18558174D02*
X22075230Y-18567698D01*
X22075230Y-18567698D02*
X22084754Y-18586746D01*
X22084754Y-18586746D02*
X22084754Y-18643889D01*
X22084754Y-18643889D02*
X22075230Y-18662936D01*
X22075230Y-18662936D02*
X22065706Y-18672460D01*
X22065706Y-18672460D02*
X22046658Y-18681984D01*
X22046658Y-18681984D02*
X22018087Y-18681984D01*
X22141897Y-18548650D02*
X22218087Y-18548650D01*
X22170468Y-18481984D02*
X22170468Y-18653412D01*
X22170468Y-18653412D02*
X22179992Y-18672460D01*
X22179992Y-18672460D02*
X22199039Y-18681984D01*
X22199039Y-18681984D02*
X22218087Y-18681984D01*
X22275230Y-18672460D02*
X22294277Y-18681984D01*
X22294277Y-18681984D02*
X22332373Y-18681984D01*
X22332373Y-18681984D02*
X22351420Y-18672460D01*
X22351420Y-18672460D02*
X22360944Y-18653412D01*
X22360944Y-18653412D02*
X22360944Y-18643889D01*
X22360944Y-18643889D02*
X22351420Y-18624841D01*
X22351420Y-18624841D02*
X22332373Y-18615317D01*
X22332373Y-18615317D02*
X22303801Y-18615317D01*
X22303801Y-18615317D02*
X22284754Y-18605793D01*
X22284754Y-18605793D02*
X22275230Y-18586746D01*
X22275230Y-18586746D02*
X22275230Y-18577222D01*
X22275230Y-18577222D02*
X22284754Y-18558174D01*
X22284754Y-18558174D02*
X22303801Y-18548650D01*
X22303801Y-18548650D02*
X22332373Y-18548650D01*
X22332373Y-18548650D02*
X22351420Y-18558174D01*
X22427611Y-18758174D02*
X22437135Y-18748650D01*
X22437135Y-18748650D02*
X22456182Y-18720079D01*
X22456182Y-18720079D02*
X22465706Y-18701031D01*
X22465706Y-18701031D02*
X22475230Y-18672460D01*
X22475230Y-18672460D02*
X22484754Y-18624841D01*
X22484754Y-18624841D02*
X22484754Y-18586746D01*
X22484754Y-18586746D02*
X22475230Y-18539127D01*
X22475230Y-18539127D02*
X22465706Y-18510555D01*
X22465706Y-18510555D02*
X22456182Y-18491508D01*
X22456182Y-18491508D02*
X22437135Y-18462936D01*
X22437135Y-18462936D02*
X22427611Y-18453412D01*
D12*
X16021784Y-18882785D02*
X16021784Y-18826216D01*
X15965215Y-18826216D01*
X15965215Y-18882785D01*
X16021784Y-18882785D01*
D11*
X16332372Y-18745984D02*
X16351420Y-18745984D01*
X16351420Y-18745984D02*
X16370467Y-18755508D01*
X16370467Y-18755508D02*
X16379991Y-18765031D01*
X16379991Y-18765031D02*
X16389515Y-18784079D01*
X16389515Y-18784079D02*
X16399039Y-18822174D01*
X16399039Y-18822174D02*
X16399039Y-18869793D01*
X16399039Y-18869793D02*
X16389515Y-18907889D01*
X16389515Y-18907889D02*
X16379991Y-18926936D01*
X16379991Y-18926936D02*
X16370467Y-18936460D01*
X16370467Y-18936460D02*
X16351420Y-18945984D01*
X16351420Y-18945984D02*
X16332372Y-18945984D01*
X16332372Y-18945984D02*
X16313324Y-18936460D01*
X16313324Y-18936460D02*
X16303801Y-18926936D01*
X16303801Y-18926936D02*
X16294277Y-18907889D01*
X16294277Y-18907889D02*
X16284753Y-18869793D01*
X16284753Y-18869793D02*
X16284753Y-18822174D01*
X16284753Y-18822174D02*
X16294277Y-18784079D01*
X16294277Y-18784079D02*
X16303801Y-18765031D01*
X16303801Y-18765031D02*
X16313324Y-18755508D01*
X16313324Y-18755508D02*
X16332372Y-18745984D01*
X16484753Y-18926936D02*
X16494277Y-18936460D01*
X16494277Y-18936460D02*
X16484753Y-18945984D01*
X16484753Y-18945984D02*
X16475229Y-18936460D01*
X16475229Y-18936460D02*
X16484753Y-18926936D01*
X16484753Y-18926936D02*
X16484753Y-18945984D01*
X16608562Y-18831698D02*
X16589515Y-18822174D01*
X16589515Y-18822174D02*
X16579991Y-18812650D01*
X16579991Y-18812650D02*
X16570467Y-18793603D01*
X16570467Y-18793603D02*
X16570467Y-18784079D01*
X16570467Y-18784079D02*
X16579991Y-18765031D01*
X16579991Y-18765031D02*
X16589515Y-18755508D01*
X16589515Y-18755508D02*
X16608562Y-18745984D01*
X16608562Y-18745984D02*
X16646658Y-18745984D01*
X16646658Y-18745984D02*
X16665705Y-18755508D01*
X16665705Y-18755508D02*
X16675229Y-18765031D01*
X16675229Y-18765031D02*
X16684753Y-18784079D01*
X16684753Y-18784079D02*
X16684753Y-18793603D01*
X16684753Y-18793603D02*
X16675229Y-18812650D01*
X16675229Y-18812650D02*
X16665705Y-18822174D01*
X16665705Y-18822174D02*
X16646658Y-18831698D01*
X16646658Y-18831698D02*
X16608562Y-18831698D01*
X16608562Y-18831698D02*
X16589515Y-18841222D01*
X16589515Y-18841222D02*
X16579991Y-18850746D01*
X16579991Y-18850746D02*
X16570467Y-18869793D01*
X16570467Y-18869793D02*
X16570467Y-18907889D01*
X16570467Y-18907889D02*
X16579991Y-18926936D01*
X16579991Y-18926936D02*
X16589515Y-18936460D01*
X16589515Y-18936460D02*
X16608562Y-18945984D01*
X16608562Y-18945984D02*
X16646658Y-18945984D01*
X16646658Y-18945984D02*
X16665705Y-18936460D01*
X16665705Y-18936460D02*
X16675229Y-18926936D01*
X16675229Y-18926936D02*
X16684753Y-18907889D01*
X16684753Y-18907889D02*
X16684753Y-18869793D01*
X16684753Y-18869793D02*
X16675229Y-18850746D01*
X16675229Y-18850746D02*
X16665705Y-18841222D01*
X16665705Y-18841222D02*
X16646658Y-18831698D01*
X16808563Y-18745984D02*
X16827610Y-18745984D01*
X16827610Y-18745984D02*
X16846658Y-18755508D01*
X16846658Y-18755508D02*
X16856182Y-18765031D01*
X16856182Y-18765031D02*
X16865705Y-18784079D01*
X16865705Y-18784079D02*
X16875229Y-18822174D01*
X16875229Y-18822174D02*
X16875229Y-18869793D01*
X16875229Y-18869793D02*
X16865705Y-18907889D01*
X16865705Y-18907889D02*
X16856182Y-18926936D01*
X16856182Y-18926936D02*
X16846658Y-18936460D01*
X16846658Y-18936460D02*
X16827610Y-18945984D01*
X16827610Y-18945984D02*
X16808563Y-18945984D01*
X16808563Y-18945984D02*
X16789515Y-18936460D01*
X16789515Y-18936460D02*
X16779991Y-18926936D01*
X16779991Y-18926936D02*
X16770467Y-18907889D01*
X16770467Y-18907889D02*
X16760943Y-18869793D01*
X16760943Y-18869793D02*
X16760943Y-18822174D01*
X16760943Y-18822174D02*
X16770467Y-18784079D01*
X16770467Y-18784079D02*
X16779991Y-18765031D01*
X16779991Y-18765031D02*
X16789515Y-18755508D01*
X16789515Y-18755508D02*
X16808563Y-18745984D01*
X16999039Y-18745984D02*
X17018086Y-18745984D01*
X17018086Y-18745984D02*
X17037134Y-18755508D01*
X17037134Y-18755508D02*
X17046658Y-18765031D01*
X17046658Y-18765031D02*
X17056182Y-18784079D01*
X17056182Y-18784079D02*
X17065705Y-18822174D01*
X17065705Y-18822174D02*
X17065705Y-18869793D01*
X17065705Y-18869793D02*
X17056182Y-18907889D01*
X17056182Y-18907889D02*
X17046658Y-18926936D01*
X17046658Y-18926936D02*
X17037134Y-18936460D01*
X17037134Y-18936460D02*
X17018086Y-18945984D01*
X17018086Y-18945984D02*
X16999039Y-18945984D01*
X16999039Y-18945984D02*
X16979991Y-18936460D01*
X16979991Y-18936460D02*
X16970467Y-18926936D01*
X16970467Y-18926936D02*
X16960944Y-18907889D01*
X16960944Y-18907889D02*
X16951420Y-18869793D01*
X16951420Y-18869793D02*
X16951420Y-18822174D01*
X16951420Y-18822174D02*
X16960944Y-18784079D01*
X16960944Y-18784079D02*
X16970467Y-18765031D01*
X16970467Y-18765031D02*
X16979991Y-18755508D01*
X16979991Y-18755508D02*
X16999039Y-18745984D01*
X17151420Y-18945984D02*
X17151420Y-18812650D01*
X17151420Y-18831698D02*
X17160944Y-18822174D01*
X17160944Y-18822174D02*
X17179991Y-18812650D01*
X17179991Y-18812650D02*
X17208563Y-18812650D01*
X17208563Y-18812650D02*
X17227610Y-18822174D01*
X17227610Y-18822174D02*
X17237134Y-18841222D01*
X17237134Y-18841222D02*
X17237134Y-18945984D01*
X17237134Y-18841222D02*
X17246658Y-18822174D01*
X17246658Y-18822174D02*
X17265705Y-18812650D01*
X17265705Y-18812650D02*
X17294277Y-18812650D01*
X17294277Y-18812650D02*
X17313325Y-18822174D01*
X17313325Y-18822174D02*
X17322848Y-18841222D01*
X17322848Y-18841222D02*
X17322848Y-18945984D01*
X17418086Y-18945984D02*
X17418086Y-18812650D01*
X17418086Y-18831698D02*
X17427610Y-18822174D01*
X17427610Y-18822174D02*
X17446658Y-18812650D01*
X17446658Y-18812650D02*
X17475229Y-18812650D01*
X17475229Y-18812650D02*
X17494277Y-18822174D01*
X17494277Y-18822174D02*
X17503801Y-18841222D01*
X17503801Y-18841222D02*
X17503801Y-18945984D01*
X17503801Y-18841222D02*
X17513325Y-18822174D01*
X17513325Y-18822174D02*
X17532372Y-18812650D01*
X17532372Y-18812650D02*
X17560944Y-18812650D01*
X17560944Y-18812650D02*
X17579991Y-18822174D01*
X17579991Y-18822174D02*
X17589515Y-18841222D01*
X17589515Y-18841222D02*
X17589515Y-18945984D01*
X17979991Y-18736460D02*
X17808563Y-18993603D01*
X18237134Y-18745984D02*
X18256182Y-18745984D01*
X18256182Y-18745984D02*
X18275229Y-18755508D01*
X18275229Y-18755508D02*
X18284753Y-18765031D01*
X18284753Y-18765031D02*
X18294277Y-18784079D01*
X18294277Y-18784079D02*
X18303801Y-18822174D01*
X18303801Y-18822174D02*
X18303801Y-18869793D01*
X18303801Y-18869793D02*
X18294277Y-18907889D01*
X18294277Y-18907889D02*
X18284753Y-18926936D01*
X18284753Y-18926936D02*
X18275229Y-18936460D01*
X18275229Y-18936460D02*
X18256182Y-18945984D01*
X18256182Y-18945984D02*
X18237134Y-18945984D01*
X18237134Y-18945984D02*
X18218087Y-18936460D01*
X18218087Y-18936460D02*
X18208563Y-18926936D01*
X18208563Y-18926936D02*
X18199039Y-18907889D01*
X18199039Y-18907889D02*
X18189515Y-18869793D01*
X18189515Y-18869793D02*
X18189515Y-18822174D01*
X18189515Y-18822174D02*
X18199039Y-18784079D01*
X18199039Y-18784079D02*
X18208563Y-18765031D01*
X18208563Y-18765031D02*
X18218087Y-18755508D01*
X18218087Y-18755508D02*
X18237134Y-18745984D01*
X18389515Y-18926936D02*
X18399039Y-18936460D01*
X18399039Y-18936460D02*
X18389515Y-18945984D01*
X18389515Y-18945984D02*
X18379991Y-18936460D01*
X18379991Y-18936460D02*
X18389515Y-18926936D01*
X18389515Y-18926936D02*
X18389515Y-18945984D01*
X18522848Y-18745984D02*
X18541896Y-18745984D01*
X18541896Y-18745984D02*
X18560944Y-18755508D01*
X18560944Y-18755508D02*
X18570468Y-18765031D01*
X18570468Y-18765031D02*
X18579991Y-18784079D01*
X18579991Y-18784079D02*
X18589515Y-18822174D01*
X18589515Y-18822174D02*
X18589515Y-18869793D01*
X18589515Y-18869793D02*
X18579991Y-18907889D01*
X18579991Y-18907889D02*
X18570468Y-18926936D01*
X18570468Y-18926936D02*
X18560944Y-18936460D01*
X18560944Y-18936460D02*
X18541896Y-18945984D01*
X18541896Y-18945984D02*
X18522848Y-18945984D01*
X18522848Y-18945984D02*
X18503801Y-18936460D01*
X18503801Y-18936460D02*
X18494277Y-18926936D01*
X18494277Y-18926936D02*
X18484753Y-18907889D01*
X18484753Y-18907889D02*
X18475229Y-18869793D01*
X18475229Y-18869793D02*
X18475229Y-18822174D01*
X18475229Y-18822174D02*
X18484753Y-18784079D01*
X18484753Y-18784079D02*
X18494277Y-18765031D01*
X18494277Y-18765031D02*
X18503801Y-18755508D01*
X18503801Y-18755508D02*
X18522848Y-18745984D01*
X18656182Y-18745984D02*
X18779991Y-18745984D01*
X18779991Y-18745984D02*
X18713325Y-18822174D01*
X18713325Y-18822174D02*
X18741896Y-18822174D01*
X18741896Y-18822174D02*
X18760944Y-18831698D01*
X18760944Y-18831698D02*
X18770468Y-18841222D01*
X18770468Y-18841222D02*
X18779991Y-18860270D01*
X18779991Y-18860270D02*
X18779991Y-18907889D01*
X18779991Y-18907889D02*
X18770468Y-18926936D01*
X18770468Y-18926936D02*
X18760944Y-18936460D01*
X18760944Y-18936460D02*
X18741896Y-18945984D01*
X18741896Y-18945984D02*
X18684753Y-18945984D01*
X18684753Y-18945984D02*
X18665706Y-18936460D01*
X18665706Y-18936460D02*
X18656182Y-18926936D01*
X18970468Y-18945984D02*
X18856182Y-18945984D01*
X18913325Y-18945984D02*
X18913325Y-18745984D01*
X18913325Y-18745984D02*
X18894277Y-18774555D01*
X18894277Y-18774555D02*
X18875229Y-18793603D01*
X18875229Y-18793603D02*
X18856182Y-18803127D01*
X19151420Y-18745984D02*
X19056182Y-18745984D01*
X19056182Y-18745984D02*
X19046658Y-18841222D01*
X19046658Y-18841222D02*
X19056182Y-18831698D01*
X19056182Y-18831698D02*
X19075229Y-18822174D01*
X19075229Y-18822174D02*
X19122849Y-18822174D01*
X19122849Y-18822174D02*
X19141896Y-18831698D01*
X19141896Y-18831698D02*
X19151420Y-18841222D01*
X19151420Y-18841222D02*
X19160944Y-18860270D01*
X19160944Y-18860270D02*
X19160944Y-18907889D01*
X19160944Y-18907889D02*
X19151420Y-18926936D01*
X19151420Y-18926936D02*
X19141896Y-18936460D01*
X19141896Y-18936460D02*
X19122849Y-18945984D01*
X19122849Y-18945984D02*
X19075229Y-18945984D01*
X19075229Y-18945984D02*
X19056182Y-18936460D01*
X19056182Y-18936460D02*
X19046658Y-18926936D01*
X19237134Y-18745984D02*
X19237134Y-18784079D01*
X19313325Y-18745984D02*
X19313325Y-18784079D01*
X19608563Y-19022174D02*
X19599039Y-19012650D01*
X19599039Y-19012650D02*
X19579991Y-18984079D01*
X19579991Y-18984079D02*
X19570468Y-18965031D01*
X19570468Y-18965031D02*
X19560944Y-18936460D01*
X19560944Y-18936460D02*
X19551420Y-18888841D01*
X19551420Y-18888841D02*
X19551420Y-18850746D01*
X19551420Y-18850746D02*
X19560944Y-18803127D01*
X19560944Y-18803127D02*
X19570468Y-18774555D01*
X19570468Y-18774555D02*
X19579991Y-18755508D01*
X19579991Y-18755508D02*
X19599039Y-18726936D01*
X19599039Y-18726936D02*
X19608563Y-18717412D01*
X19722849Y-18745984D02*
X19741896Y-18745984D01*
X19741896Y-18745984D02*
X19760944Y-18755508D01*
X19760944Y-18755508D02*
X19770468Y-18765031D01*
X19770468Y-18765031D02*
X19779991Y-18784079D01*
X19779991Y-18784079D02*
X19789515Y-18822174D01*
X19789515Y-18822174D02*
X19789515Y-18869793D01*
X19789515Y-18869793D02*
X19779991Y-18907889D01*
X19779991Y-18907889D02*
X19770468Y-18926936D01*
X19770468Y-18926936D02*
X19760944Y-18936460D01*
X19760944Y-18936460D02*
X19741896Y-18945984D01*
X19741896Y-18945984D02*
X19722849Y-18945984D01*
X19722849Y-18945984D02*
X19703801Y-18936460D01*
X19703801Y-18936460D02*
X19694277Y-18926936D01*
X19694277Y-18926936D02*
X19684753Y-18907889D01*
X19684753Y-18907889D02*
X19675230Y-18869793D01*
X19675230Y-18869793D02*
X19675230Y-18822174D01*
X19675230Y-18822174D02*
X19684753Y-18784079D01*
X19684753Y-18784079D02*
X19694277Y-18765031D01*
X19694277Y-18765031D02*
X19703801Y-18755508D01*
X19703801Y-18755508D02*
X19722849Y-18745984D01*
X20027611Y-18945984D02*
X20027611Y-18745984D01*
X20113325Y-18945984D02*
X20113325Y-18841222D01*
X20113325Y-18841222D02*
X20103801Y-18822174D01*
X20103801Y-18822174D02*
X20084753Y-18812650D01*
X20084753Y-18812650D02*
X20056182Y-18812650D01*
X20056182Y-18812650D02*
X20037134Y-18822174D01*
X20037134Y-18822174D02*
X20027611Y-18831698D01*
X20237134Y-18945984D02*
X20218087Y-18936460D01*
X20218087Y-18936460D02*
X20208563Y-18926936D01*
X20208563Y-18926936D02*
X20199039Y-18907889D01*
X20199039Y-18907889D02*
X20199039Y-18850746D01*
X20199039Y-18850746D02*
X20208563Y-18831698D01*
X20208563Y-18831698D02*
X20218087Y-18822174D01*
X20218087Y-18822174D02*
X20237134Y-18812650D01*
X20237134Y-18812650D02*
X20265706Y-18812650D01*
X20265706Y-18812650D02*
X20284753Y-18822174D01*
X20284753Y-18822174D02*
X20294277Y-18831698D01*
X20294277Y-18831698D02*
X20303801Y-18850746D01*
X20303801Y-18850746D02*
X20303801Y-18907889D01*
X20303801Y-18907889D02*
X20294277Y-18926936D01*
X20294277Y-18926936D02*
X20284753Y-18936460D01*
X20284753Y-18936460D02*
X20265706Y-18945984D01*
X20265706Y-18945984D02*
X20237134Y-18945984D01*
X20418087Y-18945984D02*
X20399039Y-18936460D01*
X20399039Y-18936460D02*
X20389515Y-18917412D01*
X20389515Y-18917412D02*
X20389515Y-18745984D01*
X20570468Y-18936460D02*
X20551420Y-18945984D01*
X20551420Y-18945984D02*
X20513325Y-18945984D01*
X20513325Y-18945984D02*
X20494277Y-18936460D01*
X20494277Y-18936460D02*
X20484753Y-18917412D01*
X20484753Y-18917412D02*
X20484753Y-18841222D01*
X20484753Y-18841222D02*
X20494277Y-18822174D01*
X20494277Y-18822174D02*
X20513325Y-18812650D01*
X20513325Y-18812650D02*
X20551420Y-18812650D01*
X20551420Y-18812650D02*
X20570468Y-18822174D01*
X20570468Y-18822174D02*
X20579992Y-18841222D01*
X20579992Y-18841222D02*
X20579992Y-18860270D01*
X20579992Y-18860270D02*
X20484753Y-18879317D01*
X20656182Y-18936460D02*
X20675230Y-18945984D01*
X20675230Y-18945984D02*
X20713325Y-18945984D01*
X20713325Y-18945984D02*
X20732373Y-18936460D01*
X20732373Y-18936460D02*
X20741896Y-18917412D01*
X20741896Y-18917412D02*
X20741896Y-18907889D01*
X20741896Y-18907889D02*
X20732373Y-18888841D01*
X20732373Y-18888841D02*
X20713325Y-18879317D01*
X20713325Y-18879317D02*
X20684753Y-18879317D01*
X20684753Y-18879317D02*
X20665706Y-18869793D01*
X20665706Y-18869793D02*
X20656182Y-18850746D01*
X20656182Y-18850746D02*
X20656182Y-18841222D01*
X20656182Y-18841222D02*
X20665706Y-18822174D01*
X20665706Y-18822174D02*
X20684753Y-18812650D01*
X20684753Y-18812650D02*
X20713325Y-18812650D01*
X20713325Y-18812650D02*
X20732373Y-18822174D01*
X20979992Y-18869793D02*
X21132373Y-18869793D01*
X21056182Y-18945984D02*
X21056182Y-18793603D01*
X21465706Y-18812650D02*
X21465706Y-18945984D01*
X21418087Y-18736460D02*
X21370468Y-18879317D01*
X21370468Y-18879317D02*
X21494277Y-18879317D01*
X21713325Y-18936460D02*
X21732373Y-18945984D01*
X21732373Y-18945984D02*
X21770468Y-18945984D01*
X21770468Y-18945984D02*
X21789516Y-18936460D01*
X21789516Y-18936460D02*
X21799039Y-18917412D01*
X21799039Y-18917412D02*
X21799039Y-18907889D01*
X21799039Y-18907889D02*
X21789516Y-18888841D01*
X21789516Y-18888841D02*
X21770468Y-18879317D01*
X21770468Y-18879317D02*
X21741896Y-18879317D01*
X21741896Y-18879317D02*
X21722849Y-18869793D01*
X21722849Y-18869793D02*
X21713325Y-18850746D01*
X21713325Y-18850746D02*
X21713325Y-18841222D01*
X21713325Y-18841222D02*
X21722849Y-18822174D01*
X21722849Y-18822174D02*
X21741896Y-18812650D01*
X21741896Y-18812650D02*
X21770468Y-18812650D01*
X21770468Y-18812650D02*
X21789516Y-18822174D01*
X21913325Y-18945984D02*
X21894277Y-18936460D01*
X21894277Y-18936460D02*
X21884754Y-18917412D01*
X21884754Y-18917412D02*
X21884754Y-18745984D01*
X22018087Y-18945984D02*
X21999039Y-18936460D01*
X21999039Y-18936460D02*
X21989516Y-18926936D01*
X21989516Y-18926936D02*
X21979992Y-18907889D01*
X21979992Y-18907889D02*
X21979992Y-18850746D01*
X21979992Y-18850746D02*
X21989516Y-18831698D01*
X21989516Y-18831698D02*
X21999039Y-18822174D01*
X21999039Y-18822174D02*
X22018087Y-18812650D01*
X22018087Y-18812650D02*
X22046658Y-18812650D01*
X22046658Y-18812650D02*
X22065706Y-18822174D01*
X22065706Y-18822174D02*
X22075230Y-18831698D01*
X22075230Y-18831698D02*
X22084754Y-18850746D01*
X22084754Y-18850746D02*
X22084754Y-18907889D01*
X22084754Y-18907889D02*
X22075230Y-18926936D01*
X22075230Y-18926936D02*
X22065706Y-18936460D01*
X22065706Y-18936460D02*
X22046658Y-18945984D01*
X22046658Y-18945984D02*
X22018087Y-18945984D01*
X22141897Y-18812650D02*
X22218087Y-18812650D01*
X22170468Y-18745984D02*
X22170468Y-18917412D01*
X22170468Y-18917412D02*
X22179992Y-18936460D01*
X22179992Y-18936460D02*
X22199039Y-18945984D01*
X22199039Y-18945984D02*
X22218087Y-18945984D01*
X22275230Y-18936460D02*
X22294277Y-18945984D01*
X22294277Y-18945984D02*
X22332373Y-18945984D01*
X22332373Y-18945984D02*
X22351420Y-18936460D01*
X22351420Y-18936460D02*
X22360944Y-18917412D01*
X22360944Y-18917412D02*
X22360944Y-18907889D01*
X22360944Y-18907889D02*
X22351420Y-18888841D01*
X22351420Y-18888841D02*
X22332373Y-18879317D01*
X22332373Y-18879317D02*
X22303801Y-18879317D01*
X22303801Y-18879317D02*
X22284754Y-18869793D01*
X22284754Y-18869793D02*
X22275230Y-18850746D01*
X22275230Y-18850746D02*
X22275230Y-18841222D01*
X22275230Y-18841222D02*
X22284754Y-18822174D01*
X22284754Y-18822174D02*
X22303801Y-18812650D01*
X22303801Y-18812650D02*
X22332373Y-18812650D01*
X22332373Y-18812650D02*
X22351420Y-18822174D01*
X22427611Y-19022174D02*
X22437135Y-19012650D01*
X22437135Y-19012650D02*
X22456182Y-18984079D01*
X22456182Y-18984079D02*
X22465706Y-18965031D01*
X22465706Y-18965031D02*
X22475230Y-18936460D01*
X22475230Y-18936460D02*
X22484754Y-18888841D01*
X22484754Y-18888841D02*
X22484754Y-18850746D01*
X22484754Y-18850746D02*
X22475230Y-18803127D01*
X22475230Y-18803127D02*
X22465706Y-18774555D01*
X22465706Y-18774555D02*
X22456182Y-18755508D01*
X22456182Y-18755508D02*
X22437135Y-18726936D01*
X22437135Y-18726936D02*
X22427611Y-18717412D01*
D13*
X15973500Y-19178500D02*
X16033500Y-19118500D01*
X15973500Y-19058500D01*
X15913500Y-19118500D01*
X15973500Y-19178500D01*
D11*
X16399039Y-19209984D02*
X16284753Y-19209984D01*
X16341896Y-19209984D02*
X16341896Y-19009984D01*
X16341896Y-19009984D02*
X16322848Y-19038555D01*
X16322848Y-19038555D02*
X16303801Y-19057603D01*
X16303801Y-19057603D02*
X16284753Y-19067127D01*
X16484753Y-19190936D02*
X16494277Y-19200460D01*
X16494277Y-19200460D02*
X16484753Y-19209984D01*
X16484753Y-19209984D02*
X16475229Y-19200460D01*
X16475229Y-19200460D02*
X16484753Y-19190936D01*
X16484753Y-19190936D02*
X16484753Y-19209984D01*
X16570467Y-19029031D02*
X16579991Y-19019508D01*
X16579991Y-19019508D02*
X16599039Y-19009984D01*
X16599039Y-19009984D02*
X16646658Y-19009984D01*
X16646658Y-19009984D02*
X16665705Y-19019508D01*
X16665705Y-19019508D02*
X16675229Y-19029031D01*
X16675229Y-19029031D02*
X16684753Y-19048079D01*
X16684753Y-19048079D02*
X16684753Y-19067127D01*
X16684753Y-19067127D02*
X16675229Y-19095698D01*
X16675229Y-19095698D02*
X16560943Y-19209984D01*
X16560943Y-19209984D02*
X16684753Y-19209984D01*
X16808563Y-19009984D02*
X16827610Y-19009984D01*
X16827610Y-19009984D02*
X16846658Y-19019508D01*
X16846658Y-19019508D02*
X16856182Y-19029031D01*
X16856182Y-19029031D02*
X16865705Y-19048079D01*
X16865705Y-19048079D02*
X16875229Y-19086174D01*
X16875229Y-19086174D02*
X16875229Y-19133793D01*
X16875229Y-19133793D02*
X16865705Y-19171889D01*
X16865705Y-19171889D02*
X16856182Y-19190936D01*
X16856182Y-19190936D02*
X16846658Y-19200460D01*
X16846658Y-19200460D02*
X16827610Y-19209984D01*
X16827610Y-19209984D02*
X16808563Y-19209984D01*
X16808563Y-19209984D02*
X16789515Y-19200460D01*
X16789515Y-19200460D02*
X16779991Y-19190936D01*
X16779991Y-19190936D02*
X16770467Y-19171889D01*
X16770467Y-19171889D02*
X16760943Y-19133793D01*
X16760943Y-19133793D02*
X16760943Y-19086174D01*
X16760943Y-19086174D02*
X16770467Y-19048079D01*
X16770467Y-19048079D02*
X16779991Y-19029031D01*
X16779991Y-19029031D02*
X16789515Y-19019508D01*
X16789515Y-19019508D02*
X16808563Y-19009984D01*
X16999039Y-19009984D02*
X17018086Y-19009984D01*
X17018086Y-19009984D02*
X17037134Y-19019508D01*
X17037134Y-19019508D02*
X17046658Y-19029031D01*
X17046658Y-19029031D02*
X17056182Y-19048079D01*
X17056182Y-19048079D02*
X17065705Y-19086174D01*
X17065705Y-19086174D02*
X17065705Y-19133793D01*
X17065705Y-19133793D02*
X17056182Y-19171889D01*
X17056182Y-19171889D02*
X17046658Y-19190936D01*
X17046658Y-19190936D02*
X17037134Y-19200460D01*
X17037134Y-19200460D02*
X17018086Y-19209984D01*
X17018086Y-19209984D02*
X16999039Y-19209984D01*
X16999039Y-19209984D02*
X16979991Y-19200460D01*
X16979991Y-19200460D02*
X16970467Y-19190936D01*
X16970467Y-19190936D02*
X16960944Y-19171889D01*
X16960944Y-19171889D02*
X16951420Y-19133793D01*
X16951420Y-19133793D02*
X16951420Y-19086174D01*
X16951420Y-19086174D02*
X16960944Y-19048079D01*
X16960944Y-19048079D02*
X16970467Y-19029031D01*
X16970467Y-19029031D02*
X16979991Y-19019508D01*
X16979991Y-19019508D02*
X16999039Y-19009984D01*
X17151420Y-19209984D02*
X17151420Y-19076650D01*
X17151420Y-19095698D02*
X17160944Y-19086174D01*
X17160944Y-19086174D02*
X17179991Y-19076650D01*
X17179991Y-19076650D02*
X17208563Y-19076650D01*
X17208563Y-19076650D02*
X17227610Y-19086174D01*
X17227610Y-19086174D02*
X17237134Y-19105222D01*
X17237134Y-19105222D02*
X17237134Y-19209984D01*
X17237134Y-19105222D02*
X17246658Y-19086174D01*
X17246658Y-19086174D02*
X17265705Y-19076650D01*
X17265705Y-19076650D02*
X17294277Y-19076650D01*
X17294277Y-19076650D02*
X17313325Y-19086174D01*
X17313325Y-19086174D02*
X17322848Y-19105222D01*
X17322848Y-19105222D02*
X17322848Y-19209984D01*
X17418086Y-19209984D02*
X17418086Y-19076650D01*
X17418086Y-19095698D02*
X17427610Y-19086174D01*
X17427610Y-19086174D02*
X17446658Y-19076650D01*
X17446658Y-19076650D02*
X17475229Y-19076650D01*
X17475229Y-19076650D02*
X17494277Y-19086174D01*
X17494277Y-19086174D02*
X17503801Y-19105222D01*
X17503801Y-19105222D02*
X17503801Y-19209984D01*
X17503801Y-19105222D02*
X17513325Y-19086174D01*
X17513325Y-19086174D02*
X17532372Y-19076650D01*
X17532372Y-19076650D02*
X17560944Y-19076650D01*
X17560944Y-19076650D02*
X17579991Y-19086174D01*
X17579991Y-19086174D02*
X17589515Y-19105222D01*
X17589515Y-19105222D02*
X17589515Y-19209984D01*
X17979991Y-19000460D02*
X17808563Y-19257603D01*
X18237134Y-19009984D02*
X18256182Y-19009984D01*
X18256182Y-19009984D02*
X18275229Y-19019508D01*
X18275229Y-19019508D02*
X18284753Y-19029031D01*
X18284753Y-19029031D02*
X18294277Y-19048079D01*
X18294277Y-19048079D02*
X18303801Y-19086174D01*
X18303801Y-19086174D02*
X18303801Y-19133793D01*
X18303801Y-19133793D02*
X18294277Y-19171889D01*
X18294277Y-19171889D02*
X18284753Y-19190936D01*
X18284753Y-19190936D02*
X18275229Y-19200460D01*
X18275229Y-19200460D02*
X18256182Y-19209984D01*
X18256182Y-19209984D02*
X18237134Y-19209984D01*
X18237134Y-19209984D02*
X18218087Y-19200460D01*
X18218087Y-19200460D02*
X18208563Y-19190936D01*
X18208563Y-19190936D02*
X18199039Y-19171889D01*
X18199039Y-19171889D02*
X18189515Y-19133793D01*
X18189515Y-19133793D02*
X18189515Y-19086174D01*
X18189515Y-19086174D02*
X18199039Y-19048079D01*
X18199039Y-19048079D02*
X18208563Y-19029031D01*
X18208563Y-19029031D02*
X18218087Y-19019508D01*
X18218087Y-19019508D02*
X18237134Y-19009984D01*
X18389515Y-19190936D02*
X18399039Y-19200460D01*
X18399039Y-19200460D02*
X18389515Y-19209984D01*
X18389515Y-19209984D02*
X18379991Y-19200460D01*
X18379991Y-19200460D02*
X18389515Y-19190936D01*
X18389515Y-19190936D02*
X18389515Y-19209984D01*
X18522848Y-19009984D02*
X18541896Y-19009984D01*
X18541896Y-19009984D02*
X18560944Y-19019508D01*
X18560944Y-19019508D02*
X18570468Y-19029031D01*
X18570468Y-19029031D02*
X18579991Y-19048079D01*
X18579991Y-19048079D02*
X18589515Y-19086174D01*
X18589515Y-19086174D02*
X18589515Y-19133793D01*
X18589515Y-19133793D02*
X18579991Y-19171889D01*
X18579991Y-19171889D02*
X18570468Y-19190936D01*
X18570468Y-19190936D02*
X18560944Y-19200460D01*
X18560944Y-19200460D02*
X18541896Y-19209984D01*
X18541896Y-19209984D02*
X18522848Y-19209984D01*
X18522848Y-19209984D02*
X18503801Y-19200460D01*
X18503801Y-19200460D02*
X18494277Y-19190936D01*
X18494277Y-19190936D02*
X18484753Y-19171889D01*
X18484753Y-19171889D02*
X18475229Y-19133793D01*
X18475229Y-19133793D02*
X18475229Y-19086174D01*
X18475229Y-19086174D02*
X18484753Y-19048079D01*
X18484753Y-19048079D02*
X18494277Y-19029031D01*
X18494277Y-19029031D02*
X18503801Y-19019508D01*
X18503801Y-19019508D02*
X18522848Y-19009984D01*
X18760944Y-19076650D02*
X18760944Y-19209984D01*
X18713325Y-19000460D02*
X18665706Y-19143317D01*
X18665706Y-19143317D02*
X18789515Y-19143317D01*
X18846658Y-19009984D02*
X18979991Y-19009984D01*
X18979991Y-19009984D02*
X18894277Y-19209984D01*
X19046658Y-19029031D02*
X19056182Y-19019508D01*
X19056182Y-19019508D02*
X19075229Y-19009984D01*
X19075229Y-19009984D02*
X19122849Y-19009984D01*
X19122849Y-19009984D02*
X19141896Y-19019508D01*
X19141896Y-19019508D02*
X19151420Y-19029031D01*
X19151420Y-19029031D02*
X19160944Y-19048079D01*
X19160944Y-19048079D02*
X19160944Y-19067127D01*
X19160944Y-19067127D02*
X19151420Y-19095698D01*
X19151420Y-19095698D02*
X19037134Y-19209984D01*
X19037134Y-19209984D02*
X19160944Y-19209984D01*
X19237134Y-19009984D02*
X19237134Y-19048079D01*
X19313325Y-19009984D02*
X19313325Y-19048079D01*
X19608563Y-19286174D02*
X19599039Y-19276650D01*
X19599039Y-19276650D02*
X19579991Y-19248079D01*
X19579991Y-19248079D02*
X19570468Y-19229031D01*
X19570468Y-19229031D02*
X19560944Y-19200460D01*
X19560944Y-19200460D02*
X19551420Y-19152841D01*
X19551420Y-19152841D02*
X19551420Y-19114746D01*
X19551420Y-19114746D02*
X19560944Y-19067127D01*
X19560944Y-19067127D02*
X19570468Y-19038555D01*
X19570468Y-19038555D02*
X19579991Y-19019508D01*
X19579991Y-19019508D02*
X19599039Y-18990936D01*
X19599039Y-18990936D02*
X19608563Y-18981412D01*
X19770468Y-19009984D02*
X19732372Y-19009984D01*
X19732372Y-19009984D02*
X19713325Y-19019508D01*
X19713325Y-19019508D02*
X19703801Y-19029031D01*
X19703801Y-19029031D02*
X19684753Y-19057603D01*
X19684753Y-19057603D02*
X19675230Y-19095698D01*
X19675230Y-19095698D02*
X19675230Y-19171889D01*
X19675230Y-19171889D02*
X19684753Y-19190936D01*
X19684753Y-19190936D02*
X19694277Y-19200460D01*
X19694277Y-19200460D02*
X19713325Y-19209984D01*
X19713325Y-19209984D02*
X19751420Y-19209984D01*
X19751420Y-19209984D02*
X19770468Y-19200460D01*
X19770468Y-19200460D02*
X19779991Y-19190936D01*
X19779991Y-19190936D02*
X19789515Y-19171889D01*
X19789515Y-19171889D02*
X19789515Y-19124270D01*
X19789515Y-19124270D02*
X19779991Y-19105222D01*
X19779991Y-19105222D02*
X19770468Y-19095698D01*
X19770468Y-19095698D02*
X19751420Y-19086174D01*
X19751420Y-19086174D02*
X19713325Y-19086174D01*
X19713325Y-19086174D02*
X19694277Y-19095698D01*
X19694277Y-19095698D02*
X19684753Y-19105222D01*
X19684753Y-19105222D02*
X19675230Y-19124270D01*
X20027611Y-19209984D02*
X20027611Y-19009984D01*
X20113325Y-19209984D02*
X20113325Y-19105222D01*
X20113325Y-19105222D02*
X20103801Y-19086174D01*
X20103801Y-19086174D02*
X20084753Y-19076650D01*
X20084753Y-19076650D02*
X20056182Y-19076650D01*
X20056182Y-19076650D02*
X20037134Y-19086174D01*
X20037134Y-19086174D02*
X20027611Y-19095698D01*
X20237134Y-19209984D02*
X20218087Y-19200460D01*
X20218087Y-19200460D02*
X20208563Y-19190936D01*
X20208563Y-19190936D02*
X20199039Y-19171889D01*
X20199039Y-19171889D02*
X20199039Y-19114746D01*
X20199039Y-19114746D02*
X20208563Y-19095698D01*
X20208563Y-19095698D02*
X20218087Y-19086174D01*
X20218087Y-19086174D02*
X20237134Y-19076650D01*
X20237134Y-19076650D02*
X20265706Y-19076650D01*
X20265706Y-19076650D02*
X20284753Y-19086174D01*
X20284753Y-19086174D02*
X20294277Y-19095698D01*
X20294277Y-19095698D02*
X20303801Y-19114746D01*
X20303801Y-19114746D02*
X20303801Y-19171889D01*
X20303801Y-19171889D02*
X20294277Y-19190936D01*
X20294277Y-19190936D02*
X20284753Y-19200460D01*
X20284753Y-19200460D02*
X20265706Y-19209984D01*
X20265706Y-19209984D02*
X20237134Y-19209984D01*
X20418087Y-19209984D02*
X20399039Y-19200460D01*
X20399039Y-19200460D02*
X20389515Y-19181412D01*
X20389515Y-19181412D02*
X20389515Y-19009984D01*
X20570468Y-19200460D02*
X20551420Y-19209984D01*
X20551420Y-19209984D02*
X20513325Y-19209984D01*
X20513325Y-19209984D02*
X20494277Y-19200460D01*
X20494277Y-19200460D02*
X20484753Y-19181412D01*
X20484753Y-19181412D02*
X20484753Y-19105222D01*
X20484753Y-19105222D02*
X20494277Y-19086174D01*
X20494277Y-19086174D02*
X20513325Y-19076650D01*
X20513325Y-19076650D02*
X20551420Y-19076650D01*
X20551420Y-19076650D02*
X20570468Y-19086174D01*
X20570468Y-19086174D02*
X20579992Y-19105222D01*
X20579992Y-19105222D02*
X20579992Y-19124270D01*
X20579992Y-19124270D02*
X20484753Y-19143317D01*
X20656182Y-19200460D02*
X20675230Y-19209984D01*
X20675230Y-19209984D02*
X20713325Y-19209984D01*
X20713325Y-19209984D02*
X20732373Y-19200460D01*
X20732373Y-19200460D02*
X20741896Y-19181412D01*
X20741896Y-19181412D02*
X20741896Y-19171889D01*
X20741896Y-19171889D02*
X20732373Y-19152841D01*
X20732373Y-19152841D02*
X20713325Y-19143317D01*
X20713325Y-19143317D02*
X20684753Y-19143317D01*
X20684753Y-19143317D02*
X20665706Y-19133793D01*
X20665706Y-19133793D02*
X20656182Y-19114746D01*
X20656182Y-19114746D02*
X20656182Y-19105222D01*
X20656182Y-19105222D02*
X20665706Y-19086174D01*
X20665706Y-19086174D02*
X20684753Y-19076650D01*
X20684753Y-19076650D02*
X20713325Y-19076650D01*
X20713325Y-19076650D02*
X20732373Y-19086174D01*
X20808563Y-19286174D02*
X20818087Y-19276650D01*
X20818087Y-19276650D02*
X20837134Y-19248079D01*
X20837134Y-19248079D02*
X20846658Y-19229031D01*
X20846658Y-19229031D02*
X20856182Y-19200460D01*
X20856182Y-19200460D02*
X20865706Y-19152841D01*
X20865706Y-19152841D02*
X20865706Y-19114746D01*
X20865706Y-19114746D02*
X20856182Y-19067127D01*
X20856182Y-19067127D02*
X20846658Y-19038555D01*
X20846658Y-19038555D02*
X20837134Y-19019508D01*
X20837134Y-19019508D02*
X20818087Y-18990936D01*
X20818087Y-18990936D02*
X20808563Y-18981412D01*
D14*
X15881000Y-19306250D02*
X16033500Y-19458750D01*
X16033500Y-19306250D02*
X15881000Y-19458750D01*
X16033500Y-19382500D02*
G75*
G02*
X15881000Y-19382500I-76250J0D01*
G01*
X15881000Y-19382500D02*
G75*
G02*
X16033500Y-19382500I76250J0D01*
G01*
D11*
X16399039Y-19473984D02*
X16284753Y-19473984D01*
X16341896Y-19473984D02*
X16341896Y-19273984D01*
X16341896Y-19273984D02*
X16322848Y-19302555D01*
X16322848Y-19302555D02*
X16303801Y-19321603D01*
X16303801Y-19321603D02*
X16284753Y-19331127D01*
X16484753Y-19454936D02*
X16494277Y-19464460D01*
X16494277Y-19464460D02*
X16484753Y-19473984D01*
X16484753Y-19473984D02*
X16475229Y-19464460D01*
X16475229Y-19464460D02*
X16484753Y-19454936D01*
X16484753Y-19454936D02*
X16484753Y-19473984D01*
X16675229Y-19273984D02*
X16579991Y-19273984D01*
X16579991Y-19273984D02*
X16570467Y-19369222D01*
X16570467Y-19369222D02*
X16579991Y-19359698D01*
X16579991Y-19359698D02*
X16599039Y-19350174D01*
X16599039Y-19350174D02*
X16646658Y-19350174D01*
X16646658Y-19350174D02*
X16665705Y-19359698D01*
X16665705Y-19359698D02*
X16675229Y-19369222D01*
X16675229Y-19369222D02*
X16684753Y-19388270D01*
X16684753Y-19388270D02*
X16684753Y-19435889D01*
X16684753Y-19435889D02*
X16675229Y-19454936D01*
X16675229Y-19454936D02*
X16665705Y-19464460D01*
X16665705Y-19464460D02*
X16646658Y-19473984D01*
X16646658Y-19473984D02*
X16599039Y-19473984D01*
X16599039Y-19473984D02*
X16579991Y-19464460D01*
X16579991Y-19464460D02*
X16570467Y-19454936D01*
X16760943Y-19293031D02*
X16770467Y-19283508D01*
X16770467Y-19283508D02*
X16789515Y-19273984D01*
X16789515Y-19273984D02*
X16837134Y-19273984D01*
X16837134Y-19273984D02*
X16856182Y-19283508D01*
X16856182Y-19283508D02*
X16865705Y-19293031D01*
X16865705Y-19293031D02*
X16875229Y-19312079D01*
X16875229Y-19312079D02*
X16875229Y-19331127D01*
X16875229Y-19331127D02*
X16865705Y-19359698D01*
X16865705Y-19359698D02*
X16751420Y-19473984D01*
X16751420Y-19473984D02*
X16875229Y-19473984D01*
X17056182Y-19273984D02*
X16960944Y-19273984D01*
X16960944Y-19273984D02*
X16951420Y-19369222D01*
X16951420Y-19369222D02*
X16960944Y-19359698D01*
X16960944Y-19359698D02*
X16979991Y-19350174D01*
X16979991Y-19350174D02*
X17027610Y-19350174D01*
X17027610Y-19350174D02*
X17046658Y-19359698D01*
X17046658Y-19359698D02*
X17056182Y-19369222D01*
X17056182Y-19369222D02*
X17065705Y-19388270D01*
X17065705Y-19388270D02*
X17065705Y-19435889D01*
X17065705Y-19435889D02*
X17056182Y-19454936D01*
X17056182Y-19454936D02*
X17046658Y-19464460D01*
X17046658Y-19464460D02*
X17027610Y-19473984D01*
X17027610Y-19473984D02*
X16979991Y-19473984D01*
X16979991Y-19473984D02*
X16960944Y-19464460D01*
X16960944Y-19464460D02*
X16951420Y-19454936D01*
X17151420Y-19473984D02*
X17151420Y-19340650D01*
X17151420Y-19359698D02*
X17160944Y-19350174D01*
X17160944Y-19350174D02*
X17179991Y-19340650D01*
X17179991Y-19340650D02*
X17208563Y-19340650D01*
X17208563Y-19340650D02*
X17227610Y-19350174D01*
X17227610Y-19350174D02*
X17237134Y-19369222D01*
X17237134Y-19369222D02*
X17237134Y-19473984D01*
X17237134Y-19369222D02*
X17246658Y-19350174D01*
X17246658Y-19350174D02*
X17265705Y-19340650D01*
X17265705Y-19340650D02*
X17294277Y-19340650D01*
X17294277Y-19340650D02*
X17313325Y-19350174D01*
X17313325Y-19350174D02*
X17322848Y-19369222D01*
X17322848Y-19369222D02*
X17322848Y-19473984D01*
X17418086Y-19473984D02*
X17418086Y-19340650D01*
X17418086Y-19359698D02*
X17427610Y-19350174D01*
X17427610Y-19350174D02*
X17446658Y-19340650D01*
X17446658Y-19340650D02*
X17475229Y-19340650D01*
X17475229Y-19340650D02*
X17494277Y-19350174D01*
X17494277Y-19350174D02*
X17503801Y-19369222D01*
X17503801Y-19369222D02*
X17503801Y-19473984D01*
X17503801Y-19369222D02*
X17513325Y-19350174D01*
X17513325Y-19350174D02*
X17532372Y-19340650D01*
X17532372Y-19340650D02*
X17560944Y-19340650D01*
X17560944Y-19340650D02*
X17579991Y-19350174D01*
X17579991Y-19350174D02*
X17589515Y-19369222D01*
X17589515Y-19369222D02*
X17589515Y-19473984D01*
X17979991Y-19264460D02*
X17808563Y-19521603D01*
X18237134Y-19273984D02*
X18256182Y-19273984D01*
X18256182Y-19273984D02*
X18275229Y-19283508D01*
X18275229Y-19283508D02*
X18284753Y-19293031D01*
X18284753Y-19293031D02*
X18294277Y-19312079D01*
X18294277Y-19312079D02*
X18303801Y-19350174D01*
X18303801Y-19350174D02*
X18303801Y-19397793D01*
X18303801Y-19397793D02*
X18294277Y-19435889D01*
X18294277Y-19435889D02*
X18284753Y-19454936D01*
X18284753Y-19454936D02*
X18275229Y-19464460D01*
X18275229Y-19464460D02*
X18256182Y-19473984D01*
X18256182Y-19473984D02*
X18237134Y-19473984D01*
X18237134Y-19473984D02*
X18218087Y-19464460D01*
X18218087Y-19464460D02*
X18208563Y-19454936D01*
X18208563Y-19454936D02*
X18199039Y-19435889D01*
X18199039Y-19435889D02*
X18189515Y-19397793D01*
X18189515Y-19397793D02*
X18189515Y-19350174D01*
X18189515Y-19350174D02*
X18199039Y-19312079D01*
X18199039Y-19312079D02*
X18208563Y-19293031D01*
X18208563Y-19293031D02*
X18218087Y-19283508D01*
X18218087Y-19283508D02*
X18237134Y-19273984D01*
X18389515Y-19454936D02*
X18399039Y-19464460D01*
X18399039Y-19464460D02*
X18389515Y-19473984D01*
X18389515Y-19473984D02*
X18379991Y-19464460D01*
X18379991Y-19464460D02*
X18389515Y-19454936D01*
X18389515Y-19454936D02*
X18389515Y-19473984D01*
X18522848Y-19273984D02*
X18541896Y-19273984D01*
X18541896Y-19273984D02*
X18560944Y-19283508D01*
X18560944Y-19283508D02*
X18570468Y-19293031D01*
X18570468Y-19293031D02*
X18579991Y-19312079D01*
X18579991Y-19312079D02*
X18589515Y-19350174D01*
X18589515Y-19350174D02*
X18589515Y-19397793D01*
X18589515Y-19397793D02*
X18579991Y-19435889D01*
X18579991Y-19435889D02*
X18570468Y-19454936D01*
X18570468Y-19454936D02*
X18560944Y-19464460D01*
X18560944Y-19464460D02*
X18541896Y-19473984D01*
X18541896Y-19473984D02*
X18522848Y-19473984D01*
X18522848Y-19473984D02*
X18503801Y-19464460D01*
X18503801Y-19464460D02*
X18494277Y-19454936D01*
X18494277Y-19454936D02*
X18484753Y-19435889D01*
X18484753Y-19435889D02*
X18475229Y-19397793D01*
X18475229Y-19397793D02*
X18475229Y-19350174D01*
X18475229Y-19350174D02*
X18484753Y-19312079D01*
X18484753Y-19312079D02*
X18494277Y-19293031D01*
X18494277Y-19293031D02*
X18503801Y-19283508D01*
X18503801Y-19283508D02*
X18522848Y-19273984D01*
X18760944Y-19273984D02*
X18722848Y-19273984D01*
X18722848Y-19273984D02*
X18703801Y-19283508D01*
X18703801Y-19283508D02*
X18694277Y-19293031D01*
X18694277Y-19293031D02*
X18675229Y-19321603D01*
X18675229Y-19321603D02*
X18665706Y-19359698D01*
X18665706Y-19359698D02*
X18665706Y-19435889D01*
X18665706Y-19435889D02*
X18675229Y-19454936D01*
X18675229Y-19454936D02*
X18684753Y-19464460D01*
X18684753Y-19464460D02*
X18703801Y-19473984D01*
X18703801Y-19473984D02*
X18741896Y-19473984D01*
X18741896Y-19473984D02*
X18760944Y-19464460D01*
X18760944Y-19464460D02*
X18770468Y-19454936D01*
X18770468Y-19454936D02*
X18779991Y-19435889D01*
X18779991Y-19435889D02*
X18779991Y-19388270D01*
X18779991Y-19388270D02*
X18770468Y-19369222D01*
X18770468Y-19369222D02*
X18760944Y-19359698D01*
X18760944Y-19359698D02*
X18741896Y-19350174D01*
X18741896Y-19350174D02*
X18703801Y-19350174D01*
X18703801Y-19350174D02*
X18684753Y-19359698D01*
X18684753Y-19359698D02*
X18675229Y-19369222D01*
X18675229Y-19369222D02*
X18665706Y-19388270D01*
X18903801Y-19273984D02*
X18922849Y-19273984D01*
X18922849Y-19273984D02*
X18941896Y-19283508D01*
X18941896Y-19283508D02*
X18951420Y-19293031D01*
X18951420Y-19293031D02*
X18960944Y-19312079D01*
X18960944Y-19312079D02*
X18970468Y-19350174D01*
X18970468Y-19350174D02*
X18970468Y-19397793D01*
X18970468Y-19397793D02*
X18960944Y-19435889D01*
X18960944Y-19435889D02*
X18951420Y-19454936D01*
X18951420Y-19454936D02*
X18941896Y-19464460D01*
X18941896Y-19464460D02*
X18922849Y-19473984D01*
X18922849Y-19473984D02*
X18903801Y-19473984D01*
X18903801Y-19473984D02*
X18884753Y-19464460D01*
X18884753Y-19464460D02*
X18875229Y-19454936D01*
X18875229Y-19454936D02*
X18865706Y-19435889D01*
X18865706Y-19435889D02*
X18856182Y-19397793D01*
X18856182Y-19397793D02*
X18856182Y-19350174D01*
X18856182Y-19350174D02*
X18865706Y-19312079D01*
X18865706Y-19312079D02*
X18875229Y-19293031D01*
X18875229Y-19293031D02*
X18884753Y-19283508D01*
X18884753Y-19283508D02*
X18903801Y-19273984D01*
X19094277Y-19273984D02*
X19113325Y-19273984D01*
X19113325Y-19273984D02*
X19132372Y-19283508D01*
X19132372Y-19283508D02*
X19141896Y-19293031D01*
X19141896Y-19293031D02*
X19151420Y-19312079D01*
X19151420Y-19312079D02*
X19160944Y-19350174D01*
X19160944Y-19350174D02*
X19160944Y-19397793D01*
X19160944Y-19397793D02*
X19151420Y-19435889D01*
X19151420Y-19435889D02*
X19141896Y-19454936D01*
X19141896Y-19454936D02*
X19132372Y-19464460D01*
X19132372Y-19464460D02*
X19113325Y-19473984D01*
X19113325Y-19473984D02*
X19094277Y-19473984D01*
X19094277Y-19473984D02*
X19075229Y-19464460D01*
X19075229Y-19464460D02*
X19065706Y-19454936D01*
X19065706Y-19454936D02*
X19056182Y-19435889D01*
X19056182Y-19435889D02*
X19046658Y-19397793D01*
X19046658Y-19397793D02*
X19046658Y-19350174D01*
X19046658Y-19350174D02*
X19056182Y-19312079D01*
X19056182Y-19312079D02*
X19065706Y-19293031D01*
X19065706Y-19293031D02*
X19075229Y-19283508D01*
X19075229Y-19283508D02*
X19094277Y-19273984D01*
X19237134Y-19273984D02*
X19237134Y-19312079D01*
X19313325Y-19273984D02*
X19313325Y-19312079D01*
X19608563Y-19550174D02*
X19599039Y-19540650D01*
X19599039Y-19540650D02*
X19579991Y-19512079D01*
X19579991Y-19512079D02*
X19570468Y-19493031D01*
X19570468Y-19493031D02*
X19560944Y-19464460D01*
X19560944Y-19464460D02*
X19551420Y-19416841D01*
X19551420Y-19416841D02*
X19551420Y-19378746D01*
X19551420Y-19378746D02*
X19560944Y-19331127D01*
X19560944Y-19331127D02*
X19570468Y-19302555D01*
X19570468Y-19302555D02*
X19579991Y-19283508D01*
X19579991Y-19283508D02*
X19599039Y-19254936D01*
X19599039Y-19254936D02*
X19608563Y-19245412D01*
X19675230Y-19293031D02*
X19684753Y-19283508D01*
X19684753Y-19283508D02*
X19703801Y-19273984D01*
X19703801Y-19273984D02*
X19751420Y-19273984D01*
X19751420Y-19273984D02*
X19770468Y-19283508D01*
X19770468Y-19283508D02*
X19779991Y-19293031D01*
X19779991Y-19293031D02*
X19789515Y-19312079D01*
X19789515Y-19312079D02*
X19789515Y-19331127D01*
X19789515Y-19331127D02*
X19779991Y-19359698D01*
X19779991Y-19359698D02*
X19665706Y-19473984D01*
X19665706Y-19473984D02*
X19789515Y-19473984D01*
X19960944Y-19340650D02*
X19960944Y-19473984D01*
X19913325Y-19264460D02*
X19865706Y-19407317D01*
X19865706Y-19407317D02*
X19989515Y-19407317D01*
X20218087Y-19473984D02*
X20218087Y-19273984D01*
X20303801Y-19473984D02*
X20303801Y-19369222D01*
X20303801Y-19369222D02*
X20294277Y-19350174D01*
X20294277Y-19350174D02*
X20275230Y-19340650D01*
X20275230Y-19340650D02*
X20246658Y-19340650D01*
X20246658Y-19340650D02*
X20227611Y-19350174D01*
X20227611Y-19350174D02*
X20218087Y-19359698D01*
X20427611Y-19473984D02*
X20408563Y-19464460D01*
X20408563Y-19464460D02*
X20399039Y-19454936D01*
X20399039Y-19454936D02*
X20389515Y-19435889D01*
X20389515Y-19435889D02*
X20389515Y-19378746D01*
X20389515Y-19378746D02*
X20399039Y-19359698D01*
X20399039Y-19359698D02*
X20408563Y-19350174D01*
X20408563Y-19350174D02*
X20427611Y-19340650D01*
X20427611Y-19340650D02*
X20456182Y-19340650D01*
X20456182Y-19340650D02*
X20475230Y-19350174D01*
X20475230Y-19350174D02*
X20484753Y-19359698D01*
X20484753Y-19359698D02*
X20494277Y-19378746D01*
X20494277Y-19378746D02*
X20494277Y-19435889D01*
X20494277Y-19435889D02*
X20484753Y-19454936D01*
X20484753Y-19454936D02*
X20475230Y-19464460D01*
X20475230Y-19464460D02*
X20456182Y-19473984D01*
X20456182Y-19473984D02*
X20427611Y-19473984D01*
X20608563Y-19473984D02*
X20589515Y-19464460D01*
X20589515Y-19464460D02*
X20579992Y-19445412D01*
X20579992Y-19445412D02*
X20579992Y-19273984D01*
X20760944Y-19464460D02*
X20741896Y-19473984D01*
X20741896Y-19473984D02*
X20703801Y-19473984D01*
X20703801Y-19473984D02*
X20684753Y-19464460D01*
X20684753Y-19464460D02*
X20675230Y-19445412D01*
X20675230Y-19445412D02*
X20675230Y-19369222D01*
X20675230Y-19369222D02*
X20684753Y-19350174D01*
X20684753Y-19350174D02*
X20703801Y-19340650D01*
X20703801Y-19340650D02*
X20741896Y-19340650D01*
X20741896Y-19340650D02*
X20760944Y-19350174D01*
X20760944Y-19350174D02*
X20770468Y-19369222D01*
X20770468Y-19369222D02*
X20770468Y-19388270D01*
X20770468Y-19388270D02*
X20675230Y-19407317D01*
X20846658Y-19464460D02*
X20865706Y-19473984D01*
X20865706Y-19473984D02*
X20903801Y-19473984D01*
X20903801Y-19473984D02*
X20922849Y-19464460D01*
X20922849Y-19464460D02*
X20932373Y-19445412D01*
X20932373Y-19445412D02*
X20932373Y-19435889D01*
X20932373Y-19435889D02*
X20922849Y-19416841D01*
X20922849Y-19416841D02*
X20903801Y-19407317D01*
X20903801Y-19407317D02*
X20875230Y-19407317D01*
X20875230Y-19407317D02*
X20856182Y-19397793D01*
X20856182Y-19397793D02*
X20846658Y-19378746D01*
X20846658Y-19378746D02*
X20846658Y-19369222D01*
X20846658Y-19369222D02*
X20856182Y-19350174D01*
X20856182Y-19350174D02*
X20875230Y-19340650D01*
X20875230Y-19340650D02*
X20903801Y-19340650D01*
X20903801Y-19340650D02*
X20922849Y-19350174D01*
X20999039Y-19550174D02*
X21008563Y-19540650D01*
X21008563Y-19540650D02*
X21027611Y-19512079D01*
X21027611Y-19512079D02*
X21037134Y-19493031D01*
X21037134Y-19493031D02*
X21046658Y-19464460D01*
X21046658Y-19464460D02*
X21056182Y-19416841D01*
X21056182Y-19416841D02*
X21056182Y-19378746D01*
X21056182Y-19378746D02*
X21046658Y-19331127D01*
X21046658Y-19331127D02*
X21037134Y-19302555D01*
X21037134Y-19302555D02*
X21027611Y-19283508D01*
X21027611Y-19283508D02*
X21008563Y-19254936D01*
X21008563Y-19254936D02*
X20999039Y-19245412D01*
X15833500Y-19555000D02*
X16033500Y-19755000D01*
X16033500Y-19555000D02*
X15833500Y-19755000D01*
X15933500Y-19555000D02*
X15933500Y-19755000D01*
X15833500Y-19655000D02*
X16033500Y-19655000D01*
X16284753Y-19565531D02*
X16294277Y-19556008D01*
X16294277Y-19556008D02*
X16313324Y-19546484D01*
X16313324Y-19546484D02*
X16360943Y-19546484D01*
X16360943Y-19546484D02*
X16379991Y-19556008D01*
X16379991Y-19556008D02*
X16389515Y-19565531D01*
X16389515Y-19565531D02*
X16399039Y-19584579D01*
X16399039Y-19584579D02*
X16399039Y-19603627D01*
X16399039Y-19603627D02*
X16389515Y-19632198D01*
X16389515Y-19632198D02*
X16275229Y-19746484D01*
X16275229Y-19746484D02*
X16399039Y-19746484D01*
X16484753Y-19727436D02*
X16494277Y-19736960D01*
X16494277Y-19736960D02*
X16484753Y-19746484D01*
X16484753Y-19746484D02*
X16475229Y-19736960D01*
X16475229Y-19736960D02*
X16484753Y-19727436D01*
X16484753Y-19727436D02*
X16484753Y-19746484D01*
X16665705Y-19546484D02*
X16627610Y-19546484D01*
X16627610Y-19546484D02*
X16608562Y-19556008D01*
X16608562Y-19556008D02*
X16599039Y-19565531D01*
X16599039Y-19565531D02*
X16579991Y-19594103D01*
X16579991Y-19594103D02*
X16570467Y-19632198D01*
X16570467Y-19632198D02*
X16570467Y-19708389D01*
X16570467Y-19708389D02*
X16579991Y-19727436D01*
X16579991Y-19727436D02*
X16589515Y-19736960D01*
X16589515Y-19736960D02*
X16608562Y-19746484D01*
X16608562Y-19746484D02*
X16646658Y-19746484D01*
X16646658Y-19746484D02*
X16665705Y-19736960D01*
X16665705Y-19736960D02*
X16675229Y-19727436D01*
X16675229Y-19727436D02*
X16684753Y-19708389D01*
X16684753Y-19708389D02*
X16684753Y-19660770D01*
X16684753Y-19660770D02*
X16675229Y-19641722D01*
X16675229Y-19641722D02*
X16665705Y-19632198D01*
X16665705Y-19632198D02*
X16646658Y-19622674D01*
X16646658Y-19622674D02*
X16608562Y-19622674D01*
X16608562Y-19622674D02*
X16589515Y-19632198D01*
X16589515Y-19632198D02*
X16579991Y-19641722D01*
X16579991Y-19641722D02*
X16570467Y-19660770D01*
X16808563Y-19546484D02*
X16827610Y-19546484D01*
X16827610Y-19546484D02*
X16846658Y-19556008D01*
X16846658Y-19556008D02*
X16856182Y-19565531D01*
X16856182Y-19565531D02*
X16865705Y-19584579D01*
X16865705Y-19584579D02*
X16875229Y-19622674D01*
X16875229Y-19622674D02*
X16875229Y-19670293D01*
X16875229Y-19670293D02*
X16865705Y-19708389D01*
X16865705Y-19708389D02*
X16856182Y-19727436D01*
X16856182Y-19727436D02*
X16846658Y-19736960D01*
X16846658Y-19736960D02*
X16827610Y-19746484D01*
X16827610Y-19746484D02*
X16808563Y-19746484D01*
X16808563Y-19746484D02*
X16789515Y-19736960D01*
X16789515Y-19736960D02*
X16779991Y-19727436D01*
X16779991Y-19727436D02*
X16770467Y-19708389D01*
X16770467Y-19708389D02*
X16760943Y-19670293D01*
X16760943Y-19670293D02*
X16760943Y-19622674D01*
X16760943Y-19622674D02*
X16770467Y-19584579D01*
X16770467Y-19584579D02*
X16779991Y-19565531D01*
X16779991Y-19565531D02*
X16789515Y-19556008D01*
X16789515Y-19556008D02*
X16808563Y-19546484D01*
X16999039Y-19546484D02*
X17018086Y-19546484D01*
X17018086Y-19546484D02*
X17037134Y-19556008D01*
X17037134Y-19556008D02*
X17046658Y-19565531D01*
X17046658Y-19565531D02*
X17056182Y-19584579D01*
X17056182Y-19584579D02*
X17065705Y-19622674D01*
X17065705Y-19622674D02*
X17065705Y-19670293D01*
X17065705Y-19670293D02*
X17056182Y-19708389D01*
X17056182Y-19708389D02*
X17046658Y-19727436D01*
X17046658Y-19727436D02*
X17037134Y-19736960D01*
X17037134Y-19736960D02*
X17018086Y-19746484D01*
X17018086Y-19746484D02*
X16999039Y-19746484D01*
X16999039Y-19746484D02*
X16979991Y-19736960D01*
X16979991Y-19736960D02*
X16970467Y-19727436D01*
X16970467Y-19727436D02*
X16960944Y-19708389D01*
X16960944Y-19708389D02*
X16951420Y-19670293D01*
X16951420Y-19670293D02*
X16951420Y-19622674D01*
X16951420Y-19622674D02*
X16960944Y-19584579D01*
X16960944Y-19584579D02*
X16970467Y-19565531D01*
X16970467Y-19565531D02*
X16979991Y-19556008D01*
X16979991Y-19556008D02*
X16999039Y-19546484D01*
X17151420Y-19746484D02*
X17151420Y-19613150D01*
X17151420Y-19632198D02*
X17160944Y-19622674D01*
X17160944Y-19622674D02*
X17179991Y-19613150D01*
X17179991Y-19613150D02*
X17208563Y-19613150D01*
X17208563Y-19613150D02*
X17227610Y-19622674D01*
X17227610Y-19622674D02*
X17237134Y-19641722D01*
X17237134Y-19641722D02*
X17237134Y-19746484D01*
X17237134Y-19641722D02*
X17246658Y-19622674D01*
X17246658Y-19622674D02*
X17265705Y-19613150D01*
X17265705Y-19613150D02*
X17294277Y-19613150D01*
X17294277Y-19613150D02*
X17313325Y-19622674D01*
X17313325Y-19622674D02*
X17322848Y-19641722D01*
X17322848Y-19641722D02*
X17322848Y-19746484D01*
X17418086Y-19746484D02*
X17418086Y-19613150D01*
X17418086Y-19632198D02*
X17427610Y-19622674D01*
X17427610Y-19622674D02*
X17446658Y-19613150D01*
X17446658Y-19613150D02*
X17475229Y-19613150D01*
X17475229Y-19613150D02*
X17494277Y-19622674D01*
X17494277Y-19622674D02*
X17503801Y-19641722D01*
X17503801Y-19641722D02*
X17503801Y-19746484D01*
X17503801Y-19641722D02*
X17513325Y-19622674D01*
X17513325Y-19622674D02*
X17532372Y-19613150D01*
X17532372Y-19613150D02*
X17560944Y-19613150D01*
X17560944Y-19613150D02*
X17579991Y-19622674D01*
X17579991Y-19622674D02*
X17589515Y-19641722D01*
X17589515Y-19641722D02*
X17589515Y-19746484D01*
X17979991Y-19536960D02*
X17808563Y-19794103D01*
X18237134Y-19546484D02*
X18256182Y-19546484D01*
X18256182Y-19546484D02*
X18275229Y-19556008D01*
X18275229Y-19556008D02*
X18284753Y-19565531D01*
X18284753Y-19565531D02*
X18294277Y-19584579D01*
X18294277Y-19584579D02*
X18303801Y-19622674D01*
X18303801Y-19622674D02*
X18303801Y-19670293D01*
X18303801Y-19670293D02*
X18294277Y-19708389D01*
X18294277Y-19708389D02*
X18284753Y-19727436D01*
X18284753Y-19727436D02*
X18275229Y-19736960D01*
X18275229Y-19736960D02*
X18256182Y-19746484D01*
X18256182Y-19746484D02*
X18237134Y-19746484D01*
X18237134Y-19746484D02*
X18218087Y-19736960D01*
X18218087Y-19736960D02*
X18208563Y-19727436D01*
X18208563Y-19727436D02*
X18199039Y-19708389D01*
X18199039Y-19708389D02*
X18189515Y-19670293D01*
X18189515Y-19670293D02*
X18189515Y-19622674D01*
X18189515Y-19622674D02*
X18199039Y-19584579D01*
X18199039Y-19584579D02*
X18208563Y-19565531D01*
X18208563Y-19565531D02*
X18218087Y-19556008D01*
X18218087Y-19556008D02*
X18237134Y-19546484D01*
X18389515Y-19727436D02*
X18399039Y-19736960D01*
X18399039Y-19736960D02*
X18389515Y-19746484D01*
X18389515Y-19746484D02*
X18379991Y-19736960D01*
X18379991Y-19736960D02*
X18389515Y-19727436D01*
X18389515Y-19727436D02*
X18389515Y-19746484D01*
X18589515Y-19746484D02*
X18475229Y-19746484D01*
X18532372Y-19746484D02*
X18532372Y-19546484D01*
X18532372Y-19546484D02*
X18513325Y-19575055D01*
X18513325Y-19575055D02*
X18494277Y-19594103D01*
X18494277Y-19594103D02*
X18475229Y-19603627D01*
X18713325Y-19546484D02*
X18732372Y-19546484D01*
X18732372Y-19546484D02*
X18751420Y-19556008D01*
X18751420Y-19556008D02*
X18760944Y-19565531D01*
X18760944Y-19565531D02*
X18770468Y-19584579D01*
X18770468Y-19584579D02*
X18779991Y-19622674D01*
X18779991Y-19622674D02*
X18779991Y-19670293D01*
X18779991Y-19670293D02*
X18770468Y-19708389D01*
X18770468Y-19708389D02*
X18760944Y-19727436D01*
X18760944Y-19727436D02*
X18751420Y-19736960D01*
X18751420Y-19736960D02*
X18732372Y-19746484D01*
X18732372Y-19746484D02*
X18713325Y-19746484D01*
X18713325Y-19746484D02*
X18694277Y-19736960D01*
X18694277Y-19736960D02*
X18684753Y-19727436D01*
X18684753Y-19727436D02*
X18675229Y-19708389D01*
X18675229Y-19708389D02*
X18665706Y-19670293D01*
X18665706Y-19670293D02*
X18665706Y-19622674D01*
X18665706Y-19622674D02*
X18675229Y-19584579D01*
X18675229Y-19584579D02*
X18684753Y-19565531D01*
X18684753Y-19565531D02*
X18694277Y-19556008D01*
X18694277Y-19556008D02*
X18713325Y-19546484D01*
X18856182Y-19565531D02*
X18865706Y-19556008D01*
X18865706Y-19556008D02*
X18884753Y-19546484D01*
X18884753Y-19546484D02*
X18932372Y-19546484D01*
X18932372Y-19546484D02*
X18951420Y-19556008D01*
X18951420Y-19556008D02*
X18960944Y-19565531D01*
X18960944Y-19565531D02*
X18970468Y-19584579D01*
X18970468Y-19584579D02*
X18970468Y-19603627D01*
X18970468Y-19603627D02*
X18960944Y-19632198D01*
X18960944Y-19632198D02*
X18846658Y-19746484D01*
X18846658Y-19746484D02*
X18970468Y-19746484D01*
X19141896Y-19613150D02*
X19141896Y-19746484D01*
X19094277Y-19536960D02*
X19046658Y-19679817D01*
X19046658Y-19679817D02*
X19170468Y-19679817D01*
X19237134Y-19546484D02*
X19237134Y-19584579D01*
X19313325Y-19546484D02*
X19313325Y-19584579D01*
X19608563Y-19822674D02*
X19599039Y-19813150D01*
X19599039Y-19813150D02*
X19579991Y-19784579D01*
X19579991Y-19784579D02*
X19570468Y-19765531D01*
X19570468Y-19765531D02*
X19560944Y-19736960D01*
X19560944Y-19736960D02*
X19551420Y-19689341D01*
X19551420Y-19689341D02*
X19551420Y-19651246D01*
X19551420Y-19651246D02*
X19560944Y-19603627D01*
X19560944Y-19603627D02*
X19570468Y-19575055D01*
X19570468Y-19575055D02*
X19579991Y-19556008D01*
X19579991Y-19556008D02*
X19599039Y-19527436D01*
X19599039Y-19527436D02*
X19608563Y-19517912D01*
X19675230Y-19565531D02*
X19684753Y-19556008D01*
X19684753Y-19556008D02*
X19703801Y-19546484D01*
X19703801Y-19546484D02*
X19751420Y-19546484D01*
X19751420Y-19546484D02*
X19770468Y-19556008D01*
X19770468Y-19556008D02*
X19779991Y-19565531D01*
X19779991Y-19565531D02*
X19789515Y-19584579D01*
X19789515Y-19584579D02*
X19789515Y-19603627D01*
X19789515Y-19603627D02*
X19779991Y-19632198D01*
X19779991Y-19632198D02*
X19665706Y-19746484D01*
X19665706Y-19746484D02*
X19789515Y-19746484D01*
X20027611Y-19746484D02*
X20027611Y-19546484D01*
X20113325Y-19746484D02*
X20113325Y-19641722D01*
X20113325Y-19641722D02*
X20103801Y-19622674D01*
X20103801Y-19622674D02*
X20084753Y-19613150D01*
X20084753Y-19613150D02*
X20056182Y-19613150D01*
X20056182Y-19613150D02*
X20037134Y-19622674D01*
X20037134Y-19622674D02*
X20027611Y-19632198D01*
X20237134Y-19746484D02*
X20218087Y-19736960D01*
X20218087Y-19736960D02*
X20208563Y-19727436D01*
X20208563Y-19727436D02*
X20199039Y-19708389D01*
X20199039Y-19708389D02*
X20199039Y-19651246D01*
X20199039Y-19651246D02*
X20208563Y-19632198D01*
X20208563Y-19632198D02*
X20218087Y-19622674D01*
X20218087Y-19622674D02*
X20237134Y-19613150D01*
X20237134Y-19613150D02*
X20265706Y-19613150D01*
X20265706Y-19613150D02*
X20284753Y-19622674D01*
X20284753Y-19622674D02*
X20294277Y-19632198D01*
X20294277Y-19632198D02*
X20303801Y-19651246D01*
X20303801Y-19651246D02*
X20303801Y-19708389D01*
X20303801Y-19708389D02*
X20294277Y-19727436D01*
X20294277Y-19727436D02*
X20284753Y-19736960D01*
X20284753Y-19736960D02*
X20265706Y-19746484D01*
X20265706Y-19746484D02*
X20237134Y-19746484D01*
X20418087Y-19746484D02*
X20399039Y-19736960D01*
X20399039Y-19736960D02*
X20389515Y-19717912D01*
X20389515Y-19717912D02*
X20389515Y-19546484D01*
X20570468Y-19736960D02*
X20551420Y-19746484D01*
X20551420Y-19746484D02*
X20513325Y-19746484D01*
X20513325Y-19746484D02*
X20494277Y-19736960D01*
X20494277Y-19736960D02*
X20484753Y-19717912D01*
X20484753Y-19717912D02*
X20484753Y-19641722D01*
X20484753Y-19641722D02*
X20494277Y-19622674D01*
X20494277Y-19622674D02*
X20513325Y-19613150D01*
X20513325Y-19613150D02*
X20551420Y-19613150D01*
X20551420Y-19613150D02*
X20570468Y-19622674D01*
X20570468Y-19622674D02*
X20579992Y-19641722D01*
X20579992Y-19641722D02*
X20579992Y-19660770D01*
X20579992Y-19660770D02*
X20484753Y-19679817D01*
X20656182Y-19736960D02*
X20675230Y-19746484D01*
X20675230Y-19746484D02*
X20713325Y-19746484D01*
X20713325Y-19746484D02*
X20732373Y-19736960D01*
X20732373Y-19736960D02*
X20741896Y-19717912D01*
X20741896Y-19717912D02*
X20741896Y-19708389D01*
X20741896Y-19708389D02*
X20732373Y-19689341D01*
X20732373Y-19689341D02*
X20713325Y-19679817D01*
X20713325Y-19679817D02*
X20684753Y-19679817D01*
X20684753Y-19679817D02*
X20665706Y-19670293D01*
X20665706Y-19670293D02*
X20656182Y-19651246D01*
X20656182Y-19651246D02*
X20656182Y-19641722D01*
X20656182Y-19641722D02*
X20665706Y-19622674D01*
X20665706Y-19622674D02*
X20684753Y-19613150D01*
X20684753Y-19613150D02*
X20713325Y-19613150D01*
X20713325Y-19613150D02*
X20732373Y-19622674D01*
X20808563Y-19822674D02*
X20818087Y-19813150D01*
X20818087Y-19813150D02*
X20837134Y-19784579D01*
X20837134Y-19784579D02*
X20846658Y-19765531D01*
X20846658Y-19765531D02*
X20856182Y-19736960D01*
X20856182Y-19736960D02*
X20865706Y-19689341D01*
X20865706Y-19689341D02*
X20865706Y-19651246D01*
X20865706Y-19651246D02*
X20856182Y-19603627D01*
X20856182Y-19603627D02*
X20846658Y-19575055D01*
X20846658Y-19575055D02*
X20837134Y-19556008D01*
X20837134Y-19556008D02*
X20818087Y-19527436D01*
X20818087Y-19527436D02*
X20808563Y-19517912D01*
X15833500Y-19875000D02*
X16033500Y-20075000D01*
X16033500Y-19875000D02*
X15833500Y-20075000D01*
X16004211Y-20045711D02*
X16004211Y-19904289D01*
X15862789Y-19904289D01*
X15862789Y-20045711D01*
X16004211Y-20045711D01*
X16275229Y-19866484D02*
X16399039Y-19866484D01*
X16399039Y-19866484D02*
X16332372Y-19942674D01*
X16332372Y-19942674D02*
X16360943Y-19942674D01*
X16360943Y-19942674D02*
X16379991Y-19952198D01*
X16379991Y-19952198D02*
X16389515Y-19961722D01*
X16389515Y-19961722D02*
X16399039Y-19980770D01*
X16399039Y-19980770D02*
X16399039Y-20028389D01*
X16399039Y-20028389D02*
X16389515Y-20047436D01*
X16389515Y-20047436D02*
X16379991Y-20056960D01*
X16379991Y-20056960D02*
X16360943Y-20066484D01*
X16360943Y-20066484D02*
X16303801Y-20066484D01*
X16303801Y-20066484D02*
X16284753Y-20056960D01*
X16284753Y-20056960D02*
X16275229Y-20047436D01*
X16484753Y-20047436D02*
X16494277Y-20056960D01*
X16494277Y-20056960D02*
X16484753Y-20066484D01*
X16484753Y-20066484D02*
X16475229Y-20056960D01*
X16475229Y-20056960D02*
X16484753Y-20047436D01*
X16484753Y-20047436D02*
X16484753Y-20066484D01*
X16570467Y-19885531D02*
X16579991Y-19876008D01*
X16579991Y-19876008D02*
X16599039Y-19866484D01*
X16599039Y-19866484D02*
X16646658Y-19866484D01*
X16646658Y-19866484D02*
X16665705Y-19876008D01*
X16665705Y-19876008D02*
X16675229Y-19885531D01*
X16675229Y-19885531D02*
X16684753Y-19904579D01*
X16684753Y-19904579D02*
X16684753Y-19923627D01*
X16684753Y-19923627D02*
X16675229Y-19952198D01*
X16675229Y-19952198D02*
X16560943Y-20066484D01*
X16560943Y-20066484D02*
X16684753Y-20066484D01*
X16808563Y-19866484D02*
X16827610Y-19866484D01*
X16827610Y-19866484D02*
X16846658Y-19876008D01*
X16846658Y-19876008D02*
X16856182Y-19885531D01*
X16856182Y-19885531D02*
X16865705Y-19904579D01*
X16865705Y-19904579D02*
X16875229Y-19942674D01*
X16875229Y-19942674D02*
X16875229Y-19990293D01*
X16875229Y-19990293D02*
X16865705Y-20028389D01*
X16865705Y-20028389D02*
X16856182Y-20047436D01*
X16856182Y-20047436D02*
X16846658Y-20056960D01*
X16846658Y-20056960D02*
X16827610Y-20066484D01*
X16827610Y-20066484D02*
X16808563Y-20066484D01*
X16808563Y-20066484D02*
X16789515Y-20056960D01*
X16789515Y-20056960D02*
X16779991Y-20047436D01*
X16779991Y-20047436D02*
X16770467Y-20028389D01*
X16770467Y-20028389D02*
X16760943Y-19990293D01*
X16760943Y-19990293D02*
X16760943Y-19942674D01*
X16760943Y-19942674D02*
X16770467Y-19904579D01*
X16770467Y-19904579D02*
X16779991Y-19885531D01*
X16779991Y-19885531D02*
X16789515Y-19876008D01*
X16789515Y-19876008D02*
X16808563Y-19866484D01*
X16999039Y-19866484D02*
X17018086Y-19866484D01*
X17018086Y-19866484D02*
X17037134Y-19876008D01*
X17037134Y-19876008D02*
X17046658Y-19885531D01*
X17046658Y-19885531D02*
X17056182Y-19904579D01*
X17056182Y-19904579D02*
X17065705Y-19942674D01*
X17065705Y-19942674D02*
X17065705Y-19990293D01*
X17065705Y-19990293D02*
X17056182Y-20028389D01*
X17056182Y-20028389D02*
X17046658Y-20047436D01*
X17046658Y-20047436D02*
X17037134Y-20056960D01*
X17037134Y-20056960D02*
X17018086Y-20066484D01*
X17018086Y-20066484D02*
X16999039Y-20066484D01*
X16999039Y-20066484D02*
X16979991Y-20056960D01*
X16979991Y-20056960D02*
X16970467Y-20047436D01*
X16970467Y-20047436D02*
X16960944Y-20028389D01*
X16960944Y-20028389D02*
X16951420Y-19990293D01*
X16951420Y-19990293D02*
X16951420Y-19942674D01*
X16951420Y-19942674D02*
X16960944Y-19904579D01*
X16960944Y-19904579D02*
X16970467Y-19885531D01*
X16970467Y-19885531D02*
X16979991Y-19876008D01*
X16979991Y-19876008D02*
X16999039Y-19866484D01*
X17151420Y-20066484D02*
X17151420Y-19933150D01*
X17151420Y-19952198D02*
X17160944Y-19942674D01*
X17160944Y-19942674D02*
X17179991Y-19933150D01*
X17179991Y-19933150D02*
X17208563Y-19933150D01*
X17208563Y-19933150D02*
X17227610Y-19942674D01*
X17227610Y-19942674D02*
X17237134Y-19961722D01*
X17237134Y-19961722D02*
X17237134Y-20066484D01*
X17237134Y-19961722D02*
X17246658Y-19942674D01*
X17246658Y-19942674D02*
X17265705Y-19933150D01*
X17265705Y-19933150D02*
X17294277Y-19933150D01*
X17294277Y-19933150D02*
X17313325Y-19942674D01*
X17313325Y-19942674D02*
X17322848Y-19961722D01*
X17322848Y-19961722D02*
X17322848Y-20066484D01*
X17418086Y-20066484D02*
X17418086Y-19933150D01*
X17418086Y-19952198D02*
X17427610Y-19942674D01*
X17427610Y-19942674D02*
X17446658Y-19933150D01*
X17446658Y-19933150D02*
X17475229Y-19933150D01*
X17475229Y-19933150D02*
X17494277Y-19942674D01*
X17494277Y-19942674D02*
X17503801Y-19961722D01*
X17503801Y-19961722D02*
X17503801Y-20066484D01*
X17503801Y-19961722D02*
X17513325Y-19942674D01*
X17513325Y-19942674D02*
X17532372Y-19933150D01*
X17532372Y-19933150D02*
X17560944Y-19933150D01*
X17560944Y-19933150D02*
X17579991Y-19942674D01*
X17579991Y-19942674D02*
X17589515Y-19961722D01*
X17589515Y-19961722D02*
X17589515Y-20066484D01*
X17979991Y-19856960D02*
X17808563Y-20114103D01*
X18237134Y-19866484D02*
X18256182Y-19866484D01*
X18256182Y-19866484D02*
X18275229Y-19876008D01*
X18275229Y-19876008D02*
X18284753Y-19885531D01*
X18284753Y-19885531D02*
X18294277Y-19904579D01*
X18294277Y-19904579D02*
X18303801Y-19942674D01*
X18303801Y-19942674D02*
X18303801Y-19990293D01*
X18303801Y-19990293D02*
X18294277Y-20028389D01*
X18294277Y-20028389D02*
X18284753Y-20047436D01*
X18284753Y-20047436D02*
X18275229Y-20056960D01*
X18275229Y-20056960D02*
X18256182Y-20066484D01*
X18256182Y-20066484D02*
X18237134Y-20066484D01*
X18237134Y-20066484D02*
X18218087Y-20056960D01*
X18218087Y-20056960D02*
X18208563Y-20047436D01*
X18208563Y-20047436D02*
X18199039Y-20028389D01*
X18199039Y-20028389D02*
X18189515Y-19990293D01*
X18189515Y-19990293D02*
X18189515Y-19942674D01*
X18189515Y-19942674D02*
X18199039Y-19904579D01*
X18199039Y-19904579D02*
X18208563Y-19885531D01*
X18208563Y-19885531D02*
X18218087Y-19876008D01*
X18218087Y-19876008D02*
X18237134Y-19866484D01*
X18389515Y-20047436D02*
X18399039Y-20056960D01*
X18399039Y-20056960D02*
X18389515Y-20066484D01*
X18389515Y-20066484D02*
X18379991Y-20056960D01*
X18379991Y-20056960D02*
X18389515Y-20047436D01*
X18389515Y-20047436D02*
X18389515Y-20066484D01*
X18589515Y-20066484D02*
X18475229Y-20066484D01*
X18532372Y-20066484D02*
X18532372Y-19866484D01*
X18532372Y-19866484D02*
X18513325Y-19895055D01*
X18513325Y-19895055D02*
X18494277Y-19914103D01*
X18494277Y-19914103D02*
X18475229Y-19923627D01*
X18665706Y-19885531D02*
X18675229Y-19876008D01*
X18675229Y-19876008D02*
X18694277Y-19866484D01*
X18694277Y-19866484D02*
X18741896Y-19866484D01*
X18741896Y-19866484D02*
X18760944Y-19876008D01*
X18760944Y-19876008D02*
X18770468Y-19885531D01*
X18770468Y-19885531D02*
X18779991Y-19904579D01*
X18779991Y-19904579D02*
X18779991Y-19923627D01*
X18779991Y-19923627D02*
X18770468Y-19952198D01*
X18770468Y-19952198D02*
X18656182Y-20066484D01*
X18656182Y-20066484D02*
X18779991Y-20066484D01*
X18951420Y-19866484D02*
X18913325Y-19866484D01*
X18913325Y-19866484D02*
X18894277Y-19876008D01*
X18894277Y-19876008D02*
X18884753Y-19885531D01*
X18884753Y-19885531D02*
X18865706Y-19914103D01*
X18865706Y-19914103D02*
X18856182Y-19952198D01*
X18856182Y-19952198D02*
X18856182Y-20028389D01*
X18856182Y-20028389D02*
X18865706Y-20047436D01*
X18865706Y-20047436D02*
X18875229Y-20056960D01*
X18875229Y-20056960D02*
X18894277Y-20066484D01*
X18894277Y-20066484D02*
X18932372Y-20066484D01*
X18932372Y-20066484D02*
X18951420Y-20056960D01*
X18951420Y-20056960D02*
X18960944Y-20047436D01*
X18960944Y-20047436D02*
X18970468Y-20028389D01*
X18970468Y-20028389D02*
X18970468Y-19980770D01*
X18970468Y-19980770D02*
X18960944Y-19961722D01*
X18960944Y-19961722D02*
X18951420Y-19952198D01*
X18951420Y-19952198D02*
X18932372Y-19942674D01*
X18932372Y-19942674D02*
X18894277Y-19942674D01*
X18894277Y-19942674D02*
X18875229Y-19952198D01*
X18875229Y-19952198D02*
X18865706Y-19961722D01*
X18865706Y-19961722D02*
X18856182Y-19980770D01*
X19094277Y-19866484D02*
X19113325Y-19866484D01*
X19113325Y-19866484D02*
X19132372Y-19876008D01*
X19132372Y-19876008D02*
X19141896Y-19885531D01*
X19141896Y-19885531D02*
X19151420Y-19904579D01*
X19151420Y-19904579D02*
X19160944Y-19942674D01*
X19160944Y-19942674D02*
X19160944Y-19990293D01*
X19160944Y-19990293D02*
X19151420Y-20028389D01*
X19151420Y-20028389D02*
X19141896Y-20047436D01*
X19141896Y-20047436D02*
X19132372Y-20056960D01*
X19132372Y-20056960D02*
X19113325Y-20066484D01*
X19113325Y-20066484D02*
X19094277Y-20066484D01*
X19094277Y-20066484D02*
X19075229Y-20056960D01*
X19075229Y-20056960D02*
X19065706Y-20047436D01*
X19065706Y-20047436D02*
X19056182Y-20028389D01*
X19056182Y-20028389D02*
X19046658Y-19990293D01*
X19046658Y-19990293D02*
X19046658Y-19942674D01*
X19046658Y-19942674D02*
X19056182Y-19904579D01*
X19056182Y-19904579D02*
X19065706Y-19885531D01*
X19065706Y-19885531D02*
X19075229Y-19876008D01*
X19075229Y-19876008D02*
X19094277Y-19866484D01*
X19237134Y-19866484D02*
X19237134Y-19904579D01*
X19313325Y-19866484D02*
X19313325Y-19904579D01*
X19608563Y-20142674D02*
X19599039Y-20133150D01*
X19599039Y-20133150D02*
X19579991Y-20104579D01*
X19579991Y-20104579D02*
X19570468Y-20085531D01*
X19570468Y-20085531D02*
X19560944Y-20056960D01*
X19560944Y-20056960D02*
X19551420Y-20009341D01*
X19551420Y-20009341D02*
X19551420Y-19971246D01*
X19551420Y-19971246D02*
X19560944Y-19923627D01*
X19560944Y-19923627D02*
X19570468Y-19895055D01*
X19570468Y-19895055D02*
X19579991Y-19876008D01*
X19579991Y-19876008D02*
X19599039Y-19847436D01*
X19599039Y-19847436D02*
X19608563Y-19837912D01*
X19770468Y-19933150D02*
X19770468Y-20066484D01*
X19722849Y-19856960D02*
X19675230Y-19999817D01*
X19675230Y-19999817D02*
X19799039Y-19999817D01*
X20027611Y-20066484D02*
X20027611Y-19866484D01*
X20113325Y-20066484D02*
X20113325Y-19961722D01*
X20113325Y-19961722D02*
X20103801Y-19942674D01*
X20103801Y-19942674D02*
X20084753Y-19933150D01*
X20084753Y-19933150D02*
X20056182Y-19933150D01*
X20056182Y-19933150D02*
X20037134Y-19942674D01*
X20037134Y-19942674D02*
X20027611Y-19952198D01*
X20237134Y-20066484D02*
X20218087Y-20056960D01*
X20218087Y-20056960D02*
X20208563Y-20047436D01*
X20208563Y-20047436D02*
X20199039Y-20028389D01*
X20199039Y-20028389D02*
X20199039Y-19971246D01*
X20199039Y-19971246D02*
X20208563Y-19952198D01*
X20208563Y-19952198D02*
X20218087Y-19942674D01*
X20218087Y-19942674D02*
X20237134Y-19933150D01*
X20237134Y-19933150D02*
X20265706Y-19933150D01*
X20265706Y-19933150D02*
X20284753Y-19942674D01*
X20284753Y-19942674D02*
X20294277Y-19952198D01*
X20294277Y-19952198D02*
X20303801Y-19971246D01*
X20303801Y-19971246D02*
X20303801Y-20028389D01*
X20303801Y-20028389D02*
X20294277Y-20047436D01*
X20294277Y-20047436D02*
X20284753Y-20056960D01*
X20284753Y-20056960D02*
X20265706Y-20066484D01*
X20265706Y-20066484D02*
X20237134Y-20066484D01*
X20418087Y-20066484D02*
X20399039Y-20056960D01*
X20399039Y-20056960D02*
X20389515Y-20037912D01*
X20389515Y-20037912D02*
X20389515Y-19866484D01*
X20570468Y-20056960D02*
X20551420Y-20066484D01*
X20551420Y-20066484D02*
X20513325Y-20066484D01*
X20513325Y-20066484D02*
X20494277Y-20056960D01*
X20494277Y-20056960D02*
X20484753Y-20037912D01*
X20484753Y-20037912D02*
X20484753Y-19961722D01*
X20484753Y-19961722D02*
X20494277Y-19942674D01*
X20494277Y-19942674D02*
X20513325Y-19933150D01*
X20513325Y-19933150D02*
X20551420Y-19933150D01*
X20551420Y-19933150D02*
X20570468Y-19942674D01*
X20570468Y-19942674D02*
X20579992Y-19961722D01*
X20579992Y-19961722D02*
X20579992Y-19980770D01*
X20579992Y-19980770D02*
X20484753Y-19999817D01*
X20656182Y-20056960D02*
X20675230Y-20066484D01*
X20675230Y-20066484D02*
X20713325Y-20066484D01*
X20713325Y-20066484D02*
X20732373Y-20056960D01*
X20732373Y-20056960D02*
X20741896Y-20037912D01*
X20741896Y-20037912D02*
X20741896Y-20028389D01*
X20741896Y-20028389D02*
X20732373Y-20009341D01*
X20732373Y-20009341D02*
X20713325Y-19999817D01*
X20713325Y-19999817D02*
X20684753Y-19999817D01*
X20684753Y-19999817D02*
X20665706Y-19990293D01*
X20665706Y-19990293D02*
X20656182Y-19971246D01*
X20656182Y-19971246D02*
X20656182Y-19961722D01*
X20656182Y-19961722D02*
X20665706Y-19942674D01*
X20665706Y-19942674D02*
X20684753Y-19933150D01*
X20684753Y-19933150D02*
X20713325Y-19933150D01*
X20713325Y-19933150D02*
X20732373Y-19942674D01*
X20808563Y-20142674D02*
X20818087Y-20133150D01*
X20818087Y-20133150D02*
X20837134Y-20104579D01*
X20837134Y-20104579D02*
X20846658Y-20085531D01*
X20846658Y-20085531D02*
X20856182Y-20056960D01*
X20856182Y-20056960D02*
X20865706Y-20009341D01*
X20865706Y-20009341D02*
X20865706Y-19971246D01*
X20865706Y-19971246D02*
X20856182Y-19923627D01*
X20856182Y-19923627D02*
X20846658Y-19895055D01*
X20846658Y-19895055D02*
X20837134Y-19876008D01*
X20837134Y-19876008D02*
X20818087Y-19847436D01*
X20818087Y-19847436D02*
X20808563Y-19837912D01*
M02*
