G04 #@! TF.GenerationSoftware,KiCad,Pcbnew,8.0.0*
G04 #@! TF.CreationDate,2024-02-25T15:40:58-08:00*
G04 #@! TF.ProjectId,BLDC_Motor Controller,424c4443-5f4d-46f7-946f-7220436f6e74,rev01_1*
G04 #@! TF.SameCoordinates,Original*
G04 #@! TF.FileFunction,Copper,L1,Top*
G04 #@! TF.FilePolarity,Positive*
%FSLAX46Y46*%
G04 Gerber Fmt 4.6, Leading zero omitted, Abs format (unit mm)*
G04 Created by KiCad (PCBNEW 8.0.0) date 2024-02-25 15:40:58*
%MOMM*%
%LPD*%
G01*
G04 APERTURE LIST*
G04 Aperture macros list*
%AMRoundRect*
0 Rectangle with rounded corners*
0 $1 Rounding radius*
0 $2 $3 $4 $5 $6 $7 $8 $9 X,Y pos of 4 corners*
0 Add a 4 corners polygon primitive as box body*
4,1,4,$2,$3,$4,$5,$6,$7,$8,$9,$2,$3,0*
0 Add four circle primitives for the rounded corners*
1,1,$1+$1,$2,$3*
1,1,$1+$1,$4,$5*
1,1,$1+$1,$6,$7*
1,1,$1+$1,$8,$9*
0 Add four rect primitives between the rounded corners*
20,1,$1+$1,$2,$3,$4,$5,0*
20,1,$1+$1,$4,$5,$6,$7,0*
20,1,$1+$1,$6,$7,$8,$9,0*
20,1,$1+$1,$8,$9,$2,$3,0*%
G04 Aperture macros list end*
G04 #@! TA.AperFunction,EtchedComponent*
%ADD10C,0.000000*%
G04 #@! TD*
G04 #@! TA.AperFunction,ComponentPad*
%ADD11C,1.800000*%
G04 #@! TD*
G04 #@! TA.AperFunction,SMDPad,CuDef*
%ADD12RoundRect,0.075000X-0.075000X-0.700000X0.075000X-0.700000X0.075000X0.700000X-0.075000X0.700000X0*%
G04 #@! TD*
G04 #@! TA.AperFunction,SMDPad,CuDef*
%ADD13RoundRect,0.075000X-0.700000X-0.075000X0.700000X-0.075000X0.700000X0.075000X-0.700000X0.075000X0*%
G04 #@! TD*
G04 #@! TA.AperFunction,SMDPad,CuDef*
%ADD14RoundRect,0.225000X0.017678X-0.335876X0.335876X-0.017678X-0.017678X0.335876X-0.335876X0.017678X0*%
G04 #@! TD*
G04 #@! TA.AperFunction,SMDPad,CuDef*
%ADD15RoundRect,0.237500X-0.250000X-0.237500X0.250000X-0.237500X0.250000X0.237500X-0.250000X0.237500X0*%
G04 #@! TD*
G04 #@! TA.AperFunction,SMDPad,CuDef*
%ADD16RoundRect,0.225000X0.225000X0.250000X-0.225000X0.250000X-0.225000X-0.250000X0.225000X-0.250000X0*%
G04 #@! TD*
G04 #@! TA.AperFunction,SMDPad,CuDef*
%ADD17RoundRect,0.237500X0.250000X0.237500X-0.250000X0.237500X-0.250000X-0.237500X0.250000X-0.237500X0*%
G04 #@! TD*
G04 #@! TA.AperFunction,ComponentPad*
%ADD18C,2.200000*%
G04 #@! TD*
G04 #@! TA.AperFunction,SMDPad,CuDef*
%ADD19RoundRect,0.237500X0.237500X-0.250000X0.237500X0.250000X-0.237500X0.250000X-0.237500X-0.250000X0*%
G04 #@! TD*
G04 #@! TA.AperFunction,SMDPad,CuDef*
%ADD20R,1.397003X0.609601*%
G04 #@! TD*
G04 #@! TA.AperFunction,SMDPad,CuDef*
%ADD21R,3.810008X4.500000*%
G04 #@! TD*
G04 #@! TA.AperFunction,SMDPad,CuDef*
%ADD22RoundRect,0.225000X-0.225000X-0.250000X0.225000X-0.250000X0.225000X0.250000X-0.225000X0.250000X0*%
G04 #@! TD*
G04 #@! TA.AperFunction,SMDPad,CuDef*
%ADD23R,2.000000X1.200000*%
G04 #@! TD*
G04 #@! TA.AperFunction,SMDPad,CuDef*
%ADD24R,2.000000X6.000000*%
G04 #@! TD*
G04 #@! TA.AperFunction,SMDPad,CuDef*
%ADD25RoundRect,0.225000X-0.250000X0.225000X-0.250000X-0.225000X0.250000X-0.225000X0.250000X0.225000X0*%
G04 #@! TD*
G04 #@! TA.AperFunction,SMDPad,CuDef*
%ADD26C,0.500000*%
G04 #@! TD*
G04 #@! TA.AperFunction,SMDPad,CuDef*
%ADD27R,4.500000X1.300000*%
G04 #@! TD*
G04 #@! TA.AperFunction,SMDPad,CuDef*
%ADD28R,4.500000X3.000000*%
G04 #@! TD*
G04 #@! TA.AperFunction,SMDPad,CuDef*
%ADD29R,1.200000X1.200000*%
G04 #@! TD*
G04 #@! TA.AperFunction,SMDPad,CuDef*
%ADD30RoundRect,0.112500X-0.112500X0.187500X-0.112500X-0.187500X0.112500X-0.187500X0.112500X0.187500X0*%
G04 #@! TD*
G04 #@! TA.AperFunction,SMDPad,CuDef*
%ADD31RoundRect,0.250000X0.625000X-0.375000X0.625000X0.375000X-0.625000X0.375000X-0.625000X-0.375000X0*%
G04 #@! TD*
G04 #@! TA.AperFunction,SMDPad,CuDef*
%ADD32R,1.399543X3.800000*%
G04 #@! TD*
G04 #@! TA.AperFunction,SMDPad,CuDef*
%ADD33R,1.600000X4.000000*%
G04 #@! TD*
G04 #@! TA.AperFunction,SMDPad,CuDef*
%ADD34RoundRect,0.225000X0.250000X-0.225000X0.250000X0.225000X-0.250000X0.225000X-0.250000X-0.225000X0*%
G04 #@! TD*
G04 #@! TA.AperFunction,SMDPad,CuDef*
%ADD35R,1.220000X0.650000*%
G04 #@! TD*
G04 #@! TA.AperFunction,SMDPad,CuDef*
%ADD36RoundRect,0.237500X-0.237500X0.250000X-0.237500X-0.250000X0.237500X-0.250000X0.237500X0.250000X0*%
G04 #@! TD*
G04 #@! TA.AperFunction,SMDPad,CuDef*
%ADD37R,2.600000X5.600000*%
G04 #@! TD*
G04 #@! TA.AperFunction,SMDPad,CuDef*
%ADD38R,2.600000X0.900000*%
G04 #@! TD*
G04 #@! TA.AperFunction,SMDPad,CuDef*
%ADD39R,2.400000X1.900000*%
G04 #@! TD*
G04 #@! TA.AperFunction,SMDPad,CuDef*
%ADD40RoundRect,0.250000X-0.625000X0.375000X-0.625000X-0.375000X0.625000X-0.375000X0.625000X0.375000X0*%
G04 #@! TD*
G04 #@! TA.AperFunction,SMDPad,CuDef*
%ADD41RoundRect,0.112500X0.112500X-0.187500X0.112500X0.187500X-0.112500X0.187500X-0.112500X-0.187500X0*%
G04 #@! TD*
G04 #@! TA.AperFunction,SMDPad,CuDef*
%ADD42RoundRect,0.250000X1.000000X0.650000X-1.000000X0.650000X-1.000000X-0.650000X1.000000X-0.650000X0*%
G04 #@! TD*
G04 #@! TA.AperFunction,SMDPad,CuDef*
%ADD43RoundRect,0.250000X0.375000X0.625000X-0.375000X0.625000X-0.375000X-0.625000X0.375000X-0.625000X0*%
G04 #@! TD*
G04 #@! TA.AperFunction,SMDPad,CuDef*
%ADD44R,1.580010X0.800000*%
G04 #@! TD*
G04 #@! TA.AperFunction,SMDPad,CuDef*
%ADD45R,3.610000X6.350000*%
G04 #@! TD*
G04 #@! TA.AperFunction,SMDPad,CuDef*
%ADD46R,1.550000X0.300000*%
G04 #@! TD*
G04 #@! TA.AperFunction,SMDPad,CuDef*
%ADD47RoundRect,0.237500X-0.008839X-0.344715X0.344715X0.008839X0.008839X0.344715X-0.344715X-0.008839X0*%
G04 #@! TD*
G04 #@! TA.AperFunction,SMDPad,CuDef*
%ADD48R,0.500000X3.000000*%
G04 #@! TD*
G04 #@! TA.AperFunction,ComponentPad*
%ADD49O,1.200000X1.800000*%
G04 #@! TD*
G04 #@! TA.AperFunction,ComponentPad*
%ADD50O,1.200000X2.000000*%
G04 #@! TD*
G04 #@! TA.AperFunction,SMDPad,CuDef*
%ADD51R,0.300000X1.300000*%
G04 #@! TD*
G04 #@! TA.AperFunction,ComponentPad*
%ADD52C,0.800000*%
G04 #@! TD*
G04 #@! TA.AperFunction,ComponentPad*
%ADD53C,6.400000*%
G04 #@! TD*
G04 #@! TA.AperFunction,SMDPad,CuDef*
%ADD54R,2.000000X1.500000*%
G04 #@! TD*
G04 #@! TA.AperFunction,SMDPad,CuDef*
%ADD55R,2.000000X3.800000*%
G04 #@! TD*
G04 #@! TA.AperFunction,SMDPad,CuDef*
%ADD56R,7.800025X2.600000*%
G04 #@! TD*
G04 #@! TA.AperFunction,SMDPad,CuDef*
%ADD57RoundRect,0.150000X0.825000X0.150000X-0.825000X0.150000X-0.825000X-0.150000X0.825000X-0.150000X0*%
G04 #@! TD*
G04 #@! TA.AperFunction,SMDPad,CuDef*
%ADD58RoundRect,0.250000X0.650000X-0.325000X0.650000X0.325000X-0.650000X0.325000X-0.650000X-0.325000X0*%
G04 #@! TD*
G04 #@! TA.AperFunction,SMDPad,CuDef*
%ADD59R,0.250013X0.529997*%
G04 #@! TD*
G04 #@! TA.AperFunction,SMDPad,CuDef*
%ADD60R,1.300000X4.500000*%
G04 #@! TD*
G04 #@! TA.AperFunction,SMDPad,CuDef*
%ADD61R,1.800000X3.900000*%
G04 #@! TD*
G04 #@! TA.AperFunction,SMDPad,CuDef*
%ADD62RoundRect,0.225000X-0.335876X-0.017678X-0.017678X-0.335876X0.335876X0.017678X0.017678X0.335876X0*%
G04 #@! TD*
G04 #@! TA.AperFunction,SMDPad,CuDef*
%ADD63RoundRect,0.237500X0.287500X0.237500X-0.287500X0.237500X-0.287500X-0.237500X0.287500X-0.237500X0*%
G04 #@! TD*
G04 #@! TA.AperFunction,SMDPad,CuDef*
%ADD64R,1.200000X3.500000*%
G04 #@! TD*
G04 #@! TA.AperFunction,SMDPad,CuDef*
%ADD65R,1.500000X3.400000*%
G04 #@! TD*
G04 #@! TA.AperFunction,SMDPad,CuDef*
%ADD66C,0.200000*%
G04 #@! TD*
G04 #@! TA.AperFunction,SMDPad,CuDef*
%ADD67RoundRect,0.112500X-0.187500X-0.112500X0.187500X-0.112500X0.187500X0.112500X-0.187500X0.112500X0*%
G04 #@! TD*
G04 #@! TA.AperFunction,SMDPad,CuDef*
%ADD68R,4.000000X1.300000*%
G04 #@! TD*
G04 #@! TA.AperFunction,SMDPad,CuDef*
%ADD69R,4.000000X1.900000*%
G04 #@! TD*
G04 #@! TA.AperFunction,ComponentPad*
%ADD70C,3.800000*%
G04 #@! TD*
G04 #@! TA.AperFunction,ComponentPad*
%ADD71O,1.200000X2.200000*%
G04 #@! TD*
G04 #@! TA.AperFunction,ViaPad*
%ADD72C,0.508000*%
G04 #@! TD*
G04 #@! TA.AperFunction,Conductor*
%ADD73C,0.203200*%
G04 #@! TD*
G04 #@! TA.AperFunction,Conductor*
%ADD74C,0.304800*%
G04 #@! TD*
G04 #@! TA.AperFunction,Conductor*
%ADD75C,0.381000*%
G04 #@! TD*
G04 #@! TA.AperFunction,Conductor*
%ADD76C,0.228600*%
G04 #@! TD*
G04 #@! TA.AperFunction,Conductor*
%ADD77C,0.254000*%
G04 #@! TD*
G04 #@! TA.AperFunction,Conductor*
%ADD78C,0.762000*%
G04 #@! TD*
G04 #@! TA.AperFunction,Conductor*
%ADD79C,1.270000*%
G04 #@! TD*
G04 APERTURE END LIST*
D10*
G04 #@! TA.AperFunction,EtchedComponent*
G36*
X231201447Y-134845497D02*
G01*
X228201447Y-134845497D01*
X228201447Y-128845497D01*
X231201447Y-128845497D01*
X231201447Y-134845497D01*
G37*
G04 #@! TD.AperFunction*
G04 #@! TA.AperFunction,EtchedComponent*
G36*
X237092999Y-128393000D02*
G01*
X236092999Y-128393000D01*
X236092999Y-127893000D01*
X237092999Y-127893000D01*
X237092999Y-128393000D01*
G37*
G04 #@! TD.AperFunction*
G04 #@! TA.AperFunction,EtchedComponent*
G36*
X237666219Y-158274285D02*
G01*
X236666219Y-158274285D01*
X236666219Y-157774285D01*
X237666219Y-157774285D01*
X237666219Y-158274285D01*
G37*
G04 #@! TD.AperFunction*
G04 #@! TA.AperFunction,EtchedComponent*
G36*
X241005000Y-146617000D02*
G01*
X240005000Y-146617000D01*
X240005000Y-143617000D01*
X241005000Y-143617000D01*
X241005000Y-146617000D01*
G37*
G04 #@! TD.AperFunction*
G04 #@! TA.AperFunction,EtchedComponent*
G36*
X240219000Y-164627000D02*
G01*
X237219000Y-164627000D01*
X237219000Y-158627000D01*
X240219000Y-158627000D01*
X240219000Y-164627000D01*
G37*
G04 #@! TD.AperFunction*
G04 #@! TA.AperFunction,EtchedComponent*
G36*
X237101000Y-143125000D02*
G01*
X236101000Y-143125000D01*
X236101000Y-142625000D01*
X237101000Y-142625000D01*
X237101000Y-143125000D01*
G37*
G04 #@! TD.AperFunction*
G04 #@! TA.AperFunction,EtchedComponent*
G36*
X231830349Y-149409467D02*
G01*
X228830349Y-149409467D01*
X228830349Y-143409467D01*
X231830349Y-143409467D01*
X231830349Y-149409467D01*
G37*
G04 #@! TD.AperFunction*
G04 #@! TA.AperFunction,EtchedComponent*
G36*
X240149000Y-131823447D02*
G01*
X239149000Y-131823447D01*
X239149000Y-128823447D01*
X240149000Y-128823447D01*
X240149000Y-131823447D01*
G37*
G04 #@! TD.AperFunction*
G04 #@! TA.AperFunction,EtchedComponent*
G36*
X206767856Y-139950023D02*
G01*
X206566923Y-139950023D01*
X206566923Y-139350023D01*
X206767856Y-139350023D01*
X206767856Y-139950023D01*
G37*
G04 #@! TD.AperFunction*
D11*
X258150000Y-132290000D03*
X258150000Y-124670000D03*
X255610000Y-132290000D03*
X255610000Y-124670000D03*
X253070000Y-132290000D03*
X253070000Y-124670000D03*
X250530000Y-132290000D03*
X250530000Y-124670000D03*
D12*
X188868000Y-132965000D03*
X189368000Y-132965000D03*
X189868000Y-132965000D03*
X190368000Y-132965000D03*
X190868000Y-132965000D03*
X191368000Y-132965000D03*
X191868000Y-132965000D03*
X192368000Y-132965000D03*
X192868000Y-132965000D03*
X193368000Y-132965000D03*
X193868000Y-132965000D03*
X194368000Y-132965000D03*
X194868000Y-132965000D03*
X195368000Y-132965000D03*
X195868000Y-132965000D03*
X196368000Y-132965000D03*
D13*
X198293000Y-134890000D03*
X198293000Y-135390000D03*
X198293000Y-135890000D03*
X198293000Y-136390000D03*
X198293000Y-136890000D03*
X198293000Y-137390000D03*
X198293000Y-137890000D03*
X198293000Y-138390000D03*
X198293000Y-138890000D03*
X198293000Y-139390000D03*
X198293000Y-139890000D03*
X198293000Y-140390000D03*
X198293000Y-140890000D03*
X198293000Y-141390000D03*
X198293000Y-141890000D03*
X198293000Y-142390000D03*
D12*
X196368000Y-144315000D03*
X195868000Y-144315000D03*
X195368000Y-144315000D03*
X194868000Y-144315000D03*
X194368000Y-144315000D03*
X193868000Y-144315000D03*
X193368000Y-144315000D03*
X192868000Y-144315000D03*
X192368000Y-144315000D03*
X191868000Y-144315000D03*
X191368000Y-144315000D03*
X190868000Y-144315000D03*
X190368000Y-144315000D03*
X189868000Y-144315000D03*
X189368000Y-144315000D03*
X188868000Y-144315000D03*
D13*
X186943000Y-142390000D03*
X186943000Y-141890000D03*
X186943000Y-141390000D03*
X186943000Y-140890000D03*
X186943000Y-140390000D03*
X186943000Y-139890000D03*
X186943000Y-139390000D03*
X186943000Y-138890000D03*
X186943000Y-138390000D03*
X186943000Y-137890000D03*
X186943000Y-137390000D03*
X186943000Y-136890000D03*
X186943000Y-136390000D03*
X186943000Y-135890000D03*
X186943000Y-135390000D03*
X186943000Y-134890000D03*
D14*
X219415992Y-145836008D03*
X220512008Y-144739992D03*
D15*
X241784500Y-165862000D03*
X243609500Y-165862000D03*
D14*
X222590992Y-143296008D03*
X223687008Y-142199992D03*
D16*
X201327979Y-156116195D03*
X199777979Y-156116195D03*
X189243000Y-146558000D03*
X187693000Y-146558000D03*
D17*
X244076500Y-149308000D03*
X242251500Y-149308000D03*
D15*
X218924500Y-109093000D03*
X220749500Y-109093000D03*
D17*
X205722500Y-136608000D03*
X203897500Y-136608000D03*
D18*
X236552172Y-140221411D03*
X229052299Y-140221411D03*
D19*
X222855491Y-106322500D03*
X222855491Y-104497500D03*
D20*
X242605189Y-129114971D03*
X242605189Y-130384973D03*
X242605189Y-131654976D03*
X242605189Y-132924978D03*
X248244000Y-132924978D03*
X248244000Y-131654976D03*
X248244000Y-130384973D03*
X248244000Y-129114971D03*
D21*
X246135796Y-131019975D03*
D22*
X199758000Y-159131000D03*
X201308000Y-159131000D03*
D23*
X182499000Y-117220994D03*
X182499000Y-119761000D03*
X189999128Y-119761000D03*
X189999128Y-117220994D03*
D24*
X228201447Y-131845497D03*
X231201447Y-131845497D03*
D25*
X209128000Y-132277000D03*
X209128000Y-133827000D03*
D26*
X236092999Y-128143000D03*
X237092999Y-128143000D03*
D27*
X170040000Y-114569987D03*
X170040000Y-117069987D03*
X170040000Y-119570013D03*
X170040000Y-122070013D03*
D28*
X163040000Y-125420076D03*
X163040000Y-111219924D03*
D29*
X221196000Y-132883432D03*
X218396000Y-132883432D03*
D30*
X173101000Y-130903000D03*
X173101000Y-133003000D03*
D31*
X214716000Y-169504000D03*
X214716000Y-166704000D03*
D19*
X255459543Y-110417337D03*
X255459543Y-108592337D03*
D32*
X175778038Y-108785611D03*
X178277911Y-108785103D03*
X180778038Y-108785103D03*
D33*
X183728000Y-102219190D03*
X172828076Y-102228588D03*
D34*
X216535000Y-151905000D03*
X216535000Y-150355000D03*
D26*
X236666219Y-158024285D03*
X237666219Y-158024285D03*
D15*
X178792500Y-117475000D03*
X180617500Y-117475000D03*
D35*
X173355000Y-117430676D03*
X173355000Y-119330676D03*
X175975000Y-118380676D03*
D25*
X214623012Y-132277000D03*
X214623012Y-133827000D03*
D19*
X203813072Y-157630500D03*
X203813072Y-155805500D03*
D16*
X205378038Y-156116195D03*
X206928038Y-156116195D03*
D36*
X213282794Y-108688500D03*
X213282794Y-110513500D03*
D22*
X204076000Y-144272000D03*
X205626000Y-144272000D03*
D37*
X234119972Y-146389567D03*
D38*
X234119972Y-150483547D03*
D37*
X238519768Y-146389567D03*
D38*
X238519768Y-150483547D03*
D17*
X207241523Y-157607000D03*
X205416523Y-157607000D03*
D39*
X178139797Y-139420051D03*
X178139797Y-135319975D03*
D17*
X229385500Y-112649000D03*
X227560500Y-112649000D03*
X195984500Y-121285000D03*
X194159500Y-121285000D03*
D15*
X245172500Y-151892000D03*
X246997500Y-151892000D03*
D17*
X245387500Y-164465000D03*
X243562500Y-164465000D03*
D22*
X188315000Y-159131000D03*
X189865000Y-159131000D03*
D19*
X174879000Y-132738500D03*
X174879000Y-130913500D03*
D40*
X212430000Y-120984000D03*
X212430000Y-123784000D03*
D19*
X201803000Y-130706500D03*
X201803000Y-128881500D03*
D41*
X173060000Y-139690000D03*
X173060000Y-137590000D03*
D16*
X183995000Y-141732000D03*
X182445000Y-141732000D03*
D20*
X248244000Y-142577029D03*
X248244000Y-141307027D03*
X248244000Y-140037024D03*
X248244000Y-138767022D03*
X242605189Y-138767022D03*
X242605189Y-140037024D03*
X242605189Y-141307027D03*
X242605189Y-142577029D03*
D21*
X244713393Y-140672025D03*
D15*
X248261500Y-115443000D03*
X250086500Y-115443000D03*
D19*
X218780000Y-166984500D03*
X218780000Y-165159500D03*
D42*
X248974000Y-118872000D03*
X244974000Y-118872000D03*
D43*
X255019000Y-115443000D03*
X252219000Y-115443000D03*
D15*
X240768500Y-150622000D03*
X242593500Y-150622000D03*
X182307500Y-137878000D03*
X184132500Y-137878000D03*
D36*
X191897000Y-128627500D03*
X191897000Y-130452500D03*
D44*
X176918000Y-129170114D03*
X182918000Y-129170114D03*
X176918000Y-132869886D03*
X182918000Y-132869886D03*
D15*
X245299500Y-121876000D03*
X247124500Y-121876000D03*
D25*
X180467000Y-134988000D03*
X180467000Y-136538000D03*
D45*
X212415857Y-142100104D03*
D46*
X216165857Y-135350104D03*
X216165857Y-135850104D03*
X216165857Y-136350104D03*
X216165857Y-136850104D03*
X216165857Y-137350104D03*
X216165857Y-137850104D03*
X216165857Y-138350104D03*
X216165857Y-138850104D03*
X216165857Y-139350104D03*
X216165857Y-139850104D03*
X216165857Y-140350104D03*
X216165857Y-140850104D03*
X216165857Y-141350104D03*
X216165857Y-141850104D03*
X216165857Y-142350104D03*
X216165857Y-142850104D03*
X216165857Y-143350104D03*
X216165857Y-143850104D03*
X216165857Y-144350104D03*
X216165857Y-144850104D03*
X216165857Y-145350104D03*
X216165857Y-145850104D03*
X216165857Y-146350104D03*
X216165857Y-146850104D03*
X216165857Y-147350104D03*
X216165857Y-147850104D03*
X216165857Y-148350104D03*
X216165857Y-148850104D03*
X208665857Y-148850104D03*
X208665857Y-148350104D03*
X208665857Y-147850104D03*
X208665857Y-147350104D03*
X208665857Y-146850104D03*
X208665857Y-146350104D03*
X208665857Y-145850104D03*
X208665857Y-145350104D03*
X208665857Y-144850104D03*
X208665857Y-144350104D03*
X208665857Y-143850104D03*
X208665857Y-143350104D03*
X208665857Y-142850104D03*
X208665857Y-142350104D03*
X208665857Y-141850104D03*
X208665857Y-141350104D03*
X208665857Y-140850104D03*
X208665857Y-140350104D03*
X208665857Y-139850104D03*
X208665857Y-139350104D03*
X208665857Y-138850104D03*
X208665857Y-138350104D03*
X208665857Y-137850104D03*
X208665857Y-137350104D03*
X208665857Y-136850104D03*
X208665857Y-136350104D03*
X208665857Y-135850104D03*
X208665857Y-135350104D03*
D34*
X215315876Y-151905000D03*
X215315876Y-150355000D03*
D47*
X240273765Y-135773235D03*
X241564235Y-134482765D03*
D19*
X192097336Y-157630500D03*
X192097336Y-155805500D03*
D20*
X248244000Y-127381266D03*
X248244000Y-126111264D03*
X248244000Y-124841261D03*
X248244000Y-123571259D03*
X242605189Y-123571259D03*
X242605189Y-124841261D03*
X242605189Y-126111264D03*
X242605189Y-127381266D03*
D21*
X244713393Y-125476262D03*
D48*
X240005000Y-145117000D03*
X241005000Y-145117000D03*
D22*
X204035000Y-139148000D03*
X205585000Y-139148000D03*
X173342000Y-120650000D03*
X174892000Y-120650000D03*
D15*
X203897500Y-137878000D03*
X205722500Y-137878000D03*
D19*
X210687440Y-106322500D03*
X210687440Y-104497500D03*
D20*
X242605189Y-158960000D03*
X242605189Y-160230002D03*
X242605189Y-161500005D03*
X242605189Y-162770007D03*
X248244000Y-162770007D03*
X248244000Y-161500005D03*
X248244000Y-160230002D03*
X248244000Y-158960000D03*
D21*
X246135796Y-160865004D03*
D24*
X237219000Y-161627000D03*
X240219000Y-161627000D03*
D49*
X212423895Y-101895850D03*
D50*
X212423895Y-106095748D03*
D49*
X221074137Y-101895850D03*
D50*
X221074137Y-106095748D03*
D51*
X219799054Y-106864100D03*
X218998953Y-106864100D03*
X218499080Y-106864100D03*
X217499080Y-106864100D03*
X215998953Y-106864100D03*
X214998953Y-106864100D03*
X214499080Y-106864100D03*
X213698978Y-106864100D03*
X213399003Y-106864100D03*
X214198851Y-106864100D03*
X215499334Y-106864100D03*
X216499080Y-106864100D03*
X216998953Y-106864100D03*
X217998953Y-106864100D03*
X219298927Y-106864100D03*
X220099029Y-106864100D03*
D34*
X214118269Y-151905000D03*
X214118269Y-150355000D03*
X215519000Y-116345000D03*
X215519000Y-114795000D03*
D19*
X203327000Y-130706500D03*
X203327000Y-128881500D03*
D16*
X195235500Y-156116195D03*
X193685500Y-156116195D03*
D34*
X217013000Y-116332000D03*
X217013000Y-114782000D03*
D52*
X162960000Y-104200000D03*
X163662944Y-102502944D03*
X163662944Y-105897056D03*
X165360000Y-101800000D03*
D53*
X165360000Y-104200000D03*
D52*
X165360000Y-106600000D03*
X167057056Y-102502944D03*
X167057056Y-105897056D03*
X167760000Y-104200000D03*
D34*
X173482000Y-116218000D03*
X173482000Y-114668000D03*
D52*
X162960000Y-169200000D03*
X163662944Y-167502944D03*
X163662944Y-170897056D03*
X165360000Y-166800000D03*
D53*
X165360000Y-169200000D03*
D52*
X165360000Y-171600000D03*
X167057056Y-167502944D03*
X167057056Y-170897056D03*
X167760000Y-169200000D03*
D36*
X176657000Y-158853500D03*
X176657000Y-160678500D03*
D20*
X248244000Y-157436000D03*
X248244000Y-156165998D03*
X248244000Y-154895995D03*
X248244000Y-153625993D03*
X242605189Y-153625993D03*
X242605189Y-154895995D03*
X242605189Y-156165998D03*
X242605189Y-157436000D03*
D21*
X244713393Y-155530996D03*
D36*
X210144000Y-121725500D03*
X210144000Y-123550500D03*
D15*
X218035500Y-138430000D03*
X219860500Y-138430000D03*
D54*
X206994000Y-115512000D03*
X206994000Y-117812000D03*
D55*
X213294000Y-117812000D03*
D54*
X206994000Y-120112000D03*
D16*
X183995000Y-139656000D03*
X182445000Y-139656000D03*
D15*
X182348500Y-136525000D03*
X184173500Y-136525000D03*
D31*
X221574000Y-169548000D03*
X221574000Y-166748000D03*
D36*
X214630000Y-108688500D03*
X214630000Y-110513500D03*
D15*
X249150500Y-169531337D03*
X250975500Y-169531337D03*
D56*
X219439898Y-129139898D03*
X219439898Y-122740102D03*
D25*
X200152000Y-117208000D03*
X200152000Y-118758000D03*
D34*
X187833000Y-132982000D03*
X187833000Y-131432000D03*
D22*
X197980000Y-130683000D03*
X199530000Y-130683000D03*
D16*
X189878000Y-156083000D03*
X188328000Y-156083000D03*
D34*
X198206000Y-133827000D03*
X198206000Y-132277000D03*
X199476000Y-133827000D03*
X199476000Y-132277000D03*
D19*
X197847576Y-157630500D03*
X197847576Y-155805500D03*
D25*
X213249259Y-132277000D03*
X213249259Y-133827000D03*
D57*
X197801000Y-119888000D03*
X197801000Y-118618000D03*
X197801000Y-117348000D03*
X197801000Y-116078000D03*
X192851000Y-116078000D03*
X192851000Y-117348000D03*
X192851000Y-118618000D03*
X192851000Y-119888000D03*
D36*
X206842000Y-132393500D03*
X206842000Y-134218500D03*
D30*
X218440000Y-114393000D03*
X218440000Y-116493000D03*
D15*
X178792500Y-119253000D03*
X180617500Y-119253000D03*
D36*
X177419000Y-117451500D03*
X177419000Y-119276500D03*
D17*
X244711500Y-134576000D03*
X242886500Y-134576000D03*
D41*
X173101000Y-136051000D03*
X173101000Y-133951000D03*
D52*
X252960000Y-169200000D03*
X253662944Y-167502944D03*
X253662944Y-170897056D03*
X255360000Y-166800000D03*
D53*
X255360000Y-169200000D03*
D52*
X255360000Y-171600000D03*
X257057056Y-167502944D03*
X257057056Y-170897056D03*
X257760000Y-169200000D03*
D34*
X180467000Y-139466684D03*
X180467000Y-137916684D03*
D36*
X182712000Y-108263500D03*
X182712000Y-110088500D03*
X219964000Y-114530500D03*
X219964000Y-116355500D03*
D37*
X233344102Y-131703487D03*
D38*
X233344102Y-135797467D03*
D37*
X237743898Y-131703487D03*
D38*
X237743898Y-135797467D03*
D58*
X211668000Y-130463000D03*
X211668000Y-127513000D03*
D15*
X178157500Y-160782000D03*
X179982500Y-160782000D03*
D17*
X190015500Y-157607000D03*
X188190500Y-157607000D03*
D26*
X236101000Y-142875000D03*
X237101000Y-142875000D03*
D16*
X183995000Y-144272000D03*
X182445000Y-144272000D03*
D59*
X215911936Y-109924089D03*
X216412064Y-109924089D03*
X216911936Y-109924089D03*
X217412064Y-109924089D03*
X217162127Y-109024064D03*
X216662000Y-109024064D03*
X216162127Y-109024064D03*
D11*
X250530000Y-155150000D03*
X250530000Y-162770000D03*
X253070000Y-155150000D03*
X253070000Y-162770000D03*
X255610000Y-155150000D03*
X255610000Y-162770000D03*
X258150000Y-155150000D03*
X258150000Y-162770000D03*
D36*
X165354000Y-163171500D03*
X165354000Y-164996500D03*
D22*
X204076000Y-142875000D03*
X205626000Y-142875000D03*
X193789000Y-159131000D03*
X195339000Y-159131000D03*
D60*
X189674978Y-164560005D03*
X192174978Y-164560005D03*
X194675004Y-164560005D03*
X197175004Y-164560005D03*
X199675004Y-164560005D03*
X202175004Y-164560005D03*
D61*
X205474877Y-171860107D03*
X186375055Y-171860107D03*
D22*
X204035000Y-140418000D03*
X205585000Y-140418000D03*
D58*
X209158000Y-130463000D03*
X209158000Y-127513000D03*
D52*
X252960000Y-104200000D03*
X253662944Y-102502944D03*
X253662944Y-105897056D03*
X255360000Y-101800000D03*
D53*
X255360000Y-104200000D03*
D52*
X255360000Y-106600000D03*
X257057056Y-102502944D03*
X257057056Y-105897056D03*
X257760000Y-104200000D03*
D25*
X215996765Y-133827000D03*
X215996765Y-132277000D03*
D40*
X222123000Y-113535000D03*
X222123000Y-116335000D03*
D16*
X208420000Y-149816000D03*
X206870000Y-149816000D03*
D24*
X228830349Y-146409467D03*
X231830349Y-146409467D03*
D16*
X186576000Y-133858000D03*
X185026000Y-133858000D03*
D62*
X218272992Y-135976992D03*
X219369008Y-137073008D03*
D17*
X201431524Y-157607000D03*
X199606524Y-157607000D03*
D48*
X239149000Y-130323447D03*
X240149000Y-130323447D03*
D25*
X210501753Y-132277000D03*
X210501753Y-133827000D03*
D41*
X204556000Y-110734000D03*
X204556000Y-108634000D03*
D63*
X184095000Y-143002000D03*
X182345000Y-143002000D03*
D64*
X176890013Y-164588504D03*
X179389886Y-164588504D03*
D65*
X182340102Y-171638542D03*
X173940051Y-171638542D03*
D19*
X186550000Y-157630500D03*
X186550000Y-155805500D03*
D66*
X206666923Y-139350259D03*
X206667718Y-139950259D03*
D34*
X222504000Y-140094000D03*
X222504000Y-138544000D03*
D19*
X217002000Y-166984500D03*
X217002000Y-165159500D03*
D22*
X205854000Y-123698000D03*
X207404000Y-123698000D03*
D58*
X206648000Y-130463000D03*
X206648000Y-127513000D03*
D19*
X170012000Y-106024500D03*
X170012000Y-104199500D03*
D17*
X195489500Y-157607000D03*
X193664500Y-157607000D03*
D15*
X245721500Y-137160000D03*
X247546500Y-137160000D03*
D22*
X197431000Y-146006000D03*
X198981000Y-146006000D03*
X197417042Y-144272000D03*
X198967042Y-144272000D03*
D67*
X205579000Y-125603000D03*
X207679000Y-125603000D03*
D25*
X211875506Y-132277000D03*
X211875506Y-133827000D03*
D34*
X184236000Y-109951000D03*
X184236000Y-108401000D03*
D20*
X242605189Y-143974000D03*
X242605189Y-145244002D03*
X242605189Y-146514005D03*
X242605189Y-147784007D03*
X248244000Y-147784007D03*
X248244000Y-146514005D03*
X248244000Y-145244002D03*
X248244000Y-143974000D03*
D21*
X246135796Y-145879004D03*
D22*
X178168000Y-158877000D03*
X179718000Y-158877000D03*
D68*
X169840025Y-134980325D03*
X169840025Y-137480452D03*
X169840025Y-139980325D03*
X169840025Y-142480452D03*
X169840025Y-144980325D03*
X169840025Y-147480452D03*
X169840025Y-149980325D03*
X169840025Y-152480452D03*
D69*
X162840025Y-155730389D03*
X162840025Y-131730389D03*
D15*
X203897500Y-135338000D03*
X205722500Y-135338000D03*
D22*
X205854000Y-122301000D03*
X207404000Y-122301000D03*
D70*
X235500152Y-115260292D03*
X242700051Y-115260292D03*
D71*
X245850165Y-109260292D03*
X232350038Y-109260292D03*
D11*
X250530000Y-139910000D03*
X250530000Y-147530000D03*
X253070000Y-139910000D03*
X253070000Y-147530000D03*
X255610000Y-139910000D03*
X255610000Y-147530000D03*
X258150000Y-139910000D03*
X258150000Y-147530000D03*
D60*
X202673022Y-108655995D03*
X200173022Y-108655995D03*
X197672996Y-108655995D03*
X195172996Y-108655995D03*
X192672996Y-108655995D03*
X190172996Y-108655995D03*
D61*
X186873123Y-101355893D03*
X205972945Y-101355893D03*
D22*
X205600000Y-159131000D03*
X207150000Y-159131000D03*
D18*
X235663172Y-155561589D03*
X228163299Y-155561589D03*
X240870172Y-119239589D03*
X233370299Y-119239589D03*
D72*
X205359000Y-155321000D03*
X212090000Y-138049000D03*
X213868000Y-137922000D03*
X212979000Y-137033000D03*
X214249000Y-148336000D03*
X213233000Y-145796000D03*
X213360000Y-144145000D03*
X209677000Y-151003000D03*
X211836000Y-149479000D03*
X211709000Y-147955000D03*
X211582000Y-146177000D03*
X204470000Y-126365000D03*
X173101000Y-130048000D03*
X206883000Y-154559000D03*
X218948000Y-113411000D03*
X186563000Y-146431000D03*
X203708000Y-148463000D03*
X196977000Y-143383000D03*
X181737000Y-154051000D03*
X207318593Y-146758325D03*
X203962000Y-111506000D03*
X206756000Y-151765000D03*
X186563000Y-144272000D03*
X201041003Y-122936003D03*
X201041000Y-117221000D03*
X210312000Y-138176000D03*
X218313000Y-113411000D03*
X219710000Y-113411000D03*
X181737000Y-145796000D03*
X196469000Y-138176000D03*
X214122000Y-131445000D03*
X179324000Y-162560000D03*
X212598000Y-131445000D03*
X229108000Y-143764000D03*
X210312000Y-131445000D03*
X209914064Y-139852725D03*
X185784875Y-140253281D03*
X188171999Y-140081000D03*
X212979000Y-107696000D03*
X189611000Y-167132000D03*
X244696402Y-135393216D03*
X175767996Y-120650000D03*
X208153000Y-123698000D03*
X209168999Y-149606000D03*
X178308000Y-106680000D03*
X222885000Y-169291000D03*
X207137000Y-159893000D03*
X169770650Y-151489481D03*
X199057043Y-112051571D03*
X229108000Y-146939000D03*
X167640000Y-152451446D03*
X236601000Y-160274000D03*
X199517000Y-129921000D03*
X220980000Y-113538000D03*
X204026407Y-141124505D03*
X170307000Y-123444000D03*
X178308000Y-110998000D03*
X172085000Y-139954000D03*
X214643003Y-114794997D03*
X197621550Y-106129182D03*
X256159000Y-115443000D03*
X191897000Y-127762000D03*
X215773000Y-152908000D03*
X229108000Y-146304000D03*
X194573702Y-135323572D03*
X196363003Y-142679413D03*
X210820000Y-144145000D03*
X237490000Y-164084000D03*
X192659000Y-111252000D03*
X181428163Y-140900248D03*
X213360000Y-131445000D03*
X189369053Y-143256000D03*
X220599000Y-107442000D03*
X237490000Y-160274000D03*
X213868000Y-152908000D03*
X248350686Y-120123624D03*
X250825000Y-118872000D03*
X169737462Y-140893624D03*
X182463525Y-145008721D03*
X170012000Y-106934000D03*
X195580000Y-130175000D03*
X222849421Y-107198554D03*
X214503000Y-152908000D03*
X174879000Y-133731000D03*
X181482998Y-142112996D03*
X229108000Y-145034000D03*
X181610000Y-139954000D03*
X177368376Y-108650461D03*
X227670000Y-131274000D03*
X213296500Y-139065000D03*
X189362711Y-134207093D03*
X208280000Y-122301000D03*
X207352184Y-114477969D03*
X188585299Y-131300237D03*
X220555637Y-137838830D03*
X217170000Y-131445000D03*
X236601000Y-162814000D03*
X246244371Y-164424330D03*
X185685395Y-133186484D03*
X229108000Y-145669000D03*
X211074000Y-131445000D03*
X197729479Y-132847052D03*
X213868000Y-130429000D03*
X205740000Y-131445000D03*
X188459844Y-137631585D03*
X214884000Y-131445000D03*
X227670000Y-130004000D03*
X229108000Y-148844000D03*
X203897500Y-134581683D03*
X237490000Y-162179000D03*
X228219000Y-147574000D03*
X172466000Y-114554000D03*
X237490000Y-159004000D03*
X229108000Y-147574000D03*
X214630000Y-111252000D03*
X229108000Y-148209000D03*
X249555000Y-120071035D03*
X216027000Y-169504000D03*
X214122000Y-139065000D03*
X193103061Y-134711282D03*
X183017563Y-138937239D03*
X218059000Y-131699000D03*
X228559000Y-132544000D03*
X220265235Y-169249892D03*
X213407235Y-169462892D03*
X227670000Y-133814000D03*
X178518536Y-164794163D03*
X196596000Y-118618000D03*
X203142826Y-137882483D03*
X175133000Y-105664000D03*
X237490000Y-160909000D03*
X208788000Y-131445000D03*
X173101000Y-136652000D03*
X203327001Y-142748000D03*
X237490000Y-161544000D03*
X229108000Y-144399000D03*
X228559000Y-134449000D03*
X210693000Y-107188000D03*
X228219000Y-146304000D03*
X228219000Y-144399000D03*
X196221714Y-159106205D03*
X185776028Y-112727348D03*
X195580000Y-139446000D03*
X208337998Y-115512002D03*
X248350686Y-117618079D03*
X197672996Y-111252000D03*
X228559000Y-133814000D03*
X211074000Y-120523000D03*
X188722000Y-111633000D03*
X198987931Y-145279572D03*
X211836000Y-131445000D03*
X210963689Y-144843565D03*
X169770650Y-139043481D03*
X217012994Y-114109500D03*
X167343182Y-114605446D03*
X223266000Y-113535000D03*
X187706000Y-145669000D03*
X180797815Y-160793921D03*
X209200894Y-113625463D03*
X236601000Y-159004000D03*
X205710033Y-115487892D03*
X190627000Y-159131000D03*
X210947000Y-115443000D03*
X227670000Y-133179000D03*
X244076500Y-150114000D03*
X188700481Y-164620350D03*
X214630000Y-130429000D03*
X237490000Y-159639000D03*
X211600594Y-145017745D03*
X212471000Y-139065000D03*
X167640000Y-140005446D03*
X211645500Y-139065000D03*
X195707000Y-135382000D03*
X189103000Y-145542000D03*
X228219000Y-145669000D03*
X203360238Y-139125133D03*
X207264000Y-131445000D03*
X176846632Y-118363999D03*
X165354000Y-161798000D03*
X237490000Y-162814000D03*
X208026000Y-131445000D03*
X228559000Y-130639000D03*
X175133000Y-118380676D03*
X192786000Y-142113000D03*
X182996098Y-130893020D03*
X203962000Y-164211000D03*
X203322036Y-144610272D03*
X182626000Y-134747000D03*
X228219000Y-143764000D03*
X186875854Y-151633274D03*
X198987931Y-143628572D03*
X191719376Y-108650461D03*
X236601000Y-164084000D03*
X207391014Y-138938000D03*
X207391000Y-139700000D03*
X236601000Y-163449000D03*
X212090000Y-109093000D03*
X217170000Y-132968999D03*
X210820000Y-139954000D03*
X189103000Y-131699000D03*
X228219000Y-148209000D03*
X187198000Y-149098000D03*
X198583515Y-108683650D03*
X217170000Y-132207000D03*
X179324000Y-166624000D03*
X172212000Y-129667000D03*
X213106000Y-130429000D03*
X189611000Y-162052000D03*
X184242318Y-107592017D03*
X180530355Y-158890844D03*
X217043000Y-152908000D03*
X209804000Y-149225000D03*
X247359500Y-118872000D03*
X228219000Y-145034000D03*
X227670000Y-129369000D03*
X228559000Y-129369000D03*
X194310000Y-138811000D03*
X180263624Y-164780539D03*
X193675000Y-155321000D03*
X172085000Y-152400000D03*
X216408000Y-152908000D03*
X215138000Y-152908000D03*
X227670000Y-132544000D03*
X181186499Y-136779000D03*
X195984500Y-120396000D03*
X196733372Y-108650461D03*
X191262000Y-142875000D03*
X236601000Y-162179000D03*
X200110900Y-132859295D03*
X210820000Y-143319500D03*
X221402000Y-108458000D03*
X169897650Y-113643481D03*
X228559000Y-131274000D03*
X247728292Y-169519405D03*
X216408000Y-131445000D03*
X181172359Y-137599183D03*
X195849053Y-112271228D03*
X169737462Y-153339624D03*
X206502000Y-131445000D03*
X205740000Y-132334000D03*
X228559000Y-130004000D03*
X179714701Y-136796763D03*
X256286000Y-110417337D03*
X190550624Y-164653539D03*
X228559000Y-133179000D03*
X236601000Y-159639000D03*
X236601000Y-160909000D03*
X192607554Y-106129182D03*
X209550000Y-131445000D03*
X184435360Y-113848491D03*
X215646000Y-131445000D03*
X228219000Y-146939000D03*
X205105000Y-120904000D03*
X228559000Y-131909000D03*
X199229505Y-118701736D03*
X236601000Y-161544000D03*
X216408000Y-110490000D03*
X237490000Y-163449000D03*
X199771000Y-155321000D03*
X169864462Y-115493624D03*
X209169000Y-111125000D03*
X208026000Y-132334000D03*
X207616280Y-148959699D03*
X227670000Y-134449000D03*
X179740572Y-137915069D03*
X228219000Y-148844000D03*
X179218519Y-108683650D03*
X199644000Y-128904001D03*
X193569519Y-108683650D03*
X249555000Y-117565490D03*
X227670000Y-131909000D03*
X188341000Y-155321000D03*
X211074000Y-111379000D03*
X227670000Y-130639000D03*
X202184000Y-159131000D03*
X190428266Y-134293091D03*
X183261000Y-134366000D03*
X186690000Y-112649000D03*
X185293000Y-138557000D03*
X183007000Y-131699000D03*
X187833000Y-111887000D03*
X193059164Y-131464164D03*
X207391000Y-135763000D03*
X209865864Y-142379131D03*
X209931000Y-141605000D03*
X240878000Y-127337000D03*
X239171554Y-153577806D03*
X239989000Y-138640000D03*
X246339000Y-126067000D03*
X213868000Y-135509000D03*
X238211000Y-139910000D03*
X243418000Y-127464000D03*
X239171554Y-154847806D03*
X239100000Y-139275000D03*
X240878000Y-138640000D03*
X243418000Y-138640000D03*
X244942000Y-157563000D03*
X240878000Y-124162000D03*
X246339000Y-157563000D03*
X239989000Y-127337000D03*
X238211000Y-123527000D03*
X238282554Y-153577806D03*
X239100000Y-127337000D03*
X240949554Y-156117806D03*
X240878000Y-139910000D03*
X238211000Y-141815000D03*
X217551000Y-150876000D03*
X240878000Y-140545000D03*
X240878000Y-141815000D03*
X240060554Y-155482806D03*
X239989000Y-124162000D03*
X246339000Y-123400000D03*
X239989000Y-141180000D03*
X238211000Y-126067000D03*
X239100000Y-124797000D03*
X240949554Y-157387806D03*
X239100000Y-138640000D03*
X244815000Y-156166000D03*
X239989000Y-125432000D03*
X240949554Y-156752806D03*
X240949554Y-154212806D03*
X240878000Y-125432000D03*
X243418000Y-139910000D03*
X244815000Y-154769000D03*
X239989000Y-139910000D03*
X239989000Y-126702000D03*
X244815000Y-139910000D03*
X240060554Y-154847806D03*
X240878000Y-126067000D03*
X239100000Y-123527000D03*
X244815000Y-123400000D03*
X238282554Y-154847806D03*
X240060554Y-154212806D03*
X240949554Y-154847806D03*
X239989000Y-140545000D03*
X239171554Y-156117806D03*
X240878000Y-124797000D03*
X246339000Y-139910000D03*
X246339000Y-138640000D03*
X243418000Y-142704000D03*
X244942000Y-142704000D03*
X239100000Y-141815000D03*
X238211000Y-124162000D03*
X239100000Y-139910000D03*
X238282554Y-156117806D03*
X239100000Y-126067000D03*
X239989000Y-123527000D03*
X238211000Y-139275000D03*
X238282554Y-154212806D03*
X239171554Y-157387806D03*
X238211000Y-127337000D03*
X240878000Y-141180000D03*
X240878000Y-123527000D03*
X243418000Y-156166000D03*
X243418000Y-153499000D03*
X239171554Y-154212806D03*
X213360000Y-135001000D03*
X214376000Y-136017000D03*
X243418000Y-123400000D03*
X239989000Y-142450000D03*
X244815000Y-153499000D03*
X240060554Y-156117806D03*
X246339000Y-154769000D03*
X238282554Y-156752806D03*
X239100000Y-125432000D03*
X240949554Y-155482806D03*
X244815000Y-138640000D03*
X246339000Y-153499000D03*
X239171554Y-156752806D03*
X238211000Y-142450000D03*
X239171554Y-155482806D03*
X240060554Y-153577806D03*
X238282554Y-155482806D03*
X244942000Y-127464000D03*
X243418000Y-157563000D03*
X244815000Y-126067000D03*
X243418000Y-141307000D03*
X240949554Y-153577806D03*
X246339000Y-142704000D03*
X217297000Y-149987000D03*
X238282554Y-157387806D03*
X238211000Y-126702000D03*
X239100000Y-126702000D03*
X243418000Y-126067000D03*
X244815000Y-124670000D03*
X239100000Y-141180000D03*
X218186000Y-150114000D03*
X239100000Y-142450000D03*
X244815000Y-141307000D03*
X239989000Y-124797000D03*
X238211000Y-125432000D03*
X239989000Y-126067000D03*
X239989000Y-139275000D03*
X246339000Y-124670000D03*
X214884000Y-136525000D03*
X238211000Y-124797000D03*
X240060554Y-157387806D03*
X238211000Y-138640000D03*
X240878000Y-142450000D03*
X239100000Y-124162000D03*
X239100000Y-140545000D03*
X243418000Y-154769000D03*
X240878000Y-126702000D03*
X243418000Y-124670000D03*
X246339000Y-156166000D03*
X246339000Y-141307000D03*
X246339000Y-127464000D03*
X240060554Y-156752806D03*
X240878000Y-139275000D03*
X238211000Y-141180000D03*
X239989000Y-141815000D03*
X238211000Y-140545000D03*
X214889522Y-140366577D03*
X214877665Y-142891473D03*
X214925031Y-145372974D03*
X204851000Y-127000000D03*
X202946000Y-135636000D03*
X217791804Y-148134250D03*
X217649975Y-148865105D03*
X217932000Y-146939000D03*
X218440000Y-147574012D03*
X173101000Y-129286000D03*
X205854000Y-121252000D03*
X212344000Y-109855000D03*
X210185000Y-111125000D03*
X171196000Y-123317000D03*
X175768000Y-106426000D03*
X210185000Y-115443000D03*
X203454000Y-163703000D03*
X185293000Y-113538000D03*
X185293000Y-139700000D03*
X195135192Y-112265958D03*
X196368000Y-129947000D03*
X200025000Y-128269992D03*
X199808408Y-112010875D03*
X195630275Y-142168893D03*
X195634911Y-140188151D03*
X186408175Y-151040942D03*
X186410063Y-149015678D03*
X251565833Y-130429000D03*
X256561165Y-130429000D03*
X251565833Y-127762000D03*
X245831000Y-128988000D03*
X256561165Y-126365000D03*
X250317000Y-126365000D03*
X257810000Y-129159000D03*
X245958000Y-133052000D03*
X244434000Y-130258000D03*
X245831000Y-131655000D03*
X244434000Y-131655000D03*
X244434000Y-133052000D03*
X257810000Y-127762000D03*
X251565833Y-129159000D03*
X252814666Y-130429000D03*
X256561165Y-129159000D03*
X247355000Y-131655000D03*
X251565833Y-126365000D03*
X254063499Y-127762000D03*
X257810000Y-130429000D03*
X250317000Y-127762000D03*
X252814666Y-127762000D03*
X250317000Y-129159000D03*
X254063499Y-130429000D03*
X257810000Y-126365000D03*
X255312332Y-129159000D03*
X254063499Y-126365000D03*
X245831000Y-130258000D03*
X255312332Y-130429000D03*
X254063499Y-129159000D03*
X255312332Y-127762000D03*
X252814666Y-126365000D03*
X255312332Y-126365000D03*
X256561165Y-127762000D03*
X247355000Y-130258000D03*
X244434000Y-128988000D03*
X252814666Y-129159000D03*
X250317000Y-130429000D03*
X247355000Y-128988000D03*
X247355000Y-133052000D03*
X250317000Y-145796000D03*
X256561165Y-145796000D03*
X255312332Y-145796000D03*
X250317000Y-141732000D03*
X256561165Y-143129000D03*
X245958000Y-145117000D03*
X256561165Y-144526000D03*
X247482000Y-143847000D03*
X257810000Y-144526000D03*
X251565833Y-145796000D03*
X244561000Y-145117000D03*
X252814666Y-145796000D03*
X252814666Y-141732000D03*
X244561000Y-143847000D03*
X254063499Y-141732000D03*
X247482000Y-145117000D03*
X246085000Y-147911000D03*
X255312332Y-143129000D03*
X244561000Y-146514000D03*
X245958000Y-143847000D03*
X255312332Y-144526000D03*
X256561165Y-141732000D03*
X251565833Y-143129000D03*
X257810000Y-141732000D03*
X257810000Y-145796000D03*
X252814666Y-144526000D03*
X257810000Y-143129000D03*
X252814666Y-143129000D03*
X250317000Y-144526000D03*
X244561000Y-147911000D03*
X251565833Y-144526000D03*
X247482000Y-146514000D03*
X247482000Y-147911000D03*
X255312332Y-141732000D03*
X250317000Y-143129000D03*
X254063499Y-144526000D03*
X251565833Y-141732000D03*
X254063499Y-143129000D03*
X245958000Y-146514000D03*
X254063499Y-145796000D03*
X247482000Y-158833000D03*
X254190499Y-156845000D03*
X252941666Y-158242000D03*
X251692833Y-159639000D03*
X256688165Y-158242000D03*
X244561000Y-160103000D03*
X255439332Y-159639000D03*
X247482000Y-160103000D03*
X247482000Y-161500000D03*
X245958000Y-161500000D03*
X254190499Y-160909000D03*
X246085000Y-162897000D03*
X255439332Y-158242000D03*
X256688165Y-160909000D03*
X257937000Y-158242000D03*
X250444000Y-160909000D03*
X251692833Y-160909000D03*
X250444000Y-158242000D03*
X256688165Y-156845000D03*
X251692833Y-158242000D03*
X254190499Y-159639000D03*
X254190499Y-158242000D03*
X252941666Y-156845000D03*
X244561000Y-161500000D03*
X257937000Y-160909000D03*
X245958000Y-160103000D03*
X256688165Y-159639000D03*
X257937000Y-156845000D03*
X257937000Y-159639000D03*
X247482000Y-162897000D03*
X251692833Y-156845000D03*
X255439332Y-156845000D03*
X250444000Y-156845000D03*
X244561000Y-162897000D03*
X244561000Y-158833000D03*
X245958000Y-158833000D03*
X252941666Y-160909000D03*
X255439332Y-160909000D03*
X252941666Y-159639000D03*
X250444000Y-159639000D03*
X219075000Y-108077000D03*
X217763456Y-108997438D03*
X209169000Y-111912400D03*
X215900000Y-108077000D03*
X216789000Y-108204000D03*
X209185361Y-112868344D03*
X177292000Y-146812000D03*
X177292000Y-151638000D03*
X206665853Y-139326764D03*
X209947674Y-145629755D03*
X186943000Y-143256000D03*
X188738749Y-141959877D03*
X188770921Y-141145921D03*
X235970387Y-150169320D03*
X235263707Y-135382000D03*
X196840775Y-155829000D03*
X192348358Y-134749872D03*
X190878965Y-134876741D03*
X191066716Y-156079914D03*
X194563195Y-134561642D03*
X185271809Y-155702000D03*
X202819000Y-155702000D03*
X188447939Y-138383481D03*
X195453000Y-131318000D03*
X207010000Y-137541000D03*
X195707000Y-134619997D03*
X207165615Y-142205282D03*
X200059378Y-137503600D03*
X207051239Y-142958652D03*
X206616081Y-143538407D03*
X200152000Y-140462000D03*
X202437527Y-141482471D03*
X206791642Y-144279910D03*
X200787000Y-145287990D03*
X200660000Y-141351000D03*
X201422000Y-145923000D03*
X201436796Y-141455560D03*
X235165133Y-136144000D03*
X235768774Y-151104967D03*
D73*
X200713520Y-128958512D02*
X200025000Y-128269992D01*
X198293000Y-135890000D02*
X199384300Y-135890000D01*
X199384300Y-135890000D02*
X200713520Y-134560780D01*
X200713520Y-134560780D02*
X200713520Y-128958512D01*
X199447113Y-136390000D02*
X198293000Y-136390000D01*
X199483357Y-136353756D02*
X199447113Y-136390000D01*
D74*
X200164152Y-136353756D02*
X199483357Y-136353756D01*
X202272900Y-134245008D02*
X200164152Y-136353756D01*
X202272900Y-131907651D02*
X202272900Y-134245008D01*
X201803000Y-131437751D02*
X202272900Y-131907651D01*
X201803000Y-130706500D02*
X201803000Y-131437751D01*
D73*
X199471444Y-136890000D02*
X198293000Y-136890000D01*
X199483357Y-136878087D02*
X199471444Y-136890000D01*
D74*
X200466005Y-136878087D02*
X199483357Y-136878087D01*
X202857100Y-134486992D02*
X200466005Y-136878087D01*
X202857100Y-131907651D02*
X202857100Y-134486992D01*
X203327000Y-131437751D02*
X202857100Y-131907651D01*
X203327000Y-130706500D02*
X203327000Y-131437751D01*
X203327000Y-128150249D02*
X203327000Y-128881500D01*
X202857100Y-127680349D02*
X203327000Y-128150249D01*
X202857100Y-124453992D02*
X202857100Y-127680349D01*
X203873100Y-123437992D02*
X202857100Y-124453992D01*
X203873100Y-115563992D02*
X203873100Y-123437992D01*
X208991308Y-112674292D02*
X206762800Y-112674292D01*
X209185361Y-112868344D02*
X208991308Y-112674292D01*
X202272900Y-127680349D02*
X201803000Y-128150249D01*
X202272900Y-124212008D02*
X202272900Y-127680349D01*
X203288900Y-123196008D02*
X202272900Y-124212008D01*
X201803000Y-128150249D02*
X201803000Y-128881500D01*
X203288900Y-115322008D02*
X203288900Y-123196008D01*
X209169000Y-111912400D02*
X208991308Y-112090092D01*
X206762800Y-112674292D02*
X203873100Y-115563992D01*
X206520816Y-112090092D02*
X203288900Y-115322008D01*
X208991308Y-112090092D02*
X206520816Y-112090092D01*
D73*
X209947674Y-146096487D02*
X209694057Y-146350104D01*
X209947674Y-145629755D02*
X209947674Y-146096487D01*
X209694057Y-146350104D02*
X208665857Y-146350104D01*
X209865864Y-142379131D02*
X209836837Y-142350104D01*
X209836837Y-142350104D02*
X208665857Y-142350104D01*
X237328431Y-135382000D02*
X237743898Y-135797467D01*
X235263707Y-135382000D02*
X237328431Y-135382000D01*
X220939104Y-143850104D02*
X216165857Y-143850104D01*
X221996000Y-146304000D02*
X221996000Y-144907000D01*
X221996000Y-144907000D02*
X220939104Y-143850104D01*
X240918487Y-152273513D02*
X227965513Y-152273513D01*
X241682667Y-151509333D02*
X240918487Y-152273513D01*
X227965513Y-152273513D02*
X221996000Y-146304000D01*
X241682667Y-150184977D02*
X241682667Y-151509333D01*
X241173000Y-149675310D02*
X241682667Y-150184977D01*
X241173000Y-147552493D02*
X241173000Y-149675310D01*
X242211488Y-146514005D02*
X241173000Y-147552493D01*
X242605189Y-146514005D02*
X242211488Y-146514005D01*
X237340568Y-143114568D02*
X237101000Y-142875000D01*
X241285568Y-143114568D02*
X237340568Y-143114568D01*
X241488089Y-143317089D02*
X241285568Y-143114568D01*
X244031089Y-143317089D02*
X241488089Y-143317089D01*
X244561000Y-143847000D02*
X244031089Y-143317089D01*
X235539807Y-150876000D02*
X234452635Y-150876000D01*
X235768774Y-151104967D02*
X235539807Y-150876000D01*
X207742174Y-148833805D02*
X207616280Y-148959699D01*
X208668280Y-148833805D02*
X207742174Y-148833805D01*
X207295096Y-148304904D02*
X208620657Y-148304904D01*
X206870000Y-148730000D02*
X207295096Y-148304904D01*
X208620657Y-148304904D02*
X208665857Y-148350104D01*
X206870000Y-149816000D02*
X206870000Y-148730000D01*
X193368000Y-145870000D02*
X193368000Y-144315000D01*
X195326000Y-147828000D02*
X193368000Y-145870000D01*
X208643753Y-147828000D02*
X195326000Y-147828000D01*
X208665857Y-147850104D02*
X208643753Y-147828000D01*
X193868000Y-145481000D02*
X193868000Y-144315000D01*
X195737104Y-147350104D02*
X193868000Y-145481000D01*
X208665857Y-147350104D02*
X195737104Y-147350104D01*
X207410372Y-146850104D02*
X207318593Y-146758325D01*
X208665857Y-146850104D02*
X207410372Y-146850104D01*
X207240688Y-145850104D02*
X208665857Y-145850104D01*
X206424792Y-146666000D02*
X207240688Y-145850104D01*
X199898000Y-143383000D02*
X199898000Y-145669000D01*
X200895000Y-146666000D02*
X206424792Y-146666000D01*
X199898000Y-145669000D02*
X200895000Y-146666000D01*
X197559408Y-143002000D02*
X199517000Y-143002000D01*
X197104000Y-142546592D02*
X197559408Y-143002000D01*
X197104000Y-142233408D02*
X197104000Y-142546592D01*
X197447408Y-141890000D02*
X197104000Y-142233408D01*
X199517000Y-143002000D02*
X199898000Y-143383000D01*
X198293000Y-141890000D02*
X197447408Y-141890000D01*
X206523201Y-145923000D02*
X201422000Y-145923000D01*
X207096097Y-145350104D02*
X206523201Y-145923000D01*
X208665857Y-145350104D02*
X207096097Y-145350104D01*
X206569375Y-145287990D02*
X200787000Y-145287990D01*
X208665857Y-144850104D02*
X207007261Y-144850104D01*
X207007261Y-144850104D02*
X206569375Y-145287990D01*
X206959666Y-143538407D02*
X206616081Y-143538407D01*
X208665857Y-143850104D02*
X207271363Y-143850104D01*
X206861836Y-144350104D02*
X206791642Y-144279910D01*
X208665857Y-144350104D02*
X206861836Y-144350104D01*
X207271363Y-143850104D02*
X206959666Y-143538407D01*
X218376077Y-147510089D02*
X218440000Y-147574012D01*
X217353999Y-147350104D02*
X217513984Y-147510089D01*
X217513984Y-147510089D02*
X218376077Y-147510089D01*
X216165857Y-147350104D02*
X217353999Y-147350104D01*
X218279945Y-145850104D02*
X216165857Y-145850104D01*
X219583000Y-147153159D02*
X218279945Y-145850104D01*
X219583000Y-151892000D02*
X219583000Y-147153159D01*
X233659500Y-165968500D02*
X219583000Y-151892000D01*
X242021000Y-165968500D02*
X233659500Y-165968500D01*
X218205209Y-146350104D02*
X216165857Y-146350104D01*
X219176600Y-154152600D02*
X219176600Y-147321495D01*
X242697000Y-166497000D02*
X241808000Y-167386000D01*
X242697000Y-165100000D02*
X242697000Y-166497000D01*
X219176600Y-147321495D02*
X218205209Y-146350104D01*
X241554000Y-163957000D02*
X242697000Y-165100000D01*
X241808000Y-167386000D02*
X232410000Y-167386000D01*
X232410000Y-167386000D02*
X219176600Y-154152600D01*
X241554000Y-161544000D02*
X241554000Y-163957000D01*
X216165857Y-146850104D02*
X217843104Y-146850104D01*
X217563409Y-148134250D02*
X217791804Y-148134250D01*
X217279263Y-147850104D02*
X217563409Y-148134250D01*
X217843104Y-146850104D02*
X217932000Y-146939000D01*
X216165857Y-147850104D02*
X217279263Y-147850104D01*
X216197857Y-145318104D02*
X216165857Y-145350104D01*
X218322681Y-145318104D02*
X216197857Y-145318104D01*
X225679000Y-155829000D02*
X225679000Y-152674423D01*
X225679000Y-152674423D02*
X218322681Y-145318104D01*
X236666219Y-158024285D02*
X227874285Y-158024285D01*
X227874285Y-158024285D02*
X225679000Y-155829000D01*
X199476000Y-135169000D02*
X199476000Y-133827000D01*
X199255000Y-135390000D02*
X199476000Y-135169000D01*
X198293000Y-135390000D02*
X199255000Y-135390000D01*
X209647375Y-139350104D02*
X208665857Y-139350104D01*
X210312000Y-138685479D02*
X209647375Y-139350104D01*
X210312000Y-138176000D02*
X210312000Y-138685479D01*
X208659374Y-139852725D02*
X209914064Y-139852725D01*
X189362711Y-132977518D02*
X189362711Y-134207093D01*
D75*
X189869436Y-136271000D02*
X187833000Y-134234564D01*
X190246000Y-136271000D02*
X189869436Y-136271000D01*
X187833000Y-134234564D02*
X187833000Y-133858000D01*
D76*
X189865000Y-132962000D02*
X189868000Y-132965000D01*
X189865000Y-131546314D02*
X189865000Y-132962000D01*
X189763686Y-131445000D02*
X189865000Y-131546314D01*
X189763686Y-125582418D02*
X189763686Y-131445000D01*
X191749704Y-123596400D02*
X189763686Y-125582418D01*
X192278000Y-123596400D02*
X191749704Y-123596400D01*
X192405000Y-123596400D02*
X192278000Y-123596400D01*
X192913000Y-123215400D02*
X192786000Y-123215400D01*
X193611500Y-123596400D02*
X193611500Y-123736900D01*
X193103500Y-123736900D02*
X193103500Y-123596400D01*
X194119500Y-123736900D02*
X194119500Y-123596400D01*
X194945000Y-123215400D02*
X194818000Y-123215400D01*
X195135500Y-123736900D02*
X195135500Y-123596400D01*
X194487000Y-123877400D02*
X194260000Y-123877400D01*
X195961000Y-123215400D02*
X195834000Y-123215400D01*
X194627500Y-123596400D02*
X194627500Y-123736900D01*
X197282801Y-123088001D02*
X197282800Y-123088003D01*
X193611500Y-123405900D02*
X193611500Y-123596400D01*
X197642010Y-122927489D02*
X197481498Y-123088002D01*
X195503000Y-123877400D02*
X195276000Y-123877400D01*
X197642011Y-122927489D02*
X197642010Y-122927489D01*
X197084103Y-123088004D02*
X197084104Y-123088002D01*
X198001223Y-122369580D02*
X197767169Y-122135527D01*
X198360434Y-122209066D02*
X198360433Y-122209066D01*
X194627500Y-123405900D02*
X194627500Y-123596400D01*
X198261084Y-121911017D02*
X198360434Y-122010368D01*
X198126381Y-121776314D02*
X198261084Y-121911017D01*
X198216184Y-121417104D02*
X198126381Y-121506906D01*
X197542661Y-122629440D02*
X197642011Y-122728791D01*
X198216185Y-121417103D02*
X198216184Y-121417104D01*
X198755000Y-120277839D02*
X198755000Y-121417104D01*
X195643500Y-123596400D02*
X195643500Y-123736900D01*
X197801000Y-119888000D02*
X198365161Y-119888000D01*
X195643500Y-123405900D02*
X195643500Y-123596400D01*
X192595500Y-123405900D02*
G75*
G02*
X192405000Y-123596400I-190500J0D01*
G01*
X197497761Y-122135527D02*
X197407958Y-122225329D01*
X195135500Y-123596400D02*
X195135500Y-123405900D01*
X192786000Y-123215400D02*
G75*
G03*
X192595500Y-123405900I0J-190500D01*
G01*
X193244000Y-123877400D02*
G75*
G02*
X193103500Y-123736900I0J140500D01*
G01*
X193611500Y-123736900D02*
G75*
G02*
X193471000Y-123877400I-140500J0D01*
G01*
X193802000Y-123215400D02*
G75*
G03*
X193611500Y-123405900I0J-190500D01*
G01*
X196575704Y-123596400D02*
X196342000Y-123596400D01*
X194119500Y-123405900D02*
G75*
G03*
X193929000Y-123215400I-190500J0D01*
G01*
X194260000Y-123877400D02*
G75*
G02*
X194119500Y-123736900I0J140500D01*
G01*
X194818000Y-123215400D02*
G75*
G03*
X194627500Y-123405900I0J-190500D01*
G01*
X197407958Y-122494737D02*
X197542661Y-122629440D01*
X195135500Y-123405900D02*
G75*
G03*
X194945000Y-123215400I-190500J0D01*
G01*
X195276000Y-123877400D02*
G75*
G02*
X195135500Y-123736900I0J140500D01*
G01*
X195643500Y-123736900D02*
G75*
G02*
X195503000Y-123877400I-140500J0D01*
G01*
X195834000Y-123215400D02*
G75*
G03*
X195643500Y-123405900I0J-190500D01*
G01*
X196151500Y-123405900D02*
G75*
G03*
X195961000Y-123215400I-190500J0D01*
G01*
X198365161Y-119888000D02*
X198755000Y-120277839D01*
X196342000Y-123596400D02*
G75*
G02*
X196151500Y-123405900I0J190500D01*
G01*
X193103500Y-123405900D02*
G75*
G03*
X192913000Y-123215400I-190500J0D01*
G01*
X197282800Y-123088003D02*
G75*
G03*
X197084151Y-123088052I-99300J-99397D01*
G01*
X198001224Y-122369578D02*
X198001223Y-122369580D01*
X193471000Y-123877400D02*
X193244000Y-123877400D01*
X197481498Y-123088002D02*
G75*
G02*
X197282751Y-123088051I-99398J99302D01*
G01*
X194627500Y-123736900D02*
G75*
G02*
X194487000Y-123877400I-140500J0D01*
G01*
X193103500Y-123596400D02*
X193103500Y-123405900D01*
X197642011Y-122728791D02*
G75*
G02*
X197641971Y-122927449I-99311J-99309D01*
G01*
X194119500Y-123596400D02*
X194119500Y-123405900D01*
X198360434Y-122010368D02*
G75*
G02*
X198360417Y-122209049I-99334J-99332D01*
G01*
X198126382Y-121506907D02*
G75*
G03*
X198126392Y-121776303I134718J-134693D01*
G01*
X193929000Y-123215400D02*
X193802000Y-123215400D01*
X198485592Y-121417104D02*
G75*
G03*
X198216197Y-121417115I-134692J-134696D01*
G01*
X198360433Y-122209066D02*
X198199921Y-122369579D01*
X198199921Y-122369579D02*
G75*
G02*
X198001251Y-122369551I-99321J99379D01*
G01*
X197407959Y-122225330D02*
G75*
G03*
X197407992Y-122494703I134741J-134670D01*
G01*
X198754999Y-121417103D02*
G75*
G02*
X198485593Y-121417103I-134703J134704D01*
G01*
X197767168Y-122135528D02*
G75*
G03*
X197497762Y-122135528I-134703J-134704D01*
G01*
X197084104Y-123088002D02*
X196575704Y-123596400D01*
D73*
X189357000Y-131953000D02*
X189357000Y-133053351D01*
X189103000Y-131699000D02*
X189357000Y-131953000D01*
X186943000Y-140390000D02*
X185921594Y-140390000D01*
X184784313Y-139319687D02*
X185293000Y-138811000D01*
X184837000Y-140890000D02*
X186943000Y-140890000D01*
X185921594Y-140390000D02*
X185784875Y-140253281D01*
X183995000Y-141732000D02*
X184837000Y-140890000D01*
X186943000Y-139390000D02*
X185603000Y-139390000D01*
X185603000Y-139390000D02*
X185293000Y-139700000D01*
X183995000Y-139656000D02*
X184331313Y-139319687D01*
X184331313Y-139319687D02*
X184784313Y-139319687D01*
X185293000Y-138811000D02*
X185293000Y-138557000D01*
X207478910Y-138850104D02*
X207391014Y-138938000D01*
X208665857Y-138850104D02*
X207478910Y-138850104D01*
X207430841Y-137541000D02*
X207010000Y-137541000D01*
X208665857Y-137850104D02*
X207739945Y-137850104D01*
X206045900Y-138201400D02*
X205722500Y-137878000D01*
X207665209Y-138350104D02*
X207516505Y-138201400D01*
X207739945Y-137850104D02*
X207430841Y-137541000D01*
X208665857Y-138350104D02*
X207665209Y-138350104D01*
X207516505Y-138201400D02*
X206045900Y-138201400D01*
X207534620Y-139843620D02*
X208638661Y-139843620D01*
X207391000Y-139700000D02*
X207534620Y-139843620D01*
X214499080Y-106563871D02*
X214198851Y-106864100D01*
X214499080Y-105960773D02*
X214499080Y-106563871D01*
X214757000Y-105702853D02*
X214499080Y-105960773D01*
X214757000Y-105029000D02*
X214757000Y-105702853D01*
X218313000Y-104521000D02*
X215265000Y-104521000D01*
X218998953Y-105960773D02*
X218567000Y-105528820D01*
X218998953Y-106564126D02*
X218998953Y-105960773D01*
X215265000Y-104521000D02*
X214757000Y-105029000D01*
X219298927Y-106864100D02*
X218998953Y-106564126D01*
X218567000Y-105528820D02*
X218567000Y-104775000D01*
X218567000Y-104775000D02*
X218313000Y-104521000D01*
X205359000Y-156082999D02*
X205359000Y-155321000D01*
X189374764Y-145270236D02*
X189374764Y-144303006D01*
X189103000Y-145542000D02*
X189374764Y-145270236D01*
X187693000Y-146558000D02*
X187693000Y-145682000D01*
X187731580Y-146558000D02*
X187693000Y-146558000D01*
X188012915Y-146276665D02*
X187731580Y-146558000D01*
X187693000Y-145682000D02*
X187706000Y-145669000D01*
X189874764Y-144321764D02*
X189868000Y-144315000D01*
X189357000Y-146304000D02*
X189874764Y-145786236D01*
X189243000Y-147180000D02*
X189243000Y-146304000D01*
X189022988Y-147400012D02*
X189243000Y-147180000D01*
X189874764Y-145786236D02*
X189874764Y-144321764D01*
X186981643Y-147400012D02*
X189022988Y-147400012D01*
X186563000Y-146981369D02*
X186981643Y-147400012D01*
X186563000Y-146431000D02*
X186563000Y-146981369D01*
X189243000Y-146304000D02*
X189357000Y-146304000D01*
X174892000Y-120650000D02*
X175767996Y-120650000D01*
X192766836Y-131464164D02*
X193059164Y-131464164D01*
X192368000Y-131863000D02*
X192766836Y-131464164D01*
X192368000Y-132965000D02*
X192368000Y-131863000D01*
D77*
X218780000Y-159852000D02*
X218780000Y-165159500D01*
X192868000Y-146513000D02*
X198882000Y-152527000D01*
X198882000Y-152527000D02*
X211455000Y-152527000D01*
X211455000Y-152527000D02*
X218780000Y-159852000D01*
X192868000Y-144315000D02*
X192868000Y-146513000D01*
X217002000Y-161249000D02*
X217002000Y-165159500D01*
X209042000Y-153289000D02*
X217002000Y-161249000D01*
X198374000Y-153289000D02*
X209042000Y-153289000D01*
X192368000Y-147283000D02*
X198374000Y-153289000D01*
X192368000Y-144315000D02*
X192368000Y-147283000D01*
D75*
X203581000Y-113538000D02*
X185293000Y-113538000D01*
X206883000Y-110236000D02*
X203581000Y-113538000D01*
X213233000Y-112268000D02*
X211201000Y-110236000D01*
X211201000Y-110236000D02*
X206883000Y-110236000D01*
X218059000Y-112268000D02*
X213233000Y-112268000D01*
X218821000Y-111506000D02*
X218059000Y-112268000D01*
X225298000Y-111506000D02*
X218821000Y-111506000D01*
X226441000Y-112649000D02*
X225298000Y-111506000D01*
X227560500Y-112649000D02*
X226441000Y-112649000D01*
D78*
X215532000Y-116332000D02*
X215519000Y-116345000D01*
X218279000Y-116332000D02*
X215532000Y-116332000D01*
X218440000Y-116493000D02*
X218279000Y-116332000D01*
D73*
X206773000Y-120112000D02*
X206994000Y-120112000D01*
X205854000Y-121031000D02*
X206773000Y-120112000D01*
X205854000Y-121252000D02*
X205854000Y-121031000D01*
X207532000Y-120650000D02*
X206994000Y-120112000D01*
X209068500Y-120650000D02*
X207532000Y-120650000D01*
X210144000Y-121725500D02*
X209068500Y-120650000D01*
D75*
X173060000Y-140040000D02*
X173060000Y-139690000D01*
X176403000Y-143383000D02*
X173060000Y-140040000D01*
X180975000Y-143383000D02*
X176403000Y-143383000D01*
X182028180Y-136181180D02*
X182028180Y-136689180D01*
X181088839Y-135241839D02*
X182028180Y-136181180D01*
X180580839Y-135241839D02*
X181088839Y-135241839D01*
X204226000Y-110734000D02*
X204556000Y-110734000D01*
X203962000Y-110998000D02*
X204226000Y-110734000D01*
X203962000Y-111506000D02*
X203962000Y-110998000D01*
D73*
X191868000Y-148619000D02*
X191868000Y-144315000D01*
X189446058Y-151040942D02*
X191868000Y-148619000D01*
X186408175Y-151040942D02*
X189446058Y-151040942D01*
X166370000Y-148209000D02*
X166878000Y-148717000D01*
X190868000Y-147206000D02*
X190868000Y-144315000D01*
X166370000Y-143383000D02*
X166370000Y-148209000D01*
X173926500Y-148717000D02*
X174942500Y-149733000D01*
X167272548Y-142480452D02*
X166370000Y-143383000D01*
X174942500Y-149733000D02*
X188341000Y-149733000D01*
X169840025Y-142480452D02*
X167272548Y-142480452D01*
X188341000Y-149733000D02*
X190868000Y-147206000D01*
X166878000Y-148717000D02*
X173926500Y-148717000D01*
X242907000Y-137160000D02*
X245721500Y-137160000D01*
X228346000Y-137922000D02*
X242145000Y-137922000D01*
X225552000Y-143256000D02*
X226590200Y-142217800D01*
X223647000Y-143256000D02*
X225552000Y-143256000D01*
X226590200Y-139677800D02*
X228346000Y-137922000D01*
X222741104Y-142350104D02*
X223647000Y-143256000D01*
X242145000Y-137922000D02*
X242907000Y-137160000D01*
X216165857Y-142350104D02*
X222741104Y-142350104D01*
X226590200Y-142217800D02*
X226590200Y-139677800D01*
X223403124Y-141224000D02*
X223277020Y-141350104D01*
X223901000Y-141224000D02*
X223403124Y-141224000D01*
X227711000Y-137414000D02*
X223901000Y-141224000D01*
X240157000Y-137414000D02*
X227711000Y-137414000D01*
X240665000Y-135001000D02*
X241300000Y-135636000D01*
X241300000Y-135636000D02*
X241300000Y-136271000D01*
X241300000Y-136271000D02*
X240157000Y-137414000D01*
X223277020Y-141350104D02*
X216165857Y-141350104D01*
X240665000Y-132207000D02*
X240665000Y-135001000D01*
X241217024Y-131654976D02*
X240665000Y-132207000D01*
X242605189Y-131654976D02*
X241217024Y-131654976D01*
X227273388Y-136779000D02*
X223901000Y-140151388D01*
X239268000Y-136779000D02*
X227273388Y-136779000D01*
X240273765Y-135773235D02*
X239268000Y-136779000D01*
X223202284Y-140850104D02*
X224063194Y-139989194D01*
X216165857Y-140850104D02*
X223202284Y-140850104D01*
X248244000Y-152867000D02*
X248244000Y-153625993D01*
X247606000Y-152229000D02*
X248244000Y-152867000D01*
X246997500Y-152229000D02*
X247606000Y-152229000D01*
D76*
X189999128Y-119761000D02*
X190500000Y-119761000D01*
X190500000Y-119761000D02*
X191643000Y-118618000D01*
X191643000Y-118618000D02*
X192851000Y-118618000D01*
D73*
X206135000Y-127000000D02*
X204851000Y-127000000D01*
X206648000Y-127513000D02*
X206135000Y-127000000D01*
D75*
X217013000Y-114109506D02*
X217012994Y-114109500D01*
X217013000Y-114782000D02*
X217013000Y-114109506D01*
D73*
X219529104Y-144850104D02*
X216165857Y-144850104D01*
X227460000Y-152781000D02*
X219529104Y-144850104D01*
X243840000Y-152781000D02*
X227460000Y-152781000D01*
X244392000Y-152229000D02*
X243840000Y-152781000D01*
X245172500Y-152229000D02*
X244392000Y-152229000D01*
X248244000Y-137857500D02*
X248244000Y-138767022D01*
X247546500Y-137160000D02*
X248244000Y-137857500D01*
D74*
X255459543Y-110417337D02*
X256286000Y-110417337D01*
D73*
X195984500Y-121031000D02*
X195984500Y-120396000D01*
X190868000Y-132093000D02*
X191897000Y-131064000D01*
X190868000Y-132965000D02*
X190868000Y-132093000D01*
D76*
X190474886Y-131441933D02*
X190474886Y-125877010D01*
X190474886Y-125877010D02*
X192044296Y-124307600D01*
D73*
X191897000Y-131064000D02*
X191897000Y-130452500D01*
D76*
X190368000Y-132965000D02*
X190368000Y-131548819D01*
X190368000Y-131548819D02*
X190474886Y-131441933D01*
X192044296Y-124307600D02*
X196870296Y-124307600D01*
X196870296Y-124307600D02*
X201676000Y-119501896D01*
X201676000Y-119501896D02*
X201676000Y-119126000D01*
X201676000Y-116459000D02*
X201676000Y-119126000D01*
X201295000Y-116078000D02*
X201676000Y-116459000D01*
X197801000Y-116078000D02*
X201295000Y-116078000D01*
D73*
X175068937Y-147480452D02*
X176604163Y-149015678D01*
X169840025Y-147480452D02*
X175068937Y-147480452D01*
X176604163Y-149015678D02*
X186410063Y-149015678D01*
X174317325Y-144980325D02*
X169840025Y-144980325D01*
X188989539Y-148204487D02*
X177541487Y-148204487D01*
X190354000Y-146840026D02*
X188989539Y-148204487D01*
X177541487Y-148204487D02*
X174317325Y-144980325D01*
X190354000Y-144329000D02*
X190354000Y-146840026D01*
X190368000Y-144315000D02*
X190354000Y-144329000D01*
D75*
X178168000Y-156858000D02*
X178168000Y-158877000D01*
X180975000Y-154051000D02*
X178168000Y-156858000D01*
X181737000Y-154051000D02*
X180975000Y-154051000D01*
X185737500Y-144272000D02*
X186563000Y-144272000D01*
X184213500Y-145796000D02*
X185737500Y-144272000D01*
X181737000Y-145796000D02*
X184213500Y-145796000D01*
X181356000Y-145796000D02*
X181737000Y-145796000D01*
X180975000Y-145415000D02*
X181356000Y-145796000D01*
X180975000Y-143637000D02*
X180975000Y-145415000D01*
D73*
X182342306Y-142112996D02*
X181482998Y-142112996D01*
X182499106Y-141956196D02*
X182342306Y-142112996D01*
X182499106Y-141762457D02*
X182499106Y-141956196D01*
X182454145Y-141717496D02*
X182499106Y-141762457D01*
D74*
X170012000Y-106024500D02*
X170012000Y-106934000D01*
D75*
X173101000Y-125222000D02*
X173101000Y-129286000D01*
X173101000Y-130903000D02*
X173101000Y-129286000D01*
X171196000Y-123317000D02*
X173101000Y-125222000D01*
X183007000Y-131699000D02*
X183007000Y-132780886D01*
X183007000Y-132780886D02*
X182918000Y-132869886D01*
X195235500Y-157353000D02*
X195489500Y-157607000D01*
X198120000Y-130683000D02*
X198120000Y-125857006D01*
X218440000Y-114393000D02*
X219826500Y-114393000D01*
D73*
X204724000Y-151765000D02*
X203708000Y-150749000D01*
D75*
X190246000Y-141986000D02*
X190246000Y-136271000D01*
X196723000Y-136017000D02*
X196723000Y-134304000D01*
X201422000Y-154940000D02*
X201422000Y-154432000D01*
X196469000Y-154051000D02*
X196850000Y-154432000D01*
X176680500Y-158877000D02*
X176657000Y-158853500D01*
X196469000Y-136271000D02*
X190246000Y-136271000D01*
D73*
X198293000Y-134890000D02*
X198293000Y-133914000D01*
D75*
X196977000Y-143383000D02*
X197176008Y-143582008D01*
X196850000Y-154432000D02*
X200914000Y-154432000D01*
D73*
X188851000Y-132982000D02*
X188868000Y-132965000D01*
D75*
X191008000Y-154051000D02*
X181737000Y-154051000D01*
X195235500Y-156116195D02*
X195235500Y-157353000D01*
X189738000Y-142494000D02*
X190246000Y-141986000D01*
X196469000Y-136271000D02*
X196723000Y-136017000D01*
X194056000Y-154051000D02*
X196469000Y-154051000D01*
X187833000Y-133858000D02*
X187833000Y-132982000D01*
D73*
X197941000Y-117208000D02*
X197801000Y-117348000D01*
D75*
X206756000Y-154432000D02*
X206883000Y-154559000D01*
X201041000Y-117221000D02*
X200165000Y-117221000D01*
X201431524Y-154949524D02*
X201422000Y-154940000D01*
X187414455Y-144272000D02*
X189192455Y-142494000D01*
X201431524Y-154949524D02*
X201431524Y-157607000D01*
D73*
X206756000Y-151765000D02*
X204724000Y-151765000D01*
D75*
X181356000Y-143002000D02*
X180975000Y-143383000D01*
X178168000Y-158877000D02*
X176680500Y-158877000D01*
X189774249Y-154162942D02*
X189886191Y-154051000D01*
D73*
X198293000Y-133914000D02*
X198206000Y-133827000D01*
D75*
X197030979Y-131772021D02*
X198120000Y-130683000D01*
X219826500Y-114393000D02*
X219964000Y-114530500D01*
X196469000Y-136271000D02*
X196469000Y-138176000D01*
X197030979Y-133657979D02*
X197030979Y-131772021D01*
X206883000Y-154559000D02*
X207241523Y-154917523D01*
X189192455Y-142494000D02*
X189738000Y-142494000D01*
X198120000Y-125857006D02*
X201041003Y-122936003D01*
X201422000Y-154432000D02*
X206756000Y-154432000D01*
D73*
X187579000Y-132982000D02*
X188851000Y-132982000D01*
D75*
X200165000Y-117221000D02*
X200152000Y-117208000D01*
X195235500Y-154141500D02*
X195326000Y-154051000D01*
D73*
X186576000Y-133858000D02*
X186576000Y-134890000D01*
D75*
X197200000Y-133827000D02*
X197030979Y-133657979D01*
X197176008Y-144030966D02*
X197417042Y-144272000D01*
X197200000Y-133827000D02*
X198206000Y-133827000D01*
D73*
X197374042Y-144315000D02*
X197417042Y-144272000D01*
X186576000Y-134890000D02*
X186943000Y-134890000D01*
D75*
X196723000Y-134304000D02*
X197200000Y-133827000D01*
X207241523Y-154917523D02*
X207241523Y-157607000D01*
X200914000Y-154432000D02*
X201422000Y-154432000D01*
X180975000Y-143383000D02*
X180975000Y-143637000D01*
X194056000Y-154051000D02*
X191008000Y-154051000D01*
X182345000Y-143002000D02*
X181356000Y-143002000D01*
D73*
X200152000Y-117208000D02*
X197941000Y-117208000D01*
D75*
X186563000Y-144272000D02*
X187414455Y-144272000D01*
X195235500Y-156210000D02*
X195235500Y-154141500D01*
D73*
X203708000Y-150749000D02*
X203708000Y-148463000D01*
D75*
X189886191Y-154051000D02*
X191008000Y-154051000D01*
X187833000Y-133858000D02*
X186576000Y-133858000D01*
D73*
X196368000Y-144315000D02*
X197374042Y-144315000D01*
D75*
X197176008Y-143582008D02*
X197176008Y-144030966D01*
X189774249Y-157485433D02*
X189774249Y-154162942D01*
X195326000Y-154051000D02*
X194056000Y-154051000D01*
D73*
X189640105Y-164625884D02*
X189640105Y-164643630D01*
X184236000Y-107598335D02*
X184242318Y-107592017D01*
X180467000Y-136779000D02*
X181186497Y-136779000D01*
D75*
X248974000Y-118872000D02*
X250825000Y-118872000D01*
D73*
X189865000Y-159131000D02*
X190627000Y-159131000D01*
X192629895Y-108678116D02*
X193563985Y-108678117D01*
X188706015Y-164625883D02*
X188700481Y-164620350D01*
X219975601Y-106987528D02*
X220099029Y-106864100D01*
D75*
X207352182Y-115821968D02*
X207352182Y-114477971D01*
D73*
X189640105Y-164625884D02*
X188706015Y-164625883D01*
X174879000Y-132738500D02*
X174879000Y-133731000D01*
X169869995Y-115488090D02*
X169864462Y-115493624D01*
X197672996Y-108673741D02*
X197621550Y-108725187D01*
X198124043Y-132338292D02*
X197615282Y-132847053D01*
X169869995Y-114554000D02*
X169869995Y-115488090D01*
D75*
X207054032Y-115487894D02*
X205710035Y-115487894D01*
X248350686Y-118272614D02*
X248350686Y-120123624D01*
D73*
X169742995Y-139954000D02*
X167691446Y-139954000D01*
X199530000Y-130683000D02*
X199530000Y-129934000D01*
D74*
X214718235Y-169462892D02*
X213407235Y-169462892D01*
D73*
X197621550Y-108725187D02*
X197621550Y-106129182D01*
X167691446Y-139954000D02*
X167640000Y-140005446D01*
X220099029Y-106864100D02*
X220099029Y-107442000D01*
X245438371Y-164424330D02*
X246244371Y-164424330D01*
D74*
X221574000Y-169291000D02*
X222885000Y-169291000D01*
D73*
X182499000Y-139446000D02*
X183007761Y-138937239D01*
X186867167Y-140384289D02*
X187868710Y-140384289D01*
X200152000Y-118758000D02*
X199285769Y-118758000D01*
D75*
X210687440Y-106322500D02*
X210687440Y-107182440D01*
D73*
X213399003Y-107275997D02*
X212979000Y-107696000D01*
X179324000Y-164775006D02*
X179324000Y-166624000D01*
D75*
X222123000Y-113538000D02*
X223263000Y-113538000D01*
D73*
X179768355Y-158890844D02*
X180530355Y-158890844D01*
X208449503Y-149606000D02*
X209169000Y-149606000D01*
D75*
X223263000Y-113538000D02*
X223266000Y-113535000D01*
D73*
X180258090Y-164775005D02*
X180263624Y-164780539D01*
X169892117Y-113649015D02*
X169897650Y-113643481D01*
D75*
X222843861Y-106333054D02*
X222843861Y-107192994D01*
D74*
X221576235Y-169249892D02*
X220265235Y-169249892D01*
D73*
X197643891Y-108678116D02*
X197643891Y-108660370D01*
X169765116Y-139983105D02*
X169765117Y-139049015D01*
X189611000Y-164648006D02*
X189611000Y-167132000D01*
X179301659Y-164822076D02*
X178546449Y-164822076D01*
X180035815Y-160793921D02*
X180797815Y-160793921D01*
X190545090Y-164648005D02*
X190550624Y-164653539D01*
D75*
X222123000Y-113535000D02*
X220983000Y-113535000D01*
D73*
X173482000Y-114668000D02*
X170138013Y-114668000D01*
D75*
X208337996Y-115512000D02*
X208337998Y-115512002D01*
D73*
X182463526Y-144289222D02*
X182463526Y-145008719D01*
D75*
X255019000Y-115443000D02*
X256159000Y-115443000D01*
D73*
X213399003Y-106864100D02*
X213399003Y-107275997D01*
X176004632Y-118363999D02*
X176846632Y-118363999D01*
D75*
X205710035Y-115487894D02*
X205710033Y-115487892D01*
D73*
X216412064Y-109924089D02*
X216412064Y-110485936D01*
X216412064Y-110485936D02*
X216408000Y-110490000D01*
X180441129Y-136803694D02*
X179721632Y-136803694D01*
X185166832Y-133695245D02*
X185675593Y-133186484D01*
X175975000Y-118380676D02*
X175133000Y-118380676D01*
X197672996Y-108655995D02*
X197672996Y-108673741D01*
X192659000Y-108655995D02*
X192659000Y-108673741D01*
X192659000Y-108655995D02*
X191724910Y-108655995D01*
X169887742Y-114554000D02*
X169939187Y-114605446D01*
X220483750Y-108712000D02*
X220099029Y-108327279D01*
X197643891Y-108678116D02*
X198577981Y-108678117D01*
X192629895Y-108678116D02*
X192629895Y-108660370D01*
X203862321Y-137882483D02*
X203142824Y-137882483D01*
X189611000Y-164648006D02*
X189611000Y-162052000D01*
X214630000Y-110513500D02*
X214630000Y-111252000D01*
X196738906Y-108655995D02*
X196733372Y-108650461D01*
X209421910Y-148842910D02*
X209804000Y-149225000D01*
X198577981Y-108678117D02*
X198583515Y-108683650D01*
D75*
X211950001Y-120523000D02*
X211074000Y-120523000D01*
D73*
X179324000Y-164775006D02*
X179324000Y-162433000D01*
X169939187Y-114605446D02*
X167343182Y-114605446D01*
X178546449Y-164822076D02*
X178518536Y-164794163D01*
X207137000Y-159131001D02*
X207137000Y-159893000D01*
D75*
X214643006Y-114795000D02*
X214643003Y-114794997D01*
D73*
X195459714Y-159106205D02*
X196221714Y-159106205D01*
X207404000Y-123698000D02*
X208153000Y-123698000D01*
D75*
X249555000Y-119416500D02*
X249555000Y-117565490D01*
X249210500Y-118872000D02*
X247359500Y-118872000D01*
D73*
X204046497Y-142748000D02*
X203327000Y-142748000D01*
X207404000Y-122301000D02*
X208280000Y-122301000D01*
X220835379Y-108712000D02*
X220483750Y-108712000D01*
X197672996Y-108655995D02*
X196738906Y-108655995D01*
D74*
X214716000Y-169504000D02*
X216027000Y-169504000D01*
D73*
X197801000Y-118618000D02*
X199145769Y-118618000D01*
X188341000Y-156082999D02*
X188341000Y-155321000D01*
X199285769Y-118758000D02*
X199229505Y-118701736D01*
X203897500Y-135338000D02*
X203897500Y-134581683D01*
X169742995Y-152400000D02*
X169742995Y-153334090D01*
X198981000Y-145286503D02*
X198987931Y-145279572D01*
D75*
X248350686Y-119469069D02*
X248350686Y-117618079D01*
D73*
X189369053Y-144378839D02*
X189369053Y-143256000D01*
D74*
X247740224Y-169531337D02*
X247728292Y-169519405D01*
D73*
X169869995Y-114554000D02*
X172466000Y-114554000D01*
X169892116Y-114583105D02*
X169874370Y-114583105D01*
X192607554Y-108725187D02*
X192607554Y-106129182D01*
X199530000Y-129934000D02*
X199517000Y-129921000D01*
X184236000Y-108401000D02*
X184236000Y-107598335D01*
X167691446Y-152400000D02*
X167640000Y-152451446D01*
X193675000Y-156082999D02*
X193675000Y-155321000D01*
D75*
X173101000Y-136051000D02*
X173101000Y-136652000D01*
D74*
X165354000Y-163171500D02*
X165354000Y-161798000D01*
D73*
X191897000Y-128627500D02*
X191897000Y-127762000D01*
D75*
X249555000Y-118220046D02*
X249555000Y-120071035D01*
D73*
X187868710Y-140384289D02*
X188171999Y-140081000D01*
X169892116Y-114583105D02*
X169892117Y-113649015D01*
X199602140Y-132350536D02*
X200110901Y-132859297D01*
D75*
X222843861Y-107192994D02*
X222849421Y-107198554D01*
D73*
X244696402Y-134587216D02*
X244696402Y-135393216D01*
X204032978Y-139171888D02*
X203313481Y-139171888D01*
D75*
X210687440Y-107182440D02*
X210693000Y-107188000D01*
D73*
X178278895Y-108678116D02*
X179212985Y-108678117D01*
X169742995Y-152400000D02*
X172085000Y-152400000D01*
X169869995Y-114554000D02*
X169887742Y-114554000D01*
X169765116Y-152429105D02*
X169765117Y-151495015D01*
D75*
X207352182Y-114477971D02*
X207352184Y-114477969D01*
D74*
X249150500Y-169531337D02*
X247740224Y-169531337D01*
D73*
X197801000Y-118618000D02*
X196596000Y-118618000D01*
X178308000Y-108655995D02*
X178308000Y-106680000D01*
X180445931Y-137592252D02*
X181165428Y-137592252D01*
X220835379Y-109024621D02*
X221402000Y-108458000D01*
X199771000Y-156082999D02*
X199771000Y-155321000D01*
X169742995Y-140888090D02*
X169737462Y-140893624D01*
X198981000Y-144355000D02*
X198981000Y-143635503D01*
X199145769Y-118618000D02*
X199229505Y-118701736D01*
X219985709Y-138408758D02*
X220555637Y-137838830D01*
X189611000Y-164648006D02*
X190545090Y-164648005D01*
X192659000Y-108673741D02*
X192607554Y-108725187D01*
D75*
X220983000Y-113535000D02*
X220980000Y-113538000D01*
D73*
X197672996Y-108655995D02*
X197672996Y-111252000D01*
X179324000Y-162433000D02*
X179324000Y-162560000D01*
X179324000Y-164775006D02*
X180258090Y-164775005D01*
X204026407Y-140405010D02*
X204026407Y-141124507D01*
X169765117Y-151495015D02*
X169770650Y-151489481D01*
D75*
X215519000Y-114795000D02*
X214643006Y-114795000D01*
D73*
X179212985Y-108678117D02*
X179218519Y-108683650D01*
X198981000Y-146006000D02*
X198981000Y-145286503D01*
X201422000Y-159131000D02*
X202184000Y-159131000D01*
X180467000Y-137922000D02*
X179747503Y-137922000D01*
X169742995Y-139954000D02*
X169742995Y-140888090D01*
X178308000Y-108655995D02*
X178308000Y-110998000D01*
X204041532Y-144610272D02*
X203322035Y-144610272D01*
X220099029Y-107442000D02*
X220599000Y-107442000D01*
X220099029Y-108327279D02*
X220099029Y-106864100D01*
X170138013Y-114668000D02*
X170040000Y-114569987D01*
X169742995Y-139954000D02*
X172085000Y-139954000D01*
X169742995Y-153334090D02*
X169737462Y-153339624D01*
X208688993Y-148842910D02*
X209421910Y-148842910D01*
X177373910Y-108655995D02*
X177368376Y-108650461D01*
X178308000Y-108655995D02*
X177373910Y-108655995D01*
X169742995Y-152400000D02*
X167691446Y-152400000D01*
X169765116Y-139983105D02*
X169747370Y-139983105D01*
X169765116Y-152429105D02*
X169747370Y-152429105D01*
D75*
X206994000Y-115512000D02*
X208337996Y-115512000D01*
D73*
X187858871Y-131293306D02*
X188578368Y-131293306D01*
X191724910Y-108655995D02*
X191719376Y-108650461D01*
X178278895Y-108678116D02*
X178278895Y-108660370D01*
X192659000Y-108655995D02*
X192659000Y-111252000D01*
X244076500Y-149308000D02*
X244076500Y-150114000D01*
X169765117Y-139049015D02*
X169770650Y-139043481D01*
X193563985Y-108678117D02*
X193569519Y-108683650D01*
D75*
X190172996Y-108655995D02*
X190172996Y-112087004D01*
D73*
X182918000Y-134023000D02*
X183261000Y-134366000D01*
X176918000Y-132869886D02*
X182918000Y-132869886D01*
X185579000Y-137890000D02*
X186943000Y-137890000D01*
X185293000Y-138557000D02*
X185293000Y-138176000D01*
D75*
X189611000Y-112649000D02*
X186690000Y-112649000D01*
X190172996Y-112087004D02*
X189611000Y-112649000D01*
D73*
X182918000Y-132869886D02*
X182918000Y-134023000D01*
X185293000Y-138176000D02*
X185579000Y-137890000D01*
X196425000Y-146006000D02*
X195868000Y-145449000D01*
X197431000Y-146006000D02*
X196425000Y-146006000D01*
X195868000Y-145449000D02*
X195868000Y-144315000D01*
D75*
X183995000Y-144272000D02*
X183995000Y-141732000D01*
D73*
X182028180Y-136689180D02*
X182307500Y-136689180D01*
X180388864Y-135319975D02*
X180467000Y-135241839D01*
X180467000Y-135241839D02*
X180580839Y-135241839D01*
X178139797Y-135319975D02*
X180388864Y-135319975D01*
X182307500Y-137878000D02*
X182289000Y-137878000D01*
D75*
X180700316Y-139357537D02*
X180700316Y-139466684D01*
X182179853Y-137878000D02*
X180700316Y-139357537D01*
D73*
X178139797Y-139420051D02*
X180420367Y-139420051D01*
X180420367Y-139420051D02*
X180467000Y-139466684D01*
X180700316Y-139466684D02*
X180467000Y-139466684D01*
D75*
X182289000Y-137878000D02*
X182179853Y-137878000D01*
D73*
X182712000Y-110088500D02*
X184098500Y-110088500D01*
X185897000Y-109951000D02*
X187833000Y-111887000D01*
X184098500Y-110088500D02*
X184236000Y-109951000D01*
X184236000Y-109951000D02*
X185897000Y-109951000D01*
X205626000Y-142875000D02*
X206135106Y-142365894D01*
X206135106Y-142365894D02*
X206135106Y-142365236D01*
X206135106Y-142365236D02*
X207149342Y-141351000D01*
X208664961Y-141351000D02*
X208665857Y-141350104D01*
X205626000Y-144272000D02*
X205626000Y-142875000D01*
X207149342Y-141351000D02*
X208664961Y-141351000D01*
X206666923Y-140348922D02*
X206666923Y-139952818D01*
X208665857Y-140350104D02*
X207137000Y-140350104D01*
X205585000Y-140418000D02*
X205585000Y-139148000D01*
X207137000Y-140350104D02*
X205652896Y-140350104D01*
X205652896Y-140350104D02*
X205585000Y-140418000D01*
X208665857Y-135850104D02*
X207478104Y-135850104D01*
X207478104Y-135850104D02*
X207391000Y-135763000D01*
X209685896Y-141850104D02*
X209931000Y-141605000D01*
X208665857Y-141850104D02*
X209685896Y-141850104D01*
D79*
X244974000Y-117466000D02*
X242697000Y-115189000D01*
D75*
X240088759Y-112649000D02*
X229385500Y-112649000D01*
X242700051Y-115260292D02*
X240088759Y-112649000D01*
D79*
X244974000Y-118872000D02*
X244974000Y-117466000D01*
D75*
X248261500Y-115443000D02*
X242882759Y-115443000D01*
X242882759Y-115443000D02*
X242700051Y-115260292D01*
D73*
X216165857Y-137350104D02*
X217194057Y-137350104D01*
X218272992Y-136271169D02*
X218272992Y-135976992D01*
X217194057Y-137350104D02*
X218272992Y-136271169D01*
X216165857Y-140350104D02*
X214905995Y-140350104D01*
X214905995Y-140350104D02*
X214889522Y-140366577D01*
X222504000Y-140094000D02*
X222247896Y-140350104D01*
X225933000Y-129286000D02*
X225933000Y-137287000D01*
X222247896Y-140350104D02*
X216165857Y-140350104D01*
X223126000Y-140094000D02*
X222504000Y-140094000D01*
X225933000Y-137287000D02*
X223126000Y-140094000D01*
X227076000Y-128143000D02*
X225933000Y-129286000D01*
X236092999Y-128143000D02*
X227076000Y-128143000D01*
X220345000Y-139319000D02*
X216205480Y-139319000D01*
X221120000Y-138544000D02*
X220345000Y-139319000D01*
X222504000Y-138544000D02*
X221120000Y-138544000D01*
X216154000Y-142875000D02*
X214894138Y-142875000D01*
X222590992Y-143296008D02*
X223185984Y-143891000D01*
X227076000Y-142875000D02*
X236101000Y-142875000D01*
X222145088Y-142850104D02*
X216165857Y-142850104D01*
X226060000Y-143891000D02*
X227076000Y-142875000D01*
X223185984Y-143891000D02*
X226060000Y-143891000D01*
X222690984Y-143396000D02*
X222145088Y-142850104D01*
X222885000Y-141846000D02*
X223333016Y-141846000D01*
X216332480Y-141859000D02*
X219277519Y-141859000D01*
X223333016Y-141846000D02*
X223687008Y-142199992D01*
X219277519Y-141859000D02*
X219290519Y-141846000D01*
X219290519Y-141846000D02*
X222885000Y-141846000D01*
X216201366Y-145356501D02*
X214941504Y-145356501D01*
X220512008Y-144739992D02*
X220122120Y-144350104D01*
X220122120Y-144350104D02*
X216165857Y-144350104D01*
X202946000Y-135636000D02*
X202946000Y-135656500D01*
X202946000Y-135656500D02*
X203897500Y-136608000D01*
X216165857Y-148350104D02*
X217134974Y-148350104D01*
X217134974Y-148350104D02*
X217649975Y-148865105D01*
X173355000Y-120637000D02*
X173342000Y-120650000D01*
X170040000Y-119570013D02*
X170243987Y-119570013D01*
X170243987Y-119570013D02*
X170561000Y-119253000D01*
X170561000Y-119253000D02*
X170638676Y-119330676D01*
D76*
X178714824Y-119330676D02*
X178792500Y-119253000D01*
X173355000Y-119330676D02*
X178714824Y-119330676D01*
D73*
X173355000Y-119330676D02*
X173355000Y-120637000D01*
D76*
X170638676Y-119330676D02*
X173355000Y-119330676D01*
X170605324Y-117430676D02*
X173355000Y-117430676D01*
X173355000Y-117430676D02*
X178748176Y-117430676D01*
D73*
X173355000Y-116345000D02*
X173482000Y-116218000D01*
X170561000Y-117475000D02*
X170605324Y-117430676D01*
D76*
X178748176Y-117430676D02*
X178792500Y-117475000D01*
D73*
X170155987Y-117069987D02*
X170561000Y-117475000D01*
X170040000Y-117069987D02*
X170155987Y-117069987D01*
X173355000Y-117430676D02*
X173355000Y-116345000D01*
X197847576Y-157630500D02*
X199583024Y-157630500D01*
X197175004Y-164560005D02*
X197175004Y-162869996D01*
X199606524Y-157517476D02*
X199644000Y-157480000D01*
X199644000Y-157480000D02*
X199758000Y-157594000D01*
X199758000Y-160287000D02*
X199758000Y-159131000D01*
X197175004Y-162869996D02*
X199758000Y-160287000D01*
X199606524Y-157607000D02*
X199606524Y-157517476D01*
X199758000Y-157594000D02*
X199758000Y-159131000D01*
X199583024Y-157630500D02*
X199606524Y-157607000D01*
X193664500Y-160390500D02*
X193664500Y-157607000D01*
X194675004Y-161401004D02*
X193664500Y-160390500D01*
X193641000Y-157630500D02*
X193664500Y-157607000D01*
X194675004Y-164560005D02*
X194675004Y-161401004D01*
X192097336Y-157630500D02*
X193641000Y-157630500D01*
X192174978Y-164560005D02*
X192174978Y-162960005D01*
X188167000Y-157630500D02*
X188190500Y-157607000D01*
X192174978Y-162960005D02*
X192151000Y-162936027D01*
X192151000Y-161671000D02*
X191643000Y-161163000D01*
X188190500Y-160123500D02*
X188190500Y-157607000D01*
X186550000Y-157630500D02*
X188167000Y-157630500D01*
X191643000Y-161163000D02*
X189230000Y-161163000D01*
X189230000Y-161163000D02*
X188190500Y-160123500D01*
X192151000Y-162936027D02*
X192151000Y-161671000D01*
X199675004Y-163036996D02*
X201676000Y-161036000D01*
X199675004Y-164560005D02*
X199675004Y-163036996D01*
X204470000Y-161036000D02*
X205416523Y-160089477D01*
X203813072Y-157630500D02*
X205393023Y-157630500D01*
X205416523Y-160089477D02*
X205416523Y-157607000D01*
X201676000Y-161036000D02*
X204470000Y-161036000D01*
D75*
X213282794Y-110513500D02*
X213002500Y-110513500D01*
X171196000Y-123317000D02*
X171196000Y-122070013D01*
X202175004Y-163965996D02*
X202438000Y-163703000D01*
X175768000Y-106426000D02*
X175768000Y-108775573D01*
X175768000Y-108775573D02*
X175778038Y-108785611D01*
D73*
X205854000Y-123698000D02*
X205854000Y-121252000D01*
D75*
X202438000Y-163703000D02*
X203454000Y-163703000D01*
X171196000Y-122070013D02*
X170040000Y-122070013D01*
D73*
X205579000Y-123973000D02*
X205854000Y-123698000D01*
D75*
X202175004Y-164560005D02*
X202175004Y-163965996D01*
X213002500Y-110513500D02*
X212344000Y-109855000D01*
X210185000Y-111125000D02*
X210185000Y-115443000D01*
D73*
X205579000Y-125603000D02*
X205579000Y-123973000D01*
D74*
X221273000Y-166751000D02*
X221574000Y-166450000D01*
X218780000Y-166984500D02*
X219013500Y-166751000D01*
X219013500Y-166751000D02*
X221273000Y-166751000D01*
D73*
X210377500Y-123784000D02*
X210144000Y-123550500D01*
X212430000Y-123784000D02*
X210377500Y-123784000D01*
D75*
X222102500Y-116355500D02*
X222123000Y-116335000D01*
X219964000Y-116355500D02*
X222102500Y-116355500D01*
D76*
X182244994Y-117475000D02*
X182499000Y-117220994D01*
X180617500Y-117475000D02*
X182244994Y-117475000D01*
X181991000Y-119253000D02*
X182499000Y-119761000D01*
X180617500Y-119253000D02*
X181991000Y-119253000D01*
X192723994Y-117220994D02*
X192851000Y-117348000D01*
X189999128Y-117220994D02*
X192723994Y-117220994D01*
D73*
X195172996Y-108655995D02*
X195172996Y-112228154D01*
X195172996Y-112228154D02*
X195135192Y-112265958D01*
X196368000Y-132965000D02*
X196368000Y-129947000D01*
X199771000Y-111973467D02*
X199808408Y-112010875D01*
X199771000Y-108655995D02*
X199771000Y-111973467D01*
X192775705Y-140188151D02*
X195634911Y-140188151D01*
X195630275Y-143207133D02*
X195630275Y-142168893D01*
X190368000Y-142595856D02*
X192775705Y-140188151D01*
X197409168Y-140390000D02*
X195630275Y-142168893D01*
X190368000Y-144315000D02*
X190368000Y-142595856D01*
X195368000Y-143469408D02*
X195630275Y-143207133D01*
X198293000Y-140390000D02*
X197409168Y-140390000D01*
X195368000Y-144315000D02*
X195368000Y-143469408D01*
X196925896Y-139890000D02*
X194868000Y-141947896D01*
X194868000Y-144315000D02*
X194868000Y-142875000D01*
X191868000Y-144315000D02*
X191868000Y-143430052D01*
X192423052Y-142875000D02*
X194868000Y-142875000D01*
X194868000Y-141947896D02*
X194868000Y-142875000D01*
X191868000Y-143430052D02*
X192423052Y-142875000D01*
X198293000Y-139890000D02*
X196925896Y-139890000D01*
X240284000Y-128270000D02*
X240157000Y-128143000D01*
X244434000Y-128988000D02*
X243716000Y-128270000D01*
X240157000Y-128143000D02*
X237092999Y-128143000D01*
X243716000Y-128270000D02*
X240284000Y-128270000D01*
X237743351Y-158130351D02*
X237601000Y-157988000D01*
X243401143Y-158130351D02*
X237743351Y-158130351D01*
X246135796Y-160865004D02*
X243401143Y-158130351D01*
X217162127Y-109024064D02*
X217162127Y-109357491D01*
X213282794Y-108535206D02*
X213282794Y-108688500D01*
X219075000Y-107088027D02*
X219298927Y-106864100D01*
X214499080Y-106864100D02*
X214198851Y-106864100D01*
X217736830Y-109024064D02*
X217763456Y-108997438D01*
X214198851Y-107619149D02*
X213282794Y-108535206D01*
X214198851Y-106864100D02*
X214198851Y-107619149D01*
X216911936Y-109607682D02*
X216911936Y-109924089D01*
X217162127Y-109357491D02*
X216911936Y-109607682D01*
X219075000Y-108077000D02*
X219075000Y-107088027D01*
X217162127Y-109024064D02*
X217736830Y-109024064D01*
X216281000Y-105537000D02*
X216738599Y-105537000D01*
X215900000Y-108634937D02*
X215900000Y-108077000D01*
X216998953Y-105797354D02*
X216998953Y-106864100D01*
X215998953Y-106864100D02*
X215998953Y-105819047D01*
X215998953Y-105819047D02*
X216281000Y-105537000D01*
X216738599Y-105537000D02*
X216998953Y-105797354D01*
X215900000Y-108077000D02*
X215998953Y-107978047D01*
X215998953Y-107978047D02*
X215998953Y-106864100D01*
X216162127Y-108897064D02*
X215900000Y-108634937D01*
X216789000Y-108204000D02*
X216499080Y-107914080D01*
X217499080Y-107620920D02*
X216925826Y-108194173D01*
X216499080Y-107914080D02*
X216499080Y-106864100D01*
X217499080Y-106864100D02*
X217499080Y-107620920D01*
X216662000Y-108331000D02*
X216789000Y-108204000D01*
X216662000Y-109024064D02*
X216662000Y-108331000D01*
D75*
X176890013Y-164588504D02*
X176890013Y-160911513D01*
D73*
X175133000Y-159766000D02*
X175133000Y-155067000D01*
X188295325Y-144887675D02*
X186933181Y-144887675D01*
X188868000Y-144315000D02*
X188295325Y-144887675D01*
X176045500Y-160678500D02*
X175133000Y-159766000D01*
X175133000Y-155067000D02*
X177292000Y-152908000D01*
X176657000Y-160678500D02*
X176045500Y-160678500D01*
X178054000Y-160678500D02*
X178157500Y-160782000D01*
X177292000Y-152908000D02*
X177292000Y-151638000D01*
X186933181Y-144887675D02*
X185008856Y-146812000D01*
X176657000Y-160678500D02*
X178054000Y-160678500D01*
X185008856Y-146812000D02*
X177292000Y-146812000D01*
D75*
X176890013Y-160911513D02*
X176657000Y-160678500D01*
D73*
X243562500Y-164465000D02*
X243332000Y-164465000D01*
X242605189Y-163738189D02*
X242605189Y-162770007D01*
X243332000Y-164465000D02*
X242605189Y-163738189D01*
X243609500Y-165862000D02*
X243609500Y-164512000D01*
X243609500Y-164512000D02*
X243562500Y-164465000D01*
X242605189Y-147784007D02*
X242605189Y-148954311D01*
X242605189Y-148954311D02*
X242251500Y-149308000D01*
X242251500Y-150280000D02*
X242593500Y-150622000D01*
X242251500Y-149308000D02*
X242251500Y-150280000D01*
X247124500Y-121876000D02*
X247352000Y-121876000D01*
X247352000Y-121876000D02*
X248244000Y-122768000D01*
X248244000Y-122768000D02*
X248244000Y-123571259D01*
X242886500Y-134576000D02*
X242886500Y-133206289D01*
X242886500Y-133206289D02*
X242605189Y-132924978D01*
X242886500Y-134576000D02*
X241409500Y-134576000D01*
X184132500Y-136689180D02*
X184333320Y-136890000D01*
X184333320Y-136890000D02*
X186943000Y-136890000D01*
X184724084Y-137390000D02*
X186943000Y-137390000D01*
X184236084Y-137878000D02*
X184724084Y-137390000D01*
X184132500Y-137878000D02*
X184236084Y-137878000D01*
X208665857Y-135350104D02*
X207994104Y-135350104D01*
X206862500Y-134218500D02*
X206842000Y-134218500D01*
X207994104Y-135350104D02*
X206862500Y-134218500D01*
X217615396Y-138850104D02*
X218035500Y-138430000D01*
X216165857Y-138850104D02*
X217615396Y-138850104D01*
X186943000Y-142390000D02*
X186943000Y-143256000D01*
X188668872Y-141890000D02*
X188738749Y-141959877D01*
X186943000Y-141890000D02*
X188668872Y-141890000D01*
X188526842Y-141390000D02*
X188770921Y-141145921D01*
X186943000Y-141390000D02*
X188526842Y-141390000D01*
X223012000Y-145923000D02*
X223012000Y-144907000D01*
X240768500Y-150622000D02*
X240768500Y-151097000D01*
X240768500Y-151097000D02*
X240121100Y-151744400D01*
X228833400Y-151744400D02*
X223012000Y-145923000D01*
X240121100Y-151744400D02*
X228833400Y-151744400D01*
X223012000Y-144907000D02*
X221455104Y-143350104D01*
X221455104Y-143350104D02*
X216165857Y-143350104D01*
X236025707Y-150114000D02*
X238090431Y-150114000D01*
X238519768Y-150483547D02*
X238519768Y-146389567D01*
X229025000Y-121876000D02*
X245299500Y-121876000D01*
X220702896Y-139850104D02*
X221234000Y-139319000D01*
X221234000Y-139319000D02*
X223139000Y-139319000D01*
X224663000Y-137795000D02*
X224663000Y-126238000D01*
X216165857Y-139850104D02*
X220702896Y-139850104D01*
X224663000Y-126238000D02*
X229025000Y-121876000D01*
X223139000Y-139319000D02*
X224663000Y-137795000D01*
X237743898Y-135797467D02*
X237743898Y-131703487D01*
X196840775Y-155829000D02*
X197875225Y-155829000D01*
X191868000Y-132965000D02*
X191868000Y-134269514D01*
X191868000Y-134269514D02*
X192348358Y-134749872D01*
X191368000Y-134387706D02*
X190878965Y-134876741D01*
X192097336Y-156070588D02*
X191076042Y-156070588D01*
X191076042Y-156070588D02*
X191066716Y-156079914D01*
X191368000Y-132965000D02*
X191368000Y-134387706D01*
X194868000Y-134256837D02*
X194563195Y-134561642D01*
X194868000Y-132965000D02*
X194868000Y-134256837D01*
X185271809Y-155702000D02*
X186540305Y-155702000D01*
X186540305Y-155702000D02*
X186550000Y-155711695D01*
X202819000Y-155702000D02*
X203709572Y-155702000D01*
X186943000Y-138390000D02*
X188441420Y-138390000D01*
X188441420Y-138390000D02*
X188447939Y-138383481D01*
X203709572Y-155702000D02*
X203813072Y-155805500D01*
X208665857Y-136350104D02*
X205980396Y-136350104D01*
X205722500Y-135338000D02*
X205722500Y-136608000D01*
X205980396Y-136350104D02*
X205722500Y-136608000D01*
X194368000Y-131514000D02*
X194564000Y-131318000D01*
X194564000Y-131318000D02*
X195453000Y-131318000D01*
X194368000Y-132965000D02*
X194368000Y-131514000D01*
X198293000Y-142390000D02*
X202542000Y-142390000D01*
X203244000Y-141688000D02*
X205806105Y-141688000D01*
X205806105Y-141688000D02*
X206644001Y-140850104D01*
X202542000Y-142390000D02*
X203244000Y-141688000D01*
X206644001Y-140850104D02*
X208665857Y-140850104D01*
X208665857Y-142850104D02*
X207810437Y-142850104D01*
X207810437Y-142850104D02*
X207165615Y-142205282D01*
X195368000Y-134280997D02*
X195707000Y-134619997D01*
X195368000Y-132965000D02*
X195368000Y-134280997D01*
X199945778Y-137390000D02*
X200059378Y-137503600D01*
X207442691Y-143350104D02*
X207051239Y-142958652D01*
X198293000Y-137390000D02*
X199945778Y-137390000D01*
X208665857Y-143350104D02*
X207442691Y-143350104D01*
X198293000Y-140890000D02*
X199724000Y-140890000D01*
X199724000Y-140890000D02*
X200152000Y-140462000D01*
X198293000Y-137890000D02*
X199547752Y-137890000D01*
X199547752Y-137890000D02*
X202437527Y-140779775D01*
X202437527Y-140779775D02*
X202437527Y-141482471D01*
X200621000Y-141390000D02*
X198293000Y-141390000D01*
X200660000Y-141351000D02*
X200621000Y-141390000D01*
X199405700Y-138390000D02*
X201436796Y-140421096D01*
X201436796Y-140421096D02*
X201436796Y-141455560D01*
X198293000Y-138390000D02*
X199405700Y-138390000D01*
X215904891Y-109790044D02*
X215731544Y-109790044D01*
X214998953Y-108319547D02*
X214630000Y-108688500D01*
X215911936Y-109797089D02*
X215904891Y-109790044D01*
X214998953Y-106864100D02*
X214998953Y-108319547D01*
X215731544Y-109790044D02*
X214630000Y-108688500D01*
X218543500Y-108712000D02*
X217998953Y-108167453D01*
X217998953Y-108167453D02*
X217998953Y-106864100D01*
X218924500Y-109225879D02*
X218924500Y-108712000D01*
X217412064Y-109924089D02*
X218226290Y-109924089D01*
X218226290Y-109924089D02*
X218924500Y-109225879D01*
X218924500Y-108712000D02*
X218543500Y-108712000D01*
D74*
X255459543Y-106699543D02*
X255360000Y-106600000D01*
X255459543Y-108592337D02*
X255459543Y-106699543D01*
X252628663Y-169531337D02*
X252960000Y-169200000D01*
X250975500Y-169531337D02*
X252628663Y-169531337D01*
X165354000Y-164996500D02*
X165354000Y-166794000D01*
X165354000Y-166794000D02*
X165360000Y-166800000D01*
X214716000Y-166704000D02*
X216721500Y-166704000D01*
X216721500Y-166704000D02*
X217002000Y-166984500D01*
D75*
X252219000Y-115443000D02*
X250086500Y-115443000D01*
D74*
X167760500Y-104199500D02*
X167760000Y-104200000D01*
X170012000Y-104199500D02*
X167760500Y-104199500D01*
D73*
X182712000Y-108263500D02*
X181299641Y-108263500D01*
X181299641Y-108263500D02*
X180778038Y-108785103D01*
D75*
X212423895Y-101895850D02*
X212423895Y-102761045D01*
X212423895Y-102761045D02*
X210687440Y-104497500D01*
X212423895Y-106095748D02*
X212285688Y-106095748D01*
X222855491Y-104497500D02*
X222855491Y-103677204D01*
X221257243Y-106095748D02*
X222855491Y-104497500D01*
X221074137Y-106095748D02*
X221257243Y-106095748D01*
X222855491Y-103677204D02*
X221074137Y-101895850D01*
X212285688Y-106095748D02*
X210687440Y-104497500D01*
D73*
X174879000Y-130913500D02*
X174879000Y-130175000D01*
X174879000Y-130175000D02*
X175883886Y-129170114D01*
X182918000Y-129170114D02*
X176918000Y-129170114D01*
X175883886Y-129170114D02*
X176918000Y-129170114D01*
X193929000Y-119888000D02*
X192851000Y-119888000D01*
X194159500Y-120118500D02*
X193929000Y-119888000D01*
X194159500Y-121031000D02*
X194159500Y-120118500D01*
D75*
X173101000Y-133003000D02*
X173101000Y-133951000D01*
X172071675Y-134980325D02*
X173101000Y-133951000D01*
X169840025Y-134980325D02*
X172071675Y-134980325D01*
X172950452Y-137480452D02*
X173060000Y-137590000D01*
X169840025Y-137480452D02*
X172950452Y-137480452D01*
D73*
X204556000Y-108634000D02*
X202695017Y-108634000D01*
X202695017Y-108634000D02*
X202673022Y-108655995D01*
X170248001Y-150388301D02*
X169840025Y-149980325D01*
X178181000Y-150388301D02*
X188341000Y-150388301D01*
X191368000Y-147849000D02*
X191368000Y-144315000D01*
X178181000Y-150388301D02*
X170248001Y-150388301D01*
X188828699Y-150388301D02*
X191368000Y-147849000D01*
X188341000Y-150388301D02*
X188828699Y-150388301D01*
X233344102Y-135797467D02*
X233344102Y-131703487D01*
X233690635Y-136144000D02*
X233344102Y-135797467D01*
X235165133Y-136144000D02*
X233690635Y-136144000D01*
X234119972Y-150483547D02*
X234119972Y-146389567D01*
D78*
X213474000Y-116345000D02*
X215519000Y-116345000D01*
X213233000Y-117751000D02*
X213233000Y-116586000D01*
X213294000Y-117812000D02*
X213233000Y-117751000D01*
X213233000Y-116586000D02*
X213474000Y-116345000D01*
G04 #@! TA.AperFunction,Conductor*
G36*
X219979677Y-113049685D02*
G01*
X220000319Y-113066319D01*
X220181681Y-113247681D01*
X220215166Y-113309004D01*
X220218000Y-113335362D01*
X220218000Y-113665000D01*
X220562681Y-114009681D01*
X220596166Y-114071004D01*
X220599000Y-114097362D01*
X220599000Y-115010638D01*
X220579315Y-115077677D01*
X220562681Y-115098319D01*
X220508319Y-115152681D01*
X220446996Y-115186166D01*
X220420638Y-115189000D01*
X218237362Y-115189000D01*
X218170323Y-115169315D01*
X218149681Y-115152681D01*
X217968319Y-114971319D01*
X217934834Y-114909996D01*
X217932000Y-114883638D01*
X217932000Y-113335362D01*
X217951685Y-113268323D01*
X217968319Y-113247681D01*
X218149681Y-113066319D01*
X218211004Y-113032834D01*
X218237362Y-113030000D01*
X219912638Y-113030000D01*
X219979677Y-113049685D01*
G37*
G04 #@! TD.AperFunction*
G04 #@! TA.AperFunction,Conductor*
G36*
X215519000Y-149733000D02*
G01*
X216535000Y-150749000D01*
X215646000Y-150749000D01*
X213817636Y-150749000D01*
X213750597Y-150729315D01*
X213706727Y-150680454D01*
X213500091Y-150267182D01*
X213487000Y-150211728D01*
X213487000Y-149558339D01*
X213506685Y-149491300D01*
X213559037Y-149445752D01*
X213934716Y-149272362D01*
X214862833Y-148844000D01*
X215113272Y-148728413D01*
X215165235Y-148717000D01*
X215519000Y-148717000D01*
X215519000Y-149733000D01*
G37*
G04 #@! TD.AperFunction*
G04 #@! TA.AperFunction,Conductor*
G36*
X216931677Y-148736685D02*
G01*
X216952319Y-148753319D01*
X217006681Y-148807681D01*
X217040166Y-148869004D01*
X217043000Y-148895362D01*
X217043000Y-148971000D01*
X216789000Y-148717000D01*
X216864638Y-148717000D01*
X216931677Y-148736685D01*
G37*
G04 #@! TD.AperFunction*
G04 #@! TA.AperFunction,Conductor*
G36*
X215026677Y-129432685D02*
G01*
X215047319Y-129449319D01*
X215101681Y-129503681D01*
X215135166Y-129565004D01*
X215138000Y-129591362D01*
X215138000Y-130429000D01*
X215646000Y-130937000D01*
X217880638Y-130937000D01*
X217947677Y-130956685D01*
X217968319Y-130973319D01*
X219038681Y-132043681D01*
X219072166Y-132105004D01*
X219075000Y-132131362D01*
X219075000Y-134115000D01*
X219055315Y-134182039D01*
X219002511Y-134227794D01*
X218951000Y-134239000D01*
X217475362Y-134239000D01*
X217408323Y-134219315D01*
X217387681Y-134202681D01*
X217206319Y-134021319D01*
X217172834Y-133959996D01*
X217170000Y-133933638D01*
X217170000Y-133477000D01*
X216662000Y-132969000D01*
X205791362Y-132969000D01*
X205724323Y-132949315D01*
X205703681Y-132932681D01*
X205141319Y-132370319D01*
X205107834Y-132308996D01*
X205105000Y-132282638D01*
X205105000Y-130353362D01*
X205124685Y-130286323D01*
X205141319Y-130265681D01*
X205957681Y-129449319D01*
X206019004Y-129415834D01*
X206045362Y-129413000D01*
X214959638Y-129413000D01*
X215026677Y-129432685D01*
G37*
G04 #@! TD.AperFunction*
G04 #@! TA.AperFunction,Conductor*
G36*
X246535121Y-123293002D02*
G01*
X246581614Y-123346658D01*
X246593000Y-123399000D01*
X246593000Y-127592000D01*
X246572998Y-127660121D01*
X246519342Y-127706614D01*
X246467000Y-127718000D01*
X244002687Y-127718000D01*
X243954471Y-127708409D01*
X243893960Y-127683345D01*
X243860282Y-127676646D01*
X243776095Y-127659900D01*
X243776090Y-127659900D01*
X240570363Y-127659900D01*
X240502242Y-127639898D01*
X240500401Y-127638691D01*
X240445991Y-127602336D01*
X240445989Y-127602335D01*
X240445986Y-127602333D01*
X240413471Y-127588864D01*
X240413471Y-127588865D01*
X240334965Y-127556347D01*
X240334964Y-127556346D01*
X240334960Y-127556345D01*
X240301282Y-127549646D01*
X240217095Y-127532900D01*
X240217090Y-127532900D01*
X237956000Y-127532900D01*
X237887879Y-127512898D01*
X237841386Y-127459242D01*
X237830000Y-127406900D01*
X237830000Y-123399000D01*
X237850002Y-123330879D01*
X237903658Y-123284386D01*
X237956000Y-123273000D01*
X246467000Y-123273000D01*
X246535121Y-123293002D01*
G37*
G04 #@! TD.AperFunction*
G04 #@! TA.AperFunction,Conductor*
G36*
X246535121Y-153265002D02*
G01*
X246581614Y-153318658D01*
X246593000Y-153371000D01*
X246593000Y-157564000D01*
X246572998Y-157632121D01*
X246519342Y-157678614D01*
X246467000Y-157690000D01*
X243875794Y-157690000D01*
X243807673Y-157669998D01*
X243795200Y-157659946D01*
X243794843Y-157660382D01*
X243790062Y-157656458D01*
X243790059Y-157656455D01*
X243690133Y-157589687D01*
X243690134Y-157589687D01*
X243690132Y-157589686D01*
X243690127Y-157589684D01*
X243579109Y-157543697D01*
X243461238Y-157520251D01*
X243461233Y-157520251D01*
X243341053Y-157520251D01*
X243341047Y-157520251D01*
X243223176Y-157543697D01*
X243112158Y-157589684D01*
X243112153Y-157589686D01*
X243012228Y-157656454D01*
X243007443Y-157660382D01*
X243005833Y-157658420D01*
X242953275Y-157687121D01*
X242926492Y-157690000D01*
X237956000Y-157690000D01*
X237887879Y-157669998D01*
X237841386Y-157616342D01*
X237830000Y-157564000D01*
X237830000Y-153517100D01*
X237850002Y-153448979D01*
X237903658Y-153402486D01*
X237956000Y-153391100D01*
X243900089Y-153391100D01*
X243900090Y-153391100D01*
X244017960Y-153367655D01*
X244096470Y-153335134D01*
X244128991Y-153321664D01*
X244211946Y-153266234D01*
X244279699Y-153245020D01*
X244281948Y-153245000D01*
X246467000Y-153245000D01*
X246535121Y-153265002D01*
G37*
G04 #@! TD.AperFunction*
G04 #@! TA.AperFunction,Conductor*
G36*
X217424000Y-149352000D02*
G01*
X218134638Y-149352000D01*
X218201677Y-149371685D01*
X218222319Y-149388319D01*
X218530681Y-149696681D01*
X218564166Y-149758004D01*
X218567000Y-149784362D01*
X218567000Y-150824638D01*
X218547315Y-150891677D01*
X218530681Y-150912319D01*
X218222319Y-151220681D01*
X218160996Y-151254166D01*
X218134638Y-151257000D01*
X217475362Y-151257000D01*
X217408323Y-151237315D01*
X217387681Y-151220681D01*
X217333319Y-151166319D01*
X217299834Y-151104996D01*
X217297000Y-151078638D01*
X217297000Y-151003000D01*
X217043000Y-150749000D01*
X216535000Y-150749000D01*
X215519000Y-149733000D01*
X215519000Y-148717000D01*
X216789000Y-148717000D01*
X217424000Y-149352000D01*
G37*
G04 #@! TD.AperFunction*
G04 #@! TA.AperFunction,Conductor*
G36*
X241369795Y-143601461D02*
G01*
X241370246Y-143601581D01*
X241370248Y-143601583D01*
X241447896Y-143622389D01*
X243045284Y-143622389D01*
X243112323Y-143642074D01*
X243158078Y-143694878D01*
X243161806Y-143720805D01*
X243173634Y-143732633D01*
X243173634Y-143732634D01*
X243254682Y-143813682D01*
X243288166Y-143875003D01*
X243291000Y-143901362D01*
X243291000Y-146771000D01*
X243271315Y-146838039D01*
X243218511Y-146883794D01*
X243167000Y-146895000D01*
X241307362Y-146895000D01*
X241240323Y-146875315D01*
X241219681Y-146858681D01*
X241214784Y-146853784D01*
X241181299Y-146792461D01*
X241186283Y-146722769D01*
X241190745Y-146712302D01*
X241193031Y-146707553D01*
X241193030Y-146707553D01*
X241193032Y-146707552D01*
X241213700Y-146617000D01*
X241213700Y-143721235D01*
X241233385Y-143654196D01*
X241286189Y-143608441D01*
X241355347Y-143598497D01*
X241369795Y-143601461D01*
G37*
G04 #@! TD.AperFunction*
G04 #@! TA.AperFunction,Conductor*
G36*
X243233121Y-158599002D02*
G01*
X243279614Y-158652658D01*
X243291000Y-158705000D01*
X243291000Y-161755000D01*
X243270998Y-161823121D01*
X243217342Y-161869614D01*
X243165000Y-161881000D01*
X241336872Y-161881000D01*
X241268751Y-161860998D01*
X241224174Y-161811349D01*
X241018302Y-161399604D01*
X241005000Y-161343255D01*
X241005000Y-158705000D01*
X241025002Y-158636879D01*
X241078658Y-158590386D01*
X241131000Y-158579000D01*
X243165000Y-158579000D01*
X243233121Y-158599002D01*
G37*
G04 #@! TD.AperFunction*
G04 #@! TA.AperFunction,Conductor*
G36*
X216429177Y-133248185D02*
G01*
X216449819Y-133264819D01*
X216874181Y-133689181D01*
X216907666Y-133750504D01*
X216910500Y-133776862D01*
X216910500Y-133933639D01*
X216911986Y-133961361D01*
X216911990Y-133961415D01*
X216915289Y-133992091D01*
X216916000Y-134005348D01*
X216916000Y-134060637D01*
X216896315Y-134127676D01*
X216879681Y-134148318D01*
X216118713Y-134909285D01*
X216057390Y-134942770D01*
X216031032Y-134945604D01*
X215365793Y-134945604D01*
X215291555Y-134960370D01*
X215207372Y-135016619D01*
X215151121Y-135100804D01*
X215150604Y-135102054D01*
X215145715Y-135109371D01*
X215138000Y-135128000D01*
X215138000Y-135154564D01*
X215136584Y-135168936D01*
X215136954Y-135168973D01*
X215136357Y-135175035D01*
X215136357Y-135525170D01*
X215136955Y-135531233D01*
X215136584Y-135531269D01*
X215138000Y-135545637D01*
X215138000Y-135654564D01*
X215136584Y-135668936D01*
X215136954Y-135668973D01*
X215136357Y-135675035D01*
X215136357Y-136025167D01*
X215151123Y-136099405D01*
X215207372Y-136183588D01*
X215241091Y-136206118D01*
X215291556Y-136239838D01*
X215291559Y-136239838D01*
X215291560Y-136239839D01*
X215316523Y-136244804D01*
X215365790Y-136254604D01*
X216792000Y-136254603D01*
X216859039Y-136274288D01*
X216904794Y-136327091D01*
X216916000Y-136378603D01*
X216916000Y-136821604D01*
X216896315Y-136888643D01*
X216843511Y-136934398D01*
X216792000Y-136945604D01*
X215365793Y-136945604D01*
X215291555Y-136960370D01*
X215214134Y-137012102D01*
X215147456Y-137032980D01*
X215145243Y-137033000D01*
X214173362Y-137033000D01*
X214106323Y-137013315D01*
X214085681Y-136996681D01*
X211836000Y-134747000D01*
X208839362Y-134747000D01*
X208772323Y-134727315D01*
X208751681Y-134710681D01*
X208189319Y-134148319D01*
X208155834Y-134086996D01*
X208153000Y-134060638D01*
X208153000Y-133528362D01*
X208172685Y-133461323D01*
X208189319Y-133440681D01*
X208365181Y-133264819D01*
X208426504Y-133231334D01*
X208452862Y-133228500D01*
X216362138Y-133228500D01*
X216429177Y-133248185D01*
G37*
G04 #@! TD.AperFunction*
G04 #@! TA.AperFunction,Conductor*
G36*
X223154677Y-120669685D02*
G01*
X223175319Y-120686319D01*
X223991681Y-121502681D01*
X224025166Y-121564004D01*
X224028000Y-121590362D01*
X224028000Y-124154638D01*
X224008315Y-124221677D01*
X223991681Y-124242319D01*
X223683319Y-124550681D01*
X223621996Y-124584166D01*
X223595638Y-124587000D01*
X215645999Y-124587000D01*
X214630000Y-125602999D01*
X214630000Y-127710638D01*
X214610315Y-127777677D01*
X214593681Y-127798319D01*
X213904319Y-128487681D01*
X213842996Y-128521166D01*
X213816638Y-128524000D01*
X205791362Y-128524000D01*
X205724323Y-128504315D01*
X205703681Y-128487681D01*
X205395319Y-128179319D01*
X205361834Y-128117996D01*
X205359000Y-128091638D01*
X205359000Y-126924362D01*
X205378685Y-126857323D01*
X205395319Y-126836681D01*
X206592681Y-125639319D01*
X206654004Y-125605834D01*
X206680362Y-125603000D01*
X212344000Y-125603000D01*
X213741000Y-124206000D01*
X213741000Y-121590362D01*
X213760685Y-121523323D01*
X213777319Y-121502681D01*
X214593681Y-120686319D01*
X214655004Y-120652834D01*
X214681362Y-120650000D01*
X223087638Y-120650000D01*
X223154677Y-120669685D01*
G37*
G04 #@! TD.AperFunction*
G04 #@! TA.AperFunction,Conductor*
G36*
X258269621Y-123420002D02*
G01*
X258316114Y-123473658D01*
X258327500Y-123526000D01*
X258327500Y-133561000D01*
X258307498Y-133629121D01*
X258253842Y-133675614D01*
X258201500Y-133687000D01*
X245362008Y-133687000D01*
X245295862Y-133668241D01*
X245278920Y-133657791D01*
X245113381Y-133602938D01*
X245113379Y-133602937D01*
X245113377Y-133602937D01*
X245011221Y-133592500D01*
X244411786Y-133592500D01*
X244313331Y-133602558D01*
X244243530Y-133589582D01*
X244202137Y-133555921D01*
X243839801Y-133103000D01*
X243812866Y-133037312D01*
X243812191Y-133024289D01*
X243812191Y-132571544D01*
X243812190Y-132571527D01*
X243805681Y-132510981D01*
X243803868Y-132503310D01*
X243804903Y-132503065D01*
X243799000Y-132470333D01*
X243799000Y-132109621D01*
X243804905Y-132076893D01*
X243803868Y-132076648D01*
X243805680Y-132068978D01*
X243812190Y-132008426D01*
X243812191Y-132008409D01*
X243812191Y-131301542D01*
X243812190Y-131301525D01*
X243805222Y-131236709D01*
X243804500Y-131223241D01*
X243804500Y-130816702D01*
X243805222Y-130803233D01*
X243812190Y-130738421D01*
X243812191Y-130738406D01*
X243812191Y-130031539D01*
X243812190Y-130031522D01*
X243805222Y-129966706D01*
X243804500Y-129953238D01*
X243804500Y-129546700D01*
X243805222Y-129533231D01*
X243812190Y-129468419D01*
X243812191Y-129468404D01*
X243812191Y-129036022D01*
X243832193Y-128967901D01*
X243857525Y-128939228D01*
X244525955Y-128382203D01*
X244591092Y-128353960D01*
X244606618Y-128353000D01*
X246720000Y-128353000D01*
X247482000Y-127591000D01*
X247482000Y-124510560D01*
X247502002Y-124442439D01*
X247555658Y-124395946D01*
X247608000Y-124384560D01*
X248991134Y-124384560D01*
X248991140Y-124384560D01*
X248991147Y-124384559D01*
X248991151Y-124384559D01*
X249051698Y-124378050D01*
X249051701Y-124378049D01*
X249051703Y-124378049D01*
X249188706Y-124326949D01*
X249305763Y-124239321D01*
X249393391Y-124122264D01*
X249416099Y-124061380D01*
X249451181Y-124010591D01*
X250005000Y-123526000D01*
X250113372Y-123431175D01*
X250177809Y-123401371D01*
X250196343Y-123400000D01*
X258201500Y-123400000D01*
X258269621Y-123420002D01*
G37*
G04 #@! TD.AperFunction*
G04 #@! TA.AperFunction,Conductor*
G36*
X210868534Y-115951500D02*
G01*
X210873889Y-115951500D01*
X211025466Y-115951500D01*
X211032457Y-115951000D01*
X214197638Y-115951000D01*
X214264677Y-115970685D01*
X214285319Y-115987319D01*
X214466681Y-116168681D01*
X214500166Y-116230004D01*
X214503000Y-116256362D01*
X214503000Y-119328638D01*
X214483315Y-119395677D01*
X214466681Y-119416319D01*
X214158319Y-119724681D01*
X214096996Y-119758166D01*
X214070638Y-119761000D01*
X209347362Y-119761000D01*
X209280323Y-119741315D01*
X209259681Y-119724681D01*
X208280000Y-118745000D01*
X206172362Y-118745000D01*
X206105323Y-118725315D01*
X206084681Y-118708681D01*
X206030319Y-118654319D01*
X205996834Y-118592996D01*
X205994000Y-118566638D01*
X205994000Y-117218000D01*
X206013685Y-117150961D01*
X206066489Y-117105206D01*
X206118000Y-117094000D01*
X208915000Y-117094000D01*
X210021181Y-115987819D01*
X210082504Y-115954334D01*
X210108862Y-115951500D01*
X210263466Y-115951500D01*
X210270457Y-115951000D01*
X210861543Y-115951000D01*
X210868534Y-115951500D01*
G37*
G04 #@! TD.AperFunction*
G04 #@! TA.AperFunction,Conductor*
G36*
X258269621Y-138533002D02*
G01*
X258316114Y-138586658D01*
X258327500Y-138639000D01*
X258327500Y-148674000D01*
X258307498Y-148742121D01*
X258253842Y-148788614D01*
X258201500Y-148800000D01*
X244738820Y-148800000D01*
X244670699Y-148779998D01*
X244649874Y-148760480D01*
X244648678Y-148761677D01*
X244642001Y-148755000D01*
X244534991Y-148676023D01*
X244534987Y-148676021D01*
X244409456Y-148632096D01*
X244409452Y-148632095D01*
X244394549Y-148630697D01*
X244379647Y-148629300D01*
X244379646Y-148629300D01*
X244103999Y-148629300D01*
X244035878Y-148609298D01*
X244005610Y-148582012D01*
X243699611Y-148199513D01*
X243672675Y-148133824D01*
X243672000Y-148120801D01*
X243672000Y-144160015D01*
X243692002Y-144091894D01*
X243717337Y-144063219D01*
X244398955Y-143495204D01*
X244464092Y-143466960D01*
X244479618Y-143466000D01*
X246592999Y-143466000D01*
X246593000Y-143466000D01*
X246833995Y-143225004D01*
X246852055Y-143210455D01*
X246852007Y-143210391D01*
X246853808Y-143209042D01*
X246854982Y-143208096D01*
X246855612Y-143207692D01*
X246906745Y-143163384D01*
X246908919Y-143161601D01*
X246909265Y-143161201D01*
X246909268Y-143161199D01*
X246909270Y-143161198D01*
X246980786Y-143078662D01*
X246986849Y-143072150D01*
X247355000Y-142704000D01*
X247355000Y-139528000D01*
X247375002Y-139459879D01*
X247428658Y-139413386D01*
X247481000Y-139402000D01*
X249005999Y-139402000D01*
X249006000Y-139402000D01*
X249986371Y-138544174D01*
X250050809Y-138514371D01*
X250069343Y-138513000D01*
X258201500Y-138513000D01*
X258269621Y-138533002D01*
G37*
G04 #@! TD.AperFunction*
G04 #@! TA.AperFunction,Conductor*
G36*
X258269621Y-153392002D02*
G01*
X258316114Y-153445658D01*
X258327500Y-153498000D01*
X258327500Y-163787000D01*
X258307498Y-163855121D01*
X258253842Y-163901614D01*
X258201500Y-163913000D01*
X246863569Y-163913000D01*
X246795448Y-163892998D01*
X246774478Y-163876099D01*
X246722790Y-163824411D01*
X246722789Y-163824410D01*
X246722787Y-163824408D01*
X246577304Y-163732995D01*
X246577301Y-163732994D01*
X246415117Y-163676243D01*
X246415115Y-163676242D01*
X246415117Y-163676242D01*
X246261660Y-163658952D01*
X246244371Y-163657005D01*
X246244370Y-163657005D01*
X246193149Y-163662775D01*
X246123217Y-163650524D01*
X246109720Y-163641986D01*
X246109592Y-163642195D01*
X246103347Y-163638343D01*
X246103346Y-163638342D01*
X245954920Y-163546791D01*
X245789381Y-163491938D01*
X245789379Y-163491937D01*
X245789377Y-163491937D01*
X245687221Y-163481500D01*
X245087787Y-163481500D01*
X244985619Y-163491937D01*
X244820079Y-163546791D01*
X244671653Y-163638342D01*
X244671647Y-163638347D01*
X244564095Y-163745900D01*
X244501783Y-163779926D01*
X244430968Y-163774861D01*
X244385905Y-163745900D01*
X244278352Y-163638347D01*
X244278346Y-163638342D01*
X244129910Y-163546785D01*
X244125741Y-163544841D01*
X244072459Y-163497920D01*
X244053000Y-163430651D01*
X244053000Y-158744149D01*
X244073002Y-158676028D01*
X244074162Y-158674257D01*
X244269595Y-158381108D01*
X244324024Y-158335523D01*
X244374433Y-158325000D01*
X244887661Y-158325000D01*
X244901767Y-158325791D01*
X244942000Y-158330325D01*
X244982232Y-158325791D01*
X244996339Y-158325000D01*
X246284661Y-158325000D01*
X246298767Y-158325791D01*
X246339000Y-158330325D01*
X246379232Y-158325791D01*
X246393339Y-158325000D01*
X246719998Y-158325000D01*
X246720000Y-158325000D01*
X246763109Y-158281890D01*
X246808165Y-158252934D01*
X246864601Y-158231885D01*
X246981658Y-158144257D01*
X247069286Y-158027200D01*
X247090335Y-157970764D01*
X247119290Y-157925709D01*
X247482000Y-157563000D01*
X247482000Y-154641000D01*
X247502002Y-154572879D01*
X247555658Y-154526386D01*
X247608000Y-154515000D01*
X249132999Y-154515000D01*
X249133000Y-154515000D01*
X250111409Y-153414290D01*
X250171616Y-153376665D01*
X250205583Y-153372000D01*
X258201500Y-153372000D01*
X258269621Y-153392002D01*
G37*
G04 #@! TD.AperFunction*
G04 #@! TA.AperFunction,Conductor*
G36*
X246535121Y-138406002D02*
G01*
X246581614Y-138459658D01*
X246593000Y-138512000D01*
X246593000Y-142705000D01*
X246572998Y-142773121D01*
X246519342Y-142819614D01*
X246467000Y-142831000D01*
X244439979Y-142831000D01*
X244371858Y-142810998D01*
X244369977Y-142809765D01*
X244352274Y-142797936D01*
X244320080Y-142776425D01*
X244320078Y-142776424D01*
X244320072Y-142776420D01*
X244287560Y-142762953D01*
X244287560Y-142762954D01*
X244209054Y-142730436D01*
X244209053Y-142730435D01*
X244209049Y-142730434D01*
X244175371Y-142723735D01*
X244091184Y-142706989D01*
X244091179Y-142706989D01*
X241792992Y-142706989D01*
X241724871Y-142686987D01*
X241703897Y-142670084D01*
X241674491Y-142640678D01*
X241674487Y-142640675D01*
X241674484Y-142640672D01*
X241651029Y-142625000D01*
X241651027Y-142624999D01*
X241651027Y-142624998D01*
X241612923Y-142599538D01*
X241574559Y-142573904D01*
X241521487Y-142551921D01*
X241521487Y-142551920D01*
X241521485Y-142551920D01*
X241463534Y-142527915D01*
X241463525Y-142527912D01*
X241345663Y-142504468D01*
X241345658Y-142504468D01*
X237956000Y-142504468D01*
X237887879Y-142484466D01*
X237841386Y-142430810D01*
X237830000Y-142378468D01*
X237830000Y-138658100D01*
X237850002Y-138589979D01*
X237903658Y-138543486D01*
X237956000Y-138532100D01*
X242205089Y-138532100D01*
X242205090Y-138532100D01*
X242322960Y-138508655D01*
X242422074Y-138467600D01*
X242433991Y-138462664D01*
X242516946Y-138407234D01*
X242584699Y-138386020D01*
X242586948Y-138386000D01*
X246467000Y-138386000D01*
X246535121Y-138406002D01*
G37*
G04 #@! TD.AperFunction*
G04 #@! TA.AperFunction,Conductor*
G36*
X243117515Y-128753685D02*
G01*
X243163270Y-128806489D01*
X243172805Y-128872805D01*
X243173634Y-128873633D01*
X243173634Y-128873634D01*
X243254682Y-128954682D01*
X243288166Y-129016003D01*
X243291000Y-129042362D01*
X243291000Y-131912000D01*
X243271315Y-131979039D01*
X243218511Y-132024794D01*
X243167000Y-132036000D01*
X240672362Y-132036000D01*
X240605323Y-132016315D01*
X240584681Y-131999681D01*
X240394019Y-131809019D01*
X240360534Y-131747696D01*
X240357700Y-131721338D01*
X240357700Y-128858000D01*
X240377385Y-128790961D01*
X240430189Y-128745206D01*
X240481700Y-128734000D01*
X243050476Y-128734000D01*
X243117515Y-128753685D01*
G37*
G04 #@! TD.AperFunction*
G04 #@! TA.AperFunction,Conductor*
G36*
X217201252Y-151403685D02*
G01*
X217217073Y-151415750D01*
X217224855Y-151422740D01*
X217245497Y-151439374D01*
X217245503Y-151439377D01*
X217245506Y-151439379D01*
X217335207Y-151486301D01*
X217335211Y-151486303D01*
X217335214Y-151486304D01*
X217340861Y-151488585D01*
X217340396Y-151489734D01*
X217393706Y-151523989D01*
X217422736Y-151587542D01*
X217424000Y-151605199D01*
X217424000Y-152983638D01*
X217404315Y-153050677D01*
X217387681Y-153071319D01*
X217333319Y-153125681D01*
X217271996Y-153159166D01*
X217245638Y-153162000D01*
X213665362Y-153162000D01*
X213598323Y-153142315D01*
X213577681Y-153125681D01*
X213396319Y-152944319D01*
X213362834Y-152882996D01*
X213360000Y-152856638D01*
X213360000Y-151562362D01*
X213379685Y-151495323D01*
X213396319Y-151474681D01*
X213450681Y-151420319D01*
X213512004Y-151386834D01*
X213538362Y-151384000D01*
X217134213Y-151384000D01*
X217201252Y-151403685D01*
G37*
G04 #@! TD.AperFunction*
G04 #@! TA.AperFunction,Conductor*
G36*
X222773677Y-127781685D02*
G01*
X222794319Y-127798319D01*
X222975681Y-127979681D01*
X223009166Y-128041004D01*
X223012000Y-128067362D01*
X223012000Y-136727638D01*
X222992315Y-136794677D01*
X222975681Y-136815319D01*
X222032319Y-137758681D01*
X221970996Y-137792166D01*
X221944638Y-137795000D01*
X221117521Y-137795000D01*
X221050482Y-137775315D01*
X221004727Y-137722511D01*
X221000448Y-137711039D01*
X220965538Y-137634598D01*
X220944639Y-137588834D01*
X220858449Y-137489366D01*
X220747728Y-137418210D01*
X220747726Y-137418209D01*
X220747724Y-137418208D01*
X220747725Y-137418208D01*
X220621446Y-137381130D01*
X220621444Y-137381130D01*
X220489830Y-137381130D01*
X220489827Y-137381130D01*
X220363548Y-137418208D01*
X220252826Y-137489365D01*
X220166636Y-137588832D01*
X220166634Y-137588835D01*
X220125543Y-137678812D01*
X220079788Y-137731616D01*
X220012749Y-137751300D01*
X219557359Y-137751300D01*
X219527548Y-137754095D01*
X219527547Y-137754095D01*
X219430533Y-137788042D01*
X219389579Y-137795000D01*
X218506421Y-137795000D01*
X218465467Y-137788042D01*
X218368449Y-137754094D01*
X218338650Y-137751300D01*
X217732359Y-137751300D01*
X217702548Y-137754095D01*
X217702547Y-137754095D01*
X217605533Y-137788042D01*
X217564579Y-137795000D01*
X217550999Y-137795000D01*
X217170000Y-138175999D01*
X217170000Y-138378636D01*
X217150315Y-138445675D01*
X217133681Y-138466317D01*
X217126790Y-138473208D01*
X217065467Y-138506693D01*
X217014918Y-138507144D01*
X216960924Y-138496404D01*
X216960921Y-138496404D01*
X215516000Y-138496404D01*
X215448961Y-138476719D01*
X215403206Y-138423915D01*
X215392000Y-138372404D01*
X215392000Y-137846362D01*
X215411685Y-137779323D01*
X215428319Y-137758681D01*
X215446877Y-137740123D01*
X215508200Y-137706638D01*
X215534558Y-137703804D01*
X216960923Y-137703804D01*
X217020333Y-137691986D01*
X217020333Y-137691985D01*
X217020337Y-137691985D01*
X217024957Y-137688897D01*
X217091635Y-137668020D01*
X217093848Y-137668000D01*
X217169999Y-137668000D01*
X217170000Y-137668000D01*
X217170000Y-137667999D01*
X217177621Y-137664843D01*
X217225074Y-137655404D01*
X217234247Y-137655404D01*
X217234250Y-137655404D01*
X217311898Y-137634598D01*
X217381516Y-137594404D01*
X217779601Y-137196319D01*
X217840924Y-137162834D01*
X217867282Y-137160000D01*
X218567000Y-137160000D01*
X219413667Y-136313333D01*
X219710000Y-135572500D01*
X219710000Y-135255000D01*
X219710000Y-131826000D01*
X218567000Y-130683000D01*
X217927760Y-130683000D01*
X217910114Y-130681738D01*
X217880638Y-130677500D01*
X217880637Y-130677500D01*
X216707862Y-130677500D01*
X216640823Y-130657815D01*
X216620181Y-130641181D01*
X215809319Y-129830319D01*
X215775834Y-129768996D01*
X215773000Y-129742638D01*
X215773000Y-128956362D01*
X215792685Y-128889323D01*
X215809319Y-128868681D01*
X216879681Y-127798319D01*
X216941004Y-127764834D01*
X216967362Y-127762000D01*
X222706638Y-127762000D01*
X222773677Y-127781685D01*
G37*
G04 #@! TD.AperFunction*
G04 #@! TA.AperFunction,Conductor*
G36*
X211724677Y-135147685D02*
G01*
X211745319Y-135164319D01*
X214122000Y-137541000D01*
X214832638Y-137541000D01*
X214899677Y-137560685D01*
X214920319Y-137577319D01*
X214974681Y-137631681D01*
X215008166Y-137693004D01*
X215011000Y-137719362D01*
X215011000Y-139784877D01*
X214991315Y-139851916D01*
X214938511Y-139897671D01*
X214887000Y-139908877D01*
X214823712Y-139908877D01*
X214697433Y-139945955D01*
X214586711Y-140017112D01*
X214500521Y-140116579D01*
X214500519Y-140116582D01*
X214445846Y-140236298D01*
X214445845Y-140236303D01*
X214427115Y-140366577D01*
X214445845Y-140496850D01*
X214445846Y-140496855D01*
X214492999Y-140600104D01*
X214500520Y-140616573D01*
X214586710Y-140716041D01*
X214697431Y-140787197D01*
X214697434Y-140787198D01*
X214697433Y-140787198D01*
X214823712Y-140824276D01*
X214823714Y-140824277D01*
X214887000Y-140824277D01*
X214954039Y-140843962D01*
X214999794Y-140896766D01*
X215011000Y-140948277D01*
X215011000Y-142309773D01*
X214991315Y-142376812D01*
X214938511Y-142422567D01*
X214887000Y-142433773D01*
X214811855Y-142433773D01*
X214685576Y-142470851D01*
X214574854Y-142542008D01*
X214488664Y-142641475D01*
X214488662Y-142641478D01*
X214433989Y-142761194D01*
X214433988Y-142761199D01*
X214415258Y-142891473D01*
X214433988Y-143021746D01*
X214433989Y-143021751D01*
X214485525Y-143134598D01*
X214488663Y-143141469D01*
X214574853Y-143240937D01*
X214685574Y-143312093D01*
X214685577Y-143312094D01*
X214685576Y-143312094D01*
X214811855Y-143349172D01*
X214811857Y-143349173D01*
X214887000Y-143349173D01*
X214954039Y-143368858D01*
X214999794Y-143421662D01*
X215011000Y-143473173D01*
X215011000Y-144791274D01*
X214991315Y-144858313D01*
X214938511Y-144904068D01*
X214887000Y-144915274D01*
X214859221Y-144915274D01*
X214732942Y-144952352D01*
X214622220Y-145023509D01*
X214536030Y-145122976D01*
X214536028Y-145122979D01*
X214481355Y-145242695D01*
X214481354Y-145242700D01*
X214462624Y-145372974D01*
X214481354Y-145503247D01*
X214481355Y-145503252D01*
X214533622Y-145617700D01*
X214536029Y-145622970D01*
X214622219Y-145722438D01*
X214732940Y-145793594D01*
X214732943Y-145793595D01*
X214732942Y-145793595D01*
X214859221Y-145830673D01*
X214859223Y-145830674D01*
X214887000Y-145830674D01*
X214954039Y-145850359D01*
X214999794Y-145903163D01*
X215011000Y-145954674D01*
X215011000Y-148284638D01*
X214991315Y-148351677D01*
X214974681Y-148372319D01*
X214666319Y-148680681D01*
X214604996Y-148714166D01*
X214578638Y-148717000D01*
X213613999Y-148717000D01*
X213106000Y-149224999D01*
X213106000Y-150951638D01*
X213086315Y-151018677D01*
X213069681Y-151039319D01*
X212888319Y-151220681D01*
X212826996Y-151254166D01*
X212800638Y-151257000D01*
X210312000Y-151257000D01*
X208023000Y-151257000D01*
X207955961Y-151237315D01*
X207910206Y-151184511D01*
X207899000Y-151133000D01*
X207899000Y-149276362D01*
X207918685Y-149209323D01*
X207935319Y-149188681D01*
X208370681Y-148753319D01*
X208432004Y-148719834D01*
X208458362Y-148717000D01*
X209804000Y-148717000D01*
X209931000Y-148590000D01*
X209931000Y-146596282D01*
X209950685Y-146529243D01*
X209967319Y-146508601D01*
X210007975Y-146467945D01*
X210191975Y-146283946D01*
X210232168Y-146214328D01*
X210238155Y-146191985D01*
X210252974Y-146136680D01*
X210252974Y-146022596D01*
X210272659Y-145955557D01*
X210283255Y-145941401D01*
X210336676Y-145879751D01*
X210391350Y-145760030D01*
X210410081Y-145629755D01*
X210391350Y-145499480D01*
X210391349Y-145499479D01*
X210391349Y-145499476D01*
X210356130Y-145422359D01*
X210336676Y-145379759D01*
X210250486Y-145280291D01*
X210139765Y-145209135D01*
X210139762Y-145209133D01*
X210020065Y-145173987D01*
X209961287Y-145136212D01*
X209932262Y-145072657D01*
X209931000Y-145055010D01*
X209931000Y-142929853D01*
X209950685Y-142862814D01*
X210003489Y-142817059D01*
X210020056Y-142810878D01*
X210057955Y-142799751D01*
X210168676Y-142728595D01*
X210254866Y-142629127D01*
X210309540Y-142509406D01*
X210328271Y-142379131D01*
X210309540Y-142248856D01*
X210309539Y-142248855D01*
X210309539Y-142248852D01*
X210254866Y-142129136D01*
X210254866Y-142129135D01*
X210239024Y-142110853D01*
X210210000Y-142047299D01*
X210219943Y-141978140D01*
X210239025Y-141948448D01*
X210253017Y-141932300D01*
X210320002Y-141854996D01*
X210374676Y-141735275D01*
X210393407Y-141605000D01*
X210374676Y-141474725D01*
X210374675Y-141474724D01*
X210374675Y-141474721D01*
X210339456Y-141397604D01*
X210320002Y-141355004D01*
X210233812Y-141255536D01*
X210123091Y-141184380D01*
X210123088Y-141184378D01*
X210020065Y-141154128D01*
X209961287Y-141116353D01*
X209932262Y-141052798D01*
X209931000Y-141035151D01*
X209931000Y-139549600D01*
X209950685Y-139482561D01*
X209967319Y-139461919D01*
X210150431Y-139278807D01*
X210556301Y-138872938D01*
X210596494Y-138803320D01*
X210617300Y-138725672D01*
X210617300Y-138568841D01*
X210636985Y-138501802D01*
X210647581Y-138487646D01*
X210701002Y-138425996D01*
X210755676Y-138306275D01*
X210774407Y-138176000D01*
X210755676Y-138045725D01*
X210755675Y-138045724D01*
X210755675Y-138045721D01*
X210701002Y-137926005D01*
X210701002Y-137926004D01*
X210614812Y-137826536D01*
X210504091Y-137755380D01*
X210504089Y-137755379D01*
X210504087Y-137755378D01*
X210504088Y-137755378D01*
X210377809Y-137718300D01*
X210377807Y-137718300D01*
X210246193Y-137718300D01*
X210246190Y-137718300D01*
X210119911Y-137755378D01*
X210111844Y-137759063D01*
X210111015Y-137757248D01*
X210054994Y-137773695D01*
X209987955Y-137754007D01*
X209942203Y-137701201D01*
X209931000Y-137649695D01*
X209931000Y-135433362D01*
X209950685Y-135366323D01*
X209967319Y-135345681D01*
X210148681Y-135164319D01*
X210210004Y-135130834D01*
X210236362Y-135128000D01*
X211657638Y-135128000D01*
X211724677Y-135147685D01*
G37*
G04 #@! TD.AperFunction*
M02*
