G04 #@! TF.GenerationSoftware,KiCad,Pcbnew,7.0.10*
G04 #@! TF.CreationDate,2024-02-17T13:30:06-08:00*
G04 #@! TF.ProjectId,BLDC_Motor Controller,424c4443-5f4d-46f7-946f-7220436f6e74,rev01_1*
G04 #@! TF.SameCoordinates,Original*
G04 #@! TF.FileFunction,Soldermask,Bot*
G04 #@! TF.FilePolarity,Negative*
%FSLAX46Y46*%
G04 Gerber Fmt 4.6, Leading zero omitted, Abs format (unit mm)*
G04 Created by KiCad (PCBNEW 7.0.10) date 2024-02-17 13:30:06*
%MOMM*%
%LPD*%
G01*
G04 APERTURE LIST*
G04 Aperture macros list*
%AMRoundRect*
0 Rectangle with rounded corners*
0 $1 Rounding radius*
0 $2 $3 $4 $5 $6 $7 $8 $9 X,Y pos of 4 corners*
0 Add a 4 corners polygon primitive as box body*
4,1,4,$2,$3,$4,$5,$6,$7,$8,$9,$2,$3,0*
0 Add four circle primitives for the rounded corners*
1,1,$1+$1,$2,$3*
1,1,$1+$1,$4,$5*
1,1,$1+$1,$6,$7*
1,1,$1+$1,$8,$9*
0 Add four rect primitives between the rounded corners*
20,1,$1+$1,$2,$3,$4,$5,0*
20,1,$1+$1,$4,$5,$6,$7,0*
20,1,$1+$1,$6,$7,$8,$9,0*
20,1,$1+$1,$8,$9,$2,$3,0*%
G04 Aperture macros list end*
%ADD10C,0.150000*%
%ADD11C,2.200000*%
%ADD12C,0.750013*%
%ADD13O,1.200000X2.000000*%
%ADD14O,1.200000X1.800000*%
%ADD15C,0.800000*%
%ADD16C,6.400000*%
%ADD17C,2.004000*%
%ADD18C,3.800000*%
%ADD19O,1.200000X2.200000*%
%ADD20RoundRect,0.225000X0.250000X-0.225000X0.250000X0.225000X-0.250000X0.225000X-0.250000X-0.225000X0*%
%ADD21RoundRect,0.225000X-0.250000X0.225000X-0.250000X-0.225000X0.250000X-0.225000X0.250000X0.225000X0*%
%ADD22RoundRect,0.237500X0.250000X0.237500X-0.250000X0.237500X-0.250000X-0.237500X0.250000X-0.237500X0*%
%ADD23RoundRect,0.250000X-1.000000X-0.650000X1.000000X-0.650000X1.000000X0.650000X-1.000000X0.650000X0*%
%ADD24RoundRect,0.225000X0.225000X0.250000X-0.225000X0.250000X-0.225000X-0.250000X0.225000X-0.250000X0*%
G04 APERTURE END LIST*
D10*
X244126978Y-113451251D02*
X244126978Y-112689347D01*
X244507931Y-113070299D02*
X243746026Y-113070299D01*
X233077955Y-113197250D02*
X233077955Y-112435346D01*
D11*
X236566873Y-139275000D03*
X229067000Y-139275000D03*
D12*
X219648940Y-105595621D03*
X213849092Y-105595621D03*
D13*
X221074137Y-106095748D03*
D14*
X221074137Y-101895850D03*
D13*
X212423895Y-106095748D03*
D14*
X212423895Y-101895850D03*
D15*
X162960000Y-104200000D03*
X163662944Y-102502944D03*
X163662944Y-105897056D03*
X165360000Y-101800000D03*
D16*
X165360000Y-104200000D03*
D15*
X165360000Y-106600000D03*
X167057056Y-102502944D03*
X167057056Y-105897056D03*
X167760000Y-104200000D03*
X162960000Y-169200000D03*
X163662944Y-167502944D03*
X163662944Y-170897056D03*
X165360000Y-166800000D03*
D16*
X165360000Y-169200000D03*
D15*
X165360000Y-171600000D03*
X167057056Y-167502944D03*
X167057056Y-170897056D03*
X167760000Y-169200000D03*
X252960000Y-169200000D03*
X253662944Y-167502944D03*
X253662944Y-170897056D03*
X255360000Y-166800000D03*
D16*
X255360000Y-169200000D03*
D15*
X255360000Y-171600000D03*
X257057056Y-167502944D03*
X257057056Y-170897056D03*
X257760000Y-169200000D03*
D17*
X250530000Y-155150000D03*
X250530000Y-162770000D03*
X253070000Y-155150000D03*
X253070000Y-162770000D03*
X255610000Y-155150000D03*
X255610000Y-162770000D03*
X258150000Y-155150000D03*
X258150000Y-162770000D03*
D15*
X252960000Y-104200000D03*
X253662944Y-102502944D03*
X253662944Y-105897056D03*
X255360000Y-101800000D03*
D16*
X255360000Y-104200000D03*
D15*
X255360000Y-106600000D03*
X257057056Y-102502944D03*
X257057056Y-105897056D03*
X257760000Y-104200000D03*
D17*
X258150000Y-132290000D03*
X258150000Y-124670000D03*
X255610000Y-132290000D03*
X255610000Y-124670000D03*
X253070000Y-132290000D03*
X253070000Y-124670000D03*
X250530000Y-132290000D03*
X250530000Y-124670000D03*
D18*
X235500152Y-115260292D03*
X242700051Y-115260292D03*
D19*
X245850165Y-109260292D03*
X232350038Y-109260292D03*
D17*
X250530000Y-139910000D03*
X250530000Y-147530000D03*
X253070000Y-139910000D03*
X253070000Y-147530000D03*
X255610000Y-139910000D03*
X255610000Y-147530000D03*
X258150000Y-139910000D03*
X258150000Y-147530000D03*
D20*
X207096000Y-143479000D03*
X207096000Y-141929000D03*
D21*
X222108392Y-139643000D03*
X222108392Y-141193000D03*
X221092392Y-142183000D03*
X221092392Y-143733000D03*
X191999057Y-139237774D03*
X191999057Y-140787774D03*
D11*
X238543172Y-121100589D03*
X231043299Y-121100589D03*
X235495172Y-156914589D03*
X227995299Y-156914589D03*
D22*
X225788500Y-155882000D03*
X223963500Y-155882000D03*
D23*
X242180000Y-119752412D03*
X246180000Y-119752412D03*
D24*
X207073511Y-135229520D03*
X205523511Y-135229520D03*
D22*
X225788500Y-153372000D03*
X223963500Y-153372000D03*
X225685000Y-149308000D03*
X223860000Y-149308000D03*
X207177474Y-136530116D03*
X205352474Y-136530116D03*
D21*
X208425717Y-135208875D03*
X208425717Y-136758875D03*
X220076392Y-144723000D03*
X220076392Y-146273000D03*
X221858000Y-151581000D03*
X221858000Y-153131000D03*
X223352000Y-151848000D03*
X223352000Y-153398000D03*
D22*
X225685000Y-151818000D03*
X223860000Y-151818000D03*
M02*
