%TF.GenerationSoftware,KiCad,Pcbnew,7.0.10*%
%TF.CreationDate,2024-02-17T13:30:01-08:00*%
%TF.ProjectId,BLDC_Motor Controller,424c4443-5f4d-46f7-946f-7220436f6e74,rev01_1*%
%TF.SameCoordinates,Original*%
%TF.FileFunction,Drillmap*%
%TF.FilePolarity,Positive*%
%FSLAX45Y45*%
G04 Gerber Fmt 4.5, Leading zero omitted, Abs format (unit mm)*
G04 Created by KiCad (PCBNEW 7.0.10) date 2024-02-17 13:30:01*
%MOMM*%
%LPD*%
G01*
G04 APERTURE LIST*
%ADD10C,0.050000*%
%ADD11C,0.200000*%
%ADD12C,0.100000*%
%ADD13C,0.120000*%
%ADD14C,0.152500*%
%ADD15C,0.260000*%
%ADD16C,0.320000*%
G04 APERTURE END LIST*
D10*
X25536000Y-17420000D02*
X16536000Y-17420000D01*
X26036000Y-10420000D02*
G75*
G03*
X25536000Y-9920000I-500000J0D01*
G01*
X16036000Y-16920000D02*
X16036000Y-10420000D01*
X16536000Y-9920000D02*
G75*
G03*
X16036000Y-10420000I0J-500000D01*
G01*
X25536000Y-17420000D02*
G75*
G03*
X26036000Y-16920000I0J500000D01*
G01*
X26036000Y-10420000D02*
X26036000Y-16920000D01*
X16036000Y-16920000D02*
G75*
G03*
X16536000Y-17420000I500000J0D01*
G01*
X16536000Y-9920000D02*
X25536000Y-9920000D01*
D11*
D12*
X22754300Y-12924200D02*
X22779700Y-12949600D01*
X22779700Y-12924200D02*
X22754300Y-12949600D01*
X22754300Y-12987700D02*
X22779700Y-13013100D01*
X22779700Y-12987700D02*
X22754300Y-13013100D01*
X22754300Y-13051200D02*
X22779700Y-13076600D01*
X22779700Y-13051200D02*
X22754300Y-13076600D01*
X22754300Y-13114700D02*
X22779700Y-13140100D01*
X22779700Y-13114700D02*
X22754300Y-13140100D01*
X22754300Y-13178200D02*
X22779700Y-13203600D01*
X22779700Y-13178200D02*
X22754300Y-13203600D01*
X22754300Y-13241700D02*
X22779700Y-13267100D01*
X22779700Y-13241700D02*
X22754300Y-13267100D01*
X22754300Y-13305200D02*
X22779700Y-13330600D01*
X22779700Y-13305200D02*
X22754300Y-13330600D01*
X22754300Y-13368700D02*
X22779700Y-13394100D01*
X22779700Y-13368700D02*
X22754300Y-13394100D01*
X22754300Y-13432200D02*
X22779700Y-13457600D01*
X22779700Y-13432200D02*
X22754300Y-13457600D01*
X22767000Y-14359300D02*
X22792400Y-14384700D01*
X22792400Y-14359300D02*
X22767000Y-14384700D01*
X22767000Y-14422800D02*
X22792400Y-14448200D01*
X22792400Y-14422800D02*
X22767000Y-14448200D01*
X22767000Y-14486300D02*
X22792400Y-14511700D01*
X22792400Y-14486300D02*
X22767000Y-14511700D01*
X22767000Y-14549800D02*
X22792400Y-14575200D01*
X22792400Y-14549800D02*
X22767000Y-14575200D01*
X22767000Y-14613300D02*
X22792400Y-14638700D01*
X22792400Y-14613300D02*
X22767000Y-14638700D01*
X22767000Y-14676800D02*
X22792400Y-14702200D01*
X22792400Y-14676800D02*
X22767000Y-14702200D01*
X22767000Y-14740300D02*
X22792400Y-14765700D01*
X22792400Y-14740300D02*
X22767000Y-14765700D01*
X22767000Y-14803800D02*
X22792400Y-14829200D01*
X22792400Y-14803800D02*
X22767000Y-14829200D01*
X22767000Y-14867300D02*
X22792400Y-14892700D01*
X22792400Y-14867300D02*
X22767000Y-14892700D01*
X22843200Y-12924200D02*
X22868600Y-12949600D01*
X22868600Y-12924200D02*
X22843200Y-12949600D01*
X22843200Y-12987700D02*
X22868600Y-13013100D01*
X22868600Y-12987700D02*
X22843200Y-13013100D01*
X22843200Y-13051200D02*
X22868600Y-13076600D01*
X22868600Y-13051200D02*
X22843200Y-13076600D01*
X22843200Y-13114700D02*
X22868600Y-13140100D01*
X22868600Y-13114700D02*
X22843200Y-13140100D01*
X22843200Y-13178200D02*
X22868600Y-13203600D01*
X22868600Y-13178200D02*
X22843200Y-13203600D01*
X22843200Y-13241700D02*
X22868600Y-13267100D01*
X22868600Y-13241700D02*
X22843200Y-13267100D01*
X22843200Y-13305200D02*
X22868600Y-13330600D01*
X22868600Y-13305200D02*
X22843200Y-13330600D01*
X22843200Y-13368700D02*
X22868600Y-13394100D01*
X22868600Y-13368700D02*
X22843200Y-13394100D01*
X22843200Y-13432200D02*
X22868600Y-13457600D01*
X22868600Y-13432200D02*
X22843200Y-13457600D01*
X22855900Y-14359300D02*
X22881300Y-14384700D01*
X22881300Y-14359300D02*
X22855900Y-14384700D01*
X22855900Y-14422800D02*
X22881300Y-14448200D01*
X22881300Y-14422800D02*
X22855900Y-14448200D01*
X22855900Y-14486300D02*
X22881300Y-14511700D01*
X22881300Y-14486300D02*
X22855900Y-14511700D01*
X22855900Y-14549800D02*
X22881300Y-14575200D01*
X22881300Y-14549800D02*
X22855900Y-14575200D01*
X22855900Y-14613300D02*
X22881300Y-14638700D01*
X22881300Y-14613300D02*
X22855900Y-14638700D01*
X22855900Y-14676800D02*
X22881300Y-14702200D01*
X22881300Y-14676800D02*
X22855900Y-14702200D01*
X22855900Y-14740300D02*
X22881300Y-14765700D01*
X22881300Y-14740300D02*
X22855900Y-14765700D01*
X22855900Y-14803800D02*
X22881300Y-14829200D01*
X22881300Y-14803800D02*
X22855900Y-14829200D01*
X22855900Y-14867300D02*
X22881300Y-14892700D01*
X22881300Y-14867300D02*
X22855900Y-14892700D01*
X23744900Y-15883300D02*
X23770300Y-15908700D01*
X23770300Y-15883300D02*
X23744900Y-15908700D01*
X23744900Y-15946800D02*
X23770300Y-15972200D01*
X23770300Y-15946800D02*
X23744900Y-15972200D01*
X23744900Y-16010300D02*
X23770300Y-16035700D01*
X23770300Y-16010300D02*
X23744900Y-16035700D01*
X23744900Y-16073800D02*
X23770300Y-16099200D01*
X23770300Y-16073800D02*
X23744900Y-16099200D01*
X23744900Y-16137300D02*
X23770300Y-16162700D01*
X23770300Y-16137300D02*
X23744900Y-16162700D01*
X23744900Y-16200800D02*
X23770300Y-16226200D01*
X23770300Y-16200800D02*
X23744900Y-16226200D01*
X23744900Y-16264300D02*
X23770300Y-16289700D01*
X23770300Y-16264300D02*
X23744900Y-16289700D01*
X23744900Y-16327800D02*
X23770300Y-16353200D01*
X23770300Y-16327800D02*
X23744900Y-16353200D01*
X23744900Y-16391300D02*
X23770300Y-16416700D01*
X23770300Y-16391300D02*
X23744900Y-16416700D01*
X23808400Y-12340000D02*
X23833800Y-12365400D01*
X23833800Y-12340000D02*
X23808400Y-12365400D01*
X23808400Y-12403500D02*
X23833800Y-12428900D01*
X23833800Y-12403500D02*
X23808400Y-12428900D01*
X23808400Y-12467000D02*
X23833800Y-12492400D01*
X23833800Y-12467000D02*
X23808400Y-12492400D01*
X23808400Y-12530500D02*
X23833800Y-12555900D01*
X23833800Y-12530500D02*
X23808400Y-12555900D01*
X23808400Y-12594000D02*
X23833800Y-12619400D01*
X23833800Y-12594000D02*
X23808400Y-12619400D01*
X23808400Y-12657500D02*
X23833800Y-12682900D01*
X23833800Y-12657500D02*
X23808400Y-12682900D01*
X23808400Y-12721000D02*
X23833800Y-12746400D01*
X23833800Y-12721000D02*
X23808400Y-12746400D01*
X23808400Y-13838600D02*
X23833800Y-13864000D01*
X23833800Y-13838600D02*
X23808400Y-13864000D01*
X23808400Y-13902100D02*
X23833800Y-13927500D01*
X23833800Y-13902100D02*
X23808400Y-13927500D01*
X23808400Y-13965600D02*
X23833800Y-13991000D01*
X23833800Y-13965600D02*
X23808400Y-13991000D01*
X23808400Y-14029100D02*
X23833800Y-14054500D01*
X23833800Y-14029100D02*
X23808400Y-14054500D01*
X23808400Y-14092600D02*
X23833800Y-14118000D01*
X23833800Y-14092600D02*
X23808400Y-14118000D01*
X23808400Y-14156100D02*
X23833800Y-14181500D01*
X23833800Y-14156100D02*
X23808400Y-14181500D01*
X23808400Y-14219600D02*
X23833800Y-14245000D01*
X23833800Y-14219600D02*
X23808400Y-14245000D01*
X23808400Y-15311800D02*
X23833800Y-15337200D01*
X23833800Y-15311800D02*
X23808400Y-15337200D01*
X23808400Y-15375300D02*
X23833800Y-15400700D01*
X23833800Y-15375300D02*
X23808400Y-15400700D01*
X23808400Y-15438800D02*
X23833800Y-15464200D01*
X23833800Y-15438800D02*
X23808400Y-15464200D01*
X23808400Y-15502300D02*
X23833800Y-15527700D01*
X23833800Y-15502300D02*
X23808400Y-15527700D01*
X23808400Y-15565800D02*
X23833800Y-15591200D01*
X23833800Y-15565800D02*
X23808400Y-15591200D01*
X23808400Y-15629300D02*
X23833800Y-15654700D01*
X23833800Y-15629300D02*
X23808400Y-15654700D01*
X23808400Y-15692800D02*
X23833800Y-15718200D01*
X23833800Y-15692800D02*
X23808400Y-15718200D01*
X23833800Y-15883300D02*
X23859200Y-15908700D01*
X23859200Y-15883300D02*
X23833800Y-15908700D01*
X23833800Y-15946800D02*
X23859200Y-15972200D01*
X23859200Y-15946800D02*
X23833800Y-15972200D01*
X23833800Y-16010300D02*
X23859200Y-16035700D01*
X23859200Y-16010300D02*
X23833800Y-16035700D01*
X23833800Y-16073800D02*
X23859200Y-16099200D01*
X23859200Y-16073800D02*
X23833800Y-16099200D01*
X23833800Y-16137300D02*
X23859200Y-16162700D01*
X23859200Y-16137300D02*
X23833800Y-16162700D01*
X23833800Y-16200800D02*
X23859200Y-16226200D01*
X23859200Y-16200800D02*
X23833800Y-16226200D01*
X23833800Y-16264300D02*
X23859200Y-16289700D01*
X23859200Y-16264300D02*
X23833800Y-16289700D01*
X23833800Y-16327800D02*
X23859200Y-16353200D01*
X23859200Y-16327800D02*
X23833800Y-16353200D01*
X23833800Y-16391300D02*
X23859200Y-16416700D01*
X23859200Y-16391300D02*
X23833800Y-16416700D01*
X23897300Y-12340000D02*
X23922700Y-12365400D01*
X23922700Y-12340000D02*
X23897300Y-12365400D01*
X23897300Y-12403500D02*
X23922700Y-12428900D01*
X23922700Y-12403500D02*
X23897300Y-12428900D01*
X23897300Y-12467000D02*
X23922700Y-12492400D01*
X23922700Y-12467000D02*
X23897300Y-12492400D01*
X23897300Y-12530500D02*
X23922700Y-12555900D01*
X23922700Y-12530500D02*
X23897300Y-12555900D01*
X23897300Y-12594000D02*
X23922700Y-12619400D01*
X23922700Y-12594000D02*
X23897300Y-12619400D01*
X23897300Y-12657500D02*
X23922700Y-12682900D01*
X23922700Y-12657500D02*
X23897300Y-12682900D01*
X23897300Y-12721000D02*
X23922700Y-12746400D01*
X23922700Y-12721000D02*
X23897300Y-12746400D01*
X23897300Y-13838600D02*
X23922700Y-13864000D01*
X23922700Y-13838600D02*
X23897300Y-13864000D01*
X23897300Y-13902100D02*
X23922700Y-13927500D01*
X23922700Y-13902100D02*
X23897300Y-13927500D01*
X23897300Y-13965600D02*
X23922700Y-13991000D01*
X23922700Y-13965600D02*
X23897300Y-13991000D01*
X23897300Y-14029100D02*
X23922700Y-14054500D01*
X23922700Y-14029100D02*
X23897300Y-14054500D01*
X23897300Y-14092600D02*
X23922700Y-14118000D01*
X23922700Y-14092600D02*
X23897300Y-14118000D01*
X23897300Y-14156100D02*
X23922700Y-14181500D01*
X23922700Y-14156100D02*
X23897300Y-14181500D01*
X23897300Y-14219600D02*
X23922700Y-14245000D01*
X23922700Y-14219600D02*
X23897300Y-14245000D01*
X23897300Y-15311800D02*
X23922700Y-15337200D01*
X23922700Y-15311800D02*
X23897300Y-15337200D01*
X23897300Y-15375300D02*
X23922700Y-15400700D01*
X23922700Y-15375300D02*
X23897300Y-15400700D01*
X23897300Y-15438800D02*
X23922700Y-15464200D01*
X23922700Y-15438800D02*
X23897300Y-15464200D01*
X23897300Y-15502300D02*
X23922700Y-15527700D01*
X23922700Y-15502300D02*
X23897300Y-15527700D01*
X23897300Y-15565800D02*
X23922700Y-15591200D01*
X23922700Y-15565800D02*
X23897300Y-15591200D01*
X23897300Y-15629300D02*
X23922700Y-15654700D01*
X23922700Y-15629300D02*
X23897300Y-15654700D01*
X23897300Y-15692800D02*
X23922700Y-15718200D01*
X23922700Y-15692800D02*
X23897300Y-15718200D01*
X23986200Y-12340000D02*
X24011600Y-12365400D01*
X24011600Y-12340000D02*
X23986200Y-12365400D01*
X23986200Y-12403500D02*
X24011600Y-12428900D01*
X24011600Y-12403500D02*
X23986200Y-12428900D01*
X23986200Y-12467000D02*
X24011600Y-12492400D01*
X24011600Y-12467000D02*
X23986200Y-12492400D01*
X23986200Y-12530500D02*
X24011600Y-12555900D01*
X24011600Y-12530500D02*
X23986200Y-12555900D01*
X23986200Y-12594000D02*
X24011600Y-12619400D01*
X24011600Y-12594000D02*
X23986200Y-12619400D01*
X23986200Y-12657500D02*
X24011600Y-12682900D01*
X24011600Y-12657500D02*
X23986200Y-12682900D01*
X23986200Y-12721000D02*
X24011600Y-12746400D01*
X24011600Y-12721000D02*
X23986200Y-12746400D01*
X23986200Y-13838600D02*
X24011600Y-13864000D01*
X24011600Y-13838600D02*
X23986200Y-13864000D01*
X23986200Y-13902100D02*
X24011600Y-13927500D01*
X24011600Y-13902100D02*
X23986200Y-13927500D01*
X23986200Y-13965600D02*
X24011600Y-13991000D01*
X24011600Y-13965600D02*
X23986200Y-13991000D01*
X23986200Y-14029100D02*
X24011600Y-14054500D01*
X24011600Y-14029100D02*
X23986200Y-14054500D01*
X23986200Y-14092600D02*
X24011600Y-14118000D01*
X24011600Y-14092600D02*
X23986200Y-14118000D01*
X23986200Y-14156100D02*
X24011600Y-14181500D01*
X24011600Y-14156100D02*
X23986200Y-14181500D01*
X23986200Y-14219600D02*
X24011600Y-14245000D01*
X24011600Y-14219600D02*
X23986200Y-14245000D01*
X23986200Y-15311800D02*
X24011600Y-15337200D01*
X24011600Y-15311800D02*
X23986200Y-15337200D01*
X23986200Y-15375300D02*
X24011600Y-15400700D01*
X24011600Y-15375300D02*
X23986200Y-15400700D01*
X23986200Y-15438800D02*
X24011600Y-15464200D01*
X24011600Y-15438800D02*
X23986200Y-15464200D01*
X23986200Y-15502300D02*
X24011600Y-15527700D01*
X24011600Y-15502300D02*
X23986200Y-15527700D01*
X23986200Y-15565800D02*
X24011600Y-15591200D01*
X24011600Y-15565800D02*
X23986200Y-15591200D01*
X23986200Y-15629300D02*
X24011600Y-15654700D01*
X24011600Y-15629300D02*
X23986200Y-15654700D01*
X23986200Y-15692800D02*
X24011600Y-15718200D01*
X24011600Y-15692800D02*
X23986200Y-15718200D01*
X24075100Y-12340000D02*
X24100500Y-12365400D01*
X24100500Y-12340000D02*
X24075100Y-12365400D01*
X24075100Y-12403500D02*
X24100500Y-12428900D01*
X24100500Y-12403500D02*
X24075100Y-12428900D01*
X24075100Y-12467000D02*
X24100500Y-12492400D01*
X24100500Y-12467000D02*
X24075100Y-12492400D01*
X24075100Y-12530500D02*
X24100500Y-12555900D01*
X24100500Y-12530500D02*
X24075100Y-12555900D01*
X24075100Y-12594000D02*
X24100500Y-12619400D01*
X24100500Y-12594000D02*
X24075100Y-12619400D01*
X24075100Y-12657500D02*
X24100500Y-12682900D01*
X24100500Y-12657500D02*
X24075100Y-12682900D01*
X24075100Y-12721000D02*
X24100500Y-12746400D01*
X24100500Y-12721000D02*
X24075100Y-12746400D01*
X24075100Y-13838600D02*
X24100500Y-13864000D01*
X24100500Y-13838600D02*
X24075100Y-13864000D01*
X24075100Y-13902100D02*
X24100500Y-13927500D01*
X24100500Y-13902100D02*
X24075100Y-13927500D01*
X24075100Y-13965600D02*
X24100500Y-13991000D01*
X24100500Y-13965600D02*
X24075100Y-13991000D01*
X24075100Y-14029100D02*
X24100500Y-14054500D01*
X24100500Y-14029100D02*
X24075100Y-14054500D01*
X24075100Y-14092600D02*
X24100500Y-14118000D01*
X24100500Y-14092600D02*
X24075100Y-14118000D01*
X24075100Y-14156100D02*
X24100500Y-14181500D01*
X24100500Y-14156100D02*
X24075100Y-14181500D01*
X24075100Y-14219600D02*
X24100500Y-14245000D01*
X24100500Y-14219600D02*
X24075100Y-14245000D01*
X24075100Y-15311800D02*
X24100500Y-15337200D01*
X24100500Y-15311800D02*
X24075100Y-15337200D01*
X24075100Y-15375300D02*
X24100500Y-15400700D01*
X24100500Y-15375300D02*
X24075100Y-15400700D01*
X24075100Y-15438800D02*
X24100500Y-15464200D01*
X24100500Y-15438800D02*
X24075100Y-15464200D01*
X24075100Y-15502300D02*
X24100500Y-15527700D01*
X24100500Y-15502300D02*
X24075100Y-15527700D01*
X24075100Y-15565800D02*
X24100500Y-15591200D01*
X24100500Y-15565800D02*
X24075100Y-15591200D01*
X24075100Y-15629300D02*
X24100500Y-15654700D01*
X24100500Y-15629300D02*
X24075100Y-15654700D01*
X24075100Y-15692800D02*
X24100500Y-15718200D01*
X24100500Y-15692800D02*
X24075100Y-15718200D01*
X24989500Y-12644800D02*
X25014900Y-12670200D01*
X25014900Y-12644800D02*
X24989500Y-12670200D01*
X16321000Y-10420000D02*
G75*
G03*
X16271000Y-10420000I-25000J0D01*
G01*
X16271000Y-10420000D02*
G75*
G03*
X16321000Y-10420000I25000J0D01*
G01*
X16321000Y-16920000D02*
G75*
G03*
X16271000Y-16920000I-25000J0D01*
G01*
X16271000Y-16920000D02*
G75*
G03*
X16321000Y-16920000I25000J0D01*
G01*
X16391294Y-10250294D02*
G75*
G03*
X16341294Y-10250294I-25000J0D01*
G01*
X16341294Y-10250294D02*
G75*
G03*
X16391294Y-10250294I25000J0D01*
G01*
X16391294Y-10589706D02*
G75*
G03*
X16341294Y-10589706I-25000J0D01*
G01*
X16341294Y-10589706D02*
G75*
G03*
X16391294Y-10589706I25000J0D01*
G01*
X16391294Y-16750294D02*
G75*
G03*
X16341294Y-16750294I-25000J0D01*
G01*
X16341294Y-16750294D02*
G75*
G03*
X16391294Y-16750294I25000J0D01*
G01*
X16391294Y-17089706D02*
G75*
G03*
X16341294Y-17089706I-25000J0D01*
G01*
X16341294Y-17089706D02*
G75*
G03*
X16391294Y-17089706I25000J0D01*
G01*
X16561000Y-10180000D02*
G75*
G03*
X16511000Y-10180000I-25000J0D01*
G01*
X16511000Y-10180000D02*
G75*
G03*
X16561000Y-10180000I25000J0D01*
G01*
X16561000Y-10660000D02*
G75*
G03*
X16511000Y-10660000I-25000J0D01*
G01*
X16511000Y-10660000D02*
G75*
G03*
X16561000Y-10660000I25000J0D01*
G01*
X16561000Y-16680000D02*
G75*
G03*
X16511000Y-16680000I-25000J0D01*
G01*
X16511000Y-16680000D02*
G75*
G03*
X16561000Y-16680000I25000J0D01*
G01*
X16561000Y-17160000D02*
G75*
G03*
X16511000Y-17160000I-25000J0D01*
G01*
X16511000Y-17160000D02*
G75*
G03*
X16561000Y-17160000I25000J0D01*
G01*
X16730706Y-10250294D02*
G75*
G03*
X16680706Y-10250294I-25000J0D01*
G01*
X16680706Y-10250294D02*
G75*
G03*
X16730706Y-10250294I25000J0D01*
G01*
X16730706Y-10589706D02*
G75*
G03*
X16680706Y-10589706I-25000J0D01*
G01*
X16680706Y-10589706D02*
G75*
G03*
X16730706Y-10589706I25000J0D01*
G01*
X16730706Y-16750294D02*
G75*
G03*
X16680706Y-16750294I-25000J0D01*
G01*
X16680706Y-16750294D02*
G75*
G03*
X16730706Y-16750294I25000J0D01*
G01*
X16730706Y-17089706D02*
G75*
G03*
X16680706Y-17089706I-25000J0D01*
G01*
X16680706Y-17089706D02*
G75*
G03*
X16730706Y-17089706I25000J0D01*
G01*
X16801000Y-10420000D02*
G75*
G03*
X16751000Y-10420000I-25000J0D01*
G01*
X16751000Y-10420000D02*
G75*
G03*
X16801000Y-10420000I25000J0D01*
G01*
X16801000Y-16920000D02*
G75*
G03*
X16751000Y-16920000I-25000J0D01*
G01*
X16751000Y-16920000D02*
G75*
G03*
X16801000Y-16920000I25000J0D01*
G01*
X25321000Y-10420000D02*
G75*
G03*
X25271000Y-10420000I-25000J0D01*
G01*
X25271000Y-10420000D02*
G75*
G03*
X25321000Y-10420000I25000J0D01*
G01*
X25321000Y-16920000D02*
G75*
G03*
X25271000Y-16920000I-25000J0D01*
G01*
X25271000Y-16920000D02*
G75*
G03*
X25321000Y-16920000I25000J0D01*
G01*
X25391294Y-10250294D02*
G75*
G03*
X25341294Y-10250294I-25000J0D01*
G01*
X25341294Y-10250294D02*
G75*
G03*
X25391294Y-10250294I25000J0D01*
G01*
X25391294Y-10589706D02*
G75*
G03*
X25341294Y-10589706I-25000J0D01*
G01*
X25341294Y-10589706D02*
G75*
G03*
X25391294Y-10589706I25000J0D01*
G01*
X25391294Y-16750294D02*
G75*
G03*
X25341294Y-16750294I-25000J0D01*
G01*
X25341294Y-16750294D02*
G75*
G03*
X25391294Y-16750294I25000J0D01*
G01*
X25391294Y-17089706D02*
G75*
G03*
X25341294Y-17089706I-25000J0D01*
G01*
X25341294Y-17089706D02*
G75*
G03*
X25391294Y-17089706I25000J0D01*
G01*
X25561000Y-10180000D02*
G75*
G03*
X25511000Y-10180000I-25000J0D01*
G01*
X25511000Y-10180000D02*
G75*
G03*
X25561000Y-10180000I25000J0D01*
G01*
X25561000Y-10660000D02*
G75*
G03*
X25511000Y-10660000I-25000J0D01*
G01*
X25511000Y-10660000D02*
G75*
G03*
X25561000Y-10660000I25000J0D01*
G01*
X25561000Y-16680000D02*
G75*
G03*
X25511000Y-16680000I-25000J0D01*
G01*
X25511000Y-16680000D02*
G75*
G03*
X25561000Y-16680000I25000J0D01*
G01*
X25561000Y-17160000D02*
G75*
G03*
X25511000Y-17160000I-25000J0D01*
G01*
X25511000Y-17160000D02*
G75*
G03*
X25561000Y-17160000I25000J0D01*
G01*
X25730706Y-10250294D02*
G75*
G03*
X25680706Y-10250294I-25000J0D01*
G01*
X25680706Y-10250294D02*
G75*
G03*
X25730706Y-10250294I25000J0D01*
G01*
X25730706Y-10589706D02*
G75*
G03*
X25680706Y-10589706I-25000J0D01*
G01*
X25680706Y-10589706D02*
G75*
G03*
X25730706Y-10589706I25000J0D01*
G01*
X25730706Y-16750294D02*
G75*
G03*
X25680706Y-16750294I-25000J0D01*
G01*
X25680706Y-16750294D02*
G75*
G03*
X25730706Y-16750294I25000J0D01*
G01*
X25730706Y-17089706D02*
G75*
G03*
X25680706Y-17089706I-25000J0D01*
G01*
X25680706Y-17089706D02*
G75*
G03*
X25730706Y-17089706I25000J0D01*
G01*
X25801000Y-10420000D02*
G75*
G03*
X25751000Y-10420000I-25000J0D01*
G01*
X25751000Y-10420000D02*
G75*
G03*
X25801000Y-10420000I25000J0D01*
G01*
X25801000Y-16920000D02*
G75*
G03*
X25751000Y-16920000I-25000J0D01*
G01*
X25751000Y-16920000D02*
G75*
G03*
X25801000Y-16920000I25000J0D01*
G01*
X23235004Y-10896029D02*
X23235004Y-10956029D01*
X23205004Y-10926029D02*
X23265004Y-10926029D01*
X23205004Y-10876029D02*
X23205004Y-10976029D01*
X23205004Y-10976029D02*
G75*
G03*
X23265004Y-10976029I30000J0D01*
G01*
X23265004Y-10976029D02*
X23265004Y-10876029D01*
X23265004Y-10876029D02*
G75*
G03*
X23205004Y-10876029I-30000J0D01*
G01*
X24585016Y-10896029D02*
X24585016Y-10956029D01*
X24555016Y-10926029D02*
X24615016Y-10926029D01*
X24555016Y-10876029D02*
X24555016Y-10976029D01*
X24555016Y-10976029D02*
G75*
G03*
X24615016Y-10976029I30000J0D01*
G01*
X24615016Y-10976029D02*
X24615016Y-10876029D01*
X24615016Y-10876029D02*
G75*
G03*
X24555016Y-10876029I-30000J0D01*
G01*
X21270674Y-10217870D02*
X21270674Y-10161301D01*
X21214105Y-10161301D01*
X21214105Y-10217870D01*
X21270674Y-10217870D01*
X21282390Y-10219585D02*
X21282390Y-10159585D01*
X21282390Y-10159585D02*
G75*
G03*
X21202390Y-10159585I-40000J0D01*
G01*
X21202390Y-10159585D02*
X21202390Y-10219585D01*
X21202390Y-10219585D02*
G75*
G03*
X21282390Y-10219585I40000J0D01*
G01*
X21270674Y-10637859D02*
X21270674Y-10581290D01*
X21214105Y-10581290D01*
X21214105Y-10637859D01*
X21270674Y-10637859D01*
X21282390Y-10649574D02*
X21282390Y-10569576D01*
X21282390Y-10569576D02*
G75*
G03*
X21202390Y-10569576I-40000J0D01*
G01*
X21202390Y-10569576D02*
X21202390Y-10649574D01*
X21202390Y-10649574D02*
G75*
G03*
X21282390Y-10649574I40000J0D01*
G01*
X22135698Y-10217870D02*
X22135698Y-10161301D01*
X22079129Y-10161301D01*
X22079129Y-10217870D01*
X22135698Y-10217870D01*
X22147414Y-10219585D02*
X22147414Y-10159585D01*
X22147414Y-10159585D02*
G75*
G03*
X22067414Y-10159585I-40000J0D01*
G01*
X22067414Y-10159585D02*
X22067414Y-10219585D01*
X22067414Y-10219585D02*
G75*
G03*
X22147414Y-10219585I40000J0D01*
G01*
X22135698Y-10637859D02*
X22135698Y-10581290D01*
X22079129Y-10581290D01*
X22079129Y-10637859D01*
X22135698Y-10637859D01*
X22147414Y-10649576D02*
X22147414Y-10569574D01*
X22147414Y-10569574D02*
G75*
G03*
X22067414Y-10569574I-40000J0D01*
G01*
X22067414Y-10569574D02*
X22067414Y-10649576D01*
X22067414Y-10649576D02*
G75*
G03*
X22147414Y-10649576I40000J0D01*
G01*
D13*
X22799530Y-15751459D02*
X22859530Y-15691459D01*
X22799530Y-15631459D01*
X22739530Y-15691459D01*
X22799530Y-15751459D01*
X22906700Y-13987500D02*
X22966700Y-13927500D01*
X22906700Y-13867500D01*
X22846700Y-13927500D01*
X22906700Y-13987500D01*
X23104330Y-12170059D02*
X23164330Y-12110059D01*
X23104330Y-12050059D01*
X23044330Y-12110059D01*
X23104330Y-12170059D01*
X23549517Y-15751459D02*
X23609517Y-15691459D01*
X23549517Y-15631459D01*
X23489517Y-15691459D01*
X23549517Y-15751459D01*
X23656687Y-13987500D02*
X23716687Y-13927500D01*
X23656687Y-13867500D01*
X23596687Y-13927500D01*
X23656687Y-13987500D01*
X23854317Y-12170059D02*
X23914317Y-12110059D01*
X23854317Y-12050059D01*
X23794317Y-12110059D01*
X23854317Y-12170059D01*
D14*
X24976750Y-12390750D02*
X25129250Y-12543250D01*
X25129250Y-12390750D02*
X24976750Y-12543250D01*
X25129250Y-12467000D02*
G75*
G03*
X24976750Y-12467000I-76250J0D01*
G01*
X24976750Y-12467000D02*
G75*
G03*
X25129250Y-12467000I76250J0D01*
G01*
X24976750Y-13152750D02*
X25129250Y-13305250D01*
X25129250Y-13152750D02*
X24976750Y-13305250D01*
X25129250Y-13229000D02*
G75*
G03*
X24976750Y-13229000I-76250J0D01*
G01*
X24976750Y-13229000D02*
G75*
G03*
X25129250Y-13229000I76250J0D01*
G01*
X24976750Y-13914750D02*
X25129250Y-14067250D01*
X25129250Y-13914750D02*
X24976750Y-14067250D01*
X25129250Y-13991000D02*
G75*
G03*
X24976750Y-13991000I-76250J0D01*
G01*
X24976750Y-13991000D02*
G75*
G03*
X25129250Y-13991000I76250J0D01*
G01*
X24976750Y-14676750D02*
X25129250Y-14829250D01*
X25129250Y-14676750D02*
X24976750Y-14829250D01*
X25129250Y-14753000D02*
G75*
G03*
X24976750Y-14753000I-76250J0D01*
G01*
X24976750Y-14753000D02*
G75*
G03*
X25129250Y-14753000I76250J0D01*
G01*
X24976750Y-15438750D02*
X25129250Y-15591250D01*
X25129250Y-15438750D02*
X24976750Y-15591250D01*
X25129250Y-15515000D02*
G75*
G03*
X24976750Y-15515000I-76250J0D01*
G01*
X24976750Y-15515000D02*
G75*
G03*
X25129250Y-15515000I76250J0D01*
G01*
X24976750Y-16200750D02*
X25129250Y-16353250D01*
X25129250Y-16200750D02*
X24976750Y-16353250D01*
X25129250Y-16277000D02*
G75*
G03*
X24976750Y-16277000I-76250J0D01*
G01*
X24976750Y-16277000D02*
G75*
G03*
X25129250Y-16277000I76250J0D01*
G01*
X25230750Y-12390750D02*
X25383250Y-12543250D01*
X25383250Y-12390750D02*
X25230750Y-12543250D01*
X25383250Y-12467000D02*
G75*
G03*
X25230750Y-12467000I-76250J0D01*
G01*
X25230750Y-12467000D02*
G75*
G03*
X25383250Y-12467000I76250J0D01*
G01*
X25230750Y-13152750D02*
X25383250Y-13305250D01*
X25383250Y-13152750D02*
X25230750Y-13305250D01*
X25383250Y-13229000D02*
G75*
G03*
X25230750Y-13229000I-76250J0D01*
G01*
X25230750Y-13229000D02*
G75*
G03*
X25383250Y-13229000I76250J0D01*
G01*
X25230750Y-13914750D02*
X25383250Y-14067250D01*
X25383250Y-13914750D02*
X25230750Y-14067250D01*
X25383250Y-13991000D02*
G75*
G03*
X25230750Y-13991000I-76250J0D01*
G01*
X25230750Y-13991000D02*
G75*
G03*
X25383250Y-13991000I76250J0D01*
G01*
X25230750Y-14676750D02*
X25383250Y-14829250D01*
X25383250Y-14676750D02*
X25230750Y-14829250D01*
X25383250Y-14753000D02*
G75*
G03*
X25230750Y-14753000I-76250J0D01*
G01*
X25230750Y-14753000D02*
G75*
G03*
X25383250Y-14753000I76250J0D01*
G01*
X25230750Y-15438750D02*
X25383250Y-15591250D01*
X25383250Y-15438750D02*
X25230750Y-15591250D01*
X25383250Y-15515000D02*
G75*
G03*
X25230750Y-15515000I-76250J0D01*
G01*
X25230750Y-15515000D02*
G75*
G03*
X25383250Y-15515000I76250J0D01*
G01*
X25230750Y-16200750D02*
X25383250Y-16353250D01*
X25383250Y-16200750D02*
X25230750Y-16353250D01*
X25383250Y-16277000D02*
G75*
G03*
X25230750Y-16277000I-76250J0D01*
G01*
X25230750Y-16277000D02*
G75*
G03*
X25383250Y-16277000I76250J0D01*
G01*
X25484750Y-12390750D02*
X25637250Y-12543250D01*
X25637250Y-12390750D02*
X25484750Y-12543250D01*
X25637250Y-12467000D02*
G75*
G03*
X25484750Y-12467000I-76250J0D01*
G01*
X25484750Y-12467000D02*
G75*
G03*
X25637250Y-12467000I76250J0D01*
G01*
X25484750Y-13152750D02*
X25637250Y-13305250D01*
X25637250Y-13152750D02*
X25484750Y-13305250D01*
X25637250Y-13229000D02*
G75*
G03*
X25484750Y-13229000I-76250J0D01*
G01*
X25484750Y-13229000D02*
G75*
G03*
X25637250Y-13229000I76250J0D01*
G01*
X25484750Y-13914750D02*
X25637250Y-14067250D01*
X25637250Y-13914750D02*
X25484750Y-14067250D01*
X25637250Y-13991000D02*
G75*
G03*
X25484750Y-13991000I-76250J0D01*
G01*
X25484750Y-13991000D02*
G75*
G03*
X25637250Y-13991000I76250J0D01*
G01*
X25484750Y-14676750D02*
X25637250Y-14829250D01*
X25637250Y-14676750D02*
X25484750Y-14829250D01*
X25637250Y-14753000D02*
G75*
G03*
X25484750Y-14753000I-76250J0D01*
G01*
X25484750Y-14753000D02*
G75*
G03*
X25637250Y-14753000I76250J0D01*
G01*
X25484750Y-15438750D02*
X25637250Y-15591250D01*
X25637250Y-15438750D02*
X25484750Y-15591250D01*
X25637250Y-15515000D02*
G75*
G03*
X25484750Y-15515000I-76250J0D01*
G01*
X25484750Y-15515000D02*
G75*
G03*
X25637250Y-15515000I76250J0D01*
G01*
X25484750Y-16200750D02*
X25637250Y-16353250D01*
X25637250Y-16200750D02*
X25484750Y-16353250D01*
X25637250Y-16277000D02*
G75*
G03*
X25484750Y-16277000I-76250J0D01*
G01*
X25484750Y-16277000D02*
G75*
G03*
X25637250Y-16277000I76250J0D01*
G01*
X25738750Y-12390750D02*
X25891250Y-12543250D01*
X25891250Y-12390750D02*
X25738750Y-12543250D01*
X25891250Y-12467000D02*
G75*
G03*
X25738750Y-12467000I-76250J0D01*
G01*
X25738750Y-12467000D02*
G75*
G03*
X25891250Y-12467000I76250J0D01*
G01*
X25738750Y-13152750D02*
X25891250Y-13305250D01*
X25891250Y-13152750D02*
X25738750Y-13305250D01*
X25891250Y-13229000D02*
G75*
G03*
X25738750Y-13229000I-76250J0D01*
G01*
X25738750Y-13229000D02*
G75*
G03*
X25891250Y-13229000I76250J0D01*
G01*
X25738750Y-13914750D02*
X25891250Y-14067250D01*
X25891250Y-13914750D02*
X25738750Y-14067250D01*
X25891250Y-13991000D02*
G75*
G03*
X25738750Y-13991000I-76250J0D01*
G01*
X25738750Y-13991000D02*
G75*
G03*
X25891250Y-13991000I76250J0D01*
G01*
X25738750Y-14676750D02*
X25891250Y-14829250D01*
X25891250Y-14676750D02*
X25738750Y-14829250D01*
X25891250Y-14753000D02*
G75*
G03*
X25738750Y-14753000I-76250J0D01*
G01*
X25738750Y-14753000D02*
G75*
G03*
X25891250Y-14753000I76250J0D01*
G01*
X25738750Y-15438750D02*
X25891250Y-15591250D01*
X25891250Y-15438750D02*
X25738750Y-15591250D01*
X25891250Y-15515000D02*
G75*
G03*
X25738750Y-15515000I-76250J0D01*
G01*
X25738750Y-15515000D02*
G75*
G03*
X25891250Y-15515000I76250J0D01*
G01*
X25738750Y-16200750D02*
X25891250Y-16353250D01*
X25891250Y-16200750D02*
X25738750Y-16353250D01*
X25891250Y-16277000D02*
G75*
G03*
X25738750Y-16277000I-76250J0D01*
G01*
X25738750Y-16277000D02*
G75*
G03*
X25891250Y-16277000I76250J0D01*
G01*
D15*
X23420015Y-11396029D02*
X23680015Y-11656029D01*
X23680015Y-11396029D02*
X23420015Y-11656029D01*
X23550015Y-11396029D02*
X23550015Y-11656029D01*
X23420015Y-11526029D02*
X23680015Y-11526029D01*
X24140005Y-11396029D02*
X24400005Y-11656029D01*
X24400005Y-11396029D02*
X24140005Y-11656029D01*
X24270005Y-11396029D02*
X24270005Y-11656029D01*
X24140005Y-11526029D02*
X24400005Y-11526029D01*
D16*
X16376000Y-10260000D02*
X16696000Y-10580000D01*
X16696000Y-10260000D02*
X16376000Y-10580000D01*
X16649138Y-10533138D02*
X16649138Y-10306862D01*
X16422862Y-10306862D01*
X16422862Y-10533138D01*
X16649138Y-10533138D01*
X16376000Y-16760000D02*
X16696000Y-17080000D01*
X16696000Y-16760000D02*
X16376000Y-17080000D01*
X16649138Y-17033138D02*
X16649138Y-16806862D01*
X16422862Y-16806862D01*
X16422862Y-17033138D01*
X16649138Y-17033138D01*
X25376000Y-10260000D02*
X25696000Y-10580000D01*
X25696000Y-10260000D02*
X25376000Y-10580000D01*
X25649138Y-10533138D02*
X25649138Y-10306862D01*
X25422862Y-10306862D01*
X25422862Y-10533138D01*
X25649138Y-10533138D01*
X25376000Y-16760000D02*
X25696000Y-17080000D01*
X25696000Y-16760000D02*
X25376000Y-17080000D01*
X25649138Y-17033138D02*
X25649138Y-16806862D01*
X25422862Y-16806862D01*
X25422862Y-17033138D01*
X25649138Y-17033138D01*
D11*
X16294277Y-17733984D02*
X16294277Y-17533984D01*
X16294277Y-17533984D02*
X16341896Y-17533984D01*
X16341896Y-17533984D02*
X16370467Y-17543508D01*
X16370467Y-17543508D02*
X16389515Y-17562555D01*
X16389515Y-17562555D02*
X16399039Y-17581603D01*
X16399039Y-17581603D02*
X16408562Y-17619698D01*
X16408562Y-17619698D02*
X16408562Y-17648270D01*
X16408562Y-17648270D02*
X16399039Y-17686365D01*
X16399039Y-17686365D02*
X16389515Y-17705412D01*
X16389515Y-17705412D02*
X16370467Y-17724460D01*
X16370467Y-17724460D02*
X16341896Y-17733984D01*
X16341896Y-17733984D02*
X16294277Y-17733984D01*
X16494277Y-17733984D02*
X16494277Y-17600650D01*
X16494277Y-17638746D02*
X16503801Y-17619698D01*
X16503801Y-17619698D02*
X16513324Y-17610174D01*
X16513324Y-17610174D02*
X16532372Y-17600650D01*
X16532372Y-17600650D02*
X16551420Y-17600650D01*
X16618086Y-17733984D02*
X16618086Y-17600650D01*
X16618086Y-17533984D02*
X16608562Y-17543508D01*
X16608562Y-17543508D02*
X16618086Y-17553031D01*
X16618086Y-17553031D02*
X16627610Y-17543508D01*
X16627610Y-17543508D02*
X16618086Y-17533984D01*
X16618086Y-17533984D02*
X16618086Y-17553031D01*
X16741896Y-17733984D02*
X16722848Y-17724460D01*
X16722848Y-17724460D02*
X16713324Y-17705412D01*
X16713324Y-17705412D02*
X16713324Y-17533984D01*
X16846658Y-17733984D02*
X16827610Y-17724460D01*
X16827610Y-17724460D02*
X16818086Y-17705412D01*
X16818086Y-17705412D02*
X16818086Y-17533984D01*
X17075229Y-17733984D02*
X17075229Y-17533984D01*
X17075229Y-17533984D02*
X17141896Y-17676841D01*
X17141896Y-17676841D02*
X17208563Y-17533984D01*
X17208563Y-17533984D02*
X17208563Y-17733984D01*
X17389515Y-17733984D02*
X17389515Y-17629222D01*
X17389515Y-17629222D02*
X17379991Y-17610174D01*
X17379991Y-17610174D02*
X17360944Y-17600650D01*
X17360944Y-17600650D02*
X17322848Y-17600650D01*
X17322848Y-17600650D02*
X17303801Y-17610174D01*
X17389515Y-17724460D02*
X17370467Y-17733984D01*
X17370467Y-17733984D02*
X17322848Y-17733984D01*
X17322848Y-17733984D02*
X17303801Y-17724460D01*
X17303801Y-17724460D02*
X17294277Y-17705412D01*
X17294277Y-17705412D02*
X17294277Y-17686365D01*
X17294277Y-17686365D02*
X17303801Y-17667317D01*
X17303801Y-17667317D02*
X17322848Y-17657793D01*
X17322848Y-17657793D02*
X17370467Y-17657793D01*
X17370467Y-17657793D02*
X17389515Y-17648270D01*
X17484753Y-17600650D02*
X17484753Y-17800650D01*
X17484753Y-17610174D02*
X17503801Y-17600650D01*
X17503801Y-17600650D02*
X17541896Y-17600650D01*
X17541896Y-17600650D02*
X17560944Y-17610174D01*
X17560944Y-17610174D02*
X17570467Y-17619698D01*
X17570467Y-17619698D02*
X17579991Y-17638746D01*
X17579991Y-17638746D02*
X17579991Y-17695889D01*
X17579991Y-17695889D02*
X17570467Y-17714936D01*
X17570467Y-17714936D02*
X17560944Y-17724460D01*
X17560944Y-17724460D02*
X17541896Y-17733984D01*
X17541896Y-17733984D02*
X17503801Y-17733984D01*
X17503801Y-17733984D02*
X17484753Y-17724460D01*
X17665705Y-17714936D02*
X17675229Y-17724460D01*
X17675229Y-17724460D02*
X17665705Y-17733984D01*
X17665705Y-17733984D02*
X17656182Y-17724460D01*
X17656182Y-17724460D02*
X17665705Y-17714936D01*
X17665705Y-17714936D02*
X17665705Y-17733984D01*
X17665705Y-17610174D02*
X17675229Y-17619698D01*
X17675229Y-17619698D02*
X17665705Y-17629222D01*
X17665705Y-17629222D02*
X17656182Y-17619698D01*
X17656182Y-17619698D02*
X17665705Y-17610174D01*
X17665705Y-17610174D02*
X17665705Y-17629222D01*
D12*
X16008100Y-18049800D02*
X16033500Y-18075200D01*
X16033500Y-18049800D02*
X16008100Y-18075200D01*
D11*
X16332372Y-17953984D02*
X16351420Y-17953984D01*
X16351420Y-17953984D02*
X16370467Y-17963508D01*
X16370467Y-17963508D02*
X16379991Y-17973031D01*
X16379991Y-17973031D02*
X16389515Y-17992079D01*
X16389515Y-17992079D02*
X16399039Y-18030174D01*
X16399039Y-18030174D02*
X16399039Y-18077793D01*
X16399039Y-18077793D02*
X16389515Y-18115889D01*
X16389515Y-18115889D02*
X16379991Y-18134936D01*
X16379991Y-18134936D02*
X16370467Y-18144460D01*
X16370467Y-18144460D02*
X16351420Y-18153984D01*
X16351420Y-18153984D02*
X16332372Y-18153984D01*
X16332372Y-18153984D02*
X16313324Y-18144460D01*
X16313324Y-18144460D02*
X16303801Y-18134936D01*
X16303801Y-18134936D02*
X16294277Y-18115889D01*
X16294277Y-18115889D02*
X16284753Y-18077793D01*
X16284753Y-18077793D02*
X16284753Y-18030174D01*
X16284753Y-18030174D02*
X16294277Y-17992079D01*
X16294277Y-17992079D02*
X16303801Y-17973031D01*
X16303801Y-17973031D02*
X16313324Y-17963508D01*
X16313324Y-17963508D02*
X16332372Y-17953984D01*
X16484753Y-18134936D02*
X16494277Y-18144460D01*
X16494277Y-18144460D02*
X16484753Y-18153984D01*
X16484753Y-18153984D02*
X16475229Y-18144460D01*
X16475229Y-18144460D02*
X16484753Y-18134936D01*
X16484753Y-18134936D02*
X16484753Y-18153984D01*
X16570467Y-17973031D02*
X16579991Y-17963508D01*
X16579991Y-17963508D02*
X16599039Y-17953984D01*
X16599039Y-17953984D02*
X16646658Y-17953984D01*
X16646658Y-17953984D02*
X16665705Y-17963508D01*
X16665705Y-17963508D02*
X16675229Y-17973031D01*
X16675229Y-17973031D02*
X16684753Y-17992079D01*
X16684753Y-17992079D02*
X16684753Y-18011127D01*
X16684753Y-18011127D02*
X16675229Y-18039698D01*
X16675229Y-18039698D02*
X16560943Y-18153984D01*
X16560943Y-18153984D02*
X16684753Y-18153984D01*
X16865705Y-17953984D02*
X16770467Y-17953984D01*
X16770467Y-17953984D02*
X16760943Y-18049222D01*
X16760943Y-18049222D02*
X16770467Y-18039698D01*
X16770467Y-18039698D02*
X16789515Y-18030174D01*
X16789515Y-18030174D02*
X16837134Y-18030174D01*
X16837134Y-18030174D02*
X16856182Y-18039698D01*
X16856182Y-18039698D02*
X16865705Y-18049222D01*
X16865705Y-18049222D02*
X16875229Y-18068270D01*
X16875229Y-18068270D02*
X16875229Y-18115889D01*
X16875229Y-18115889D02*
X16865705Y-18134936D01*
X16865705Y-18134936D02*
X16856182Y-18144460D01*
X16856182Y-18144460D02*
X16837134Y-18153984D01*
X16837134Y-18153984D02*
X16789515Y-18153984D01*
X16789515Y-18153984D02*
X16770467Y-18144460D01*
X16770467Y-18144460D02*
X16760943Y-18134936D01*
X17046658Y-18020650D02*
X17046658Y-18153984D01*
X16999039Y-17944460D02*
X16951420Y-18087317D01*
X16951420Y-18087317D02*
X17075229Y-18087317D01*
X17151420Y-18153984D02*
X17151420Y-18020650D01*
X17151420Y-18039698D02*
X17160944Y-18030174D01*
X17160944Y-18030174D02*
X17179991Y-18020650D01*
X17179991Y-18020650D02*
X17208563Y-18020650D01*
X17208563Y-18020650D02*
X17227610Y-18030174D01*
X17227610Y-18030174D02*
X17237134Y-18049222D01*
X17237134Y-18049222D02*
X17237134Y-18153984D01*
X17237134Y-18049222D02*
X17246658Y-18030174D01*
X17246658Y-18030174D02*
X17265705Y-18020650D01*
X17265705Y-18020650D02*
X17294277Y-18020650D01*
X17294277Y-18020650D02*
X17313325Y-18030174D01*
X17313325Y-18030174D02*
X17322848Y-18049222D01*
X17322848Y-18049222D02*
X17322848Y-18153984D01*
X17418086Y-18153984D02*
X17418086Y-18020650D01*
X17418086Y-18039698D02*
X17427610Y-18030174D01*
X17427610Y-18030174D02*
X17446658Y-18020650D01*
X17446658Y-18020650D02*
X17475229Y-18020650D01*
X17475229Y-18020650D02*
X17494277Y-18030174D01*
X17494277Y-18030174D02*
X17503801Y-18049222D01*
X17503801Y-18049222D02*
X17503801Y-18153984D01*
X17503801Y-18049222D02*
X17513325Y-18030174D01*
X17513325Y-18030174D02*
X17532372Y-18020650D01*
X17532372Y-18020650D02*
X17560944Y-18020650D01*
X17560944Y-18020650D02*
X17579991Y-18030174D01*
X17579991Y-18030174D02*
X17589515Y-18049222D01*
X17589515Y-18049222D02*
X17589515Y-18153984D01*
X17979991Y-17944460D02*
X17808563Y-18201603D01*
X18237134Y-17953984D02*
X18256182Y-17953984D01*
X18256182Y-17953984D02*
X18275229Y-17963508D01*
X18275229Y-17963508D02*
X18284753Y-17973031D01*
X18284753Y-17973031D02*
X18294277Y-17992079D01*
X18294277Y-17992079D02*
X18303801Y-18030174D01*
X18303801Y-18030174D02*
X18303801Y-18077793D01*
X18303801Y-18077793D02*
X18294277Y-18115889D01*
X18294277Y-18115889D02*
X18284753Y-18134936D01*
X18284753Y-18134936D02*
X18275229Y-18144460D01*
X18275229Y-18144460D02*
X18256182Y-18153984D01*
X18256182Y-18153984D02*
X18237134Y-18153984D01*
X18237134Y-18153984D02*
X18218087Y-18144460D01*
X18218087Y-18144460D02*
X18208563Y-18134936D01*
X18208563Y-18134936D02*
X18199039Y-18115889D01*
X18199039Y-18115889D02*
X18189515Y-18077793D01*
X18189515Y-18077793D02*
X18189515Y-18030174D01*
X18189515Y-18030174D02*
X18199039Y-17992079D01*
X18199039Y-17992079D02*
X18208563Y-17973031D01*
X18208563Y-17973031D02*
X18218087Y-17963508D01*
X18218087Y-17963508D02*
X18237134Y-17953984D01*
X18389515Y-18134936D02*
X18399039Y-18144460D01*
X18399039Y-18144460D02*
X18389515Y-18153984D01*
X18389515Y-18153984D02*
X18379991Y-18144460D01*
X18379991Y-18144460D02*
X18389515Y-18134936D01*
X18389515Y-18134936D02*
X18389515Y-18153984D01*
X18522848Y-17953984D02*
X18541896Y-17953984D01*
X18541896Y-17953984D02*
X18560944Y-17963508D01*
X18560944Y-17963508D02*
X18570468Y-17973031D01*
X18570468Y-17973031D02*
X18579991Y-17992079D01*
X18579991Y-17992079D02*
X18589515Y-18030174D01*
X18589515Y-18030174D02*
X18589515Y-18077793D01*
X18589515Y-18077793D02*
X18579991Y-18115889D01*
X18579991Y-18115889D02*
X18570468Y-18134936D01*
X18570468Y-18134936D02*
X18560944Y-18144460D01*
X18560944Y-18144460D02*
X18541896Y-18153984D01*
X18541896Y-18153984D02*
X18522848Y-18153984D01*
X18522848Y-18153984D02*
X18503801Y-18144460D01*
X18503801Y-18144460D02*
X18494277Y-18134936D01*
X18494277Y-18134936D02*
X18484753Y-18115889D01*
X18484753Y-18115889D02*
X18475229Y-18077793D01*
X18475229Y-18077793D02*
X18475229Y-18030174D01*
X18475229Y-18030174D02*
X18484753Y-17992079D01*
X18484753Y-17992079D02*
X18494277Y-17973031D01*
X18494277Y-17973031D02*
X18503801Y-17963508D01*
X18503801Y-17963508D02*
X18522848Y-17953984D01*
X18779991Y-18153984D02*
X18665706Y-18153984D01*
X18722848Y-18153984D02*
X18722848Y-17953984D01*
X18722848Y-17953984D02*
X18703801Y-17982555D01*
X18703801Y-17982555D02*
X18684753Y-18001603D01*
X18684753Y-18001603D02*
X18665706Y-18011127D01*
X18903801Y-17953984D02*
X18922849Y-17953984D01*
X18922849Y-17953984D02*
X18941896Y-17963508D01*
X18941896Y-17963508D02*
X18951420Y-17973031D01*
X18951420Y-17973031D02*
X18960944Y-17992079D01*
X18960944Y-17992079D02*
X18970468Y-18030174D01*
X18970468Y-18030174D02*
X18970468Y-18077793D01*
X18970468Y-18077793D02*
X18960944Y-18115889D01*
X18960944Y-18115889D02*
X18951420Y-18134936D01*
X18951420Y-18134936D02*
X18941896Y-18144460D01*
X18941896Y-18144460D02*
X18922849Y-18153984D01*
X18922849Y-18153984D02*
X18903801Y-18153984D01*
X18903801Y-18153984D02*
X18884753Y-18144460D01*
X18884753Y-18144460D02*
X18875229Y-18134936D01*
X18875229Y-18134936D02*
X18865706Y-18115889D01*
X18865706Y-18115889D02*
X18856182Y-18077793D01*
X18856182Y-18077793D02*
X18856182Y-18030174D01*
X18856182Y-18030174D02*
X18865706Y-17992079D01*
X18865706Y-17992079D02*
X18875229Y-17973031D01*
X18875229Y-17973031D02*
X18884753Y-17963508D01*
X18884753Y-17963508D02*
X18903801Y-17953984D01*
X19094277Y-17953984D02*
X19113325Y-17953984D01*
X19113325Y-17953984D02*
X19132372Y-17963508D01*
X19132372Y-17963508D02*
X19141896Y-17973031D01*
X19141896Y-17973031D02*
X19151420Y-17992079D01*
X19151420Y-17992079D02*
X19160944Y-18030174D01*
X19160944Y-18030174D02*
X19160944Y-18077793D01*
X19160944Y-18077793D02*
X19151420Y-18115889D01*
X19151420Y-18115889D02*
X19141896Y-18134936D01*
X19141896Y-18134936D02*
X19132372Y-18144460D01*
X19132372Y-18144460D02*
X19113325Y-18153984D01*
X19113325Y-18153984D02*
X19094277Y-18153984D01*
X19094277Y-18153984D02*
X19075229Y-18144460D01*
X19075229Y-18144460D02*
X19065706Y-18134936D01*
X19065706Y-18134936D02*
X19056182Y-18115889D01*
X19056182Y-18115889D02*
X19046658Y-18077793D01*
X19046658Y-18077793D02*
X19046658Y-18030174D01*
X19046658Y-18030174D02*
X19056182Y-17992079D01*
X19056182Y-17992079D02*
X19065706Y-17973031D01*
X19065706Y-17973031D02*
X19075229Y-17963508D01*
X19075229Y-17963508D02*
X19094277Y-17953984D01*
X19237134Y-17953984D02*
X19237134Y-17992079D01*
X19313325Y-17953984D02*
X19313325Y-17992079D01*
X19608563Y-18230174D02*
X19599039Y-18220650D01*
X19599039Y-18220650D02*
X19579991Y-18192079D01*
X19579991Y-18192079D02*
X19570468Y-18173031D01*
X19570468Y-18173031D02*
X19560944Y-18144460D01*
X19560944Y-18144460D02*
X19551420Y-18096841D01*
X19551420Y-18096841D02*
X19551420Y-18058746D01*
X19551420Y-18058746D02*
X19560944Y-18011127D01*
X19560944Y-18011127D02*
X19570468Y-17982555D01*
X19570468Y-17982555D02*
X19579991Y-17963508D01*
X19579991Y-17963508D02*
X19599039Y-17934936D01*
X19599039Y-17934936D02*
X19608563Y-17925412D01*
X19789515Y-18153984D02*
X19675230Y-18153984D01*
X19732372Y-18153984D02*
X19732372Y-17953984D01*
X19732372Y-17953984D02*
X19713325Y-17982555D01*
X19713325Y-17982555D02*
X19694277Y-18001603D01*
X19694277Y-18001603D02*
X19675230Y-18011127D01*
X19856182Y-17953984D02*
X19979991Y-17953984D01*
X19979991Y-17953984D02*
X19913325Y-18030174D01*
X19913325Y-18030174D02*
X19941896Y-18030174D01*
X19941896Y-18030174D02*
X19960944Y-18039698D01*
X19960944Y-18039698D02*
X19970468Y-18049222D01*
X19970468Y-18049222D02*
X19979991Y-18068270D01*
X19979991Y-18068270D02*
X19979991Y-18115889D01*
X19979991Y-18115889D02*
X19970468Y-18134936D01*
X19970468Y-18134936D02*
X19960944Y-18144460D01*
X19960944Y-18144460D02*
X19941896Y-18153984D01*
X19941896Y-18153984D02*
X19884753Y-18153984D01*
X19884753Y-18153984D02*
X19865706Y-18144460D01*
X19865706Y-18144460D02*
X19856182Y-18134936D01*
X20075230Y-18153984D02*
X20113325Y-18153984D01*
X20113325Y-18153984D02*
X20132372Y-18144460D01*
X20132372Y-18144460D02*
X20141896Y-18134936D01*
X20141896Y-18134936D02*
X20160944Y-18106365D01*
X20160944Y-18106365D02*
X20170468Y-18068270D01*
X20170468Y-18068270D02*
X20170468Y-17992079D01*
X20170468Y-17992079D02*
X20160944Y-17973031D01*
X20160944Y-17973031D02*
X20151420Y-17963508D01*
X20151420Y-17963508D02*
X20132372Y-17953984D01*
X20132372Y-17953984D02*
X20094277Y-17953984D01*
X20094277Y-17953984D02*
X20075230Y-17963508D01*
X20075230Y-17963508D02*
X20065706Y-17973031D01*
X20065706Y-17973031D02*
X20056182Y-17992079D01*
X20056182Y-17992079D02*
X20056182Y-18039698D01*
X20056182Y-18039698D02*
X20065706Y-18058746D01*
X20065706Y-18058746D02*
X20075230Y-18068270D01*
X20075230Y-18068270D02*
X20094277Y-18077793D01*
X20094277Y-18077793D02*
X20132372Y-18077793D01*
X20132372Y-18077793D02*
X20151420Y-18068270D01*
X20151420Y-18068270D02*
X20160944Y-18058746D01*
X20160944Y-18058746D02*
X20170468Y-18039698D01*
X20408563Y-18153984D02*
X20408563Y-17953984D01*
X20494277Y-18153984D02*
X20494277Y-18049222D01*
X20494277Y-18049222D02*
X20484753Y-18030174D01*
X20484753Y-18030174D02*
X20465706Y-18020650D01*
X20465706Y-18020650D02*
X20437134Y-18020650D01*
X20437134Y-18020650D02*
X20418087Y-18030174D01*
X20418087Y-18030174D02*
X20408563Y-18039698D01*
X20618087Y-18153984D02*
X20599039Y-18144460D01*
X20599039Y-18144460D02*
X20589515Y-18134936D01*
X20589515Y-18134936D02*
X20579992Y-18115889D01*
X20579992Y-18115889D02*
X20579992Y-18058746D01*
X20579992Y-18058746D02*
X20589515Y-18039698D01*
X20589515Y-18039698D02*
X20599039Y-18030174D01*
X20599039Y-18030174D02*
X20618087Y-18020650D01*
X20618087Y-18020650D02*
X20646658Y-18020650D01*
X20646658Y-18020650D02*
X20665706Y-18030174D01*
X20665706Y-18030174D02*
X20675230Y-18039698D01*
X20675230Y-18039698D02*
X20684753Y-18058746D01*
X20684753Y-18058746D02*
X20684753Y-18115889D01*
X20684753Y-18115889D02*
X20675230Y-18134936D01*
X20675230Y-18134936D02*
X20665706Y-18144460D01*
X20665706Y-18144460D02*
X20646658Y-18153984D01*
X20646658Y-18153984D02*
X20618087Y-18153984D01*
X20799039Y-18153984D02*
X20779992Y-18144460D01*
X20779992Y-18144460D02*
X20770468Y-18125412D01*
X20770468Y-18125412D02*
X20770468Y-17953984D01*
X20951420Y-18144460D02*
X20932373Y-18153984D01*
X20932373Y-18153984D02*
X20894277Y-18153984D01*
X20894277Y-18153984D02*
X20875230Y-18144460D01*
X20875230Y-18144460D02*
X20865706Y-18125412D01*
X20865706Y-18125412D02*
X20865706Y-18049222D01*
X20865706Y-18049222D02*
X20875230Y-18030174D01*
X20875230Y-18030174D02*
X20894277Y-18020650D01*
X20894277Y-18020650D02*
X20932373Y-18020650D01*
X20932373Y-18020650D02*
X20951420Y-18030174D01*
X20951420Y-18030174D02*
X20960944Y-18049222D01*
X20960944Y-18049222D02*
X20960944Y-18068270D01*
X20960944Y-18068270D02*
X20865706Y-18087317D01*
X21037134Y-18144460D02*
X21056182Y-18153984D01*
X21056182Y-18153984D02*
X21094277Y-18153984D01*
X21094277Y-18153984D02*
X21113325Y-18144460D01*
X21113325Y-18144460D02*
X21122849Y-18125412D01*
X21122849Y-18125412D02*
X21122849Y-18115889D01*
X21122849Y-18115889D02*
X21113325Y-18096841D01*
X21113325Y-18096841D02*
X21094277Y-18087317D01*
X21094277Y-18087317D02*
X21065706Y-18087317D01*
X21065706Y-18087317D02*
X21046658Y-18077793D01*
X21046658Y-18077793D02*
X21037134Y-18058746D01*
X21037134Y-18058746D02*
X21037134Y-18049222D01*
X21037134Y-18049222D02*
X21046658Y-18030174D01*
X21046658Y-18030174D02*
X21065706Y-18020650D01*
X21065706Y-18020650D02*
X21094277Y-18020650D01*
X21094277Y-18020650D02*
X21113325Y-18030174D01*
X21189515Y-18230174D02*
X21199039Y-18220650D01*
X21199039Y-18220650D02*
X21218087Y-18192079D01*
X21218087Y-18192079D02*
X21227611Y-18173031D01*
X21227611Y-18173031D02*
X21237134Y-18144460D01*
X21237134Y-18144460D02*
X21246658Y-18096841D01*
X21246658Y-18096841D02*
X21246658Y-18058746D01*
X21246658Y-18058746D02*
X21237134Y-18011127D01*
X21237134Y-18011127D02*
X21227611Y-17982555D01*
X21227611Y-17982555D02*
X21218087Y-17963508D01*
X21218087Y-17963508D02*
X21199039Y-17934936D01*
X21199039Y-17934936D02*
X21189515Y-17925412D01*
D12*
X16033500Y-18326500D02*
G75*
G03*
X15983500Y-18326500I-25000J0D01*
G01*
X15983500Y-18326500D02*
G75*
G03*
X16033500Y-18326500I25000J0D01*
G01*
D11*
X16332372Y-18217984D02*
X16351420Y-18217984D01*
X16351420Y-18217984D02*
X16370467Y-18227508D01*
X16370467Y-18227508D02*
X16379991Y-18237031D01*
X16379991Y-18237031D02*
X16389515Y-18256079D01*
X16389515Y-18256079D02*
X16399039Y-18294174D01*
X16399039Y-18294174D02*
X16399039Y-18341793D01*
X16399039Y-18341793D02*
X16389515Y-18379889D01*
X16389515Y-18379889D02*
X16379991Y-18398936D01*
X16379991Y-18398936D02*
X16370467Y-18408460D01*
X16370467Y-18408460D02*
X16351420Y-18417984D01*
X16351420Y-18417984D02*
X16332372Y-18417984D01*
X16332372Y-18417984D02*
X16313324Y-18408460D01*
X16313324Y-18408460D02*
X16303801Y-18398936D01*
X16303801Y-18398936D02*
X16294277Y-18379889D01*
X16294277Y-18379889D02*
X16284753Y-18341793D01*
X16284753Y-18341793D02*
X16284753Y-18294174D01*
X16284753Y-18294174D02*
X16294277Y-18256079D01*
X16294277Y-18256079D02*
X16303801Y-18237031D01*
X16303801Y-18237031D02*
X16313324Y-18227508D01*
X16313324Y-18227508D02*
X16332372Y-18217984D01*
X16484753Y-18398936D02*
X16494277Y-18408460D01*
X16494277Y-18408460D02*
X16484753Y-18417984D01*
X16484753Y-18417984D02*
X16475229Y-18408460D01*
X16475229Y-18408460D02*
X16484753Y-18398936D01*
X16484753Y-18398936D02*
X16484753Y-18417984D01*
X16675229Y-18217984D02*
X16579991Y-18217984D01*
X16579991Y-18217984D02*
X16570467Y-18313222D01*
X16570467Y-18313222D02*
X16579991Y-18303698D01*
X16579991Y-18303698D02*
X16599039Y-18294174D01*
X16599039Y-18294174D02*
X16646658Y-18294174D01*
X16646658Y-18294174D02*
X16665705Y-18303698D01*
X16665705Y-18303698D02*
X16675229Y-18313222D01*
X16675229Y-18313222D02*
X16684753Y-18332270D01*
X16684753Y-18332270D02*
X16684753Y-18379889D01*
X16684753Y-18379889D02*
X16675229Y-18398936D01*
X16675229Y-18398936D02*
X16665705Y-18408460D01*
X16665705Y-18408460D02*
X16646658Y-18417984D01*
X16646658Y-18417984D02*
X16599039Y-18417984D01*
X16599039Y-18417984D02*
X16579991Y-18408460D01*
X16579991Y-18408460D02*
X16570467Y-18398936D01*
X16808563Y-18217984D02*
X16827610Y-18217984D01*
X16827610Y-18217984D02*
X16846658Y-18227508D01*
X16846658Y-18227508D02*
X16856182Y-18237031D01*
X16856182Y-18237031D02*
X16865705Y-18256079D01*
X16865705Y-18256079D02*
X16875229Y-18294174D01*
X16875229Y-18294174D02*
X16875229Y-18341793D01*
X16875229Y-18341793D02*
X16865705Y-18379889D01*
X16865705Y-18379889D02*
X16856182Y-18398936D01*
X16856182Y-18398936D02*
X16846658Y-18408460D01*
X16846658Y-18408460D02*
X16827610Y-18417984D01*
X16827610Y-18417984D02*
X16808563Y-18417984D01*
X16808563Y-18417984D02*
X16789515Y-18408460D01*
X16789515Y-18408460D02*
X16779991Y-18398936D01*
X16779991Y-18398936D02*
X16770467Y-18379889D01*
X16770467Y-18379889D02*
X16760943Y-18341793D01*
X16760943Y-18341793D02*
X16760943Y-18294174D01*
X16760943Y-18294174D02*
X16770467Y-18256079D01*
X16770467Y-18256079D02*
X16779991Y-18237031D01*
X16779991Y-18237031D02*
X16789515Y-18227508D01*
X16789515Y-18227508D02*
X16808563Y-18217984D01*
X16999039Y-18217984D02*
X17018086Y-18217984D01*
X17018086Y-18217984D02*
X17037134Y-18227508D01*
X17037134Y-18227508D02*
X17046658Y-18237031D01*
X17046658Y-18237031D02*
X17056182Y-18256079D01*
X17056182Y-18256079D02*
X17065705Y-18294174D01*
X17065705Y-18294174D02*
X17065705Y-18341793D01*
X17065705Y-18341793D02*
X17056182Y-18379889D01*
X17056182Y-18379889D02*
X17046658Y-18398936D01*
X17046658Y-18398936D02*
X17037134Y-18408460D01*
X17037134Y-18408460D02*
X17018086Y-18417984D01*
X17018086Y-18417984D02*
X16999039Y-18417984D01*
X16999039Y-18417984D02*
X16979991Y-18408460D01*
X16979991Y-18408460D02*
X16970467Y-18398936D01*
X16970467Y-18398936D02*
X16960944Y-18379889D01*
X16960944Y-18379889D02*
X16951420Y-18341793D01*
X16951420Y-18341793D02*
X16951420Y-18294174D01*
X16951420Y-18294174D02*
X16960944Y-18256079D01*
X16960944Y-18256079D02*
X16970467Y-18237031D01*
X16970467Y-18237031D02*
X16979991Y-18227508D01*
X16979991Y-18227508D02*
X16999039Y-18217984D01*
X17151420Y-18417984D02*
X17151420Y-18284650D01*
X17151420Y-18303698D02*
X17160944Y-18294174D01*
X17160944Y-18294174D02*
X17179991Y-18284650D01*
X17179991Y-18284650D02*
X17208563Y-18284650D01*
X17208563Y-18284650D02*
X17227610Y-18294174D01*
X17227610Y-18294174D02*
X17237134Y-18313222D01*
X17237134Y-18313222D02*
X17237134Y-18417984D01*
X17237134Y-18313222D02*
X17246658Y-18294174D01*
X17246658Y-18294174D02*
X17265705Y-18284650D01*
X17265705Y-18284650D02*
X17294277Y-18284650D01*
X17294277Y-18284650D02*
X17313325Y-18294174D01*
X17313325Y-18294174D02*
X17322848Y-18313222D01*
X17322848Y-18313222D02*
X17322848Y-18417984D01*
X17418086Y-18417984D02*
X17418086Y-18284650D01*
X17418086Y-18303698D02*
X17427610Y-18294174D01*
X17427610Y-18294174D02*
X17446658Y-18284650D01*
X17446658Y-18284650D02*
X17475229Y-18284650D01*
X17475229Y-18284650D02*
X17494277Y-18294174D01*
X17494277Y-18294174D02*
X17503801Y-18313222D01*
X17503801Y-18313222D02*
X17503801Y-18417984D01*
X17503801Y-18313222D02*
X17513325Y-18294174D01*
X17513325Y-18294174D02*
X17532372Y-18284650D01*
X17532372Y-18284650D02*
X17560944Y-18284650D01*
X17560944Y-18284650D02*
X17579991Y-18294174D01*
X17579991Y-18294174D02*
X17589515Y-18313222D01*
X17589515Y-18313222D02*
X17589515Y-18417984D01*
X17979991Y-18208460D02*
X17808563Y-18465603D01*
X18237134Y-18217984D02*
X18256182Y-18217984D01*
X18256182Y-18217984D02*
X18275229Y-18227508D01*
X18275229Y-18227508D02*
X18284753Y-18237031D01*
X18284753Y-18237031D02*
X18294277Y-18256079D01*
X18294277Y-18256079D02*
X18303801Y-18294174D01*
X18303801Y-18294174D02*
X18303801Y-18341793D01*
X18303801Y-18341793D02*
X18294277Y-18379889D01*
X18294277Y-18379889D02*
X18284753Y-18398936D01*
X18284753Y-18398936D02*
X18275229Y-18408460D01*
X18275229Y-18408460D02*
X18256182Y-18417984D01*
X18256182Y-18417984D02*
X18237134Y-18417984D01*
X18237134Y-18417984D02*
X18218087Y-18408460D01*
X18218087Y-18408460D02*
X18208563Y-18398936D01*
X18208563Y-18398936D02*
X18199039Y-18379889D01*
X18199039Y-18379889D02*
X18189515Y-18341793D01*
X18189515Y-18341793D02*
X18189515Y-18294174D01*
X18189515Y-18294174D02*
X18199039Y-18256079D01*
X18199039Y-18256079D02*
X18208563Y-18237031D01*
X18208563Y-18237031D02*
X18218087Y-18227508D01*
X18218087Y-18227508D02*
X18237134Y-18217984D01*
X18389515Y-18398936D02*
X18399039Y-18408460D01*
X18399039Y-18408460D02*
X18389515Y-18417984D01*
X18389515Y-18417984D02*
X18379991Y-18408460D01*
X18379991Y-18408460D02*
X18389515Y-18398936D01*
X18389515Y-18398936D02*
X18389515Y-18417984D01*
X18522848Y-18217984D02*
X18541896Y-18217984D01*
X18541896Y-18217984D02*
X18560944Y-18227508D01*
X18560944Y-18227508D02*
X18570468Y-18237031D01*
X18570468Y-18237031D02*
X18579991Y-18256079D01*
X18579991Y-18256079D02*
X18589515Y-18294174D01*
X18589515Y-18294174D02*
X18589515Y-18341793D01*
X18589515Y-18341793D02*
X18579991Y-18379889D01*
X18579991Y-18379889D02*
X18570468Y-18398936D01*
X18570468Y-18398936D02*
X18560944Y-18408460D01*
X18560944Y-18408460D02*
X18541896Y-18417984D01*
X18541896Y-18417984D02*
X18522848Y-18417984D01*
X18522848Y-18417984D02*
X18503801Y-18408460D01*
X18503801Y-18408460D02*
X18494277Y-18398936D01*
X18494277Y-18398936D02*
X18484753Y-18379889D01*
X18484753Y-18379889D02*
X18475229Y-18341793D01*
X18475229Y-18341793D02*
X18475229Y-18294174D01*
X18475229Y-18294174D02*
X18484753Y-18256079D01*
X18484753Y-18256079D02*
X18494277Y-18237031D01*
X18494277Y-18237031D02*
X18503801Y-18227508D01*
X18503801Y-18227508D02*
X18522848Y-18217984D01*
X18779991Y-18417984D02*
X18665706Y-18417984D01*
X18722848Y-18417984D02*
X18722848Y-18217984D01*
X18722848Y-18217984D02*
X18703801Y-18246555D01*
X18703801Y-18246555D02*
X18684753Y-18265603D01*
X18684753Y-18265603D02*
X18665706Y-18275127D01*
X18875229Y-18417984D02*
X18913325Y-18417984D01*
X18913325Y-18417984D02*
X18932372Y-18408460D01*
X18932372Y-18408460D02*
X18941896Y-18398936D01*
X18941896Y-18398936D02*
X18960944Y-18370365D01*
X18960944Y-18370365D02*
X18970468Y-18332270D01*
X18970468Y-18332270D02*
X18970468Y-18256079D01*
X18970468Y-18256079D02*
X18960944Y-18237031D01*
X18960944Y-18237031D02*
X18951420Y-18227508D01*
X18951420Y-18227508D02*
X18932372Y-18217984D01*
X18932372Y-18217984D02*
X18894277Y-18217984D01*
X18894277Y-18217984D02*
X18875229Y-18227508D01*
X18875229Y-18227508D02*
X18865706Y-18237031D01*
X18865706Y-18237031D02*
X18856182Y-18256079D01*
X18856182Y-18256079D02*
X18856182Y-18303698D01*
X18856182Y-18303698D02*
X18865706Y-18322746D01*
X18865706Y-18322746D02*
X18875229Y-18332270D01*
X18875229Y-18332270D02*
X18894277Y-18341793D01*
X18894277Y-18341793D02*
X18932372Y-18341793D01*
X18932372Y-18341793D02*
X18951420Y-18332270D01*
X18951420Y-18332270D02*
X18960944Y-18322746D01*
X18960944Y-18322746D02*
X18970468Y-18303698D01*
X19037134Y-18217984D02*
X19170468Y-18217984D01*
X19170468Y-18217984D02*
X19084753Y-18417984D01*
X19237134Y-18217984D02*
X19237134Y-18256079D01*
X19313325Y-18217984D02*
X19313325Y-18256079D01*
X19608563Y-18494174D02*
X19599039Y-18484650D01*
X19599039Y-18484650D02*
X19579991Y-18456079D01*
X19579991Y-18456079D02*
X19570468Y-18437031D01*
X19570468Y-18437031D02*
X19560944Y-18408460D01*
X19560944Y-18408460D02*
X19551420Y-18360841D01*
X19551420Y-18360841D02*
X19551420Y-18322746D01*
X19551420Y-18322746D02*
X19560944Y-18275127D01*
X19560944Y-18275127D02*
X19570468Y-18246555D01*
X19570468Y-18246555D02*
X19579991Y-18227508D01*
X19579991Y-18227508D02*
X19599039Y-18198936D01*
X19599039Y-18198936D02*
X19608563Y-18189412D01*
X19665706Y-18217984D02*
X19789515Y-18217984D01*
X19789515Y-18217984D02*
X19722849Y-18294174D01*
X19722849Y-18294174D02*
X19751420Y-18294174D01*
X19751420Y-18294174D02*
X19770468Y-18303698D01*
X19770468Y-18303698D02*
X19779991Y-18313222D01*
X19779991Y-18313222D02*
X19789515Y-18332270D01*
X19789515Y-18332270D02*
X19789515Y-18379889D01*
X19789515Y-18379889D02*
X19779991Y-18398936D01*
X19779991Y-18398936D02*
X19770468Y-18408460D01*
X19770468Y-18408460D02*
X19751420Y-18417984D01*
X19751420Y-18417984D02*
X19694277Y-18417984D01*
X19694277Y-18417984D02*
X19675230Y-18408460D01*
X19675230Y-18408460D02*
X19665706Y-18398936D01*
X19865706Y-18237031D02*
X19875230Y-18227508D01*
X19875230Y-18227508D02*
X19894277Y-18217984D01*
X19894277Y-18217984D02*
X19941896Y-18217984D01*
X19941896Y-18217984D02*
X19960944Y-18227508D01*
X19960944Y-18227508D02*
X19970468Y-18237031D01*
X19970468Y-18237031D02*
X19979991Y-18256079D01*
X19979991Y-18256079D02*
X19979991Y-18275127D01*
X19979991Y-18275127D02*
X19970468Y-18303698D01*
X19970468Y-18303698D02*
X19856182Y-18417984D01*
X19856182Y-18417984D02*
X19979991Y-18417984D01*
X20218087Y-18417984D02*
X20218087Y-18217984D01*
X20303801Y-18417984D02*
X20303801Y-18313222D01*
X20303801Y-18313222D02*
X20294277Y-18294174D01*
X20294277Y-18294174D02*
X20275230Y-18284650D01*
X20275230Y-18284650D02*
X20246658Y-18284650D01*
X20246658Y-18284650D02*
X20227611Y-18294174D01*
X20227611Y-18294174D02*
X20218087Y-18303698D01*
X20427611Y-18417984D02*
X20408563Y-18408460D01*
X20408563Y-18408460D02*
X20399039Y-18398936D01*
X20399039Y-18398936D02*
X20389515Y-18379889D01*
X20389515Y-18379889D02*
X20389515Y-18322746D01*
X20389515Y-18322746D02*
X20399039Y-18303698D01*
X20399039Y-18303698D02*
X20408563Y-18294174D01*
X20408563Y-18294174D02*
X20427611Y-18284650D01*
X20427611Y-18284650D02*
X20456182Y-18284650D01*
X20456182Y-18284650D02*
X20475230Y-18294174D01*
X20475230Y-18294174D02*
X20484753Y-18303698D01*
X20484753Y-18303698D02*
X20494277Y-18322746D01*
X20494277Y-18322746D02*
X20494277Y-18379889D01*
X20494277Y-18379889D02*
X20484753Y-18398936D01*
X20484753Y-18398936D02*
X20475230Y-18408460D01*
X20475230Y-18408460D02*
X20456182Y-18417984D01*
X20456182Y-18417984D02*
X20427611Y-18417984D01*
X20608563Y-18417984D02*
X20589515Y-18408460D01*
X20589515Y-18408460D02*
X20579992Y-18389412D01*
X20579992Y-18389412D02*
X20579992Y-18217984D01*
X20760944Y-18408460D02*
X20741896Y-18417984D01*
X20741896Y-18417984D02*
X20703801Y-18417984D01*
X20703801Y-18417984D02*
X20684753Y-18408460D01*
X20684753Y-18408460D02*
X20675230Y-18389412D01*
X20675230Y-18389412D02*
X20675230Y-18313222D01*
X20675230Y-18313222D02*
X20684753Y-18294174D01*
X20684753Y-18294174D02*
X20703801Y-18284650D01*
X20703801Y-18284650D02*
X20741896Y-18284650D01*
X20741896Y-18284650D02*
X20760944Y-18294174D01*
X20760944Y-18294174D02*
X20770468Y-18313222D01*
X20770468Y-18313222D02*
X20770468Y-18332270D01*
X20770468Y-18332270D02*
X20675230Y-18351317D01*
X20846658Y-18408460D02*
X20865706Y-18417984D01*
X20865706Y-18417984D02*
X20903801Y-18417984D01*
X20903801Y-18417984D02*
X20922849Y-18408460D01*
X20922849Y-18408460D02*
X20932373Y-18389412D01*
X20932373Y-18389412D02*
X20932373Y-18379889D01*
X20932373Y-18379889D02*
X20922849Y-18360841D01*
X20922849Y-18360841D02*
X20903801Y-18351317D01*
X20903801Y-18351317D02*
X20875230Y-18351317D01*
X20875230Y-18351317D02*
X20856182Y-18341793D01*
X20856182Y-18341793D02*
X20846658Y-18322746D01*
X20846658Y-18322746D02*
X20846658Y-18313222D01*
X20846658Y-18313222D02*
X20856182Y-18294174D01*
X20856182Y-18294174D02*
X20875230Y-18284650D01*
X20875230Y-18284650D02*
X20903801Y-18284650D01*
X20903801Y-18284650D02*
X20922849Y-18294174D01*
X20999039Y-18494174D02*
X21008563Y-18484650D01*
X21008563Y-18484650D02*
X21027611Y-18456079D01*
X21027611Y-18456079D02*
X21037134Y-18437031D01*
X21037134Y-18437031D02*
X21046658Y-18408460D01*
X21046658Y-18408460D02*
X21056182Y-18360841D01*
X21056182Y-18360841D02*
X21056182Y-18322746D01*
X21056182Y-18322746D02*
X21046658Y-18275127D01*
X21046658Y-18275127D02*
X21037134Y-18246555D01*
X21037134Y-18246555D02*
X21027611Y-18227508D01*
X21027611Y-18227508D02*
X21008563Y-18198936D01*
X21008563Y-18198936D02*
X20999039Y-18189412D01*
D12*
X16003500Y-18560500D02*
X16003500Y-18620500D01*
X15973500Y-18590500D02*
X16033500Y-18590500D01*
D11*
X16332372Y-18481984D02*
X16351420Y-18481984D01*
X16351420Y-18481984D02*
X16370467Y-18491508D01*
X16370467Y-18491508D02*
X16379991Y-18501031D01*
X16379991Y-18501031D02*
X16389515Y-18520079D01*
X16389515Y-18520079D02*
X16399039Y-18558174D01*
X16399039Y-18558174D02*
X16399039Y-18605793D01*
X16399039Y-18605793D02*
X16389515Y-18643889D01*
X16389515Y-18643889D02*
X16379991Y-18662936D01*
X16379991Y-18662936D02*
X16370467Y-18672460D01*
X16370467Y-18672460D02*
X16351420Y-18681984D01*
X16351420Y-18681984D02*
X16332372Y-18681984D01*
X16332372Y-18681984D02*
X16313324Y-18672460D01*
X16313324Y-18672460D02*
X16303801Y-18662936D01*
X16303801Y-18662936D02*
X16294277Y-18643889D01*
X16294277Y-18643889D02*
X16284753Y-18605793D01*
X16284753Y-18605793D02*
X16284753Y-18558174D01*
X16284753Y-18558174D02*
X16294277Y-18520079D01*
X16294277Y-18520079D02*
X16303801Y-18501031D01*
X16303801Y-18501031D02*
X16313324Y-18491508D01*
X16313324Y-18491508D02*
X16332372Y-18481984D01*
X16484753Y-18662936D02*
X16494277Y-18672460D01*
X16494277Y-18672460D02*
X16484753Y-18681984D01*
X16484753Y-18681984D02*
X16475229Y-18672460D01*
X16475229Y-18672460D02*
X16484753Y-18662936D01*
X16484753Y-18662936D02*
X16484753Y-18681984D01*
X16665705Y-18481984D02*
X16627610Y-18481984D01*
X16627610Y-18481984D02*
X16608562Y-18491508D01*
X16608562Y-18491508D02*
X16599039Y-18501031D01*
X16599039Y-18501031D02*
X16579991Y-18529603D01*
X16579991Y-18529603D02*
X16570467Y-18567698D01*
X16570467Y-18567698D02*
X16570467Y-18643889D01*
X16570467Y-18643889D02*
X16579991Y-18662936D01*
X16579991Y-18662936D02*
X16589515Y-18672460D01*
X16589515Y-18672460D02*
X16608562Y-18681984D01*
X16608562Y-18681984D02*
X16646658Y-18681984D01*
X16646658Y-18681984D02*
X16665705Y-18672460D01*
X16665705Y-18672460D02*
X16675229Y-18662936D01*
X16675229Y-18662936D02*
X16684753Y-18643889D01*
X16684753Y-18643889D02*
X16684753Y-18596270D01*
X16684753Y-18596270D02*
X16675229Y-18577222D01*
X16675229Y-18577222D02*
X16665705Y-18567698D01*
X16665705Y-18567698D02*
X16646658Y-18558174D01*
X16646658Y-18558174D02*
X16608562Y-18558174D01*
X16608562Y-18558174D02*
X16589515Y-18567698D01*
X16589515Y-18567698D02*
X16579991Y-18577222D01*
X16579991Y-18577222D02*
X16570467Y-18596270D01*
X16808563Y-18481984D02*
X16827610Y-18481984D01*
X16827610Y-18481984D02*
X16846658Y-18491508D01*
X16846658Y-18491508D02*
X16856182Y-18501031D01*
X16856182Y-18501031D02*
X16865705Y-18520079D01*
X16865705Y-18520079D02*
X16875229Y-18558174D01*
X16875229Y-18558174D02*
X16875229Y-18605793D01*
X16875229Y-18605793D02*
X16865705Y-18643889D01*
X16865705Y-18643889D02*
X16856182Y-18662936D01*
X16856182Y-18662936D02*
X16846658Y-18672460D01*
X16846658Y-18672460D02*
X16827610Y-18681984D01*
X16827610Y-18681984D02*
X16808563Y-18681984D01*
X16808563Y-18681984D02*
X16789515Y-18672460D01*
X16789515Y-18672460D02*
X16779991Y-18662936D01*
X16779991Y-18662936D02*
X16770467Y-18643889D01*
X16770467Y-18643889D02*
X16760943Y-18605793D01*
X16760943Y-18605793D02*
X16760943Y-18558174D01*
X16760943Y-18558174D02*
X16770467Y-18520079D01*
X16770467Y-18520079D02*
X16779991Y-18501031D01*
X16779991Y-18501031D02*
X16789515Y-18491508D01*
X16789515Y-18491508D02*
X16808563Y-18481984D01*
X16999039Y-18481984D02*
X17018086Y-18481984D01*
X17018086Y-18481984D02*
X17037134Y-18491508D01*
X17037134Y-18491508D02*
X17046658Y-18501031D01*
X17046658Y-18501031D02*
X17056182Y-18520079D01*
X17056182Y-18520079D02*
X17065705Y-18558174D01*
X17065705Y-18558174D02*
X17065705Y-18605793D01*
X17065705Y-18605793D02*
X17056182Y-18643889D01*
X17056182Y-18643889D02*
X17046658Y-18662936D01*
X17046658Y-18662936D02*
X17037134Y-18672460D01*
X17037134Y-18672460D02*
X17018086Y-18681984D01*
X17018086Y-18681984D02*
X16999039Y-18681984D01*
X16999039Y-18681984D02*
X16979991Y-18672460D01*
X16979991Y-18672460D02*
X16970467Y-18662936D01*
X16970467Y-18662936D02*
X16960944Y-18643889D01*
X16960944Y-18643889D02*
X16951420Y-18605793D01*
X16951420Y-18605793D02*
X16951420Y-18558174D01*
X16951420Y-18558174D02*
X16960944Y-18520079D01*
X16960944Y-18520079D02*
X16970467Y-18501031D01*
X16970467Y-18501031D02*
X16979991Y-18491508D01*
X16979991Y-18491508D02*
X16999039Y-18481984D01*
X17151420Y-18681984D02*
X17151420Y-18548650D01*
X17151420Y-18567698D02*
X17160944Y-18558174D01*
X17160944Y-18558174D02*
X17179991Y-18548650D01*
X17179991Y-18548650D02*
X17208563Y-18548650D01*
X17208563Y-18548650D02*
X17227610Y-18558174D01*
X17227610Y-18558174D02*
X17237134Y-18577222D01*
X17237134Y-18577222D02*
X17237134Y-18681984D01*
X17237134Y-18577222D02*
X17246658Y-18558174D01*
X17246658Y-18558174D02*
X17265705Y-18548650D01*
X17265705Y-18548650D02*
X17294277Y-18548650D01*
X17294277Y-18548650D02*
X17313325Y-18558174D01*
X17313325Y-18558174D02*
X17322848Y-18577222D01*
X17322848Y-18577222D02*
X17322848Y-18681984D01*
X17418086Y-18681984D02*
X17418086Y-18548650D01*
X17418086Y-18567698D02*
X17427610Y-18558174D01*
X17427610Y-18558174D02*
X17446658Y-18548650D01*
X17446658Y-18548650D02*
X17475229Y-18548650D01*
X17475229Y-18548650D02*
X17494277Y-18558174D01*
X17494277Y-18558174D02*
X17503801Y-18577222D01*
X17503801Y-18577222D02*
X17503801Y-18681984D01*
X17503801Y-18577222D02*
X17513325Y-18558174D01*
X17513325Y-18558174D02*
X17532372Y-18548650D01*
X17532372Y-18548650D02*
X17560944Y-18548650D01*
X17560944Y-18548650D02*
X17579991Y-18558174D01*
X17579991Y-18558174D02*
X17589515Y-18577222D01*
X17589515Y-18577222D02*
X17589515Y-18681984D01*
X17979991Y-18472460D02*
X17808563Y-18729603D01*
X18237134Y-18481984D02*
X18256182Y-18481984D01*
X18256182Y-18481984D02*
X18275229Y-18491508D01*
X18275229Y-18491508D02*
X18284753Y-18501031D01*
X18284753Y-18501031D02*
X18294277Y-18520079D01*
X18294277Y-18520079D02*
X18303801Y-18558174D01*
X18303801Y-18558174D02*
X18303801Y-18605793D01*
X18303801Y-18605793D02*
X18294277Y-18643889D01*
X18294277Y-18643889D02*
X18284753Y-18662936D01*
X18284753Y-18662936D02*
X18275229Y-18672460D01*
X18275229Y-18672460D02*
X18256182Y-18681984D01*
X18256182Y-18681984D02*
X18237134Y-18681984D01*
X18237134Y-18681984D02*
X18218087Y-18672460D01*
X18218087Y-18672460D02*
X18208563Y-18662936D01*
X18208563Y-18662936D02*
X18199039Y-18643889D01*
X18199039Y-18643889D02*
X18189515Y-18605793D01*
X18189515Y-18605793D02*
X18189515Y-18558174D01*
X18189515Y-18558174D02*
X18199039Y-18520079D01*
X18199039Y-18520079D02*
X18208563Y-18501031D01*
X18208563Y-18501031D02*
X18218087Y-18491508D01*
X18218087Y-18491508D02*
X18237134Y-18481984D01*
X18389515Y-18662936D02*
X18399039Y-18672460D01*
X18399039Y-18672460D02*
X18389515Y-18681984D01*
X18389515Y-18681984D02*
X18379991Y-18672460D01*
X18379991Y-18672460D02*
X18389515Y-18662936D01*
X18389515Y-18662936D02*
X18389515Y-18681984D01*
X18522848Y-18481984D02*
X18541896Y-18481984D01*
X18541896Y-18481984D02*
X18560944Y-18491508D01*
X18560944Y-18491508D02*
X18570468Y-18501031D01*
X18570468Y-18501031D02*
X18579991Y-18520079D01*
X18579991Y-18520079D02*
X18589515Y-18558174D01*
X18589515Y-18558174D02*
X18589515Y-18605793D01*
X18589515Y-18605793D02*
X18579991Y-18643889D01*
X18579991Y-18643889D02*
X18570468Y-18662936D01*
X18570468Y-18662936D02*
X18560944Y-18672460D01*
X18560944Y-18672460D02*
X18541896Y-18681984D01*
X18541896Y-18681984D02*
X18522848Y-18681984D01*
X18522848Y-18681984D02*
X18503801Y-18672460D01*
X18503801Y-18672460D02*
X18494277Y-18662936D01*
X18494277Y-18662936D02*
X18484753Y-18643889D01*
X18484753Y-18643889D02*
X18475229Y-18605793D01*
X18475229Y-18605793D02*
X18475229Y-18558174D01*
X18475229Y-18558174D02*
X18484753Y-18520079D01*
X18484753Y-18520079D02*
X18494277Y-18501031D01*
X18494277Y-18501031D02*
X18503801Y-18491508D01*
X18503801Y-18491508D02*
X18522848Y-18481984D01*
X18665706Y-18501031D02*
X18675229Y-18491508D01*
X18675229Y-18491508D02*
X18694277Y-18481984D01*
X18694277Y-18481984D02*
X18741896Y-18481984D01*
X18741896Y-18481984D02*
X18760944Y-18491508D01*
X18760944Y-18491508D02*
X18770468Y-18501031D01*
X18770468Y-18501031D02*
X18779991Y-18520079D01*
X18779991Y-18520079D02*
X18779991Y-18539127D01*
X18779991Y-18539127D02*
X18770468Y-18567698D01*
X18770468Y-18567698D02*
X18656182Y-18681984D01*
X18656182Y-18681984D02*
X18779991Y-18681984D01*
X18846658Y-18481984D02*
X18970468Y-18481984D01*
X18970468Y-18481984D02*
X18903801Y-18558174D01*
X18903801Y-18558174D02*
X18932372Y-18558174D01*
X18932372Y-18558174D02*
X18951420Y-18567698D01*
X18951420Y-18567698D02*
X18960944Y-18577222D01*
X18960944Y-18577222D02*
X18970468Y-18596270D01*
X18970468Y-18596270D02*
X18970468Y-18643889D01*
X18970468Y-18643889D02*
X18960944Y-18662936D01*
X18960944Y-18662936D02*
X18951420Y-18672460D01*
X18951420Y-18672460D02*
X18932372Y-18681984D01*
X18932372Y-18681984D02*
X18875229Y-18681984D01*
X18875229Y-18681984D02*
X18856182Y-18672460D01*
X18856182Y-18672460D02*
X18846658Y-18662936D01*
X19141896Y-18481984D02*
X19103801Y-18481984D01*
X19103801Y-18481984D02*
X19084753Y-18491508D01*
X19084753Y-18491508D02*
X19075229Y-18501031D01*
X19075229Y-18501031D02*
X19056182Y-18529603D01*
X19056182Y-18529603D02*
X19046658Y-18567698D01*
X19046658Y-18567698D02*
X19046658Y-18643889D01*
X19046658Y-18643889D02*
X19056182Y-18662936D01*
X19056182Y-18662936D02*
X19065706Y-18672460D01*
X19065706Y-18672460D02*
X19084753Y-18681984D01*
X19084753Y-18681984D02*
X19122849Y-18681984D01*
X19122849Y-18681984D02*
X19141896Y-18672460D01*
X19141896Y-18672460D02*
X19151420Y-18662936D01*
X19151420Y-18662936D02*
X19160944Y-18643889D01*
X19160944Y-18643889D02*
X19160944Y-18596270D01*
X19160944Y-18596270D02*
X19151420Y-18577222D01*
X19151420Y-18577222D02*
X19141896Y-18567698D01*
X19141896Y-18567698D02*
X19122849Y-18558174D01*
X19122849Y-18558174D02*
X19084753Y-18558174D01*
X19084753Y-18558174D02*
X19065706Y-18567698D01*
X19065706Y-18567698D02*
X19056182Y-18577222D01*
X19056182Y-18577222D02*
X19046658Y-18596270D01*
X19237134Y-18481984D02*
X19237134Y-18520079D01*
X19313325Y-18481984D02*
X19313325Y-18520079D01*
X19608563Y-18758174D02*
X19599039Y-18748650D01*
X19599039Y-18748650D02*
X19579991Y-18720079D01*
X19579991Y-18720079D02*
X19570468Y-18701031D01*
X19570468Y-18701031D02*
X19560944Y-18672460D01*
X19560944Y-18672460D02*
X19551420Y-18624841D01*
X19551420Y-18624841D02*
X19551420Y-18586746D01*
X19551420Y-18586746D02*
X19560944Y-18539127D01*
X19560944Y-18539127D02*
X19570468Y-18510555D01*
X19570468Y-18510555D02*
X19579991Y-18491508D01*
X19579991Y-18491508D02*
X19599039Y-18462936D01*
X19599039Y-18462936D02*
X19608563Y-18453412D01*
X19722849Y-18481984D02*
X19741896Y-18481984D01*
X19741896Y-18481984D02*
X19760944Y-18491508D01*
X19760944Y-18491508D02*
X19770468Y-18501031D01*
X19770468Y-18501031D02*
X19779991Y-18520079D01*
X19779991Y-18520079D02*
X19789515Y-18558174D01*
X19789515Y-18558174D02*
X19789515Y-18605793D01*
X19789515Y-18605793D02*
X19779991Y-18643889D01*
X19779991Y-18643889D02*
X19770468Y-18662936D01*
X19770468Y-18662936D02*
X19760944Y-18672460D01*
X19760944Y-18672460D02*
X19741896Y-18681984D01*
X19741896Y-18681984D02*
X19722849Y-18681984D01*
X19722849Y-18681984D02*
X19703801Y-18672460D01*
X19703801Y-18672460D02*
X19694277Y-18662936D01*
X19694277Y-18662936D02*
X19684753Y-18643889D01*
X19684753Y-18643889D02*
X19675230Y-18605793D01*
X19675230Y-18605793D02*
X19675230Y-18558174D01*
X19675230Y-18558174D02*
X19684753Y-18520079D01*
X19684753Y-18520079D02*
X19694277Y-18501031D01*
X19694277Y-18501031D02*
X19703801Y-18491508D01*
X19703801Y-18491508D02*
X19722849Y-18481984D01*
X20027611Y-18681984D02*
X20027611Y-18481984D01*
X20113325Y-18681984D02*
X20113325Y-18577222D01*
X20113325Y-18577222D02*
X20103801Y-18558174D01*
X20103801Y-18558174D02*
X20084753Y-18548650D01*
X20084753Y-18548650D02*
X20056182Y-18548650D01*
X20056182Y-18548650D02*
X20037134Y-18558174D01*
X20037134Y-18558174D02*
X20027611Y-18567698D01*
X20237134Y-18681984D02*
X20218087Y-18672460D01*
X20218087Y-18672460D02*
X20208563Y-18662936D01*
X20208563Y-18662936D02*
X20199039Y-18643889D01*
X20199039Y-18643889D02*
X20199039Y-18586746D01*
X20199039Y-18586746D02*
X20208563Y-18567698D01*
X20208563Y-18567698D02*
X20218087Y-18558174D01*
X20218087Y-18558174D02*
X20237134Y-18548650D01*
X20237134Y-18548650D02*
X20265706Y-18548650D01*
X20265706Y-18548650D02*
X20284753Y-18558174D01*
X20284753Y-18558174D02*
X20294277Y-18567698D01*
X20294277Y-18567698D02*
X20303801Y-18586746D01*
X20303801Y-18586746D02*
X20303801Y-18643889D01*
X20303801Y-18643889D02*
X20294277Y-18662936D01*
X20294277Y-18662936D02*
X20284753Y-18672460D01*
X20284753Y-18672460D02*
X20265706Y-18681984D01*
X20265706Y-18681984D02*
X20237134Y-18681984D01*
X20418087Y-18681984D02*
X20399039Y-18672460D01*
X20399039Y-18672460D02*
X20389515Y-18653412D01*
X20389515Y-18653412D02*
X20389515Y-18481984D01*
X20570468Y-18672460D02*
X20551420Y-18681984D01*
X20551420Y-18681984D02*
X20513325Y-18681984D01*
X20513325Y-18681984D02*
X20494277Y-18672460D01*
X20494277Y-18672460D02*
X20484753Y-18653412D01*
X20484753Y-18653412D02*
X20484753Y-18577222D01*
X20484753Y-18577222D02*
X20494277Y-18558174D01*
X20494277Y-18558174D02*
X20513325Y-18548650D01*
X20513325Y-18548650D02*
X20551420Y-18548650D01*
X20551420Y-18548650D02*
X20570468Y-18558174D01*
X20570468Y-18558174D02*
X20579992Y-18577222D01*
X20579992Y-18577222D02*
X20579992Y-18596270D01*
X20579992Y-18596270D02*
X20484753Y-18615317D01*
X20656182Y-18672460D02*
X20675230Y-18681984D01*
X20675230Y-18681984D02*
X20713325Y-18681984D01*
X20713325Y-18681984D02*
X20732373Y-18672460D01*
X20732373Y-18672460D02*
X20741896Y-18653412D01*
X20741896Y-18653412D02*
X20741896Y-18643889D01*
X20741896Y-18643889D02*
X20732373Y-18624841D01*
X20732373Y-18624841D02*
X20713325Y-18615317D01*
X20713325Y-18615317D02*
X20684753Y-18615317D01*
X20684753Y-18615317D02*
X20665706Y-18605793D01*
X20665706Y-18605793D02*
X20656182Y-18586746D01*
X20656182Y-18586746D02*
X20656182Y-18577222D01*
X20656182Y-18577222D02*
X20665706Y-18558174D01*
X20665706Y-18558174D02*
X20684753Y-18548650D01*
X20684753Y-18548650D02*
X20713325Y-18548650D01*
X20713325Y-18548650D02*
X20732373Y-18558174D01*
X20979992Y-18605793D02*
X21132373Y-18605793D01*
X21056182Y-18681984D02*
X21056182Y-18529603D01*
X21370468Y-18501031D02*
X21379992Y-18491508D01*
X21379992Y-18491508D02*
X21399039Y-18481984D01*
X21399039Y-18481984D02*
X21446658Y-18481984D01*
X21446658Y-18481984D02*
X21465706Y-18491508D01*
X21465706Y-18491508D02*
X21475230Y-18501031D01*
X21475230Y-18501031D02*
X21484754Y-18520079D01*
X21484754Y-18520079D02*
X21484754Y-18539127D01*
X21484754Y-18539127D02*
X21475230Y-18567698D01*
X21475230Y-18567698D02*
X21360944Y-18681984D01*
X21360944Y-18681984D02*
X21484754Y-18681984D01*
X21713325Y-18672460D02*
X21732373Y-18681984D01*
X21732373Y-18681984D02*
X21770468Y-18681984D01*
X21770468Y-18681984D02*
X21789516Y-18672460D01*
X21789516Y-18672460D02*
X21799039Y-18653412D01*
X21799039Y-18653412D02*
X21799039Y-18643889D01*
X21799039Y-18643889D02*
X21789516Y-18624841D01*
X21789516Y-18624841D02*
X21770468Y-18615317D01*
X21770468Y-18615317D02*
X21741896Y-18615317D01*
X21741896Y-18615317D02*
X21722849Y-18605793D01*
X21722849Y-18605793D02*
X21713325Y-18586746D01*
X21713325Y-18586746D02*
X21713325Y-18577222D01*
X21713325Y-18577222D02*
X21722849Y-18558174D01*
X21722849Y-18558174D02*
X21741896Y-18548650D01*
X21741896Y-18548650D02*
X21770468Y-18548650D01*
X21770468Y-18548650D02*
X21789516Y-18558174D01*
X21913325Y-18681984D02*
X21894277Y-18672460D01*
X21894277Y-18672460D02*
X21884754Y-18653412D01*
X21884754Y-18653412D02*
X21884754Y-18481984D01*
X22018087Y-18681984D02*
X21999039Y-18672460D01*
X21999039Y-18672460D02*
X21989516Y-18662936D01*
X21989516Y-18662936D02*
X21979992Y-18643889D01*
X21979992Y-18643889D02*
X21979992Y-18586746D01*
X21979992Y-18586746D02*
X21989516Y-18567698D01*
X21989516Y-18567698D02*
X21999039Y-18558174D01*
X21999039Y-18558174D02*
X22018087Y-18548650D01*
X22018087Y-18548650D02*
X22046658Y-18548650D01*
X22046658Y-18548650D02*
X22065706Y-18558174D01*
X22065706Y-18558174D02*
X22075230Y-18567698D01*
X22075230Y-18567698D02*
X22084754Y-18586746D01*
X22084754Y-18586746D02*
X22084754Y-18643889D01*
X22084754Y-18643889D02*
X22075230Y-18662936D01*
X22075230Y-18662936D02*
X22065706Y-18672460D01*
X22065706Y-18672460D02*
X22046658Y-18681984D01*
X22046658Y-18681984D02*
X22018087Y-18681984D01*
X22141897Y-18548650D02*
X22218087Y-18548650D01*
X22170468Y-18481984D02*
X22170468Y-18653412D01*
X22170468Y-18653412D02*
X22179992Y-18672460D01*
X22179992Y-18672460D02*
X22199039Y-18681984D01*
X22199039Y-18681984D02*
X22218087Y-18681984D01*
X22275230Y-18672460D02*
X22294277Y-18681984D01*
X22294277Y-18681984D02*
X22332373Y-18681984D01*
X22332373Y-18681984D02*
X22351420Y-18672460D01*
X22351420Y-18672460D02*
X22360944Y-18653412D01*
X22360944Y-18653412D02*
X22360944Y-18643889D01*
X22360944Y-18643889D02*
X22351420Y-18624841D01*
X22351420Y-18624841D02*
X22332373Y-18615317D01*
X22332373Y-18615317D02*
X22303801Y-18615317D01*
X22303801Y-18615317D02*
X22284754Y-18605793D01*
X22284754Y-18605793D02*
X22275230Y-18586746D01*
X22275230Y-18586746D02*
X22275230Y-18577222D01*
X22275230Y-18577222D02*
X22284754Y-18558174D01*
X22284754Y-18558174D02*
X22303801Y-18548650D01*
X22303801Y-18548650D02*
X22332373Y-18548650D01*
X22332373Y-18548650D02*
X22351420Y-18558174D01*
X22427611Y-18758174D02*
X22437135Y-18748650D01*
X22437135Y-18748650D02*
X22456182Y-18720079D01*
X22456182Y-18720079D02*
X22465706Y-18701031D01*
X22465706Y-18701031D02*
X22475230Y-18672460D01*
X22475230Y-18672460D02*
X22484754Y-18624841D01*
X22484754Y-18624841D02*
X22484754Y-18586746D01*
X22484754Y-18586746D02*
X22475230Y-18539127D01*
X22475230Y-18539127D02*
X22465706Y-18510555D01*
X22465706Y-18510555D02*
X22456182Y-18491508D01*
X22456182Y-18491508D02*
X22437135Y-18462936D01*
X22437135Y-18462936D02*
X22427611Y-18453412D01*
D12*
X16021784Y-18882785D02*
X16021784Y-18826216D01*
X15965215Y-18826216D01*
X15965215Y-18882785D01*
X16021784Y-18882785D01*
D11*
X16332372Y-18745984D02*
X16351420Y-18745984D01*
X16351420Y-18745984D02*
X16370467Y-18755508D01*
X16370467Y-18755508D02*
X16379991Y-18765031D01*
X16379991Y-18765031D02*
X16389515Y-18784079D01*
X16389515Y-18784079D02*
X16399039Y-18822174D01*
X16399039Y-18822174D02*
X16399039Y-18869793D01*
X16399039Y-18869793D02*
X16389515Y-18907889D01*
X16389515Y-18907889D02*
X16379991Y-18926936D01*
X16379991Y-18926936D02*
X16370467Y-18936460D01*
X16370467Y-18936460D02*
X16351420Y-18945984D01*
X16351420Y-18945984D02*
X16332372Y-18945984D01*
X16332372Y-18945984D02*
X16313324Y-18936460D01*
X16313324Y-18936460D02*
X16303801Y-18926936D01*
X16303801Y-18926936D02*
X16294277Y-18907889D01*
X16294277Y-18907889D02*
X16284753Y-18869793D01*
X16284753Y-18869793D02*
X16284753Y-18822174D01*
X16284753Y-18822174D02*
X16294277Y-18784079D01*
X16294277Y-18784079D02*
X16303801Y-18765031D01*
X16303801Y-18765031D02*
X16313324Y-18755508D01*
X16313324Y-18755508D02*
X16332372Y-18745984D01*
X16484753Y-18926936D02*
X16494277Y-18936460D01*
X16494277Y-18936460D02*
X16484753Y-18945984D01*
X16484753Y-18945984D02*
X16475229Y-18936460D01*
X16475229Y-18936460D02*
X16484753Y-18926936D01*
X16484753Y-18926936D02*
X16484753Y-18945984D01*
X16608562Y-18831698D02*
X16589515Y-18822174D01*
X16589515Y-18822174D02*
X16579991Y-18812650D01*
X16579991Y-18812650D02*
X16570467Y-18793603D01*
X16570467Y-18793603D02*
X16570467Y-18784079D01*
X16570467Y-18784079D02*
X16579991Y-18765031D01*
X16579991Y-18765031D02*
X16589515Y-18755508D01*
X16589515Y-18755508D02*
X16608562Y-18745984D01*
X16608562Y-18745984D02*
X16646658Y-18745984D01*
X16646658Y-18745984D02*
X16665705Y-18755508D01*
X16665705Y-18755508D02*
X16675229Y-18765031D01*
X16675229Y-18765031D02*
X16684753Y-18784079D01*
X16684753Y-18784079D02*
X16684753Y-18793603D01*
X16684753Y-18793603D02*
X16675229Y-18812650D01*
X16675229Y-18812650D02*
X16665705Y-18822174D01*
X16665705Y-18822174D02*
X16646658Y-18831698D01*
X16646658Y-18831698D02*
X16608562Y-18831698D01*
X16608562Y-18831698D02*
X16589515Y-18841222D01*
X16589515Y-18841222D02*
X16579991Y-18850746D01*
X16579991Y-18850746D02*
X16570467Y-18869793D01*
X16570467Y-18869793D02*
X16570467Y-18907889D01*
X16570467Y-18907889D02*
X16579991Y-18926936D01*
X16579991Y-18926936D02*
X16589515Y-18936460D01*
X16589515Y-18936460D02*
X16608562Y-18945984D01*
X16608562Y-18945984D02*
X16646658Y-18945984D01*
X16646658Y-18945984D02*
X16665705Y-18936460D01*
X16665705Y-18936460D02*
X16675229Y-18926936D01*
X16675229Y-18926936D02*
X16684753Y-18907889D01*
X16684753Y-18907889D02*
X16684753Y-18869793D01*
X16684753Y-18869793D02*
X16675229Y-18850746D01*
X16675229Y-18850746D02*
X16665705Y-18841222D01*
X16665705Y-18841222D02*
X16646658Y-18831698D01*
X16808563Y-18745984D02*
X16827610Y-18745984D01*
X16827610Y-18745984D02*
X16846658Y-18755508D01*
X16846658Y-18755508D02*
X16856182Y-18765031D01*
X16856182Y-18765031D02*
X16865705Y-18784079D01*
X16865705Y-18784079D02*
X16875229Y-18822174D01*
X16875229Y-18822174D02*
X16875229Y-18869793D01*
X16875229Y-18869793D02*
X16865705Y-18907889D01*
X16865705Y-18907889D02*
X16856182Y-18926936D01*
X16856182Y-18926936D02*
X16846658Y-18936460D01*
X16846658Y-18936460D02*
X16827610Y-18945984D01*
X16827610Y-18945984D02*
X16808563Y-18945984D01*
X16808563Y-18945984D02*
X16789515Y-18936460D01*
X16789515Y-18936460D02*
X16779991Y-18926936D01*
X16779991Y-18926936D02*
X16770467Y-18907889D01*
X16770467Y-18907889D02*
X16760943Y-18869793D01*
X16760943Y-18869793D02*
X16760943Y-18822174D01*
X16760943Y-18822174D02*
X16770467Y-18784079D01*
X16770467Y-18784079D02*
X16779991Y-18765031D01*
X16779991Y-18765031D02*
X16789515Y-18755508D01*
X16789515Y-18755508D02*
X16808563Y-18745984D01*
X16999039Y-18745984D02*
X17018086Y-18745984D01*
X17018086Y-18745984D02*
X17037134Y-18755508D01*
X17037134Y-18755508D02*
X17046658Y-18765031D01*
X17046658Y-18765031D02*
X17056182Y-18784079D01*
X17056182Y-18784079D02*
X17065705Y-18822174D01*
X17065705Y-18822174D02*
X17065705Y-18869793D01*
X17065705Y-18869793D02*
X17056182Y-18907889D01*
X17056182Y-18907889D02*
X17046658Y-18926936D01*
X17046658Y-18926936D02*
X17037134Y-18936460D01*
X17037134Y-18936460D02*
X17018086Y-18945984D01*
X17018086Y-18945984D02*
X16999039Y-18945984D01*
X16999039Y-18945984D02*
X16979991Y-18936460D01*
X16979991Y-18936460D02*
X16970467Y-18926936D01*
X16970467Y-18926936D02*
X16960944Y-18907889D01*
X16960944Y-18907889D02*
X16951420Y-18869793D01*
X16951420Y-18869793D02*
X16951420Y-18822174D01*
X16951420Y-18822174D02*
X16960944Y-18784079D01*
X16960944Y-18784079D02*
X16970467Y-18765031D01*
X16970467Y-18765031D02*
X16979991Y-18755508D01*
X16979991Y-18755508D02*
X16999039Y-18745984D01*
X17151420Y-18945984D02*
X17151420Y-18812650D01*
X17151420Y-18831698D02*
X17160944Y-18822174D01*
X17160944Y-18822174D02*
X17179991Y-18812650D01*
X17179991Y-18812650D02*
X17208563Y-18812650D01*
X17208563Y-18812650D02*
X17227610Y-18822174D01*
X17227610Y-18822174D02*
X17237134Y-18841222D01*
X17237134Y-18841222D02*
X17237134Y-18945984D01*
X17237134Y-18841222D02*
X17246658Y-18822174D01*
X17246658Y-18822174D02*
X17265705Y-18812650D01*
X17265705Y-18812650D02*
X17294277Y-18812650D01*
X17294277Y-18812650D02*
X17313325Y-18822174D01*
X17313325Y-18822174D02*
X17322848Y-18841222D01*
X17322848Y-18841222D02*
X17322848Y-18945984D01*
X17418086Y-18945984D02*
X17418086Y-18812650D01*
X17418086Y-18831698D02*
X17427610Y-18822174D01*
X17427610Y-18822174D02*
X17446658Y-18812650D01*
X17446658Y-18812650D02*
X17475229Y-18812650D01*
X17475229Y-18812650D02*
X17494277Y-18822174D01*
X17494277Y-18822174D02*
X17503801Y-18841222D01*
X17503801Y-18841222D02*
X17503801Y-18945984D01*
X17503801Y-18841222D02*
X17513325Y-18822174D01*
X17513325Y-18822174D02*
X17532372Y-18812650D01*
X17532372Y-18812650D02*
X17560944Y-18812650D01*
X17560944Y-18812650D02*
X17579991Y-18822174D01*
X17579991Y-18822174D02*
X17589515Y-18841222D01*
X17589515Y-18841222D02*
X17589515Y-18945984D01*
X17979991Y-18736460D02*
X17808563Y-18993603D01*
X18237134Y-18745984D02*
X18256182Y-18745984D01*
X18256182Y-18745984D02*
X18275229Y-18755508D01*
X18275229Y-18755508D02*
X18284753Y-18765031D01*
X18284753Y-18765031D02*
X18294277Y-18784079D01*
X18294277Y-18784079D02*
X18303801Y-18822174D01*
X18303801Y-18822174D02*
X18303801Y-18869793D01*
X18303801Y-18869793D02*
X18294277Y-18907889D01*
X18294277Y-18907889D02*
X18284753Y-18926936D01*
X18284753Y-18926936D02*
X18275229Y-18936460D01*
X18275229Y-18936460D02*
X18256182Y-18945984D01*
X18256182Y-18945984D02*
X18237134Y-18945984D01*
X18237134Y-18945984D02*
X18218087Y-18936460D01*
X18218087Y-18936460D02*
X18208563Y-18926936D01*
X18208563Y-18926936D02*
X18199039Y-18907889D01*
X18199039Y-18907889D02*
X18189515Y-18869793D01*
X18189515Y-18869793D02*
X18189515Y-18822174D01*
X18189515Y-18822174D02*
X18199039Y-18784079D01*
X18199039Y-18784079D02*
X18208563Y-18765031D01*
X18208563Y-18765031D02*
X18218087Y-18755508D01*
X18218087Y-18755508D02*
X18237134Y-18745984D01*
X18389515Y-18926936D02*
X18399039Y-18936460D01*
X18399039Y-18936460D02*
X18389515Y-18945984D01*
X18389515Y-18945984D02*
X18379991Y-18936460D01*
X18379991Y-18936460D02*
X18389515Y-18926936D01*
X18389515Y-18926936D02*
X18389515Y-18945984D01*
X18522848Y-18745984D02*
X18541896Y-18745984D01*
X18541896Y-18745984D02*
X18560944Y-18755508D01*
X18560944Y-18755508D02*
X18570468Y-18765031D01*
X18570468Y-18765031D02*
X18579991Y-18784079D01*
X18579991Y-18784079D02*
X18589515Y-18822174D01*
X18589515Y-18822174D02*
X18589515Y-18869793D01*
X18589515Y-18869793D02*
X18579991Y-18907889D01*
X18579991Y-18907889D02*
X18570468Y-18926936D01*
X18570468Y-18926936D02*
X18560944Y-18936460D01*
X18560944Y-18936460D02*
X18541896Y-18945984D01*
X18541896Y-18945984D02*
X18522848Y-18945984D01*
X18522848Y-18945984D02*
X18503801Y-18936460D01*
X18503801Y-18936460D02*
X18494277Y-18926936D01*
X18494277Y-18926936D02*
X18484753Y-18907889D01*
X18484753Y-18907889D02*
X18475229Y-18869793D01*
X18475229Y-18869793D02*
X18475229Y-18822174D01*
X18475229Y-18822174D02*
X18484753Y-18784079D01*
X18484753Y-18784079D02*
X18494277Y-18765031D01*
X18494277Y-18765031D02*
X18503801Y-18755508D01*
X18503801Y-18755508D02*
X18522848Y-18745984D01*
X18656182Y-18745984D02*
X18779991Y-18745984D01*
X18779991Y-18745984D02*
X18713325Y-18822174D01*
X18713325Y-18822174D02*
X18741896Y-18822174D01*
X18741896Y-18822174D02*
X18760944Y-18831698D01*
X18760944Y-18831698D02*
X18770468Y-18841222D01*
X18770468Y-18841222D02*
X18779991Y-18860270D01*
X18779991Y-18860270D02*
X18779991Y-18907889D01*
X18779991Y-18907889D02*
X18770468Y-18926936D01*
X18770468Y-18926936D02*
X18760944Y-18936460D01*
X18760944Y-18936460D02*
X18741896Y-18945984D01*
X18741896Y-18945984D02*
X18684753Y-18945984D01*
X18684753Y-18945984D02*
X18665706Y-18936460D01*
X18665706Y-18936460D02*
X18656182Y-18926936D01*
X18970468Y-18945984D02*
X18856182Y-18945984D01*
X18913325Y-18945984D02*
X18913325Y-18745984D01*
X18913325Y-18745984D02*
X18894277Y-18774555D01*
X18894277Y-18774555D02*
X18875229Y-18793603D01*
X18875229Y-18793603D02*
X18856182Y-18803127D01*
X19151420Y-18745984D02*
X19056182Y-18745984D01*
X19056182Y-18745984D02*
X19046658Y-18841222D01*
X19046658Y-18841222D02*
X19056182Y-18831698D01*
X19056182Y-18831698D02*
X19075229Y-18822174D01*
X19075229Y-18822174D02*
X19122849Y-18822174D01*
X19122849Y-18822174D02*
X19141896Y-18831698D01*
X19141896Y-18831698D02*
X19151420Y-18841222D01*
X19151420Y-18841222D02*
X19160944Y-18860270D01*
X19160944Y-18860270D02*
X19160944Y-18907889D01*
X19160944Y-18907889D02*
X19151420Y-18926936D01*
X19151420Y-18926936D02*
X19141896Y-18936460D01*
X19141896Y-18936460D02*
X19122849Y-18945984D01*
X19122849Y-18945984D02*
X19075229Y-18945984D01*
X19075229Y-18945984D02*
X19056182Y-18936460D01*
X19056182Y-18936460D02*
X19046658Y-18926936D01*
X19237134Y-18745984D02*
X19237134Y-18784079D01*
X19313325Y-18745984D02*
X19313325Y-18784079D01*
X19608563Y-19022174D02*
X19599039Y-19012650D01*
X19599039Y-19012650D02*
X19579991Y-18984079D01*
X19579991Y-18984079D02*
X19570468Y-18965031D01*
X19570468Y-18965031D02*
X19560944Y-18936460D01*
X19560944Y-18936460D02*
X19551420Y-18888841D01*
X19551420Y-18888841D02*
X19551420Y-18850746D01*
X19551420Y-18850746D02*
X19560944Y-18803127D01*
X19560944Y-18803127D02*
X19570468Y-18774555D01*
X19570468Y-18774555D02*
X19579991Y-18755508D01*
X19579991Y-18755508D02*
X19599039Y-18726936D01*
X19599039Y-18726936D02*
X19608563Y-18717412D01*
X19722849Y-18745984D02*
X19741896Y-18745984D01*
X19741896Y-18745984D02*
X19760944Y-18755508D01*
X19760944Y-18755508D02*
X19770468Y-18765031D01*
X19770468Y-18765031D02*
X19779991Y-18784079D01*
X19779991Y-18784079D02*
X19789515Y-18822174D01*
X19789515Y-18822174D02*
X19789515Y-18869793D01*
X19789515Y-18869793D02*
X19779991Y-18907889D01*
X19779991Y-18907889D02*
X19770468Y-18926936D01*
X19770468Y-18926936D02*
X19760944Y-18936460D01*
X19760944Y-18936460D02*
X19741896Y-18945984D01*
X19741896Y-18945984D02*
X19722849Y-18945984D01*
X19722849Y-18945984D02*
X19703801Y-18936460D01*
X19703801Y-18936460D02*
X19694277Y-18926936D01*
X19694277Y-18926936D02*
X19684753Y-18907889D01*
X19684753Y-18907889D02*
X19675230Y-18869793D01*
X19675230Y-18869793D02*
X19675230Y-18822174D01*
X19675230Y-18822174D02*
X19684753Y-18784079D01*
X19684753Y-18784079D02*
X19694277Y-18765031D01*
X19694277Y-18765031D02*
X19703801Y-18755508D01*
X19703801Y-18755508D02*
X19722849Y-18745984D01*
X20027611Y-18945984D02*
X20027611Y-18745984D01*
X20113325Y-18945984D02*
X20113325Y-18841222D01*
X20113325Y-18841222D02*
X20103801Y-18822174D01*
X20103801Y-18822174D02*
X20084753Y-18812650D01*
X20084753Y-18812650D02*
X20056182Y-18812650D01*
X20056182Y-18812650D02*
X20037134Y-18822174D01*
X20037134Y-18822174D02*
X20027611Y-18831698D01*
X20237134Y-18945984D02*
X20218087Y-18936460D01*
X20218087Y-18936460D02*
X20208563Y-18926936D01*
X20208563Y-18926936D02*
X20199039Y-18907889D01*
X20199039Y-18907889D02*
X20199039Y-18850746D01*
X20199039Y-18850746D02*
X20208563Y-18831698D01*
X20208563Y-18831698D02*
X20218087Y-18822174D01*
X20218087Y-18822174D02*
X20237134Y-18812650D01*
X20237134Y-18812650D02*
X20265706Y-18812650D01*
X20265706Y-18812650D02*
X20284753Y-18822174D01*
X20284753Y-18822174D02*
X20294277Y-18831698D01*
X20294277Y-18831698D02*
X20303801Y-18850746D01*
X20303801Y-18850746D02*
X20303801Y-18907889D01*
X20303801Y-18907889D02*
X20294277Y-18926936D01*
X20294277Y-18926936D02*
X20284753Y-18936460D01*
X20284753Y-18936460D02*
X20265706Y-18945984D01*
X20265706Y-18945984D02*
X20237134Y-18945984D01*
X20418087Y-18945984D02*
X20399039Y-18936460D01*
X20399039Y-18936460D02*
X20389515Y-18917412D01*
X20389515Y-18917412D02*
X20389515Y-18745984D01*
X20570468Y-18936460D02*
X20551420Y-18945984D01*
X20551420Y-18945984D02*
X20513325Y-18945984D01*
X20513325Y-18945984D02*
X20494277Y-18936460D01*
X20494277Y-18936460D02*
X20484753Y-18917412D01*
X20484753Y-18917412D02*
X20484753Y-18841222D01*
X20484753Y-18841222D02*
X20494277Y-18822174D01*
X20494277Y-18822174D02*
X20513325Y-18812650D01*
X20513325Y-18812650D02*
X20551420Y-18812650D01*
X20551420Y-18812650D02*
X20570468Y-18822174D01*
X20570468Y-18822174D02*
X20579992Y-18841222D01*
X20579992Y-18841222D02*
X20579992Y-18860270D01*
X20579992Y-18860270D02*
X20484753Y-18879317D01*
X20656182Y-18936460D02*
X20675230Y-18945984D01*
X20675230Y-18945984D02*
X20713325Y-18945984D01*
X20713325Y-18945984D02*
X20732373Y-18936460D01*
X20732373Y-18936460D02*
X20741896Y-18917412D01*
X20741896Y-18917412D02*
X20741896Y-18907889D01*
X20741896Y-18907889D02*
X20732373Y-18888841D01*
X20732373Y-18888841D02*
X20713325Y-18879317D01*
X20713325Y-18879317D02*
X20684753Y-18879317D01*
X20684753Y-18879317D02*
X20665706Y-18869793D01*
X20665706Y-18869793D02*
X20656182Y-18850746D01*
X20656182Y-18850746D02*
X20656182Y-18841222D01*
X20656182Y-18841222D02*
X20665706Y-18822174D01*
X20665706Y-18822174D02*
X20684753Y-18812650D01*
X20684753Y-18812650D02*
X20713325Y-18812650D01*
X20713325Y-18812650D02*
X20732373Y-18822174D01*
X20979992Y-18869793D02*
X21132373Y-18869793D01*
X21056182Y-18945984D02*
X21056182Y-18793603D01*
X21465706Y-18812650D02*
X21465706Y-18945984D01*
X21418087Y-18736460D02*
X21370468Y-18879317D01*
X21370468Y-18879317D02*
X21494277Y-18879317D01*
X21713325Y-18936460D02*
X21732373Y-18945984D01*
X21732373Y-18945984D02*
X21770468Y-18945984D01*
X21770468Y-18945984D02*
X21789516Y-18936460D01*
X21789516Y-18936460D02*
X21799039Y-18917412D01*
X21799039Y-18917412D02*
X21799039Y-18907889D01*
X21799039Y-18907889D02*
X21789516Y-18888841D01*
X21789516Y-18888841D02*
X21770468Y-18879317D01*
X21770468Y-18879317D02*
X21741896Y-18879317D01*
X21741896Y-18879317D02*
X21722849Y-18869793D01*
X21722849Y-18869793D02*
X21713325Y-18850746D01*
X21713325Y-18850746D02*
X21713325Y-18841222D01*
X21713325Y-18841222D02*
X21722849Y-18822174D01*
X21722849Y-18822174D02*
X21741896Y-18812650D01*
X21741896Y-18812650D02*
X21770468Y-18812650D01*
X21770468Y-18812650D02*
X21789516Y-18822174D01*
X21913325Y-18945984D02*
X21894277Y-18936460D01*
X21894277Y-18936460D02*
X21884754Y-18917412D01*
X21884754Y-18917412D02*
X21884754Y-18745984D01*
X22018087Y-18945984D02*
X21999039Y-18936460D01*
X21999039Y-18936460D02*
X21989516Y-18926936D01*
X21989516Y-18926936D02*
X21979992Y-18907889D01*
X21979992Y-18907889D02*
X21979992Y-18850746D01*
X21979992Y-18850746D02*
X21989516Y-18831698D01*
X21989516Y-18831698D02*
X21999039Y-18822174D01*
X21999039Y-18822174D02*
X22018087Y-18812650D01*
X22018087Y-18812650D02*
X22046658Y-18812650D01*
X22046658Y-18812650D02*
X22065706Y-18822174D01*
X22065706Y-18822174D02*
X22075230Y-18831698D01*
X22075230Y-18831698D02*
X22084754Y-18850746D01*
X22084754Y-18850746D02*
X22084754Y-18907889D01*
X22084754Y-18907889D02*
X22075230Y-18926936D01*
X22075230Y-18926936D02*
X22065706Y-18936460D01*
X22065706Y-18936460D02*
X22046658Y-18945984D01*
X22046658Y-18945984D02*
X22018087Y-18945984D01*
X22141897Y-18812650D02*
X22218087Y-18812650D01*
X22170468Y-18745984D02*
X22170468Y-18917412D01*
X22170468Y-18917412D02*
X22179992Y-18936460D01*
X22179992Y-18936460D02*
X22199039Y-18945984D01*
X22199039Y-18945984D02*
X22218087Y-18945984D01*
X22275230Y-18936460D02*
X22294277Y-18945984D01*
X22294277Y-18945984D02*
X22332373Y-18945984D01*
X22332373Y-18945984D02*
X22351420Y-18936460D01*
X22351420Y-18936460D02*
X22360944Y-18917412D01*
X22360944Y-18917412D02*
X22360944Y-18907889D01*
X22360944Y-18907889D02*
X22351420Y-18888841D01*
X22351420Y-18888841D02*
X22332373Y-18879317D01*
X22332373Y-18879317D02*
X22303801Y-18879317D01*
X22303801Y-18879317D02*
X22284754Y-18869793D01*
X22284754Y-18869793D02*
X22275230Y-18850746D01*
X22275230Y-18850746D02*
X22275230Y-18841222D01*
X22275230Y-18841222D02*
X22284754Y-18822174D01*
X22284754Y-18822174D02*
X22303801Y-18812650D01*
X22303801Y-18812650D02*
X22332373Y-18812650D01*
X22332373Y-18812650D02*
X22351420Y-18822174D01*
X22427611Y-19022174D02*
X22437135Y-19012650D01*
X22437135Y-19012650D02*
X22456182Y-18984079D01*
X22456182Y-18984079D02*
X22465706Y-18965031D01*
X22465706Y-18965031D02*
X22475230Y-18936460D01*
X22475230Y-18936460D02*
X22484754Y-18888841D01*
X22484754Y-18888841D02*
X22484754Y-18850746D01*
X22484754Y-18850746D02*
X22475230Y-18803127D01*
X22475230Y-18803127D02*
X22465706Y-18774555D01*
X22465706Y-18774555D02*
X22456182Y-18755508D01*
X22456182Y-18755508D02*
X22437135Y-18726936D01*
X22437135Y-18726936D02*
X22427611Y-18717412D01*
D13*
X15973500Y-19178500D02*
X16033500Y-19118500D01*
X15973500Y-19058500D01*
X15913500Y-19118500D01*
X15973500Y-19178500D01*
D11*
X16399039Y-19209984D02*
X16284753Y-19209984D01*
X16341896Y-19209984D02*
X16341896Y-19009984D01*
X16341896Y-19009984D02*
X16322848Y-19038555D01*
X16322848Y-19038555D02*
X16303801Y-19057603D01*
X16303801Y-19057603D02*
X16284753Y-19067127D01*
X16484753Y-19190936D02*
X16494277Y-19200460D01*
X16494277Y-19200460D02*
X16484753Y-19209984D01*
X16484753Y-19209984D02*
X16475229Y-19200460D01*
X16475229Y-19200460D02*
X16484753Y-19190936D01*
X16484753Y-19190936D02*
X16484753Y-19209984D01*
X16570467Y-19029031D02*
X16579991Y-19019508D01*
X16579991Y-19019508D02*
X16599039Y-19009984D01*
X16599039Y-19009984D02*
X16646658Y-19009984D01*
X16646658Y-19009984D02*
X16665705Y-19019508D01*
X16665705Y-19019508D02*
X16675229Y-19029031D01*
X16675229Y-19029031D02*
X16684753Y-19048079D01*
X16684753Y-19048079D02*
X16684753Y-19067127D01*
X16684753Y-19067127D02*
X16675229Y-19095698D01*
X16675229Y-19095698D02*
X16560943Y-19209984D01*
X16560943Y-19209984D02*
X16684753Y-19209984D01*
X16808563Y-19009984D02*
X16827610Y-19009984D01*
X16827610Y-19009984D02*
X16846658Y-19019508D01*
X16846658Y-19019508D02*
X16856182Y-19029031D01*
X16856182Y-19029031D02*
X16865705Y-19048079D01*
X16865705Y-19048079D02*
X16875229Y-19086174D01*
X16875229Y-19086174D02*
X16875229Y-19133793D01*
X16875229Y-19133793D02*
X16865705Y-19171889D01*
X16865705Y-19171889D02*
X16856182Y-19190936D01*
X16856182Y-19190936D02*
X16846658Y-19200460D01*
X16846658Y-19200460D02*
X16827610Y-19209984D01*
X16827610Y-19209984D02*
X16808563Y-19209984D01*
X16808563Y-19209984D02*
X16789515Y-19200460D01*
X16789515Y-19200460D02*
X16779991Y-19190936D01*
X16779991Y-19190936D02*
X16770467Y-19171889D01*
X16770467Y-19171889D02*
X16760943Y-19133793D01*
X16760943Y-19133793D02*
X16760943Y-19086174D01*
X16760943Y-19086174D02*
X16770467Y-19048079D01*
X16770467Y-19048079D02*
X16779991Y-19029031D01*
X16779991Y-19029031D02*
X16789515Y-19019508D01*
X16789515Y-19019508D02*
X16808563Y-19009984D01*
X16999039Y-19009984D02*
X17018086Y-19009984D01*
X17018086Y-19009984D02*
X17037134Y-19019508D01*
X17037134Y-19019508D02*
X17046658Y-19029031D01*
X17046658Y-19029031D02*
X17056182Y-19048079D01*
X17056182Y-19048079D02*
X17065705Y-19086174D01*
X17065705Y-19086174D02*
X17065705Y-19133793D01*
X17065705Y-19133793D02*
X17056182Y-19171889D01*
X17056182Y-19171889D02*
X17046658Y-19190936D01*
X17046658Y-19190936D02*
X17037134Y-19200460D01*
X17037134Y-19200460D02*
X17018086Y-19209984D01*
X17018086Y-19209984D02*
X16999039Y-19209984D01*
X16999039Y-19209984D02*
X16979991Y-19200460D01*
X16979991Y-19200460D02*
X16970467Y-19190936D01*
X16970467Y-19190936D02*
X16960944Y-19171889D01*
X16960944Y-19171889D02*
X16951420Y-19133793D01*
X16951420Y-19133793D02*
X16951420Y-19086174D01*
X16951420Y-19086174D02*
X16960944Y-19048079D01*
X16960944Y-19048079D02*
X16970467Y-19029031D01*
X16970467Y-19029031D02*
X16979991Y-19019508D01*
X16979991Y-19019508D02*
X16999039Y-19009984D01*
X17151420Y-19209984D02*
X17151420Y-19076650D01*
X17151420Y-19095698D02*
X17160944Y-19086174D01*
X17160944Y-19086174D02*
X17179991Y-19076650D01*
X17179991Y-19076650D02*
X17208563Y-19076650D01*
X17208563Y-19076650D02*
X17227610Y-19086174D01*
X17227610Y-19086174D02*
X17237134Y-19105222D01*
X17237134Y-19105222D02*
X17237134Y-19209984D01*
X17237134Y-19105222D02*
X17246658Y-19086174D01*
X17246658Y-19086174D02*
X17265705Y-19076650D01*
X17265705Y-19076650D02*
X17294277Y-19076650D01*
X17294277Y-19076650D02*
X17313325Y-19086174D01*
X17313325Y-19086174D02*
X17322848Y-19105222D01*
X17322848Y-19105222D02*
X17322848Y-19209984D01*
X17418086Y-19209984D02*
X17418086Y-19076650D01*
X17418086Y-19095698D02*
X17427610Y-19086174D01*
X17427610Y-19086174D02*
X17446658Y-19076650D01*
X17446658Y-19076650D02*
X17475229Y-19076650D01*
X17475229Y-19076650D02*
X17494277Y-19086174D01*
X17494277Y-19086174D02*
X17503801Y-19105222D01*
X17503801Y-19105222D02*
X17503801Y-19209984D01*
X17503801Y-19105222D02*
X17513325Y-19086174D01*
X17513325Y-19086174D02*
X17532372Y-19076650D01*
X17532372Y-19076650D02*
X17560944Y-19076650D01*
X17560944Y-19076650D02*
X17579991Y-19086174D01*
X17579991Y-19086174D02*
X17589515Y-19105222D01*
X17589515Y-19105222D02*
X17589515Y-19209984D01*
X17979991Y-19000460D02*
X17808563Y-19257603D01*
X18237134Y-19009984D02*
X18256182Y-19009984D01*
X18256182Y-19009984D02*
X18275229Y-19019508D01*
X18275229Y-19019508D02*
X18284753Y-19029031D01*
X18284753Y-19029031D02*
X18294277Y-19048079D01*
X18294277Y-19048079D02*
X18303801Y-19086174D01*
X18303801Y-19086174D02*
X18303801Y-19133793D01*
X18303801Y-19133793D02*
X18294277Y-19171889D01*
X18294277Y-19171889D02*
X18284753Y-19190936D01*
X18284753Y-19190936D02*
X18275229Y-19200460D01*
X18275229Y-19200460D02*
X18256182Y-19209984D01*
X18256182Y-19209984D02*
X18237134Y-19209984D01*
X18237134Y-19209984D02*
X18218087Y-19200460D01*
X18218087Y-19200460D02*
X18208563Y-19190936D01*
X18208563Y-19190936D02*
X18199039Y-19171889D01*
X18199039Y-19171889D02*
X18189515Y-19133793D01*
X18189515Y-19133793D02*
X18189515Y-19086174D01*
X18189515Y-19086174D02*
X18199039Y-19048079D01*
X18199039Y-19048079D02*
X18208563Y-19029031D01*
X18208563Y-19029031D02*
X18218087Y-19019508D01*
X18218087Y-19019508D02*
X18237134Y-19009984D01*
X18389515Y-19190936D02*
X18399039Y-19200460D01*
X18399039Y-19200460D02*
X18389515Y-19209984D01*
X18389515Y-19209984D02*
X18379991Y-19200460D01*
X18379991Y-19200460D02*
X18389515Y-19190936D01*
X18389515Y-19190936D02*
X18389515Y-19209984D01*
X18522848Y-19009984D02*
X18541896Y-19009984D01*
X18541896Y-19009984D02*
X18560944Y-19019508D01*
X18560944Y-19019508D02*
X18570468Y-19029031D01*
X18570468Y-19029031D02*
X18579991Y-19048079D01*
X18579991Y-19048079D02*
X18589515Y-19086174D01*
X18589515Y-19086174D02*
X18589515Y-19133793D01*
X18589515Y-19133793D02*
X18579991Y-19171889D01*
X18579991Y-19171889D02*
X18570468Y-19190936D01*
X18570468Y-19190936D02*
X18560944Y-19200460D01*
X18560944Y-19200460D02*
X18541896Y-19209984D01*
X18541896Y-19209984D02*
X18522848Y-19209984D01*
X18522848Y-19209984D02*
X18503801Y-19200460D01*
X18503801Y-19200460D02*
X18494277Y-19190936D01*
X18494277Y-19190936D02*
X18484753Y-19171889D01*
X18484753Y-19171889D02*
X18475229Y-19133793D01*
X18475229Y-19133793D02*
X18475229Y-19086174D01*
X18475229Y-19086174D02*
X18484753Y-19048079D01*
X18484753Y-19048079D02*
X18494277Y-19029031D01*
X18494277Y-19029031D02*
X18503801Y-19019508D01*
X18503801Y-19019508D02*
X18522848Y-19009984D01*
X18760944Y-19076650D02*
X18760944Y-19209984D01*
X18713325Y-19000460D02*
X18665706Y-19143317D01*
X18665706Y-19143317D02*
X18789515Y-19143317D01*
X18846658Y-19009984D02*
X18979991Y-19009984D01*
X18979991Y-19009984D02*
X18894277Y-19209984D01*
X19046658Y-19029031D02*
X19056182Y-19019508D01*
X19056182Y-19019508D02*
X19075229Y-19009984D01*
X19075229Y-19009984D02*
X19122849Y-19009984D01*
X19122849Y-19009984D02*
X19141896Y-19019508D01*
X19141896Y-19019508D02*
X19151420Y-19029031D01*
X19151420Y-19029031D02*
X19160944Y-19048079D01*
X19160944Y-19048079D02*
X19160944Y-19067127D01*
X19160944Y-19067127D02*
X19151420Y-19095698D01*
X19151420Y-19095698D02*
X19037134Y-19209984D01*
X19037134Y-19209984D02*
X19160944Y-19209984D01*
X19237134Y-19009984D02*
X19237134Y-19048079D01*
X19313325Y-19009984D02*
X19313325Y-19048079D01*
X19608563Y-19286174D02*
X19599039Y-19276650D01*
X19599039Y-19276650D02*
X19579991Y-19248079D01*
X19579991Y-19248079D02*
X19570468Y-19229031D01*
X19570468Y-19229031D02*
X19560944Y-19200460D01*
X19560944Y-19200460D02*
X19551420Y-19152841D01*
X19551420Y-19152841D02*
X19551420Y-19114746D01*
X19551420Y-19114746D02*
X19560944Y-19067127D01*
X19560944Y-19067127D02*
X19570468Y-19038555D01*
X19570468Y-19038555D02*
X19579991Y-19019508D01*
X19579991Y-19019508D02*
X19599039Y-18990936D01*
X19599039Y-18990936D02*
X19608563Y-18981412D01*
X19770468Y-19009984D02*
X19732372Y-19009984D01*
X19732372Y-19009984D02*
X19713325Y-19019508D01*
X19713325Y-19019508D02*
X19703801Y-19029031D01*
X19703801Y-19029031D02*
X19684753Y-19057603D01*
X19684753Y-19057603D02*
X19675230Y-19095698D01*
X19675230Y-19095698D02*
X19675230Y-19171889D01*
X19675230Y-19171889D02*
X19684753Y-19190936D01*
X19684753Y-19190936D02*
X19694277Y-19200460D01*
X19694277Y-19200460D02*
X19713325Y-19209984D01*
X19713325Y-19209984D02*
X19751420Y-19209984D01*
X19751420Y-19209984D02*
X19770468Y-19200460D01*
X19770468Y-19200460D02*
X19779991Y-19190936D01*
X19779991Y-19190936D02*
X19789515Y-19171889D01*
X19789515Y-19171889D02*
X19789515Y-19124270D01*
X19789515Y-19124270D02*
X19779991Y-19105222D01*
X19779991Y-19105222D02*
X19770468Y-19095698D01*
X19770468Y-19095698D02*
X19751420Y-19086174D01*
X19751420Y-19086174D02*
X19713325Y-19086174D01*
X19713325Y-19086174D02*
X19694277Y-19095698D01*
X19694277Y-19095698D02*
X19684753Y-19105222D01*
X19684753Y-19105222D02*
X19675230Y-19124270D01*
X20027611Y-19209984D02*
X20027611Y-19009984D01*
X20113325Y-19209984D02*
X20113325Y-19105222D01*
X20113325Y-19105222D02*
X20103801Y-19086174D01*
X20103801Y-19086174D02*
X20084753Y-19076650D01*
X20084753Y-19076650D02*
X20056182Y-19076650D01*
X20056182Y-19076650D02*
X20037134Y-19086174D01*
X20037134Y-19086174D02*
X20027611Y-19095698D01*
X20237134Y-19209984D02*
X20218087Y-19200460D01*
X20218087Y-19200460D02*
X20208563Y-19190936D01*
X20208563Y-19190936D02*
X20199039Y-19171889D01*
X20199039Y-19171889D02*
X20199039Y-19114746D01*
X20199039Y-19114746D02*
X20208563Y-19095698D01*
X20208563Y-19095698D02*
X20218087Y-19086174D01*
X20218087Y-19086174D02*
X20237134Y-19076650D01*
X20237134Y-19076650D02*
X20265706Y-19076650D01*
X20265706Y-19076650D02*
X20284753Y-19086174D01*
X20284753Y-19086174D02*
X20294277Y-19095698D01*
X20294277Y-19095698D02*
X20303801Y-19114746D01*
X20303801Y-19114746D02*
X20303801Y-19171889D01*
X20303801Y-19171889D02*
X20294277Y-19190936D01*
X20294277Y-19190936D02*
X20284753Y-19200460D01*
X20284753Y-19200460D02*
X20265706Y-19209984D01*
X20265706Y-19209984D02*
X20237134Y-19209984D01*
X20418087Y-19209984D02*
X20399039Y-19200460D01*
X20399039Y-19200460D02*
X20389515Y-19181412D01*
X20389515Y-19181412D02*
X20389515Y-19009984D01*
X20570468Y-19200460D02*
X20551420Y-19209984D01*
X20551420Y-19209984D02*
X20513325Y-19209984D01*
X20513325Y-19209984D02*
X20494277Y-19200460D01*
X20494277Y-19200460D02*
X20484753Y-19181412D01*
X20484753Y-19181412D02*
X20484753Y-19105222D01*
X20484753Y-19105222D02*
X20494277Y-19086174D01*
X20494277Y-19086174D02*
X20513325Y-19076650D01*
X20513325Y-19076650D02*
X20551420Y-19076650D01*
X20551420Y-19076650D02*
X20570468Y-19086174D01*
X20570468Y-19086174D02*
X20579992Y-19105222D01*
X20579992Y-19105222D02*
X20579992Y-19124270D01*
X20579992Y-19124270D02*
X20484753Y-19143317D01*
X20656182Y-19200460D02*
X20675230Y-19209984D01*
X20675230Y-19209984D02*
X20713325Y-19209984D01*
X20713325Y-19209984D02*
X20732373Y-19200460D01*
X20732373Y-19200460D02*
X20741896Y-19181412D01*
X20741896Y-19181412D02*
X20741896Y-19171889D01*
X20741896Y-19171889D02*
X20732373Y-19152841D01*
X20732373Y-19152841D02*
X20713325Y-19143317D01*
X20713325Y-19143317D02*
X20684753Y-19143317D01*
X20684753Y-19143317D02*
X20665706Y-19133793D01*
X20665706Y-19133793D02*
X20656182Y-19114746D01*
X20656182Y-19114746D02*
X20656182Y-19105222D01*
X20656182Y-19105222D02*
X20665706Y-19086174D01*
X20665706Y-19086174D02*
X20684753Y-19076650D01*
X20684753Y-19076650D02*
X20713325Y-19076650D01*
X20713325Y-19076650D02*
X20732373Y-19086174D01*
X20808563Y-19286174D02*
X20818087Y-19276650D01*
X20818087Y-19276650D02*
X20837134Y-19248079D01*
X20837134Y-19248079D02*
X20846658Y-19229031D01*
X20846658Y-19229031D02*
X20856182Y-19200460D01*
X20856182Y-19200460D02*
X20865706Y-19152841D01*
X20865706Y-19152841D02*
X20865706Y-19114746D01*
X20865706Y-19114746D02*
X20856182Y-19067127D01*
X20856182Y-19067127D02*
X20846658Y-19038555D01*
X20846658Y-19038555D02*
X20837134Y-19019508D01*
X20837134Y-19019508D02*
X20818087Y-18990936D01*
X20818087Y-18990936D02*
X20808563Y-18981412D01*
D14*
X15881000Y-19306250D02*
X16033500Y-19458750D01*
X16033500Y-19306250D02*
X15881000Y-19458750D01*
X16033500Y-19382500D02*
G75*
G03*
X15881000Y-19382500I-76250J0D01*
G01*
X15881000Y-19382500D02*
G75*
G03*
X16033500Y-19382500I76250J0D01*
G01*
D11*
X16399039Y-19473984D02*
X16284753Y-19473984D01*
X16341896Y-19473984D02*
X16341896Y-19273984D01*
X16341896Y-19273984D02*
X16322848Y-19302555D01*
X16322848Y-19302555D02*
X16303801Y-19321603D01*
X16303801Y-19321603D02*
X16284753Y-19331127D01*
X16484753Y-19454936D02*
X16494277Y-19464460D01*
X16494277Y-19464460D02*
X16484753Y-19473984D01*
X16484753Y-19473984D02*
X16475229Y-19464460D01*
X16475229Y-19464460D02*
X16484753Y-19454936D01*
X16484753Y-19454936D02*
X16484753Y-19473984D01*
X16675229Y-19273984D02*
X16579991Y-19273984D01*
X16579991Y-19273984D02*
X16570467Y-19369222D01*
X16570467Y-19369222D02*
X16579991Y-19359698D01*
X16579991Y-19359698D02*
X16599039Y-19350174D01*
X16599039Y-19350174D02*
X16646658Y-19350174D01*
X16646658Y-19350174D02*
X16665705Y-19359698D01*
X16665705Y-19359698D02*
X16675229Y-19369222D01*
X16675229Y-19369222D02*
X16684753Y-19388270D01*
X16684753Y-19388270D02*
X16684753Y-19435889D01*
X16684753Y-19435889D02*
X16675229Y-19454936D01*
X16675229Y-19454936D02*
X16665705Y-19464460D01*
X16665705Y-19464460D02*
X16646658Y-19473984D01*
X16646658Y-19473984D02*
X16599039Y-19473984D01*
X16599039Y-19473984D02*
X16579991Y-19464460D01*
X16579991Y-19464460D02*
X16570467Y-19454936D01*
X16760943Y-19293031D02*
X16770467Y-19283508D01*
X16770467Y-19283508D02*
X16789515Y-19273984D01*
X16789515Y-19273984D02*
X16837134Y-19273984D01*
X16837134Y-19273984D02*
X16856182Y-19283508D01*
X16856182Y-19283508D02*
X16865705Y-19293031D01*
X16865705Y-19293031D02*
X16875229Y-19312079D01*
X16875229Y-19312079D02*
X16875229Y-19331127D01*
X16875229Y-19331127D02*
X16865705Y-19359698D01*
X16865705Y-19359698D02*
X16751420Y-19473984D01*
X16751420Y-19473984D02*
X16875229Y-19473984D01*
X17056182Y-19273984D02*
X16960944Y-19273984D01*
X16960944Y-19273984D02*
X16951420Y-19369222D01*
X16951420Y-19369222D02*
X16960944Y-19359698D01*
X16960944Y-19359698D02*
X16979991Y-19350174D01*
X16979991Y-19350174D02*
X17027610Y-19350174D01*
X17027610Y-19350174D02*
X17046658Y-19359698D01*
X17046658Y-19359698D02*
X17056182Y-19369222D01*
X17056182Y-19369222D02*
X17065705Y-19388270D01*
X17065705Y-19388270D02*
X17065705Y-19435889D01*
X17065705Y-19435889D02*
X17056182Y-19454936D01*
X17056182Y-19454936D02*
X17046658Y-19464460D01*
X17046658Y-19464460D02*
X17027610Y-19473984D01*
X17027610Y-19473984D02*
X16979991Y-19473984D01*
X16979991Y-19473984D02*
X16960944Y-19464460D01*
X16960944Y-19464460D02*
X16951420Y-19454936D01*
X17151420Y-19473984D02*
X17151420Y-19340650D01*
X17151420Y-19359698D02*
X17160944Y-19350174D01*
X17160944Y-19350174D02*
X17179991Y-19340650D01*
X17179991Y-19340650D02*
X17208563Y-19340650D01*
X17208563Y-19340650D02*
X17227610Y-19350174D01*
X17227610Y-19350174D02*
X17237134Y-19369222D01*
X17237134Y-19369222D02*
X17237134Y-19473984D01*
X17237134Y-19369222D02*
X17246658Y-19350174D01*
X17246658Y-19350174D02*
X17265705Y-19340650D01*
X17265705Y-19340650D02*
X17294277Y-19340650D01*
X17294277Y-19340650D02*
X17313325Y-19350174D01*
X17313325Y-19350174D02*
X17322848Y-19369222D01*
X17322848Y-19369222D02*
X17322848Y-19473984D01*
X17418086Y-19473984D02*
X17418086Y-19340650D01*
X17418086Y-19359698D02*
X17427610Y-19350174D01*
X17427610Y-19350174D02*
X17446658Y-19340650D01*
X17446658Y-19340650D02*
X17475229Y-19340650D01*
X17475229Y-19340650D02*
X17494277Y-19350174D01*
X17494277Y-19350174D02*
X17503801Y-19369222D01*
X17503801Y-19369222D02*
X17503801Y-19473984D01*
X17503801Y-19369222D02*
X17513325Y-19350174D01*
X17513325Y-19350174D02*
X17532372Y-19340650D01*
X17532372Y-19340650D02*
X17560944Y-19340650D01*
X17560944Y-19340650D02*
X17579991Y-19350174D01*
X17579991Y-19350174D02*
X17589515Y-19369222D01*
X17589515Y-19369222D02*
X17589515Y-19473984D01*
X17979991Y-19264460D02*
X17808563Y-19521603D01*
X18237134Y-19273984D02*
X18256182Y-19273984D01*
X18256182Y-19273984D02*
X18275229Y-19283508D01*
X18275229Y-19283508D02*
X18284753Y-19293031D01*
X18284753Y-19293031D02*
X18294277Y-19312079D01*
X18294277Y-19312079D02*
X18303801Y-19350174D01*
X18303801Y-19350174D02*
X18303801Y-19397793D01*
X18303801Y-19397793D02*
X18294277Y-19435889D01*
X18294277Y-19435889D02*
X18284753Y-19454936D01*
X18284753Y-19454936D02*
X18275229Y-19464460D01*
X18275229Y-19464460D02*
X18256182Y-19473984D01*
X18256182Y-19473984D02*
X18237134Y-19473984D01*
X18237134Y-19473984D02*
X18218087Y-19464460D01*
X18218087Y-19464460D02*
X18208563Y-19454936D01*
X18208563Y-19454936D02*
X18199039Y-19435889D01*
X18199039Y-19435889D02*
X18189515Y-19397793D01*
X18189515Y-19397793D02*
X18189515Y-19350174D01*
X18189515Y-19350174D02*
X18199039Y-19312079D01*
X18199039Y-19312079D02*
X18208563Y-19293031D01*
X18208563Y-19293031D02*
X18218087Y-19283508D01*
X18218087Y-19283508D02*
X18237134Y-19273984D01*
X18389515Y-19454936D02*
X18399039Y-19464460D01*
X18399039Y-19464460D02*
X18389515Y-19473984D01*
X18389515Y-19473984D02*
X18379991Y-19464460D01*
X18379991Y-19464460D02*
X18389515Y-19454936D01*
X18389515Y-19454936D02*
X18389515Y-19473984D01*
X18522848Y-19273984D02*
X18541896Y-19273984D01*
X18541896Y-19273984D02*
X18560944Y-19283508D01*
X18560944Y-19283508D02*
X18570468Y-19293031D01*
X18570468Y-19293031D02*
X18579991Y-19312079D01*
X18579991Y-19312079D02*
X18589515Y-19350174D01*
X18589515Y-19350174D02*
X18589515Y-19397793D01*
X18589515Y-19397793D02*
X18579991Y-19435889D01*
X18579991Y-19435889D02*
X18570468Y-19454936D01*
X18570468Y-19454936D02*
X18560944Y-19464460D01*
X18560944Y-19464460D02*
X18541896Y-19473984D01*
X18541896Y-19473984D02*
X18522848Y-19473984D01*
X18522848Y-19473984D02*
X18503801Y-19464460D01*
X18503801Y-19464460D02*
X18494277Y-19454936D01*
X18494277Y-19454936D02*
X18484753Y-19435889D01*
X18484753Y-19435889D02*
X18475229Y-19397793D01*
X18475229Y-19397793D02*
X18475229Y-19350174D01*
X18475229Y-19350174D02*
X18484753Y-19312079D01*
X18484753Y-19312079D02*
X18494277Y-19293031D01*
X18494277Y-19293031D02*
X18503801Y-19283508D01*
X18503801Y-19283508D02*
X18522848Y-19273984D01*
X18760944Y-19273984D02*
X18722848Y-19273984D01*
X18722848Y-19273984D02*
X18703801Y-19283508D01*
X18703801Y-19283508D02*
X18694277Y-19293031D01*
X18694277Y-19293031D02*
X18675229Y-19321603D01*
X18675229Y-19321603D02*
X18665706Y-19359698D01*
X18665706Y-19359698D02*
X18665706Y-19435889D01*
X18665706Y-19435889D02*
X18675229Y-19454936D01*
X18675229Y-19454936D02*
X18684753Y-19464460D01*
X18684753Y-19464460D02*
X18703801Y-19473984D01*
X18703801Y-19473984D02*
X18741896Y-19473984D01*
X18741896Y-19473984D02*
X18760944Y-19464460D01*
X18760944Y-19464460D02*
X18770468Y-19454936D01*
X18770468Y-19454936D02*
X18779991Y-19435889D01*
X18779991Y-19435889D02*
X18779991Y-19388270D01*
X18779991Y-19388270D02*
X18770468Y-19369222D01*
X18770468Y-19369222D02*
X18760944Y-19359698D01*
X18760944Y-19359698D02*
X18741896Y-19350174D01*
X18741896Y-19350174D02*
X18703801Y-19350174D01*
X18703801Y-19350174D02*
X18684753Y-19359698D01*
X18684753Y-19359698D02*
X18675229Y-19369222D01*
X18675229Y-19369222D02*
X18665706Y-19388270D01*
X18903801Y-19273984D02*
X18922849Y-19273984D01*
X18922849Y-19273984D02*
X18941896Y-19283508D01*
X18941896Y-19283508D02*
X18951420Y-19293031D01*
X18951420Y-19293031D02*
X18960944Y-19312079D01*
X18960944Y-19312079D02*
X18970468Y-19350174D01*
X18970468Y-19350174D02*
X18970468Y-19397793D01*
X18970468Y-19397793D02*
X18960944Y-19435889D01*
X18960944Y-19435889D02*
X18951420Y-19454936D01*
X18951420Y-19454936D02*
X18941896Y-19464460D01*
X18941896Y-19464460D02*
X18922849Y-19473984D01*
X18922849Y-19473984D02*
X18903801Y-19473984D01*
X18903801Y-19473984D02*
X18884753Y-19464460D01*
X18884753Y-19464460D02*
X18875229Y-19454936D01*
X18875229Y-19454936D02*
X18865706Y-19435889D01*
X18865706Y-19435889D02*
X18856182Y-19397793D01*
X18856182Y-19397793D02*
X18856182Y-19350174D01*
X18856182Y-19350174D02*
X18865706Y-19312079D01*
X18865706Y-19312079D02*
X18875229Y-19293031D01*
X18875229Y-19293031D02*
X18884753Y-19283508D01*
X18884753Y-19283508D02*
X18903801Y-19273984D01*
X19094277Y-19273984D02*
X19113325Y-19273984D01*
X19113325Y-19273984D02*
X19132372Y-19283508D01*
X19132372Y-19283508D02*
X19141896Y-19293031D01*
X19141896Y-19293031D02*
X19151420Y-19312079D01*
X19151420Y-19312079D02*
X19160944Y-19350174D01*
X19160944Y-19350174D02*
X19160944Y-19397793D01*
X19160944Y-19397793D02*
X19151420Y-19435889D01*
X19151420Y-19435889D02*
X19141896Y-19454936D01*
X19141896Y-19454936D02*
X19132372Y-19464460D01*
X19132372Y-19464460D02*
X19113325Y-19473984D01*
X19113325Y-19473984D02*
X19094277Y-19473984D01*
X19094277Y-19473984D02*
X19075229Y-19464460D01*
X19075229Y-19464460D02*
X19065706Y-19454936D01*
X19065706Y-19454936D02*
X19056182Y-19435889D01*
X19056182Y-19435889D02*
X19046658Y-19397793D01*
X19046658Y-19397793D02*
X19046658Y-19350174D01*
X19046658Y-19350174D02*
X19056182Y-19312079D01*
X19056182Y-19312079D02*
X19065706Y-19293031D01*
X19065706Y-19293031D02*
X19075229Y-19283508D01*
X19075229Y-19283508D02*
X19094277Y-19273984D01*
X19237134Y-19273984D02*
X19237134Y-19312079D01*
X19313325Y-19273984D02*
X19313325Y-19312079D01*
X19608563Y-19550174D02*
X19599039Y-19540650D01*
X19599039Y-19540650D02*
X19579991Y-19512079D01*
X19579991Y-19512079D02*
X19570468Y-19493031D01*
X19570468Y-19493031D02*
X19560944Y-19464460D01*
X19560944Y-19464460D02*
X19551420Y-19416841D01*
X19551420Y-19416841D02*
X19551420Y-19378746D01*
X19551420Y-19378746D02*
X19560944Y-19331127D01*
X19560944Y-19331127D02*
X19570468Y-19302555D01*
X19570468Y-19302555D02*
X19579991Y-19283508D01*
X19579991Y-19283508D02*
X19599039Y-19254936D01*
X19599039Y-19254936D02*
X19608563Y-19245412D01*
X19675230Y-19293031D02*
X19684753Y-19283508D01*
X19684753Y-19283508D02*
X19703801Y-19273984D01*
X19703801Y-19273984D02*
X19751420Y-19273984D01*
X19751420Y-19273984D02*
X19770468Y-19283508D01*
X19770468Y-19283508D02*
X19779991Y-19293031D01*
X19779991Y-19293031D02*
X19789515Y-19312079D01*
X19789515Y-19312079D02*
X19789515Y-19331127D01*
X19789515Y-19331127D02*
X19779991Y-19359698D01*
X19779991Y-19359698D02*
X19665706Y-19473984D01*
X19665706Y-19473984D02*
X19789515Y-19473984D01*
X19960944Y-19340650D02*
X19960944Y-19473984D01*
X19913325Y-19264460D02*
X19865706Y-19407317D01*
X19865706Y-19407317D02*
X19989515Y-19407317D01*
X20218087Y-19473984D02*
X20218087Y-19273984D01*
X20303801Y-19473984D02*
X20303801Y-19369222D01*
X20303801Y-19369222D02*
X20294277Y-19350174D01*
X20294277Y-19350174D02*
X20275230Y-19340650D01*
X20275230Y-19340650D02*
X20246658Y-19340650D01*
X20246658Y-19340650D02*
X20227611Y-19350174D01*
X20227611Y-19350174D02*
X20218087Y-19359698D01*
X20427611Y-19473984D02*
X20408563Y-19464460D01*
X20408563Y-19464460D02*
X20399039Y-19454936D01*
X20399039Y-19454936D02*
X20389515Y-19435889D01*
X20389515Y-19435889D02*
X20389515Y-19378746D01*
X20389515Y-19378746D02*
X20399039Y-19359698D01*
X20399039Y-19359698D02*
X20408563Y-19350174D01*
X20408563Y-19350174D02*
X20427611Y-19340650D01*
X20427611Y-19340650D02*
X20456182Y-19340650D01*
X20456182Y-19340650D02*
X20475230Y-19350174D01*
X20475230Y-19350174D02*
X20484753Y-19359698D01*
X20484753Y-19359698D02*
X20494277Y-19378746D01*
X20494277Y-19378746D02*
X20494277Y-19435889D01*
X20494277Y-19435889D02*
X20484753Y-19454936D01*
X20484753Y-19454936D02*
X20475230Y-19464460D01*
X20475230Y-19464460D02*
X20456182Y-19473984D01*
X20456182Y-19473984D02*
X20427611Y-19473984D01*
X20608563Y-19473984D02*
X20589515Y-19464460D01*
X20589515Y-19464460D02*
X20579992Y-19445412D01*
X20579992Y-19445412D02*
X20579992Y-19273984D01*
X20760944Y-19464460D02*
X20741896Y-19473984D01*
X20741896Y-19473984D02*
X20703801Y-19473984D01*
X20703801Y-19473984D02*
X20684753Y-19464460D01*
X20684753Y-19464460D02*
X20675230Y-19445412D01*
X20675230Y-19445412D02*
X20675230Y-19369222D01*
X20675230Y-19369222D02*
X20684753Y-19350174D01*
X20684753Y-19350174D02*
X20703801Y-19340650D01*
X20703801Y-19340650D02*
X20741896Y-19340650D01*
X20741896Y-19340650D02*
X20760944Y-19350174D01*
X20760944Y-19350174D02*
X20770468Y-19369222D01*
X20770468Y-19369222D02*
X20770468Y-19388270D01*
X20770468Y-19388270D02*
X20675230Y-19407317D01*
X20846658Y-19464460D02*
X20865706Y-19473984D01*
X20865706Y-19473984D02*
X20903801Y-19473984D01*
X20903801Y-19473984D02*
X20922849Y-19464460D01*
X20922849Y-19464460D02*
X20932373Y-19445412D01*
X20932373Y-19445412D02*
X20932373Y-19435889D01*
X20932373Y-19435889D02*
X20922849Y-19416841D01*
X20922849Y-19416841D02*
X20903801Y-19407317D01*
X20903801Y-19407317D02*
X20875230Y-19407317D01*
X20875230Y-19407317D02*
X20856182Y-19397793D01*
X20856182Y-19397793D02*
X20846658Y-19378746D01*
X20846658Y-19378746D02*
X20846658Y-19369222D01*
X20846658Y-19369222D02*
X20856182Y-19350174D01*
X20856182Y-19350174D02*
X20875230Y-19340650D01*
X20875230Y-19340650D02*
X20903801Y-19340650D01*
X20903801Y-19340650D02*
X20922849Y-19350174D01*
X20999039Y-19550174D02*
X21008563Y-19540650D01*
X21008563Y-19540650D02*
X21027611Y-19512079D01*
X21027611Y-19512079D02*
X21037134Y-19493031D01*
X21037134Y-19493031D02*
X21046658Y-19464460D01*
X21046658Y-19464460D02*
X21056182Y-19416841D01*
X21056182Y-19416841D02*
X21056182Y-19378746D01*
X21056182Y-19378746D02*
X21046658Y-19331127D01*
X21046658Y-19331127D02*
X21037134Y-19302555D01*
X21037134Y-19302555D02*
X21027611Y-19283508D01*
X21027611Y-19283508D02*
X21008563Y-19254936D01*
X21008563Y-19254936D02*
X20999039Y-19245412D01*
X15833500Y-19555000D02*
X16033500Y-19755000D01*
X16033500Y-19555000D02*
X15833500Y-19755000D01*
X15933500Y-19555000D02*
X15933500Y-19755000D01*
X15833500Y-19655000D02*
X16033500Y-19655000D01*
X16284753Y-19565531D02*
X16294277Y-19556008D01*
X16294277Y-19556008D02*
X16313324Y-19546484D01*
X16313324Y-19546484D02*
X16360943Y-19546484D01*
X16360943Y-19546484D02*
X16379991Y-19556008D01*
X16379991Y-19556008D02*
X16389515Y-19565531D01*
X16389515Y-19565531D02*
X16399039Y-19584579D01*
X16399039Y-19584579D02*
X16399039Y-19603627D01*
X16399039Y-19603627D02*
X16389515Y-19632198D01*
X16389515Y-19632198D02*
X16275229Y-19746484D01*
X16275229Y-19746484D02*
X16399039Y-19746484D01*
X16484753Y-19727436D02*
X16494277Y-19736960D01*
X16494277Y-19736960D02*
X16484753Y-19746484D01*
X16484753Y-19746484D02*
X16475229Y-19736960D01*
X16475229Y-19736960D02*
X16484753Y-19727436D01*
X16484753Y-19727436D02*
X16484753Y-19746484D01*
X16665705Y-19546484D02*
X16627610Y-19546484D01*
X16627610Y-19546484D02*
X16608562Y-19556008D01*
X16608562Y-19556008D02*
X16599039Y-19565531D01*
X16599039Y-19565531D02*
X16579991Y-19594103D01*
X16579991Y-19594103D02*
X16570467Y-19632198D01*
X16570467Y-19632198D02*
X16570467Y-19708389D01*
X16570467Y-19708389D02*
X16579991Y-19727436D01*
X16579991Y-19727436D02*
X16589515Y-19736960D01*
X16589515Y-19736960D02*
X16608562Y-19746484D01*
X16608562Y-19746484D02*
X16646658Y-19746484D01*
X16646658Y-19746484D02*
X16665705Y-19736960D01*
X16665705Y-19736960D02*
X16675229Y-19727436D01*
X16675229Y-19727436D02*
X16684753Y-19708389D01*
X16684753Y-19708389D02*
X16684753Y-19660770D01*
X16684753Y-19660770D02*
X16675229Y-19641722D01*
X16675229Y-19641722D02*
X16665705Y-19632198D01*
X16665705Y-19632198D02*
X16646658Y-19622674D01*
X16646658Y-19622674D02*
X16608562Y-19622674D01*
X16608562Y-19622674D02*
X16589515Y-19632198D01*
X16589515Y-19632198D02*
X16579991Y-19641722D01*
X16579991Y-19641722D02*
X16570467Y-19660770D01*
X16808563Y-19546484D02*
X16827610Y-19546484D01*
X16827610Y-19546484D02*
X16846658Y-19556008D01*
X16846658Y-19556008D02*
X16856182Y-19565531D01*
X16856182Y-19565531D02*
X16865705Y-19584579D01*
X16865705Y-19584579D02*
X16875229Y-19622674D01*
X16875229Y-19622674D02*
X16875229Y-19670293D01*
X16875229Y-19670293D02*
X16865705Y-19708389D01*
X16865705Y-19708389D02*
X16856182Y-19727436D01*
X16856182Y-19727436D02*
X16846658Y-19736960D01*
X16846658Y-19736960D02*
X16827610Y-19746484D01*
X16827610Y-19746484D02*
X16808563Y-19746484D01*
X16808563Y-19746484D02*
X16789515Y-19736960D01*
X16789515Y-19736960D02*
X16779991Y-19727436D01*
X16779991Y-19727436D02*
X16770467Y-19708389D01*
X16770467Y-19708389D02*
X16760943Y-19670293D01*
X16760943Y-19670293D02*
X16760943Y-19622674D01*
X16760943Y-19622674D02*
X16770467Y-19584579D01*
X16770467Y-19584579D02*
X16779991Y-19565531D01*
X16779991Y-19565531D02*
X16789515Y-19556008D01*
X16789515Y-19556008D02*
X16808563Y-19546484D01*
X16999039Y-19546484D02*
X17018086Y-19546484D01*
X17018086Y-19546484D02*
X17037134Y-19556008D01*
X17037134Y-19556008D02*
X17046658Y-19565531D01*
X17046658Y-19565531D02*
X17056182Y-19584579D01*
X17056182Y-19584579D02*
X17065705Y-19622674D01*
X17065705Y-19622674D02*
X17065705Y-19670293D01*
X17065705Y-19670293D02*
X17056182Y-19708389D01*
X17056182Y-19708389D02*
X17046658Y-19727436D01*
X17046658Y-19727436D02*
X17037134Y-19736960D01*
X17037134Y-19736960D02*
X17018086Y-19746484D01*
X17018086Y-19746484D02*
X16999039Y-19746484D01*
X16999039Y-19746484D02*
X16979991Y-19736960D01*
X16979991Y-19736960D02*
X16970467Y-19727436D01*
X16970467Y-19727436D02*
X16960944Y-19708389D01*
X16960944Y-19708389D02*
X16951420Y-19670293D01*
X16951420Y-19670293D02*
X16951420Y-19622674D01*
X16951420Y-19622674D02*
X16960944Y-19584579D01*
X16960944Y-19584579D02*
X16970467Y-19565531D01*
X16970467Y-19565531D02*
X16979991Y-19556008D01*
X16979991Y-19556008D02*
X16999039Y-19546484D01*
X17151420Y-19746484D02*
X17151420Y-19613150D01*
X17151420Y-19632198D02*
X17160944Y-19622674D01*
X17160944Y-19622674D02*
X17179991Y-19613150D01*
X17179991Y-19613150D02*
X17208563Y-19613150D01*
X17208563Y-19613150D02*
X17227610Y-19622674D01*
X17227610Y-19622674D02*
X17237134Y-19641722D01*
X17237134Y-19641722D02*
X17237134Y-19746484D01*
X17237134Y-19641722D02*
X17246658Y-19622674D01*
X17246658Y-19622674D02*
X17265705Y-19613150D01*
X17265705Y-19613150D02*
X17294277Y-19613150D01*
X17294277Y-19613150D02*
X17313325Y-19622674D01*
X17313325Y-19622674D02*
X17322848Y-19641722D01*
X17322848Y-19641722D02*
X17322848Y-19746484D01*
X17418086Y-19746484D02*
X17418086Y-19613150D01*
X17418086Y-19632198D02*
X17427610Y-19622674D01*
X17427610Y-19622674D02*
X17446658Y-19613150D01*
X17446658Y-19613150D02*
X17475229Y-19613150D01*
X17475229Y-19613150D02*
X17494277Y-19622674D01*
X17494277Y-19622674D02*
X17503801Y-19641722D01*
X17503801Y-19641722D02*
X17503801Y-19746484D01*
X17503801Y-19641722D02*
X17513325Y-19622674D01*
X17513325Y-19622674D02*
X17532372Y-19613150D01*
X17532372Y-19613150D02*
X17560944Y-19613150D01*
X17560944Y-19613150D02*
X17579991Y-19622674D01*
X17579991Y-19622674D02*
X17589515Y-19641722D01*
X17589515Y-19641722D02*
X17589515Y-19746484D01*
X17979991Y-19536960D02*
X17808563Y-19794103D01*
X18237134Y-19546484D02*
X18256182Y-19546484D01*
X18256182Y-19546484D02*
X18275229Y-19556008D01*
X18275229Y-19556008D02*
X18284753Y-19565531D01*
X18284753Y-19565531D02*
X18294277Y-19584579D01*
X18294277Y-19584579D02*
X18303801Y-19622674D01*
X18303801Y-19622674D02*
X18303801Y-19670293D01*
X18303801Y-19670293D02*
X18294277Y-19708389D01*
X18294277Y-19708389D02*
X18284753Y-19727436D01*
X18284753Y-19727436D02*
X18275229Y-19736960D01*
X18275229Y-19736960D02*
X18256182Y-19746484D01*
X18256182Y-19746484D02*
X18237134Y-19746484D01*
X18237134Y-19746484D02*
X18218087Y-19736960D01*
X18218087Y-19736960D02*
X18208563Y-19727436D01*
X18208563Y-19727436D02*
X18199039Y-19708389D01*
X18199039Y-19708389D02*
X18189515Y-19670293D01*
X18189515Y-19670293D02*
X18189515Y-19622674D01*
X18189515Y-19622674D02*
X18199039Y-19584579D01*
X18199039Y-19584579D02*
X18208563Y-19565531D01*
X18208563Y-19565531D02*
X18218087Y-19556008D01*
X18218087Y-19556008D02*
X18237134Y-19546484D01*
X18389515Y-19727436D02*
X18399039Y-19736960D01*
X18399039Y-19736960D02*
X18389515Y-19746484D01*
X18389515Y-19746484D02*
X18379991Y-19736960D01*
X18379991Y-19736960D02*
X18389515Y-19727436D01*
X18389515Y-19727436D02*
X18389515Y-19746484D01*
X18589515Y-19746484D02*
X18475229Y-19746484D01*
X18532372Y-19746484D02*
X18532372Y-19546484D01*
X18532372Y-19546484D02*
X18513325Y-19575055D01*
X18513325Y-19575055D02*
X18494277Y-19594103D01*
X18494277Y-19594103D02*
X18475229Y-19603627D01*
X18713325Y-19546484D02*
X18732372Y-19546484D01*
X18732372Y-19546484D02*
X18751420Y-19556008D01*
X18751420Y-19556008D02*
X18760944Y-19565531D01*
X18760944Y-19565531D02*
X18770468Y-19584579D01*
X18770468Y-19584579D02*
X18779991Y-19622674D01*
X18779991Y-19622674D02*
X18779991Y-19670293D01*
X18779991Y-19670293D02*
X18770468Y-19708389D01*
X18770468Y-19708389D02*
X18760944Y-19727436D01*
X18760944Y-19727436D02*
X18751420Y-19736960D01*
X18751420Y-19736960D02*
X18732372Y-19746484D01*
X18732372Y-19746484D02*
X18713325Y-19746484D01*
X18713325Y-19746484D02*
X18694277Y-19736960D01*
X18694277Y-19736960D02*
X18684753Y-19727436D01*
X18684753Y-19727436D02*
X18675229Y-19708389D01*
X18675229Y-19708389D02*
X18665706Y-19670293D01*
X18665706Y-19670293D02*
X18665706Y-19622674D01*
X18665706Y-19622674D02*
X18675229Y-19584579D01*
X18675229Y-19584579D02*
X18684753Y-19565531D01*
X18684753Y-19565531D02*
X18694277Y-19556008D01*
X18694277Y-19556008D02*
X18713325Y-19546484D01*
X18856182Y-19565531D02*
X18865706Y-19556008D01*
X18865706Y-19556008D02*
X18884753Y-19546484D01*
X18884753Y-19546484D02*
X18932372Y-19546484D01*
X18932372Y-19546484D02*
X18951420Y-19556008D01*
X18951420Y-19556008D02*
X18960944Y-19565531D01*
X18960944Y-19565531D02*
X18970468Y-19584579D01*
X18970468Y-19584579D02*
X18970468Y-19603627D01*
X18970468Y-19603627D02*
X18960944Y-19632198D01*
X18960944Y-19632198D02*
X18846658Y-19746484D01*
X18846658Y-19746484D02*
X18970468Y-19746484D01*
X19141896Y-19613150D02*
X19141896Y-19746484D01*
X19094277Y-19536960D02*
X19046658Y-19679817D01*
X19046658Y-19679817D02*
X19170468Y-19679817D01*
X19237134Y-19546484D02*
X19237134Y-19584579D01*
X19313325Y-19546484D02*
X19313325Y-19584579D01*
X19608563Y-19822674D02*
X19599039Y-19813150D01*
X19599039Y-19813150D02*
X19579991Y-19784579D01*
X19579991Y-19784579D02*
X19570468Y-19765531D01*
X19570468Y-19765531D02*
X19560944Y-19736960D01*
X19560944Y-19736960D02*
X19551420Y-19689341D01*
X19551420Y-19689341D02*
X19551420Y-19651246D01*
X19551420Y-19651246D02*
X19560944Y-19603627D01*
X19560944Y-19603627D02*
X19570468Y-19575055D01*
X19570468Y-19575055D02*
X19579991Y-19556008D01*
X19579991Y-19556008D02*
X19599039Y-19527436D01*
X19599039Y-19527436D02*
X19608563Y-19517912D01*
X19675230Y-19565531D02*
X19684753Y-19556008D01*
X19684753Y-19556008D02*
X19703801Y-19546484D01*
X19703801Y-19546484D02*
X19751420Y-19546484D01*
X19751420Y-19546484D02*
X19770468Y-19556008D01*
X19770468Y-19556008D02*
X19779991Y-19565531D01*
X19779991Y-19565531D02*
X19789515Y-19584579D01*
X19789515Y-19584579D02*
X19789515Y-19603627D01*
X19789515Y-19603627D02*
X19779991Y-19632198D01*
X19779991Y-19632198D02*
X19665706Y-19746484D01*
X19665706Y-19746484D02*
X19789515Y-19746484D01*
X20027611Y-19746484D02*
X20027611Y-19546484D01*
X20113325Y-19746484D02*
X20113325Y-19641722D01*
X20113325Y-19641722D02*
X20103801Y-19622674D01*
X20103801Y-19622674D02*
X20084753Y-19613150D01*
X20084753Y-19613150D02*
X20056182Y-19613150D01*
X20056182Y-19613150D02*
X20037134Y-19622674D01*
X20037134Y-19622674D02*
X20027611Y-19632198D01*
X20237134Y-19746484D02*
X20218087Y-19736960D01*
X20218087Y-19736960D02*
X20208563Y-19727436D01*
X20208563Y-19727436D02*
X20199039Y-19708389D01*
X20199039Y-19708389D02*
X20199039Y-19651246D01*
X20199039Y-19651246D02*
X20208563Y-19632198D01*
X20208563Y-19632198D02*
X20218087Y-19622674D01*
X20218087Y-19622674D02*
X20237134Y-19613150D01*
X20237134Y-19613150D02*
X20265706Y-19613150D01*
X20265706Y-19613150D02*
X20284753Y-19622674D01*
X20284753Y-19622674D02*
X20294277Y-19632198D01*
X20294277Y-19632198D02*
X20303801Y-19651246D01*
X20303801Y-19651246D02*
X20303801Y-19708389D01*
X20303801Y-19708389D02*
X20294277Y-19727436D01*
X20294277Y-19727436D02*
X20284753Y-19736960D01*
X20284753Y-19736960D02*
X20265706Y-19746484D01*
X20265706Y-19746484D02*
X20237134Y-19746484D01*
X20418087Y-19746484D02*
X20399039Y-19736960D01*
X20399039Y-19736960D02*
X20389515Y-19717912D01*
X20389515Y-19717912D02*
X20389515Y-19546484D01*
X20570468Y-19736960D02*
X20551420Y-19746484D01*
X20551420Y-19746484D02*
X20513325Y-19746484D01*
X20513325Y-19746484D02*
X20494277Y-19736960D01*
X20494277Y-19736960D02*
X20484753Y-19717912D01*
X20484753Y-19717912D02*
X20484753Y-19641722D01*
X20484753Y-19641722D02*
X20494277Y-19622674D01*
X20494277Y-19622674D02*
X20513325Y-19613150D01*
X20513325Y-19613150D02*
X20551420Y-19613150D01*
X20551420Y-19613150D02*
X20570468Y-19622674D01*
X20570468Y-19622674D02*
X20579992Y-19641722D01*
X20579992Y-19641722D02*
X20579992Y-19660770D01*
X20579992Y-19660770D02*
X20484753Y-19679817D01*
X20656182Y-19736960D02*
X20675230Y-19746484D01*
X20675230Y-19746484D02*
X20713325Y-19746484D01*
X20713325Y-19746484D02*
X20732373Y-19736960D01*
X20732373Y-19736960D02*
X20741896Y-19717912D01*
X20741896Y-19717912D02*
X20741896Y-19708389D01*
X20741896Y-19708389D02*
X20732373Y-19689341D01*
X20732373Y-19689341D02*
X20713325Y-19679817D01*
X20713325Y-19679817D02*
X20684753Y-19679817D01*
X20684753Y-19679817D02*
X20665706Y-19670293D01*
X20665706Y-19670293D02*
X20656182Y-19651246D01*
X20656182Y-19651246D02*
X20656182Y-19641722D01*
X20656182Y-19641722D02*
X20665706Y-19622674D01*
X20665706Y-19622674D02*
X20684753Y-19613150D01*
X20684753Y-19613150D02*
X20713325Y-19613150D01*
X20713325Y-19613150D02*
X20732373Y-19622674D01*
X20808563Y-19822674D02*
X20818087Y-19813150D01*
X20818087Y-19813150D02*
X20837134Y-19784579D01*
X20837134Y-19784579D02*
X20846658Y-19765531D01*
X20846658Y-19765531D02*
X20856182Y-19736960D01*
X20856182Y-19736960D02*
X20865706Y-19689341D01*
X20865706Y-19689341D02*
X20865706Y-19651246D01*
X20865706Y-19651246D02*
X20856182Y-19603627D01*
X20856182Y-19603627D02*
X20846658Y-19575055D01*
X20846658Y-19575055D02*
X20837134Y-19556008D01*
X20837134Y-19556008D02*
X20818087Y-19527436D01*
X20818087Y-19527436D02*
X20808563Y-19517912D01*
X15833500Y-19875000D02*
X16033500Y-20075000D01*
X16033500Y-19875000D02*
X15833500Y-20075000D01*
X16004211Y-20045711D02*
X16004211Y-19904289D01*
X15862789Y-19904289D01*
X15862789Y-20045711D01*
X16004211Y-20045711D01*
X16275229Y-19866484D02*
X16399039Y-19866484D01*
X16399039Y-19866484D02*
X16332372Y-19942674D01*
X16332372Y-19942674D02*
X16360943Y-19942674D01*
X16360943Y-19942674D02*
X16379991Y-19952198D01*
X16379991Y-19952198D02*
X16389515Y-19961722D01*
X16389515Y-19961722D02*
X16399039Y-19980770D01*
X16399039Y-19980770D02*
X16399039Y-20028389D01*
X16399039Y-20028389D02*
X16389515Y-20047436D01*
X16389515Y-20047436D02*
X16379991Y-20056960D01*
X16379991Y-20056960D02*
X16360943Y-20066484D01*
X16360943Y-20066484D02*
X16303801Y-20066484D01*
X16303801Y-20066484D02*
X16284753Y-20056960D01*
X16284753Y-20056960D02*
X16275229Y-20047436D01*
X16484753Y-20047436D02*
X16494277Y-20056960D01*
X16494277Y-20056960D02*
X16484753Y-20066484D01*
X16484753Y-20066484D02*
X16475229Y-20056960D01*
X16475229Y-20056960D02*
X16484753Y-20047436D01*
X16484753Y-20047436D02*
X16484753Y-20066484D01*
X16570467Y-19885531D02*
X16579991Y-19876008D01*
X16579991Y-19876008D02*
X16599039Y-19866484D01*
X16599039Y-19866484D02*
X16646658Y-19866484D01*
X16646658Y-19866484D02*
X16665705Y-19876008D01*
X16665705Y-19876008D02*
X16675229Y-19885531D01*
X16675229Y-19885531D02*
X16684753Y-19904579D01*
X16684753Y-19904579D02*
X16684753Y-19923627D01*
X16684753Y-19923627D02*
X16675229Y-19952198D01*
X16675229Y-19952198D02*
X16560943Y-20066484D01*
X16560943Y-20066484D02*
X16684753Y-20066484D01*
X16808563Y-19866484D02*
X16827610Y-19866484D01*
X16827610Y-19866484D02*
X16846658Y-19876008D01*
X16846658Y-19876008D02*
X16856182Y-19885531D01*
X16856182Y-19885531D02*
X16865705Y-19904579D01*
X16865705Y-19904579D02*
X16875229Y-19942674D01*
X16875229Y-19942674D02*
X16875229Y-19990293D01*
X16875229Y-19990293D02*
X16865705Y-20028389D01*
X16865705Y-20028389D02*
X16856182Y-20047436D01*
X16856182Y-20047436D02*
X16846658Y-20056960D01*
X16846658Y-20056960D02*
X16827610Y-20066484D01*
X16827610Y-20066484D02*
X16808563Y-20066484D01*
X16808563Y-20066484D02*
X16789515Y-20056960D01*
X16789515Y-20056960D02*
X16779991Y-20047436D01*
X16779991Y-20047436D02*
X16770467Y-20028389D01*
X16770467Y-20028389D02*
X16760943Y-19990293D01*
X16760943Y-19990293D02*
X16760943Y-19942674D01*
X16760943Y-19942674D02*
X16770467Y-19904579D01*
X16770467Y-19904579D02*
X16779991Y-19885531D01*
X16779991Y-19885531D02*
X16789515Y-19876008D01*
X16789515Y-19876008D02*
X16808563Y-19866484D01*
X16999039Y-19866484D02*
X17018086Y-19866484D01*
X17018086Y-19866484D02*
X17037134Y-19876008D01*
X17037134Y-19876008D02*
X17046658Y-19885531D01*
X17046658Y-19885531D02*
X17056182Y-19904579D01*
X17056182Y-19904579D02*
X17065705Y-19942674D01*
X17065705Y-19942674D02*
X17065705Y-19990293D01*
X17065705Y-19990293D02*
X17056182Y-20028389D01*
X17056182Y-20028389D02*
X17046658Y-20047436D01*
X17046658Y-20047436D02*
X17037134Y-20056960D01*
X17037134Y-20056960D02*
X17018086Y-20066484D01*
X17018086Y-20066484D02*
X16999039Y-20066484D01*
X16999039Y-20066484D02*
X16979991Y-20056960D01*
X16979991Y-20056960D02*
X16970467Y-20047436D01*
X16970467Y-20047436D02*
X16960944Y-20028389D01*
X16960944Y-20028389D02*
X16951420Y-19990293D01*
X16951420Y-19990293D02*
X16951420Y-19942674D01*
X16951420Y-19942674D02*
X16960944Y-19904579D01*
X16960944Y-19904579D02*
X16970467Y-19885531D01*
X16970467Y-19885531D02*
X16979991Y-19876008D01*
X16979991Y-19876008D02*
X16999039Y-19866484D01*
X17151420Y-20066484D02*
X17151420Y-19933150D01*
X17151420Y-19952198D02*
X17160944Y-19942674D01*
X17160944Y-19942674D02*
X17179991Y-19933150D01*
X17179991Y-19933150D02*
X17208563Y-19933150D01*
X17208563Y-19933150D02*
X17227610Y-19942674D01*
X17227610Y-19942674D02*
X17237134Y-19961722D01*
X17237134Y-19961722D02*
X17237134Y-20066484D01*
X17237134Y-19961722D02*
X17246658Y-19942674D01*
X17246658Y-19942674D02*
X17265705Y-19933150D01*
X17265705Y-19933150D02*
X17294277Y-19933150D01*
X17294277Y-19933150D02*
X17313325Y-19942674D01*
X17313325Y-19942674D02*
X17322848Y-19961722D01*
X17322848Y-19961722D02*
X17322848Y-20066484D01*
X17418086Y-20066484D02*
X17418086Y-19933150D01*
X17418086Y-19952198D02*
X17427610Y-19942674D01*
X17427610Y-19942674D02*
X17446658Y-19933150D01*
X17446658Y-19933150D02*
X17475229Y-19933150D01*
X17475229Y-19933150D02*
X17494277Y-19942674D01*
X17494277Y-19942674D02*
X17503801Y-19961722D01*
X17503801Y-19961722D02*
X17503801Y-20066484D01*
X17503801Y-19961722D02*
X17513325Y-19942674D01*
X17513325Y-19942674D02*
X17532372Y-19933150D01*
X17532372Y-19933150D02*
X17560944Y-19933150D01*
X17560944Y-19933150D02*
X17579991Y-19942674D01*
X17579991Y-19942674D02*
X17589515Y-19961722D01*
X17589515Y-19961722D02*
X17589515Y-20066484D01*
X17979991Y-19856960D02*
X17808563Y-20114103D01*
X18237134Y-19866484D02*
X18256182Y-19866484D01*
X18256182Y-19866484D02*
X18275229Y-19876008D01*
X18275229Y-19876008D02*
X18284753Y-19885531D01*
X18284753Y-19885531D02*
X18294277Y-19904579D01*
X18294277Y-19904579D02*
X18303801Y-19942674D01*
X18303801Y-19942674D02*
X18303801Y-19990293D01*
X18303801Y-19990293D02*
X18294277Y-20028389D01*
X18294277Y-20028389D02*
X18284753Y-20047436D01*
X18284753Y-20047436D02*
X18275229Y-20056960D01*
X18275229Y-20056960D02*
X18256182Y-20066484D01*
X18256182Y-20066484D02*
X18237134Y-20066484D01*
X18237134Y-20066484D02*
X18218087Y-20056960D01*
X18218087Y-20056960D02*
X18208563Y-20047436D01*
X18208563Y-20047436D02*
X18199039Y-20028389D01*
X18199039Y-20028389D02*
X18189515Y-19990293D01*
X18189515Y-19990293D02*
X18189515Y-19942674D01*
X18189515Y-19942674D02*
X18199039Y-19904579D01*
X18199039Y-19904579D02*
X18208563Y-19885531D01*
X18208563Y-19885531D02*
X18218087Y-19876008D01*
X18218087Y-19876008D02*
X18237134Y-19866484D01*
X18389515Y-20047436D02*
X18399039Y-20056960D01*
X18399039Y-20056960D02*
X18389515Y-20066484D01*
X18389515Y-20066484D02*
X18379991Y-20056960D01*
X18379991Y-20056960D02*
X18389515Y-20047436D01*
X18389515Y-20047436D02*
X18389515Y-20066484D01*
X18589515Y-20066484D02*
X18475229Y-20066484D01*
X18532372Y-20066484D02*
X18532372Y-19866484D01*
X18532372Y-19866484D02*
X18513325Y-19895055D01*
X18513325Y-19895055D02*
X18494277Y-19914103D01*
X18494277Y-19914103D02*
X18475229Y-19923627D01*
X18665706Y-19885531D02*
X18675229Y-19876008D01*
X18675229Y-19876008D02*
X18694277Y-19866484D01*
X18694277Y-19866484D02*
X18741896Y-19866484D01*
X18741896Y-19866484D02*
X18760944Y-19876008D01*
X18760944Y-19876008D02*
X18770468Y-19885531D01*
X18770468Y-19885531D02*
X18779991Y-19904579D01*
X18779991Y-19904579D02*
X18779991Y-19923627D01*
X18779991Y-19923627D02*
X18770468Y-19952198D01*
X18770468Y-19952198D02*
X18656182Y-20066484D01*
X18656182Y-20066484D02*
X18779991Y-20066484D01*
X18951420Y-19866484D02*
X18913325Y-19866484D01*
X18913325Y-19866484D02*
X18894277Y-19876008D01*
X18894277Y-19876008D02*
X18884753Y-19885531D01*
X18884753Y-19885531D02*
X18865706Y-19914103D01*
X18865706Y-19914103D02*
X18856182Y-19952198D01*
X18856182Y-19952198D02*
X18856182Y-20028389D01*
X18856182Y-20028389D02*
X18865706Y-20047436D01*
X18865706Y-20047436D02*
X18875229Y-20056960D01*
X18875229Y-20056960D02*
X18894277Y-20066484D01*
X18894277Y-20066484D02*
X18932372Y-20066484D01*
X18932372Y-20066484D02*
X18951420Y-20056960D01*
X18951420Y-20056960D02*
X18960944Y-20047436D01*
X18960944Y-20047436D02*
X18970468Y-20028389D01*
X18970468Y-20028389D02*
X18970468Y-19980770D01*
X18970468Y-19980770D02*
X18960944Y-19961722D01*
X18960944Y-19961722D02*
X18951420Y-19952198D01*
X18951420Y-19952198D02*
X18932372Y-19942674D01*
X18932372Y-19942674D02*
X18894277Y-19942674D01*
X18894277Y-19942674D02*
X18875229Y-19952198D01*
X18875229Y-19952198D02*
X18865706Y-19961722D01*
X18865706Y-19961722D02*
X18856182Y-19980770D01*
X19094277Y-19866484D02*
X19113325Y-19866484D01*
X19113325Y-19866484D02*
X19132372Y-19876008D01*
X19132372Y-19876008D02*
X19141896Y-19885531D01*
X19141896Y-19885531D02*
X19151420Y-19904579D01*
X19151420Y-19904579D02*
X19160944Y-19942674D01*
X19160944Y-19942674D02*
X19160944Y-19990293D01*
X19160944Y-19990293D02*
X19151420Y-20028389D01*
X19151420Y-20028389D02*
X19141896Y-20047436D01*
X19141896Y-20047436D02*
X19132372Y-20056960D01*
X19132372Y-20056960D02*
X19113325Y-20066484D01*
X19113325Y-20066484D02*
X19094277Y-20066484D01*
X19094277Y-20066484D02*
X19075229Y-20056960D01*
X19075229Y-20056960D02*
X19065706Y-20047436D01*
X19065706Y-20047436D02*
X19056182Y-20028389D01*
X19056182Y-20028389D02*
X19046658Y-19990293D01*
X19046658Y-19990293D02*
X19046658Y-19942674D01*
X19046658Y-19942674D02*
X19056182Y-19904579D01*
X19056182Y-19904579D02*
X19065706Y-19885531D01*
X19065706Y-19885531D02*
X19075229Y-19876008D01*
X19075229Y-19876008D02*
X19094277Y-19866484D01*
X19237134Y-19866484D02*
X19237134Y-19904579D01*
X19313325Y-19866484D02*
X19313325Y-19904579D01*
X19608563Y-20142674D02*
X19599039Y-20133150D01*
X19599039Y-20133150D02*
X19579991Y-20104579D01*
X19579991Y-20104579D02*
X19570468Y-20085531D01*
X19570468Y-20085531D02*
X19560944Y-20056960D01*
X19560944Y-20056960D02*
X19551420Y-20009341D01*
X19551420Y-20009341D02*
X19551420Y-19971246D01*
X19551420Y-19971246D02*
X19560944Y-19923627D01*
X19560944Y-19923627D02*
X19570468Y-19895055D01*
X19570468Y-19895055D02*
X19579991Y-19876008D01*
X19579991Y-19876008D02*
X19599039Y-19847436D01*
X19599039Y-19847436D02*
X19608563Y-19837912D01*
X19770468Y-19933150D02*
X19770468Y-20066484D01*
X19722849Y-19856960D02*
X19675230Y-19999817D01*
X19675230Y-19999817D02*
X19799039Y-19999817D01*
X20027611Y-20066484D02*
X20027611Y-19866484D01*
X20113325Y-20066484D02*
X20113325Y-19961722D01*
X20113325Y-19961722D02*
X20103801Y-19942674D01*
X20103801Y-19942674D02*
X20084753Y-19933150D01*
X20084753Y-19933150D02*
X20056182Y-19933150D01*
X20056182Y-19933150D02*
X20037134Y-19942674D01*
X20037134Y-19942674D02*
X20027611Y-19952198D01*
X20237134Y-20066484D02*
X20218087Y-20056960D01*
X20218087Y-20056960D02*
X20208563Y-20047436D01*
X20208563Y-20047436D02*
X20199039Y-20028389D01*
X20199039Y-20028389D02*
X20199039Y-19971246D01*
X20199039Y-19971246D02*
X20208563Y-19952198D01*
X20208563Y-19952198D02*
X20218087Y-19942674D01*
X20218087Y-19942674D02*
X20237134Y-19933150D01*
X20237134Y-19933150D02*
X20265706Y-19933150D01*
X20265706Y-19933150D02*
X20284753Y-19942674D01*
X20284753Y-19942674D02*
X20294277Y-19952198D01*
X20294277Y-19952198D02*
X20303801Y-19971246D01*
X20303801Y-19971246D02*
X20303801Y-20028389D01*
X20303801Y-20028389D02*
X20294277Y-20047436D01*
X20294277Y-20047436D02*
X20284753Y-20056960D01*
X20284753Y-20056960D02*
X20265706Y-20066484D01*
X20265706Y-20066484D02*
X20237134Y-20066484D01*
X20418087Y-20066484D02*
X20399039Y-20056960D01*
X20399039Y-20056960D02*
X20389515Y-20037912D01*
X20389515Y-20037912D02*
X20389515Y-19866484D01*
X20570468Y-20056960D02*
X20551420Y-20066484D01*
X20551420Y-20066484D02*
X20513325Y-20066484D01*
X20513325Y-20066484D02*
X20494277Y-20056960D01*
X20494277Y-20056960D02*
X20484753Y-20037912D01*
X20484753Y-20037912D02*
X20484753Y-19961722D01*
X20484753Y-19961722D02*
X20494277Y-19942674D01*
X20494277Y-19942674D02*
X20513325Y-19933150D01*
X20513325Y-19933150D02*
X20551420Y-19933150D01*
X20551420Y-19933150D02*
X20570468Y-19942674D01*
X20570468Y-19942674D02*
X20579992Y-19961722D01*
X20579992Y-19961722D02*
X20579992Y-19980770D01*
X20579992Y-19980770D02*
X20484753Y-19999817D01*
X20656182Y-20056960D02*
X20675230Y-20066484D01*
X20675230Y-20066484D02*
X20713325Y-20066484D01*
X20713325Y-20066484D02*
X20732373Y-20056960D01*
X20732373Y-20056960D02*
X20741896Y-20037912D01*
X20741896Y-20037912D02*
X20741896Y-20028389D01*
X20741896Y-20028389D02*
X20732373Y-20009341D01*
X20732373Y-20009341D02*
X20713325Y-19999817D01*
X20713325Y-19999817D02*
X20684753Y-19999817D01*
X20684753Y-19999817D02*
X20665706Y-19990293D01*
X20665706Y-19990293D02*
X20656182Y-19971246D01*
X20656182Y-19971246D02*
X20656182Y-19961722D01*
X20656182Y-19961722D02*
X20665706Y-19942674D01*
X20665706Y-19942674D02*
X20684753Y-19933150D01*
X20684753Y-19933150D02*
X20713325Y-19933150D01*
X20713325Y-19933150D02*
X20732373Y-19942674D01*
X20808563Y-20142674D02*
X20818087Y-20133150D01*
X20818087Y-20133150D02*
X20837134Y-20104579D01*
X20837134Y-20104579D02*
X20846658Y-20085531D01*
X20846658Y-20085531D02*
X20856182Y-20056960D01*
X20856182Y-20056960D02*
X20865706Y-20009341D01*
X20865706Y-20009341D02*
X20865706Y-19971246D01*
X20865706Y-19971246D02*
X20856182Y-19923627D01*
X20856182Y-19923627D02*
X20846658Y-19895055D01*
X20846658Y-19895055D02*
X20837134Y-19876008D01*
X20837134Y-19876008D02*
X20818087Y-19847436D01*
X20818087Y-19847436D02*
X20808563Y-19837912D01*
M02*
