G04 #@! TF.GenerationSoftware,KiCad,Pcbnew,7.0.10*
G04 #@! TF.CreationDate,2024-02-17T13:30:06-08:00*
G04 #@! TF.ProjectId,BLDC_Motor Controller,424c4443-5f4d-46f7-946f-7220436f6e74,rev01_1*
G04 #@! TF.SameCoordinates,Original*
G04 #@! TF.FileFunction,Copper,L3,Inr*
G04 #@! TF.FilePolarity,Positive*
%FSLAX46Y46*%
G04 Gerber Fmt 4.6, Leading zero omitted, Abs format (unit mm)*
G04 Created by KiCad (PCBNEW 7.0.10) date 2024-02-17 13:30:06*
%MOMM*%
%LPD*%
G01*
G04 APERTURE LIST*
G04 #@! TA.AperFunction,ComponentPad*
%ADD10C,2.200000*%
G04 #@! TD*
G04 #@! TA.AperFunction,ComponentPad*
%ADD11O,1.200000X2.000000*%
G04 #@! TD*
G04 #@! TA.AperFunction,ComponentPad*
%ADD12O,1.200000X1.800000*%
G04 #@! TD*
G04 #@! TA.AperFunction,ComponentPad*
%ADD13C,0.800000*%
G04 #@! TD*
G04 #@! TA.AperFunction,ComponentPad*
%ADD14C,6.400000*%
G04 #@! TD*
G04 #@! TA.AperFunction,ComponentPad*
%ADD15C,1.800000*%
G04 #@! TD*
G04 #@! TA.AperFunction,ComponentPad*
%ADD16C,3.800000*%
G04 #@! TD*
G04 #@! TA.AperFunction,ComponentPad*
%ADD17O,1.200000X2.200000*%
G04 #@! TD*
G04 #@! TA.AperFunction,ViaPad*
%ADD18C,0.508000*%
G04 #@! TD*
G04 APERTURE END LIST*
D10*
X236566873Y-139275000D03*
X229067000Y-139275000D03*
D11*
X221074137Y-106095748D03*
D12*
X221074137Y-101895850D03*
D11*
X212423895Y-106095748D03*
D12*
X212423895Y-101895850D03*
D13*
X162960000Y-104200000D03*
X163662944Y-102502944D03*
X163662944Y-105897056D03*
X165360000Y-101800000D03*
D14*
X165360000Y-104200000D03*
D13*
X165360000Y-106600000D03*
X167057056Y-102502944D03*
X167057056Y-105897056D03*
X167760000Y-104200000D03*
X162960000Y-169200000D03*
X163662944Y-167502944D03*
X163662944Y-170897056D03*
X165360000Y-166800000D03*
D14*
X165360000Y-169200000D03*
D13*
X165360000Y-171600000D03*
X167057056Y-167502944D03*
X167057056Y-170897056D03*
X167760000Y-169200000D03*
X252960000Y-169200000D03*
X253662944Y-167502944D03*
X253662944Y-170897056D03*
X255360000Y-166800000D03*
D14*
X255360000Y-169200000D03*
D13*
X255360000Y-171600000D03*
X257057056Y-167502944D03*
X257057056Y-170897056D03*
X257760000Y-169200000D03*
D15*
X250530000Y-155150000D03*
X250530000Y-162770000D03*
X253070000Y-155150000D03*
X253070000Y-162770000D03*
X255610000Y-155150000D03*
X255610000Y-162770000D03*
X258150000Y-155150000D03*
X258150000Y-162770000D03*
D13*
X252960000Y-104200000D03*
X253662944Y-102502944D03*
X253662944Y-105897056D03*
X255360000Y-101800000D03*
D14*
X255360000Y-104200000D03*
D13*
X255360000Y-106600000D03*
X257057056Y-102502944D03*
X257057056Y-105897056D03*
X257760000Y-104200000D03*
D15*
X258150000Y-132290000D03*
X258150000Y-124670000D03*
X255610000Y-132290000D03*
X255610000Y-124670000D03*
X253070000Y-132290000D03*
X253070000Y-124670000D03*
X250530000Y-132290000D03*
X250530000Y-124670000D03*
D16*
X235500152Y-115260292D03*
X242700051Y-115260292D03*
D17*
X245850165Y-109260292D03*
X232350038Y-109260292D03*
D15*
X250530000Y-139910000D03*
X250530000Y-147530000D03*
X253070000Y-139910000D03*
X253070000Y-147530000D03*
X255610000Y-139910000D03*
X255610000Y-147530000D03*
X258150000Y-139910000D03*
X258150000Y-147530000D03*
D10*
X238543172Y-121100589D03*
X231043299Y-121100589D03*
X235495172Y-156914589D03*
X227995299Y-156914589D03*
D18*
X250022000Y-126575000D03*
X240878000Y-127337000D03*
X239100000Y-153245000D03*
X239989000Y-138513000D03*
X238211000Y-139783000D03*
X239100000Y-154515000D03*
X239100000Y-139148000D03*
X240878000Y-138513000D03*
X240878000Y-124162000D03*
X239989000Y-127337000D03*
X238211000Y-123527000D03*
X238211000Y-153245000D03*
X239100000Y-127337000D03*
X240878000Y-155785000D03*
X240878000Y-139783000D03*
X240878000Y-140418000D03*
X240878000Y-141688000D03*
X239989000Y-155150000D03*
X239989000Y-124162000D03*
X239989000Y-141053000D03*
X238211000Y-126067000D03*
X239100000Y-124797000D03*
X240878000Y-157055000D03*
X239100000Y-138513000D03*
X239989000Y-125432000D03*
X240878000Y-156420000D03*
X240878000Y-153880000D03*
X240878000Y-125432000D03*
X239989000Y-139783000D03*
X239989000Y-126702000D03*
X239989000Y-154515000D03*
X240878000Y-126067000D03*
X239100000Y-123527000D03*
X238211000Y-154515000D03*
X239989000Y-153880000D03*
X240878000Y-154515000D03*
X239989000Y-140418000D03*
X239100000Y-155785000D03*
X240878000Y-124797000D03*
X238211000Y-124162000D03*
X239100000Y-139783000D03*
X238211000Y-155785000D03*
X239100000Y-126067000D03*
X239989000Y-123527000D03*
X238211000Y-139148000D03*
X238211000Y-153880000D03*
X239100000Y-157055000D03*
X238211000Y-127337000D03*
X240878000Y-141053000D03*
X240878000Y-123527000D03*
X239100000Y-153880000D03*
X239989000Y-142323000D03*
X239989000Y-155785000D03*
X238211000Y-156420000D03*
X239100000Y-125432000D03*
X240878000Y-155150000D03*
X239100000Y-156420000D03*
X239100000Y-155150000D03*
X239989000Y-153245000D03*
X238211000Y-155150000D03*
X240878000Y-153245000D03*
X238211000Y-157055000D03*
X238211000Y-126702000D03*
X239100000Y-126702000D03*
X239989000Y-124797000D03*
X238211000Y-125432000D03*
X239989000Y-126067000D03*
X239989000Y-139148000D03*
X238211000Y-124797000D03*
X239989000Y-157055000D03*
X238211000Y-138513000D03*
X240878000Y-142323000D03*
X239100000Y-124162000D03*
X239100000Y-140418000D03*
X240878000Y-126702000D03*
X239989000Y-156420000D03*
X240878000Y-139148000D03*
X239989000Y-141688000D03*
X238211000Y-140418000D03*
X228686000Y-143720000D03*
X228686000Y-146895000D03*
X237576000Y-160230000D03*
X228686000Y-146260000D03*
X238465000Y-164040000D03*
X238465000Y-160230000D03*
X228686000Y-144990000D03*
X227670000Y-131274000D03*
X237576000Y-162770000D03*
X228686000Y-145625000D03*
X227670000Y-130004000D03*
X228686000Y-148800000D03*
X238465000Y-162135000D03*
X227797000Y-147530000D03*
X238465000Y-158960000D03*
X228686000Y-147530000D03*
X228686000Y-148165000D03*
X228559000Y-132544000D03*
X227670000Y-133814000D03*
X238465000Y-160865000D03*
X238465000Y-161500000D03*
X228686000Y-144355000D03*
X228559000Y-134449000D03*
X227797000Y-146260000D03*
X227797000Y-144355000D03*
X228559000Y-133814000D03*
X237576000Y-158960000D03*
X227670000Y-133179000D03*
X238465000Y-159595000D03*
X227797000Y-145625000D03*
X238465000Y-162770000D03*
X228559000Y-130639000D03*
X227797000Y-143720000D03*
X237576000Y-164040000D03*
X237576000Y-163405000D03*
X227797000Y-148165000D03*
X227797000Y-144990000D03*
X227670000Y-129369000D03*
X228559000Y-129369000D03*
X227670000Y-132544000D03*
X237576000Y-162135000D03*
X228559000Y-131274000D03*
X228559000Y-130004000D03*
X228559000Y-133179000D03*
X237576000Y-159595000D03*
X237576000Y-160865000D03*
X227797000Y-146895000D03*
X228559000Y-131909000D03*
X237576000Y-161500000D03*
X238465000Y-163405000D03*
X227670000Y-134449000D03*
X227797000Y-148800000D03*
X227670000Y-131909000D03*
X227670000Y-130639000D03*
X238211000Y-141688000D03*
X239100000Y-141688000D03*
X238211000Y-142323000D03*
X239100000Y-141053000D03*
X239100000Y-142323000D03*
X238211000Y-141053000D03*
M02*
