G04 #@! TF.GenerationSoftware,KiCad,Pcbnew,8.0.0*
G04 #@! TF.CreationDate,2024-02-25T15:40:58-08:00*
G04 #@! TF.ProjectId,BLDC_Motor Controller,424c4443-5f4d-46f7-946f-7220436f6e74,rev01_1*
G04 #@! TF.SameCoordinates,Original*
G04 #@! TF.FileFunction,Soldermask,Top*
G04 #@! TF.FilePolarity,Negative*
%FSLAX46Y46*%
G04 Gerber Fmt 4.6, Leading zero omitted, Abs format (unit mm)*
G04 Created by KiCad (PCBNEW 8.0.0) date 2024-02-25 15:40:58*
%MOMM*%
%LPD*%
G01*
G04 APERTURE LIST*
G04 Aperture macros list*
%AMRoundRect*
0 Rectangle with rounded corners*
0 $1 Rounding radius*
0 $2 $3 $4 $5 $6 $7 $8 $9 X,Y pos of 4 corners*
0 Add a 4 corners polygon primitive as box body*
4,1,4,$2,$3,$4,$5,$6,$7,$8,$9,$2,$3,0*
0 Add four circle primitives for the rounded corners*
1,1,$1+$1,$2,$3*
1,1,$1+$1,$4,$5*
1,1,$1+$1,$6,$7*
1,1,$1+$1,$8,$9*
0 Add four rect primitives between the rounded corners*
20,1,$1+$1,$2,$3,$4,$5,0*
20,1,$1+$1,$4,$5,$6,$7,0*
20,1,$1+$1,$6,$7,$8,$9,0*
20,1,$1+$1,$8,$9,$2,$3,0*%
G04 Aperture macros list end*
%ADD10C,2.004000*%
%ADD11RoundRect,0.075000X-0.075000X-0.700000X0.075000X-0.700000X0.075000X0.700000X-0.075000X0.700000X0*%
%ADD12RoundRect,0.075000X-0.700000X-0.075000X0.700000X-0.075000X0.700000X0.075000X-0.700000X0.075000X0*%
%ADD13RoundRect,0.225000X0.017678X-0.335876X0.335876X-0.017678X-0.017678X0.335876X-0.335876X0.017678X0*%
%ADD14RoundRect,0.237500X-0.250000X-0.237500X0.250000X-0.237500X0.250000X0.237500X-0.250000X0.237500X0*%
%ADD15RoundRect,0.225000X0.225000X0.250000X-0.225000X0.250000X-0.225000X-0.250000X0.225000X-0.250000X0*%
%ADD16RoundRect,0.237500X0.250000X0.237500X-0.250000X0.237500X-0.250000X-0.237500X0.250000X-0.237500X0*%
%ADD17C,2.200000*%
%ADD18RoundRect,0.237500X0.237500X-0.250000X0.237500X0.250000X-0.237500X0.250000X-0.237500X-0.250000X0*%
%ADD19R,1.397003X0.609601*%
%ADD20R,3.810008X4.500000*%
%ADD21RoundRect,0.225000X-0.225000X-0.250000X0.225000X-0.250000X0.225000X0.250000X-0.225000X0.250000X0*%
%ADD22R,2.000000X1.200000*%
%ADD23RoundRect,0.225000X-0.250000X0.225000X-0.250000X-0.225000X0.250000X-0.225000X0.250000X0.225000X0*%
%ADD24R,4.500000X1.300000*%
%ADD25R,4.500000X3.000000*%
%ADD26R,1.200000X1.200000*%
%ADD27RoundRect,0.112500X-0.112500X0.187500X-0.112500X-0.187500X0.112500X-0.187500X0.112500X0.187500X0*%
%ADD28RoundRect,0.250000X0.625000X-0.375000X0.625000X0.375000X-0.625000X0.375000X-0.625000X-0.375000X0*%
%ADD29R,1.399543X3.800000*%
%ADD30R,1.600000X4.000000*%
%ADD31RoundRect,0.225000X0.250000X-0.225000X0.250000X0.225000X-0.250000X0.225000X-0.250000X-0.225000X0*%
%ADD32R,1.220000X0.650000*%
%ADD33RoundRect,0.237500X-0.237500X0.250000X-0.237500X-0.250000X0.237500X-0.250000X0.237500X0.250000X0*%
%ADD34R,2.600000X5.600000*%
%ADD35R,2.600000X0.900000*%
%ADD36R,2.400000X1.900000*%
%ADD37RoundRect,0.250000X-0.625000X0.375000X-0.625000X-0.375000X0.625000X-0.375000X0.625000X0.375000X0*%
%ADD38RoundRect,0.112500X0.112500X-0.187500X0.112500X0.187500X-0.112500X0.187500X-0.112500X-0.187500X0*%
%ADD39RoundRect,0.250000X1.000000X0.650000X-1.000000X0.650000X-1.000000X-0.650000X1.000000X-0.650000X0*%
%ADD40RoundRect,0.250000X0.375000X0.625000X-0.375000X0.625000X-0.375000X-0.625000X0.375000X-0.625000X0*%
%ADD41R,1.580010X0.800000*%
%ADD42R,3.610000X6.350000*%
%ADD43R,1.550000X0.300000*%
%ADD44RoundRect,0.237500X-0.008839X-0.344715X0.344715X0.008839X0.008839X0.344715X-0.344715X-0.008839X0*%
%ADD45O,1.200000X1.800000*%
%ADD46O,1.200000X2.000000*%
%ADD47R,0.300000X1.300000*%
%ADD48C,0.750013*%
%ADD49C,0.800000*%
%ADD50C,6.400000*%
%ADD51R,2.000000X1.500000*%
%ADD52R,2.000000X3.800000*%
%ADD53R,7.800025X2.600000*%
%ADD54RoundRect,0.150000X0.825000X0.150000X-0.825000X0.150000X-0.825000X-0.150000X0.825000X-0.150000X0*%
%ADD55RoundRect,0.250000X0.650000X-0.325000X0.650000X0.325000X-0.650000X0.325000X-0.650000X-0.325000X0*%
%ADD56R,0.250013X0.529997*%
%ADD57R,1.300000X4.500000*%
%ADD58R,1.800000X3.900000*%
%ADD59RoundRect,0.225000X-0.335876X-0.017678X-0.017678X-0.335876X0.335876X0.017678X0.017678X0.335876X0*%
%ADD60RoundRect,0.237500X0.287500X0.237500X-0.287500X0.237500X-0.287500X-0.237500X0.287500X-0.237500X0*%
%ADD61R,1.200000X3.500000*%
%ADD62R,1.500000X3.400000*%
%ADD63RoundRect,0.112500X-0.187500X-0.112500X0.187500X-0.112500X0.187500X0.112500X-0.187500X0.112500X0*%
%ADD64R,4.000000X1.300000*%
%ADD65R,4.000000X1.900000*%
%ADD66C,3.800000*%
%ADD67O,1.200000X2.200000*%
G04 APERTURE END LIST*
D10*
X258150000Y-132290000D03*
X258150000Y-124670000D03*
X255610000Y-132290000D03*
X255610000Y-124670000D03*
X253070000Y-132290000D03*
X253070000Y-124670000D03*
X250530000Y-132290000D03*
X250530000Y-124670000D03*
D11*
X188868000Y-132965000D03*
X189368000Y-132965000D03*
X189868000Y-132965000D03*
X190368000Y-132965000D03*
X190868000Y-132965000D03*
X191368000Y-132965000D03*
X191868000Y-132965000D03*
X192368000Y-132965000D03*
X192868000Y-132965000D03*
X193368000Y-132965000D03*
X193868000Y-132965000D03*
X194368000Y-132965000D03*
X194868000Y-132965000D03*
X195368000Y-132965000D03*
X195868000Y-132965000D03*
X196368000Y-132965000D03*
D12*
X198293000Y-134890000D03*
X198293000Y-135390000D03*
X198293000Y-135890000D03*
X198293000Y-136390000D03*
X198293000Y-136890000D03*
X198293000Y-137390000D03*
X198293000Y-137890000D03*
X198293000Y-138390000D03*
X198293000Y-138890000D03*
X198293000Y-139390000D03*
X198293000Y-139890000D03*
X198293000Y-140390000D03*
X198293000Y-140890000D03*
X198293000Y-141390000D03*
X198293000Y-141890000D03*
X198293000Y-142390000D03*
D11*
X196368000Y-144315000D03*
X195868000Y-144315000D03*
X195368000Y-144315000D03*
X194868000Y-144315000D03*
X194368000Y-144315000D03*
X193868000Y-144315000D03*
X193368000Y-144315000D03*
X192868000Y-144315000D03*
X192368000Y-144315000D03*
X191868000Y-144315000D03*
X191368000Y-144315000D03*
X190868000Y-144315000D03*
X190368000Y-144315000D03*
X189868000Y-144315000D03*
X189368000Y-144315000D03*
X188868000Y-144315000D03*
D12*
X186943000Y-142390000D03*
X186943000Y-141890000D03*
X186943000Y-141390000D03*
X186943000Y-140890000D03*
X186943000Y-140390000D03*
X186943000Y-139890000D03*
X186943000Y-139390000D03*
X186943000Y-138890000D03*
X186943000Y-138390000D03*
X186943000Y-137890000D03*
X186943000Y-137390000D03*
X186943000Y-136890000D03*
X186943000Y-136390000D03*
X186943000Y-135890000D03*
X186943000Y-135390000D03*
X186943000Y-134890000D03*
D13*
X219415992Y-145836008D03*
X220512008Y-144739992D03*
D14*
X241784500Y-165862000D03*
X243609500Y-165862000D03*
D13*
X222590992Y-143296008D03*
X223687008Y-142199992D03*
D15*
X201327979Y-156116195D03*
X199777979Y-156116195D03*
X189243000Y-146558000D03*
X187693000Y-146558000D03*
D16*
X244076500Y-149308000D03*
X242251500Y-149308000D03*
D14*
X218924500Y-109093000D03*
X220749500Y-109093000D03*
D16*
X205722500Y-136608000D03*
X203897500Y-136608000D03*
D17*
X236552172Y-140221411D03*
X229052299Y-140221411D03*
D18*
X222855491Y-106322500D03*
X222855491Y-104497500D03*
D19*
X242605189Y-129114971D03*
X242605189Y-130384973D03*
X242605189Y-131654976D03*
X242605189Y-132924978D03*
X248244000Y-132924978D03*
X248244000Y-131654976D03*
X248244000Y-130384973D03*
X248244000Y-129114971D03*
D20*
X246135796Y-131019975D03*
D21*
X199758000Y-159131000D03*
X201308000Y-159131000D03*
D22*
X182499000Y-117220994D03*
X182499000Y-119761000D03*
X189999128Y-119761000D03*
X189999128Y-117220994D03*
D23*
X209128000Y-132277000D03*
X209128000Y-133827000D03*
D24*
X170040000Y-114569987D03*
X170040000Y-117069987D03*
X170040000Y-119570013D03*
X170040000Y-122070013D03*
D25*
X163040000Y-125420076D03*
X163040000Y-111219924D03*
D26*
X221196000Y-132883432D03*
X218396000Y-132883432D03*
D27*
X173101000Y-130903000D03*
X173101000Y-133003000D03*
D28*
X214716000Y-169504000D03*
X214716000Y-166704000D03*
D18*
X255459543Y-110417337D03*
X255459543Y-108592337D03*
D29*
X175778038Y-108785611D03*
X178277911Y-108785103D03*
X180778038Y-108785103D03*
D30*
X183728000Y-102219190D03*
X172828076Y-102228588D03*
D31*
X216535000Y-151905000D03*
X216535000Y-150355000D03*
D14*
X178792500Y-117475000D03*
X180617500Y-117475000D03*
D32*
X173355000Y-117430676D03*
X173355000Y-119330676D03*
X175975000Y-118380676D03*
D23*
X214623012Y-132277000D03*
X214623012Y-133827000D03*
D18*
X203813072Y-157630500D03*
X203813072Y-155805500D03*
D15*
X205378038Y-156116195D03*
X206928038Y-156116195D03*
D33*
X213282794Y-108688500D03*
X213282794Y-110513500D03*
D21*
X204076000Y-144272000D03*
X205626000Y-144272000D03*
D34*
X234119972Y-146389567D03*
D35*
X234119972Y-150483547D03*
D34*
X238519768Y-146389567D03*
D35*
X238519768Y-150483547D03*
D16*
X207241523Y-157607000D03*
X205416523Y-157607000D03*
D36*
X178139797Y-139420051D03*
X178139797Y-135319975D03*
D16*
X229385500Y-112649000D03*
X227560500Y-112649000D03*
X195984500Y-121285000D03*
X194159500Y-121285000D03*
D14*
X245172500Y-151892000D03*
X246997500Y-151892000D03*
D16*
X245387500Y-164465000D03*
X243562500Y-164465000D03*
D21*
X188315000Y-159131000D03*
X189865000Y-159131000D03*
D18*
X174879000Y-132738500D03*
X174879000Y-130913500D03*
D37*
X212430000Y-120984000D03*
X212430000Y-123784000D03*
D18*
X201803000Y-130706500D03*
X201803000Y-128881500D03*
D38*
X173060000Y-139690000D03*
X173060000Y-137590000D03*
D15*
X183995000Y-141732000D03*
X182445000Y-141732000D03*
D19*
X248244000Y-142577029D03*
X248244000Y-141307027D03*
X248244000Y-140037024D03*
X248244000Y-138767022D03*
X242605189Y-138767022D03*
X242605189Y-140037024D03*
X242605189Y-141307027D03*
X242605189Y-142577029D03*
D20*
X244713393Y-140672025D03*
D14*
X248261500Y-115443000D03*
X250086500Y-115443000D03*
D18*
X218780000Y-166984500D03*
X218780000Y-165159500D03*
D39*
X248974000Y-118872000D03*
X244974000Y-118872000D03*
D40*
X255019000Y-115443000D03*
X252219000Y-115443000D03*
D14*
X240768500Y-150622000D03*
X242593500Y-150622000D03*
X182307500Y-137878000D03*
X184132500Y-137878000D03*
D33*
X191897000Y-128627500D03*
X191897000Y-130452500D03*
D41*
X176918000Y-129170114D03*
X182918000Y-129170114D03*
X176918000Y-132869886D03*
X182918000Y-132869886D03*
D14*
X245299500Y-121876000D03*
X247124500Y-121876000D03*
D23*
X180467000Y-134988000D03*
X180467000Y-136538000D03*
D42*
X212415857Y-142100104D03*
D43*
X216165857Y-135350104D03*
X216165857Y-135850104D03*
X216165857Y-136350104D03*
X216165857Y-136850104D03*
X216165857Y-137350104D03*
X216165857Y-137850104D03*
X216165857Y-138350104D03*
X216165857Y-138850104D03*
X216165857Y-139350104D03*
X216165857Y-139850104D03*
X216165857Y-140350104D03*
X216165857Y-140850104D03*
X216165857Y-141350104D03*
X216165857Y-141850104D03*
X216165857Y-142350104D03*
X216165857Y-142850104D03*
X216165857Y-143350104D03*
X216165857Y-143850104D03*
X216165857Y-144350104D03*
X216165857Y-144850104D03*
X216165857Y-145350104D03*
X216165857Y-145850104D03*
X216165857Y-146350104D03*
X216165857Y-146850104D03*
X216165857Y-147350104D03*
X216165857Y-147850104D03*
X216165857Y-148350104D03*
X216165857Y-148850104D03*
X208665857Y-148850104D03*
X208665857Y-148350104D03*
X208665857Y-147850104D03*
X208665857Y-147350104D03*
X208665857Y-146850104D03*
X208665857Y-146350104D03*
X208665857Y-145850104D03*
X208665857Y-145350104D03*
X208665857Y-144850104D03*
X208665857Y-144350104D03*
X208665857Y-143850104D03*
X208665857Y-143350104D03*
X208665857Y-142850104D03*
X208665857Y-142350104D03*
X208665857Y-141850104D03*
X208665857Y-141350104D03*
X208665857Y-140850104D03*
X208665857Y-140350104D03*
X208665857Y-139850104D03*
X208665857Y-139350104D03*
X208665857Y-138850104D03*
X208665857Y-138350104D03*
X208665857Y-137850104D03*
X208665857Y-137350104D03*
X208665857Y-136850104D03*
X208665857Y-136350104D03*
X208665857Y-135850104D03*
X208665857Y-135350104D03*
D31*
X215315876Y-151905000D03*
X215315876Y-150355000D03*
D44*
X240273765Y-135773235D03*
X241564235Y-134482765D03*
D18*
X192097336Y-157630500D03*
X192097336Y-155805500D03*
D19*
X248244000Y-127381266D03*
X248244000Y-126111264D03*
X248244000Y-124841261D03*
X248244000Y-123571259D03*
X242605189Y-123571259D03*
X242605189Y-124841261D03*
X242605189Y-126111264D03*
X242605189Y-127381266D03*
D20*
X244713393Y-125476262D03*
D21*
X204035000Y-139148000D03*
X205585000Y-139148000D03*
X173342000Y-120650000D03*
X174892000Y-120650000D03*
D14*
X203897500Y-137878000D03*
X205722500Y-137878000D03*
D18*
X210687440Y-106322500D03*
X210687440Y-104497500D03*
D19*
X242605189Y-158960000D03*
X242605189Y-160230002D03*
X242605189Y-161500005D03*
X242605189Y-162770007D03*
X248244000Y-162770007D03*
X248244000Y-161500005D03*
X248244000Y-160230002D03*
X248244000Y-158960000D03*
D20*
X246135796Y-160865004D03*
D45*
X212423895Y-101895850D03*
D46*
X212423895Y-106095748D03*
D45*
X221074137Y-101895850D03*
D46*
X221074137Y-106095748D03*
D47*
X219799054Y-106864100D03*
X218998953Y-106864100D03*
X218499080Y-106864100D03*
X217499080Y-106864100D03*
X215998953Y-106864100D03*
X214998953Y-106864100D03*
X214499080Y-106864100D03*
X213698978Y-106864100D03*
X213399003Y-106864100D03*
X214198851Y-106864100D03*
X215499334Y-106864100D03*
X216499080Y-106864100D03*
X216998953Y-106864100D03*
X217998953Y-106864100D03*
X219298927Y-106864100D03*
X220099029Y-106864100D03*
D48*
X213849092Y-105595621D03*
X219648940Y-105595621D03*
D31*
X214118269Y-151905000D03*
X214118269Y-150355000D03*
X215519000Y-116345000D03*
X215519000Y-114795000D03*
D18*
X203327000Y-130706500D03*
X203327000Y-128881500D03*
D15*
X195235500Y-156116195D03*
X193685500Y-156116195D03*
D31*
X217013000Y-116332000D03*
X217013000Y-114782000D03*
D49*
X162960000Y-104200000D03*
X163662944Y-102502944D03*
X163662944Y-105897056D03*
X165360000Y-101800000D03*
D50*
X165360000Y-104200000D03*
D49*
X165360000Y-106600000D03*
X167057056Y-102502944D03*
X167057056Y-105897056D03*
X167760000Y-104200000D03*
D31*
X173482000Y-116218000D03*
X173482000Y-114668000D03*
D49*
X162960000Y-169200000D03*
X163662944Y-167502944D03*
X163662944Y-170897056D03*
X165360000Y-166800000D03*
D50*
X165360000Y-169200000D03*
D49*
X165360000Y-171600000D03*
X167057056Y-167502944D03*
X167057056Y-170897056D03*
X167760000Y-169200000D03*
D33*
X176657000Y-158853500D03*
X176657000Y-160678500D03*
D19*
X248244000Y-157436000D03*
X248244000Y-156165998D03*
X248244000Y-154895995D03*
X248244000Y-153625993D03*
X242605189Y-153625993D03*
X242605189Y-154895995D03*
X242605189Y-156165998D03*
X242605189Y-157436000D03*
D20*
X244713393Y-155530996D03*
D33*
X210144000Y-121725500D03*
X210144000Y-123550500D03*
D14*
X218035500Y-138430000D03*
X219860500Y-138430000D03*
D51*
X206994000Y-115512000D03*
X206994000Y-117812000D03*
D52*
X213294000Y-117812000D03*
D51*
X206994000Y-120112000D03*
D15*
X183995000Y-139656000D03*
X182445000Y-139656000D03*
D14*
X182348500Y-136525000D03*
X184173500Y-136525000D03*
D28*
X221574000Y-169548000D03*
X221574000Y-166748000D03*
D33*
X214630000Y-108688500D03*
X214630000Y-110513500D03*
D14*
X249150500Y-169531337D03*
X250975500Y-169531337D03*
D53*
X219439898Y-129139898D03*
X219439898Y-122740102D03*
D23*
X200152000Y-117208000D03*
X200152000Y-118758000D03*
D31*
X187833000Y-132982000D03*
X187833000Y-131432000D03*
D21*
X197980000Y-130683000D03*
X199530000Y-130683000D03*
D15*
X189878000Y-156083000D03*
X188328000Y-156083000D03*
D31*
X198206000Y-133827000D03*
X198206000Y-132277000D03*
X199476000Y-133827000D03*
X199476000Y-132277000D03*
D18*
X197847576Y-157630500D03*
X197847576Y-155805500D03*
D23*
X213249259Y-132277000D03*
X213249259Y-133827000D03*
D54*
X197801000Y-119888000D03*
X197801000Y-118618000D03*
X197801000Y-117348000D03*
X197801000Y-116078000D03*
X192851000Y-116078000D03*
X192851000Y-117348000D03*
X192851000Y-118618000D03*
X192851000Y-119888000D03*
D33*
X206842000Y-132393500D03*
X206842000Y-134218500D03*
D27*
X218440000Y-114393000D03*
X218440000Y-116493000D03*
D14*
X178792500Y-119253000D03*
X180617500Y-119253000D03*
D33*
X177419000Y-117451500D03*
X177419000Y-119276500D03*
D16*
X244711500Y-134576000D03*
X242886500Y-134576000D03*
D38*
X173101000Y-136051000D03*
X173101000Y-133951000D03*
D49*
X252960000Y-169200000D03*
X253662944Y-167502944D03*
X253662944Y-170897056D03*
X255360000Y-166800000D03*
D50*
X255360000Y-169200000D03*
D49*
X255360000Y-171600000D03*
X257057056Y-167502944D03*
X257057056Y-170897056D03*
X257760000Y-169200000D03*
D31*
X180467000Y-139466684D03*
X180467000Y-137916684D03*
D33*
X182712000Y-108263500D03*
X182712000Y-110088500D03*
X219964000Y-114530500D03*
X219964000Y-116355500D03*
D34*
X233344102Y-131703487D03*
D35*
X233344102Y-135797467D03*
D34*
X237743898Y-131703487D03*
D35*
X237743898Y-135797467D03*
D55*
X211668000Y-130463000D03*
X211668000Y-127513000D03*
D14*
X178157500Y-160782000D03*
X179982500Y-160782000D03*
D16*
X190015500Y-157607000D03*
X188190500Y-157607000D03*
D15*
X183995000Y-144272000D03*
X182445000Y-144272000D03*
D56*
X215911936Y-109924089D03*
X216412064Y-109924089D03*
X216911936Y-109924089D03*
X217412064Y-109924089D03*
X217162127Y-109024064D03*
X216662000Y-109024064D03*
X216162127Y-109024064D03*
D10*
X250530000Y-155150000D03*
X250530000Y-162770000D03*
X253070000Y-155150000D03*
X253070000Y-162770000D03*
X255610000Y-155150000D03*
X255610000Y-162770000D03*
X258150000Y-155150000D03*
X258150000Y-162770000D03*
D33*
X165354000Y-163171500D03*
X165354000Y-164996500D03*
D21*
X204076000Y-142875000D03*
X205626000Y-142875000D03*
X193789000Y-159131000D03*
X195339000Y-159131000D03*
D57*
X189674978Y-164560005D03*
X192174978Y-164560005D03*
X194675004Y-164560005D03*
X197175004Y-164560005D03*
X199675004Y-164560005D03*
X202175004Y-164560005D03*
D58*
X205474877Y-171860107D03*
X186375055Y-171860107D03*
D21*
X204035000Y-140418000D03*
X205585000Y-140418000D03*
D55*
X209158000Y-130463000D03*
X209158000Y-127513000D03*
D49*
X252960000Y-104200000D03*
X253662944Y-102502944D03*
X253662944Y-105897056D03*
X255360000Y-101800000D03*
D50*
X255360000Y-104200000D03*
D49*
X255360000Y-106600000D03*
X257057056Y-102502944D03*
X257057056Y-105897056D03*
X257760000Y-104200000D03*
D23*
X215996765Y-133827000D03*
X215996765Y-132277000D03*
D37*
X222123000Y-113535000D03*
X222123000Y-116335000D03*
D15*
X208420000Y-149816000D03*
X206870000Y-149816000D03*
X186576000Y-133858000D03*
X185026000Y-133858000D03*
D59*
X218272992Y-135976992D03*
X219369008Y-137073008D03*
D16*
X201431524Y-157607000D03*
X199606524Y-157607000D03*
D23*
X210501753Y-132277000D03*
X210501753Y-133827000D03*
D38*
X204556000Y-110734000D03*
X204556000Y-108634000D03*
D60*
X184095000Y-143002000D03*
X182345000Y-143002000D03*
D61*
X176890013Y-164588504D03*
X179389886Y-164588504D03*
D62*
X182340102Y-171638542D03*
X173940051Y-171638542D03*
D18*
X186550000Y-157630500D03*
X186550000Y-155805500D03*
D31*
X222504000Y-140094000D03*
X222504000Y-138544000D03*
D18*
X217002000Y-166984500D03*
X217002000Y-165159500D03*
D21*
X205854000Y-123698000D03*
X207404000Y-123698000D03*
D55*
X206648000Y-130463000D03*
X206648000Y-127513000D03*
D18*
X170012000Y-106024500D03*
X170012000Y-104199500D03*
D16*
X195489500Y-157607000D03*
X193664500Y-157607000D03*
D14*
X245721500Y-137160000D03*
X247546500Y-137160000D03*
D21*
X197431000Y-146006000D03*
X198981000Y-146006000D03*
X197417042Y-144272000D03*
X198967042Y-144272000D03*
D63*
X205579000Y-125603000D03*
X207679000Y-125603000D03*
D23*
X211875506Y-132277000D03*
X211875506Y-133827000D03*
D31*
X184236000Y-109951000D03*
X184236000Y-108401000D03*
D19*
X242605189Y-143974000D03*
X242605189Y-145244002D03*
X242605189Y-146514005D03*
X242605189Y-147784007D03*
X248244000Y-147784007D03*
X248244000Y-146514005D03*
X248244000Y-145244002D03*
X248244000Y-143974000D03*
D20*
X246135796Y-145879004D03*
D21*
X178168000Y-158877000D03*
X179718000Y-158877000D03*
D64*
X169840025Y-134980325D03*
X169840025Y-137480452D03*
X169840025Y-139980325D03*
X169840025Y-142480452D03*
X169840025Y-144980325D03*
X169840025Y-147480452D03*
X169840025Y-149980325D03*
X169840025Y-152480452D03*
D65*
X162840025Y-155730389D03*
X162840025Y-131730389D03*
D14*
X203897500Y-135338000D03*
X205722500Y-135338000D03*
D21*
X205854000Y-122301000D03*
X207404000Y-122301000D03*
D66*
X235500152Y-115260292D03*
X242700051Y-115260292D03*
D67*
X245850165Y-109260292D03*
X232350038Y-109260292D03*
D10*
X250530000Y-139910000D03*
X250530000Y-147530000D03*
X253070000Y-139910000D03*
X253070000Y-147530000D03*
X255610000Y-139910000D03*
X255610000Y-147530000D03*
X258150000Y-139910000D03*
X258150000Y-147530000D03*
D57*
X202673022Y-108655995D03*
X200173022Y-108655995D03*
X197672996Y-108655995D03*
X195172996Y-108655995D03*
X192672996Y-108655995D03*
X190172996Y-108655995D03*
D58*
X186873123Y-101355893D03*
X205972945Y-101355893D03*
D21*
X205600000Y-159131000D03*
X207150000Y-159131000D03*
D17*
X235663172Y-155561589D03*
X228163299Y-155561589D03*
X240870172Y-119239589D03*
X233370299Y-119239589D03*
M02*
