M48
; DRILL file {KiCad 7.0.10} date Sat Feb 17 13:30:02 2024
; FORMAT={-:-/ absolute / inch / decimal}
; #@! TF.CreationDate,2024-02-17T13:30:02-08:00
; #@! TF.GenerationSoftware,Kicad,Pcbnew,7.0.10
; #@! TF.FileFunction,Plated,1,4,PTH
FMAT,2
INCH
; #@! TA.AperFunction,Plated,PTH,ViaDrill
T1C0.0100
; #@! TA.AperFunction,Plated,PTH,ComponentDrill
T2C0.0197
; #@! TA.AperFunction,Plated,PTH,ComponentDrill
T3C0.0236
; #@! TA.AperFunction,Plated,PTH,ComponentDrill
T4C0.0315
; #@! TA.AperFunction,Plated,PTH,ComponentDrill
T5C0.0472
; #@! TA.AperFunction,Plated,PTH,ComponentDrill
T6C0.0600
; #@! TA.AperFunction,Plated,PTH,ComponentDrill
T7C0.1024
; #@! TA.AperFunction,Plated,PTH,ComponentDrill
T8C0.1260
%
G90
G05
T1
X8.9634Y-5.0933
X8.9634Y-5.1183
X8.9634Y-5.1433
X8.9634Y-5.1683
X8.9634Y-5.1933
X8.9634Y-5.2183
X8.9634Y-5.2433
X8.9634Y-5.2683
X8.9634Y-5.2933
X8.9684Y-5.6583
X8.9684Y-5.6833
X8.9684Y-5.7083
X8.9684Y-5.7333
X8.9684Y-5.7583
X8.9684Y-5.7833
X8.9684Y-5.8083
X8.9684Y-5.8333
X8.9684Y-5.8583
X8.9984Y-5.0933
X8.9984Y-5.1183
X8.9984Y-5.1433
X8.9984Y-5.1683
X8.9984Y-5.1933
X8.9984Y-5.2183
X8.9984Y-5.2433
X8.9984Y-5.2683
X8.9984Y-5.2933
X9.0034Y-5.6583
X9.0034Y-5.6833
X9.0034Y-5.7083
X9.0034Y-5.7333
X9.0034Y-5.7583
X9.0034Y-5.7833
X9.0034Y-5.8083
X9.0034Y-5.8333
X9.0034Y-5.8583
X9.3534Y-6.2583
X9.3534Y-6.2833
X9.3534Y-6.3083
X9.3534Y-6.3333
X9.3534Y-6.3583
X9.3534Y-6.3833
X9.3534Y-6.4083
X9.3534Y-6.4333
X9.3534Y-6.4583
X9.3784Y-4.8633
X9.3784Y-4.8883
X9.3784Y-4.9133
X9.3784Y-4.9383
X9.3784Y-4.9633
X9.3784Y-4.9883
X9.3784Y-5.0133
X9.3784Y-5.4533
X9.3784Y-5.4783
X9.3784Y-5.5033
X9.3784Y-5.5283
X9.3784Y-5.5533
X9.3784Y-5.5783
X9.3784Y-5.6033
X9.3784Y-6.0333
X9.3784Y-6.0583
X9.3784Y-6.0833
X9.3784Y-6.1083
X9.3784Y-6.1333
X9.3784Y-6.1583
X9.3784Y-6.1833
X9.3884Y-6.2583
X9.3884Y-6.2833
X9.3884Y-6.3083
X9.3884Y-6.3333
X9.3884Y-6.3583
X9.3884Y-6.3833
X9.3884Y-6.4083
X9.3884Y-6.4333
X9.3884Y-6.4583
X9.4134Y-4.8633
X9.4134Y-4.8883
X9.4134Y-4.9133
X9.4134Y-4.9383
X9.4134Y-4.9633
X9.4134Y-4.9883
X9.4134Y-5.0133
X9.4134Y-5.4533
X9.4134Y-5.4783
X9.4134Y-5.5033
X9.4134Y-5.5283
X9.4134Y-5.5533
X9.4134Y-5.5783
X9.4134Y-5.6033
X9.4134Y-6.0333
X9.4134Y-6.0583
X9.4134Y-6.0833
X9.4134Y-6.1083
X9.4134Y-6.1333
X9.4134Y-6.1583
X9.4134Y-6.1833
X9.4484Y-4.8633
X9.4484Y-4.8883
X9.4484Y-4.9133
X9.4484Y-4.9383
X9.4484Y-4.9633
X9.4484Y-4.9883
X9.4484Y-5.0133
X9.4484Y-5.4533
X9.4484Y-5.4783
X9.4484Y-5.5033
X9.4484Y-5.5283
X9.4484Y-5.5533
X9.4484Y-5.5783
X9.4484Y-5.6033
X9.4484Y-6.0333
X9.4484Y-6.0583
X9.4484Y-6.0833
X9.4484Y-6.1083
X9.4484Y-6.1333
X9.4484Y-6.1583
X9.4484Y-6.1833
X9.4834Y-4.8633
X9.4834Y-4.8883
X9.4834Y-4.9133
X9.4834Y-4.9383
X9.4834Y-4.9633
X9.4834Y-4.9883
X9.4834Y-5.0133
X9.4834Y-5.4533
X9.4834Y-5.4783
X9.4834Y-5.5033
X9.4834Y-5.5283
X9.4834Y-5.5533
X9.4834Y-5.5783
X9.4834Y-5.6033
X9.4834Y-6.0333
X9.4834Y-6.0583
X9.4834Y-6.0833
X9.4834Y-6.1083
X9.4834Y-6.1333
X9.4834Y-6.1583
X9.4834Y-6.1833
X9.8434Y-4.9833
T2
X6.4157Y-4.1024
X6.4157Y-6.6614
X6.4434Y-4.0355
X6.4434Y-4.1692
X6.4434Y-6.5946
X6.4434Y-6.7282
X6.5102Y-4.0079
X6.5102Y-4.1969
X6.5102Y-6.5669
X6.5102Y-6.7559
X6.577Y-4.0355
X6.577Y-4.1692
X6.577Y-6.5946
X6.577Y-6.7282
X6.6047Y-4.1024
X6.6047Y-6.6614
X9.9591Y-4.1024
X9.9591Y-6.6614
X9.9867Y-4.0355
X9.9867Y-4.1692
X9.9867Y-6.5946
X9.9867Y-6.7282
X10.0535Y-4.0079
X10.0535Y-4.1969
X10.0535Y-6.5669
X10.0535Y-6.7559
X10.1204Y-4.0355
X10.1204Y-4.1692
X10.1204Y-6.5946
X10.1204Y-6.7282
X10.148Y-4.1024
X10.148Y-6.6614
T5
X8.9762Y-6.1777
X9.0184Y-5.4833
X9.0962Y-4.7677
X9.2715Y-6.1777
X9.3137Y-5.4833
X9.3915Y-4.7677
T6
X9.8634Y-4.9083
X9.8634Y-5.2083
X9.8634Y-5.5083
X9.8634Y-5.8083
X9.8634Y-6.1083
X9.8634Y-6.4083
X9.9634Y-4.9083
X9.9634Y-5.2083
X9.9634Y-5.5083
X9.9634Y-5.8083
X9.9634Y-6.1083
X9.9634Y-6.4083
X10.0634Y-4.9083
X10.0634Y-5.2083
X10.0634Y-5.5083
X10.0634Y-5.8083
X10.0634Y-6.1083
X10.0634Y-6.4083
X10.1634Y-4.9083
X10.1634Y-5.2083
X10.1634Y-5.5083
X10.1634Y-5.8083
X10.1634Y-6.1083
X10.1634Y-6.4083
T7
X9.2717Y-4.5378
X9.5551Y-4.5378
T8
X6.5102Y-4.1024
X6.5102Y-6.6614
X10.0535Y-4.1024
X10.0535Y-6.6614
T3
G00X9.1476Y-4.2819
M15
G01X9.1476Y-4.3213
M16
G05
G00X9.6791Y-4.2819
M15
G01X9.6791Y-4.3213
M16
G05
T4
G00X8.3631Y-4.0235
M15
G01X8.3631Y-3.9998
M16
G05
G00X8.3631Y-4.1927
M15
G01X8.3631Y-4.1613
M16
G05
G00X8.7037Y-4.0235
M15
G01X8.7037Y-3.9998
M16
G05
G00X8.7037Y-4.1927
M15
G01X8.7037Y-4.1612
M16
G05
M30
