G04 #@! TF.GenerationSoftware,KiCad,Pcbnew,8.0.0*
G04 #@! TF.CreationDate,2024-02-25T15:40:58-08:00*
G04 #@! TF.ProjectId,BLDC_Motor Controller,424c4443-5f4d-46f7-946f-7220436f6e74,rev01_1*
G04 #@! TF.SameCoordinates,Original*
G04 #@! TF.FileFunction,Legend,Bot*
G04 #@! TF.FilePolarity,Positive*
%FSLAX46Y46*%
G04 Gerber Fmt 4.6, Leading zero omitted, Abs format (unit mm)*
G04 Created by KiCad (PCBNEW 8.0.0) date 2024-02-25 15:40:58*
%MOMM*%
%LPD*%
G01*
G04 APERTURE LIST*
%ADD10C,0.150000*%
%ADD11C,0.120000*%
%ADD12C,0.254000*%
G04 APERTURE END LIST*
D10*
X212355580Y-141089142D02*
X212403200Y-141041523D01*
X212403200Y-141041523D02*
X212450819Y-140898666D01*
X212450819Y-140898666D02*
X212450819Y-140803428D01*
X212450819Y-140803428D02*
X212403200Y-140660571D01*
X212403200Y-140660571D02*
X212307961Y-140565333D01*
X212307961Y-140565333D02*
X212212723Y-140517714D01*
X212212723Y-140517714D02*
X212022247Y-140470095D01*
X212022247Y-140470095D02*
X211879390Y-140470095D01*
X211879390Y-140470095D02*
X211688914Y-140517714D01*
X211688914Y-140517714D02*
X211593676Y-140565333D01*
X211593676Y-140565333D02*
X211498438Y-140660571D01*
X211498438Y-140660571D02*
X211450819Y-140803428D01*
X211450819Y-140803428D02*
X211450819Y-140898666D01*
X211450819Y-140898666D02*
X211498438Y-141041523D01*
X211498438Y-141041523D02*
X211546057Y-141089142D01*
X211546057Y-141470095D02*
X211498438Y-141517714D01*
X211498438Y-141517714D02*
X211450819Y-141612952D01*
X211450819Y-141612952D02*
X211450819Y-141851047D01*
X211450819Y-141851047D02*
X211498438Y-141946285D01*
X211498438Y-141946285D02*
X211546057Y-141993904D01*
X211546057Y-141993904D02*
X211641295Y-142041523D01*
X211641295Y-142041523D02*
X211736533Y-142041523D01*
X211736533Y-142041523D02*
X211879390Y-141993904D01*
X211879390Y-141993904D02*
X212450819Y-141422476D01*
X212450819Y-141422476D02*
X212450819Y-142041523D01*
X211784152Y-142898666D02*
X212450819Y-142898666D01*
X211403200Y-142660571D02*
X212117485Y-142422476D01*
X212117485Y-142422476D02*
X212117485Y-143041523D01*
X183903857Y-138408580D02*
X183951476Y-138456200D01*
X183951476Y-138456200D02*
X184094333Y-138503819D01*
X184094333Y-138503819D02*
X184189571Y-138503819D01*
X184189571Y-138503819D02*
X184332428Y-138456200D01*
X184332428Y-138456200D02*
X184427666Y-138360961D01*
X184427666Y-138360961D02*
X184475285Y-138265723D01*
X184475285Y-138265723D02*
X184522904Y-138075247D01*
X184522904Y-138075247D02*
X184522904Y-137932390D01*
X184522904Y-137932390D02*
X184475285Y-137741914D01*
X184475285Y-137741914D02*
X184427666Y-137646676D01*
X184427666Y-137646676D02*
X184332428Y-137551438D01*
X184332428Y-137551438D02*
X184189571Y-137503819D01*
X184189571Y-137503819D02*
X184094333Y-137503819D01*
X184094333Y-137503819D02*
X183951476Y-137551438D01*
X183951476Y-137551438D02*
X183903857Y-137599057D01*
X182999095Y-137503819D02*
X183475285Y-137503819D01*
X183475285Y-137503819D02*
X183522904Y-137980009D01*
X183522904Y-137980009D02*
X183475285Y-137932390D01*
X183475285Y-137932390D02*
X183380047Y-137884771D01*
X183380047Y-137884771D02*
X183141952Y-137884771D01*
X183141952Y-137884771D02*
X183046714Y-137932390D01*
X183046714Y-137932390D02*
X182999095Y-137980009D01*
X182999095Y-137980009D02*
X182951476Y-138075247D01*
X182951476Y-138075247D02*
X182951476Y-138313342D01*
X182951476Y-138313342D02*
X182999095Y-138408580D01*
X182999095Y-138408580D02*
X183046714Y-138456200D01*
X183046714Y-138456200D02*
X183141952Y-138503819D01*
X183141952Y-138503819D02*
X183380047Y-138503819D01*
X183380047Y-138503819D02*
X183475285Y-138456200D01*
X183475285Y-138456200D02*
X183522904Y-138408580D01*
X182380047Y-137932390D02*
X182475285Y-137884771D01*
X182475285Y-137884771D02*
X182522904Y-137837152D01*
X182522904Y-137837152D02*
X182570523Y-137741914D01*
X182570523Y-137741914D02*
X182570523Y-137694295D01*
X182570523Y-137694295D02*
X182522904Y-137599057D01*
X182522904Y-137599057D02*
X182475285Y-137551438D01*
X182475285Y-137551438D02*
X182380047Y-137503819D01*
X182380047Y-137503819D02*
X182189571Y-137503819D01*
X182189571Y-137503819D02*
X182094333Y-137551438D01*
X182094333Y-137551438D02*
X182046714Y-137599057D01*
X182046714Y-137599057D02*
X181999095Y-137694295D01*
X181999095Y-137694295D02*
X181999095Y-137741914D01*
X181999095Y-137741914D02*
X182046714Y-137837152D01*
X182046714Y-137837152D02*
X182094333Y-137884771D01*
X182094333Y-137884771D02*
X182189571Y-137932390D01*
X182189571Y-137932390D02*
X182380047Y-137932390D01*
X182380047Y-137932390D02*
X182475285Y-137980009D01*
X182475285Y-137980009D02*
X182522904Y-138027628D01*
X182522904Y-138027628D02*
X182570523Y-138122866D01*
X182570523Y-138122866D02*
X182570523Y-138313342D01*
X182570523Y-138313342D02*
X182522904Y-138408580D01*
X182522904Y-138408580D02*
X182475285Y-138456200D01*
X182475285Y-138456200D02*
X182380047Y-138503819D01*
X182380047Y-138503819D02*
X182189571Y-138503819D01*
X182189571Y-138503819D02*
X182094333Y-138456200D01*
X182094333Y-138456200D02*
X182046714Y-138408580D01*
X182046714Y-138408580D02*
X181999095Y-138313342D01*
X181999095Y-138313342D02*
X181999095Y-138122866D01*
X181999095Y-138122866D02*
X182046714Y-138027628D01*
X182046714Y-138027628D02*
X182094333Y-137980009D01*
X182094333Y-137980009D02*
X182189571Y-137932390D01*
X191843819Y-147439142D02*
X191367628Y-147105809D01*
X191843819Y-146867714D02*
X190843819Y-146867714D01*
X190843819Y-146867714D02*
X190843819Y-147248666D01*
X190843819Y-147248666D02*
X190891438Y-147343904D01*
X190891438Y-147343904D02*
X190939057Y-147391523D01*
X190939057Y-147391523D02*
X191034295Y-147439142D01*
X191034295Y-147439142D02*
X191177152Y-147439142D01*
X191177152Y-147439142D02*
X191272390Y-147391523D01*
X191272390Y-147391523D02*
X191320009Y-147343904D01*
X191320009Y-147343904D02*
X191367628Y-147248666D01*
X191367628Y-147248666D02*
X191367628Y-146867714D01*
X191843819Y-148391523D02*
X191843819Y-147820095D01*
X191843819Y-148105809D02*
X190843819Y-148105809D01*
X190843819Y-148105809D02*
X190986676Y-148010571D01*
X190986676Y-148010571D02*
X191081914Y-147915333D01*
X191081914Y-147915333D02*
X191129533Y-147820095D01*
X190843819Y-148724857D02*
X190843819Y-149391523D01*
X190843819Y-149391523D02*
X191843819Y-148962952D01*
X212478857Y-153870819D02*
X212812190Y-153394628D01*
X213050285Y-153870819D02*
X213050285Y-152870819D01*
X213050285Y-152870819D02*
X212669333Y-152870819D01*
X212669333Y-152870819D02*
X212574095Y-152918438D01*
X212574095Y-152918438D02*
X212526476Y-152966057D01*
X212526476Y-152966057D02*
X212478857Y-153061295D01*
X212478857Y-153061295D02*
X212478857Y-153204152D01*
X212478857Y-153204152D02*
X212526476Y-153299390D01*
X212526476Y-153299390D02*
X212574095Y-153347009D01*
X212574095Y-153347009D02*
X212669333Y-153394628D01*
X212669333Y-153394628D02*
X213050285Y-153394628D01*
X212097904Y-152966057D02*
X212050285Y-152918438D01*
X212050285Y-152918438D02*
X211955047Y-152870819D01*
X211955047Y-152870819D02*
X211716952Y-152870819D01*
X211716952Y-152870819D02*
X211621714Y-152918438D01*
X211621714Y-152918438D02*
X211574095Y-152966057D01*
X211574095Y-152966057D02*
X211526476Y-153061295D01*
X211526476Y-153061295D02*
X211526476Y-153156533D01*
X211526476Y-153156533D02*
X211574095Y-153299390D01*
X211574095Y-153299390D02*
X212145523Y-153870819D01*
X212145523Y-153870819D02*
X211526476Y-153870819D01*
X210907428Y-152870819D02*
X210812190Y-152870819D01*
X210812190Y-152870819D02*
X210716952Y-152918438D01*
X210716952Y-152918438D02*
X210669333Y-152966057D01*
X210669333Y-152966057D02*
X210621714Y-153061295D01*
X210621714Y-153061295D02*
X210574095Y-153251771D01*
X210574095Y-153251771D02*
X210574095Y-153489866D01*
X210574095Y-153489866D02*
X210621714Y-153680342D01*
X210621714Y-153680342D02*
X210669333Y-153775580D01*
X210669333Y-153775580D02*
X210716952Y-153823200D01*
X210716952Y-153823200D02*
X210812190Y-153870819D01*
X210812190Y-153870819D02*
X210907428Y-153870819D01*
X210907428Y-153870819D02*
X211002666Y-153823200D01*
X211002666Y-153823200D02*
X211050285Y-153775580D01*
X211050285Y-153775580D02*
X211097904Y-153680342D01*
X211097904Y-153680342D02*
X211145523Y-153489866D01*
X211145523Y-153489866D02*
X211145523Y-153251771D01*
X211145523Y-153251771D02*
X211097904Y-153061295D01*
X211097904Y-153061295D02*
X211050285Y-152966057D01*
X211050285Y-152966057D02*
X211002666Y-152918438D01*
X211002666Y-152918438D02*
X210907428Y-152870819D01*
X232671857Y-156188580D02*
X232719476Y-156236200D01*
X232719476Y-156236200D02*
X232862333Y-156283819D01*
X232862333Y-156283819D02*
X232957571Y-156283819D01*
X232957571Y-156283819D02*
X233100428Y-156236200D01*
X233100428Y-156236200D02*
X233195666Y-156140961D01*
X233195666Y-156140961D02*
X233243285Y-156045723D01*
X233243285Y-156045723D02*
X233290904Y-155855247D01*
X233290904Y-155855247D02*
X233290904Y-155712390D01*
X233290904Y-155712390D02*
X233243285Y-155521914D01*
X233243285Y-155521914D02*
X233195666Y-155426676D01*
X233195666Y-155426676D02*
X233100428Y-155331438D01*
X233100428Y-155331438D02*
X232957571Y-155283819D01*
X232957571Y-155283819D02*
X232862333Y-155283819D01*
X232862333Y-155283819D02*
X232719476Y-155331438D01*
X232719476Y-155331438D02*
X232671857Y-155379057D01*
X231767095Y-155283819D02*
X232243285Y-155283819D01*
X232243285Y-155283819D02*
X232290904Y-155760009D01*
X232290904Y-155760009D02*
X232243285Y-155712390D01*
X232243285Y-155712390D02*
X232148047Y-155664771D01*
X232148047Y-155664771D02*
X231909952Y-155664771D01*
X231909952Y-155664771D02*
X231814714Y-155712390D01*
X231814714Y-155712390D02*
X231767095Y-155760009D01*
X231767095Y-155760009D02*
X231719476Y-155855247D01*
X231719476Y-155855247D02*
X231719476Y-156093342D01*
X231719476Y-156093342D02*
X231767095Y-156188580D01*
X231767095Y-156188580D02*
X231814714Y-156236200D01*
X231814714Y-156236200D02*
X231909952Y-156283819D01*
X231909952Y-156283819D02*
X232148047Y-156283819D01*
X232148047Y-156283819D02*
X232243285Y-156236200D01*
X232243285Y-156236200D02*
X232290904Y-156188580D01*
X231386142Y-155283819D02*
X230719476Y-155283819D01*
X230719476Y-155283819D02*
X231148047Y-156283819D01*
X225940857Y-150187819D02*
X226274190Y-149711628D01*
X226512285Y-150187819D02*
X226512285Y-149187819D01*
X226512285Y-149187819D02*
X226131333Y-149187819D01*
X226131333Y-149187819D02*
X226036095Y-149235438D01*
X226036095Y-149235438D02*
X225988476Y-149283057D01*
X225988476Y-149283057D02*
X225940857Y-149378295D01*
X225940857Y-149378295D02*
X225940857Y-149521152D01*
X225940857Y-149521152D02*
X225988476Y-149616390D01*
X225988476Y-149616390D02*
X226036095Y-149664009D01*
X226036095Y-149664009D02*
X226131333Y-149711628D01*
X226131333Y-149711628D02*
X226512285Y-149711628D01*
X225607523Y-149187819D02*
X224988476Y-149187819D01*
X224988476Y-149187819D02*
X225321809Y-149568771D01*
X225321809Y-149568771D02*
X225178952Y-149568771D01*
X225178952Y-149568771D02*
X225083714Y-149616390D01*
X225083714Y-149616390D02*
X225036095Y-149664009D01*
X225036095Y-149664009D02*
X224988476Y-149759247D01*
X224988476Y-149759247D02*
X224988476Y-149997342D01*
X224988476Y-149997342D02*
X225036095Y-150092580D01*
X225036095Y-150092580D02*
X225083714Y-150140200D01*
X225083714Y-150140200D02*
X225178952Y-150187819D01*
X225178952Y-150187819D02*
X225464666Y-150187819D01*
X225464666Y-150187819D02*
X225559904Y-150140200D01*
X225559904Y-150140200D02*
X225607523Y-150092580D01*
X224655142Y-149187819D02*
X224036095Y-149187819D01*
X224036095Y-149187819D02*
X224369428Y-149568771D01*
X224369428Y-149568771D02*
X224226571Y-149568771D01*
X224226571Y-149568771D02*
X224131333Y-149616390D01*
X224131333Y-149616390D02*
X224083714Y-149664009D01*
X224083714Y-149664009D02*
X224036095Y-149759247D01*
X224036095Y-149759247D02*
X224036095Y-149997342D01*
X224036095Y-149997342D02*
X224083714Y-150092580D01*
X224083714Y-150092580D02*
X224131333Y-150140200D01*
X224131333Y-150140200D02*
X224226571Y-150187819D01*
X224226571Y-150187819D02*
X224512285Y-150187819D01*
X224512285Y-150187819D02*
X224607523Y-150140200D01*
X224607523Y-150140200D02*
X224655142Y-150092580D01*
X210192857Y-134438580D02*
X210240476Y-134486200D01*
X210240476Y-134486200D02*
X210383333Y-134533819D01*
X210383333Y-134533819D02*
X210478571Y-134533819D01*
X210478571Y-134533819D02*
X210621428Y-134486200D01*
X210621428Y-134486200D02*
X210716666Y-134390961D01*
X210716666Y-134390961D02*
X210764285Y-134295723D01*
X210764285Y-134295723D02*
X210811904Y-134105247D01*
X210811904Y-134105247D02*
X210811904Y-133962390D01*
X210811904Y-133962390D02*
X210764285Y-133771914D01*
X210764285Y-133771914D02*
X210716666Y-133676676D01*
X210716666Y-133676676D02*
X210621428Y-133581438D01*
X210621428Y-133581438D02*
X210478571Y-133533819D01*
X210478571Y-133533819D02*
X210383333Y-133533819D01*
X210383333Y-133533819D02*
X210240476Y-133581438D01*
X210240476Y-133581438D02*
X210192857Y-133629057D01*
X209811904Y-133629057D02*
X209764285Y-133581438D01*
X209764285Y-133581438D02*
X209669047Y-133533819D01*
X209669047Y-133533819D02*
X209430952Y-133533819D01*
X209430952Y-133533819D02*
X209335714Y-133581438D01*
X209335714Y-133581438D02*
X209288095Y-133629057D01*
X209288095Y-133629057D02*
X209240476Y-133724295D01*
X209240476Y-133724295D02*
X209240476Y-133819533D01*
X209240476Y-133819533D02*
X209288095Y-133962390D01*
X209288095Y-133962390D02*
X209859523Y-134533819D01*
X209859523Y-134533819D02*
X209240476Y-134533819D01*
X208907142Y-133533819D02*
X208288095Y-133533819D01*
X208288095Y-133533819D02*
X208621428Y-133914771D01*
X208621428Y-133914771D02*
X208478571Y-133914771D01*
X208478571Y-133914771D02*
X208383333Y-133962390D01*
X208383333Y-133962390D02*
X208335714Y-134010009D01*
X208335714Y-134010009D02*
X208288095Y-134105247D01*
X208288095Y-134105247D02*
X208288095Y-134343342D01*
X208288095Y-134343342D02*
X208335714Y-134438580D01*
X208335714Y-134438580D02*
X208383333Y-134486200D01*
X208383333Y-134486200D02*
X208478571Y-134533819D01*
X208478571Y-134533819D02*
X208764285Y-134533819D01*
X208764285Y-134533819D02*
X208859523Y-134486200D01*
X208859523Y-134486200D02*
X208907142Y-134438580D01*
X212605857Y-155394819D02*
X212939190Y-154918628D01*
X213177285Y-155394819D02*
X213177285Y-154394819D01*
X213177285Y-154394819D02*
X212796333Y-154394819D01*
X212796333Y-154394819D02*
X212701095Y-154442438D01*
X212701095Y-154442438D02*
X212653476Y-154490057D01*
X212653476Y-154490057D02*
X212605857Y-154585295D01*
X212605857Y-154585295D02*
X212605857Y-154728152D01*
X212605857Y-154728152D02*
X212653476Y-154823390D01*
X212653476Y-154823390D02*
X212701095Y-154871009D01*
X212701095Y-154871009D02*
X212796333Y-154918628D01*
X212796333Y-154918628D02*
X213177285Y-154918628D01*
X211653476Y-155394819D02*
X212224904Y-155394819D01*
X211939190Y-155394819D02*
X211939190Y-154394819D01*
X211939190Y-154394819D02*
X212034428Y-154537676D01*
X212034428Y-154537676D02*
X212129666Y-154632914D01*
X212129666Y-154632914D02*
X212224904Y-154680533D01*
X210796333Y-154394819D02*
X210986809Y-154394819D01*
X210986809Y-154394819D02*
X211082047Y-154442438D01*
X211082047Y-154442438D02*
X211129666Y-154490057D01*
X211129666Y-154490057D02*
X211224904Y-154632914D01*
X211224904Y-154632914D02*
X211272523Y-154823390D01*
X211272523Y-154823390D02*
X211272523Y-155204342D01*
X211272523Y-155204342D02*
X211224904Y-155299580D01*
X211224904Y-155299580D02*
X211177285Y-155347200D01*
X211177285Y-155347200D02*
X211082047Y-155394819D01*
X211082047Y-155394819D02*
X210891571Y-155394819D01*
X210891571Y-155394819D02*
X210796333Y-155347200D01*
X210796333Y-155347200D02*
X210748714Y-155299580D01*
X210748714Y-155299580D02*
X210701095Y-155204342D01*
X210701095Y-155204342D02*
X210701095Y-154966247D01*
X210701095Y-154966247D02*
X210748714Y-154871009D01*
X210748714Y-154871009D02*
X210796333Y-154823390D01*
X210796333Y-154823390D02*
X210891571Y-154775771D01*
X210891571Y-154775771D02*
X211082047Y-154775771D01*
X211082047Y-154775771D02*
X211177285Y-154823390D01*
X211177285Y-154823390D02*
X211224904Y-154871009D01*
X211224904Y-154871009D02*
X211272523Y-154966247D01*
X193334819Y-139946142D02*
X192858628Y-139612809D01*
X193334819Y-139374714D02*
X192334819Y-139374714D01*
X192334819Y-139374714D02*
X192334819Y-139755666D01*
X192334819Y-139755666D02*
X192382438Y-139850904D01*
X192382438Y-139850904D02*
X192430057Y-139898523D01*
X192430057Y-139898523D02*
X192525295Y-139946142D01*
X192525295Y-139946142D02*
X192668152Y-139946142D01*
X192668152Y-139946142D02*
X192763390Y-139898523D01*
X192763390Y-139898523D02*
X192811009Y-139850904D01*
X192811009Y-139850904D02*
X192858628Y-139755666D01*
X192858628Y-139755666D02*
X192858628Y-139374714D01*
X192430057Y-140327095D02*
X192382438Y-140374714D01*
X192382438Y-140374714D02*
X192334819Y-140469952D01*
X192334819Y-140469952D02*
X192334819Y-140708047D01*
X192334819Y-140708047D02*
X192382438Y-140803285D01*
X192382438Y-140803285D02*
X192430057Y-140850904D01*
X192430057Y-140850904D02*
X192525295Y-140898523D01*
X192525295Y-140898523D02*
X192620533Y-140898523D01*
X192620533Y-140898523D02*
X192763390Y-140850904D01*
X192763390Y-140850904D02*
X193334819Y-140279476D01*
X193334819Y-140279476D02*
X193334819Y-140898523D01*
X192334819Y-141231857D02*
X192334819Y-141850904D01*
X192334819Y-141850904D02*
X192715771Y-141517571D01*
X192715771Y-141517571D02*
X192715771Y-141660428D01*
X192715771Y-141660428D02*
X192763390Y-141755666D01*
X192763390Y-141755666D02*
X192811009Y-141803285D01*
X192811009Y-141803285D02*
X192906247Y-141850904D01*
X192906247Y-141850904D02*
X193144342Y-141850904D01*
X193144342Y-141850904D02*
X193239580Y-141803285D01*
X193239580Y-141803285D02*
X193287200Y-141755666D01*
X193287200Y-141755666D02*
X193334819Y-141660428D01*
X193334819Y-141660428D02*
X193334819Y-141374714D01*
X193334819Y-141374714D02*
X193287200Y-141279476D01*
X193287200Y-141279476D02*
X193239580Y-141231857D01*
X225940857Y-148790819D02*
X226274190Y-148314628D01*
X226512285Y-148790819D02*
X226512285Y-147790819D01*
X226512285Y-147790819D02*
X226131333Y-147790819D01*
X226131333Y-147790819D02*
X226036095Y-147838438D01*
X226036095Y-147838438D02*
X225988476Y-147886057D01*
X225988476Y-147886057D02*
X225940857Y-147981295D01*
X225940857Y-147981295D02*
X225940857Y-148124152D01*
X225940857Y-148124152D02*
X225988476Y-148219390D01*
X225988476Y-148219390D02*
X226036095Y-148267009D01*
X226036095Y-148267009D02*
X226131333Y-148314628D01*
X226131333Y-148314628D02*
X226512285Y-148314628D01*
X225607523Y-147790819D02*
X224988476Y-147790819D01*
X224988476Y-147790819D02*
X225321809Y-148171771D01*
X225321809Y-148171771D02*
X225178952Y-148171771D01*
X225178952Y-148171771D02*
X225083714Y-148219390D01*
X225083714Y-148219390D02*
X225036095Y-148267009D01*
X225036095Y-148267009D02*
X224988476Y-148362247D01*
X224988476Y-148362247D02*
X224988476Y-148600342D01*
X224988476Y-148600342D02*
X225036095Y-148695580D01*
X225036095Y-148695580D02*
X225083714Y-148743200D01*
X225083714Y-148743200D02*
X225178952Y-148790819D01*
X225178952Y-148790819D02*
X225464666Y-148790819D01*
X225464666Y-148790819D02*
X225559904Y-148743200D01*
X225559904Y-148743200D02*
X225607523Y-148695580D01*
X224607523Y-147886057D02*
X224559904Y-147838438D01*
X224559904Y-147838438D02*
X224464666Y-147790819D01*
X224464666Y-147790819D02*
X224226571Y-147790819D01*
X224226571Y-147790819D02*
X224131333Y-147838438D01*
X224131333Y-147838438D02*
X224083714Y-147886057D01*
X224083714Y-147886057D02*
X224036095Y-147981295D01*
X224036095Y-147981295D02*
X224036095Y-148076533D01*
X224036095Y-148076533D02*
X224083714Y-148219390D01*
X224083714Y-148219390D02*
X224655142Y-148790819D01*
X224655142Y-148790819D02*
X224036095Y-148790819D01*
X196601963Y-146318174D02*
X197174382Y-146217159D01*
X197006024Y-146722235D02*
X197713130Y-146015128D01*
X197713130Y-146015128D02*
X197443756Y-145745754D01*
X197443756Y-145745754D02*
X197342741Y-145712082D01*
X197342741Y-145712082D02*
X197275398Y-145712082D01*
X197275398Y-145712082D02*
X197174382Y-145745754D01*
X197174382Y-145745754D02*
X197073367Y-145846769D01*
X197073367Y-145846769D02*
X197039695Y-145947785D01*
X197039695Y-145947785D02*
X197039695Y-146015128D01*
X197039695Y-146015128D02*
X197073367Y-146116143D01*
X197073367Y-146116143D02*
X197342741Y-146385517D01*
X196972352Y-145409037D02*
X196972352Y-145341693D01*
X196972352Y-145341693D02*
X196938680Y-145240678D01*
X196938680Y-145240678D02*
X196770321Y-145072319D01*
X196770321Y-145072319D02*
X196669306Y-145038647D01*
X196669306Y-145038647D02*
X196601963Y-145038647D01*
X196601963Y-145038647D02*
X196500947Y-145072319D01*
X196500947Y-145072319D02*
X196433604Y-145139663D01*
X196433604Y-145139663D02*
X196366260Y-145274350D01*
X196366260Y-145274350D02*
X196366260Y-146082472D01*
X196366260Y-146082472D02*
X195928528Y-145644739D01*
X195255092Y-144971304D02*
X195659153Y-145375365D01*
X195457123Y-145173334D02*
X196164230Y-144466227D01*
X196164230Y-144466227D02*
X196130558Y-144634586D01*
X196130558Y-144634586D02*
X196130558Y-144769273D01*
X196130558Y-144769273D02*
X196164230Y-144870288D01*
X226067857Y-145869819D02*
X226401190Y-145393628D01*
X226639285Y-145869819D02*
X226639285Y-144869819D01*
X226639285Y-144869819D02*
X226258333Y-144869819D01*
X226258333Y-144869819D02*
X226163095Y-144917438D01*
X226163095Y-144917438D02*
X226115476Y-144965057D01*
X226115476Y-144965057D02*
X226067857Y-145060295D01*
X226067857Y-145060295D02*
X226067857Y-145203152D01*
X226067857Y-145203152D02*
X226115476Y-145298390D01*
X226115476Y-145298390D02*
X226163095Y-145346009D01*
X226163095Y-145346009D02*
X226258333Y-145393628D01*
X226258333Y-145393628D02*
X226639285Y-145393628D01*
X225686904Y-144965057D02*
X225639285Y-144917438D01*
X225639285Y-144917438D02*
X225544047Y-144869819D01*
X225544047Y-144869819D02*
X225305952Y-144869819D01*
X225305952Y-144869819D02*
X225210714Y-144917438D01*
X225210714Y-144917438D02*
X225163095Y-144965057D01*
X225163095Y-144965057D02*
X225115476Y-145060295D01*
X225115476Y-145060295D02*
X225115476Y-145155533D01*
X225115476Y-145155533D02*
X225163095Y-145298390D01*
X225163095Y-145298390D02*
X225734523Y-145869819D01*
X225734523Y-145869819D02*
X225115476Y-145869819D01*
X224258333Y-144869819D02*
X224448809Y-144869819D01*
X224448809Y-144869819D02*
X224544047Y-144917438D01*
X224544047Y-144917438D02*
X224591666Y-144965057D01*
X224591666Y-144965057D02*
X224686904Y-145107914D01*
X224686904Y-145107914D02*
X224734523Y-145298390D01*
X224734523Y-145298390D02*
X224734523Y-145679342D01*
X224734523Y-145679342D02*
X224686904Y-145774580D01*
X224686904Y-145774580D02*
X224639285Y-145822200D01*
X224639285Y-145822200D02*
X224544047Y-145869819D01*
X224544047Y-145869819D02*
X224353571Y-145869819D01*
X224353571Y-145869819D02*
X224258333Y-145822200D01*
X224258333Y-145822200D02*
X224210714Y-145774580D01*
X224210714Y-145774580D02*
X224163095Y-145679342D01*
X224163095Y-145679342D02*
X224163095Y-145441247D01*
X224163095Y-145441247D02*
X224210714Y-145346009D01*
X224210714Y-145346009D02*
X224258333Y-145298390D01*
X224258333Y-145298390D02*
X224353571Y-145250771D01*
X224353571Y-145250771D02*
X224544047Y-145250771D01*
X224544047Y-145250771D02*
X224639285Y-145298390D01*
X224639285Y-145298390D02*
X224686904Y-145346009D01*
X224686904Y-145346009D02*
X224734523Y-145441247D01*
X206001857Y-137360819D02*
X206335190Y-136884628D01*
X206573285Y-137360819D02*
X206573285Y-136360819D01*
X206573285Y-136360819D02*
X206192333Y-136360819D01*
X206192333Y-136360819D02*
X206097095Y-136408438D01*
X206097095Y-136408438D02*
X206049476Y-136456057D01*
X206049476Y-136456057D02*
X206001857Y-136551295D01*
X206001857Y-136551295D02*
X206001857Y-136694152D01*
X206001857Y-136694152D02*
X206049476Y-136789390D01*
X206049476Y-136789390D02*
X206097095Y-136837009D01*
X206097095Y-136837009D02*
X206192333Y-136884628D01*
X206192333Y-136884628D02*
X206573285Y-136884628D01*
X205049476Y-137360819D02*
X205620904Y-137360819D01*
X205335190Y-137360819D02*
X205335190Y-136360819D01*
X205335190Y-136360819D02*
X205430428Y-136503676D01*
X205430428Y-136503676D02*
X205525666Y-136598914D01*
X205525666Y-136598914D02*
X205620904Y-136646533D01*
X204668523Y-136456057D02*
X204620904Y-136408438D01*
X204620904Y-136408438D02*
X204525666Y-136360819D01*
X204525666Y-136360819D02*
X204287571Y-136360819D01*
X204287571Y-136360819D02*
X204192333Y-136408438D01*
X204192333Y-136408438D02*
X204144714Y-136456057D01*
X204144714Y-136456057D02*
X204097095Y-136551295D01*
X204097095Y-136551295D02*
X204097095Y-136646533D01*
X204097095Y-136646533D02*
X204144714Y-136789390D01*
X204144714Y-136789390D02*
X204716142Y-137360819D01*
X204716142Y-137360819D02*
X204097095Y-137360819D01*
X212322580Y-132580142D02*
X212370200Y-132532523D01*
X212370200Y-132532523D02*
X212417819Y-132389666D01*
X212417819Y-132389666D02*
X212417819Y-132294428D01*
X212417819Y-132294428D02*
X212370200Y-132151571D01*
X212370200Y-132151571D02*
X212274961Y-132056333D01*
X212274961Y-132056333D02*
X212179723Y-132008714D01*
X212179723Y-132008714D02*
X211989247Y-131961095D01*
X211989247Y-131961095D02*
X211846390Y-131961095D01*
X211846390Y-131961095D02*
X211655914Y-132008714D01*
X211655914Y-132008714D02*
X211560676Y-132056333D01*
X211560676Y-132056333D02*
X211465438Y-132151571D01*
X211465438Y-132151571D02*
X211417819Y-132294428D01*
X211417819Y-132294428D02*
X211417819Y-132389666D01*
X211417819Y-132389666D02*
X211465438Y-132532523D01*
X211465438Y-132532523D02*
X211513057Y-132580142D01*
X211513057Y-132961095D02*
X211465438Y-133008714D01*
X211465438Y-133008714D02*
X211417819Y-133103952D01*
X211417819Y-133103952D02*
X211417819Y-133342047D01*
X211417819Y-133342047D02*
X211465438Y-133437285D01*
X211465438Y-133437285D02*
X211513057Y-133484904D01*
X211513057Y-133484904D02*
X211608295Y-133532523D01*
X211608295Y-133532523D02*
X211703533Y-133532523D01*
X211703533Y-133532523D02*
X211846390Y-133484904D01*
X211846390Y-133484904D02*
X212417819Y-132913476D01*
X212417819Y-132913476D02*
X212417819Y-133532523D01*
X211513057Y-133913476D02*
X211465438Y-133961095D01*
X211465438Y-133961095D02*
X211417819Y-134056333D01*
X211417819Y-134056333D02*
X211417819Y-134294428D01*
X211417819Y-134294428D02*
X211465438Y-134389666D01*
X211465438Y-134389666D02*
X211513057Y-134437285D01*
X211513057Y-134437285D02*
X211608295Y-134484904D01*
X211608295Y-134484904D02*
X211703533Y-134484904D01*
X211703533Y-134484904D02*
X211846390Y-134437285D01*
X211846390Y-134437285D02*
X212417819Y-133865857D01*
X212417819Y-133865857D02*
X212417819Y-134484904D01*
X237751857Y-119739580D02*
X237799476Y-119787200D01*
X237799476Y-119787200D02*
X237942333Y-119834819D01*
X237942333Y-119834819D02*
X238037571Y-119834819D01*
X238037571Y-119834819D02*
X238180428Y-119787200D01*
X238180428Y-119787200D02*
X238275666Y-119691961D01*
X238275666Y-119691961D02*
X238323285Y-119596723D01*
X238323285Y-119596723D02*
X238370904Y-119406247D01*
X238370904Y-119406247D02*
X238370904Y-119263390D01*
X238370904Y-119263390D02*
X238323285Y-119072914D01*
X238323285Y-119072914D02*
X238275666Y-118977676D01*
X238275666Y-118977676D02*
X238180428Y-118882438D01*
X238180428Y-118882438D02*
X238037571Y-118834819D01*
X238037571Y-118834819D02*
X237942333Y-118834819D01*
X237942333Y-118834819D02*
X237799476Y-118882438D01*
X237799476Y-118882438D02*
X237751857Y-118930057D01*
X236847095Y-118834819D02*
X237323285Y-118834819D01*
X237323285Y-118834819D02*
X237370904Y-119311009D01*
X237370904Y-119311009D02*
X237323285Y-119263390D01*
X237323285Y-119263390D02*
X237228047Y-119215771D01*
X237228047Y-119215771D02*
X236989952Y-119215771D01*
X236989952Y-119215771D02*
X236894714Y-119263390D01*
X236894714Y-119263390D02*
X236847095Y-119311009D01*
X236847095Y-119311009D02*
X236799476Y-119406247D01*
X236799476Y-119406247D02*
X236799476Y-119644342D01*
X236799476Y-119644342D02*
X236847095Y-119739580D01*
X236847095Y-119739580D02*
X236894714Y-119787200D01*
X236894714Y-119787200D02*
X236989952Y-119834819D01*
X236989952Y-119834819D02*
X237228047Y-119834819D01*
X237228047Y-119834819D02*
X237323285Y-119787200D01*
X237323285Y-119787200D02*
X237370904Y-119739580D01*
X235942333Y-118834819D02*
X236132809Y-118834819D01*
X236132809Y-118834819D02*
X236228047Y-118882438D01*
X236228047Y-118882438D02*
X236275666Y-118930057D01*
X236275666Y-118930057D02*
X236370904Y-119072914D01*
X236370904Y-119072914D02*
X236418523Y-119263390D01*
X236418523Y-119263390D02*
X236418523Y-119644342D01*
X236418523Y-119644342D02*
X236370904Y-119739580D01*
X236370904Y-119739580D02*
X236323285Y-119787200D01*
X236323285Y-119787200D02*
X236228047Y-119834819D01*
X236228047Y-119834819D02*
X236037571Y-119834819D01*
X236037571Y-119834819D02*
X235942333Y-119787200D01*
X235942333Y-119787200D02*
X235894714Y-119739580D01*
X235894714Y-119739580D02*
X235847095Y-119644342D01*
X235847095Y-119644342D02*
X235847095Y-119406247D01*
X235847095Y-119406247D02*
X235894714Y-119311009D01*
X235894714Y-119311009D02*
X235942333Y-119263390D01*
X235942333Y-119263390D02*
X236037571Y-119215771D01*
X236037571Y-119215771D02*
X236228047Y-119215771D01*
X236228047Y-119215771D02*
X236323285Y-119263390D01*
X236323285Y-119263390D02*
X236370904Y-119311009D01*
X236370904Y-119311009D02*
X236418523Y-119406247D01*
X212351857Y-152346819D02*
X212685190Y-151870628D01*
X212923285Y-152346819D02*
X212923285Y-151346819D01*
X212923285Y-151346819D02*
X212542333Y-151346819D01*
X212542333Y-151346819D02*
X212447095Y-151394438D01*
X212447095Y-151394438D02*
X212399476Y-151442057D01*
X212399476Y-151442057D02*
X212351857Y-151537295D01*
X212351857Y-151537295D02*
X212351857Y-151680152D01*
X212351857Y-151680152D02*
X212399476Y-151775390D01*
X212399476Y-151775390D02*
X212447095Y-151823009D01*
X212447095Y-151823009D02*
X212542333Y-151870628D01*
X212542333Y-151870628D02*
X212923285Y-151870628D01*
X211970904Y-151442057D02*
X211923285Y-151394438D01*
X211923285Y-151394438D02*
X211828047Y-151346819D01*
X211828047Y-151346819D02*
X211589952Y-151346819D01*
X211589952Y-151346819D02*
X211494714Y-151394438D01*
X211494714Y-151394438D02*
X211447095Y-151442057D01*
X211447095Y-151442057D02*
X211399476Y-151537295D01*
X211399476Y-151537295D02*
X211399476Y-151632533D01*
X211399476Y-151632533D02*
X211447095Y-151775390D01*
X211447095Y-151775390D02*
X212018523Y-152346819D01*
X212018523Y-152346819D02*
X211399476Y-152346819D01*
X211018523Y-151442057D02*
X210970904Y-151394438D01*
X210970904Y-151394438D02*
X210875666Y-151346819D01*
X210875666Y-151346819D02*
X210637571Y-151346819D01*
X210637571Y-151346819D02*
X210542333Y-151394438D01*
X210542333Y-151394438D02*
X210494714Y-151442057D01*
X210494714Y-151442057D02*
X210447095Y-151537295D01*
X210447095Y-151537295D02*
X210447095Y-151632533D01*
X210447095Y-151632533D02*
X210494714Y-151775390D01*
X210494714Y-151775390D02*
X211066142Y-152346819D01*
X211066142Y-152346819D02*
X210447095Y-152346819D01*
X220069580Y-151249142D02*
X220117200Y-151201523D01*
X220117200Y-151201523D02*
X220164819Y-151058666D01*
X220164819Y-151058666D02*
X220164819Y-150963428D01*
X220164819Y-150963428D02*
X220117200Y-150820571D01*
X220117200Y-150820571D02*
X220021961Y-150725333D01*
X220021961Y-150725333D02*
X219926723Y-150677714D01*
X219926723Y-150677714D02*
X219736247Y-150630095D01*
X219736247Y-150630095D02*
X219593390Y-150630095D01*
X219593390Y-150630095D02*
X219402914Y-150677714D01*
X219402914Y-150677714D02*
X219307676Y-150725333D01*
X219307676Y-150725333D02*
X219212438Y-150820571D01*
X219212438Y-150820571D02*
X219164819Y-150963428D01*
X219164819Y-150963428D02*
X219164819Y-151058666D01*
X219164819Y-151058666D02*
X219212438Y-151201523D01*
X219212438Y-151201523D02*
X219260057Y-151249142D01*
X219498152Y-152106285D02*
X220164819Y-152106285D01*
X219117200Y-151868190D02*
X219831485Y-151630095D01*
X219831485Y-151630095D02*
X219831485Y-152249142D01*
X219164819Y-152534857D02*
X219164819Y-153153904D01*
X219164819Y-153153904D02*
X219545771Y-152820571D01*
X219545771Y-152820571D02*
X219545771Y-152963428D01*
X219545771Y-152963428D02*
X219593390Y-153058666D01*
X219593390Y-153058666D02*
X219641009Y-153106285D01*
X219641009Y-153106285D02*
X219736247Y-153153904D01*
X219736247Y-153153904D02*
X219974342Y-153153904D01*
X219974342Y-153153904D02*
X220069580Y-153106285D01*
X220069580Y-153106285D02*
X220117200Y-153058666D01*
X220117200Y-153058666D02*
X220164819Y-152963428D01*
X220164819Y-152963428D02*
X220164819Y-152677714D01*
X220164819Y-152677714D02*
X220117200Y-152582476D01*
X220117200Y-152582476D02*
X220069580Y-152534857D01*
X220196580Y-142232142D02*
X220244200Y-142184523D01*
X220244200Y-142184523D02*
X220291819Y-142041666D01*
X220291819Y-142041666D02*
X220291819Y-141946428D01*
X220291819Y-141946428D02*
X220244200Y-141803571D01*
X220244200Y-141803571D02*
X220148961Y-141708333D01*
X220148961Y-141708333D02*
X220053723Y-141660714D01*
X220053723Y-141660714D02*
X219863247Y-141613095D01*
X219863247Y-141613095D02*
X219720390Y-141613095D01*
X219720390Y-141613095D02*
X219529914Y-141660714D01*
X219529914Y-141660714D02*
X219434676Y-141708333D01*
X219434676Y-141708333D02*
X219339438Y-141803571D01*
X219339438Y-141803571D02*
X219291819Y-141946428D01*
X219291819Y-141946428D02*
X219291819Y-142041666D01*
X219291819Y-142041666D02*
X219339438Y-142184523D01*
X219339438Y-142184523D02*
X219387057Y-142232142D01*
X219625152Y-143089285D02*
X220291819Y-143089285D01*
X219244200Y-142851190D02*
X219958485Y-142613095D01*
X219958485Y-142613095D02*
X219958485Y-143232142D01*
X219387057Y-143565476D02*
X219339438Y-143613095D01*
X219339438Y-143613095D02*
X219291819Y-143708333D01*
X219291819Y-143708333D02*
X219291819Y-143946428D01*
X219291819Y-143946428D02*
X219339438Y-144041666D01*
X219339438Y-144041666D02*
X219387057Y-144089285D01*
X219387057Y-144089285D02*
X219482295Y-144136904D01*
X219482295Y-144136904D02*
X219577533Y-144136904D01*
X219577533Y-144136904D02*
X219720390Y-144089285D01*
X219720390Y-144089285D02*
X220291819Y-143517857D01*
X220291819Y-143517857D02*
X220291819Y-144136904D01*
X183903857Y-143202819D02*
X184237190Y-142726628D01*
X184475285Y-143202819D02*
X184475285Y-142202819D01*
X184475285Y-142202819D02*
X184094333Y-142202819D01*
X184094333Y-142202819D02*
X183999095Y-142250438D01*
X183999095Y-142250438D02*
X183951476Y-142298057D01*
X183951476Y-142298057D02*
X183903857Y-142393295D01*
X183903857Y-142393295D02*
X183903857Y-142536152D01*
X183903857Y-142536152D02*
X183951476Y-142631390D01*
X183951476Y-142631390D02*
X183999095Y-142679009D01*
X183999095Y-142679009D02*
X184094333Y-142726628D01*
X184094333Y-142726628D02*
X184475285Y-142726628D01*
X182999095Y-142202819D02*
X183475285Y-142202819D01*
X183475285Y-142202819D02*
X183522904Y-142679009D01*
X183522904Y-142679009D02*
X183475285Y-142631390D01*
X183475285Y-142631390D02*
X183380047Y-142583771D01*
X183380047Y-142583771D02*
X183141952Y-142583771D01*
X183141952Y-142583771D02*
X183046714Y-142631390D01*
X183046714Y-142631390D02*
X182999095Y-142679009D01*
X182999095Y-142679009D02*
X182951476Y-142774247D01*
X182951476Y-142774247D02*
X182951476Y-143012342D01*
X182951476Y-143012342D02*
X182999095Y-143107580D01*
X182999095Y-143107580D02*
X183046714Y-143155200D01*
X183046714Y-143155200D02*
X183141952Y-143202819D01*
X183141952Y-143202819D02*
X183380047Y-143202819D01*
X183380047Y-143202819D02*
X183475285Y-143155200D01*
X183475285Y-143155200D02*
X183522904Y-143107580D01*
X182618142Y-142202819D02*
X181951476Y-142202819D01*
X181951476Y-142202819D02*
X182380047Y-143202819D01*
X226067857Y-147266819D02*
X226401190Y-146790628D01*
X226639285Y-147266819D02*
X226639285Y-146266819D01*
X226639285Y-146266819D02*
X226258333Y-146266819D01*
X226258333Y-146266819D02*
X226163095Y-146314438D01*
X226163095Y-146314438D02*
X226115476Y-146362057D01*
X226115476Y-146362057D02*
X226067857Y-146457295D01*
X226067857Y-146457295D02*
X226067857Y-146600152D01*
X226067857Y-146600152D02*
X226115476Y-146695390D01*
X226115476Y-146695390D02*
X226163095Y-146743009D01*
X226163095Y-146743009D02*
X226258333Y-146790628D01*
X226258333Y-146790628D02*
X226639285Y-146790628D01*
X225686904Y-146362057D02*
X225639285Y-146314438D01*
X225639285Y-146314438D02*
X225544047Y-146266819D01*
X225544047Y-146266819D02*
X225305952Y-146266819D01*
X225305952Y-146266819D02*
X225210714Y-146314438D01*
X225210714Y-146314438D02*
X225163095Y-146362057D01*
X225163095Y-146362057D02*
X225115476Y-146457295D01*
X225115476Y-146457295D02*
X225115476Y-146552533D01*
X225115476Y-146552533D02*
X225163095Y-146695390D01*
X225163095Y-146695390D02*
X225734523Y-147266819D01*
X225734523Y-147266819D02*
X225115476Y-147266819D01*
X224782142Y-146266819D02*
X224115476Y-146266819D01*
X224115476Y-146266819D02*
X224544047Y-147266819D01*
D11*
X210056000Y-141872580D02*
X210056000Y-141591420D01*
X211076000Y-141872580D02*
X211076000Y-141591420D01*
X183401580Y-139190000D02*
X183120420Y-139190000D01*
X183401580Y-140210000D02*
X183120420Y-140210000D01*
X190739500Y-144525276D02*
X190739500Y-145034724D01*
X191784500Y-144525276D02*
X191784500Y-145034724D01*
X211581276Y-148194500D02*
X212090724Y-148194500D01*
X211581276Y-149239500D02*
X212090724Y-149239500D01*
X222207000Y-159948000D02*
X222202314Y-191448000D01*
X222207000Y-191448000D02*
X241416372Y-191448000D01*
D12*
X234817998Y-152073400D02*
X236494402Y-152073400D01*
X235707000Y-152911602D02*
X235707000Y-151184398D01*
D11*
X241407000Y-191448000D02*
X241407000Y-159948000D01*
X222207001Y-159948000D02*
G75*
G02*
X241406999Y-159948000I9599999J-2600001D01*
G01*
X221741276Y-149210500D02*
X222250724Y-149210500D01*
X221741276Y-150255500D02*
X222250724Y-150255500D01*
X209690580Y-134999000D02*
X209409420Y-134999000D01*
X209690580Y-136019000D02*
X209409420Y-136019000D01*
X211581276Y-149845500D02*
X212090724Y-149845500D01*
X211581276Y-150890500D02*
X212090724Y-150890500D01*
X193787500Y-140334276D02*
X193787500Y-140843724D01*
X194832500Y-140334276D02*
X194832500Y-140843724D01*
X221741276Y-147813500D02*
X222250724Y-147813500D01*
X221741276Y-148858500D02*
X222250724Y-148858500D01*
X193506420Y-143572346D02*
X193866654Y-143932580D01*
X194245346Y-142833420D02*
X194605580Y-143193654D01*
X221868276Y-144892500D02*
X222377724Y-144892500D01*
X221868276Y-145937500D02*
X222377724Y-145937500D01*
X209804724Y-136383500D02*
X209295276Y-136383500D01*
X209804724Y-137428500D02*
X209295276Y-137428500D01*
X211453000Y-136122775D02*
X211453000Y-136403935D01*
X212473000Y-136122775D02*
X212473000Y-136403935D01*
X227414000Y-123626000D02*
X227409314Y-155126000D01*
X227414000Y-155126000D02*
X246623372Y-155126000D01*
D12*
X240024998Y-115751400D02*
X241701402Y-115751400D01*
X240914000Y-116589602D02*
X240914000Y-114862398D01*
D11*
X246614000Y-155126000D02*
X246614000Y-123626000D01*
X227414001Y-123626000D02*
G75*
G02*
X246613999Y-123626000I9599999J-2600001D01*
G01*
X211454276Y-146670500D02*
X211963724Y-146670500D01*
X211454276Y-147715500D02*
X211963724Y-147715500D01*
X219200000Y-148703420D02*
X219200000Y-148984580D01*
X220220000Y-148703420D02*
X220220000Y-148984580D01*
X219327000Y-145909420D02*
X219327000Y-146190580D01*
X220347000Y-145909420D02*
X220347000Y-146190580D01*
X183515724Y-140574500D02*
X183006276Y-140574500D01*
X183515724Y-141619500D02*
X183006276Y-141619500D01*
X221868276Y-146289500D02*
X222377724Y-146289500D01*
X221868276Y-147334500D02*
X222377724Y-147334500D01*
M02*
